G75*
%MOIN*%
%OFA0B0*%
%FSLAX25Y25*%
%IPPOS*%
%LPD*%
%AMOC8*
5,1,8,0,0,1.08239X$1,22.5*
%
%ADD10C,0.00000*%
%ADD11C,0.00300*%
%ADD12C,0.00400*%
%ADD13C,0.00600*%
%ADD14C,0.00200*%
%ADD15R,0.00591X0.01181*%
%ADD16R,0.01181X0.01181*%
D10*
X0016292Y0013630D02*
X0043885Y0013630D01*
X0043986Y0013628D01*
X0044087Y0013622D01*
X0044188Y0013613D01*
X0044288Y0013599D01*
X0044388Y0013582D01*
X0044487Y0013561D01*
X0044585Y0013536D01*
X0044682Y0013507D01*
X0044778Y0013475D01*
X0044872Y0013439D01*
X0044965Y0013399D01*
X0045057Y0013356D01*
X0045147Y0013309D01*
X0045235Y0013259D01*
X0045321Y0013206D01*
X0045404Y0013149D01*
X0045486Y0013089D01*
X0045565Y0013027D01*
X0045642Y0012961D01*
X0045716Y0012892D01*
X0045788Y0012820D01*
X0045857Y0012746D01*
X0045923Y0012669D01*
X0045985Y0012590D01*
X0046045Y0012508D01*
X0046102Y0012425D01*
X0046155Y0012339D01*
X0046205Y0012251D01*
X0046252Y0012161D01*
X0046295Y0012069D01*
X0046335Y0011976D01*
X0046371Y0011882D01*
X0046403Y0011786D01*
X0046432Y0011689D01*
X0046457Y0011591D01*
X0046478Y0011492D01*
X0046495Y0011392D01*
X0046509Y0011292D01*
X0046518Y0011191D01*
X0046524Y0011090D01*
X0046526Y0010989D01*
X0046526Y0003552D01*
X0046525Y0003552D02*
X0046527Y0003453D01*
X0046533Y0003354D01*
X0046542Y0003256D01*
X0046556Y0003158D01*
X0046573Y0003060D01*
X0046595Y0002963D01*
X0046620Y0002868D01*
X0046648Y0002773D01*
X0046681Y0002679D01*
X0046717Y0002587D01*
X0046757Y0002497D01*
X0046800Y0002407D01*
X0046846Y0002320D01*
X0046896Y0002235D01*
X0046950Y0002151D01*
X0047006Y0002070D01*
X0047066Y0001991D01*
X0047129Y0001915D01*
X0047195Y0001841D01*
X0047263Y0001769D01*
X0047335Y0001701D01*
X0047409Y0001635D01*
X0047485Y0001572D01*
X0047564Y0001512D01*
X0047645Y0001456D01*
X0047729Y0001402D01*
X0047814Y0001352D01*
X0047901Y0001306D01*
X0047991Y0001263D01*
X0048081Y0001223D01*
X0048173Y0001187D01*
X0048267Y0001154D01*
X0048362Y0001126D01*
X0048457Y0001101D01*
X0048554Y0001079D01*
X0048652Y0001062D01*
X0048750Y0001048D01*
X0048848Y0001039D01*
X0048947Y0001033D01*
X0049046Y0001031D01*
X0082588Y0001031D01*
X0082714Y0001045D01*
X0082839Y0001063D01*
X0082964Y0001085D01*
X0083088Y0001110D01*
X0083211Y0001140D01*
X0083333Y0001173D01*
X0083455Y0001210D01*
X0083575Y0001251D01*
X0083693Y0001295D01*
X0083811Y0001343D01*
X0083926Y0001395D01*
X0084040Y0001450D01*
X0084153Y0001508D01*
X0084263Y0001570D01*
X0084372Y0001636D01*
X0084478Y0001704D01*
X0084583Y0001776D01*
X0084685Y0001852D01*
X0084784Y0001930D01*
X0084881Y0002011D01*
X0084976Y0002095D01*
X0085068Y0002182D01*
X0085157Y0002272D01*
X0085244Y0002365D01*
X0085327Y0002460D01*
X0085408Y0002558D01*
X0085486Y0002658D01*
X0085560Y0002761D01*
X0085631Y0002865D01*
X0085699Y0002972D01*
X0085764Y0003081D01*
X0085825Y0003192D01*
X0085883Y0003305D01*
X0085937Y0003419D01*
X0085988Y0003535D01*
X0086035Y0003653D01*
X0086079Y0003772D01*
X0086119Y0003892D01*
X0086155Y0004014D01*
X0086187Y0004136D01*
X0086216Y0004260D01*
X0086241Y0004384D01*
X0086261Y0004509D01*
X0086279Y0004635D01*
X0086292Y0004761D01*
X0086301Y0004887D01*
X0086306Y0005013D01*
X0086308Y0005140D01*
X0086306Y0005267D01*
X0086299Y0005393D01*
X0086289Y0005520D01*
X0086289Y0097463D01*
X0086287Y0097624D01*
X0086281Y0097786D01*
X0086271Y0097947D01*
X0086258Y0098108D01*
X0086240Y0098268D01*
X0086219Y0098428D01*
X0086194Y0098587D01*
X0086165Y0098746D01*
X0086132Y0098904D01*
X0086095Y0099061D01*
X0086054Y0099218D01*
X0086010Y0099373D01*
X0085962Y0099527D01*
X0085910Y0099680D01*
X0085855Y0099831D01*
X0085796Y0099982D01*
X0085733Y0100130D01*
X0085667Y0100278D01*
X0085597Y0100423D01*
X0085524Y0100567D01*
X0085447Y0100709D01*
X0085367Y0100849D01*
X0085284Y0100987D01*
X0085197Y0101123D01*
X0085107Y0101257D01*
X0085013Y0101389D01*
X0084917Y0101518D01*
X0084817Y0101645D01*
X0084715Y0101770D01*
X0084609Y0101892D01*
X0084501Y0102012D01*
X0084389Y0102128D01*
X0084275Y0102242D01*
X0084159Y0102354D01*
X0084039Y0102462D01*
X0083917Y0102568D01*
X0083792Y0102670D01*
X0083665Y0102770D01*
X0083536Y0102866D01*
X0083404Y0102960D01*
X0083270Y0103050D01*
X0083134Y0103137D01*
X0082996Y0103220D01*
X0082856Y0103300D01*
X0082714Y0103377D01*
X0082570Y0103450D01*
X0082425Y0103520D01*
X0082277Y0103586D01*
X0082129Y0103649D01*
X0081978Y0103708D01*
X0081827Y0103763D01*
X0081674Y0103815D01*
X0081520Y0103863D01*
X0081365Y0103907D01*
X0081208Y0103948D01*
X0081051Y0103985D01*
X0080893Y0104018D01*
X0080734Y0104047D01*
X0080575Y0104072D01*
X0080415Y0104093D01*
X0080255Y0104111D01*
X0080094Y0104124D01*
X0079933Y0104134D01*
X0079771Y0104140D01*
X0079610Y0104142D01*
X0018866Y0104142D01*
X0018866Y0104141D02*
X0018688Y0104139D01*
X0018509Y0104132D01*
X0018331Y0104122D01*
X0018154Y0104107D01*
X0017976Y0104087D01*
X0017800Y0104064D01*
X0017624Y0104036D01*
X0017448Y0104004D01*
X0017274Y0103967D01*
X0017100Y0103927D01*
X0016927Y0103882D01*
X0016756Y0103833D01*
X0016585Y0103780D01*
X0016417Y0103723D01*
X0016249Y0103661D01*
X0016083Y0103596D01*
X0015919Y0103527D01*
X0015756Y0103454D01*
X0015595Y0103377D01*
X0015436Y0103296D01*
X0015279Y0103211D01*
X0015125Y0103122D01*
X0014972Y0103030D01*
X0014822Y0102934D01*
X0014674Y0102835D01*
X0014528Y0102732D01*
X0014385Y0102625D01*
X0014245Y0102515D01*
X0014107Y0102402D01*
X0013972Y0102285D01*
X0013840Y0102165D01*
X0013711Y0102042D01*
X0013585Y0101916D01*
X0013462Y0101787D01*
X0013342Y0101655D01*
X0013225Y0101520D01*
X0013112Y0101382D01*
X0013002Y0101242D01*
X0012895Y0101099D01*
X0012792Y0100953D01*
X0012693Y0100805D01*
X0012597Y0100655D01*
X0012505Y0100502D01*
X0012416Y0100348D01*
X0012331Y0100191D01*
X0012250Y0100032D01*
X0012173Y0099871D01*
X0012100Y0099708D01*
X0012031Y0099544D01*
X0011966Y0099378D01*
X0011904Y0099210D01*
X0011847Y0099042D01*
X0011794Y0098871D01*
X0011745Y0098700D01*
X0011700Y0098527D01*
X0011660Y0098353D01*
X0011623Y0098179D01*
X0011591Y0098003D01*
X0011563Y0097827D01*
X0011540Y0097651D01*
X0011520Y0097473D01*
X0011505Y0097296D01*
X0011495Y0097118D01*
X0011488Y0096939D01*
X0011486Y0096761D01*
X0011486Y0018436D01*
X0011488Y0018299D01*
X0011494Y0018162D01*
X0011504Y0018025D01*
X0011517Y0017888D01*
X0011535Y0017752D01*
X0011556Y0017616D01*
X0011582Y0017482D01*
X0011611Y0017347D01*
X0011644Y0017214D01*
X0011681Y0017082D01*
X0011721Y0016951D01*
X0011765Y0016821D01*
X0011813Y0016692D01*
X0011865Y0016565D01*
X0011920Y0016440D01*
X0011979Y0016315D01*
X0012041Y0016193D01*
X0012107Y0016073D01*
X0012176Y0015954D01*
X0012249Y0015838D01*
X0012325Y0015723D01*
X0012404Y0015611D01*
X0012486Y0015501D01*
X0012571Y0015394D01*
X0012660Y0015289D01*
X0012751Y0015186D01*
X0012845Y0015087D01*
X0012943Y0014989D01*
X0013042Y0014895D01*
X0013145Y0014804D01*
X0013250Y0014715D01*
X0013357Y0014630D01*
X0013467Y0014548D01*
X0013579Y0014469D01*
X0013694Y0014393D01*
X0013810Y0014320D01*
X0013929Y0014251D01*
X0014049Y0014185D01*
X0014171Y0014123D01*
X0014296Y0014064D01*
X0014421Y0014009D01*
X0014548Y0013957D01*
X0014677Y0013909D01*
X0014807Y0013865D01*
X0014938Y0013825D01*
X0015070Y0013788D01*
X0015203Y0013755D01*
X0015338Y0013726D01*
X0015472Y0013700D01*
X0015608Y0013679D01*
X0015744Y0013661D01*
X0015881Y0013648D01*
X0016018Y0013638D01*
X0016155Y0013632D01*
X0016292Y0013630D01*
X0062667Y0015205D02*
X0062669Y0015293D01*
X0062675Y0015381D01*
X0062685Y0015469D01*
X0062699Y0015557D01*
X0062716Y0015643D01*
X0062738Y0015729D01*
X0062763Y0015813D01*
X0062793Y0015897D01*
X0062825Y0015979D01*
X0062862Y0016059D01*
X0062902Y0016138D01*
X0062946Y0016215D01*
X0062993Y0016290D01*
X0063043Y0016362D01*
X0063097Y0016433D01*
X0063153Y0016500D01*
X0063213Y0016566D01*
X0063275Y0016628D01*
X0063341Y0016688D01*
X0063408Y0016744D01*
X0063479Y0016798D01*
X0063551Y0016848D01*
X0063626Y0016895D01*
X0063703Y0016939D01*
X0063782Y0016979D01*
X0063862Y0017016D01*
X0063944Y0017048D01*
X0064028Y0017078D01*
X0064112Y0017103D01*
X0064198Y0017125D01*
X0064284Y0017142D01*
X0064372Y0017156D01*
X0064460Y0017166D01*
X0064548Y0017172D01*
X0064636Y0017174D01*
X0064724Y0017172D01*
X0064812Y0017166D01*
X0064900Y0017156D01*
X0064988Y0017142D01*
X0065074Y0017125D01*
X0065160Y0017103D01*
X0065244Y0017078D01*
X0065328Y0017048D01*
X0065410Y0017016D01*
X0065490Y0016979D01*
X0065569Y0016939D01*
X0065646Y0016895D01*
X0065721Y0016848D01*
X0065793Y0016798D01*
X0065864Y0016744D01*
X0065931Y0016688D01*
X0065997Y0016628D01*
X0066059Y0016566D01*
X0066119Y0016500D01*
X0066175Y0016433D01*
X0066229Y0016362D01*
X0066279Y0016290D01*
X0066326Y0016215D01*
X0066370Y0016138D01*
X0066410Y0016059D01*
X0066447Y0015979D01*
X0066479Y0015897D01*
X0066509Y0015813D01*
X0066534Y0015729D01*
X0066556Y0015643D01*
X0066573Y0015557D01*
X0066587Y0015469D01*
X0066597Y0015381D01*
X0066603Y0015293D01*
X0066605Y0015205D01*
X0066603Y0015117D01*
X0066597Y0015029D01*
X0066587Y0014941D01*
X0066573Y0014853D01*
X0066556Y0014767D01*
X0066534Y0014681D01*
X0066509Y0014597D01*
X0066479Y0014513D01*
X0066447Y0014431D01*
X0066410Y0014351D01*
X0066370Y0014272D01*
X0066326Y0014195D01*
X0066279Y0014120D01*
X0066229Y0014048D01*
X0066175Y0013977D01*
X0066119Y0013910D01*
X0066059Y0013844D01*
X0065997Y0013782D01*
X0065931Y0013722D01*
X0065864Y0013666D01*
X0065793Y0013612D01*
X0065721Y0013562D01*
X0065646Y0013515D01*
X0065569Y0013471D01*
X0065490Y0013431D01*
X0065410Y0013394D01*
X0065328Y0013362D01*
X0065244Y0013332D01*
X0065160Y0013307D01*
X0065074Y0013285D01*
X0064988Y0013268D01*
X0064900Y0013254D01*
X0064812Y0013244D01*
X0064724Y0013238D01*
X0064636Y0013236D01*
X0064548Y0013238D01*
X0064460Y0013244D01*
X0064372Y0013254D01*
X0064284Y0013268D01*
X0064198Y0013285D01*
X0064112Y0013307D01*
X0064028Y0013332D01*
X0063944Y0013362D01*
X0063862Y0013394D01*
X0063782Y0013431D01*
X0063703Y0013471D01*
X0063626Y0013515D01*
X0063551Y0013562D01*
X0063479Y0013612D01*
X0063408Y0013666D01*
X0063341Y0013722D01*
X0063275Y0013782D01*
X0063213Y0013844D01*
X0063153Y0013910D01*
X0063097Y0013977D01*
X0063043Y0014048D01*
X0062993Y0014120D01*
X0062946Y0014195D01*
X0062902Y0014272D01*
X0062862Y0014351D01*
X0062825Y0014431D01*
X0062793Y0014513D01*
X0062763Y0014597D01*
X0062738Y0014681D01*
X0062716Y0014767D01*
X0062699Y0014853D01*
X0062685Y0014941D01*
X0062675Y0015029D01*
X0062669Y0015117D01*
X0062667Y0015205D01*
X0062667Y0032528D02*
X0062669Y0032616D01*
X0062675Y0032704D01*
X0062685Y0032792D01*
X0062699Y0032880D01*
X0062716Y0032966D01*
X0062738Y0033052D01*
X0062763Y0033136D01*
X0062793Y0033220D01*
X0062825Y0033302D01*
X0062862Y0033382D01*
X0062902Y0033461D01*
X0062946Y0033538D01*
X0062993Y0033613D01*
X0063043Y0033685D01*
X0063097Y0033756D01*
X0063153Y0033823D01*
X0063213Y0033889D01*
X0063275Y0033951D01*
X0063341Y0034011D01*
X0063408Y0034067D01*
X0063479Y0034121D01*
X0063551Y0034171D01*
X0063626Y0034218D01*
X0063703Y0034262D01*
X0063782Y0034302D01*
X0063862Y0034339D01*
X0063944Y0034371D01*
X0064028Y0034401D01*
X0064112Y0034426D01*
X0064198Y0034448D01*
X0064284Y0034465D01*
X0064372Y0034479D01*
X0064460Y0034489D01*
X0064548Y0034495D01*
X0064636Y0034497D01*
X0064724Y0034495D01*
X0064812Y0034489D01*
X0064900Y0034479D01*
X0064988Y0034465D01*
X0065074Y0034448D01*
X0065160Y0034426D01*
X0065244Y0034401D01*
X0065328Y0034371D01*
X0065410Y0034339D01*
X0065490Y0034302D01*
X0065569Y0034262D01*
X0065646Y0034218D01*
X0065721Y0034171D01*
X0065793Y0034121D01*
X0065864Y0034067D01*
X0065931Y0034011D01*
X0065997Y0033951D01*
X0066059Y0033889D01*
X0066119Y0033823D01*
X0066175Y0033756D01*
X0066229Y0033685D01*
X0066279Y0033613D01*
X0066326Y0033538D01*
X0066370Y0033461D01*
X0066410Y0033382D01*
X0066447Y0033302D01*
X0066479Y0033220D01*
X0066509Y0033136D01*
X0066534Y0033052D01*
X0066556Y0032966D01*
X0066573Y0032880D01*
X0066587Y0032792D01*
X0066597Y0032704D01*
X0066603Y0032616D01*
X0066605Y0032528D01*
X0066603Y0032440D01*
X0066597Y0032352D01*
X0066587Y0032264D01*
X0066573Y0032176D01*
X0066556Y0032090D01*
X0066534Y0032004D01*
X0066509Y0031920D01*
X0066479Y0031836D01*
X0066447Y0031754D01*
X0066410Y0031674D01*
X0066370Y0031595D01*
X0066326Y0031518D01*
X0066279Y0031443D01*
X0066229Y0031371D01*
X0066175Y0031300D01*
X0066119Y0031233D01*
X0066059Y0031167D01*
X0065997Y0031105D01*
X0065931Y0031045D01*
X0065864Y0030989D01*
X0065793Y0030935D01*
X0065721Y0030885D01*
X0065646Y0030838D01*
X0065569Y0030794D01*
X0065490Y0030754D01*
X0065410Y0030717D01*
X0065328Y0030685D01*
X0065244Y0030655D01*
X0065160Y0030630D01*
X0065074Y0030608D01*
X0064988Y0030591D01*
X0064900Y0030577D01*
X0064812Y0030567D01*
X0064724Y0030561D01*
X0064636Y0030559D01*
X0064548Y0030561D01*
X0064460Y0030567D01*
X0064372Y0030577D01*
X0064284Y0030591D01*
X0064198Y0030608D01*
X0064112Y0030630D01*
X0064028Y0030655D01*
X0063944Y0030685D01*
X0063862Y0030717D01*
X0063782Y0030754D01*
X0063703Y0030794D01*
X0063626Y0030838D01*
X0063551Y0030885D01*
X0063479Y0030935D01*
X0063408Y0030989D01*
X0063341Y0031045D01*
X0063275Y0031105D01*
X0063213Y0031167D01*
X0063153Y0031233D01*
X0063097Y0031300D01*
X0063043Y0031371D01*
X0062993Y0031443D01*
X0062946Y0031518D01*
X0062902Y0031595D01*
X0062862Y0031674D01*
X0062825Y0031754D01*
X0062793Y0031836D01*
X0062763Y0031920D01*
X0062738Y0032004D01*
X0062716Y0032090D01*
X0062699Y0032176D01*
X0062685Y0032264D01*
X0062675Y0032352D01*
X0062669Y0032440D01*
X0062667Y0032528D01*
D11*
X0062345Y0050882D02*
X0062962Y0050882D01*
X0062962Y0051499D01*
X0062345Y0051499D01*
X0062345Y0050882D01*
X0061120Y0050882D02*
X0058651Y0053351D01*
X0058651Y0053968D01*
X0059269Y0054585D01*
X0060503Y0054585D01*
X0061120Y0053968D01*
X0064176Y0053968D02*
X0064793Y0054585D01*
X0066028Y0054585D01*
X0066645Y0053968D01*
X0064176Y0053968D02*
X0064176Y0053351D01*
X0066645Y0050882D01*
X0064176Y0050882D01*
X0061120Y0050882D02*
X0058651Y0050882D01*
X0057437Y0050882D02*
X0057437Y0054585D01*
X0058688Y0056376D02*
X0059922Y0057610D01*
X0056219Y0057610D01*
X0056219Y0056376D02*
X0056219Y0058845D01*
X0056836Y0060059D02*
X0056219Y0060676D01*
X0056219Y0061911D01*
X0056836Y0062528D01*
X0059305Y0062528D01*
X0056836Y0060059D01*
X0059305Y0060059D01*
X0059922Y0060676D01*
X0059922Y0061911D01*
X0059305Y0062528D01*
X0059922Y0063742D02*
X0056219Y0063742D01*
X0057453Y0063742D02*
X0056219Y0065594D01*
X0057453Y0063742D02*
X0058688Y0065594D01*
X0058042Y0074528D02*
X0059276Y0075762D01*
X0055573Y0075762D01*
X0055573Y0074528D02*
X0055573Y0076997D01*
X0056190Y0078211D02*
X0058659Y0080680D01*
X0056190Y0080680D01*
X0055573Y0080063D01*
X0055573Y0078828D01*
X0056190Y0078211D01*
X0058659Y0078211D01*
X0059276Y0078828D01*
X0059276Y0080063D01*
X0058659Y0080680D01*
X0058042Y0081894D02*
X0058042Y0083746D01*
X0057425Y0084363D01*
X0055573Y0084363D01*
X0055573Y0085577D02*
X0059276Y0085577D01*
X0059276Y0088046D01*
X0057425Y0086812D02*
X0057425Y0085577D01*
X0058042Y0081894D02*
X0055573Y0081894D01*
X0047170Y0099307D02*
X0047170Y0103011D01*
X0049022Y0101159D01*
X0046553Y0101159D01*
X0045338Y0099925D02*
X0045338Y0099307D01*
X0045338Y0099925D02*
X0042870Y0102393D01*
X0042870Y0103011D01*
X0045338Y0103011D01*
X0041655Y0101776D02*
X0041655Y0099925D01*
X0041038Y0099307D01*
X0039187Y0099307D01*
X0039187Y0101776D01*
X0037972Y0101159D02*
X0036738Y0101159D01*
X0037972Y0099307D02*
X0037972Y0103011D01*
X0035503Y0103011D01*
X0028147Y0101131D02*
X0026913Y0102365D01*
X0026913Y0098662D01*
X0028147Y0098662D02*
X0025678Y0098662D01*
X0024464Y0099279D02*
X0023847Y0098662D01*
X0022613Y0098662D01*
X0021995Y0099279D01*
X0021995Y0101748D01*
X0024464Y0099279D01*
X0024464Y0101748D01*
X0023847Y0102365D01*
X0022613Y0102365D01*
X0021995Y0101748D01*
X0020781Y0101131D02*
X0018929Y0101131D01*
X0018312Y0100513D01*
X0018312Y0098662D01*
X0017098Y0098662D02*
X0017098Y0102365D01*
X0014629Y0102365D01*
X0015863Y0100513D02*
X0017098Y0100513D01*
X0020781Y0101131D02*
X0020781Y0098662D01*
X0032820Y0054042D02*
X0032203Y0053425D01*
X0032203Y0052190D01*
X0032820Y0051573D01*
X0035289Y0054042D01*
X0032820Y0054042D01*
X0032820Y0051573D02*
X0035289Y0051573D01*
X0035906Y0052190D01*
X0035906Y0053425D01*
X0035289Y0054042D01*
X0032203Y0050359D02*
X0032203Y0047890D01*
X0032203Y0049124D02*
X0035906Y0049124D01*
X0034672Y0047890D01*
X0034602Y0044154D02*
X0033635Y0044154D01*
X0033151Y0043670D01*
X0033151Y0043186D01*
X0035086Y0041251D01*
X0033151Y0041251D01*
X0036097Y0041251D02*
X0038032Y0041251D01*
X0036097Y0043186D01*
X0036097Y0043670D01*
X0036581Y0044154D01*
X0037549Y0044154D01*
X0038032Y0043670D01*
X0039044Y0043670D02*
X0039044Y0043186D01*
X0040979Y0041251D01*
X0039044Y0041251D01*
X0039044Y0043670D02*
X0039528Y0044154D01*
X0040495Y0044154D01*
X0040979Y0043670D01*
X0041990Y0043670D02*
X0041990Y0043186D01*
X0043925Y0041251D01*
X0041990Y0041251D01*
X0041990Y0043670D02*
X0042474Y0044154D01*
X0043442Y0044154D01*
X0043925Y0043670D01*
X0035086Y0043670D02*
X0034602Y0044154D01*
X0055585Y0050882D02*
X0057437Y0052117D01*
X0055585Y0053351D01*
X0085127Y0039096D02*
X0087596Y0039096D01*
X0086362Y0040330D02*
X0086362Y0037862D01*
X0079083Y0007470D02*
X0079083Y0006853D01*
X0079083Y0005619D02*
X0079083Y0003150D01*
X0079700Y0003150D02*
X0078466Y0003150D01*
X0077245Y0003150D02*
X0076011Y0003150D01*
X0076628Y0003150D02*
X0076628Y0005619D01*
X0077245Y0005619D01*
X0076628Y0006853D02*
X0076628Y0007470D01*
X0074789Y0006853D02*
X0072938Y0006853D01*
X0072321Y0006236D01*
X0072321Y0005619D01*
X0072938Y0005002D01*
X0074789Y0005002D01*
X0072938Y0005002D02*
X0072321Y0004384D01*
X0072321Y0003767D01*
X0072938Y0003150D01*
X0074789Y0003150D01*
X0074789Y0006853D01*
X0071106Y0005002D02*
X0071106Y0003767D01*
X0070489Y0003150D01*
X0069255Y0003150D01*
X0068638Y0004384D02*
X0071106Y0004384D01*
X0071106Y0005002D02*
X0070489Y0005619D01*
X0069255Y0005619D01*
X0068638Y0005002D01*
X0068638Y0004384D01*
X0067423Y0003767D02*
X0066806Y0004384D01*
X0064954Y0004384D01*
X0064954Y0005002D02*
X0064954Y0003150D01*
X0066806Y0003150D01*
X0067423Y0003767D01*
X0066806Y0005619D02*
X0065572Y0005619D01*
X0064954Y0005002D01*
X0063740Y0005619D02*
X0063123Y0005619D01*
X0062506Y0005002D01*
X0061888Y0005619D01*
X0061271Y0005002D01*
X0061271Y0003150D01*
X0062506Y0003150D02*
X0062506Y0005002D01*
X0063740Y0005619D02*
X0063740Y0003150D01*
X0056374Y0004384D02*
X0055139Y0003150D01*
X0053905Y0004384D01*
X0053905Y0006853D01*
X0052691Y0005619D02*
X0051456Y0006853D01*
X0051456Y0003150D01*
X0050222Y0003150D02*
X0052691Y0003150D01*
X0049007Y0003150D02*
X0048390Y0003150D01*
X0048390Y0003767D01*
X0049007Y0003767D01*
X0049007Y0003150D01*
X0047166Y0003767D02*
X0046549Y0003150D01*
X0045314Y0003150D01*
X0044697Y0003767D01*
X0044697Y0004384D01*
X0045314Y0005002D01*
X0045931Y0005002D01*
X0045314Y0005002D02*
X0044697Y0005619D01*
X0044697Y0006236D01*
X0045314Y0006853D01*
X0046549Y0006853D01*
X0047166Y0006236D01*
X0056374Y0006853D02*
X0056374Y0004384D01*
X0079083Y0005619D02*
X0079700Y0005619D01*
X0080915Y0006853D02*
X0080915Y0003150D01*
X0083383Y0003150D02*
X0083383Y0006853D01*
X0082149Y0005619D01*
X0080915Y0006853D01*
D12*
X0072229Y0038094D02*
X0071028Y0038094D01*
X0070427Y0038694D01*
X0070427Y0039295D01*
X0071028Y0039895D01*
X0071629Y0039895D01*
X0071028Y0039895D02*
X0070427Y0040496D01*
X0070427Y0041096D01*
X0071028Y0041697D01*
X0072229Y0041697D01*
X0072830Y0041096D01*
X0074915Y0042234D02*
X0074915Y0039932D01*
X0079518Y0039932D01*
X0079518Y0042234D01*
X0078751Y0043002D01*
X0077984Y0043002D01*
X0077217Y0042234D01*
X0077217Y0039932D01*
X0077217Y0042234D02*
X0076449Y0043002D01*
X0075682Y0043002D01*
X0074915Y0042234D01*
X0074915Y0044536D02*
X0074915Y0046071D01*
X0074915Y0045304D02*
X0079518Y0045304D01*
X0079518Y0044536D01*
X0077984Y0047605D02*
X0075682Y0047605D01*
X0074915Y0048373D01*
X0074915Y0050675D01*
X0077984Y0050675D01*
X0077217Y0052209D02*
X0075682Y0052209D01*
X0074915Y0052977D01*
X0074915Y0054511D01*
X0076449Y0055279D02*
X0076449Y0052209D01*
X0077217Y0052209D02*
X0077984Y0052977D01*
X0077984Y0054511D01*
X0077217Y0055279D01*
X0076449Y0055279D01*
X0075511Y0062239D02*
X0075511Y0065842D01*
X0073709Y0065842D01*
X0073109Y0065242D01*
X0073109Y0064041D01*
X0073709Y0063440D01*
X0075511Y0063440D01*
X0076792Y0064041D02*
X0077392Y0063440D01*
X0078593Y0063440D01*
X0079194Y0064041D01*
X0076792Y0066443D01*
X0076792Y0064041D01*
X0076792Y0066443D02*
X0077392Y0067043D01*
X0078593Y0067043D01*
X0079194Y0066443D01*
X0079194Y0064041D01*
X0080475Y0064041D02*
X0081076Y0063440D01*
X0082277Y0063440D01*
X0082877Y0064041D01*
X0082877Y0064641D01*
X0082277Y0065242D01*
X0081076Y0065242D01*
X0080475Y0064641D01*
X0080475Y0064041D01*
X0081076Y0065242D02*
X0080475Y0065842D01*
X0080475Y0066443D01*
X0081076Y0067043D01*
X0082277Y0067043D01*
X0082877Y0066443D01*
X0082877Y0065842D01*
X0082277Y0065242D01*
X0084158Y0064641D02*
X0084759Y0065242D01*
X0086560Y0065242D01*
X0086560Y0064041D01*
X0085960Y0063440D01*
X0084759Y0063440D01*
X0084158Y0064041D01*
X0084158Y0064641D01*
X0085359Y0066443D02*
X0084158Y0067043D01*
X0085359Y0066443D02*
X0086560Y0065242D01*
X0085247Y0074991D02*
X0082845Y0074991D01*
X0081564Y0074991D02*
X0079162Y0077393D01*
X0079162Y0077994D01*
X0079762Y0078594D01*
X0080963Y0078594D01*
X0081564Y0077994D01*
X0082845Y0077994D02*
X0082845Y0077393D01*
X0085247Y0074991D01*
X0085247Y0077994D02*
X0084646Y0078594D01*
X0083445Y0078594D01*
X0082845Y0077994D01*
X0081564Y0074991D02*
X0079162Y0074991D01*
X0077881Y0074991D02*
X0077881Y0078594D01*
X0076079Y0077393D02*
X0077881Y0076192D01*
X0076079Y0074991D01*
X0071828Y0067043D02*
X0069426Y0067043D01*
X0070627Y0065242D02*
X0071828Y0065242D01*
X0071828Y0067043D02*
X0071828Y0063440D01*
X0068546Y0041697D02*
X0067345Y0041697D01*
X0066744Y0041096D01*
X0066744Y0040496D01*
X0067345Y0039895D01*
X0068546Y0039895D01*
X0069146Y0040496D01*
X0069146Y0041096D01*
X0068546Y0041697D01*
X0068546Y0039895D02*
X0069146Y0039295D01*
X0069146Y0038694D01*
X0068546Y0038094D01*
X0067345Y0038094D01*
X0066744Y0038694D01*
X0066744Y0039295D01*
X0067345Y0039895D01*
X0065463Y0039295D02*
X0063662Y0040496D01*
X0062394Y0039895D02*
X0061793Y0040496D01*
X0060592Y0040496D01*
X0059992Y0039895D01*
X0059992Y0038094D01*
X0058711Y0038094D02*
X0056309Y0038094D01*
X0056309Y0040496D02*
X0058711Y0038094D01*
X0058711Y0040496D02*
X0056309Y0040496D01*
X0062394Y0041697D02*
X0062394Y0038094D01*
X0063662Y0038094D02*
X0065463Y0039295D01*
X0065463Y0038094D02*
X0065463Y0041697D01*
X0072229Y0038094D02*
X0072830Y0038694D01*
X0040866Y0086354D02*
X0038464Y0086354D01*
X0037183Y0086354D02*
X0036583Y0086354D01*
X0036583Y0086954D01*
X0037183Y0086954D01*
X0037183Y0086354D01*
X0035342Y0086354D02*
X0032940Y0088756D01*
X0032940Y0089356D01*
X0033540Y0089957D01*
X0034741Y0089957D01*
X0035342Y0089356D01*
X0035342Y0086354D02*
X0032940Y0086354D01*
X0031659Y0086354D02*
X0031659Y0089957D01*
X0031058Y0088155D02*
X0029256Y0086354D01*
X0027975Y0086354D02*
X0027975Y0089957D01*
X0027375Y0088756D02*
X0026174Y0088756D01*
X0025573Y0088155D01*
X0025573Y0086354D01*
X0024292Y0086354D02*
X0021890Y0086354D01*
X0021890Y0088756D02*
X0024292Y0086354D01*
X0024292Y0088756D02*
X0021890Y0088756D01*
X0027375Y0088756D02*
X0027975Y0088155D01*
X0029256Y0089957D02*
X0031659Y0087555D01*
X0038464Y0088756D02*
X0038464Y0089356D01*
X0039065Y0089957D01*
X0040266Y0089957D01*
X0040866Y0089356D01*
X0038464Y0088756D02*
X0040866Y0086354D01*
X0056213Y0099613D02*
X0058015Y0100814D01*
X0056213Y0102015D01*
X0058015Y0103216D02*
X0058015Y0099613D01*
X0059296Y0100214D02*
X0059896Y0099613D01*
X0061097Y0099613D01*
X0061698Y0100214D01*
X0059296Y0102616D01*
X0059296Y0100214D01*
X0061698Y0100214D02*
X0061698Y0102616D01*
X0061097Y0103216D01*
X0059896Y0103216D01*
X0059296Y0102616D01*
X0062979Y0099613D02*
X0065381Y0099613D01*
X0064180Y0099613D02*
X0064180Y0103216D01*
X0065381Y0102015D01*
X0072974Y0103216D02*
X0075376Y0100814D01*
X0074776Y0101415D02*
X0072974Y0099613D01*
X0075376Y0099613D02*
X0075376Y0103216D01*
X0077859Y0103216D02*
X0077859Y0099613D01*
X0079060Y0099613D02*
X0076658Y0099613D01*
X0079060Y0102015D02*
X0077859Y0103216D01*
X0079046Y0091453D02*
X0078445Y0090852D01*
X0078445Y0090252D01*
X0079046Y0089651D01*
X0078445Y0089051D01*
X0078445Y0088450D01*
X0079046Y0087850D01*
X0080247Y0087850D01*
X0080847Y0088450D01*
X0082129Y0088450D02*
X0082729Y0087850D01*
X0083930Y0087850D01*
X0084531Y0088450D01*
X0083330Y0089651D02*
X0082729Y0089651D01*
X0082129Y0089051D01*
X0082129Y0088450D01*
X0082729Y0089651D02*
X0082129Y0090252D01*
X0082129Y0090852D01*
X0082729Y0091453D01*
X0083930Y0091453D01*
X0084531Y0090852D01*
X0080847Y0090852D02*
X0080247Y0091453D01*
X0079046Y0091453D01*
X0079046Y0089651D02*
X0079646Y0089651D01*
X0077164Y0090252D02*
X0077164Y0087850D01*
X0077164Y0090252D02*
X0075363Y0090252D01*
X0074762Y0089651D01*
X0074762Y0087850D01*
X0073481Y0087850D02*
X0073481Y0091453D01*
X0071079Y0091453D01*
X0072280Y0089651D02*
X0073481Y0089651D01*
X0028459Y0063909D02*
X0028459Y0062708D01*
X0027858Y0062107D01*
X0025456Y0062107D01*
X0027858Y0064509D01*
X0025456Y0064509D01*
X0024856Y0063909D01*
X0024856Y0062708D01*
X0025456Y0062107D01*
X0025456Y0060826D02*
X0024856Y0060226D01*
X0024856Y0059025D01*
X0025456Y0058424D01*
X0026657Y0058424D02*
X0027258Y0059625D01*
X0027258Y0060226D01*
X0026657Y0060826D01*
X0025456Y0060826D01*
X0026657Y0058424D02*
X0028459Y0058424D01*
X0028459Y0060826D01*
X0028459Y0063909D02*
X0027858Y0064509D01*
X0024856Y0057143D02*
X0024856Y0054741D01*
X0024856Y0055942D02*
X0028459Y0055942D01*
X0027258Y0054741D01*
D13*
X0026809Y0065441D02*
X0026811Y0065529D01*
X0026817Y0065618D01*
X0026827Y0065706D01*
X0026840Y0065793D01*
X0026858Y0065880D01*
X0026879Y0065966D01*
X0026904Y0066051D01*
X0026933Y0066134D01*
X0026966Y0066217D01*
X0027002Y0066297D01*
X0027041Y0066376D01*
X0027084Y0066454D01*
X0027131Y0066529D01*
X0027181Y0066602D01*
X0027234Y0066673D01*
X0027290Y0066742D01*
X0027349Y0066808D01*
X0027411Y0066871D01*
X0027475Y0066931D01*
X0027542Y0066989D01*
X0027612Y0067043D01*
X0027684Y0067095D01*
X0027758Y0067143D01*
X0027835Y0067188D01*
X0027913Y0067229D01*
X0027993Y0067267D01*
X0028074Y0067301D01*
X0028157Y0067332D01*
X0028242Y0067359D01*
X0028327Y0067382D01*
X0028413Y0067401D01*
X0028501Y0067417D01*
X0028588Y0067429D01*
X0028676Y0067437D01*
X0028765Y0067441D01*
X0028853Y0067441D01*
X0028942Y0067437D01*
X0029030Y0067429D01*
X0029117Y0067417D01*
X0029205Y0067401D01*
X0029291Y0067382D01*
X0029376Y0067359D01*
X0029461Y0067332D01*
X0029544Y0067301D01*
X0029625Y0067267D01*
X0029705Y0067229D01*
X0029783Y0067188D01*
X0029860Y0067143D01*
X0029934Y0067095D01*
X0030006Y0067043D01*
X0030076Y0066989D01*
X0030143Y0066931D01*
X0030207Y0066871D01*
X0030269Y0066808D01*
X0030328Y0066742D01*
X0030384Y0066673D01*
X0030437Y0066602D01*
X0030487Y0066529D01*
X0030534Y0066454D01*
X0030577Y0066376D01*
X0030616Y0066297D01*
X0030652Y0066217D01*
X0030685Y0066134D01*
X0030714Y0066051D01*
X0030739Y0065966D01*
X0030760Y0065880D01*
X0030778Y0065793D01*
X0030791Y0065706D01*
X0030801Y0065618D01*
X0030807Y0065529D01*
X0030809Y0065441D01*
X0035009Y0065441D02*
X0022609Y0065441D01*
X0022533Y0065443D01*
X0022457Y0065449D01*
X0022382Y0065458D01*
X0022307Y0065472D01*
X0022233Y0065489D01*
X0022160Y0065510D01*
X0022088Y0065534D01*
X0022017Y0065563D01*
X0021948Y0065594D01*
X0021881Y0065629D01*
X0021816Y0065668D01*
X0021752Y0065710D01*
X0021691Y0065755D01*
X0021632Y0065803D01*
X0021576Y0065854D01*
X0021522Y0065908D01*
X0021471Y0065964D01*
X0021423Y0066023D01*
X0021378Y0066084D01*
X0021336Y0066148D01*
X0021297Y0066213D01*
X0021262Y0066280D01*
X0021231Y0066349D01*
X0021202Y0066420D01*
X0021178Y0066492D01*
X0021157Y0066565D01*
X0021140Y0066639D01*
X0021126Y0066714D01*
X0021117Y0066789D01*
X0021111Y0066865D01*
X0021109Y0066941D01*
X0021109Y0083941D01*
X0021111Y0084017D01*
X0021117Y0084093D01*
X0021126Y0084168D01*
X0021140Y0084243D01*
X0021157Y0084317D01*
X0021178Y0084390D01*
X0021202Y0084462D01*
X0021231Y0084533D01*
X0021262Y0084602D01*
X0021297Y0084669D01*
X0021336Y0084734D01*
X0021378Y0084798D01*
X0021423Y0084859D01*
X0021471Y0084918D01*
X0021522Y0084974D01*
X0021576Y0085028D01*
X0021632Y0085079D01*
X0021691Y0085127D01*
X0021752Y0085172D01*
X0021816Y0085214D01*
X0021881Y0085253D01*
X0021948Y0085288D01*
X0022017Y0085319D01*
X0022088Y0085348D01*
X0022160Y0085372D01*
X0022233Y0085393D01*
X0022307Y0085410D01*
X0022382Y0085424D01*
X0022457Y0085433D01*
X0022533Y0085439D01*
X0022609Y0085441D01*
X0035009Y0085441D01*
X0035085Y0085439D01*
X0035161Y0085433D01*
X0035236Y0085424D01*
X0035311Y0085410D01*
X0035385Y0085393D01*
X0035458Y0085372D01*
X0035530Y0085348D01*
X0035601Y0085319D01*
X0035670Y0085288D01*
X0035737Y0085253D01*
X0035802Y0085214D01*
X0035866Y0085172D01*
X0035927Y0085127D01*
X0035986Y0085079D01*
X0036042Y0085028D01*
X0036096Y0084974D01*
X0036147Y0084918D01*
X0036195Y0084859D01*
X0036240Y0084798D01*
X0036282Y0084734D01*
X0036321Y0084669D01*
X0036356Y0084602D01*
X0036387Y0084533D01*
X0036416Y0084462D01*
X0036440Y0084390D01*
X0036461Y0084317D01*
X0036478Y0084243D01*
X0036492Y0084168D01*
X0036501Y0084093D01*
X0036507Y0084017D01*
X0036509Y0083941D01*
X0036509Y0066941D01*
X0036507Y0066865D01*
X0036501Y0066789D01*
X0036492Y0066714D01*
X0036478Y0066639D01*
X0036461Y0066565D01*
X0036440Y0066492D01*
X0036416Y0066420D01*
X0036387Y0066349D01*
X0036356Y0066280D01*
X0036321Y0066213D01*
X0036282Y0066148D01*
X0036240Y0066084D01*
X0036195Y0066023D01*
X0036147Y0065964D01*
X0036096Y0065908D01*
X0036042Y0065854D01*
X0035986Y0065803D01*
X0035927Y0065755D01*
X0035866Y0065710D01*
X0035802Y0065668D01*
X0035737Y0065629D01*
X0035670Y0065594D01*
X0035601Y0065563D01*
X0035530Y0065534D01*
X0035458Y0065510D01*
X0035385Y0065489D01*
X0035311Y0065472D01*
X0035236Y0065458D01*
X0035161Y0065449D01*
X0035085Y0065443D01*
X0035009Y0065441D01*
X0059617Y0036228D02*
X0072017Y0036228D01*
X0072093Y0036226D01*
X0072169Y0036220D01*
X0072244Y0036211D01*
X0072319Y0036197D01*
X0072393Y0036180D01*
X0072466Y0036159D01*
X0072538Y0036135D01*
X0072609Y0036106D01*
X0072678Y0036075D01*
X0072745Y0036040D01*
X0072810Y0036001D01*
X0072874Y0035959D01*
X0072935Y0035914D01*
X0072994Y0035866D01*
X0073050Y0035815D01*
X0073104Y0035761D01*
X0073155Y0035705D01*
X0073203Y0035646D01*
X0073248Y0035585D01*
X0073290Y0035521D01*
X0073329Y0035456D01*
X0073364Y0035389D01*
X0073395Y0035320D01*
X0073424Y0035249D01*
X0073448Y0035177D01*
X0073469Y0035104D01*
X0073486Y0035030D01*
X0073500Y0034955D01*
X0073509Y0034880D01*
X0073515Y0034804D01*
X0073517Y0034728D01*
X0073517Y0017728D01*
X0073515Y0017652D01*
X0073509Y0017576D01*
X0073500Y0017501D01*
X0073486Y0017426D01*
X0073469Y0017352D01*
X0073448Y0017279D01*
X0073424Y0017207D01*
X0073395Y0017136D01*
X0073364Y0017067D01*
X0073329Y0017000D01*
X0073290Y0016935D01*
X0073248Y0016871D01*
X0073203Y0016810D01*
X0073155Y0016751D01*
X0073104Y0016695D01*
X0073050Y0016641D01*
X0072994Y0016590D01*
X0072935Y0016542D01*
X0072874Y0016497D01*
X0072810Y0016455D01*
X0072745Y0016416D01*
X0072678Y0016381D01*
X0072609Y0016350D01*
X0072538Y0016321D01*
X0072466Y0016297D01*
X0072393Y0016276D01*
X0072319Y0016259D01*
X0072244Y0016245D01*
X0072169Y0016236D01*
X0072093Y0016230D01*
X0072017Y0016228D01*
X0059617Y0016228D01*
X0059541Y0016230D01*
X0059465Y0016236D01*
X0059390Y0016245D01*
X0059315Y0016259D01*
X0059241Y0016276D01*
X0059168Y0016297D01*
X0059096Y0016321D01*
X0059025Y0016350D01*
X0058956Y0016381D01*
X0058889Y0016416D01*
X0058824Y0016455D01*
X0058760Y0016497D01*
X0058699Y0016542D01*
X0058640Y0016590D01*
X0058584Y0016641D01*
X0058530Y0016695D01*
X0058479Y0016751D01*
X0058431Y0016810D01*
X0058386Y0016871D01*
X0058344Y0016935D01*
X0058305Y0017000D01*
X0058270Y0017067D01*
X0058239Y0017136D01*
X0058210Y0017207D01*
X0058186Y0017279D01*
X0058165Y0017352D01*
X0058148Y0017426D01*
X0058134Y0017501D01*
X0058125Y0017576D01*
X0058119Y0017652D01*
X0058117Y0017728D01*
X0058117Y0034728D01*
X0058119Y0034804D01*
X0058125Y0034880D01*
X0058134Y0034955D01*
X0058148Y0035030D01*
X0058165Y0035104D01*
X0058186Y0035177D01*
X0058210Y0035249D01*
X0058239Y0035320D01*
X0058270Y0035389D01*
X0058305Y0035456D01*
X0058344Y0035521D01*
X0058386Y0035585D01*
X0058431Y0035646D01*
X0058479Y0035705D01*
X0058530Y0035761D01*
X0058584Y0035815D01*
X0058640Y0035866D01*
X0058699Y0035914D01*
X0058760Y0035959D01*
X0058824Y0036001D01*
X0058889Y0036040D01*
X0058956Y0036075D01*
X0059025Y0036106D01*
X0059096Y0036135D01*
X0059168Y0036159D01*
X0059241Y0036180D01*
X0059315Y0036197D01*
X0059390Y0036211D01*
X0059465Y0036220D01*
X0059541Y0036226D01*
X0059617Y0036228D01*
X0063817Y0036228D02*
X0063819Y0036140D01*
X0063825Y0036051D01*
X0063835Y0035963D01*
X0063848Y0035876D01*
X0063866Y0035789D01*
X0063887Y0035703D01*
X0063912Y0035618D01*
X0063941Y0035535D01*
X0063974Y0035452D01*
X0064010Y0035372D01*
X0064049Y0035293D01*
X0064092Y0035215D01*
X0064139Y0035140D01*
X0064189Y0035067D01*
X0064242Y0034996D01*
X0064298Y0034927D01*
X0064357Y0034861D01*
X0064419Y0034798D01*
X0064483Y0034738D01*
X0064550Y0034680D01*
X0064620Y0034626D01*
X0064692Y0034574D01*
X0064766Y0034526D01*
X0064843Y0034481D01*
X0064921Y0034440D01*
X0065001Y0034402D01*
X0065082Y0034368D01*
X0065165Y0034337D01*
X0065250Y0034310D01*
X0065335Y0034287D01*
X0065421Y0034268D01*
X0065509Y0034252D01*
X0065596Y0034240D01*
X0065684Y0034232D01*
X0065773Y0034228D01*
X0065861Y0034228D01*
X0065950Y0034232D01*
X0066038Y0034240D01*
X0066125Y0034252D01*
X0066213Y0034268D01*
X0066299Y0034287D01*
X0066384Y0034310D01*
X0066469Y0034337D01*
X0066552Y0034368D01*
X0066633Y0034402D01*
X0066713Y0034440D01*
X0066791Y0034481D01*
X0066868Y0034526D01*
X0066942Y0034574D01*
X0067014Y0034626D01*
X0067084Y0034680D01*
X0067151Y0034738D01*
X0067215Y0034798D01*
X0067277Y0034861D01*
X0067336Y0034927D01*
X0067392Y0034996D01*
X0067445Y0035067D01*
X0067495Y0035140D01*
X0067542Y0035215D01*
X0067585Y0035293D01*
X0067624Y0035372D01*
X0067660Y0035452D01*
X0067693Y0035535D01*
X0067722Y0035618D01*
X0067747Y0035703D01*
X0067768Y0035789D01*
X0067786Y0035876D01*
X0067799Y0035963D01*
X0067809Y0036051D01*
X0067815Y0036140D01*
X0067817Y0036228D01*
D14*
X0072117Y0036228D02*
X0072117Y0016228D01*
X0022509Y0065441D02*
X0022509Y0085441D01*
D15*
X0080384Y0047685D03*
X0085108Y0047685D03*
D16*
X0082746Y0047685D03*
M02*
