G75*
%MOIN*%
%OFA0B0*%
%FSLAX25Y25*%
%IPPOS*%
%LPD*%
%AMOC8*
5,1,8,0,0,1.08239X$1,22.5*
%
%ADD10C,0.00000*%
%ADD11C,0.00800*%
%ADD12C,0.00500*%
%ADD13C,0.00400*%
%ADD14C,0.00100*%
%ADD15C,0.00600*%
%ADD16C,0.01000*%
%ADD17C,0.00300*%
D10*
X0016292Y0013630D02*
X0043885Y0013630D01*
X0043986Y0013628D01*
X0044087Y0013622D01*
X0044188Y0013613D01*
X0044288Y0013599D01*
X0044388Y0013582D01*
X0044487Y0013561D01*
X0044585Y0013536D01*
X0044682Y0013507D01*
X0044778Y0013475D01*
X0044872Y0013439D01*
X0044965Y0013399D01*
X0045057Y0013356D01*
X0045147Y0013309D01*
X0045235Y0013259D01*
X0045321Y0013206D01*
X0045404Y0013149D01*
X0045486Y0013089D01*
X0045565Y0013027D01*
X0045642Y0012961D01*
X0045716Y0012892D01*
X0045788Y0012820D01*
X0045857Y0012746D01*
X0045923Y0012669D01*
X0045985Y0012590D01*
X0046045Y0012508D01*
X0046102Y0012425D01*
X0046155Y0012339D01*
X0046205Y0012251D01*
X0046252Y0012161D01*
X0046295Y0012069D01*
X0046335Y0011976D01*
X0046371Y0011882D01*
X0046403Y0011786D01*
X0046432Y0011689D01*
X0046457Y0011591D01*
X0046478Y0011492D01*
X0046495Y0011392D01*
X0046509Y0011292D01*
X0046518Y0011191D01*
X0046524Y0011090D01*
X0046526Y0010989D01*
X0046526Y0003552D01*
X0046525Y0003552D02*
X0046527Y0003453D01*
X0046533Y0003354D01*
X0046542Y0003256D01*
X0046556Y0003158D01*
X0046573Y0003060D01*
X0046595Y0002963D01*
X0046620Y0002868D01*
X0046648Y0002773D01*
X0046681Y0002679D01*
X0046717Y0002587D01*
X0046757Y0002497D01*
X0046800Y0002407D01*
X0046846Y0002320D01*
X0046896Y0002235D01*
X0046950Y0002151D01*
X0047006Y0002070D01*
X0047066Y0001991D01*
X0047129Y0001915D01*
X0047195Y0001841D01*
X0047263Y0001769D01*
X0047335Y0001701D01*
X0047409Y0001635D01*
X0047485Y0001572D01*
X0047564Y0001512D01*
X0047645Y0001456D01*
X0047729Y0001402D01*
X0047814Y0001352D01*
X0047901Y0001306D01*
X0047991Y0001263D01*
X0048081Y0001223D01*
X0048173Y0001187D01*
X0048267Y0001154D01*
X0048362Y0001126D01*
X0048457Y0001101D01*
X0048554Y0001079D01*
X0048652Y0001062D01*
X0048750Y0001048D01*
X0048848Y0001039D01*
X0048947Y0001033D01*
X0049046Y0001031D01*
X0082588Y0001031D01*
X0082714Y0001045D01*
X0082839Y0001063D01*
X0082964Y0001085D01*
X0083088Y0001110D01*
X0083211Y0001140D01*
X0083333Y0001173D01*
X0083455Y0001210D01*
X0083575Y0001251D01*
X0083693Y0001295D01*
X0083811Y0001343D01*
X0083926Y0001395D01*
X0084040Y0001450D01*
X0084153Y0001508D01*
X0084263Y0001570D01*
X0084372Y0001636D01*
X0084478Y0001704D01*
X0084583Y0001776D01*
X0084685Y0001852D01*
X0084784Y0001930D01*
X0084881Y0002011D01*
X0084976Y0002095D01*
X0085068Y0002182D01*
X0085157Y0002272D01*
X0085244Y0002365D01*
X0085327Y0002460D01*
X0085408Y0002558D01*
X0085486Y0002658D01*
X0085560Y0002761D01*
X0085631Y0002865D01*
X0085699Y0002972D01*
X0085764Y0003081D01*
X0085825Y0003192D01*
X0085883Y0003305D01*
X0085937Y0003419D01*
X0085988Y0003535D01*
X0086035Y0003653D01*
X0086079Y0003772D01*
X0086119Y0003892D01*
X0086155Y0004014D01*
X0086187Y0004136D01*
X0086216Y0004260D01*
X0086241Y0004384D01*
X0086261Y0004509D01*
X0086279Y0004635D01*
X0086292Y0004761D01*
X0086301Y0004887D01*
X0086306Y0005013D01*
X0086308Y0005140D01*
X0086306Y0005267D01*
X0086299Y0005393D01*
X0086289Y0005520D01*
X0086289Y0097463D01*
X0086287Y0097624D01*
X0086281Y0097786D01*
X0086271Y0097947D01*
X0086258Y0098108D01*
X0086240Y0098268D01*
X0086219Y0098428D01*
X0086194Y0098587D01*
X0086165Y0098746D01*
X0086132Y0098904D01*
X0086095Y0099061D01*
X0086054Y0099218D01*
X0086010Y0099373D01*
X0085962Y0099527D01*
X0085910Y0099680D01*
X0085855Y0099831D01*
X0085796Y0099982D01*
X0085733Y0100130D01*
X0085667Y0100278D01*
X0085597Y0100423D01*
X0085524Y0100567D01*
X0085447Y0100709D01*
X0085367Y0100849D01*
X0085284Y0100987D01*
X0085197Y0101123D01*
X0085107Y0101257D01*
X0085013Y0101389D01*
X0084917Y0101518D01*
X0084817Y0101645D01*
X0084715Y0101770D01*
X0084609Y0101892D01*
X0084501Y0102012D01*
X0084389Y0102128D01*
X0084275Y0102242D01*
X0084159Y0102354D01*
X0084039Y0102462D01*
X0083917Y0102568D01*
X0083792Y0102670D01*
X0083665Y0102770D01*
X0083536Y0102866D01*
X0083404Y0102960D01*
X0083270Y0103050D01*
X0083134Y0103137D01*
X0082996Y0103220D01*
X0082856Y0103300D01*
X0082714Y0103377D01*
X0082570Y0103450D01*
X0082425Y0103520D01*
X0082277Y0103586D01*
X0082129Y0103649D01*
X0081978Y0103708D01*
X0081827Y0103763D01*
X0081674Y0103815D01*
X0081520Y0103863D01*
X0081365Y0103907D01*
X0081208Y0103948D01*
X0081051Y0103985D01*
X0080893Y0104018D01*
X0080734Y0104047D01*
X0080575Y0104072D01*
X0080415Y0104093D01*
X0080255Y0104111D01*
X0080094Y0104124D01*
X0079933Y0104134D01*
X0079771Y0104140D01*
X0079610Y0104142D01*
X0018866Y0104142D01*
X0018866Y0104141D02*
X0018688Y0104139D01*
X0018509Y0104132D01*
X0018331Y0104122D01*
X0018154Y0104107D01*
X0017976Y0104087D01*
X0017800Y0104064D01*
X0017624Y0104036D01*
X0017448Y0104004D01*
X0017274Y0103967D01*
X0017100Y0103927D01*
X0016927Y0103882D01*
X0016756Y0103833D01*
X0016585Y0103780D01*
X0016417Y0103723D01*
X0016249Y0103661D01*
X0016083Y0103596D01*
X0015919Y0103527D01*
X0015756Y0103454D01*
X0015595Y0103377D01*
X0015436Y0103296D01*
X0015279Y0103211D01*
X0015125Y0103122D01*
X0014972Y0103030D01*
X0014822Y0102934D01*
X0014674Y0102835D01*
X0014528Y0102732D01*
X0014385Y0102625D01*
X0014245Y0102515D01*
X0014107Y0102402D01*
X0013972Y0102285D01*
X0013840Y0102165D01*
X0013711Y0102042D01*
X0013585Y0101916D01*
X0013462Y0101787D01*
X0013342Y0101655D01*
X0013225Y0101520D01*
X0013112Y0101382D01*
X0013002Y0101242D01*
X0012895Y0101099D01*
X0012792Y0100953D01*
X0012693Y0100805D01*
X0012597Y0100655D01*
X0012505Y0100502D01*
X0012416Y0100348D01*
X0012331Y0100191D01*
X0012250Y0100032D01*
X0012173Y0099871D01*
X0012100Y0099708D01*
X0012031Y0099544D01*
X0011966Y0099378D01*
X0011904Y0099210D01*
X0011847Y0099042D01*
X0011794Y0098871D01*
X0011745Y0098700D01*
X0011700Y0098527D01*
X0011660Y0098353D01*
X0011623Y0098179D01*
X0011591Y0098003D01*
X0011563Y0097827D01*
X0011540Y0097651D01*
X0011520Y0097473D01*
X0011505Y0097296D01*
X0011495Y0097118D01*
X0011488Y0096939D01*
X0011486Y0096761D01*
X0011486Y0018436D01*
X0011488Y0018299D01*
X0011494Y0018162D01*
X0011504Y0018025D01*
X0011517Y0017888D01*
X0011535Y0017752D01*
X0011556Y0017616D01*
X0011582Y0017482D01*
X0011611Y0017347D01*
X0011644Y0017214D01*
X0011681Y0017082D01*
X0011721Y0016951D01*
X0011765Y0016821D01*
X0011813Y0016692D01*
X0011865Y0016565D01*
X0011920Y0016440D01*
X0011979Y0016315D01*
X0012041Y0016193D01*
X0012107Y0016073D01*
X0012176Y0015954D01*
X0012249Y0015838D01*
X0012325Y0015723D01*
X0012404Y0015611D01*
X0012486Y0015501D01*
X0012571Y0015394D01*
X0012660Y0015289D01*
X0012751Y0015186D01*
X0012845Y0015087D01*
X0012943Y0014989D01*
X0013042Y0014895D01*
X0013145Y0014804D01*
X0013250Y0014715D01*
X0013357Y0014630D01*
X0013467Y0014548D01*
X0013579Y0014469D01*
X0013694Y0014393D01*
X0013810Y0014320D01*
X0013929Y0014251D01*
X0014049Y0014185D01*
X0014171Y0014123D01*
X0014296Y0014064D01*
X0014421Y0014009D01*
X0014548Y0013957D01*
X0014677Y0013909D01*
X0014807Y0013865D01*
X0014938Y0013825D01*
X0015070Y0013788D01*
X0015203Y0013755D01*
X0015338Y0013726D01*
X0015472Y0013700D01*
X0015608Y0013679D01*
X0015744Y0013661D01*
X0015881Y0013648D01*
X0016018Y0013638D01*
X0016155Y0013632D01*
X0016292Y0013630D01*
X0062667Y0015205D02*
X0062669Y0015293D01*
X0062675Y0015381D01*
X0062685Y0015469D01*
X0062699Y0015557D01*
X0062716Y0015643D01*
X0062738Y0015729D01*
X0062763Y0015813D01*
X0062793Y0015897D01*
X0062825Y0015979D01*
X0062862Y0016059D01*
X0062902Y0016138D01*
X0062946Y0016215D01*
X0062993Y0016290D01*
X0063043Y0016362D01*
X0063097Y0016433D01*
X0063153Y0016500D01*
X0063213Y0016566D01*
X0063275Y0016628D01*
X0063341Y0016688D01*
X0063408Y0016744D01*
X0063479Y0016798D01*
X0063551Y0016848D01*
X0063626Y0016895D01*
X0063703Y0016939D01*
X0063782Y0016979D01*
X0063862Y0017016D01*
X0063944Y0017048D01*
X0064028Y0017078D01*
X0064112Y0017103D01*
X0064198Y0017125D01*
X0064284Y0017142D01*
X0064372Y0017156D01*
X0064460Y0017166D01*
X0064548Y0017172D01*
X0064636Y0017174D01*
X0064724Y0017172D01*
X0064812Y0017166D01*
X0064900Y0017156D01*
X0064988Y0017142D01*
X0065074Y0017125D01*
X0065160Y0017103D01*
X0065244Y0017078D01*
X0065328Y0017048D01*
X0065410Y0017016D01*
X0065490Y0016979D01*
X0065569Y0016939D01*
X0065646Y0016895D01*
X0065721Y0016848D01*
X0065793Y0016798D01*
X0065864Y0016744D01*
X0065931Y0016688D01*
X0065997Y0016628D01*
X0066059Y0016566D01*
X0066119Y0016500D01*
X0066175Y0016433D01*
X0066229Y0016362D01*
X0066279Y0016290D01*
X0066326Y0016215D01*
X0066370Y0016138D01*
X0066410Y0016059D01*
X0066447Y0015979D01*
X0066479Y0015897D01*
X0066509Y0015813D01*
X0066534Y0015729D01*
X0066556Y0015643D01*
X0066573Y0015557D01*
X0066587Y0015469D01*
X0066597Y0015381D01*
X0066603Y0015293D01*
X0066605Y0015205D01*
X0066603Y0015117D01*
X0066597Y0015029D01*
X0066587Y0014941D01*
X0066573Y0014853D01*
X0066556Y0014767D01*
X0066534Y0014681D01*
X0066509Y0014597D01*
X0066479Y0014513D01*
X0066447Y0014431D01*
X0066410Y0014351D01*
X0066370Y0014272D01*
X0066326Y0014195D01*
X0066279Y0014120D01*
X0066229Y0014048D01*
X0066175Y0013977D01*
X0066119Y0013910D01*
X0066059Y0013844D01*
X0065997Y0013782D01*
X0065931Y0013722D01*
X0065864Y0013666D01*
X0065793Y0013612D01*
X0065721Y0013562D01*
X0065646Y0013515D01*
X0065569Y0013471D01*
X0065490Y0013431D01*
X0065410Y0013394D01*
X0065328Y0013362D01*
X0065244Y0013332D01*
X0065160Y0013307D01*
X0065074Y0013285D01*
X0064988Y0013268D01*
X0064900Y0013254D01*
X0064812Y0013244D01*
X0064724Y0013238D01*
X0064636Y0013236D01*
X0064548Y0013238D01*
X0064460Y0013244D01*
X0064372Y0013254D01*
X0064284Y0013268D01*
X0064198Y0013285D01*
X0064112Y0013307D01*
X0064028Y0013332D01*
X0063944Y0013362D01*
X0063862Y0013394D01*
X0063782Y0013431D01*
X0063703Y0013471D01*
X0063626Y0013515D01*
X0063551Y0013562D01*
X0063479Y0013612D01*
X0063408Y0013666D01*
X0063341Y0013722D01*
X0063275Y0013782D01*
X0063213Y0013844D01*
X0063153Y0013910D01*
X0063097Y0013977D01*
X0063043Y0014048D01*
X0062993Y0014120D01*
X0062946Y0014195D01*
X0062902Y0014272D01*
X0062862Y0014351D01*
X0062825Y0014431D01*
X0062793Y0014513D01*
X0062763Y0014597D01*
X0062738Y0014681D01*
X0062716Y0014767D01*
X0062699Y0014853D01*
X0062685Y0014941D01*
X0062675Y0015029D01*
X0062669Y0015117D01*
X0062667Y0015205D01*
X0062667Y0032528D02*
X0062669Y0032616D01*
X0062675Y0032704D01*
X0062685Y0032792D01*
X0062699Y0032880D01*
X0062716Y0032966D01*
X0062738Y0033052D01*
X0062763Y0033136D01*
X0062793Y0033220D01*
X0062825Y0033302D01*
X0062862Y0033382D01*
X0062902Y0033461D01*
X0062946Y0033538D01*
X0062993Y0033613D01*
X0063043Y0033685D01*
X0063097Y0033756D01*
X0063153Y0033823D01*
X0063213Y0033889D01*
X0063275Y0033951D01*
X0063341Y0034011D01*
X0063408Y0034067D01*
X0063479Y0034121D01*
X0063551Y0034171D01*
X0063626Y0034218D01*
X0063703Y0034262D01*
X0063782Y0034302D01*
X0063862Y0034339D01*
X0063944Y0034371D01*
X0064028Y0034401D01*
X0064112Y0034426D01*
X0064198Y0034448D01*
X0064284Y0034465D01*
X0064372Y0034479D01*
X0064460Y0034489D01*
X0064548Y0034495D01*
X0064636Y0034497D01*
X0064724Y0034495D01*
X0064812Y0034489D01*
X0064900Y0034479D01*
X0064988Y0034465D01*
X0065074Y0034448D01*
X0065160Y0034426D01*
X0065244Y0034401D01*
X0065328Y0034371D01*
X0065410Y0034339D01*
X0065490Y0034302D01*
X0065569Y0034262D01*
X0065646Y0034218D01*
X0065721Y0034171D01*
X0065793Y0034121D01*
X0065864Y0034067D01*
X0065931Y0034011D01*
X0065997Y0033951D01*
X0066059Y0033889D01*
X0066119Y0033823D01*
X0066175Y0033756D01*
X0066229Y0033685D01*
X0066279Y0033613D01*
X0066326Y0033538D01*
X0066370Y0033461D01*
X0066410Y0033382D01*
X0066447Y0033302D01*
X0066479Y0033220D01*
X0066509Y0033136D01*
X0066534Y0033052D01*
X0066556Y0032966D01*
X0066573Y0032880D01*
X0066587Y0032792D01*
X0066597Y0032704D01*
X0066603Y0032616D01*
X0066605Y0032528D01*
X0066603Y0032440D01*
X0066597Y0032352D01*
X0066587Y0032264D01*
X0066573Y0032176D01*
X0066556Y0032090D01*
X0066534Y0032004D01*
X0066509Y0031920D01*
X0066479Y0031836D01*
X0066447Y0031754D01*
X0066410Y0031674D01*
X0066370Y0031595D01*
X0066326Y0031518D01*
X0066279Y0031443D01*
X0066229Y0031371D01*
X0066175Y0031300D01*
X0066119Y0031233D01*
X0066059Y0031167D01*
X0065997Y0031105D01*
X0065931Y0031045D01*
X0065864Y0030989D01*
X0065793Y0030935D01*
X0065721Y0030885D01*
X0065646Y0030838D01*
X0065569Y0030794D01*
X0065490Y0030754D01*
X0065410Y0030717D01*
X0065328Y0030685D01*
X0065244Y0030655D01*
X0065160Y0030630D01*
X0065074Y0030608D01*
X0064988Y0030591D01*
X0064900Y0030577D01*
X0064812Y0030567D01*
X0064724Y0030561D01*
X0064636Y0030559D01*
X0064548Y0030561D01*
X0064460Y0030567D01*
X0064372Y0030577D01*
X0064284Y0030591D01*
X0064198Y0030608D01*
X0064112Y0030630D01*
X0064028Y0030655D01*
X0063944Y0030685D01*
X0063862Y0030717D01*
X0063782Y0030754D01*
X0063703Y0030794D01*
X0063626Y0030838D01*
X0063551Y0030885D01*
X0063479Y0030935D01*
X0063408Y0030989D01*
X0063341Y0031045D01*
X0063275Y0031105D01*
X0063213Y0031167D01*
X0063153Y0031233D01*
X0063097Y0031300D01*
X0063043Y0031371D01*
X0062993Y0031443D01*
X0062946Y0031518D01*
X0062902Y0031595D01*
X0062862Y0031674D01*
X0062825Y0031754D01*
X0062793Y0031836D01*
X0062763Y0031920D01*
X0062738Y0032004D01*
X0062716Y0032090D01*
X0062699Y0032176D01*
X0062685Y0032264D01*
X0062675Y0032352D01*
X0062669Y0032440D01*
X0062667Y0032528D01*
D11*
X0046722Y0024063D02*
X0046722Y0014220D01*
X0029006Y0014220D01*
X0029006Y0024063D01*
X0046722Y0024063D01*
X0042569Y0063866D02*
X0057569Y0063866D01*
X0064439Y0067961D02*
X0064439Y0079772D01*
X0066753Y0069929D02*
X0066755Y0070009D01*
X0066761Y0070089D01*
X0066771Y0070169D01*
X0066785Y0070248D01*
X0066802Y0070326D01*
X0066824Y0070404D01*
X0066849Y0070480D01*
X0066878Y0070555D01*
X0066911Y0070628D01*
X0066948Y0070700D01*
X0066987Y0070769D01*
X0067031Y0070837D01*
X0067077Y0070902D01*
X0067127Y0070965D01*
X0067180Y0071026D01*
X0067235Y0071084D01*
X0067294Y0071139D01*
X0067355Y0071191D01*
X0067419Y0071240D01*
X0067485Y0071285D01*
X0067553Y0071328D01*
X0067623Y0071367D01*
X0067695Y0071402D01*
X0067769Y0071434D01*
X0067844Y0071462D01*
X0067920Y0071487D01*
X0067998Y0071507D01*
X0068077Y0071524D01*
X0068156Y0071537D01*
X0068236Y0071546D01*
X0068316Y0071551D01*
X0068396Y0071552D01*
X0068476Y0071549D01*
X0068556Y0071542D01*
X0068636Y0071531D01*
X0068715Y0071516D01*
X0068793Y0071498D01*
X0068870Y0071475D01*
X0068946Y0071449D01*
X0069020Y0071419D01*
X0069093Y0071385D01*
X0069164Y0071348D01*
X0069233Y0071307D01*
X0069301Y0071263D01*
X0069365Y0071216D01*
X0069428Y0071165D01*
X0069488Y0071112D01*
X0069545Y0071055D01*
X0069599Y0070996D01*
X0069650Y0070934D01*
X0069698Y0070870D01*
X0069743Y0070803D01*
X0069785Y0070735D01*
X0069823Y0070664D01*
X0069858Y0070592D01*
X0069889Y0070517D01*
X0069916Y0070442D01*
X0069939Y0070365D01*
X0069959Y0070287D01*
X0069975Y0070209D01*
X0069987Y0070129D01*
X0069995Y0070049D01*
X0069999Y0069969D01*
X0069999Y0069889D01*
X0069995Y0069809D01*
X0069987Y0069729D01*
X0069975Y0069649D01*
X0069959Y0069571D01*
X0069939Y0069493D01*
X0069916Y0069416D01*
X0069889Y0069341D01*
X0069858Y0069266D01*
X0069823Y0069194D01*
X0069785Y0069123D01*
X0069743Y0069055D01*
X0069698Y0068988D01*
X0069650Y0068924D01*
X0069599Y0068862D01*
X0069545Y0068803D01*
X0069488Y0068746D01*
X0069428Y0068693D01*
X0069365Y0068642D01*
X0069301Y0068595D01*
X0069233Y0068551D01*
X0069164Y0068510D01*
X0069093Y0068473D01*
X0069020Y0068439D01*
X0068946Y0068409D01*
X0068870Y0068383D01*
X0068793Y0068360D01*
X0068715Y0068342D01*
X0068636Y0068327D01*
X0068556Y0068316D01*
X0068476Y0068309D01*
X0068396Y0068306D01*
X0068316Y0068307D01*
X0068236Y0068312D01*
X0068156Y0068321D01*
X0068077Y0068334D01*
X0067998Y0068351D01*
X0067920Y0068371D01*
X0067844Y0068396D01*
X0067769Y0068424D01*
X0067695Y0068456D01*
X0067623Y0068491D01*
X0067553Y0068530D01*
X0067485Y0068573D01*
X0067419Y0068618D01*
X0067355Y0068667D01*
X0067294Y0068719D01*
X0067235Y0068774D01*
X0067180Y0068832D01*
X0067127Y0068893D01*
X0067077Y0068956D01*
X0067031Y0069021D01*
X0066987Y0069089D01*
X0066948Y0069158D01*
X0066911Y0069230D01*
X0066878Y0069303D01*
X0066849Y0069378D01*
X0066824Y0069454D01*
X0066802Y0069532D01*
X0066785Y0069610D01*
X0066771Y0069689D01*
X0066761Y0069769D01*
X0066755Y0069849D01*
X0066753Y0069929D01*
X0049872Y0089614D02*
X0049491Y0089609D01*
X0049111Y0089594D01*
X0048731Y0089570D01*
X0048352Y0089537D01*
X0047974Y0089495D01*
X0047597Y0089444D01*
X0047221Y0089384D01*
X0046846Y0089314D01*
X0046474Y0089236D01*
X0046104Y0089149D01*
X0045735Y0089052D01*
X0045369Y0088947D01*
X0045006Y0088833D01*
X0044646Y0088710D01*
X0044289Y0088579D01*
X0043935Y0088439D01*
X0043584Y0088290D01*
X0043238Y0088133D01*
X0042895Y0087968D01*
X0042556Y0087795D01*
X0042221Y0087613D01*
X0041891Y0087423D01*
X0041566Y0087226D01*
X0041246Y0087020D01*
X0040930Y0086807D01*
X0040620Y0086586D01*
X0040315Y0086358D01*
X0040016Y0086123D01*
X0039723Y0085880D01*
X0039436Y0085631D01*
X0039154Y0085374D01*
X0038879Y0085111D01*
X0038611Y0084842D01*
X0038349Y0084565D01*
X0038094Y0084283D01*
X0037845Y0083994D01*
X0037604Y0083700D01*
X0037370Y0083400D01*
X0037143Y0083094D01*
X0036924Y0082783D01*
X0036712Y0082467D01*
X0036508Y0082145D01*
X0036312Y0081819D01*
X0036124Y0081488D01*
X0035943Y0081153D01*
X0035771Y0080814D01*
X0035608Y0080470D01*
X0035452Y0080123D01*
X0035305Y0079771D01*
X0035305Y0079772D02*
X0035305Y0067961D01*
X0049872Y0089614D02*
X0050253Y0089609D01*
X0050633Y0089594D01*
X0051013Y0089570D01*
X0051392Y0089537D01*
X0051770Y0089495D01*
X0052147Y0089444D01*
X0052523Y0089384D01*
X0052898Y0089314D01*
X0053270Y0089236D01*
X0053640Y0089149D01*
X0054009Y0089052D01*
X0054375Y0088947D01*
X0054738Y0088833D01*
X0055098Y0088710D01*
X0055455Y0088579D01*
X0055809Y0088439D01*
X0056160Y0088290D01*
X0056506Y0088133D01*
X0056849Y0087968D01*
X0057188Y0087795D01*
X0057523Y0087613D01*
X0057853Y0087423D01*
X0058178Y0087226D01*
X0058498Y0087020D01*
X0058814Y0086807D01*
X0059124Y0086586D01*
X0059429Y0086358D01*
X0059728Y0086123D01*
X0060021Y0085880D01*
X0060308Y0085631D01*
X0060590Y0085374D01*
X0060865Y0085111D01*
X0061133Y0084842D01*
X0061395Y0084565D01*
X0061650Y0084283D01*
X0061899Y0083994D01*
X0062140Y0083700D01*
X0062374Y0083400D01*
X0062601Y0083094D01*
X0062820Y0082783D01*
X0063032Y0082467D01*
X0063236Y0082145D01*
X0063432Y0081819D01*
X0063620Y0081488D01*
X0063801Y0081153D01*
X0063973Y0080814D01*
X0064136Y0080470D01*
X0064292Y0080123D01*
X0064439Y0079771D01*
X0049872Y0058118D02*
X0049492Y0058123D01*
X0049111Y0058138D01*
X0048731Y0058162D01*
X0048352Y0058195D01*
X0047974Y0058237D01*
X0047597Y0058288D01*
X0047221Y0058348D01*
X0046847Y0058418D01*
X0046474Y0058496D01*
X0046104Y0058583D01*
X0045735Y0058680D01*
X0045370Y0058785D01*
X0045006Y0058899D01*
X0044646Y0059022D01*
X0044289Y0059153D01*
X0043935Y0059293D01*
X0043584Y0059442D01*
X0043238Y0059599D01*
X0042895Y0059764D01*
X0042556Y0059937D01*
X0042222Y0060119D01*
X0041891Y0060309D01*
X0041566Y0060506D01*
X0041246Y0060712D01*
X0040930Y0060925D01*
X0040620Y0061146D01*
X0040315Y0061374D01*
X0040016Y0061609D01*
X0039723Y0061852D01*
X0039436Y0062101D01*
X0039154Y0062358D01*
X0038879Y0062621D01*
X0038611Y0062891D01*
X0038349Y0063167D01*
X0038093Y0063449D01*
X0037845Y0063738D01*
X0037604Y0064032D01*
X0037370Y0064332D01*
X0037143Y0064638D01*
X0036924Y0064949D01*
X0036712Y0065265D01*
X0036508Y0065587D01*
X0036312Y0065913D01*
X0036124Y0066244D01*
X0035943Y0066579D01*
X0035771Y0066919D01*
X0035608Y0067262D01*
X0035452Y0067610D01*
X0035305Y0067961D01*
X0049872Y0058118D02*
X0050252Y0058123D01*
X0050633Y0058138D01*
X0051013Y0058162D01*
X0051392Y0058195D01*
X0051770Y0058237D01*
X0052147Y0058288D01*
X0052523Y0058348D01*
X0052897Y0058418D01*
X0053270Y0058496D01*
X0053640Y0058583D01*
X0054009Y0058680D01*
X0054374Y0058785D01*
X0054738Y0058899D01*
X0055098Y0059022D01*
X0055455Y0059153D01*
X0055809Y0059293D01*
X0056160Y0059442D01*
X0056506Y0059599D01*
X0056849Y0059764D01*
X0057188Y0059937D01*
X0057522Y0060119D01*
X0057853Y0060309D01*
X0058178Y0060506D01*
X0058498Y0060712D01*
X0058814Y0060925D01*
X0059124Y0061146D01*
X0059429Y0061374D01*
X0059728Y0061609D01*
X0060021Y0061852D01*
X0060308Y0062101D01*
X0060590Y0062358D01*
X0060865Y0062621D01*
X0061133Y0062891D01*
X0061395Y0063167D01*
X0061651Y0063449D01*
X0061899Y0063738D01*
X0062140Y0064032D01*
X0062374Y0064332D01*
X0062601Y0064638D01*
X0062820Y0064949D01*
X0063032Y0065265D01*
X0063236Y0065587D01*
X0063432Y0065913D01*
X0063620Y0066244D01*
X0063801Y0066579D01*
X0063973Y0066919D01*
X0064136Y0067262D01*
X0064292Y0067610D01*
X0064439Y0067961D01*
D12*
X0021329Y0073866D02*
X0021338Y0074566D01*
X0021363Y0075267D01*
X0021406Y0075966D01*
X0021466Y0076664D01*
X0021544Y0077360D01*
X0021638Y0078054D01*
X0021749Y0078746D01*
X0021877Y0079434D01*
X0022023Y0080120D01*
X0022184Y0080801D01*
X0022363Y0081479D01*
X0022558Y0082152D01*
X0022770Y0082819D01*
X0022998Y0083482D01*
X0023242Y0084138D01*
X0023502Y0084789D01*
X0023778Y0085433D01*
X0024069Y0086070D01*
X0024377Y0086699D01*
X0024699Y0087321D01*
X0025037Y0087935D01*
X0025390Y0088540D01*
X0025757Y0089136D01*
X0026139Y0089724D01*
X0026536Y0090301D01*
X0026946Y0090869D01*
X0027370Y0091427D01*
X0027808Y0091973D01*
X0028259Y0092510D01*
X0028723Y0093034D01*
X0029200Y0093548D01*
X0029689Y0094049D01*
X0030190Y0094538D01*
X0030704Y0095015D01*
X0031228Y0095479D01*
X0031765Y0095930D01*
X0032311Y0096368D01*
X0032869Y0096792D01*
X0033437Y0097202D01*
X0034014Y0097599D01*
X0034602Y0097981D01*
X0035198Y0098348D01*
X0035803Y0098701D01*
X0036417Y0099039D01*
X0037039Y0099361D01*
X0037668Y0099669D01*
X0038305Y0099960D01*
X0038949Y0100236D01*
X0039600Y0100496D01*
X0040256Y0100740D01*
X0040919Y0100968D01*
X0041586Y0101180D01*
X0042259Y0101375D01*
X0042937Y0101554D01*
X0043618Y0101715D01*
X0044304Y0101861D01*
X0044992Y0101989D01*
X0045684Y0102100D01*
X0046378Y0102194D01*
X0047074Y0102272D01*
X0047772Y0102332D01*
X0048471Y0102375D01*
X0049172Y0102400D01*
X0049872Y0102409D01*
X0050572Y0102400D01*
X0051273Y0102375D01*
X0051972Y0102332D01*
X0052670Y0102272D01*
X0053366Y0102194D01*
X0054060Y0102100D01*
X0054752Y0101989D01*
X0055440Y0101861D01*
X0056126Y0101715D01*
X0056807Y0101554D01*
X0057485Y0101375D01*
X0058158Y0101180D01*
X0058825Y0100968D01*
X0059488Y0100740D01*
X0060144Y0100496D01*
X0060795Y0100236D01*
X0061439Y0099960D01*
X0062076Y0099669D01*
X0062705Y0099361D01*
X0063327Y0099039D01*
X0063941Y0098701D01*
X0064546Y0098348D01*
X0065142Y0097981D01*
X0065730Y0097599D01*
X0066307Y0097202D01*
X0066875Y0096792D01*
X0067433Y0096368D01*
X0067979Y0095930D01*
X0068516Y0095479D01*
X0069040Y0095015D01*
X0069554Y0094538D01*
X0070055Y0094049D01*
X0070544Y0093548D01*
X0071021Y0093034D01*
X0071485Y0092510D01*
X0071936Y0091973D01*
X0072374Y0091427D01*
X0072798Y0090869D01*
X0073208Y0090301D01*
X0073605Y0089724D01*
X0073987Y0089136D01*
X0074354Y0088540D01*
X0074707Y0087935D01*
X0075045Y0087321D01*
X0075367Y0086699D01*
X0075675Y0086070D01*
X0075966Y0085433D01*
X0076242Y0084789D01*
X0076502Y0084138D01*
X0076746Y0083482D01*
X0076974Y0082819D01*
X0077186Y0082152D01*
X0077381Y0081479D01*
X0077560Y0080801D01*
X0077721Y0080120D01*
X0077867Y0079434D01*
X0077995Y0078746D01*
X0078106Y0078054D01*
X0078200Y0077360D01*
X0078278Y0076664D01*
X0078338Y0075966D01*
X0078381Y0075267D01*
X0078406Y0074566D01*
X0078415Y0073866D01*
X0078406Y0073166D01*
X0078381Y0072465D01*
X0078338Y0071766D01*
X0078278Y0071068D01*
X0078200Y0070372D01*
X0078106Y0069678D01*
X0077995Y0068986D01*
X0077867Y0068298D01*
X0077721Y0067612D01*
X0077560Y0066931D01*
X0077381Y0066253D01*
X0077186Y0065580D01*
X0076974Y0064913D01*
X0076746Y0064250D01*
X0076502Y0063594D01*
X0076242Y0062943D01*
X0075966Y0062299D01*
X0075675Y0061662D01*
X0075367Y0061033D01*
X0075045Y0060411D01*
X0074707Y0059797D01*
X0074354Y0059192D01*
X0073987Y0058596D01*
X0073605Y0058008D01*
X0073208Y0057431D01*
X0072798Y0056863D01*
X0072374Y0056305D01*
X0071936Y0055759D01*
X0071485Y0055222D01*
X0071021Y0054698D01*
X0070544Y0054184D01*
X0070055Y0053683D01*
X0069554Y0053194D01*
X0069040Y0052717D01*
X0068516Y0052253D01*
X0067979Y0051802D01*
X0067433Y0051364D01*
X0066875Y0050940D01*
X0066307Y0050530D01*
X0065730Y0050133D01*
X0065142Y0049751D01*
X0064546Y0049384D01*
X0063941Y0049031D01*
X0063327Y0048693D01*
X0062705Y0048371D01*
X0062076Y0048063D01*
X0061439Y0047772D01*
X0060795Y0047496D01*
X0060144Y0047236D01*
X0059488Y0046992D01*
X0058825Y0046764D01*
X0058158Y0046552D01*
X0057485Y0046357D01*
X0056807Y0046178D01*
X0056126Y0046017D01*
X0055440Y0045871D01*
X0054752Y0045743D01*
X0054060Y0045632D01*
X0053366Y0045538D01*
X0052670Y0045460D01*
X0051972Y0045400D01*
X0051273Y0045357D01*
X0050572Y0045332D01*
X0049872Y0045323D01*
X0049172Y0045332D01*
X0048471Y0045357D01*
X0047772Y0045400D01*
X0047074Y0045460D01*
X0046378Y0045538D01*
X0045684Y0045632D01*
X0044992Y0045743D01*
X0044304Y0045871D01*
X0043618Y0046017D01*
X0042937Y0046178D01*
X0042259Y0046357D01*
X0041586Y0046552D01*
X0040919Y0046764D01*
X0040256Y0046992D01*
X0039600Y0047236D01*
X0038949Y0047496D01*
X0038305Y0047772D01*
X0037668Y0048063D01*
X0037039Y0048371D01*
X0036417Y0048693D01*
X0035803Y0049031D01*
X0035198Y0049384D01*
X0034602Y0049751D01*
X0034014Y0050133D01*
X0033437Y0050530D01*
X0032869Y0050940D01*
X0032311Y0051364D01*
X0031765Y0051802D01*
X0031228Y0052253D01*
X0030704Y0052717D01*
X0030190Y0053194D01*
X0029689Y0053683D01*
X0029200Y0054184D01*
X0028723Y0054698D01*
X0028259Y0055222D01*
X0027808Y0055759D01*
X0027370Y0056305D01*
X0026946Y0056863D01*
X0026536Y0057431D01*
X0026139Y0058008D01*
X0025757Y0058596D01*
X0025390Y0059192D01*
X0025037Y0059797D01*
X0024699Y0060411D01*
X0024377Y0061033D01*
X0024069Y0061662D01*
X0023778Y0062299D01*
X0023502Y0062943D01*
X0023242Y0063594D01*
X0022998Y0064250D01*
X0022770Y0064913D01*
X0022558Y0065580D01*
X0022363Y0066253D01*
X0022184Y0066931D01*
X0022023Y0067612D01*
X0021877Y0068298D01*
X0021749Y0068986D01*
X0021638Y0069678D01*
X0021544Y0070372D01*
X0021466Y0071068D01*
X0021406Y0071766D01*
X0021363Y0072465D01*
X0021338Y0073166D01*
X0021329Y0073866D01*
X0028809Y0053394D02*
X0011486Y0053394D01*
X0011486Y0044339D01*
X0013061Y0044339D01*
X0013061Y0027803D01*
X0011486Y0027803D01*
X0011486Y0032134D01*
X0001250Y0032134D01*
X0001250Y0040008D01*
X0011486Y0040008D01*
X0011486Y0044339D01*
X0011486Y0040008D02*
X0011486Y0032134D01*
X0011486Y0027803D02*
X0011486Y0018748D01*
X0028809Y0018748D01*
X0028809Y0033315D01*
X0026447Y0033315D01*
X0026447Y0038827D01*
X0028809Y0038827D01*
X0028809Y0033315D01*
X0028062Y0032616D02*
X0030344Y0033621D01*
X0030384Y0036858D02*
X0028022Y0036858D01*
X0028809Y0038827D02*
X0028809Y0053394D01*
X0032549Y0048905D02*
X0033730Y0046859D01*
X0030825Y0045078D02*
X0029155Y0046749D01*
X0028180Y0043748D02*
X0030226Y0042567D01*
X0030317Y0039498D02*
X0028035Y0040110D01*
X0030432Y0029819D02*
X0028761Y0028149D01*
X0041407Y0046806D02*
X0042589Y0048852D01*
X0045671Y0046633D02*
X0044000Y0044963D01*
X0044768Y0042370D02*
X0046814Y0043551D01*
X0046879Y0039920D02*
X0044597Y0039308D01*
X0044557Y0036465D02*
X0046919Y0036465D01*
X0044571Y0033417D02*
X0046852Y0032412D01*
X0044672Y0029656D02*
X0046343Y0027986D01*
X0050463Y0032134D02*
X0050463Y0036465D01*
X0050463Y0039220D02*
X0050463Y0008512D01*
X0050463Y0011268D02*
X0050463Y0015598D01*
X0060305Y0008512D02*
X0070935Y0008512D01*
X0086683Y0008512D02*
X0086683Y0039220D01*
X0070935Y0039220D02*
X0060305Y0039220D01*
X0037470Y0047094D02*
X0037470Y0049457D01*
X0060067Y0085520D02*
X0061568Y0085520D01*
X0060818Y0085520D02*
X0060818Y0090024D01*
X0061568Y0090024D02*
X0060067Y0090024D01*
X0063136Y0090024D02*
X0065388Y0090024D01*
X0066139Y0089273D01*
X0066139Y0087772D01*
X0065388Y0087021D01*
X0063136Y0087021D01*
X0063136Y0085520D02*
X0063136Y0090024D01*
X0064637Y0087021D02*
X0066139Y0085520D01*
D13*
X0082823Y0036083D02*
X0082823Y0035316D01*
X0084358Y0033781D01*
X0085893Y0033781D02*
X0082823Y0033781D01*
X0083591Y0032246D02*
X0084358Y0032246D01*
X0084358Y0029177D01*
X0085125Y0029177D02*
X0083591Y0029177D01*
X0082823Y0029944D01*
X0082823Y0031479D01*
X0083591Y0032246D01*
X0085893Y0031479D02*
X0085893Y0029944D01*
X0085125Y0029177D01*
X0085125Y0027642D02*
X0082823Y0027642D01*
X0085125Y0027642D02*
X0085893Y0026875D01*
X0085125Y0026108D01*
X0085893Y0025341D01*
X0085125Y0024573D01*
X0082823Y0024573D01*
X0083591Y0023039D02*
X0082823Y0022271D01*
X0082823Y0020737D01*
X0083591Y0019969D01*
X0085125Y0019969D01*
X0085893Y0020737D01*
X0085893Y0022271D01*
X0085125Y0023039D01*
X0083591Y0023039D01*
X0083591Y0018435D02*
X0082056Y0018435D01*
X0081289Y0017667D01*
X0081289Y0015365D01*
X0085893Y0015365D01*
X0084358Y0015365D02*
X0084358Y0017667D01*
X0083591Y0018435D01*
X0017074Y0023154D02*
X0016306Y0022387D01*
X0017074Y0023154D02*
X0017074Y0024689D01*
X0016306Y0025456D01*
X0015539Y0025456D01*
X0014772Y0024689D01*
X0014772Y0023154D01*
X0014004Y0022387D01*
X0013237Y0022387D01*
X0012470Y0023154D01*
X0012470Y0024689D01*
X0013237Y0025456D01*
X0012470Y0026991D02*
X0017074Y0026991D01*
X0015539Y0028525D01*
X0017074Y0030060D01*
X0012470Y0030060D01*
X0012470Y0031594D02*
X0012470Y0033129D01*
X0012470Y0032362D02*
X0017074Y0032362D01*
X0017074Y0033129D02*
X0017074Y0031594D01*
X0017074Y0036198D02*
X0012470Y0036198D01*
X0012470Y0034664D02*
X0012470Y0037733D01*
X0013237Y0039268D02*
X0016306Y0039268D01*
X0017074Y0040035D01*
X0017074Y0041570D01*
X0016306Y0042337D01*
X0017074Y0043872D02*
X0012470Y0043872D01*
X0013237Y0042337D02*
X0012470Y0041570D01*
X0012470Y0040035D01*
X0013237Y0039268D01*
X0014772Y0043872D02*
X0014772Y0046941D01*
X0012470Y0046941D02*
X0017074Y0046941D01*
D14*
X0057878Y0063537D02*
X0057338Y0064257D01*
X0057339Y0064256D02*
X0057572Y0064437D01*
X0057800Y0064623D01*
X0058024Y0064815D01*
X0058243Y0065012D01*
X0058457Y0065214D01*
X0058666Y0065422D01*
X0058869Y0065635D01*
X0059068Y0065852D01*
X0059261Y0066075D01*
X0059449Y0066302D01*
X0059631Y0066533D01*
X0059808Y0066769D01*
X0059978Y0067010D01*
X0060143Y0067254D01*
X0060301Y0067502D01*
X0060454Y0067754D01*
X0060600Y0068010D01*
X0060740Y0068269D01*
X0060874Y0068532D01*
X0061001Y0068797D01*
X0061122Y0069066D01*
X0061236Y0069338D01*
X0061343Y0069612D01*
X0061444Y0069889D01*
X0061538Y0070168D01*
X0061625Y0070450D01*
X0061705Y0070733D01*
X0061778Y0071019D01*
X0061844Y0071306D01*
X0061903Y0071595D01*
X0061955Y0071885D01*
X0062000Y0072176D01*
X0062038Y0072468D01*
X0062068Y0072761D01*
X0062092Y0073055D01*
X0062108Y0073349D01*
X0062117Y0073643D01*
X0062119Y0073938D01*
X0062113Y0074233D01*
X0062101Y0074527D01*
X0062081Y0074821D01*
X0062054Y0075114D01*
X0062020Y0075407D01*
X0061979Y0075699D01*
X0061930Y0075989D01*
X0061875Y0076279D01*
X0061813Y0076566D01*
X0061743Y0076853D01*
X0061666Y0077137D01*
X0061583Y0077420D01*
X0061493Y0077700D01*
X0061396Y0077978D01*
X0061292Y0078254D01*
X0061181Y0078527D01*
X0061064Y0078797D01*
X0060940Y0079065D01*
X0060810Y0079329D01*
X0060673Y0079590D01*
X0060530Y0079847D01*
X0060380Y0080101D01*
X0060225Y0080352D01*
X0060063Y0080598D01*
X0059896Y0080840D01*
X0059722Y0081078D01*
X0059543Y0081312D01*
X0059358Y0081542D01*
X0059168Y0081766D01*
X0058972Y0081987D01*
X0058771Y0082202D01*
X0058564Y0082412D01*
X0058353Y0082617D01*
X0058136Y0082817D01*
X0057915Y0083012D01*
X0057689Y0083201D01*
X0057459Y0083384D01*
X0057224Y0083562D01*
X0056984Y0083734D01*
X0056741Y0083900D01*
X0056494Y0084060D01*
X0056243Y0084214D01*
X0055988Y0084362D01*
X0055729Y0084504D01*
X0055468Y0084639D01*
X0055203Y0084768D01*
X0054935Y0084890D01*
X0054664Y0085006D01*
X0054390Y0085115D01*
X0054114Y0085217D01*
X0053835Y0085312D01*
X0053554Y0085401D01*
X0053271Y0085483D01*
X0052986Y0085558D01*
X0052699Y0085625D01*
X0052411Y0085686D01*
X0052121Y0085740D01*
X0051830Y0085787D01*
X0051538Y0085826D01*
X0051246Y0085858D01*
X0050952Y0085884D01*
X0050658Y0085902D01*
X0050364Y0085912D01*
X0050069Y0085916D01*
X0049774Y0085912D01*
X0049480Y0085902D01*
X0049186Y0085884D01*
X0048892Y0085858D01*
X0048600Y0085826D01*
X0048308Y0085787D01*
X0048017Y0085740D01*
X0047727Y0085686D01*
X0047439Y0085625D01*
X0047152Y0085558D01*
X0046867Y0085483D01*
X0046584Y0085401D01*
X0046303Y0085312D01*
X0046024Y0085217D01*
X0045748Y0085115D01*
X0045474Y0085006D01*
X0045203Y0084890D01*
X0044935Y0084768D01*
X0044670Y0084639D01*
X0044409Y0084504D01*
X0044150Y0084362D01*
X0043895Y0084214D01*
X0043644Y0084060D01*
X0043397Y0083900D01*
X0043154Y0083734D01*
X0042914Y0083562D01*
X0042679Y0083384D01*
X0042449Y0083201D01*
X0042223Y0083012D01*
X0042002Y0082817D01*
X0041785Y0082617D01*
X0041574Y0082412D01*
X0041367Y0082202D01*
X0041166Y0081987D01*
X0040970Y0081766D01*
X0040780Y0081542D01*
X0040595Y0081312D01*
X0040416Y0081078D01*
X0040242Y0080840D01*
X0040075Y0080598D01*
X0039913Y0080352D01*
X0039758Y0080101D01*
X0039608Y0079847D01*
X0039465Y0079590D01*
X0039328Y0079329D01*
X0039198Y0079065D01*
X0039074Y0078797D01*
X0038957Y0078527D01*
X0038846Y0078254D01*
X0038742Y0077978D01*
X0038645Y0077700D01*
X0038555Y0077420D01*
X0038472Y0077137D01*
X0038395Y0076853D01*
X0038325Y0076566D01*
X0038263Y0076279D01*
X0038208Y0075989D01*
X0038159Y0075699D01*
X0038118Y0075407D01*
X0038084Y0075114D01*
X0038057Y0074821D01*
X0038037Y0074527D01*
X0038025Y0074233D01*
X0038019Y0073938D01*
X0038021Y0073643D01*
X0038030Y0073349D01*
X0038046Y0073055D01*
X0038070Y0072761D01*
X0038100Y0072468D01*
X0038138Y0072176D01*
X0038183Y0071885D01*
X0038235Y0071595D01*
X0038294Y0071306D01*
X0038360Y0071019D01*
X0038433Y0070733D01*
X0038513Y0070450D01*
X0038600Y0070168D01*
X0038694Y0069889D01*
X0038795Y0069612D01*
X0038902Y0069338D01*
X0039016Y0069066D01*
X0039137Y0068797D01*
X0039264Y0068532D01*
X0039398Y0068269D01*
X0039538Y0068010D01*
X0039684Y0067754D01*
X0039837Y0067502D01*
X0039995Y0067254D01*
X0040160Y0067010D01*
X0040330Y0066769D01*
X0040507Y0066533D01*
X0040689Y0066302D01*
X0040877Y0066075D01*
X0041070Y0065852D01*
X0041269Y0065635D01*
X0041472Y0065422D01*
X0041681Y0065214D01*
X0041895Y0065012D01*
X0042114Y0064815D01*
X0042338Y0064623D01*
X0042566Y0064437D01*
X0042799Y0064256D01*
X0042260Y0063537D01*
X0042259Y0063536D01*
X0042009Y0063730D01*
X0041763Y0063930D01*
X0041523Y0064136D01*
X0041288Y0064348D01*
X0041058Y0064566D01*
X0040833Y0064789D01*
X0040614Y0065017D01*
X0040400Y0065251D01*
X0040192Y0065490D01*
X0039990Y0065734D01*
X0039795Y0065983D01*
X0039605Y0066237D01*
X0039422Y0066495D01*
X0039245Y0066757D01*
X0039074Y0067024D01*
X0038910Y0067295D01*
X0038753Y0067570D01*
X0038602Y0067848D01*
X0038458Y0068131D01*
X0038322Y0068416D01*
X0038192Y0068705D01*
X0038069Y0068997D01*
X0037954Y0069292D01*
X0037846Y0069589D01*
X0037745Y0069890D01*
X0037651Y0070192D01*
X0037565Y0070497D01*
X0037486Y0070804D01*
X0037415Y0071112D01*
X0037352Y0071422D01*
X0037296Y0071734D01*
X0037247Y0072047D01*
X0037207Y0072361D01*
X0037174Y0072676D01*
X0037149Y0072992D01*
X0037131Y0073308D01*
X0037121Y0073624D01*
X0037119Y0073941D01*
X0037125Y0074258D01*
X0037138Y0074574D01*
X0037160Y0074890D01*
X0037188Y0075205D01*
X0037225Y0075520D01*
X0037269Y0075833D01*
X0037321Y0076146D01*
X0037381Y0076457D01*
X0037448Y0076766D01*
X0037523Y0077074D01*
X0037605Y0077380D01*
X0037694Y0077683D01*
X0037791Y0077985D01*
X0037896Y0078284D01*
X0038008Y0078580D01*
X0038126Y0078874D01*
X0038252Y0079164D01*
X0038385Y0079451D01*
X0038526Y0079736D01*
X0038673Y0080016D01*
X0038826Y0080293D01*
X0038987Y0080566D01*
X0039154Y0080835D01*
X0039328Y0081100D01*
X0039508Y0081360D01*
X0039694Y0081616D01*
X0039887Y0081867D01*
X0040085Y0082114D01*
X0040290Y0082356D01*
X0040500Y0082592D01*
X0040717Y0082824D01*
X0040939Y0083049D01*
X0041166Y0083270D01*
X0041398Y0083485D01*
X0041636Y0083694D01*
X0041879Y0083897D01*
X0042127Y0084095D01*
X0042379Y0084286D01*
X0042636Y0084471D01*
X0042898Y0084649D01*
X0043164Y0084821D01*
X0043433Y0084987D01*
X0043707Y0085146D01*
X0043985Y0085298D01*
X0044266Y0085443D01*
X0044551Y0085582D01*
X0044839Y0085713D01*
X0045131Y0085837D01*
X0045425Y0085955D01*
X0045722Y0086065D01*
X0046021Y0086167D01*
X0046323Y0086262D01*
X0046627Y0086350D01*
X0046934Y0086431D01*
X0047242Y0086504D01*
X0047552Y0086569D01*
X0047863Y0086627D01*
X0048176Y0086677D01*
X0048490Y0086719D01*
X0048804Y0086754D01*
X0049120Y0086781D01*
X0049436Y0086801D01*
X0049752Y0086812D01*
X0050069Y0086816D01*
X0050386Y0086812D01*
X0050702Y0086801D01*
X0051018Y0086781D01*
X0051334Y0086754D01*
X0051648Y0086719D01*
X0051962Y0086677D01*
X0052275Y0086627D01*
X0052586Y0086569D01*
X0052896Y0086504D01*
X0053204Y0086431D01*
X0053511Y0086350D01*
X0053815Y0086262D01*
X0054117Y0086167D01*
X0054416Y0086065D01*
X0054713Y0085955D01*
X0055007Y0085837D01*
X0055299Y0085713D01*
X0055587Y0085582D01*
X0055872Y0085443D01*
X0056153Y0085298D01*
X0056431Y0085146D01*
X0056705Y0084987D01*
X0056974Y0084821D01*
X0057240Y0084649D01*
X0057502Y0084471D01*
X0057759Y0084286D01*
X0058011Y0084095D01*
X0058259Y0083897D01*
X0058502Y0083694D01*
X0058740Y0083485D01*
X0058972Y0083270D01*
X0059199Y0083049D01*
X0059421Y0082824D01*
X0059638Y0082592D01*
X0059848Y0082356D01*
X0060053Y0082114D01*
X0060251Y0081867D01*
X0060444Y0081616D01*
X0060630Y0081360D01*
X0060810Y0081100D01*
X0060984Y0080835D01*
X0061151Y0080566D01*
X0061312Y0080293D01*
X0061465Y0080016D01*
X0061612Y0079736D01*
X0061753Y0079451D01*
X0061886Y0079164D01*
X0062012Y0078874D01*
X0062130Y0078580D01*
X0062242Y0078284D01*
X0062347Y0077985D01*
X0062444Y0077683D01*
X0062533Y0077380D01*
X0062615Y0077074D01*
X0062690Y0076766D01*
X0062757Y0076457D01*
X0062817Y0076146D01*
X0062869Y0075833D01*
X0062913Y0075520D01*
X0062950Y0075205D01*
X0062978Y0074890D01*
X0063000Y0074574D01*
X0063013Y0074258D01*
X0063019Y0073941D01*
X0063017Y0073624D01*
X0063007Y0073308D01*
X0062989Y0072992D01*
X0062964Y0072676D01*
X0062931Y0072361D01*
X0062891Y0072047D01*
X0062842Y0071734D01*
X0062786Y0071422D01*
X0062723Y0071112D01*
X0062652Y0070804D01*
X0062573Y0070497D01*
X0062487Y0070192D01*
X0062393Y0069890D01*
X0062292Y0069589D01*
X0062184Y0069292D01*
X0062069Y0068997D01*
X0061946Y0068705D01*
X0061816Y0068416D01*
X0061680Y0068131D01*
X0061536Y0067848D01*
X0061385Y0067570D01*
X0061228Y0067295D01*
X0061064Y0067024D01*
X0060893Y0066757D01*
X0060716Y0066495D01*
X0060533Y0066237D01*
X0060343Y0065983D01*
X0060148Y0065734D01*
X0059946Y0065490D01*
X0059738Y0065251D01*
X0059524Y0065017D01*
X0059305Y0064789D01*
X0059080Y0064566D01*
X0058850Y0064348D01*
X0058615Y0064136D01*
X0058375Y0063930D01*
X0058129Y0063730D01*
X0057879Y0063536D01*
X0057823Y0063611D01*
X0058071Y0063804D01*
X0058315Y0064003D01*
X0058553Y0064207D01*
X0058787Y0064417D01*
X0059015Y0064633D01*
X0059238Y0064855D01*
X0059456Y0065082D01*
X0059668Y0065314D01*
X0059874Y0065551D01*
X0060075Y0065793D01*
X0060269Y0066041D01*
X0060457Y0066292D01*
X0060639Y0066549D01*
X0060815Y0066809D01*
X0060984Y0067074D01*
X0061147Y0067343D01*
X0061303Y0067616D01*
X0061453Y0067892D01*
X0061595Y0068172D01*
X0061731Y0068456D01*
X0061860Y0068743D01*
X0061982Y0069033D01*
X0062096Y0069325D01*
X0062204Y0069621D01*
X0062304Y0069919D01*
X0062397Y0070219D01*
X0062482Y0070522D01*
X0062560Y0070826D01*
X0062631Y0071132D01*
X0062694Y0071440D01*
X0062750Y0071750D01*
X0062798Y0072060D01*
X0062838Y0072372D01*
X0062871Y0072685D01*
X0062896Y0072998D01*
X0062913Y0073312D01*
X0062923Y0073626D01*
X0062925Y0073941D01*
X0062919Y0074255D01*
X0062906Y0074569D01*
X0062885Y0074883D01*
X0062856Y0075196D01*
X0062820Y0075508D01*
X0062776Y0075819D01*
X0062724Y0076129D01*
X0062665Y0076438D01*
X0062598Y0076745D01*
X0062524Y0077051D01*
X0062443Y0077354D01*
X0062354Y0077656D01*
X0062257Y0077955D01*
X0062154Y0078252D01*
X0062043Y0078546D01*
X0061925Y0078837D01*
X0061800Y0079126D01*
X0061668Y0079411D01*
X0061529Y0079693D01*
X0061383Y0079971D01*
X0061230Y0080246D01*
X0061071Y0080517D01*
X0060905Y0080784D01*
X0060732Y0081047D01*
X0060554Y0081306D01*
X0060369Y0081560D01*
X0060177Y0081809D01*
X0059980Y0082054D01*
X0059777Y0082294D01*
X0059568Y0082529D01*
X0059353Y0082759D01*
X0059133Y0082983D01*
X0058908Y0083202D01*
X0058677Y0083415D01*
X0058441Y0083623D01*
X0058199Y0083825D01*
X0057954Y0084020D01*
X0057703Y0084210D01*
X0057448Y0084394D01*
X0057188Y0084571D01*
X0056924Y0084742D01*
X0056656Y0084906D01*
X0056384Y0085064D01*
X0056109Y0085215D01*
X0055829Y0085359D01*
X0055547Y0085497D01*
X0055261Y0085627D01*
X0054972Y0085751D01*
X0054679Y0085867D01*
X0054385Y0085976D01*
X0054087Y0086078D01*
X0053788Y0086172D01*
X0053485Y0086260D01*
X0053181Y0086340D01*
X0052876Y0086412D01*
X0052568Y0086477D01*
X0052259Y0086534D01*
X0051948Y0086584D01*
X0051637Y0086626D01*
X0051324Y0086661D01*
X0051011Y0086687D01*
X0050697Y0086707D01*
X0050383Y0086718D01*
X0050069Y0086722D01*
X0049755Y0086718D01*
X0049441Y0086707D01*
X0049127Y0086687D01*
X0048814Y0086661D01*
X0048501Y0086626D01*
X0048190Y0086584D01*
X0047879Y0086534D01*
X0047570Y0086477D01*
X0047262Y0086412D01*
X0046957Y0086340D01*
X0046653Y0086260D01*
X0046350Y0086172D01*
X0046051Y0086078D01*
X0045753Y0085976D01*
X0045459Y0085867D01*
X0045166Y0085751D01*
X0044877Y0085627D01*
X0044591Y0085497D01*
X0044309Y0085359D01*
X0044029Y0085215D01*
X0043754Y0085064D01*
X0043482Y0084906D01*
X0043214Y0084742D01*
X0042950Y0084571D01*
X0042690Y0084394D01*
X0042435Y0084210D01*
X0042184Y0084020D01*
X0041939Y0083825D01*
X0041697Y0083623D01*
X0041461Y0083415D01*
X0041230Y0083202D01*
X0041005Y0082983D01*
X0040785Y0082759D01*
X0040570Y0082529D01*
X0040361Y0082294D01*
X0040158Y0082054D01*
X0039961Y0081809D01*
X0039769Y0081560D01*
X0039584Y0081306D01*
X0039406Y0081047D01*
X0039233Y0080784D01*
X0039067Y0080517D01*
X0038908Y0080246D01*
X0038755Y0079971D01*
X0038609Y0079693D01*
X0038470Y0079411D01*
X0038338Y0079126D01*
X0038213Y0078837D01*
X0038095Y0078546D01*
X0037984Y0078252D01*
X0037881Y0077955D01*
X0037784Y0077656D01*
X0037695Y0077354D01*
X0037614Y0077051D01*
X0037540Y0076745D01*
X0037473Y0076438D01*
X0037414Y0076129D01*
X0037362Y0075819D01*
X0037318Y0075508D01*
X0037282Y0075196D01*
X0037253Y0074883D01*
X0037232Y0074569D01*
X0037219Y0074255D01*
X0037213Y0073941D01*
X0037215Y0073626D01*
X0037225Y0073312D01*
X0037242Y0072998D01*
X0037267Y0072685D01*
X0037300Y0072372D01*
X0037340Y0072060D01*
X0037388Y0071750D01*
X0037444Y0071440D01*
X0037507Y0071132D01*
X0037578Y0070826D01*
X0037656Y0070522D01*
X0037741Y0070219D01*
X0037834Y0069919D01*
X0037934Y0069621D01*
X0038042Y0069325D01*
X0038156Y0069033D01*
X0038278Y0068743D01*
X0038407Y0068456D01*
X0038543Y0068172D01*
X0038685Y0067892D01*
X0038835Y0067616D01*
X0038991Y0067343D01*
X0039154Y0067074D01*
X0039323Y0066809D01*
X0039499Y0066549D01*
X0039681Y0066292D01*
X0039869Y0066041D01*
X0040063Y0065793D01*
X0040264Y0065551D01*
X0040470Y0065314D01*
X0040682Y0065082D01*
X0040900Y0064855D01*
X0041123Y0064633D01*
X0041351Y0064417D01*
X0041585Y0064207D01*
X0041823Y0064003D01*
X0042067Y0063804D01*
X0042315Y0063611D01*
X0042372Y0063686D01*
X0042125Y0063878D01*
X0041883Y0064075D01*
X0041646Y0064278D01*
X0041415Y0064487D01*
X0041188Y0064701D01*
X0040966Y0064921D01*
X0040750Y0065146D01*
X0040540Y0065377D01*
X0040335Y0065612D01*
X0040136Y0065853D01*
X0039943Y0066098D01*
X0039757Y0066348D01*
X0039576Y0066602D01*
X0039401Y0066861D01*
X0039233Y0067124D01*
X0039072Y0067391D01*
X0038917Y0067662D01*
X0038768Y0067936D01*
X0038627Y0068214D01*
X0038492Y0068496D01*
X0038364Y0068780D01*
X0038243Y0069068D01*
X0038129Y0069359D01*
X0038023Y0069652D01*
X0037923Y0069948D01*
X0037831Y0070246D01*
X0037746Y0070546D01*
X0037669Y0070849D01*
X0037599Y0071153D01*
X0037536Y0071458D01*
X0037481Y0071765D01*
X0037433Y0072074D01*
X0037393Y0072383D01*
X0037361Y0072694D01*
X0037336Y0073005D01*
X0037319Y0073316D01*
X0037309Y0073628D01*
X0037307Y0073940D01*
X0037313Y0074252D01*
X0037326Y0074564D01*
X0037347Y0074875D01*
X0037375Y0075186D01*
X0037412Y0075496D01*
X0037455Y0075805D01*
X0037506Y0076113D01*
X0037565Y0076420D01*
X0037631Y0076724D01*
X0037705Y0077028D01*
X0037786Y0077329D01*
X0037874Y0077628D01*
X0037970Y0077925D01*
X0038073Y0078220D01*
X0038183Y0078512D01*
X0038300Y0078801D01*
X0038424Y0079088D01*
X0038555Y0079371D01*
X0038693Y0079651D01*
X0038838Y0079927D01*
X0038990Y0080200D01*
X0039148Y0080469D01*
X0039313Y0080734D01*
X0039484Y0080995D01*
X0039661Y0081251D01*
X0039845Y0081504D01*
X0040035Y0081751D01*
X0040230Y0081994D01*
X0040432Y0082233D01*
X0040640Y0082466D01*
X0040853Y0082694D01*
X0041071Y0082916D01*
X0041295Y0083134D01*
X0041524Y0083345D01*
X0041759Y0083551D01*
X0041998Y0083752D01*
X0042242Y0083946D01*
X0042491Y0084134D01*
X0042744Y0084317D01*
X0043002Y0084493D01*
X0043264Y0084662D01*
X0043530Y0084825D01*
X0043800Y0084982D01*
X0044074Y0085132D01*
X0044351Y0085275D01*
X0044631Y0085412D01*
X0044915Y0085541D01*
X0045202Y0085664D01*
X0045492Y0085779D01*
X0045785Y0085887D01*
X0046080Y0085989D01*
X0046378Y0086083D01*
X0046678Y0086169D01*
X0046979Y0086248D01*
X0047283Y0086320D01*
X0047588Y0086385D01*
X0047895Y0086442D01*
X0048203Y0086491D01*
X0048513Y0086533D01*
X0048823Y0086567D01*
X0049134Y0086594D01*
X0049445Y0086613D01*
X0049757Y0086624D01*
X0050069Y0086628D01*
X0050381Y0086624D01*
X0050693Y0086613D01*
X0051004Y0086594D01*
X0051315Y0086567D01*
X0051625Y0086533D01*
X0051935Y0086491D01*
X0052243Y0086442D01*
X0052550Y0086385D01*
X0052855Y0086320D01*
X0053159Y0086248D01*
X0053460Y0086169D01*
X0053760Y0086083D01*
X0054058Y0085989D01*
X0054353Y0085887D01*
X0054646Y0085779D01*
X0054936Y0085664D01*
X0055223Y0085541D01*
X0055507Y0085412D01*
X0055787Y0085275D01*
X0056064Y0085132D01*
X0056338Y0084982D01*
X0056608Y0084825D01*
X0056874Y0084662D01*
X0057136Y0084493D01*
X0057394Y0084317D01*
X0057647Y0084134D01*
X0057896Y0083946D01*
X0058140Y0083752D01*
X0058379Y0083551D01*
X0058614Y0083345D01*
X0058843Y0083134D01*
X0059067Y0082916D01*
X0059285Y0082694D01*
X0059498Y0082466D01*
X0059706Y0082233D01*
X0059908Y0081994D01*
X0060103Y0081751D01*
X0060293Y0081504D01*
X0060477Y0081251D01*
X0060654Y0080995D01*
X0060825Y0080734D01*
X0060990Y0080469D01*
X0061148Y0080200D01*
X0061300Y0079927D01*
X0061445Y0079651D01*
X0061583Y0079371D01*
X0061714Y0079088D01*
X0061838Y0078801D01*
X0061955Y0078512D01*
X0062065Y0078220D01*
X0062168Y0077925D01*
X0062264Y0077628D01*
X0062352Y0077329D01*
X0062433Y0077028D01*
X0062507Y0076724D01*
X0062573Y0076420D01*
X0062632Y0076113D01*
X0062683Y0075805D01*
X0062726Y0075496D01*
X0062763Y0075186D01*
X0062791Y0074875D01*
X0062812Y0074564D01*
X0062825Y0074252D01*
X0062831Y0073940D01*
X0062829Y0073628D01*
X0062819Y0073316D01*
X0062802Y0073005D01*
X0062777Y0072694D01*
X0062745Y0072383D01*
X0062705Y0072074D01*
X0062657Y0071765D01*
X0062602Y0071458D01*
X0062539Y0071153D01*
X0062469Y0070849D01*
X0062392Y0070546D01*
X0062307Y0070246D01*
X0062215Y0069948D01*
X0062115Y0069652D01*
X0062009Y0069359D01*
X0061895Y0069068D01*
X0061774Y0068780D01*
X0061646Y0068496D01*
X0061511Y0068214D01*
X0061370Y0067936D01*
X0061221Y0067662D01*
X0061066Y0067391D01*
X0060905Y0067124D01*
X0060737Y0066861D01*
X0060562Y0066602D01*
X0060381Y0066348D01*
X0060195Y0066098D01*
X0060002Y0065853D01*
X0059803Y0065612D01*
X0059598Y0065377D01*
X0059388Y0065146D01*
X0059172Y0064921D01*
X0058950Y0064701D01*
X0058723Y0064487D01*
X0058492Y0064278D01*
X0058255Y0064075D01*
X0058013Y0063878D01*
X0057766Y0063686D01*
X0057710Y0063762D01*
X0057955Y0063952D01*
X0058195Y0064147D01*
X0058430Y0064349D01*
X0058660Y0064556D01*
X0058885Y0064769D01*
X0059105Y0064987D01*
X0059319Y0065211D01*
X0059528Y0065440D01*
X0059731Y0065673D01*
X0059929Y0065912D01*
X0060120Y0066155D01*
X0060306Y0066404D01*
X0060485Y0066656D01*
X0060658Y0066913D01*
X0060825Y0067174D01*
X0060986Y0067439D01*
X0061139Y0067708D01*
X0061287Y0067980D01*
X0061427Y0068256D01*
X0061561Y0068536D01*
X0061688Y0068818D01*
X0061808Y0069104D01*
X0061921Y0069392D01*
X0062027Y0069683D01*
X0062125Y0069977D01*
X0062217Y0070273D01*
X0062301Y0070571D01*
X0062378Y0070871D01*
X0062447Y0071173D01*
X0062510Y0071476D01*
X0062564Y0071781D01*
X0062612Y0072087D01*
X0062651Y0072395D01*
X0062683Y0072703D01*
X0062708Y0073011D01*
X0062725Y0073321D01*
X0062735Y0073630D01*
X0062737Y0073940D01*
X0062731Y0074250D01*
X0062718Y0074559D01*
X0062697Y0074868D01*
X0062669Y0075177D01*
X0062633Y0075484D01*
X0062590Y0075791D01*
X0062539Y0076097D01*
X0062481Y0076401D01*
X0062415Y0076704D01*
X0062342Y0077005D01*
X0062262Y0077304D01*
X0062174Y0077601D01*
X0062079Y0077896D01*
X0061977Y0078188D01*
X0061868Y0078478D01*
X0061751Y0078765D01*
X0061628Y0079049D01*
X0061498Y0079330D01*
X0061361Y0079608D01*
X0061217Y0079882D01*
X0061067Y0080153D01*
X0060910Y0080420D01*
X0060746Y0080683D01*
X0060576Y0080942D01*
X0060400Y0081197D01*
X0060218Y0081448D01*
X0060029Y0081693D01*
X0059835Y0081935D01*
X0059635Y0082171D01*
X0059429Y0082402D01*
X0059217Y0082629D01*
X0059000Y0082850D01*
X0058778Y0083065D01*
X0058551Y0083276D01*
X0058318Y0083480D01*
X0058080Y0083679D01*
X0057838Y0083872D01*
X0057591Y0084059D01*
X0057340Y0084240D01*
X0057084Y0084414D01*
X0056824Y0084583D01*
X0056560Y0084745D01*
X0056292Y0084900D01*
X0056020Y0085049D01*
X0055745Y0085191D01*
X0055466Y0085327D01*
X0055185Y0085455D01*
X0054900Y0085577D01*
X0054612Y0085691D01*
X0054321Y0085799D01*
X0054028Y0085899D01*
X0053733Y0085993D01*
X0053435Y0086079D01*
X0053136Y0086157D01*
X0052834Y0086228D01*
X0052531Y0086292D01*
X0052227Y0086349D01*
X0051921Y0086398D01*
X0051614Y0086439D01*
X0051306Y0086473D01*
X0050997Y0086500D01*
X0050688Y0086519D01*
X0050379Y0086530D01*
X0050069Y0086534D01*
X0049759Y0086530D01*
X0049450Y0086519D01*
X0049141Y0086500D01*
X0048832Y0086473D01*
X0048524Y0086439D01*
X0048217Y0086398D01*
X0047911Y0086349D01*
X0047607Y0086292D01*
X0047304Y0086228D01*
X0047002Y0086157D01*
X0046703Y0086079D01*
X0046405Y0085993D01*
X0046110Y0085899D01*
X0045817Y0085799D01*
X0045526Y0085691D01*
X0045238Y0085577D01*
X0044953Y0085455D01*
X0044672Y0085327D01*
X0044393Y0085191D01*
X0044118Y0085049D01*
X0043846Y0084900D01*
X0043578Y0084745D01*
X0043314Y0084583D01*
X0043054Y0084414D01*
X0042798Y0084240D01*
X0042547Y0084059D01*
X0042300Y0083872D01*
X0042058Y0083679D01*
X0041820Y0083480D01*
X0041587Y0083276D01*
X0041360Y0083065D01*
X0041138Y0082850D01*
X0040921Y0082629D01*
X0040709Y0082402D01*
X0040503Y0082171D01*
X0040303Y0081935D01*
X0040109Y0081693D01*
X0039920Y0081448D01*
X0039738Y0081197D01*
X0039562Y0080942D01*
X0039392Y0080683D01*
X0039228Y0080420D01*
X0039071Y0080153D01*
X0038921Y0079882D01*
X0038777Y0079608D01*
X0038640Y0079330D01*
X0038510Y0079049D01*
X0038387Y0078765D01*
X0038270Y0078478D01*
X0038161Y0078188D01*
X0038059Y0077896D01*
X0037964Y0077601D01*
X0037876Y0077304D01*
X0037796Y0077005D01*
X0037723Y0076704D01*
X0037657Y0076401D01*
X0037599Y0076097D01*
X0037548Y0075791D01*
X0037505Y0075484D01*
X0037469Y0075177D01*
X0037441Y0074868D01*
X0037420Y0074559D01*
X0037407Y0074250D01*
X0037401Y0073940D01*
X0037403Y0073630D01*
X0037413Y0073321D01*
X0037430Y0073011D01*
X0037455Y0072703D01*
X0037487Y0072395D01*
X0037526Y0072087D01*
X0037574Y0071781D01*
X0037628Y0071476D01*
X0037691Y0071173D01*
X0037760Y0070871D01*
X0037837Y0070571D01*
X0037921Y0070273D01*
X0038013Y0069977D01*
X0038111Y0069683D01*
X0038217Y0069392D01*
X0038330Y0069104D01*
X0038450Y0068818D01*
X0038577Y0068536D01*
X0038711Y0068256D01*
X0038851Y0067980D01*
X0038999Y0067708D01*
X0039152Y0067439D01*
X0039313Y0067174D01*
X0039480Y0066913D01*
X0039653Y0066656D01*
X0039832Y0066404D01*
X0040018Y0066155D01*
X0040209Y0065912D01*
X0040407Y0065673D01*
X0040610Y0065440D01*
X0040819Y0065211D01*
X0041033Y0064987D01*
X0041253Y0064769D01*
X0041478Y0064556D01*
X0041708Y0064349D01*
X0041943Y0064147D01*
X0042183Y0063952D01*
X0042428Y0063762D01*
X0042485Y0063837D01*
X0042242Y0064025D01*
X0042003Y0064220D01*
X0041770Y0064420D01*
X0041542Y0064625D01*
X0041318Y0064837D01*
X0041100Y0065053D01*
X0040887Y0065275D01*
X0040680Y0065502D01*
X0040478Y0065734D01*
X0040282Y0065971D01*
X0040092Y0066213D01*
X0039908Y0066459D01*
X0039730Y0066710D01*
X0039558Y0066965D01*
X0039393Y0067224D01*
X0039233Y0067487D01*
X0039081Y0067754D01*
X0038934Y0068024D01*
X0038795Y0068298D01*
X0038662Y0068575D01*
X0038536Y0068856D01*
X0038417Y0069139D01*
X0038305Y0069426D01*
X0038200Y0069715D01*
X0038102Y0070006D01*
X0038011Y0070300D01*
X0037928Y0070596D01*
X0037851Y0070893D01*
X0037782Y0071193D01*
X0037721Y0071494D01*
X0037666Y0071797D01*
X0037620Y0072101D01*
X0037580Y0072406D01*
X0037548Y0072711D01*
X0037524Y0073018D01*
X0037507Y0073325D01*
X0037497Y0073632D01*
X0037495Y0073940D01*
X0037501Y0074247D01*
X0037514Y0074554D01*
X0037534Y0074861D01*
X0037563Y0075167D01*
X0037598Y0075473D01*
X0037641Y0075777D01*
X0037692Y0076080D01*
X0037749Y0076382D01*
X0037815Y0076683D01*
X0037887Y0076982D01*
X0037967Y0077278D01*
X0038054Y0077573D01*
X0038148Y0077866D01*
X0038250Y0078156D01*
X0038358Y0078444D01*
X0038473Y0078729D01*
X0038596Y0079011D01*
X0038725Y0079290D01*
X0038861Y0079566D01*
X0039004Y0079838D01*
X0039153Y0080107D01*
X0039309Y0080372D01*
X0039471Y0080633D01*
X0039640Y0080890D01*
X0039815Y0081143D01*
X0039996Y0081391D01*
X0040183Y0081635D01*
X0040376Y0081875D01*
X0040574Y0082109D01*
X0040779Y0082339D01*
X0040989Y0082564D01*
X0041204Y0082783D01*
X0041425Y0082997D01*
X0041650Y0083206D01*
X0041881Y0083409D01*
X0042117Y0083606D01*
X0042358Y0083798D01*
X0042603Y0083983D01*
X0042852Y0084163D01*
X0043106Y0084336D01*
X0043364Y0084503D01*
X0043626Y0084664D01*
X0043892Y0084818D01*
X0044162Y0084966D01*
X0044435Y0085107D01*
X0044712Y0085242D01*
X0044991Y0085369D01*
X0045274Y0085490D01*
X0045560Y0085604D01*
X0045848Y0085710D01*
X0046139Y0085810D01*
X0046432Y0085903D01*
X0046728Y0085988D01*
X0047025Y0086066D01*
X0047324Y0086137D01*
X0047625Y0086200D01*
X0047927Y0086256D01*
X0048231Y0086305D01*
X0048536Y0086346D01*
X0048841Y0086380D01*
X0049147Y0086406D01*
X0049454Y0086425D01*
X0049762Y0086436D01*
X0050069Y0086440D01*
X0050376Y0086436D01*
X0050684Y0086425D01*
X0050991Y0086406D01*
X0051297Y0086380D01*
X0051602Y0086346D01*
X0051907Y0086305D01*
X0052211Y0086256D01*
X0052513Y0086200D01*
X0052814Y0086137D01*
X0053113Y0086066D01*
X0053410Y0085988D01*
X0053706Y0085903D01*
X0053999Y0085810D01*
X0054290Y0085710D01*
X0054578Y0085604D01*
X0054864Y0085490D01*
X0055147Y0085369D01*
X0055426Y0085242D01*
X0055703Y0085107D01*
X0055976Y0084966D01*
X0056246Y0084818D01*
X0056512Y0084664D01*
X0056774Y0084503D01*
X0057032Y0084336D01*
X0057286Y0084163D01*
X0057535Y0083983D01*
X0057780Y0083798D01*
X0058021Y0083606D01*
X0058257Y0083409D01*
X0058488Y0083206D01*
X0058713Y0082997D01*
X0058934Y0082783D01*
X0059149Y0082564D01*
X0059359Y0082339D01*
X0059564Y0082109D01*
X0059762Y0081875D01*
X0059955Y0081635D01*
X0060142Y0081391D01*
X0060323Y0081143D01*
X0060498Y0080890D01*
X0060667Y0080633D01*
X0060829Y0080372D01*
X0060985Y0080107D01*
X0061134Y0079838D01*
X0061277Y0079566D01*
X0061413Y0079290D01*
X0061542Y0079011D01*
X0061665Y0078729D01*
X0061780Y0078444D01*
X0061888Y0078156D01*
X0061990Y0077866D01*
X0062084Y0077573D01*
X0062171Y0077278D01*
X0062251Y0076982D01*
X0062323Y0076683D01*
X0062389Y0076382D01*
X0062446Y0076080D01*
X0062497Y0075777D01*
X0062540Y0075473D01*
X0062575Y0075167D01*
X0062604Y0074861D01*
X0062624Y0074554D01*
X0062637Y0074247D01*
X0062643Y0073940D01*
X0062641Y0073632D01*
X0062631Y0073325D01*
X0062614Y0073018D01*
X0062590Y0072711D01*
X0062558Y0072406D01*
X0062518Y0072101D01*
X0062472Y0071797D01*
X0062417Y0071494D01*
X0062356Y0071193D01*
X0062287Y0070893D01*
X0062210Y0070596D01*
X0062127Y0070300D01*
X0062036Y0070006D01*
X0061938Y0069715D01*
X0061833Y0069426D01*
X0061721Y0069139D01*
X0061602Y0068856D01*
X0061476Y0068575D01*
X0061343Y0068298D01*
X0061204Y0068024D01*
X0061057Y0067754D01*
X0060905Y0067487D01*
X0060745Y0067224D01*
X0060580Y0066965D01*
X0060408Y0066710D01*
X0060230Y0066459D01*
X0060046Y0066213D01*
X0059856Y0065971D01*
X0059660Y0065734D01*
X0059458Y0065502D01*
X0059251Y0065275D01*
X0059038Y0065053D01*
X0058820Y0064837D01*
X0058596Y0064625D01*
X0058368Y0064420D01*
X0058135Y0064220D01*
X0057896Y0064025D01*
X0057653Y0063837D01*
X0057597Y0063912D01*
X0057838Y0064099D01*
X0058075Y0064292D01*
X0058306Y0064491D01*
X0058533Y0064695D01*
X0058755Y0064904D01*
X0058971Y0065119D01*
X0059182Y0065340D01*
X0059388Y0065565D01*
X0059588Y0065795D01*
X0059783Y0066031D01*
X0059971Y0066270D01*
X0060154Y0066515D01*
X0060331Y0066764D01*
X0060501Y0067017D01*
X0060666Y0067274D01*
X0060824Y0067535D01*
X0060975Y0067800D01*
X0061120Y0068068D01*
X0061259Y0068340D01*
X0061391Y0068615D01*
X0061516Y0068894D01*
X0061634Y0069175D01*
X0061745Y0069459D01*
X0061849Y0069746D01*
X0061947Y0070035D01*
X0062037Y0070327D01*
X0062120Y0070620D01*
X0062195Y0070916D01*
X0062264Y0071213D01*
X0062325Y0071512D01*
X0062379Y0071813D01*
X0062425Y0072114D01*
X0062465Y0072417D01*
X0062496Y0072720D01*
X0062521Y0073025D01*
X0062537Y0073329D01*
X0062547Y0073634D01*
X0062549Y0073939D01*
X0062543Y0074244D01*
X0062530Y0074549D01*
X0062510Y0074854D01*
X0062482Y0075158D01*
X0062447Y0075461D01*
X0062404Y0075763D01*
X0062354Y0076064D01*
X0062297Y0076364D01*
X0062232Y0076662D01*
X0062160Y0076958D01*
X0062081Y0077253D01*
X0061994Y0077546D01*
X0061901Y0077836D01*
X0061800Y0078124D01*
X0061692Y0078410D01*
X0061578Y0078693D01*
X0061456Y0078973D01*
X0061328Y0079250D01*
X0061193Y0079523D01*
X0061052Y0079793D01*
X0060903Y0080060D01*
X0060749Y0080323D01*
X0060588Y0080582D01*
X0060420Y0080838D01*
X0060247Y0081089D01*
X0060067Y0081335D01*
X0059881Y0081577D01*
X0059690Y0081815D01*
X0059493Y0082048D01*
X0059290Y0082276D01*
X0059081Y0082499D01*
X0058868Y0082717D01*
X0058649Y0082929D01*
X0058425Y0083136D01*
X0058195Y0083338D01*
X0057961Y0083534D01*
X0057723Y0083724D01*
X0057479Y0083908D01*
X0057232Y0084086D01*
X0056980Y0084258D01*
X0056723Y0084424D01*
X0056463Y0084583D01*
X0056199Y0084737D01*
X0055932Y0084883D01*
X0055661Y0085023D01*
X0055386Y0085157D01*
X0055109Y0085283D01*
X0054828Y0085403D01*
X0054544Y0085516D01*
X0054258Y0085622D01*
X0053970Y0085721D01*
X0053679Y0085813D01*
X0053385Y0085897D01*
X0053090Y0085975D01*
X0052793Y0086045D01*
X0052495Y0086108D01*
X0052195Y0086164D01*
X0051893Y0086212D01*
X0051591Y0086253D01*
X0051288Y0086286D01*
X0050984Y0086312D01*
X0050679Y0086331D01*
X0050374Y0086342D01*
X0050069Y0086346D01*
X0049764Y0086342D01*
X0049459Y0086331D01*
X0049154Y0086312D01*
X0048850Y0086286D01*
X0048547Y0086253D01*
X0048245Y0086212D01*
X0047943Y0086164D01*
X0047643Y0086108D01*
X0047345Y0086045D01*
X0047048Y0085975D01*
X0046753Y0085897D01*
X0046459Y0085813D01*
X0046168Y0085721D01*
X0045880Y0085622D01*
X0045594Y0085516D01*
X0045310Y0085403D01*
X0045029Y0085283D01*
X0044752Y0085157D01*
X0044477Y0085023D01*
X0044206Y0084883D01*
X0043939Y0084737D01*
X0043675Y0084583D01*
X0043415Y0084424D01*
X0043158Y0084258D01*
X0042906Y0084086D01*
X0042659Y0083908D01*
X0042415Y0083724D01*
X0042177Y0083534D01*
X0041943Y0083338D01*
X0041713Y0083136D01*
X0041489Y0082929D01*
X0041270Y0082717D01*
X0041057Y0082499D01*
X0040848Y0082276D01*
X0040645Y0082048D01*
X0040448Y0081815D01*
X0040257Y0081577D01*
X0040071Y0081335D01*
X0039891Y0081089D01*
X0039718Y0080838D01*
X0039550Y0080582D01*
X0039389Y0080323D01*
X0039235Y0080060D01*
X0039086Y0079793D01*
X0038945Y0079523D01*
X0038810Y0079250D01*
X0038682Y0078973D01*
X0038560Y0078693D01*
X0038446Y0078410D01*
X0038338Y0078124D01*
X0038237Y0077836D01*
X0038144Y0077546D01*
X0038057Y0077253D01*
X0037978Y0076958D01*
X0037906Y0076662D01*
X0037841Y0076364D01*
X0037784Y0076064D01*
X0037734Y0075763D01*
X0037691Y0075461D01*
X0037656Y0075158D01*
X0037628Y0074854D01*
X0037608Y0074549D01*
X0037595Y0074244D01*
X0037589Y0073939D01*
X0037591Y0073634D01*
X0037601Y0073329D01*
X0037617Y0073025D01*
X0037642Y0072720D01*
X0037673Y0072417D01*
X0037713Y0072114D01*
X0037759Y0071813D01*
X0037813Y0071512D01*
X0037874Y0071213D01*
X0037943Y0070916D01*
X0038018Y0070620D01*
X0038101Y0070327D01*
X0038191Y0070035D01*
X0038289Y0069746D01*
X0038393Y0069459D01*
X0038504Y0069175D01*
X0038622Y0068894D01*
X0038747Y0068615D01*
X0038879Y0068340D01*
X0039018Y0068068D01*
X0039163Y0067800D01*
X0039314Y0067535D01*
X0039472Y0067274D01*
X0039637Y0067017D01*
X0039807Y0066764D01*
X0039984Y0066515D01*
X0040167Y0066270D01*
X0040355Y0066031D01*
X0040550Y0065795D01*
X0040750Y0065565D01*
X0040956Y0065340D01*
X0041167Y0065119D01*
X0041383Y0064904D01*
X0041605Y0064695D01*
X0041832Y0064491D01*
X0042063Y0064292D01*
X0042300Y0064099D01*
X0042541Y0063912D01*
X0042597Y0063987D01*
X0042358Y0064173D01*
X0042123Y0064364D01*
X0041894Y0064561D01*
X0041669Y0064764D01*
X0041448Y0064972D01*
X0041234Y0065186D01*
X0041024Y0065404D01*
X0040820Y0065628D01*
X0040621Y0065856D01*
X0040428Y0066090D01*
X0040241Y0066328D01*
X0040060Y0066570D01*
X0039884Y0066817D01*
X0039715Y0067068D01*
X0039552Y0067324D01*
X0039395Y0067583D01*
X0039245Y0067846D01*
X0039101Y0068112D01*
X0038963Y0068382D01*
X0038832Y0068655D01*
X0038708Y0068931D01*
X0038591Y0069211D01*
X0038481Y0069493D01*
X0038377Y0069777D01*
X0038281Y0070064D01*
X0038191Y0070354D01*
X0038109Y0070645D01*
X0038034Y0070938D01*
X0037966Y0071234D01*
X0037905Y0071530D01*
X0037852Y0071828D01*
X0037806Y0072128D01*
X0037767Y0072428D01*
X0037735Y0072729D01*
X0037711Y0073031D01*
X0037694Y0073334D01*
X0037685Y0073636D01*
X0037683Y0073939D01*
X0037689Y0074242D01*
X0037702Y0074544D01*
X0037722Y0074847D01*
X0037750Y0075148D01*
X0037785Y0075449D01*
X0037827Y0075749D01*
X0037877Y0076048D01*
X0037934Y0076345D01*
X0037998Y0076641D01*
X0038069Y0076935D01*
X0038148Y0077228D01*
X0038234Y0077518D01*
X0038327Y0077807D01*
X0038426Y0078092D01*
X0038533Y0078376D01*
X0038647Y0078656D01*
X0038767Y0078934D01*
X0038895Y0079209D01*
X0039029Y0079481D01*
X0039169Y0079749D01*
X0039316Y0080014D01*
X0039470Y0080275D01*
X0039630Y0080532D01*
X0039796Y0080785D01*
X0039968Y0081034D01*
X0040146Y0081279D01*
X0040331Y0081520D01*
X0040521Y0081755D01*
X0040716Y0081986D01*
X0040918Y0082213D01*
X0041124Y0082434D01*
X0041337Y0082650D01*
X0041554Y0082861D01*
X0041776Y0083066D01*
X0042004Y0083266D01*
X0042236Y0083461D01*
X0042473Y0083649D01*
X0042715Y0083832D01*
X0042960Y0084009D01*
X0043211Y0084180D01*
X0043465Y0084344D01*
X0043723Y0084503D01*
X0043985Y0084655D01*
X0044250Y0084800D01*
X0044519Y0084939D01*
X0044792Y0085072D01*
X0045067Y0085197D01*
X0045346Y0085316D01*
X0045627Y0085428D01*
X0045911Y0085533D01*
X0046198Y0085632D01*
X0046487Y0085723D01*
X0046778Y0085807D01*
X0047071Y0085884D01*
X0047365Y0085953D01*
X0047662Y0086016D01*
X0047959Y0086071D01*
X0048258Y0086119D01*
X0048558Y0086160D01*
X0048860Y0086193D01*
X0049161Y0086219D01*
X0049464Y0086237D01*
X0049766Y0086248D01*
X0050069Y0086252D01*
X0050372Y0086248D01*
X0050674Y0086237D01*
X0050977Y0086219D01*
X0051278Y0086193D01*
X0051580Y0086160D01*
X0051880Y0086119D01*
X0052179Y0086071D01*
X0052476Y0086016D01*
X0052773Y0085953D01*
X0053067Y0085884D01*
X0053360Y0085807D01*
X0053651Y0085723D01*
X0053940Y0085632D01*
X0054227Y0085533D01*
X0054511Y0085428D01*
X0054792Y0085316D01*
X0055071Y0085197D01*
X0055346Y0085072D01*
X0055619Y0084939D01*
X0055888Y0084800D01*
X0056153Y0084655D01*
X0056415Y0084503D01*
X0056673Y0084344D01*
X0056927Y0084180D01*
X0057178Y0084009D01*
X0057423Y0083832D01*
X0057665Y0083649D01*
X0057902Y0083461D01*
X0058134Y0083266D01*
X0058362Y0083066D01*
X0058584Y0082861D01*
X0058801Y0082650D01*
X0059014Y0082434D01*
X0059220Y0082213D01*
X0059422Y0081986D01*
X0059617Y0081755D01*
X0059807Y0081520D01*
X0059992Y0081279D01*
X0060170Y0081034D01*
X0060342Y0080785D01*
X0060508Y0080532D01*
X0060668Y0080275D01*
X0060822Y0080014D01*
X0060969Y0079749D01*
X0061109Y0079481D01*
X0061243Y0079209D01*
X0061371Y0078934D01*
X0061491Y0078656D01*
X0061605Y0078376D01*
X0061712Y0078092D01*
X0061811Y0077807D01*
X0061904Y0077518D01*
X0061990Y0077228D01*
X0062069Y0076935D01*
X0062140Y0076641D01*
X0062204Y0076345D01*
X0062261Y0076048D01*
X0062311Y0075749D01*
X0062353Y0075449D01*
X0062388Y0075148D01*
X0062416Y0074847D01*
X0062436Y0074544D01*
X0062449Y0074242D01*
X0062455Y0073939D01*
X0062453Y0073636D01*
X0062444Y0073334D01*
X0062427Y0073031D01*
X0062403Y0072729D01*
X0062371Y0072428D01*
X0062332Y0072128D01*
X0062286Y0071828D01*
X0062233Y0071530D01*
X0062172Y0071234D01*
X0062104Y0070938D01*
X0062029Y0070645D01*
X0061947Y0070354D01*
X0061857Y0070064D01*
X0061761Y0069777D01*
X0061657Y0069493D01*
X0061547Y0069211D01*
X0061430Y0068931D01*
X0061306Y0068655D01*
X0061175Y0068382D01*
X0061037Y0068112D01*
X0060893Y0067846D01*
X0060743Y0067583D01*
X0060586Y0067324D01*
X0060423Y0067068D01*
X0060254Y0066817D01*
X0060078Y0066570D01*
X0059897Y0066328D01*
X0059710Y0066090D01*
X0059517Y0065856D01*
X0059318Y0065628D01*
X0059114Y0065404D01*
X0058904Y0065186D01*
X0058690Y0064972D01*
X0058469Y0064764D01*
X0058244Y0064561D01*
X0058015Y0064364D01*
X0057780Y0064173D01*
X0057541Y0063987D01*
X0057484Y0064062D01*
X0057722Y0064247D01*
X0057954Y0064437D01*
X0058183Y0064632D01*
X0058406Y0064833D01*
X0058624Y0065040D01*
X0058838Y0065252D01*
X0059046Y0065469D01*
X0059248Y0065691D01*
X0059445Y0065918D01*
X0059637Y0066149D01*
X0059823Y0066385D01*
X0060003Y0066626D01*
X0060177Y0066871D01*
X0060345Y0067120D01*
X0060507Y0067374D01*
X0060662Y0067631D01*
X0060811Y0067892D01*
X0060954Y0068156D01*
X0061091Y0068424D01*
X0061220Y0068695D01*
X0061343Y0068969D01*
X0061460Y0069246D01*
X0061569Y0069526D01*
X0061672Y0069809D01*
X0061768Y0070093D01*
X0061856Y0070381D01*
X0061938Y0070670D01*
X0062013Y0070961D01*
X0062080Y0071254D01*
X0062141Y0071548D01*
X0062194Y0071844D01*
X0062239Y0072141D01*
X0062278Y0072439D01*
X0062309Y0072738D01*
X0062333Y0073038D01*
X0062350Y0073338D01*
X0062359Y0073638D01*
X0062361Y0073939D01*
X0062355Y0074239D01*
X0062343Y0074540D01*
X0062322Y0074839D01*
X0062295Y0075139D01*
X0062260Y0075437D01*
X0062218Y0075735D01*
X0062169Y0076031D01*
X0062112Y0076326D01*
X0062048Y0076620D01*
X0061978Y0076912D01*
X0061900Y0077202D01*
X0061814Y0077491D01*
X0061722Y0077777D01*
X0061623Y0078061D01*
X0061517Y0078342D01*
X0061404Y0078620D01*
X0061285Y0078896D01*
X0061158Y0079169D01*
X0061025Y0079438D01*
X0060886Y0079704D01*
X0060740Y0079967D01*
X0060588Y0080226D01*
X0060429Y0080482D01*
X0060264Y0080733D01*
X0060093Y0080980D01*
X0059916Y0081223D01*
X0059733Y0081462D01*
X0059545Y0081696D01*
X0059351Y0081925D01*
X0059151Y0082149D01*
X0058946Y0082369D01*
X0058735Y0082583D01*
X0058519Y0082793D01*
X0058299Y0082997D01*
X0058073Y0083195D01*
X0057842Y0083388D01*
X0057607Y0083575D01*
X0057368Y0083757D01*
X0057124Y0083932D01*
X0056875Y0084102D01*
X0056623Y0084265D01*
X0056367Y0084422D01*
X0056107Y0084573D01*
X0055843Y0084717D01*
X0055576Y0084855D01*
X0055306Y0084987D01*
X0055033Y0085111D01*
X0054756Y0085229D01*
X0054477Y0085340D01*
X0054195Y0085445D01*
X0053911Y0085542D01*
X0053624Y0085633D01*
X0053335Y0085716D01*
X0053045Y0085792D01*
X0052752Y0085862D01*
X0052458Y0085924D01*
X0052163Y0085978D01*
X0051866Y0086026D01*
X0051568Y0086066D01*
X0051269Y0086099D01*
X0050970Y0086125D01*
X0050670Y0086143D01*
X0050370Y0086154D01*
X0050069Y0086158D01*
X0049768Y0086154D01*
X0049468Y0086143D01*
X0049168Y0086125D01*
X0048869Y0086099D01*
X0048570Y0086066D01*
X0048272Y0086026D01*
X0047975Y0085978D01*
X0047680Y0085924D01*
X0047386Y0085862D01*
X0047093Y0085792D01*
X0046803Y0085716D01*
X0046514Y0085633D01*
X0046227Y0085542D01*
X0045943Y0085445D01*
X0045661Y0085340D01*
X0045382Y0085229D01*
X0045105Y0085111D01*
X0044832Y0084987D01*
X0044562Y0084855D01*
X0044295Y0084717D01*
X0044031Y0084573D01*
X0043771Y0084422D01*
X0043515Y0084265D01*
X0043263Y0084102D01*
X0043014Y0083932D01*
X0042770Y0083757D01*
X0042531Y0083575D01*
X0042296Y0083388D01*
X0042065Y0083195D01*
X0041839Y0082997D01*
X0041619Y0082793D01*
X0041403Y0082583D01*
X0041192Y0082369D01*
X0040987Y0082149D01*
X0040787Y0081925D01*
X0040593Y0081696D01*
X0040405Y0081462D01*
X0040222Y0081223D01*
X0040045Y0080980D01*
X0039874Y0080733D01*
X0039709Y0080482D01*
X0039550Y0080226D01*
X0039398Y0079967D01*
X0039252Y0079704D01*
X0039113Y0079438D01*
X0038980Y0079169D01*
X0038853Y0078896D01*
X0038734Y0078620D01*
X0038621Y0078342D01*
X0038515Y0078061D01*
X0038416Y0077777D01*
X0038324Y0077491D01*
X0038238Y0077202D01*
X0038160Y0076912D01*
X0038090Y0076620D01*
X0038026Y0076326D01*
X0037969Y0076031D01*
X0037920Y0075735D01*
X0037878Y0075437D01*
X0037843Y0075139D01*
X0037816Y0074839D01*
X0037795Y0074540D01*
X0037783Y0074239D01*
X0037777Y0073939D01*
X0037779Y0073638D01*
X0037788Y0073338D01*
X0037805Y0073038D01*
X0037829Y0072738D01*
X0037860Y0072439D01*
X0037899Y0072141D01*
X0037944Y0071844D01*
X0037997Y0071548D01*
X0038058Y0071254D01*
X0038125Y0070961D01*
X0038200Y0070670D01*
X0038282Y0070381D01*
X0038370Y0070093D01*
X0038466Y0069809D01*
X0038569Y0069526D01*
X0038678Y0069246D01*
X0038795Y0068969D01*
X0038918Y0068695D01*
X0039047Y0068424D01*
X0039184Y0068156D01*
X0039327Y0067892D01*
X0039476Y0067631D01*
X0039631Y0067374D01*
X0039793Y0067120D01*
X0039961Y0066871D01*
X0040135Y0066626D01*
X0040315Y0066385D01*
X0040501Y0066149D01*
X0040693Y0065918D01*
X0040890Y0065691D01*
X0041092Y0065469D01*
X0041300Y0065252D01*
X0041514Y0065040D01*
X0041732Y0064833D01*
X0041955Y0064632D01*
X0042184Y0064437D01*
X0042416Y0064247D01*
X0042654Y0064062D01*
X0042710Y0064138D01*
X0042475Y0064320D01*
X0042244Y0064509D01*
X0042017Y0064703D01*
X0041795Y0064903D01*
X0041579Y0065108D01*
X0041367Y0065318D01*
X0041161Y0065533D01*
X0040960Y0065753D01*
X0040764Y0065979D01*
X0040574Y0066208D01*
X0040390Y0066443D01*
X0040211Y0066682D01*
X0040038Y0066925D01*
X0039872Y0067172D01*
X0039711Y0067424D01*
X0039557Y0067679D01*
X0039409Y0067938D01*
X0039267Y0068200D01*
X0039132Y0068466D01*
X0039003Y0068735D01*
X0038881Y0069007D01*
X0038765Y0069282D01*
X0038656Y0069560D01*
X0038555Y0069840D01*
X0038460Y0070123D01*
X0038372Y0070408D01*
X0038291Y0070695D01*
X0038216Y0070983D01*
X0038150Y0071274D01*
X0038090Y0071566D01*
X0038037Y0071860D01*
X0037992Y0072155D01*
X0037953Y0072450D01*
X0037922Y0072747D01*
X0037899Y0073044D01*
X0037882Y0073342D01*
X0037873Y0073640D01*
X0037871Y0073938D01*
X0037877Y0074237D01*
X0037889Y0074535D01*
X0037909Y0074832D01*
X0037937Y0075129D01*
X0037971Y0075425D01*
X0038013Y0075721D01*
X0038062Y0076015D01*
X0038118Y0076308D01*
X0038181Y0076599D01*
X0038252Y0076889D01*
X0038329Y0077177D01*
X0038413Y0077463D01*
X0038505Y0077747D01*
X0038603Y0078029D01*
X0038708Y0078308D01*
X0038820Y0078584D01*
X0038939Y0078858D01*
X0039064Y0079128D01*
X0039196Y0079396D01*
X0039335Y0079660D01*
X0039480Y0079921D01*
X0039631Y0080178D01*
X0039788Y0080431D01*
X0039952Y0080680D01*
X0040122Y0080926D01*
X0040297Y0081167D01*
X0040479Y0081404D01*
X0040666Y0081636D01*
X0040858Y0081863D01*
X0041057Y0082086D01*
X0041260Y0082304D01*
X0041469Y0082517D01*
X0041683Y0082725D01*
X0041903Y0082927D01*
X0042126Y0083124D01*
X0042355Y0083315D01*
X0042589Y0083501D01*
X0042826Y0083681D01*
X0043068Y0083855D01*
X0043315Y0084023D01*
X0043565Y0084185D01*
X0043819Y0084341D01*
X0044077Y0084491D01*
X0044339Y0084634D01*
X0044604Y0084771D01*
X0044872Y0084902D01*
X0045143Y0085025D01*
X0045418Y0085142D01*
X0045695Y0085253D01*
X0045975Y0085356D01*
X0046257Y0085453D01*
X0046541Y0085543D01*
X0046828Y0085625D01*
X0047116Y0085701D01*
X0047406Y0085770D01*
X0047698Y0085831D01*
X0047991Y0085886D01*
X0048286Y0085933D01*
X0048581Y0085973D01*
X0048878Y0086006D01*
X0049175Y0086031D01*
X0049473Y0086049D01*
X0049771Y0086060D01*
X0050069Y0086064D01*
X0050367Y0086060D01*
X0050665Y0086049D01*
X0050963Y0086031D01*
X0051260Y0086006D01*
X0051557Y0085973D01*
X0051852Y0085933D01*
X0052147Y0085886D01*
X0052440Y0085831D01*
X0052732Y0085770D01*
X0053022Y0085701D01*
X0053310Y0085625D01*
X0053597Y0085543D01*
X0053881Y0085453D01*
X0054163Y0085356D01*
X0054443Y0085253D01*
X0054720Y0085142D01*
X0054995Y0085025D01*
X0055266Y0084902D01*
X0055534Y0084771D01*
X0055799Y0084634D01*
X0056061Y0084491D01*
X0056319Y0084341D01*
X0056573Y0084185D01*
X0056823Y0084023D01*
X0057070Y0083855D01*
X0057312Y0083681D01*
X0057549Y0083501D01*
X0057783Y0083315D01*
X0058012Y0083124D01*
X0058235Y0082927D01*
X0058455Y0082725D01*
X0058669Y0082517D01*
X0058878Y0082304D01*
X0059081Y0082086D01*
X0059280Y0081863D01*
X0059472Y0081636D01*
X0059659Y0081404D01*
X0059841Y0081167D01*
X0060016Y0080926D01*
X0060186Y0080680D01*
X0060350Y0080431D01*
X0060507Y0080178D01*
X0060658Y0079921D01*
X0060803Y0079660D01*
X0060942Y0079396D01*
X0061074Y0079128D01*
X0061199Y0078858D01*
X0061318Y0078584D01*
X0061430Y0078308D01*
X0061535Y0078029D01*
X0061633Y0077747D01*
X0061725Y0077463D01*
X0061809Y0077177D01*
X0061886Y0076889D01*
X0061957Y0076599D01*
X0062020Y0076308D01*
X0062076Y0076015D01*
X0062125Y0075721D01*
X0062167Y0075425D01*
X0062201Y0075129D01*
X0062229Y0074832D01*
X0062249Y0074535D01*
X0062261Y0074237D01*
X0062267Y0073938D01*
X0062265Y0073640D01*
X0062256Y0073342D01*
X0062239Y0073044D01*
X0062216Y0072747D01*
X0062185Y0072450D01*
X0062146Y0072155D01*
X0062101Y0071860D01*
X0062048Y0071566D01*
X0061988Y0071274D01*
X0061922Y0070983D01*
X0061847Y0070695D01*
X0061766Y0070408D01*
X0061678Y0070123D01*
X0061583Y0069840D01*
X0061482Y0069560D01*
X0061373Y0069282D01*
X0061257Y0069007D01*
X0061135Y0068735D01*
X0061006Y0068466D01*
X0060871Y0068200D01*
X0060729Y0067938D01*
X0060581Y0067679D01*
X0060427Y0067424D01*
X0060266Y0067172D01*
X0060100Y0066925D01*
X0059927Y0066682D01*
X0059748Y0066443D01*
X0059564Y0066208D01*
X0059374Y0065979D01*
X0059178Y0065753D01*
X0058977Y0065533D01*
X0058771Y0065318D01*
X0058559Y0065108D01*
X0058343Y0064903D01*
X0058121Y0064703D01*
X0057894Y0064509D01*
X0057663Y0064320D01*
X0057428Y0064138D01*
X0057371Y0064213D01*
X0057605Y0064394D01*
X0057834Y0064581D01*
X0058059Y0064774D01*
X0058279Y0064972D01*
X0058494Y0065175D01*
X0058704Y0065384D01*
X0058909Y0065598D01*
X0059108Y0065816D01*
X0059302Y0066040D01*
X0059491Y0066268D01*
X0059674Y0066500D01*
X0059851Y0066737D01*
X0060022Y0066979D01*
X0060188Y0067224D01*
X0060347Y0067473D01*
X0060500Y0067727D01*
X0060647Y0067983D01*
X0060788Y0068244D01*
X0060922Y0068508D01*
X0061050Y0068775D01*
X0061171Y0069045D01*
X0061286Y0069317D01*
X0061394Y0069593D01*
X0061495Y0069871D01*
X0061589Y0070152D01*
X0061676Y0070434D01*
X0061757Y0070719D01*
X0061830Y0071006D01*
X0061897Y0071294D01*
X0061956Y0071584D01*
X0062008Y0071876D01*
X0062053Y0072168D01*
X0062091Y0072462D01*
X0062122Y0072756D01*
X0062146Y0073051D01*
X0062162Y0073346D01*
X0062171Y0073642D01*
X0062173Y0073938D01*
X0062167Y0074234D01*
X0062155Y0074530D01*
X0062135Y0074825D01*
X0062108Y0075120D01*
X0062074Y0075414D01*
X0062032Y0075707D01*
X0061984Y0075999D01*
X0061928Y0076289D01*
X0061865Y0076578D01*
X0061795Y0076866D01*
X0061718Y0077152D01*
X0061635Y0077436D01*
X0061544Y0077717D01*
X0061446Y0077997D01*
X0061342Y0078274D01*
X0061231Y0078548D01*
X0061113Y0078819D01*
X0060989Y0079088D01*
X0060858Y0079353D01*
X0060720Y0079615D01*
X0060577Y0079874D01*
X0060427Y0080129D01*
X0060270Y0080381D01*
X0060108Y0080628D01*
X0059940Y0080871D01*
X0059765Y0081111D01*
X0059585Y0081346D01*
X0059400Y0081576D01*
X0059208Y0081802D01*
X0059012Y0082023D01*
X0058810Y0082239D01*
X0058602Y0082450D01*
X0058390Y0082656D01*
X0058172Y0082857D01*
X0057950Y0083053D01*
X0057723Y0083243D01*
X0057492Y0083427D01*
X0057256Y0083605D01*
X0057016Y0083778D01*
X0056771Y0083945D01*
X0056523Y0084106D01*
X0056270Y0084261D01*
X0056014Y0084409D01*
X0055755Y0084551D01*
X0055492Y0084687D01*
X0055226Y0084817D01*
X0054957Y0084939D01*
X0054684Y0085056D01*
X0054409Y0085165D01*
X0054132Y0085268D01*
X0053852Y0085364D01*
X0053570Y0085453D01*
X0053285Y0085535D01*
X0052999Y0085610D01*
X0052711Y0085678D01*
X0052422Y0085739D01*
X0052131Y0085793D01*
X0051838Y0085840D01*
X0051545Y0085880D01*
X0051251Y0085912D01*
X0050956Y0085937D01*
X0050661Y0085956D01*
X0050365Y0085966D01*
X0050069Y0085970D01*
X0049773Y0085966D01*
X0049477Y0085956D01*
X0049182Y0085937D01*
X0048887Y0085912D01*
X0048593Y0085880D01*
X0048300Y0085840D01*
X0048007Y0085793D01*
X0047716Y0085739D01*
X0047427Y0085678D01*
X0047139Y0085610D01*
X0046853Y0085535D01*
X0046568Y0085453D01*
X0046286Y0085364D01*
X0046006Y0085268D01*
X0045729Y0085165D01*
X0045454Y0085056D01*
X0045181Y0084939D01*
X0044912Y0084817D01*
X0044646Y0084687D01*
X0044383Y0084551D01*
X0044124Y0084409D01*
X0043868Y0084261D01*
X0043615Y0084106D01*
X0043367Y0083945D01*
X0043122Y0083778D01*
X0042882Y0083605D01*
X0042646Y0083427D01*
X0042415Y0083243D01*
X0042188Y0083053D01*
X0041966Y0082857D01*
X0041748Y0082656D01*
X0041536Y0082450D01*
X0041328Y0082239D01*
X0041126Y0082023D01*
X0040930Y0081802D01*
X0040738Y0081576D01*
X0040553Y0081346D01*
X0040373Y0081111D01*
X0040198Y0080871D01*
X0040030Y0080628D01*
X0039868Y0080381D01*
X0039711Y0080129D01*
X0039561Y0079874D01*
X0039418Y0079615D01*
X0039280Y0079353D01*
X0039149Y0079088D01*
X0039025Y0078819D01*
X0038907Y0078548D01*
X0038796Y0078274D01*
X0038692Y0077997D01*
X0038594Y0077717D01*
X0038503Y0077436D01*
X0038420Y0077152D01*
X0038343Y0076866D01*
X0038273Y0076578D01*
X0038210Y0076289D01*
X0038154Y0075999D01*
X0038106Y0075707D01*
X0038064Y0075414D01*
X0038030Y0075120D01*
X0038003Y0074825D01*
X0037983Y0074530D01*
X0037971Y0074234D01*
X0037965Y0073938D01*
X0037967Y0073642D01*
X0037976Y0073346D01*
X0037992Y0073051D01*
X0038016Y0072756D01*
X0038047Y0072462D01*
X0038085Y0072168D01*
X0038130Y0071876D01*
X0038182Y0071584D01*
X0038241Y0071294D01*
X0038308Y0071006D01*
X0038381Y0070719D01*
X0038462Y0070434D01*
X0038549Y0070152D01*
X0038643Y0069871D01*
X0038744Y0069593D01*
X0038852Y0069317D01*
X0038967Y0069045D01*
X0039088Y0068775D01*
X0039216Y0068508D01*
X0039350Y0068244D01*
X0039491Y0067983D01*
X0039638Y0067727D01*
X0039791Y0067473D01*
X0039950Y0067224D01*
X0040116Y0066979D01*
X0040287Y0066737D01*
X0040464Y0066500D01*
X0040647Y0066268D01*
X0040836Y0066040D01*
X0041030Y0065816D01*
X0041229Y0065598D01*
X0041434Y0065384D01*
X0041644Y0065175D01*
X0041859Y0064972D01*
X0042079Y0064774D01*
X0042304Y0064581D01*
X0042533Y0064394D01*
X0042767Y0064213D01*
D15*
X0040069Y0073866D02*
X0040072Y0074111D01*
X0040081Y0074357D01*
X0040096Y0074602D01*
X0040117Y0074846D01*
X0040144Y0075090D01*
X0040177Y0075333D01*
X0040216Y0075576D01*
X0040261Y0075817D01*
X0040312Y0076057D01*
X0040369Y0076296D01*
X0040431Y0076533D01*
X0040500Y0076769D01*
X0040574Y0077003D01*
X0040654Y0077235D01*
X0040739Y0077465D01*
X0040830Y0077693D01*
X0040927Y0077918D01*
X0041029Y0078142D01*
X0041137Y0078362D01*
X0041250Y0078580D01*
X0041368Y0078795D01*
X0041492Y0079007D01*
X0041620Y0079216D01*
X0041754Y0079422D01*
X0041893Y0079624D01*
X0042037Y0079823D01*
X0042186Y0080018D01*
X0042339Y0080210D01*
X0042497Y0080398D01*
X0042659Y0080582D01*
X0042827Y0080761D01*
X0042998Y0080937D01*
X0043174Y0081108D01*
X0043353Y0081276D01*
X0043537Y0081438D01*
X0043725Y0081596D01*
X0043917Y0081749D01*
X0044112Y0081898D01*
X0044311Y0082042D01*
X0044513Y0082181D01*
X0044719Y0082315D01*
X0044928Y0082443D01*
X0045140Y0082567D01*
X0045355Y0082685D01*
X0045573Y0082798D01*
X0045793Y0082906D01*
X0046017Y0083008D01*
X0046242Y0083105D01*
X0046470Y0083196D01*
X0046700Y0083281D01*
X0046932Y0083361D01*
X0047166Y0083435D01*
X0047402Y0083504D01*
X0047639Y0083566D01*
X0047878Y0083623D01*
X0048118Y0083674D01*
X0048359Y0083719D01*
X0048602Y0083758D01*
X0048845Y0083791D01*
X0049089Y0083818D01*
X0049333Y0083839D01*
X0049578Y0083854D01*
X0049824Y0083863D01*
X0050069Y0083866D01*
X0050314Y0083863D01*
X0050560Y0083854D01*
X0050805Y0083839D01*
X0051049Y0083818D01*
X0051293Y0083791D01*
X0051536Y0083758D01*
X0051779Y0083719D01*
X0052020Y0083674D01*
X0052260Y0083623D01*
X0052499Y0083566D01*
X0052736Y0083504D01*
X0052972Y0083435D01*
X0053206Y0083361D01*
X0053438Y0083281D01*
X0053668Y0083196D01*
X0053896Y0083105D01*
X0054121Y0083008D01*
X0054345Y0082906D01*
X0054565Y0082798D01*
X0054783Y0082685D01*
X0054998Y0082567D01*
X0055210Y0082443D01*
X0055419Y0082315D01*
X0055625Y0082181D01*
X0055827Y0082042D01*
X0056026Y0081898D01*
X0056221Y0081749D01*
X0056413Y0081596D01*
X0056601Y0081438D01*
X0056785Y0081276D01*
X0056964Y0081108D01*
X0057140Y0080937D01*
X0057311Y0080761D01*
X0057479Y0080582D01*
X0057641Y0080398D01*
X0057799Y0080210D01*
X0057952Y0080018D01*
X0058101Y0079823D01*
X0058245Y0079624D01*
X0058384Y0079422D01*
X0058518Y0079216D01*
X0058646Y0079007D01*
X0058770Y0078795D01*
X0058888Y0078580D01*
X0059001Y0078362D01*
X0059109Y0078142D01*
X0059211Y0077918D01*
X0059308Y0077693D01*
X0059399Y0077465D01*
X0059484Y0077235D01*
X0059564Y0077003D01*
X0059638Y0076769D01*
X0059707Y0076533D01*
X0059769Y0076296D01*
X0059826Y0076057D01*
X0059877Y0075817D01*
X0059922Y0075576D01*
X0059961Y0075333D01*
X0059994Y0075090D01*
X0060021Y0074846D01*
X0060042Y0074602D01*
X0060057Y0074357D01*
X0060066Y0074111D01*
X0060069Y0073866D01*
X0060066Y0073621D01*
X0060057Y0073375D01*
X0060042Y0073130D01*
X0060021Y0072886D01*
X0059994Y0072642D01*
X0059961Y0072399D01*
X0059922Y0072156D01*
X0059877Y0071915D01*
X0059826Y0071675D01*
X0059769Y0071436D01*
X0059707Y0071199D01*
X0059638Y0070963D01*
X0059564Y0070729D01*
X0059484Y0070497D01*
X0059399Y0070267D01*
X0059308Y0070039D01*
X0059211Y0069814D01*
X0059109Y0069590D01*
X0059001Y0069370D01*
X0058888Y0069152D01*
X0058770Y0068937D01*
X0058646Y0068725D01*
X0058518Y0068516D01*
X0058384Y0068310D01*
X0058245Y0068108D01*
X0058101Y0067909D01*
X0057952Y0067714D01*
X0057799Y0067522D01*
X0057641Y0067334D01*
X0057479Y0067150D01*
X0057311Y0066971D01*
X0057140Y0066795D01*
X0056964Y0066624D01*
X0056785Y0066456D01*
X0056601Y0066294D01*
X0056413Y0066136D01*
X0056221Y0065983D01*
X0056026Y0065834D01*
X0055827Y0065690D01*
X0055625Y0065551D01*
X0055419Y0065417D01*
X0055210Y0065289D01*
X0054998Y0065165D01*
X0054783Y0065047D01*
X0054565Y0064934D01*
X0054345Y0064826D01*
X0054121Y0064724D01*
X0053896Y0064627D01*
X0053668Y0064536D01*
X0053438Y0064451D01*
X0053206Y0064371D01*
X0052972Y0064297D01*
X0052736Y0064228D01*
X0052499Y0064166D01*
X0052260Y0064109D01*
X0052020Y0064058D01*
X0051779Y0064013D01*
X0051536Y0063974D01*
X0051293Y0063941D01*
X0051049Y0063914D01*
X0050805Y0063893D01*
X0050560Y0063878D01*
X0050314Y0063869D01*
X0050069Y0063866D01*
X0049824Y0063869D01*
X0049578Y0063878D01*
X0049333Y0063893D01*
X0049089Y0063914D01*
X0048845Y0063941D01*
X0048602Y0063974D01*
X0048359Y0064013D01*
X0048118Y0064058D01*
X0047878Y0064109D01*
X0047639Y0064166D01*
X0047402Y0064228D01*
X0047166Y0064297D01*
X0046932Y0064371D01*
X0046700Y0064451D01*
X0046470Y0064536D01*
X0046242Y0064627D01*
X0046017Y0064724D01*
X0045793Y0064826D01*
X0045573Y0064934D01*
X0045355Y0065047D01*
X0045140Y0065165D01*
X0044928Y0065289D01*
X0044719Y0065417D01*
X0044513Y0065551D01*
X0044311Y0065690D01*
X0044112Y0065834D01*
X0043917Y0065983D01*
X0043725Y0066136D01*
X0043537Y0066294D01*
X0043353Y0066456D01*
X0043174Y0066624D01*
X0042998Y0066795D01*
X0042827Y0066971D01*
X0042659Y0067150D01*
X0042497Y0067334D01*
X0042339Y0067522D01*
X0042186Y0067714D01*
X0042037Y0067909D01*
X0041893Y0068108D01*
X0041754Y0068310D01*
X0041620Y0068516D01*
X0041492Y0068725D01*
X0041368Y0068937D01*
X0041250Y0069152D01*
X0041137Y0069370D01*
X0041029Y0069590D01*
X0040927Y0069814D01*
X0040830Y0070039D01*
X0040739Y0070267D01*
X0040654Y0070497D01*
X0040574Y0070729D01*
X0040500Y0070963D01*
X0040431Y0071199D01*
X0040369Y0071436D01*
X0040312Y0071675D01*
X0040261Y0071915D01*
X0040216Y0072156D01*
X0040177Y0072399D01*
X0040144Y0072642D01*
X0040117Y0072886D01*
X0040096Y0073130D01*
X0040081Y0073375D01*
X0040072Y0073621D01*
X0040069Y0073866D01*
D16*
X0040817Y0043748D02*
X0043179Y0043748D01*
X0043179Y0035283D01*
X0034124Y0043748D02*
X0031762Y0043748D01*
X0031762Y0035283D01*
D17*
X0027627Y0038319D02*
X0027627Y0040254D01*
X0027627Y0039286D02*
X0024724Y0039286D01*
X0025692Y0038319D01*
X0026659Y0041265D02*
X0025692Y0042717D01*
X0026659Y0041265D02*
X0027627Y0042717D01*
X0027627Y0041265D02*
X0024724Y0041265D01*
X0030942Y0026778D02*
X0030942Y0024843D01*
X0029974Y0025811D02*
X0031909Y0025811D01*
X0032921Y0025811D02*
X0034372Y0025811D01*
X0034856Y0025327D01*
X0034856Y0024843D01*
X0034372Y0024359D01*
X0032921Y0024359D01*
X0032921Y0027262D01*
X0034372Y0027262D01*
X0034856Y0026778D01*
X0034856Y0026294D01*
X0034372Y0025811D01*
X0035868Y0025811D02*
X0037803Y0025811D01*
X0037803Y0026294D02*
X0037803Y0024359D01*
X0037803Y0026294D02*
X0036835Y0027262D01*
X0035868Y0026294D01*
X0035868Y0024359D01*
X0038814Y0027262D02*
X0040749Y0027262D01*
X0039782Y0027262D02*
X0039782Y0024359D01*
X0041761Y0025811D02*
X0043696Y0025811D01*
M02*
