%
M48
M72
T01C0.01200
T02C0.02362
T03C0.03200
T04C0.03600
T05C0.03937
T06C0.04724
%
T01
X74478Y101425
X48888Y91583
X27234Y62055
X21329Y99457
X15423Y64024
X58730Y83709
X46919Y38433
X60699Y18748
X56762Y89614
X29203Y75835
X35108Y77803
X48888Y95520
X19360Y87646
X46919Y34496
X50856Y56150
X68573Y24654
X50856Y62055
X29203Y34496
X41014Y24654
X74478Y48276
X64636Y54181
X33140Y48276
T02
X20148Y36071
X20148Y43945
X20148Y28197
T03
X50069Y78866
X50069Y68866
T04
X41801Y19142
X33927Y19142
T05
X64636Y15205
X64636Y32528
T06
X20148Y18748
X20148Y53394
M30
