G75*
%MOIN*%
%OFA0B0*%
%FSLAX25Y25*%
%IPPOS*%
%LPD*%
%AMOC8*
5,1,8,0,0,1.08239X$1,22.5*
%
%ADD10C,0.00000*%
%ADD11C,0.01772*%
%ADD12C,0.04362*%
%ADD13C,0.07087*%
%ADD14R,0.09449X0.07874*%
%ADD15R,0.09087X0.01969*%
%ADD16OC8,0.06600*%
%ADD17R,0.05906X0.06299*%
%ADD18R,0.04724X0.04724*%
%ADD19R,0.05600X0.05600*%
%ADD20C,0.05600*%
%ADD21C,0.00800*%
%ADD22C,0.02400*%
D10*
X0016292Y0013630D02*
X0043885Y0013630D01*
X0043986Y0013628D01*
X0044087Y0013622D01*
X0044188Y0013613D01*
X0044288Y0013599D01*
X0044388Y0013582D01*
X0044487Y0013561D01*
X0044585Y0013536D01*
X0044682Y0013507D01*
X0044778Y0013475D01*
X0044872Y0013439D01*
X0044965Y0013399D01*
X0045057Y0013356D01*
X0045147Y0013309D01*
X0045235Y0013259D01*
X0045321Y0013206D01*
X0045404Y0013149D01*
X0045486Y0013089D01*
X0045565Y0013027D01*
X0045642Y0012961D01*
X0045716Y0012892D01*
X0045788Y0012820D01*
X0045857Y0012746D01*
X0045923Y0012669D01*
X0045985Y0012590D01*
X0046045Y0012508D01*
X0046102Y0012425D01*
X0046155Y0012339D01*
X0046205Y0012251D01*
X0046252Y0012161D01*
X0046295Y0012069D01*
X0046335Y0011976D01*
X0046371Y0011882D01*
X0046403Y0011786D01*
X0046432Y0011689D01*
X0046457Y0011591D01*
X0046478Y0011492D01*
X0046495Y0011392D01*
X0046509Y0011292D01*
X0046518Y0011191D01*
X0046524Y0011090D01*
X0046526Y0010989D01*
X0046526Y0003552D01*
X0046525Y0003552D02*
X0046527Y0003453D01*
X0046533Y0003354D01*
X0046542Y0003256D01*
X0046556Y0003158D01*
X0046573Y0003060D01*
X0046595Y0002963D01*
X0046620Y0002868D01*
X0046648Y0002773D01*
X0046681Y0002679D01*
X0046717Y0002587D01*
X0046757Y0002497D01*
X0046800Y0002407D01*
X0046846Y0002320D01*
X0046896Y0002235D01*
X0046950Y0002151D01*
X0047006Y0002070D01*
X0047066Y0001991D01*
X0047129Y0001915D01*
X0047195Y0001841D01*
X0047263Y0001769D01*
X0047335Y0001701D01*
X0047409Y0001635D01*
X0047485Y0001572D01*
X0047564Y0001512D01*
X0047645Y0001456D01*
X0047729Y0001402D01*
X0047814Y0001352D01*
X0047901Y0001306D01*
X0047991Y0001263D01*
X0048081Y0001223D01*
X0048173Y0001187D01*
X0048267Y0001154D01*
X0048362Y0001126D01*
X0048457Y0001101D01*
X0048554Y0001079D01*
X0048652Y0001062D01*
X0048750Y0001048D01*
X0048848Y0001039D01*
X0048947Y0001033D01*
X0049046Y0001031D01*
X0082588Y0001031D01*
X0082714Y0001045D01*
X0082839Y0001063D01*
X0082964Y0001085D01*
X0083088Y0001110D01*
X0083211Y0001140D01*
X0083333Y0001173D01*
X0083455Y0001210D01*
X0083575Y0001251D01*
X0083693Y0001295D01*
X0083811Y0001343D01*
X0083926Y0001395D01*
X0084040Y0001450D01*
X0084153Y0001508D01*
X0084263Y0001570D01*
X0084372Y0001636D01*
X0084478Y0001704D01*
X0084583Y0001776D01*
X0084685Y0001852D01*
X0084784Y0001930D01*
X0084881Y0002011D01*
X0084976Y0002095D01*
X0085068Y0002182D01*
X0085157Y0002272D01*
X0085244Y0002365D01*
X0085327Y0002460D01*
X0085408Y0002558D01*
X0085486Y0002658D01*
X0085560Y0002761D01*
X0085631Y0002865D01*
X0085699Y0002972D01*
X0085764Y0003081D01*
X0085825Y0003192D01*
X0085883Y0003305D01*
X0085937Y0003419D01*
X0085988Y0003535D01*
X0086035Y0003653D01*
X0086079Y0003772D01*
X0086119Y0003892D01*
X0086155Y0004014D01*
X0086187Y0004136D01*
X0086216Y0004260D01*
X0086241Y0004384D01*
X0086261Y0004509D01*
X0086279Y0004635D01*
X0086292Y0004761D01*
X0086301Y0004887D01*
X0086306Y0005013D01*
X0086308Y0005140D01*
X0086306Y0005267D01*
X0086299Y0005393D01*
X0086289Y0005520D01*
X0086289Y0097463D01*
X0086287Y0097624D01*
X0086281Y0097786D01*
X0086271Y0097947D01*
X0086258Y0098108D01*
X0086240Y0098268D01*
X0086219Y0098428D01*
X0086194Y0098587D01*
X0086165Y0098746D01*
X0086132Y0098904D01*
X0086095Y0099061D01*
X0086054Y0099218D01*
X0086010Y0099373D01*
X0085962Y0099527D01*
X0085910Y0099680D01*
X0085855Y0099831D01*
X0085796Y0099982D01*
X0085733Y0100130D01*
X0085667Y0100278D01*
X0085597Y0100423D01*
X0085524Y0100567D01*
X0085447Y0100709D01*
X0085367Y0100849D01*
X0085284Y0100987D01*
X0085197Y0101123D01*
X0085107Y0101257D01*
X0085013Y0101389D01*
X0084917Y0101518D01*
X0084817Y0101645D01*
X0084715Y0101770D01*
X0084609Y0101892D01*
X0084501Y0102012D01*
X0084389Y0102128D01*
X0084275Y0102242D01*
X0084159Y0102354D01*
X0084039Y0102462D01*
X0083917Y0102568D01*
X0083792Y0102670D01*
X0083665Y0102770D01*
X0083536Y0102866D01*
X0083404Y0102960D01*
X0083270Y0103050D01*
X0083134Y0103137D01*
X0082996Y0103220D01*
X0082856Y0103300D01*
X0082714Y0103377D01*
X0082570Y0103450D01*
X0082425Y0103520D01*
X0082277Y0103586D01*
X0082129Y0103649D01*
X0081978Y0103708D01*
X0081827Y0103763D01*
X0081674Y0103815D01*
X0081520Y0103863D01*
X0081365Y0103907D01*
X0081208Y0103948D01*
X0081051Y0103985D01*
X0080893Y0104018D01*
X0080734Y0104047D01*
X0080575Y0104072D01*
X0080415Y0104093D01*
X0080255Y0104111D01*
X0080094Y0104124D01*
X0079933Y0104134D01*
X0079771Y0104140D01*
X0079610Y0104142D01*
X0018866Y0104142D01*
X0018866Y0104141D02*
X0018688Y0104139D01*
X0018509Y0104132D01*
X0018331Y0104122D01*
X0018154Y0104107D01*
X0017976Y0104087D01*
X0017800Y0104064D01*
X0017624Y0104036D01*
X0017448Y0104004D01*
X0017274Y0103967D01*
X0017100Y0103927D01*
X0016927Y0103882D01*
X0016756Y0103833D01*
X0016585Y0103780D01*
X0016417Y0103723D01*
X0016249Y0103661D01*
X0016083Y0103596D01*
X0015919Y0103527D01*
X0015756Y0103454D01*
X0015595Y0103377D01*
X0015436Y0103296D01*
X0015279Y0103211D01*
X0015125Y0103122D01*
X0014972Y0103030D01*
X0014822Y0102934D01*
X0014674Y0102835D01*
X0014528Y0102732D01*
X0014385Y0102625D01*
X0014245Y0102515D01*
X0014107Y0102402D01*
X0013972Y0102285D01*
X0013840Y0102165D01*
X0013711Y0102042D01*
X0013585Y0101916D01*
X0013462Y0101787D01*
X0013342Y0101655D01*
X0013225Y0101520D01*
X0013112Y0101382D01*
X0013002Y0101242D01*
X0012895Y0101099D01*
X0012792Y0100953D01*
X0012693Y0100805D01*
X0012597Y0100655D01*
X0012505Y0100502D01*
X0012416Y0100348D01*
X0012331Y0100191D01*
X0012250Y0100032D01*
X0012173Y0099871D01*
X0012100Y0099708D01*
X0012031Y0099544D01*
X0011966Y0099378D01*
X0011904Y0099210D01*
X0011847Y0099042D01*
X0011794Y0098871D01*
X0011745Y0098700D01*
X0011700Y0098527D01*
X0011660Y0098353D01*
X0011623Y0098179D01*
X0011591Y0098003D01*
X0011563Y0097827D01*
X0011540Y0097651D01*
X0011520Y0097473D01*
X0011505Y0097296D01*
X0011495Y0097118D01*
X0011488Y0096939D01*
X0011486Y0096761D01*
X0011486Y0018436D01*
X0011488Y0018299D01*
X0011494Y0018162D01*
X0011504Y0018025D01*
X0011517Y0017888D01*
X0011535Y0017752D01*
X0011556Y0017616D01*
X0011582Y0017482D01*
X0011611Y0017347D01*
X0011644Y0017214D01*
X0011681Y0017082D01*
X0011721Y0016951D01*
X0011765Y0016821D01*
X0011813Y0016692D01*
X0011865Y0016565D01*
X0011920Y0016440D01*
X0011979Y0016315D01*
X0012041Y0016193D01*
X0012107Y0016073D01*
X0012176Y0015954D01*
X0012249Y0015838D01*
X0012325Y0015723D01*
X0012404Y0015611D01*
X0012486Y0015501D01*
X0012571Y0015394D01*
X0012660Y0015289D01*
X0012751Y0015186D01*
X0012845Y0015087D01*
X0012943Y0014989D01*
X0013042Y0014895D01*
X0013145Y0014804D01*
X0013250Y0014715D01*
X0013357Y0014630D01*
X0013467Y0014548D01*
X0013579Y0014469D01*
X0013694Y0014393D01*
X0013810Y0014320D01*
X0013929Y0014251D01*
X0014049Y0014185D01*
X0014171Y0014123D01*
X0014296Y0014064D01*
X0014421Y0014009D01*
X0014548Y0013957D01*
X0014677Y0013909D01*
X0014807Y0013865D01*
X0014938Y0013825D01*
X0015070Y0013788D01*
X0015203Y0013755D01*
X0015338Y0013726D01*
X0015472Y0013700D01*
X0015608Y0013679D01*
X0015744Y0013661D01*
X0015881Y0013648D01*
X0016018Y0013638D01*
X0016155Y0013632D01*
X0016292Y0013630D01*
X0062667Y0015205D02*
X0062669Y0015293D01*
X0062675Y0015381D01*
X0062685Y0015469D01*
X0062699Y0015557D01*
X0062716Y0015643D01*
X0062738Y0015729D01*
X0062763Y0015813D01*
X0062793Y0015897D01*
X0062825Y0015979D01*
X0062862Y0016059D01*
X0062902Y0016138D01*
X0062946Y0016215D01*
X0062993Y0016290D01*
X0063043Y0016362D01*
X0063097Y0016433D01*
X0063153Y0016500D01*
X0063213Y0016566D01*
X0063275Y0016628D01*
X0063341Y0016688D01*
X0063408Y0016744D01*
X0063479Y0016798D01*
X0063551Y0016848D01*
X0063626Y0016895D01*
X0063703Y0016939D01*
X0063782Y0016979D01*
X0063862Y0017016D01*
X0063944Y0017048D01*
X0064028Y0017078D01*
X0064112Y0017103D01*
X0064198Y0017125D01*
X0064284Y0017142D01*
X0064372Y0017156D01*
X0064460Y0017166D01*
X0064548Y0017172D01*
X0064636Y0017174D01*
X0064724Y0017172D01*
X0064812Y0017166D01*
X0064900Y0017156D01*
X0064988Y0017142D01*
X0065074Y0017125D01*
X0065160Y0017103D01*
X0065244Y0017078D01*
X0065328Y0017048D01*
X0065410Y0017016D01*
X0065490Y0016979D01*
X0065569Y0016939D01*
X0065646Y0016895D01*
X0065721Y0016848D01*
X0065793Y0016798D01*
X0065864Y0016744D01*
X0065931Y0016688D01*
X0065997Y0016628D01*
X0066059Y0016566D01*
X0066119Y0016500D01*
X0066175Y0016433D01*
X0066229Y0016362D01*
X0066279Y0016290D01*
X0066326Y0016215D01*
X0066370Y0016138D01*
X0066410Y0016059D01*
X0066447Y0015979D01*
X0066479Y0015897D01*
X0066509Y0015813D01*
X0066534Y0015729D01*
X0066556Y0015643D01*
X0066573Y0015557D01*
X0066587Y0015469D01*
X0066597Y0015381D01*
X0066603Y0015293D01*
X0066605Y0015205D01*
X0066603Y0015117D01*
X0066597Y0015029D01*
X0066587Y0014941D01*
X0066573Y0014853D01*
X0066556Y0014767D01*
X0066534Y0014681D01*
X0066509Y0014597D01*
X0066479Y0014513D01*
X0066447Y0014431D01*
X0066410Y0014351D01*
X0066370Y0014272D01*
X0066326Y0014195D01*
X0066279Y0014120D01*
X0066229Y0014048D01*
X0066175Y0013977D01*
X0066119Y0013910D01*
X0066059Y0013844D01*
X0065997Y0013782D01*
X0065931Y0013722D01*
X0065864Y0013666D01*
X0065793Y0013612D01*
X0065721Y0013562D01*
X0065646Y0013515D01*
X0065569Y0013471D01*
X0065490Y0013431D01*
X0065410Y0013394D01*
X0065328Y0013362D01*
X0065244Y0013332D01*
X0065160Y0013307D01*
X0065074Y0013285D01*
X0064988Y0013268D01*
X0064900Y0013254D01*
X0064812Y0013244D01*
X0064724Y0013238D01*
X0064636Y0013236D01*
X0064548Y0013238D01*
X0064460Y0013244D01*
X0064372Y0013254D01*
X0064284Y0013268D01*
X0064198Y0013285D01*
X0064112Y0013307D01*
X0064028Y0013332D01*
X0063944Y0013362D01*
X0063862Y0013394D01*
X0063782Y0013431D01*
X0063703Y0013471D01*
X0063626Y0013515D01*
X0063551Y0013562D01*
X0063479Y0013612D01*
X0063408Y0013666D01*
X0063341Y0013722D01*
X0063275Y0013782D01*
X0063213Y0013844D01*
X0063153Y0013910D01*
X0063097Y0013977D01*
X0063043Y0014048D01*
X0062993Y0014120D01*
X0062946Y0014195D01*
X0062902Y0014272D01*
X0062862Y0014351D01*
X0062825Y0014431D01*
X0062793Y0014513D01*
X0062763Y0014597D01*
X0062738Y0014681D01*
X0062716Y0014767D01*
X0062699Y0014853D01*
X0062685Y0014941D01*
X0062675Y0015029D01*
X0062669Y0015117D01*
X0062667Y0015205D01*
X0062667Y0032528D02*
X0062669Y0032616D01*
X0062675Y0032704D01*
X0062685Y0032792D01*
X0062699Y0032880D01*
X0062716Y0032966D01*
X0062738Y0033052D01*
X0062763Y0033136D01*
X0062793Y0033220D01*
X0062825Y0033302D01*
X0062862Y0033382D01*
X0062902Y0033461D01*
X0062946Y0033538D01*
X0062993Y0033613D01*
X0063043Y0033685D01*
X0063097Y0033756D01*
X0063153Y0033823D01*
X0063213Y0033889D01*
X0063275Y0033951D01*
X0063341Y0034011D01*
X0063408Y0034067D01*
X0063479Y0034121D01*
X0063551Y0034171D01*
X0063626Y0034218D01*
X0063703Y0034262D01*
X0063782Y0034302D01*
X0063862Y0034339D01*
X0063944Y0034371D01*
X0064028Y0034401D01*
X0064112Y0034426D01*
X0064198Y0034448D01*
X0064284Y0034465D01*
X0064372Y0034479D01*
X0064460Y0034489D01*
X0064548Y0034495D01*
X0064636Y0034497D01*
X0064724Y0034495D01*
X0064812Y0034489D01*
X0064900Y0034479D01*
X0064988Y0034465D01*
X0065074Y0034448D01*
X0065160Y0034426D01*
X0065244Y0034401D01*
X0065328Y0034371D01*
X0065410Y0034339D01*
X0065490Y0034302D01*
X0065569Y0034262D01*
X0065646Y0034218D01*
X0065721Y0034171D01*
X0065793Y0034121D01*
X0065864Y0034067D01*
X0065931Y0034011D01*
X0065997Y0033951D01*
X0066059Y0033889D01*
X0066119Y0033823D01*
X0066175Y0033756D01*
X0066229Y0033685D01*
X0066279Y0033613D01*
X0066326Y0033538D01*
X0066370Y0033461D01*
X0066410Y0033382D01*
X0066447Y0033302D01*
X0066479Y0033220D01*
X0066509Y0033136D01*
X0066534Y0033052D01*
X0066556Y0032966D01*
X0066573Y0032880D01*
X0066587Y0032792D01*
X0066597Y0032704D01*
X0066603Y0032616D01*
X0066605Y0032528D01*
X0066603Y0032440D01*
X0066597Y0032352D01*
X0066587Y0032264D01*
X0066573Y0032176D01*
X0066556Y0032090D01*
X0066534Y0032004D01*
X0066509Y0031920D01*
X0066479Y0031836D01*
X0066447Y0031754D01*
X0066410Y0031674D01*
X0066370Y0031595D01*
X0066326Y0031518D01*
X0066279Y0031443D01*
X0066229Y0031371D01*
X0066175Y0031300D01*
X0066119Y0031233D01*
X0066059Y0031167D01*
X0065997Y0031105D01*
X0065931Y0031045D01*
X0065864Y0030989D01*
X0065793Y0030935D01*
X0065721Y0030885D01*
X0065646Y0030838D01*
X0065569Y0030794D01*
X0065490Y0030754D01*
X0065410Y0030717D01*
X0065328Y0030685D01*
X0065244Y0030655D01*
X0065160Y0030630D01*
X0065074Y0030608D01*
X0064988Y0030591D01*
X0064900Y0030577D01*
X0064812Y0030567D01*
X0064724Y0030561D01*
X0064636Y0030559D01*
X0064548Y0030561D01*
X0064460Y0030567D01*
X0064372Y0030577D01*
X0064284Y0030591D01*
X0064198Y0030608D01*
X0064112Y0030630D01*
X0064028Y0030655D01*
X0063944Y0030685D01*
X0063862Y0030717D01*
X0063782Y0030754D01*
X0063703Y0030794D01*
X0063626Y0030838D01*
X0063551Y0030885D01*
X0063479Y0030935D01*
X0063408Y0030989D01*
X0063341Y0031045D01*
X0063275Y0031105D01*
X0063213Y0031167D01*
X0063153Y0031233D01*
X0063097Y0031300D01*
X0063043Y0031371D01*
X0062993Y0031443D01*
X0062946Y0031518D01*
X0062902Y0031595D01*
X0062862Y0031674D01*
X0062825Y0031754D01*
X0062793Y0031836D01*
X0062763Y0031920D01*
X0062738Y0032004D01*
X0062716Y0032090D01*
X0062699Y0032176D01*
X0062685Y0032264D01*
X0062675Y0032352D01*
X0062669Y0032440D01*
X0062667Y0032528D01*
D11*
X0030580Y0072192D02*
X0021132Y0072192D01*
X0030580Y0072192D02*
X0030580Y0066878D01*
X0021132Y0066878D01*
X0021132Y0072192D01*
X0021132Y0068649D02*
X0030580Y0068649D01*
X0030580Y0070420D02*
X0021132Y0070420D01*
X0021132Y0072191D02*
X0030580Y0072191D01*
X0069164Y0080854D02*
X0078612Y0080854D01*
X0078612Y0075540D01*
X0069164Y0075540D01*
X0069164Y0080854D01*
X0069164Y0077311D02*
X0078612Y0077311D01*
X0078612Y0079082D02*
X0069164Y0079082D01*
X0069164Y0080853D02*
X0078612Y0080853D01*
D12*
X0020148Y0043945D03*
X0020148Y0036071D03*
X0020148Y0028197D03*
D13*
X0020148Y0018748D03*
X0020148Y0053394D03*
D14*
X0054793Y0041189D03*
X0076447Y0041189D03*
X0076447Y0006543D03*
X0054793Y0006543D03*
D15*
X0052573Y0017567D03*
X0052573Y0020717D03*
X0052573Y0023866D03*
X0052573Y0027016D03*
X0052573Y0030165D03*
D16*
X0050069Y0068866D03*
X0050069Y0078866D03*
D17*
X0037470Y0042764D03*
D18*
X0033533Y0029673D03*
X0041407Y0029673D03*
D19*
X0041801Y0019142D03*
D20*
X0033927Y0019142D03*
D21*
X0033140Y0020717D01*
X0033140Y0022685D01*
X0021329Y0034496D01*
X0020148Y0036071D01*
X0029203Y0034496D02*
X0037077Y0034496D01*
X0041014Y0030559D01*
X0041407Y0029673D01*
X0041014Y0024654D02*
X0046919Y0024654D01*
X0046919Y0018748D01*
X0048888Y0016780D01*
X0050856Y0016780D01*
X0052573Y0017567D01*
X0052573Y0020717D02*
X0056762Y0020717D01*
X0058730Y0018748D01*
X0060699Y0018748D01*
X0074478Y0018748D01*
X0082352Y0026622D01*
X0082352Y0046307D01*
X0066604Y0062055D01*
X0066604Y0079772D01*
X0056762Y0089614D01*
X0052825Y0089614D02*
X0052825Y0095520D01*
X0048888Y0099457D01*
X0021329Y0099457D01*
X0015423Y0093551D01*
X0015423Y0064024D01*
X0017392Y0065992D02*
X0029203Y0054181D01*
X0029203Y0042370D01*
X0035108Y0036465D01*
X0044951Y0036465D01*
X0046919Y0034496D01*
X0048888Y0036465D02*
X0050856Y0034496D01*
X0050856Y0030559D01*
X0052573Y0030165D01*
X0052825Y0024654D02*
X0052573Y0023866D01*
X0052825Y0024654D02*
X0064636Y0024654D01*
X0068573Y0020717D01*
X0072510Y0020717D01*
X0072510Y0034496D01*
X0064636Y0042370D01*
X0064636Y0048276D01*
X0050856Y0062055D01*
X0050856Y0056150D02*
X0062667Y0044339D01*
X0062667Y0040402D01*
X0068573Y0034496D01*
X0068573Y0024654D01*
X0048888Y0036465D02*
X0048888Y0038433D01*
X0046919Y0038433D01*
X0048888Y0038433D02*
X0048888Y0040402D01*
X0027234Y0062055D01*
X0025856Y0069535D02*
X0027234Y0069929D01*
X0048888Y0069929D01*
X0050069Y0068866D01*
X0050069Y0078866D02*
X0048888Y0079772D01*
X0048888Y0091583D01*
X0048888Y0095520D02*
X0044951Y0091583D01*
X0044951Y0087646D01*
X0035108Y0077803D01*
X0035108Y0075835D01*
X0029203Y0075835D01*
X0017392Y0085677D02*
X0019360Y0087646D01*
X0017392Y0085677D02*
X0017392Y0065992D01*
X0033140Y0048276D02*
X0037077Y0044339D01*
X0037470Y0042764D01*
X0064636Y0054181D02*
X0068573Y0054181D01*
X0074478Y0048276D01*
X0073888Y0078197D02*
X0074478Y0079772D01*
X0074478Y0101425D01*
X0058730Y0083709D02*
X0052825Y0089614D01*
D22*
X0056762Y0089614D03*
X0058730Y0083709D03*
X0048888Y0091583D03*
X0048888Y0095520D03*
X0035108Y0077803D03*
X0029203Y0075835D03*
X0019360Y0087646D03*
X0021329Y0099457D03*
X0015423Y0064024D03*
X0027234Y0062055D03*
X0033140Y0048276D03*
X0029203Y0034496D03*
X0041014Y0024654D03*
X0046919Y0034496D03*
X0046919Y0038433D03*
X0050856Y0056150D03*
X0050856Y0062055D03*
X0064636Y0054181D03*
X0074478Y0048276D03*
X0068573Y0024654D03*
X0060699Y0018748D03*
X0074478Y0101425D03*
M02*
