<?xml version="1.0" encoding="UTF-8"?>
<svg width="129px" height="33px" viewBox="0 0 129 33" version="1.1" xmlns="http://www.w3.org/2000/svg" xmlns:xlink="http://www.w3.org/1999/xlink">
    <!-- Generator: sketchtool 40 (33762) - http://www.bohemiancoding.com/sketch -->
    <title>25A0EB42-B42C-4FC1-91A9-CE28E767DC61</title>
    <desc>Created with sketchtool.</desc>
    <defs></defs>
    <g id="Symbols" stroke="none" stroke-width="1" fill="none" fill-rule="evenodd">
        <g id="VL_50mm_standard_RGB_Neg">
            <g>
                <g id="symbol" transform="translate(96.176322, 0.989429)">
                    <path d="M16.1818716,0.249007191 C7.71922292,0.249007191 0.833320094,7.1367079 0.833320094,15.6020534 C0.833320094,24.0656011 7.71922292,30.9542008 16.1818716,30.9542008 C24.6463182,30.9542008 31.5349179,24.0656011 31.5349179,15.6020534 C31.5349179,7.1367079 24.6463182,0.249007191 16.1818716,0.249007191" id="Shape" fill="#FFFFFF"></path>
                    <path d="M19.0827605,16.72753 C14.837952,16.0668069 11.2358876,13.5236974 6.80499796,14.160149 C5.20757638,14.3911773 3.59846854,15.1966302 2.60154083,16.428182 C2.19521863,12.0287553 4.31852182,7.12861741 8.49411172,4.30323979 C12.2714699,1.74844399 18.1568492,1.2711053 22.4034556,3.5076753 C22.0142133,4.51988504 21.3471977,6.74386984 21.3471977,6.74386984 L16.7464078,6.74656667 L20.4536484,9.4757574 L19.0602869,13.8536095 L22.7935969,11.2313929 L26.4783639,13.8742851 L25.1425347,9.48384788 C25.1425347,9.48384788 26.6356789,8.46534555 27.3449449,7.90889987 C28.5666083,9.58632738 29.3423961,11.5783849 29.5878075,13.6270758 C26.807377,16.2456966 22.9302362,17.3235292 19.0827605,16.72753 L19.0827605,16.72753 Z M26.5071301,6.7429709 C25.6297618,5.71997385 24.6103605,4.77338694 23.4174633,4.12075438 C23.7275986,5.12307574 24.2696611,6.7429709 24.2696611,6.7429709 L26.5071301,6.7429709 L26.5071301,6.7429709 Z" id="Shape" fill="#FF9900"></path>
                    <path d="M29.7361331,16.0937752 C29.7307394,16.712248 29.6633187,18.3375368 28.9315792,19.4585186 C28.5980713,19.9736129 28.0011732,20.5030903 27.5418134,20.822215 C25.6252671,22.1751241 23.154073,23.0758649 20.0311452,23.0839554 C15.7288044,23.0884501 9.79847791,21.6654235 7.16367619,25.7376349 C5.8530174,24.6454193 4.74821654,23.1136205 3.99490237,21.6402531 C5.56086095,19.0953457 7.99519839,18.3869786 10.5239248,18.3770903 C14.0396906,18.3672019 17.057442,19.8037127 20.2405989,19.8037127 C23.9550311,19.8037127 27.3062904,18.7321727 29.7361331,16.0937752 M11.6772686,28.3814261 C17.4772484,30.4921441 24.2265119,28.2268079 27.3062904,23.2826218 C24.8647614,25.2908603 21.5971038,25.5911073 20.03564,25.705273 C18.4741761,25.8203377 13.1191731,25.3726641 11.6772686,28.3814261" id="Shape" fill="#0085C7"></path>
                </g>
                <path d="M19.9558506,20.336479 L20.123953,20.6556037 C20.2111504,20.8165145 20.3837475,21.0007978 20.6138769,21.2156451 L16.9138278,21.2156451 C17.1250794,21.0826016 17.2293567,20.8965204 17.2293567,20.651109 C17.2293567,20.4398574 17.1583402,20.3050159 16.8724764,19.5876595 L16.7007783,19.1759436 L12.8263343,19.1786405 L12.657333,19.5840637 C12.4272036,20.0667961 12.31124,20.4272722 12.31124,20.651109 C12.31124,20.8965204 12.4110226,21.0826016 12.6240721,21.2156451 L9.5559799,21.2156451 C9.77711986,21.0088883 9.89757822,20.87135 10.0288239,20.6358269 L10.2059156,20.2753508 L13.6731385,11.9763097 L16.4355901,11.9763097 L19.9558506,20.336479 L19.9558506,20.336479 Z M13.5814463,17.3600789 L15.9357779,17.3600789 L14.7554658,14.5445897 L13.5814463,17.3600789 L13.5814463,17.3600789 Z M80.1068187,11.9781076 L76.778932,11.9781076 C76.778932,11.9781076 77.0180508,12.1812687 77.0881684,12.3628552 C77.1519933,12.5057871 77.1915468,12.6271444 77.1915468,12.7413102 L77.1915468,20.4038997 C77.1870521,20.5504274 77.1519933,20.6897635 77.0863705,20.8228071 C77.0108593,20.9998988 76.9551248,21.0700164 76.7816288,21.2120494 L84.244653,21.2120494 L84.244653,18.8747978 C83.5821321,19.4456265 83.5632543,19.3979825 82.3101278,19.3979825 L79.6915071,19.3979825 L79.6915071,12.7565922 C79.6915071,12.6208518 79.7220711,12.5048882 79.7993802,12.3619562 C79.8919714,12.1857634 80.1068187,11.9781076 80.1068187,11.9781076 L80.1068187,11.9781076 Z M53.0468387,11.9781076 C53.4028201,12.2531842 53.4666451,12.4482548 53.4666451,13.1575207 L53.4666451,17.7340392 L50.1585351,11.9781076 L46.8027812,11.9781076 C46.978075,12.1129491 47.0347084,12.1884603 47.1129165,12.366451 C47.1956192,12.555229 47.2019118,12.5830962 47.2225875,12.7583901 L47.2279812,20.4254743 C47.2055076,20.5540231 47.1758425,20.6897635 47.1129165,20.8273018 C47.0347084,21.0007978 46.9762771,21.0772079 46.8027812,21.2129483 L49.4474712,21.2129483 C49.2766721,21.0772079 49.2137461,21.0007978 49.135538,20.8273018 C49.0780057,20.6906625 49.0375533,20.5513263 49.0276649,20.4254743 L49.0339575,15.1145195 L52.4805047,21.2129483 L55.2825098,21.2129483 L55.2825098,13.1575207 C55.2825098,12.4572442 55.3526273,12.2423968 55.6969225,11.9781076 L53.0468387,11.9781076 L53.0468387,11.9781076 Z M27.3748266,11.9754108 L19.9055098,11.9754108 L19.9055098,14.2749068 C20.406221,13.7732966 21.0219969,13.7777914 22.0243183,13.7804882 L22.3946828,13.7804882 L22.3946828,20.0317373 C22.3946828,20.7275191 22.3191716,20.9468612 21.9712807,21.2138472 L25.304561,21.2138472 C24.9602659,20.9468612 24.8829568,20.7275191 24.8829568,20.0317373 L24.8829568,13.7804882 L25.2847843,13.7804882 C26.3814947,13.7777914 26.8138862,13.784084 27.3730287,14.2749068 L27.3730287,11.9754108 L27.3748266,11.9754108 Z M6.15977352,18.6473652 L4.0463587,13.6078911 C3.75600014,12.8842421 3.6903773,12.7467038 3.6903773,12.5408459 C3.6903773,12.2900408 3.79375574,12.1057575 4.00051261,11.9646235 L0.302261411,11.9646235 C0.534188686,12.1911571 0.703189956,12.3763393 0.793084249,12.5309575 L0.962984462,12.8500823 L4.48054814,21.2129483 L7.24479764,21.2129483 L10.7129195,12.9121093 L10.8855165,12.5561279 C11.0221558,12.318807 11.1381195,12.1830666 11.3610573,11.9754108 L8.29566192,11.9754108 C8.50421668,12.1048586 8.60669617,12.2891419 8.60669617,12.5399469 C8.60669617,12.7628848 8.49073254,13.1242598 8.2597042,13.6069922 L6.15977352,18.6473652 L6.15977352,18.6473652 Z M36.9153079,11.9781076 C37.2434221,12.2127317 37.3306195,12.4392653 37.3306195,12.7583901 L37.3306195,20.4344637 C37.3306195,20.9414675 37.1733045,21.0223724 36.9368825,21.2102515 L44.9968048,21.2102515 L45.0030974,18.8801914 C44.5356471,19.4770895 44.1778678,19.3925889 43.2240894,19.3871952 L39.843165,19.3871952 L39.8503566,17.4346912 L42.4411101,17.4346912 C43.0074441,17.4346912 43.9621215,17.0202785 43.9621215,15.452522 C43.9621215,15.4803893 43.6151295,15.594555 42.7350644,15.6008476 L39.8503566,15.6008476 L39.843165,13.7795892 L43.1404877,13.7795892 C43.1404877,13.7795892 44.4862052,13.6995833 44.7981384,14.2227681 L44.7981384,11.987996 L36.9153079,11.9781076 L36.9153079,11.9781076 Z M60.5584058,17.7673001 L63.139271,17.7673001 C63.7029082,17.7673001 64.6638782,17.358281 64.6638782,15.7788383 C64.6638782,15.8138971 64.3132904,15.9244671 63.4350232,15.9289618 L60.5584058,15.9289618 L60.5584058,13.7930734 L63.8413454,13.7930734 C63.8413454,13.7930734 65.0962697,13.720259 65.4037082,14.2317575 L65.4037082,11.9942886 L57.641336,11.9861981 C57.9433808,12.2379021 58.0413656,12.3394827 58.0413656,12.7718742 L58.0395677,20.4272722 C58.0413656,20.7284181 57.8606781,21.0223724 57.6296498,21.2147462 L60.9539407,21.2147462 C60.6734705,21.0070904 60.5593048,20.761679 60.5575069,20.4272722 L60.5575069,17.7673001 L60.5584058,17.7673001 Z M35.8185975,11.9754108 L28.3483818,11.9754108 L28.3483818,14.2749068 C28.8463962,13.7732966 29.4657679,13.7777914 30.4644934,13.7804882 L30.833959,13.7804882 L30.833959,20.0317373 C30.833959,20.7275191 30.7593467,20.9468612 30.4168495,21.2138472 L33.7420394,21.2138472 C33.4049358,20.9468612 33.3276267,20.7275191 33.3276267,20.0317373 L33.3276267,13.7804882 L33.7249594,13.7804882 C34.8243666,13.7777914 35.2576571,13.784084 35.8167996,14.2749068 L35.8167996,11.9754108 L35.8185975,11.9754108 Z M75.094313,20.336479 L75.2597185,20.6556037 C75.3487138,20.8165145 75.5177151,21.0007978 75.7523392,21.2156451 L72.054088,21.2156451 C72.258148,21.0826016 72.3669201,20.8965204 72.3669201,20.651109 C72.3669201,20.4398574 72.2923079,20.3050159 72.0109387,19.5876595 L71.8356448,19.1759436 L67.9620998,19.1786405 L67.7930985,19.5840637 C67.5629691,20.0667961 67.4479044,20.4272722 67.4479044,20.651109 C67.4479044,20.8965204 67.548586,21.0826016 67.7598376,21.2156451 L64.6908465,21.2156451 C64.9128854,21.0088883 65.0360405,20.87135 65.1663873,20.6358269 L65.3380854,20.2753508 L68.8035104,11.9763097 L71.5740525,11.9763097 L75.094313,20.336479 L75.094313,20.336479 Z M68.7172118,17.3600789 L71.0688465,17.3600789 L69.8876355,14.5454886 L68.7172118,17.3600789 L68.7172118,17.3600789 Z M88.7348729,11.9781076 L85.4078852,11.9781076 C85.409683,11.9781076 85.6425093,12.1812687 85.726111,12.3628552 C85.7863401,12.5057871 85.8240957,12.6271444 85.8240957,12.7413102 L85.8240957,20.4038997 C85.8187021,20.5504274 85.7845422,20.6897635 85.726111,20.8228071 C85.6407114,20.9998988 85.584078,21.0700164 85.409683,21.2120494 L92.876303,21.2120494 L92.876303,18.8747978 C92.2128831,19.4456265 92.1940053,19.3979825 90.9336873,19.3979825 L88.3222581,19.3979825 L88.3222581,12.7565922 C88.3222581,12.6208518 88.3483275,12.5048882 88.4328281,12.3619562 C88.5227224,12.1857634 88.7348729,11.9781076 88.7348729,11.9781076 L88.7348729,11.9781076 Z" id="wordmark" fill="#FFFFFF"></path>
            </g>
        </g>
    </g>
</svg>