G75*
%MOIN*%
%OFA0B0*%
%FSLAX25Y25*%
%IPPOS*%
%LPD*%
%AMOC8*
5,1,8,0,0,1.08239X$1,22.5*
%
%ADD10C,0.00000*%
%ADD11R,0.06496X0.06496*%
%ADD12OC8,0.06496*%
%ADD13R,0.04724X0.02756*%
%ADD14C,0.05200*%
%ADD15R,0.16000X0.06000*%
%ADD16R,0.06000X0.06000*%
%ADD17R,0.08000X0.02600*%
%ADD18R,0.05906X0.05118*%
%ADD19R,0.03937X0.05512*%
%ADD20R,0.05118X0.05906*%
%ADD21R,0.02500X0.05000*%
%ADD22R,0.05512X0.01575*%
%ADD23R,0.05000X0.08661*%
%ADD24R,0.07874X0.03937*%
%ADD25R,0.03937X0.07087*%
%ADD26R,0.04724X0.04724*%
%ADD27R,0.08000X0.03000*%
%ADD28R,0.03000X0.08000*%
%ADD29R,0.05512X0.03937*%
%ADD30C,0.04362*%
%ADD31C,0.07087*%
%ADD32R,0.02756X0.05118*%
%ADD33R,0.13386X0.09449*%
%ADD34C,0.07677*%
%ADD35C,0.01000*%
%ADD36C,0.02400*%
%ADD37C,0.01500*%
D10*
X0010738Y0006895D02*
X0010738Y0114484D01*
X0010740Y0114588D01*
X0010746Y0114692D01*
X0010755Y0114796D01*
X0010768Y0114900D01*
X0010785Y0115002D01*
X0010806Y0115105D01*
X0010831Y0115206D01*
X0010859Y0115306D01*
X0010891Y0115406D01*
X0010926Y0115504D01*
X0010965Y0115600D01*
X0011008Y0115695D01*
X0011054Y0115789D01*
X0011103Y0115881D01*
X0011156Y0115971D01*
X0011212Y0116059D01*
X0011271Y0116145D01*
X0011333Y0116228D01*
X0011398Y0116310D01*
X0011466Y0116389D01*
X0011537Y0116465D01*
X0011611Y0116539D01*
X0011687Y0116610D01*
X0011766Y0116678D01*
X0011848Y0116743D01*
X0011931Y0116805D01*
X0012017Y0116864D01*
X0012105Y0116920D01*
X0012195Y0116973D01*
X0012287Y0117022D01*
X0012381Y0117068D01*
X0012476Y0117111D01*
X0012572Y0117150D01*
X0012670Y0117185D01*
X0012770Y0117217D01*
X0012870Y0117245D01*
X0012971Y0117270D01*
X0013074Y0117291D01*
X0013176Y0117308D01*
X0013280Y0117321D01*
X0013384Y0117330D01*
X0013488Y0117336D01*
X0013592Y0117338D01*
X0013592Y0117339D02*
X0016942Y0117339D01*
X0017044Y0117341D01*
X0017145Y0117347D01*
X0017246Y0117357D01*
X0017347Y0117370D01*
X0017447Y0117388D01*
X0017547Y0117409D01*
X0017645Y0117434D01*
X0017743Y0117463D01*
X0017839Y0117495D01*
X0017934Y0117531D01*
X0018028Y0117571D01*
X0018120Y0117615D01*
X0018210Y0117661D01*
X0018298Y0117712D01*
X0018385Y0117765D01*
X0018469Y0117822D01*
X0018551Y0117882D01*
X0018631Y0117945D01*
X0018708Y0118012D01*
X0018782Y0118081D01*
X0018854Y0118153D01*
X0018923Y0118227D01*
X0018990Y0118304D01*
X0019053Y0118384D01*
X0019113Y0118466D01*
X0019170Y0118550D01*
X0019223Y0118637D01*
X0019274Y0118725D01*
X0019320Y0118815D01*
X0019364Y0118907D01*
X0019404Y0119001D01*
X0019440Y0119096D01*
X0019472Y0119192D01*
X0019501Y0119290D01*
X0019526Y0119388D01*
X0019547Y0119488D01*
X0019565Y0119588D01*
X0019578Y0119689D01*
X0019588Y0119790D01*
X0019594Y0119891D01*
X0019596Y0119993D01*
X0019596Y0148826D01*
X0019597Y0148826D02*
X0019599Y0148979D01*
X0019605Y0149132D01*
X0019614Y0149284D01*
X0019628Y0149436D01*
X0019645Y0149588D01*
X0019667Y0149739D01*
X0019692Y0149890D01*
X0019720Y0150040D01*
X0019753Y0150190D01*
X0019790Y0150338D01*
X0019830Y0150485D01*
X0019874Y0150632D01*
X0019921Y0150777D01*
X0019972Y0150921D01*
X0020027Y0151064D01*
X0020086Y0151205D01*
X0020148Y0151344D01*
X0020213Y0151482D01*
X0020282Y0151619D01*
X0020355Y0151753D01*
X0020431Y0151886D01*
X0020510Y0152017D01*
X0020592Y0152145D01*
X0020678Y0152272D01*
X0020767Y0152396D01*
X0020859Y0152518D01*
X0020954Y0152638D01*
X0021052Y0152755D01*
X0021153Y0152870D01*
X0021257Y0152982D01*
X0021364Y0153091D01*
X0021473Y0153198D01*
X0021585Y0153302D01*
X0021700Y0153403D01*
X0021817Y0153501D01*
X0021937Y0153596D01*
X0022059Y0153688D01*
X0022183Y0153777D01*
X0022310Y0153863D01*
X0022438Y0153945D01*
X0022569Y0154024D01*
X0022702Y0154100D01*
X0022836Y0154173D01*
X0022973Y0154242D01*
X0023111Y0154307D01*
X0023250Y0154369D01*
X0023391Y0154428D01*
X0023534Y0154483D01*
X0023678Y0154534D01*
X0023823Y0154581D01*
X0023970Y0154625D01*
X0024117Y0154665D01*
X0024265Y0154702D01*
X0024415Y0154735D01*
X0024565Y0154763D01*
X0024716Y0154788D01*
X0024867Y0154810D01*
X0025019Y0154827D01*
X0025171Y0154841D01*
X0025323Y0154850D01*
X0025476Y0154856D01*
X0025629Y0154858D01*
X0201964Y0154858D01*
X0201964Y0154859D02*
X0202131Y0154826D01*
X0202296Y0154789D01*
X0202461Y0154748D01*
X0202625Y0154703D01*
X0202787Y0154654D01*
X0202949Y0154601D01*
X0203109Y0154545D01*
X0203267Y0154484D01*
X0203424Y0154420D01*
X0203580Y0154351D01*
X0203734Y0154280D01*
X0203886Y0154204D01*
X0204036Y0154125D01*
X0204184Y0154042D01*
X0204330Y0153955D01*
X0204474Y0153866D01*
X0204616Y0153772D01*
X0204755Y0153675D01*
X0204893Y0153575D01*
X0205027Y0153472D01*
X0205159Y0153365D01*
X0205289Y0153256D01*
X0205416Y0153143D01*
X0205540Y0153027D01*
X0205661Y0152908D01*
X0205779Y0152786D01*
X0205895Y0152662D01*
X0206007Y0152534D01*
X0206116Y0152404D01*
X0206222Y0152272D01*
X0206325Y0152137D01*
X0206424Y0151999D01*
X0206520Y0151859D01*
X0206613Y0151717D01*
X0206702Y0151572D01*
X0206788Y0151426D01*
X0206870Y0151277D01*
X0206949Y0151127D01*
X0207024Y0150974D01*
X0207095Y0150820D01*
X0207162Y0150665D01*
X0207226Y0150507D01*
X0207286Y0150348D01*
X0207342Y0150188D01*
X0207394Y0150026D01*
X0207442Y0149864D01*
X0207486Y0149700D01*
X0207526Y0149535D01*
X0207563Y0149369D01*
X0207595Y0149202D01*
X0207623Y0149035D01*
X0207647Y0148867D01*
X0207667Y0148698D01*
X0207683Y0148529D01*
X0207695Y0148360D01*
X0207703Y0148190D01*
X0207707Y0148021D01*
X0207706Y0147851D01*
X0207702Y0147681D01*
X0207693Y0147512D01*
X0207680Y0147342D01*
X0207664Y0147173D01*
X0207643Y0147005D01*
X0207618Y0146837D01*
X0207589Y0146670D01*
X0207589Y0146669D02*
X0207589Y0007487D01*
X0207587Y0007328D01*
X0207581Y0007169D01*
X0207571Y0007010D01*
X0207558Y0006851D01*
X0207540Y0006693D01*
X0207519Y0006535D01*
X0207493Y0006378D01*
X0207464Y0006221D01*
X0207431Y0006066D01*
X0207395Y0005911D01*
X0207354Y0005757D01*
X0207310Y0005604D01*
X0207262Y0005452D01*
X0207210Y0005302D01*
X0207154Y0005152D01*
X0207095Y0005005D01*
X0207032Y0004858D01*
X0206966Y0004713D01*
X0206896Y0004570D01*
X0206823Y0004429D01*
X0206746Y0004290D01*
X0206666Y0004152D01*
X0206583Y0004016D01*
X0206496Y0003883D01*
X0206406Y0003752D01*
X0206312Y0003623D01*
X0206216Y0003496D01*
X0206117Y0003372D01*
X0206014Y0003250D01*
X0205909Y0003131D01*
X0205800Y0003014D01*
X0205689Y0002900D01*
X0205575Y0002789D01*
X0205458Y0002680D01*
X0205339Y0002575D01*
X0205217Y0002472D01*
X0205093Y0002373D01*
X0204966Y0002277D01*
X0204837Y0002183D01*
X0204706Y0002093D01*
X0204573Y0002006D01*
X0204437Y0001923D01*
X0204299Y0001843D01*
X0204160Y0001766D01*
X0204019Y0001693D01*
X0203876Y0001623D01*
X0203731Y0001557D01*
X0203584Y0001494D01*
X0203437Y0001435D01*
X0203287Y0001379D01*
X0203137Y0001327D01*
X0202985Y0001279D01*
X0202832Y0001235D01*
X0202678Y0001194D01*
X0202523Y0001158D01*
X0202368Y0001125D01*
X0202211Y0001096D01*
X0202054Y0001070D01*
X0201896Y0001049D01*
X0201738Y0001031D01*
X0201579Y0001018D01*
X0201420Y0001008D01*
X0201261Y0001002D01*
X0201102Y0001000D01*
X0016644Y0001000D01*
X0016643Y0001000D02*
X0016492Y0001002D01*
X0016340Y0001008D01*
X0016188Y0001017D01*
X0016037Y0001031D01*
X0015886Y0001048D01*
X0015735Y0001069D01*
X0015586Y0001095D01*
X0015436Y0001124D01*
X0015288Y0001156D01*
X0015141Y0001193D01*
X0014994Y0001234D01*
X0014849Y0001278D01*
X0014705Y0001326D01*
X0014562Y0001377D01*
X0014420Y0001433D01*
X0014280Y0001492D01*
X0014142Y0001554D01*
X0014005Y0001620D01*
X0013870Y0001690D01*
X0013737Y0001763D01*
X0013605Y0001839D01*
X0013476Y0001919D01*
X0013349Y0002002D01*
X0013224Y0002088D01*
X0013101Y0002178D01*
X0012981Y0002270D01*
X0012863Y0002366D01*
X0012747Y0002465D01*
X0012634Y0002566D01*
X0012524Y0002671D01*
X0012417Y0002778D01*
X0012312Y0002888D01*
X0012210Y0003001D01*
X0012111Y0003116D01*
X0012015Y0003234D01*
X0011922Y0003354D01*
X0011832Y0003477D01*
X0011746Y0003602D01*
X0011663Y0003729D01*
X0011583Y0003858D01*
X0011506Y0003989D01*
X0011433Y0004122D01*
X0011363Y0004257D01*
X0011297Y0004394D01*
X0011234Y0004532D01*
X0011175Y0004672D01*
X0011119Y0004814D01*
X0011067Y0004956D01*
X0011019Y0005101D01*
X0010975Y0005246D01*
X0010934Y0005392D01*
X0010897Y0005540D01*
X0010864Y0005688D01*
X0010835Y0005837D01*
X0010809Y0005987D01*
X0010788Y0006137D01*
X0010770Y0006288D01*
X0010756Y0006439D01*
X0010746Y0006591D01*
X0010740Y0006743D01*
X0010738Y0006895D01*
X0018455Y0095488D02*
X0018457Y0095585D01*
X0018463Y0095682D01*
X0018473Y0095778D01*
X0018487Y0095874D01*
X0018505Y0095970D01*
X0018526Y0096064D01*
X0018552Y0096158D01*
X0018581Y0096250D01*
X0018615Y0096341D01*
X0018651Y0096431D01*
X0018692Y0096519D01*
X0018736Y0096605D01*
X0018784Y0096690D01*
X0018835Y0096772D01*
X0018889Y0096853D01*
X0018947Y0096931D01*
X0019008Y0097006D01*
X0019071Y0097079D01*
X0019138Y0097150D01*
X0019208Y0097217D01*
X0019280Y0097282D01*
X0019355Y0097343D01*
X0019433Y0097402D01*
X0019512Y0097457D01*
X0019594Y0097509D01*
X0019678Y0097557D01*
X0019764Y0097602D01*
X0019852Y0097644D01*
X0019941Y0097682D01*
X0020032Y0097716D01*
X0020124Y0097746D01*
X0020217Y0097773D01*
X0020312Y0097795D01*
X0020407Y0097814D01*
X0020503Y0097829D01*
X0020599Y0097840D01*
X0020696Y0097847D01*
X0020793Y0097850D01*
X0020890Y0097849D01*
X0020987Y0097844D01*
X0021083Y0097835D01*
X0021179Y0097822D01*
X0021275Y0097805D01*
X0021370Y0097784D01*
X0021463Y0097760D01*
X0021556Y0097731D01*
X0021648Y0097699D01*
X0021738Y0097663D01*
X0021826Y0097624D01*
X0021913Y0097580D01*
X0021998Y0097534D01*
X0022081Y0097483D01*
X0022162Y0097430D01*
X0022240Y0097373D01*
X0022317Y0097313D01*
X0022390Y0097250D01*
X0022461Y0097184D01*
X0022529Y0097115D01*
X0022595Y0097043D01*
X0022657Y0096969D01*
X0022716Y0096892D01*
X0022772Y0096813D01*
X0022825Y0096731D01*
X0022875Y0096648D01*
X0022920Y0096562D01*
X0022963Y0096475D01*
X0023002Y0096386D01*
X0023037Y0096296D01*
X0023068Y0096204D01*
X0023095Y0096111D01*
X0023119Y0096017D01*
X0023139Y0095922D01*
X0023155Y0095826D01*
X0023167Y0095730D01*
X0023175Y0095633D01*
X0023179Y0095536D01*
X0023179Y0095440D01*
X0023175Y0095343D01*
X0023167Y0095246D01*
X0023155Y0095150D01*
X0023139Y0095054D01*
X0023119Y0094959D01*
X0023095Y0094865D01*
X0023068Y0094772D01*
X0023037Y0094680D01*
X0023002Y0094590D01*
X0022963Y0094501D01*
X0022920Y0094414D01*
X0022875Y0094328D01*
X0022825Y0094245D01*
X0022772Y0094163D01*
X0022716Y0094084D01*
X0022657Y0094007D01*
X0022595Y0093933D01*
X0022529Y0093861D01*
X0022461Y0093792D01*
X0022390Y0093726D01*
X0022317Y0093663D01*
X0022240Y0093603D01*
X0022162Y0093546D01*
X0022081Y0093493D01*
X0021998Y0093442D01*
X0021913Y0093396D01*
X0021826Y0093352D01*
X0021738Y0093313D01*
X0021648Y0093277D01*
X0021556Y0093245D01*
X0021463Y0093216D01*
X0021370Y0093192D01*
X0021275Y0093171D01*
X0021179Y0093154D01*
X0021083Y0093141D01*
X0020987Y0093132D01*
X0020890Y0093127D01*
X0020793Y0093126D01*
X0020696Y0093129D01*
X0020599Y0093136D01*
X0020503Y0093147D01*
X0020407Y0093162D01*
X0020312Y0093181D01*
X0020217Y0093203D01*
X0020124Y0093230D01*
X0020032Y0093260D01*
X0019941Y0093294D01*
X0019852Y0093332D01*
X0019764Y0093374D01*
X0019678Y0093419D01*
X0019594Y0093467D01*
X0019512Y0093519D01*
X0019433Y0093574D01*
X0019355Y0093633D01*
X0019280Y0093694D01*
X0019208Y0093759D01*
X0019138Y0093826D01*
X0019071Y0093897D01*
X0019008Y0093970D01*
X0018947Y0094045D01*
X0018889Y0094123D01*
X0018835Y0094204D01*
X0018784Y0094286D01*
X0018736Y0094371D01*
X0018692Y0094457D01*
X0018651Y0094545D01*
X0018615Y0094635D01*
X0018581Y0094726D01*
X0018552Y0094818D01*
X0018526Y0094912D01*
X0018505Y0095006D01*
X0018487Y0095102D01*
X0018473Y0095198D01*
X0018463Y0095294D01*
X0018457Y0095391D01*
X0018455Y0095488D01*
X0046014Y0095488D02*
X0046016Y0095585D01*
X0046022Y0095682D01*
X0046032Y0095778D01*
X0046046Y0095874D01*
X0046064Y0095970D01*
X0046085Y0096064D01*
X0046111Y0096158D01*
X0046140Y0096250D01*
X0046174Y0096341D01*
X0046210Y0096431D01*
X0046251Y0096519D01*
X0046295Y0096605D01*
X0046343Y0096690D01*
X0046394Y0096772D01*
X0046448Y0096853D01*
X0046506Y0096931D01*
X0046567Y0097006D01*
X0046630Y0097079D01*
X0046697Y0097150D01*
X0046767Y0097217D01*
X0046839Y0097282D01*
X0046914Y0097343D01*
X0046992Y0097402D01*
X0047071Y0097457D01*
X0047153Y0097509D01*
X0047237Y0097557D01*
X0047323Y0097602D01*
X0047411Y0097644D01*
X0047500Y0097682D01*
X0047591Y0097716D01*
X0047683Y0097746D01*
X0047776Y0097773D01*
X0047871Y0097795D01*
X0047966Y0097814D01*
X0048062Y0097829D01*
X0048158Y0097840D01*
X0048255Y0097847D01*
X0048352Y0097850D01*
X0048449Y0097849D01*
X0048546Y0097844D01*
X0048642Y0097835D01*
X0048738Y0097822D01*
X0048834Y0097805D01*
X0048929Y0097784D01*
X0049022Y0097760D01*
X0049115Y0097731D01*
X0049207Y0097699D01*
X0049297Y0097663D01*
X0049385Y0097624D01*
X0049472Y0097580D01*
X0049557Y0097534D01*
X0049640Y0097483D01*
X0049721Y0097430D01*
X0049799Y0097373D01*
X0049876Y0097313D01*
X0049949Y0097250D01*
X0050020Y0097184D01*
X0050088Y0097115D01*
X0050154Y0097043D01*
X0050216Y0096969D01*
X0050275Y0096892D01*
X0050331Y0096813D01*
X0050384Y0096731D01*
X0050434Y0096648D01*
X0050479Y0096562D01*
X0050522Y0096475D01*
X0050561Y0096386D01*
X0050596Y0096296D01*
X0050627Y0096204D01*
X0050654Y0096111D01*
X0050678Y0096017D01*
X0050698Y0095922D01*
X0050714Y0095826D01*
X0050726Y0095730D01*
X0050734Y0095633D01*
X0050738Y0095536D01*
X0050738Y0095440D01*
X0050734Y0095343D01*
X0050726Y0095246D01*
X0050714Y0095150D01*
X0050698Y0095054D01*
X0050678Y0094959D01*
X0050654Y0094865D01*
X0050627Y0094772D01*
X0050596Y0094680D01*
X0050561Y0094590D01*
X0050522Y0094501D01*
X0050479Y0094414D01*
X0050434Y0094328D01*
X0050384Y0094245D01*
X0050331Y0094163D01*
X0050275Y0094084D01*
X0050216Y0094007D01*
X0050154Y0093933D01*
X0050088Y0093861D01*
X0050020Y0093792D01*
X0049949Y0093726D01*
X0049876Y0093663D01*
X0049799Y0093603D01*
X0049721Y0093546D01*
X0049640Y0093493D01*
X0049557Y0093442D01*
X0049472Y0093396D01*
X0049385Y0093352D01*
X0049297Y0093313D01*
X0049207Y0093277D01*
X0049115Y0093245D01*
X0049022Y0093216D01*
X0048929Y0093192D01*
X0048834Y0093171D01*
X0048738Y0093154D01*
X0048642Y0093141D01*
X0048546Y0093132D01*
X0048449Y0093127D01*
X0048352Y0093126D01*
X0048255Y0093129D01*
X0048158Y0093136D01*
X0048062Y0093147D01*
X0047966Y0093162D01*
X0047871Y0093181D01*
X0047776Y0093203D01*
X0047683Y0093230D01*
X0047591Y0093260D01*
X0047500Y0093294D01*
X0047411Y0093332D01*
X0047323Y0093374D01*
X0047237Y0093419D01*
X0047153Y0093467D01*
X0047071Y0093519D01*
X0046992Y0093574D01*
X0046914Y0093633D01*
X0046839Y0093694D01*
X0046767Y0093759D01*
X0046697Y0093826D01*
X0046630Y0093897D01*
X0046567Y0093970D01*
X0046506Y0094045D01*
X0046448Y0094123D01*
X0046394Y0094204D01*
X0046343Y0094286D01*
X0046295Y0094371D01*
X0046251Y0094457D01*
X0046210Y0094545D01*
X0046174Y0094635D01*
X0046140Y0094726D01*
X0046111Y0094818D01*
X0046085Y0094912D01*
X0046064Y0095006D01*
X0046046Y0095102D01*
X0046032Y0095198D01*
X0046022Y0095294D01*
X0046016Y0095391D01*
X0046014Y0095488D01*
X0187431Y0073402D02*
X0187433Y0073464D01*
X0187439Y0073527D01*
X0187449Y0073588D01*
X0187463Y0073649D01*
X0187480Y0073709D01*
X0187501Y0073768D01*
X0187527Y0073825D01*
X0187555Y0073880D01*
X0187587Y0073934D01*
X0187623Y0073985D01*
X0187661Y0074035D01*
X0187703Y0074081D01*
X0187747Y0074125D01*
X0187795Y0074166D01*
X0187844Y0074204D01*
X0187896Y0074238D01*
X0187950Y0074269D01*
X0188006Y0074297D01*
X0188064Y0074321D01*
X0188123Y0074342D01*
X0188183Y0074358D01*
X0188244Y0074371D01*
X0188306Y0074380D01*
X0188368Y0074385D01*
X0188431Y0074386D01*
X0188493Y0074383D01*
X0188555Y0074376D01*
X0188617Y0074365D01*
X0188677Y0074350D01*
X0188737Y0074332D01*
X0188795Y0074310D01*
X0188852Y0074284D01*
X0188907Y0074254D01*
X0188960Y0074221D01*
X0189011Y0074185D01*
X0189059Y0074146D01*
X0189105Y0074103D01*
X0189148Y0074058D01*
X0189188Y0074010D01*
X0189225Y0073960D01*
X0189259Y0073907D01*
X0189290Y0073853D01*
X0189316Y0073797D01*
X0189340Y0073739D01*
X0189359Y0073679D01*
X0189375Y0073619D01*
X0189387Y0073557D01*
X0189395Y0073496D01*
X0189399Y0073433D01*
X0189399Y0073371D01*
X0189395Y0073308D01*
X0189387Y0073247D01*
X0189375Y0073185D01*
X0189359Y0073125D01*
X0189340Y0073065D01*
X0189316Y0073007D01*
X0189290Y0072951D01*
X0189259Y0072897D01*
X0189225Y0072844D01*
X0189188Y0072794D01*
X0189148Y0072746D01*
X0189105Y0072701D01*
X0189059Y0072658D01*
X0189011Y0072619D01*
X0188960Y0072583D01*
X0188907Y0072550D01*
X0188852Y0072520D01*
X0188795Y0072494D01*
X0188737Y0072472D01*
X0188677Y0072454D01*
X0188617Y0072439D01*
X0188555Y0072428D01*
X0188493Y0072421D01*
X0188431Y0072418D01*
X0188368Y0072419D01*
X0188306Y0072424D01*
X0188244Y0072433D01*
X0188183Y0072446D01*
X0188123Y0072462D01*
X0188064Y0072483D01*
X0188006Y0072507D01*
X0187950Y0072535D01*
X0187896Y0072566D01*
X0187844Y0072600D01*
X0187795Y0072638D01*
X0187747Y0072679D01*
X0187703Y0072723D01*
X0187661Y0072769D01*
X0187623Y0072819D01*
X0187587Y0072870D01*
X0187555Y0072924D01*
X0187527Y0072979D01*
X0187501Y0073036D01*
X0187480Y0073095D01*
X0187463Y0073155D01*
X0187449Y0073216D01*
X0187439Y0073277D01*
X0187433Y0073340D01*
X0187431Y0073402D01*
X0187431Y0057654D02*
X0187433Y0057716D01*
X0187439Y0057779D01*
X0187449Y0057840D01*
X0187463Y0057901D01*
X0187480Y0057961D01*
X0187501Y0058020D01*
X0187527Y0058077D01*
X0187555Y0058132D01*
X0187587Y0058186D01*
X0187623Y0058237D01*
X0187661Y0058287D01*
X0187703Y0058333D01*
X0187747Y0058377D01*
X0187795Y0058418D01*
X0187844Y0058456D01*
X0187896Y0058490D01*
X0187950Y0058521D01*
X0188006Y0058549D01*
X0188064Y0058573D01*
X0188123Y0058594D01*
X0188183Y0058610D01*
X0188244Y0058623D01*
X0188306Y0058632D01*
X0188368Y0058637D01*
X0188431Y0058638D01*
X0188493Y0058635D01*
X0188555Y0058628D01*
X0188617Y0058617D01*
X0188677Y0058602D01*
X0188737Y0058584D01*
X0188795Y0058562D01*
X0188852Y0058536D01*
X0188907Y0058506D01*
X0188960Y0058473D01*
X0189011Y0058437D01*
X0189059Y0058398D01*
X0189105Y0058355D01*
X0189148Y0058310D01*
X0189188Y0058262D01*
X0189225Y0058212D01*
X0189259Y0058159D01*
X0189290Y0058105D01*
X0189316Y0058049D01*
X0189340Y0057991D01*
X0189359Y0057931D01*
X0189375Y0057871D01*
X0189387Y0057809D01*
X0189395Y0057748D01*
X0189399Y0057685D01*
X0189399Y0057623D01*
X0189395Y0057560D01*
X0189387Y0057499D01*
X0189375Y0057437D01*
X0189359Y0057377D01*
X0189340Y0057317D01*
X0189316Y0057259D01*
X0189290Y0057203D01*
X0189259Y0057149D01*
X0189225Y0057096D01*
X0189188Y0057046D01*
X0189148Y0056998D01*
X0189105Y0056953D01*
X0189059Y0056910D01*
X0189011Y0056871D01*
X0188960Y0056835D01*
X0188907Y0056802D01*
X0188852Y0056772D01*
X0188795Y0056746D01*
X0188737Y0056724D01*
X0188677Y0056706D01*
X0188617Y0056691D01*
X0188555Y0056680D01*
X0188493Y0056673D01*
X0188431Y0056670D01*
X0188368Y0056671D01*
X0188306Y0056676D01*
X0188244Y0056685D01*
X0188183Y0056698D01*
X0188123Y0056714D01*
X0188064Y0056735D01*
X0188006Y0056759D01*
X0187950Y0056787D01*
X0187896Y0056818D01*
X0187844Y0056852D01*
X0187795Y0056890D01*
X0187747Y0056931D01*
X0187703Y0056975D01*
X0187661Y0057021D01*
X0187623Y0057071D01*
X0187587Y0057122D01*
X0187555Y0057176D01*
X0187527Y0057231D01*
X0187501Y0057288D01*
X0187480Y0057347D01*
X0187463Y0057407D01*
X0187449Y0057468D01*
X0187439Y0057529D01*
X0187433Y0057592D01*
X0187431Y0057654D01*
D11*
X0139006Y0120803D03*
D12*
X0119006Y0120803D03*
D13*
X0041919Y0013283D03*
X0041919Y0007772D03*
X0027746Y0007772D03*
X0027746Y0013283D03*
D14*
X0163204Y0117806D02*
X0168404Y0117806D01*
X0168404Y0127649D02*
X0163204Y0127649D01*
X0163204Y0137491D02*
X0168404Y0137491D01*
D15*
X0027864Y0145409D03*
X0027864Y0125409D03*
D16*
X0032864Y0135409D03*
D17*
X0177418Y0133067D03*
X0177418Y0138067D03*
X0177418Y0143067D03*
X0177418Y0148067D03*
X0201618Y0148067D03*
X0201618Y0143067D03*
X0201618Y0138067D03*
X0201618Y0133067D03*
X0201618Y0128067D03*
X0201618Y0123067D03*
X0201618Y0118067D03*
X0201618Y0113067D03*
X0177418Y0113067D03*
X0177418Y0118067D03*
X0177418Y0123067D03*
X0177418Y0128067D03*
D18*
X0152864Y0125409D03*
X0144833Y0128008D03*
X0144833Y0135488D03*
X0152864Y0132890D03*
X0039636Y0058638D03*
X0039636Y0051157D03*
X0034872Y0040921D03*
X0034872Y0033441D03*
X0049478Y0015567D03*
X0049478Y0008087D03*
X0031053Y0091000D03*
X0031053Y0098480D03*
X0185659Y0043283D03*
X0185659Y0035803D03*
X0199990Y0029543D03*
X0199990Y0022063D03*
D19*
X0200581Y0097693D03*
X0204321Y0106354D03*
X0196841Y0106354D03*
X0186053Y0106236D03*
X0178573Y0106236D03*
X0182313Y0097575D03*
D20*
X0187864Y0090488D03*
X0195344Y0090488D03*
X0130581Y0145843D03*
X0123100Y0145843D03*
X0043219Y0068717D03*
X0035738Y0068717D03*
X0184951Y0026079D03*
X0192431Y0026079D03*
D21*
X0102589Y0079150D03*
X0097589Y0079150D03*
X0092589Y0079150D03*
X0087589Y0079150D03*
X0082589Y0079150D03*
X0077589Y0079150D03*
X0072589Y0079150D03*
X0067589Y0079150D03*
X0062589Y0079150D03*
X0057589Y0079150D03*
X0052589Y0079150D03*
X0047589Y0079150D03*
X0042589Y0079150D03*
X0098140Y0145150D03*
X0103140Y0145150D03*
D22*
X0185659Y0070646D03*
X0185659Y0068087D03*
X0185659Y0065528D03*
X0185659Y0062969D03*
X0185659Y0060409D03*
D23*
X0196880Y0049780D03*
X0196880Y0081276D03*
D24*
X0175226Y0080213D03*
X0175226Y0086118D03*
X0175226Y0074307D03*
X0175226Y0068402D03*
X0175226Y0062496D03*
X0175226Y0056591D03*
X0175226Y0050685D03*
X0175226Y0044780D03*
X0175226Y0038874D03*
X0175226Y0032969D03*
X0175226Y0027063D03*
X0175226Y0021157D03*
X0175226Y0015252D03*
X0124045Y0015252D03*
X0124045Y0021157D03*
X0124045Y0027063D03*
X0124045Y0032969D03*
X0124045Y0038874D03*
X0124045Y0044780D03*
X0124045Y0050685D03*
X0124045Y0056591D03*
X0124045Y0062496D03*
X0124045Y0068402D03*
X0124045Y0074307D03*
X0124045Y0080213D03*
X0124045Y0086118D03*
D25*
X0128967Y0008362D03*
X0134872Y0008362D03*
X0140778Y0008362D03*
X0146683Y0008362D03*
X0152589Y0008362D03*
X0158494Y0008362D03*
X0164400Y0008362D03*
X0170305Y0008362D03*
D26*
X0022037Y0100961D03*
X0013770Y0100961D03*
X0014006Y0111000D03*
X0022274Y0111000D03*
X0015148Y0088165D03*
X0015148Y0079898D03*
D27*
X0057510Y0055961D03*
X0057510Y0050961D03*
X0057510Y0045961D03*
X0057510Y0040961D03*
X0057510Y0035961D03*
X0057510Y0030961D03*
X0057510Y0025961D03*
X0057510Y0020961D03*
X0110510Y0020961D03*
X0110510Y0025961D03*
X0110510Y0030961D03*
X0110510Y0035961D03*
X0110510Y0040961D03*
X0110510Y0045961D03*
X0110510Y0050961D03*
X0110510Y0055961D03*
D28*
X0101510Y0059961D03*
X0096510Y0059961D03*
X0091510Y0059961D03*
X0086510Y0059961D03*
X0081510Y0059961D03*
X0076510Y0059961D03*
X0071510Y0059961D03*
X0066510Y0059961D03*
D29*
X0112077Y0128559D03*
X0120738Y0132299D03*
X0127904Y0131787D03*
X0136565Y0128047D03*
X0136565Y0135528D03*
X0112077Y0136039D03*
X0183612Y0016945D03*
X0183612Y0009465D03*
X0192274Y0013205D03*
D30*
X0020148Y0018008D03*
X0020148Y0025882D03*
X0020148Y0033756D03*
D31*
X0020148Y0043205D03*
X0020148Y0008559D03*
D32*
X0019459Y0050843D03*
X0014459Y0050843D03*
X0024459Y0050843D03*
X0029459Y0050843D03*
X0029459Y0072496D03*
X0024459Y0072496D03*
X0019459Y0072496D03*
X0014459Y0072496D03*
D33*
X0021959Y0061669D03*
D34*
X0046211Y0040134D03*
X0195817Y0040134D03*
D35*
X0190738Y0045400D02*
X0190738Y0029800D01*
X0199938Y0029800D01*
X0199990Y0029543D01*
X0204338Y0026200D02*
X0204338Y0063800D01*
X0195138Y0073000D01*
X0195138Y0074600D01*
X0179138Y0090600D01*
X0179138Y0102200D01*
X0181138Y0102200D01*
X0181938Y0103000D01*
X0181938Y0108600D01*
X0186738Y0113400D01*
X0186738Y0113800D01*
X0184738Y0115800D01*
X0184738Y0119400D01*
X0187138Y0121800D01*
X0187138Y0127800D01*
X0187538Y0130600D02*
X0192138Y0135200D01*
X0199138Y0128200D01*
X0201538Y0128200D01*
X0201618Y0128067D01*
X0201538Y0123400D02*
X0199138Y0123400D01*
X0191538Y0131000D01*
X0187538Y0130600D02*
X0172738Y0130600D01*
X0170738Y0132600D01*
X0153138Y0132600D01*
X0152864Y0132890D01*
X0144833Y0135488D02*
X0144738Y0135400D01*
X0136738Y0135400D01*
X0136565Y0135528D01*
X0134338Y0139800D02*
X0131938Y0137400D01*
X0131938Y0129400D01*
X0125738Y0123200D01*
X0141938Y0107000D01*
X0159538Y0107000D01*
X0164338Y0102200D01*
X0179138Y0102200D01*
X0178573Y0106236D02*
X0178338Y0106600D01*
X0169138Y0106600D01*
X0153138Y0122600D01*
X0153138Y0125400D01*
X0152864Y0125409D01*
X0144738Y0123400D02*
X0144738Y0127800D01*
X0144833Y0128008D01*
X0140338Y0131800D02*
X0136738Y0128200D01*
X0136565Y0128047D01*
X0136338Y0127800D01*
X0136338Y0126200D01*
X0134338Y0124200D01*
X0134338Y0117400D01*
X0143138Y0108600D01*
X0163538Y0108600D01*
X0159138Y0103800D02*
X0159138Y0102200D01*
X0171738Y0089600D01*
X0169138Y0087000D01*
X0171738Y0089600D02*
X0175138Y0086200D01*
X0175226Y0086118D01*
X0176338Y0090200D02*
X0168338Y0098200D01*
X0165938Y0089000D02*
X0159938Y0089000D01*
X0143538Y0105400D01*
X0115938Y0105400D01*
X0105538Y0115800D01*
X0098338Y0115800D01*
X0091138Y0119800D02*
X0084338Y0126600D01*
X0091138Y0119800D02*
X0110338Y0119800D01*
X0115938Y0125400D01*
X0120338Y0125400D01*
X0124538Y0129600D01*
X0126338Y0127800D01*
X0124538Y0129600D02*
X0126338Y0131400D01*
X0127538Y0131400D01*
X0127904Y0131787D01*
X0129538Y0136600D02*
X0130338Y0137400D01*
X0130338Y0145800D01*
X0130581Y0145843D01*
X0133538Y0150200D02*
X0113938Y0150200D01*
X0104738Y0141000D01*
X0101538Y0141000D01*
X0097538Y0145000D01*
X0098140Y0145150D01*
X0097938Y0145400D01*
X0037938Y0145400D01*
X0037938Y0146200D01*
X0037938Y0145400D02*
X0027938Y0145400D01*
X0027864Y0145409D01*
X0027938Y0145000D01*
X0027938Y0125800D01*
X0027864Y0125409D01*
X0029138Y0120600D02*
X0035938Y0120600D01*
X0037538Y0122200D01*
X0037538Y0129800D01*
X0039538Y0131800D01*
X0048338Y0131800D01*
X0074338Y0105800D01*
X0113138Y0105800D01*
X0117938Y0101000D01*
X0126738Y0091000D02*
X0104738Y0091000D01*
X0102338Y0093800D02*
X0102338Y0085000D01*
X0106738Y0080600D01*
X0106738Y0072600D01*
X0102738Y0073000D02*
X0115938Y0059800D01*
X0115938Y0049000D01*
X0113138Y0046200D01*
X0110738Y0046200D01*
X0110510Y0045961D01*
X0110338Y0050600D02*
X0104338Y0050600D01*
X0104338Y0054200D02*
X0108738Y0054200D01*
X0110338Y0055800D01*
X0110510Y0055961D01*
X0110510Y0050961D02*
X0110338Y0050600D01*
X0117538Y0045400D02*
X0117538Y0065800D01*
X0121938Y0068600D02*
X0123938Y0068600D01*
X0124045Y0068402D01*
X0124338Y0068200D01*
X0125938Y0068200D01*
X0129138Y0065000D01*
X0129138Y0030600D01*
X0125938Y0027400D01*
X0124338Y0027400D01*
X0124045Y0027063D01*
X0116338Y0031000D02*
X0110738Y0031000D01*
X0110510Y0030961D01*
X0110510Y0025961D02*
X0110338Y0025800D01*
X0089138Y0025800D01*
X0089138Y0046600D01*
X0086738Y0047800D02*
X0096338Y0057400D01*
X0096338Y0059800D01*
X0096510Y0059961D01*
X0091538Y0060200D02*
X0091510Y0059961D01*
X0091538Y0060200D02*
X0091538Y0062200D01*
X0094338Y0065000D01*
X0094338Y0066200D01*
X0091538Y0068200D02*
X0090738Y0069000D01*
X0085538Y0069000D01*
X0081538Y0065000D01*
X0081538Y0060200D01*
X0081510Y0059961D01*
X0081138Y0059800D01*
X0079138Y0057800D01*
X0079138Y0054200D01*
X0076510Y0059961D02*
X0076738Y0060200D01*
X0076738Y0062600D01*
X0084738Y0070600D01*
X0091938Y0070600D01*
X0097538Y0076200D01*
X0097538Y0079000D01*
X0097589Y0079150D01*
X0095138Y0076200D02*
X0091138Y0072200D01*
X0081538Y0072200D01*
X0071538Y0062200D01*
X0071538Y0060200D01*
X0071510Y0059961D01*
X0066738Y0060200D02*
X0066738Y0062600D01*
X0078738Y0074600D01*
X0086738Y0074600D01*
X0095138Y0076200D02*
X0095138Y0082200D01*
X0090738Y0086600D01*
X0090738Y0096600D01*
X0091938Y0099000D02*
X0093538Y0097400D01*
X0093538Y0092200D01*
X0095938Y0094200D02*
X0095938Y0086600D01*
X0095138Y0085800D01*
X0098338Y0084600D02*
X0098338Y0095400D01*
X0093138Y0100600D01*
X0078338Y0100600D01*
X0077138Y0099400D01*
X0063938Y0099400D01*
X0062738Y0101800D02*
X0075938Y0101800D01*
X0079538Y0099000D02*
X0075138Y0094600D01*
X0071938Y0094200D02*
X0078738Y0087400D01*
X0088338Y0087400D01*
X0102338Y0093800D02*
X0091938Y0104200D01*
X0062738Y0104200D01*
X0042738Y0084200D01*
X0042738Y0079400D01*
X0042589Y0079150D01*
X0047589Y0079150D02*
X0047938Y0079400D01*
X0047938Y0080200D01*
X0050738Y0083000D01*
X0054338Y0083000D01*
X0055138Y0082200D01*
X0055138Y0061000D01*
X0052338Y0058200D01*
X0052338Y0053800D01*
X0055138Y0051000D01*
X0057138Y0051000D01*
X0057510Y0050961D01*
X0057138Y0046200D02*
X0057510Y0045961D01*
X0057138Y0046200D02*
X0055138Y0046200D01*
X0050738Y0050600D01*
X0050738Y0059000D01*
X0052338Y0060600D01*
X0052338Y0079000D01*
X0052589Y0079150D01*
X0048738Y0075400D02*
X0039138Y0075400D01*
X0034738Y0079800D01*
X0034738Y0080200D01*
X0041938Y0087400D01*
X0041938Y0095000D01*
X0042738Y0095000D01*
X0041938Y0095000D02*
X0041938Y0104600D01*
X0041538Y0105000D01*
X0041538Y0127800D01*
X0040338Y0130200D02*
X0039138Y0129000D01*
X0039138Y0105000D01*
X0040338Y0103800D01*
X0040338Y0088600D01*
X0033938Y0082200D01*
X0027938Y0082200D01*
X0024738Y0079000D01*
X0024738Y0072600D01*
X0024459Y0072496D01*
X0021938Y0069800D02*
X0021938Y0069400D01*
X0023538Y0067800D01*
X0029538Y0067800D01*
X0032738Y0064600D01*
X0047538Y0064600D01*
X0049138Y0062600D02*
X0049938Y0063400D01*
X0049938Y0074200D01*
X0048738Y0075400D01*
X0047538Y0073000D02*
X0043538Y0069000D01*
X0043219Y0068717D01*
X0043138Y0069000D01*
X0034738Y0077400D01*
X0029138Y0077400D01*
X0026738Y0078600D02*
X0026738Y0075800D01*
X0029138Y0073400D01*
X0029138Y0072600D01*
X0029459Y0072496D01*
X0029938Y0072600D01*
X0033538Y0069000D01*
X0035538Y0069000D01*
X0035738Y0068717D01*
X0026738Y0078600D02*
X0027938Y0079800D01*
X0034738Y0079800D01*
X0027938Y0084600D02*
X0023538Y0080200D01*
X0015538Y0080200D01*
X0015148Y0079898D01*
X0014459Y0072496D02*
X0014738Y0072200D01*
X0014738Y0070600D01*
X0017138Y0068200D01*
X0019538Y0072200D02*
X0021938Y0069800D01*
X0019538Y0072200D02*
X0019459Y0072496D01*
X0027938Y0087000D02*
X0036338Y0087000D01*
X0038338Y0089000D01*
X0038338Y0095000D01*
X0037938Y0095000D01*
X0038338Y0095000D02*
X0038338Y0098600D01*
X0025938Y0111000D01*
X0022274Y0111000D01*
X0015938Y0111000D02*
X0022338Y0104600D01*
X0024738Y0104600D01*
X0030738Y0098600D01*
X0031053Y0098480D01*
X0026738Y0095400D02*
X0026738Y0088200D01*
X0027938Y0087000D01*
X0031138Y0091000D02*
X0031938Y0090200D01*
X0035938Y0090200D01*
X0031138Y0091000D02*
X0031053Y0091000D01*
X0026738Y0095400D02*
X0022338Y0099800D01*
X0022338Y0100600D01*
X0022037Y0100961D01*
X0016738Y0096600D02*
X0016738Y0093800D01*
X0021538Y0089000D01*
X0015148Y0088165D02*
X0015138Y0088200D01*
X0015138Y0094600D01*
X0014338Y0095400D01*
X0016738Y0096600D02*
X0013938Y0099400D01*
X0013938Y0100600D01*
X0013770Y0100961D01*
X0014006Y0111000D02*
X0015938Y0111000D01*
X0043938Y0115400D02*
X0048338Y0111000D01*
X0052338Y0111000D01*
X0062738Y0101800D02*
X0053538Y0092600D01*
X0053538Y0091400D01*
X0057138Y0092600D02*
X0067538Y0082200D01*
X0067538Y0079400D01*
X0067589Y0079150D01*
X0067138Y0079000D01*
X0067138Y0067400D01*
X0062738Y0059800D02*
X0057938Y0064600D01*
X0057938Y0079000D01*
X0057589Y0079150D01*
X0062338Y0079000D02*
X0062338Y0075800D01*
X0060338Y0073800D01*
X0062338Y0079000D02*
X0062589Y0079150D01*
X0070738Y0094200D02*
X0071938Y0094200D01*
X0079538Y0099000D02*
X0091938Y0099000D01*
X0113138Y0088600D02*
X0113138Y0077400D01*
X0121938Y0068600D01*
X0106738Y0065400D02*
X0101538Y0060200D01*
X0101510Y0059961D01*
X0086738Y0060200D02*
X0086510Y0059961D01*
X0086738Y0060200D02*
X0086738Y0066600D01*
X0102738Y0073000D02*
X0102738Y0079000D01*
X0102589Y0079150D01*
X0126738Y0091000D02*
X0144338Y0073400D01*
X0162738Y0073400D01*
X0165138Y0072200D02*
X0131538Y0038600D01*
X0118738Y0035000D02*
X0118738Y0019000D01*
X0122338Y0015400D01*
X0123538Y0015400D01*
X0124045Y0015252D01*
X0124338Y0015000D01*
X0128738Y0010600D01*
X0128738Y0008600D01*
X0128967Y0008362D01*
X0129138Y0010600D01*
X0129938Y0010600D01*
X0139538Y0020200D01*
X0168338Y0020200D01*
X0173138Y0015400D01*
X0174738Y0015400D01*
X0175226Y0015252D01*
X0175538Y0015000D01*
X0179138Y0015000D01*
X0180338Y0013800D01*
X0187138Y0013800D01*
X0188338Y0015000D01*
X0188338Y0019800D01*
X0192338Y0023800D01*
X0192338Y0025800D01*
X0192431Y0026079D01*
X0192338Y0026200D01*
X0190738Y0027800D01*
X0190738Y0029800D01*
X0188738Y0032200D02*
X0188738Y0022600D01*
X0183538Y0017400D01*
X0183612Y0016945D01*
X0183538Y0017000D01*
X0181138Y0017000D01*
X0177138Y0021000D01*
X0175538Y0021000D01*
X0175226Y0021157D01*
X0168338Y0020200D02*
X0168338Y0075800D01*
X0165138Y0074600D02*
X0165138Y0072200D01*
X0165138Y0074600D02*
X0147138Y0092600D01*
X0147138Y0098200D01*
X0175226Y0080213D02*
X0175538Y0080200D01*
X0177138Y0080200D01*
X0180338Y0077000D01*
X0181138Y0077000D01*
X0181138Y0058600D01*
X0185538Y0060200D02*
X0185659Y0060409D01*
X0185538Y0060200D02*
X0185538Y0050600D01*
X0190738Y0045400D01*
X0185659Y0043283D02*
X0185538Y0043000D01*
X0180338Y0037800D01*
X0180338Y0030600D01*
X0177138Y0027400D01*
X0175538Y0027400D01*
X0175226Y0027063D01*
X0184951Y0026079D02*
X0185138Y0026200D01*
X0185138Y0029800D01*
X0186338Y0031000D01*
X0188738Y0032200D02*
X0185938Y0035000D01*
X0185938Y0035800D01*
X0185659Y0035803D01*
X0199990Y0022063D02*
X0200338Y0022200D01*
X0204338Y0026200D01*
X0199990Y0022063D02*
X0199938Y0021800D01*
X0192338Y0014200D01*
X0192338Y0013400D01*
X0192274Y0013205D01*
X0183538Y0009800D02*
X0183612Y0009465D01*
X0183538Y0009800D02*
X0174338Y0009800D01*
X0118738Y0035000D02*
X0113138Y0040600D01*
X0110738Y0040600D01*
X0110510Y0040961D01*
X0113138Y0041000D01*
X0117538Y0045400D01*
X0110338Y0036200D02*
X0107938Y0036200D01*
X0105538Y0038600D01*
X0104738Y0038600D01*
X0110338Y0036200D02*
X0110510Y0035961D01*
X0110738Y0021000D02*
X0110510Y0020961D01*
X0110738Y0021000D02*
X0116338Y0021000D01*
X0089138Y0025800D02*
X0074338Y0025800D01*
X0052338Y0003800D01*
X0018338Y0003800D01*
X0015138Y0007000D01*
X0015138Y0010200D01*
X0018338Y0013400D01*
X0021938Y0013400D01*
X0024738Y0010600D01*
X0030738Y0010600D01*
X0031538Y0011400D01*
X0031538Y0029400D01*
X0029938Y0031000D01*
X0029938Y0035800D01*
X0034738Y0040600D01*
X0034872Y0040921D01*
X0031938Y0045400D02*
X0047938Y0045400D01*
X0052338Y0041000D01*
X0052338Y0039000D01*
X0055138Y0036200D01*
X0057138Y0036200D01*
X0057510Y0035961D01*
X0057510Y0040961D02*
X0057538Y0041000D01*
X0059938Y0041000D01*
X0062738Y0043800D01*
X0062738Y0059800D01*
X0066338Y0059800D02*
X0066510Y0059961D01*
X0066738Y0060200D01*
X0066338Y0059800D02*
X0066338Y0043800D01*
X0051538Y0046200D02*
X0051538Y0047400D01*
X0049138Y0049800D01*
X0049138Y0062600D01*
X0057538Y0061400D02*
X0057538Y0056200D01*
X0057510Y0055961D01*
X0045938Y0054600D02*
X0043938Y0054600D01*
X0043938Y0048200D01*
X0043138Y0047400D01*
X0029138Y0047400D01*
X0029138Y0045400D01*
X0021938Y0038200D01*
X0018338Y0038200D01*
X0015138Y0041400D01*
X0015138Y0045000D01*
X0019138Y0049000D01*
X0019138Y0050600D01*
X0019459Y0050843D01*
X0014459Y0050843D02*
X0014338Y0050600D01*
X0014338Y0046600D01*
X0013538Y0045800D01*
X0013538Y0035400D01*
X0019538Y0029400D01*
X0021538Y0029400D01*
X0025138Y0025800D01*
X0025138Y0020200D01*
X0027538Y0013400D02*
X0027746Y0013283D01*
X0027538Y0013400D02*
X0027538Y0041000D01*
X0031938Y0045400D01*
X0029138Y0047400D02*
X0029138Y0050600D01*
X0029459Y0050843D01*
X0027538Y0054600D02*
X0024738Y0051800D01*
X0024738Y0051000D01*
X0024459Y0050843D01*
X0027538Y0054600D02*
X0036338Y0054600D01*
X0039538Y0051400D01*
X0039636Y0051157D01*
X0043938Y0054600D02*
X0039938Y0058600D01*
X0039636Y0058638D01*
X0035138Y0033400D02*
X0034872Y0033441D01*
X0035138Y0033400D02*
X0052738Y0033400D01*
X0055138Y0031000D01*
X0057138Y0031000D01*
X0057510Y0030961D01*
X0049538Y0031000D02*
X0049538Y0015800D01*
X0049478Y0015567D01*
X0045938Y0011800D02*
X0055538Y0011800D01*
X0086738Y0043000D01*
X0086738Y0047800D01*
X0047138Y0024600D02*
X0030338Y0007800D01*
X0027938Y0007800D01*
X0027746Y0007772D01*
X0041919Y0007772D02*
X0041938Y0007800D01*
X0049138Y0007800D01*
X0049478Y0008087D01*
X0045938Y0011800D02*
X0044738Y0013000D01*
X0041938Y0013000D01*
X0041919Y0013283D01*
X0020148Y0025882D02*
X0019938Y0025800D01*
X0016738Y0022600D01*
X0016738Y0021000D01*
X0067538Y0106600D02*
X0043938Y0130200D01*
X0040338Y0130200D01*
X0055138Y0141400D02*
X0057938Y0141400D01*
X0057938Y0125800D01*
X0057938Y0141400D02*
X0065938Y0141400D01*
X0089138Y0118200D01*
X0116338Y0118200D01*
X0118738Y0120600D01*
X0119006Y0120803D01*
X0119138Y0121000D01*
X0123538Y0121000D01*
X0125738Y0123200D01*
X0116738Y0128200D02*
X0120738Y0132200D01*
X0120738Y0132299D01*
X0116738Y0134200D02*
X0116738Y0139800D01*
X0122738Y0145800D01*
X0123100Y0145843D01*
X0133538Y0150200D02*
X0142338Y0141400D01*
X0146338Y0141400D01*
X0160338Y0141400D01*
X0160338Y0141800D01*
X0160338Y0141400D02*
X0167138Y0141400D01*
X0173538Y0147800D01*
X0177138Y0147800D01*
X0177418Y0148067D01*
X0181938Y0150600D02*
X0149938Y0150600D01*
X0134338Y0141400D02*
X0134338Y0139800D01*
X0116738Y0134200D02*
X0112338Y0129800D01*
X0112338Y0128600D01*
X0112077Y0128559D01*
X0111538Y0124600D02*
X0098338Y0124600D01*
X0095938Y0122200D01*
X0112077Y0136039D02*
X0112338Y0136200D01*
X0112338Y0140200D01*
X0165804Y0137491D02*
X0165938Y0137800D01*
X0168738Y0140600D01*
X0181938Y0140600D01*
X0185138Y0137400D01*
X0185538Y0137400D01*
X0194338Y0146200D01*
X0194738Y0137800D02*
X0201538Y0137800D01*
X0201618Y0138067D01*
X0194738Y0137800D02*
X0192138Y0135200D01*
X0185138Y0133400D02*
X0185138Y0137400D01*
X0183538Y0146200D02*
X0183538Y0149000D01*
X0181938Y0150600D01*
X0201538Y0123400D02*
X0201618Y0123067D01*
X0201538Y0118200D02*
X0201618Y0118067D01*
X0201538Y0118200D02*
X0187138Y0118200D01*
X0186738Y0113400D02*
X0201538Y0113400D01*
X0201618Y0113067D01*
X0199938Y0110600D02*
X0203938Y0106600D01*
X0204321Y0106354D01*
X0199938Y0110600D02*
X0194738Y0110600D01*
X0194738Y0111000D01*
X0194738Y0110600D02*
X0190738Y0106600D01*
X0186338Y0106600D01*
X0186053Y0106236D01*
X0196738Y0106200D02*
X0196841Y0106354D01*
X0196738Y0106200D02*
X0184338Y0093800D01*
X0182338Y0095800D01*
X0182338Y0097400D01*
X0182313Y0097575D01*
X0184338Y0093800D02*
X0187538Y0090600D01*
X0187864Y0090488D01*
X0195344Y0090488D02*
X0195538Y0090200D01*
X0196738Y0090200D01*
X0200738Y0086200D01*
X0200738Y0071000D01*
X0203138Y0075800D02*
X0203138Y0086200D01*
X0200738Y0088600D01*
X0200738Y0097400D01*
X0200581Y0097693D01*
X0189138Y0077000D02*
X0193538Y0072600D01*
X0193538Y0069800D01*
X0189538Y0065800D01*
X0185938Y0065800D01*
X0185659Y0065528D01*
X0185659Y0068087D02*
X0185938Y0068200D01*
X0188338Y0068200D01*
X0191138Y0071000D01*
X0185659Y0070646D02*
X0185538Y0071000D01*
X0183538Y0073000D01*
X0183538Y0073400D01*
D36*
X0183538Y0073400D03*
X0181138Y0077000D03*
X0189138Y0077000D03*
X0191138Y0071000D03*
X0200738Y0071000D03*
X0203138Y0075800D03*
X0181138Y0058600D03*
X0162738Y0073400D03*
X0168338Y0075800D03*
X0169138Y0087000D03*
X0165938Y0089000D03*
X0176338Y0090200D03*
X0168338Y0098200D03*
X0159138Y0103800D03*
X0163538Y0108600D03*
X0147138Y0098200D03*
X0117938Y0101000D03*
X0104738Y0091000D03*
X0113138Y0088600D03*
X0098338Y0084600D03*
X0095138Y0085800D03*
X0088338Y0087400D03*
X0093538Y0092200D03*
X0095938Y0094200D03*
X0090738Y0096600D03*
X0075938Y0101800D03*
X0067538Y0106600D03*
X0063938Y0099400D03*
X0070738Y0094200D03*
X0075138Y0094600D03*
X0057138Y0092600D03*
X0053538Y0091400D03*
X0042738Y0095000D03*
X0037938Y0095000D03*
X0035938Y0090200D03*
X0027938Y0084600D03*
X0021538Y0089000D03*
X0014338Y0095400D03*
X0029138Y0077400D03*
X0017138Y0068200D03*
X0045938Y0054600D03*
X0051538Y0046200D03*
X0066338Y0043800D03*
X0079138Y0054200D03*
X0089138Y0046600D03*
X0104338Y0050600D03*
X0104338Y0054200D03*
X0106738Y0065400D03*
X0106738Y0072600D03*
X0117538Y0065800D03*
X0094338Y0066200D03*
X0091538Y0068200D03*
X0086738Y0066600D03*
X0086738Y0074600D03*
X0067138Y0067400D03*
X0060338Y0073800D03*
X0047538Y0073000D03*
X0047538Y0064600D03*
X0057538Y0061400D03*
X0029938Y0035800D03*
X0047138Y0024600D03*
X0049538Y0031000D03*
X0025138Y0020200D03*
X0016738Y0021000D03*
X0104738Y0038600D03*
X0116338Y0031000D03*
X0116338Y0021000D03*
X0131538Y0038600D03*
X0174338Y0009800D03*
X0186338Y0031000D03*
X0194738Y0111000D03*
X0187138Y0118200D03*
X0187138Y0127800D03*
X0191538Y0131000D03*
X0185138Y0133400D03*
X0183538Y0146200D03*
X0194338Y0146200D03*
X0160338Y0141800D03*
X0149938Y0150600D03*
X0146338Y0141400D03*
X0140338Y0131800D03*
X0144738Y0123400D03*
X0126338Y0127800D03*
X0116738Y0128200D03*
X0111538Y0124600D03*
X0098338Y0115800D03*
X0095938Y0122200D03*
X0084338Y0126600D03*
X0057938Y0125800D03*
X0043938Y0115400D03*
X0052338Y0111000D03*
X0041538Y0127800D03*
X0029138Y0120600D03*
X0055138Y0141400D03*
X0045138Y0149400D03*
X0037938Y0146200D03*
X0112338Y0140200D03*
X0129538Y0136600D03*
X0134338Y0141400D03*
D37*
X0103140Y0145150D02*
X0103138Y0145400D01*
X0103138Y0146200D01*
X0099938Y0149400D01*
X0045138Y0149400D01*
M02*
