G75*
%MOIN*%
%OFA0B0*%
%FSLAX25Y25*%
%IPPOS*%
%LPD*%
%AMOC8*
5,1,8,0,0,1.08239X$1,22.5*
%
%ADD10C,0.00000*%
%ADD11R,1.82244X0.03228*%
%ADD12R,1.73228X0.03150*%
%ADD13C,0.00800*%
%ADD14C,0.00600*%
%ADD15C,0.00200*%
%ADD16C,0.00300*%
%ADD17C,0.00500*%
%ADD18C,0.01000*%
%ADD19C,0.00100*%
%ADD20C,0.00400*%
%ADD21R,0.00591X0.01181*%
%ADD22R,0.01181X0.01181*%
%ADD23C,0.01761*%
%ADD24R,0.01181X0.00591*%
D10*
X0010738Y0006895D02*
X0010738Y0114484D01*
X0010740Y0114588D01*
X0010746Y0114692D01*
X0010755Y0114796D01*
X0010768Y0114900D01*
X0010785Y0115002D01*
X0010806Y0115105D01*
X0010831Y0115206D01*
X0010859Y0115306D01*
X0010891Y0115406D01*
X0010926Y0115504D01*
X0010965Y0115600D01*
X0011008Y0115695D01*
X0011054Y0115789D01*
X0011103Y0115881D01*
X0011156Y0115971D01*
X0011212Y0116059D01*
X0011271Y0116145D01*
X0011333Y0116228D01*
X0011398Y0116310D01*
X0011466Y0116389D01*
X0011537Y0116465D01*
X0011611Y0116539D01*
X0011687Y0116610D01*
X0011766Y0116678D01*
X0011848Y0116743D01*
X0011931Y0116805D01*
X0012017Y0116864D01*
X0012105Y0116920D01*
X0012195Y0116973D01*
X0012287Y0117022D01*
X0012381Y0117068D01*
X0012476Y0117111D01*
X0012572Y0117150D01*
X0012670Y0117185D01*
X0012770Y0117217D01*
X0012870Y0117245D01*
X0012971Y0117270D01*
X0013074Y0117291D01*
X0013176Y0117308D01*
X0013280Y0117321D01*
X0013384Y0117330D01*
X0013488Y0117336D01*
X0013592Y0117338D01*
X0013592Y0117339D02*
X0016942Y0117339D01*
X0017044Y0117341D01*
X0017145Y0117347D01*
X0017246Y0117357D01*
X0017347Y0117370D01*
X0017447Y0117388D01*
X0017547Y0117409D01*
X0017645Y0117434D01*
X0017743Y0117463D01*
X0017839Y0117495D01*
X0017934Y0117531D01*
X0018028Y0117571D01*
X0018120Y0117615D01*
X0018210Y0117661D01*
X0018298Y0117712D01*
X0018385Y0117765D01*
X0018469Y0117822D01*
X0018551Y0117882D01*
X0018631Y0117945D01*
X0018708Y0118012D01*
X0018782Y0118081D01*
X0018854Y0118153D01*
X0018923Y0118227D01*
X0018990Y0118304D01*
X0019053Y0118384D01*
X0019113Y0118466D01*
X0019170Y0118550D01*
X0019223Y0118637D01*
X0019274Y0118725D01*
X0019320Y0118815D01*
X0019364Y0118907D01*
X0019404Y0119001D01*
X0019440Y0119096D01*
X0019472Y0119192D01*
X0019501Y0119290D01*
X0019526Y0119388D01*
X0019547Y0119488D01*
X0019565Y0119588D01*
X0019578Y0119689D01*
X0019588Y0119790D01*
X0019594Y0119891D01*
X0019596Y0119993D01*
X0019596Y0148826D01*
X0019597Y0148826D02*
X0019599Y0148979D01*
X0019605Y0149132D01*
X0019614Y0149284D01*
X0019628Y0149436D01*
X0019645Y0149588D01*
X0019667Y0149739D01*
X0019692Y0149890D01*
X0019720Y0150040D01*
X0019753Y0150190D01*
X0019790Y0150338D01*
X0019830Y0150485D01*
X0019874Y0150632D01*
X0019921Y0150777D01*
X0019972Y0150921D01*
X0020027Y0151064D01*
X0020086Y0151205D01*
X0020148Y0151344D01*
X0020213Y0151482D01*
X0020282Y0151619D01*
X0020355Y0151753D01*
X0020431Y0151886D01*
X0020510Y0152017D01*
X0020592Y0152145D01*
X0020678Y0152272D01*
X0020767Y0152396D01*
X0020859Y0152518D01*
X0020954Y0152638D01*
X0021052Y0152755D01*
X0021153Y0152870D01*
X0021257Y0152982D01*
X0021364Y0153091D01*
X0021473Y0153198D01*
X0021585Y0153302D01*
X0021700Y0153403D01*
X0021817Y0153501D01*
X0021937Y0153596D01*
X0022059Y0153688D01*
X0022183Y0153777D01*
X0022310Y0153863D01*
X0022438Y0153945D01*
X0022569Y0154024D01*
X0022702Y0154100D01*
X0022836Y0154173D01*
X0022973Y0154242D01*
X0023111Y0154307D01*
X0023250Y0154369D01*
X0023391Y0154428D01*
X0023534Y0154483D01*
X0023678Y0154534D01*
X0023823Y0154581D01*
X0023970Y0154625D01*
X0024117Y0154665D01*
X0024265Y0154702D01*
X0024415Y0154735D01*
X0024565Y0154763D01*
X0024716Y0154788D01*
X0024867Y0154810D01*
X0025019Y0154827D01*
X0025171Y0154841D01*
X0025323Y0154850D01*
X0025476Y0154856D01*
X0025629Y0154858D01*
X0201964Y0154858D01*
X0201964Y0154859D02*
X0202131Y0154826D01*
X0202296Y0154789D01*
X0202461Y0154748D01*
X0202625Y0154703D01*
X0202787Y0154654D01*
X0202949Y0154601D01*
X0203109Y0154545D01*
X0203267Y0154484D01*
X0203424Y0154420D01*
X0203580Y0154351D01*
X0203734Y0154280D01*
X0203886Y0154204D01*
X0204036Y0154125D01*
X0204184Y0154042D01*
X0204330Y0153955D01*
X0204474Y0153866D01*
X0204616Y0153772D01*
X0204755Y0153675D01*
X0204893Y0153575D01*
X0205027Y0153472D01*
X0205159Y0153365D01*
X0205289Y0153256D01*
X0205416Y0153143D01*
X0205540Y0153027D01*
X0205661Y0152908D01*
X0205779Y0152786D01*
X0205895Y0152662D01*
X0206007Y0152534D01*
X0206116Y0152404D01*
X0206222Y0152272D01*
X0206325Y0152137D01*
X0206424Y0151999D01*
X0206520Y0151859D01*
X0206613Y0151717D01*
X0206702Y0151572D01*
X0206788Y0151426D01*
X0206870Y0151277D01*
X0206949Y0151127D01*
X0207024Y0150974D01*
X0207095Y0150820D01*
X0207162Y0150665D01*
X0207226Y0150507D01*
X0207286Y0150348D01*
X0207342Y0150188D01*
X0207394Y0150026D01*
X0207442Y0149864D01*
X0207486Y0149700D01*
X0207526Y0149535D01*
X0207563Y0149369D01*
X0207595Y0149202D01*
X0207623Y0149035D01*
X0207647Y0148867D01*
X0207667Y0148698D01*
X0207683Y0148529D01*
X0207695Y0148360D01*
X0207703Y0148190D01*
X0207707Y0148021D01*
X0207706Y0147851D01*
X0207702Y0147681D01*
X0207693Y0147512D01*
X0207680Y0147342D01*
X0207664Y0147173D01*
X0207643Y0147005D01*
X0207618Y0146837D01*
X0207589Y0146670D01*
X0207589Y0146669D02*
X0207589Y0007487D01*
X0207587Y0007328D01*
X0207581Y0007169D01*
X0207571Y0007010D01*
X0207558Y0006851D01*
X0207540Y0006693D01*
X0207519Y0006535D01*
X0207493Y0006378D01*
X0207464Y0006221D01*
X0207431Y0006066D01*
X0207395Y0005911D01*
X0207354Y0005757D01*
X0207310Y0005604D01*
X0207262Y0005452D01*
X0207210Y0005302D01*
X0207154Y0005152D01*
X0207095Y0005005D01*
X0207032Y0004858D01*
X0206966Y0004713D01*
X0206896Y0004570D01*
X0206823Y0004429D01*
X0206746Y0004290D01*
X0206666Y0004152D01*
X0206583Y0004016D01*
X0206496Y0003883D01*
X0206406Y0003752D01*
X0206312Y0003623D01*
X0206216Y0003496D01*
X0206117Y0003372D01*
X0206014Y0003250D01*
X0205909Y0003131D01*
X0205800Y0003014D01*
X0205689Y0002900D01*
X0205575Y0002789D01*
X0205458Y0002680D01*
X0205339Y0002575D01*
X0205217Y0002472D01*
X0205093Y0002373D01*
X0204966Y0002277D01*
X0204837Y0002183D01*
X0204706Y0002093D01*
X0204573Y0002006D01*
X0204437Y0001923D01*
X0204299Y0001843D01*
X0204160Y0001766D01*
X0204019Y0001693D01*
X0203876Y0001623D01*
X0203731Y0001557D01*
X0203584Y0001494D01*
X0203437Y0001435D01*
X0203287Y0001379D01*
X0203137Y0001327D01*
X0202985Y0001279D01*
X0202832Y0001235D01*
X0202678Y0001194D01*
X0202523Y0001158D01*
X0202368Y0001125D01*
X0202211Y0001096D01*
X0202054Y0001070D01*
X0201896Y0001049D01*
X0201738Y0001031D01*
X0201579Y0001018D01*
X0201420Y0001008D01*
X0201261Y0001002D01*
X0201102Y0001000D01*
X0016644Y0001000D01*
X0016643Y0001000D02*
X0016492Y0001002D01*
X0016340Y0001008D01*
X0016188Y0001017D01*
X0016037Y0001031D01*
X0015886Y0001048D01*
X0015735Y0001069D01*
X0015586Y0001095D01*
X0015436Y0001124D01*
X0015288Y0001156D01*
X0015141Y0001193D01*
X0014994Y0001234D01*
X0014849Y0001278D01*
X0014705Y0001326D01*
X0014562Y0001377D01*
X0014420Y0001433D01*
X0014280Y0001492D01*
X0014142Y0001554D01*
X0014005Y0001620D01*
X0013870Y0001690D01*
X0013737Y0001763D01*
X0013605Y0001839D01*
X0013476Y0001919D01*
X0013349Y0002002D01*
X0013224Y0002088D01*
X0013101Y0002178D01*
X0012981Y0002270D01*
X0012863Y0002366D01*
X0012747Y0002465D01*
X0012634Y0002566D01*
X0012524Y0002671D01*
X0012417Y0002778D01*
X0012312Y0002888D01*
X0012210Y0003001D01*
X0012111Y0003116D01*
X0012015Y0003234D01*
X0011922Y0003354D01*
X0011832Y0003477D01*
X0011746Y0003602D01*
X0011663Y0003729D01*
X0011583Y0003858D01*
X0011506Y0003989D01*
X0011433Y0004122D01*
X0011363Y0004257D01*
X0011297Y0004394D01*
X0011234Y0004532D01*
X0011175Y0004672D01*
X0011119Y0004814D01*
X0011067Y0004956D01*
X0011019Y0005101D01*
X0010975Y0005246D01*
X0010934Y0005392D01*
X0010897Y0005540D01*
X0010864Y0005688D01*
X0010835Y0005837D01*
X0010809Y0005987D01*
X0010788Y0006137D01*
X0010770Y0006288D01*
X0010756Y0006439D01*
X0010746Y0006591D01*
X0010740Y0006743D01*
X0010738Y0006895D01*
X0018455Y0095488D02*
X0018457Y0095585D01*
X0018463Y0095682D01*
X0018473Y0095778D01*
X0018487Y0095874D01*
X0018505Y0095970D01*
X0018526Y0096064D01*
X0018552Y0096158D01*
X0018581Y0096250D01*
X0018615Y0096341D01*
X0018651Y0096431D01*
X0018692Y0096519D01*
X0018736Y0096605D01*
X0018784Y0096690D01*
X0018835Y0096772D01*
X0018889Y0096853D01*
X0018947Y0096931D01*
X0019008Y0097006D01*
X0019071Y0097079D01*
X0019138Y0097150D01*
X0019208Y0097217D01*
X0019280Y0097282D01*
X0019355Y0097343D01*
X0019433Y0097402D01*
X0019512Y0097457D01*
X0019594Y0097509D01*
X0019678Y0097557D01*
X0019764Y0097602D01*
X0019852Y0097644D01*
X0019941Y0097682D01*
X0020032Y0097716D01*
X0020124Y0097746D01*
X0020217Y0097773D01*
X0020312Y0097795D01*
X0020407Y0097814D01*
X0020503Y0097829D01*
X0020599Y0097840D01*
X0020696Y0097847D01*
X0020793Y0097850D01*
X0020890Y0097849D01*
X0020987Y0097844D01*
X0021083Y0097835D01*
X0021179Y0097822D01*
X0021275Y0097805D01*
X0021370Y0097784D01*
X0021463Y0097760D01*
X0021556Y0097731D01*
X0021648Y0097699D01*
X0021738Y0097663D01*
X0021826Y0097624D01*
X0021913Y0097580D01*
X0021998Y0097534D01*
X0022081Y0097483D01*
X0022162Y0097430D01*
X0022240Y0097373D01*
X0022317Y0097313D01*
X0022390Y0097250D01*
X0022461Y0097184D01*
X0022529Y0097115D01*
X0022595Y0097043D01*
X0022657Y0096969D01*
X0022716Y0096892D01*
X0022772Y0096813D01*
X0022825Y0096731D01*
X0022875Y0096648D01*
X0022920Y0096562D01*
X0022963Y0096475D01*
X0023002Y0096386D01*
X0023037Y0096296D01*
X0023068Y0096204D01*
X0023095Y0096111D01*
X0023119Y0096017D01*
X0023139Y0095922D01*
X0023155Y0095826D01*
X0023167Y0095730D01*
X0023175Y0095633D01*
X0023179Y0095536D01*
X0023179Y0095440D01*
X0023175Y0095343D01*
X0023167Y0095246D01*
X0023155Y0095150D01*
X0023139Y0095054D01*
X0023119Y0094959D01*
X0023095Y0094865D01*
X0023068Y0094772D01*
X0023037Y0094680D01*
X0023002Y0094590D01*
X0022963Y0094501D01*
X0022920Y0094414D01*
X0022875Y0094328D01*
X0022825Y0094245D01*
X0022772Y0094163D01*
X0022716Y0094084D01*
X0022657Y0094007D01*
X0022595Y0093933D01*
X0022529Y0093861D01*
X0022461Y0093792D01*
X0022390Y0093726D01*
X0022317Y0093663D01*
X0022240Y0093603D01*
X0022162Y0093546D01*
X0022081Y0093493D01*
X0021998Y0093442D01*
X0021913Y0093396D01*
X0021826Y0093352D01*
X0021738Y0093313D01*
X0021648Y0093277D01*
X0021556Y0093245D01*
X0021463Y0093216D01*
X0021370Y0093192D01*
X0021275Y0093171D01*
X0021179Y0093154D01*
X0021083Y0093141D01*
X0020987Y0093132D01*
X0020890Y0093127D01*
X0020793Y0093126D01*
X0020696Y0093129D01*
X0020599Y0093136D01*
X0020503Y0093147D01*
X0020407Y0093162D01*
X0020312Y0093181D01*
X0020217Y0093203D01*
X0020124Y0093230D01*
X0020032Y0093260D01*
X0019941Y0093294D01*
X0019852Y0093332D01*
X0019764Y0093374D01*
X0019678Y0093419D01*
X0019594Y0093467D01*
X0019512Y0093519D01*
X0019433Y0093574D01*
X0019355Y0093633D01*
X0019280Y0093694D01*
X0019208Y0093759D01*
X0019138Y0093826D01*
X0019071Y0093897D01*
X0019008Y0093970D01*
X0018947Y0094045D01*
X0018889Y0094123D01*
X0018835Y0094204D01*
X0018784Y0094286D01*
X0018736Y0094371D01*
X0018692Y0094457D01*
X0018651Y0094545D01*
X0018615Y0094635D01*
X0018581Y0094726D01*
X0018552Y0094818D01*
X0018526Y0094912D01*
X0018505Y0095006D01*
X0018487Y0095102D01*
X0018473Y0095198D01*
X0018463Y0095294D01*
X0018457Y0095391D01*
X0018455Y0095488D01*
X0046014Y0095488D02*
X0046016Y0095585D01*
X0046022Y0095682D01*
X0046032Y0095778D01*
X0046046Y0095874D01*
X0046064Y0095970D01*
X0046085Y0096064D01*
X0046111Y0096158D01*
X0046140Y0096250D01*
X0046174Y0096341D01*
X0046210Y0096431D01*
X0046251Y0096519D01*
X0046295Y0096605D01*
X0046343Y0096690D01*
X0046394Y0096772D01*
X0046448Y0096853D01*
X0046506Y0096931D01*
X0046567Y0097006D01*
X0046630Y0097079D01*
X0046697Y0097150D01*
X0046767Y0097217D01*
X0046839Y0097282D01*
X0046914Y0097343D01*
X0046992Y0097402D01*
X0047071Y0097457D01*
X0047153Y0097509D01*
X0047237Y0097557D01*
X0047323Y0097602D01*
X0047411Y0097644D01*
X0047500Y0097682D01*
X0047591Y0097716D01*
X0047683Y0097746D01*
X0047776Y0097773D01*
X0047871Y0097795D01*
X0047966Y0097814D01*
X0048062Y0097829D01*
X0048158Y0097840D01*
X0048255Y0097847D01*
X0048352Y0097850D01*
X0048449Y0097849D01*
X0048546Y0097844D01*
X0048642Y0097835D01*
X0048738Y0097822D01*
X0048834Y0097805D01*
X0048929Y0097784D01*
X0049022Y0097760D01*
X0049115Y0097731D01*
X0049207Y0097699D01*
X0049297Y0097663D01*
X0049385Y0097624D01*
X0049472Y0097580D01*
X0049557Y0097534D01*
X0049640Y0097483D01*
X0049721Y0097430D01*
X0049799Y0097373D01*
X0049876Y0097313D01*
X0049949Y0097250D01*
X0050020Y0097184D01*
X0050088Y0097115D01*
X0050154Y0097043D01*
X0050216Y0096969D01*
X0050275Y0096892D01*
X0050331Y0096813D01*
X0050384Y0096731D01*
X0050434Y0096648D01*
X0050479Y0096562D01*
X0050522Y0096475D01*
X0050561Y0096386D01*
X0050596Y0096296D01*
X0050627Y0096204D01*
X0050654Y0096111D01*
X0050678Y0096017D01*
X0050698Y0095922D01*
X0050714Y0095826D01*
X0050726Y0095730D01*
X0050734Y0095633D01*
X0050738Y0095536D01*
X0050738Y0095440D01*
X0050734Y0095343D01*
X0050726Y0095246D01*
X0050714Y0095150D01*
X0050698Y0095054D01*
X0050678Y0094959D01*
X0050654Y0094865D01*
X0050627Y0094772D01*
X0050596Y0094680D01*
X0050561Y0094590D01*
X0050522Y0094501D01*
X0050479Y0094414D01*
X0050434Y0094328D01*
X0050384Y0094245D01*
X0050331Y0094163D01*
X0050275Y0094084D01*
X0050216Y0094007D01*
X0050154Y0093933D01*
X0050088Y0093861D01*
X0050020Y0093792D01*
X0049949Y0093726D01*
X0049876Y0093663D01*
X0049799Y0093603D01*
X0049721Y0093546D01*
X0049640Y0093493D01*
X0049557Y0093442D01*
X0049472Y0093396D01*
X0049385Y0093352D01*
X0049297Y0093313D01*
X0049207Y0093277D01*
X0049115Y0093245D01*
X0049022Y0093216D01*
X0048929Y0093192D01*
X0048834Y0093171D01*
X0048738Y0093154D01*
X0048642Y0093141D01*
X0048546Y0093132D01*
X0048449Y0093127D01*
X0048352Y0093126D01*
X0048255Y0093129D01*
X0048158Y0093136D01*
X0048062Y0093147D01*
X0047966Y0093162D01*
X0047871Y0093181D01*
X0047776Y0093203D01*
X0047683Y0093230D01*
X0047591Y0093260D01*
X0047500Y0093294D01*
X0047411Y0093332D01*
X0047323Y0093374D01*
X0047237Y0093419D01*
X0047153Y0093467D01*
X0047071Y0093519D01*
X0046992Y0093574D01*
X0046914Y0093633D01*
X0046839Y0093694D01*
X0046767Y0093759D01*
X0046697Y0093826D01*
X0046630Y0093897D01*
X0046567Y0093970D01*
X0046506Y0094045D01*
X0046448Y0094123D01*
X0046394Y0094204D01*
X0046343Y0094286D01*
X0046295Y0094371D01*
X0046251Y0094457D01*
X0046210Y0094545D01*
X0046174Y0094635D01*
X0046140Y0094726D01*
X0046111Y0094818D01*
X0046085Y0094912D01*
X0046064Y0095006D01*
X0046046Y0095102D01*
X0046032Y0095198D01*
X0046022Y0095294D01*
X0046016Y0095391D01*
X0046014Y0095488D01*
X0187431Y0073402D02*
X0187433Y0073464D01*
X0187439Y0073527D01*
X0187449Y0073588D01*
X0187463Y0073649D01*
X0187480Y0073709D01*
X0187501Y0073768D01*
X0187527Y0073825D01*
X0187555Y0073880D01*
X0187587Y0073934D01*
X0187623Y0073985D01*
X0187661Y0074035D01*
X0187703Y0074081D01*
X0187747Y0074125D01*
X0187795Y0074166D01*
X0187844Y0074204D01*
X0187896Y0074238D01*
X0187950Y0074269D01*
X0188006Y0074297D01*
X0188064Y0074321D01*
X0188123Y0074342D01*
X0188183Y0074358D01*
X0188244Y0074371D01*
X0188306Y0074380D01*
X0188368Y0074385D01*
X0188431Y0074386D01*
X0188493Y0074383D01*
X0188555Y0074376D01*
X0188617Y0074365D01*
X0188677Y0074350D01*
X0188737Y0074332D01*
X0188795Y0074310D01*
X0188852Y0074284D01*
X0188907Y0074254D01*
X0188960Y0074221D01*
X0189011Y0074185D01*
X0189059Y0074146D01*
X0189105Y0074103D01*
X0189148Y0074058D01*
X0189188Y0074010D01*
X0189225Y0073960D01*
X0189259Y0073907D01*
X0189290Y0073853D01*
X0189316Y0073797D01*
X0189340Y0073739D01*
X0189359Y0073679D01*
X0189375Y0073619D01*
X0189387Y0073557D01*
X0189395Y0073496D01*
X0189399Y0073433D01*
X0189399Y0073371D01*
X0189395Y0073308D01*
X0189387Y0073247D01*
X0189375Y0073185D01*
X0189359Y0073125D01*
X0189340Y0073065D01*
X0189316Y0073007D01*
X0189290Y0072951D01*
X0189259Y0072897D01*
X0189225Y0072844D01*
X0189188Y0072794D01*
X0189148Y0072746D01*
X0189105Y0072701D01*
X0189059Y0072658D01*
X0189011Y0072619D01*
X0188960Y0072583D01*
X0188907Y0072550D01*
X0188852Y0072520D01*
X0188795Y0072494D01*
X0188737Y0072472D01*
X0188677Y0072454D01*
X0188617Y0072439D01*
X0188555Y0072428D01*
X0188493Y0072421D01*
X0188431Y0072418D01*
X0188368Y0072419D01*
X0188306Y0072424D01*
X0188244Y0072433D01*
X0188183Y0072446D01*
X0188123Y0072462D01*
X0188064Y0072483D01*
X0188006Y0072507D01*
X0187950Y0072535D01*
X0187896Y0072566D01*
X0187844Y0072600D01*
X0187795Y0072638D01*
X0187747Y0072679D01*
X0187703Y0072723D01*
X0187661Y0072769D01*
X0187623Y0072819D01*
X0187587Y0072870D01*
X0187555Y0072924D01*
X0187527Y0072979D01*
X0187501Y0073036D01*
X0187480Y0073095D01*
X0187463Y0073155D01*
X0187449Y0073216D01*
X0187439Y0073277D01*
X0187433Y0073340D01*
X0187431Y0073402D01*
X0187431Y0057654D02*
X0187433Y0057716D01*
X0187439Y0057779D01*
X0187449Y0057840D01*
X0187463Y0057901D01*
X0187480Y0057961D01*
X0187501Y0058020D01*
X0187527Y0058077D01*
X0187555Y0058132D01*
X0187587Y0058186D01*
X0187623Y0058237D01*
X0187661Y0058287D01*
X0187703Y0058333D01*
X0187747Y0058377D01*
X0187795Y0058418D01*
X0187844Y0058456D01*
X0187896Y0058490D01*
X0187950Y0058521D01*
X0188006Y0058549D01*
X0188064Y0058573D01*
X0188123Y0058594D01*
X0188183Y0058610D01*
X0188244Y0058623D01*
X0188306Y0058632D01*
X0188368Y0058637D01*
X0188431Y0058638D01*
X0188493Y0058635D01*
X0188555Y0058628D01*
X0188617Y0058617D01*
X0188677Y0058602D01*
X0188737Y0058584D01*
X0188795Y0058562D01*
X0188852Y0058536D01*
X0188907Y0058506D01*
X0188960Y0058473D01*
X0189011Y0058437D01*
X0189059Y0058398D01*
X0189105Y0058355D01*
X0189148Y0058310D01*
X0189188Y0058262D01*
X0189225Y0058212D01*
X0189259Y0058159D01*
X0189290Y0058105D01*
X0189316Y0058049D01*
X0189340Y0057991D01*
X0189359Y0057931D01*
X0189375Y0057871D01*
X0189387Y0057809D01*
X0189395Y0057748D01*
X0189399Y0057685D01*
X0189399Y0057623D01*
X0189395Y0057560D01*
X0189387Y0057499D01*
X0189375Y0057437D01*
X0189359Y0057377D01*
X0189340Y0057317D01*
X0189316Y0057259D01*
X0189290Y0057203D01*
X0189259Y0057149D01*
X0189225Y0057096D01*
X0189188Y0057046D01*
X0189148Y0056998D01*
X0189105Y0056953D01*
X0189059Y0056910D01*
X0189011Y0056871D01*
X0188960Y0056835D01*
X0188907Y0056802D01*
X0188852Y0056772D01*
X0188795Y0056746D01*
X0188737Y0056724D01*
X0188677Y0056706D01*
X0188617Y0056691D01*
X0188555Y0056680D01*
X0188493Y0056673D01*
X0188431Y0056670D01*
X0188368Y0056671D01*
X0188306Y0056676D01*
X0188244Y0056685D01*
X0188183Y0056698D01*
X0188123Y0056714D01*
X0188064Y0056735D01*
X0188006Y0056759D01*
X0187950Y0056787D01*
X0187896Y0056818D01*
X0187844Y0056852D01*
X0187795Y0056890D01*
X0187747Y0056931D01*
X0187703Y0056975D01*
X0187661Y0057021D01*
X0187623Y0057071D01*
X0187587Y0057122D01*
X0187555Y0057176D01*
X0187527Y0057231D01*
X0187501Y0057288D01*
X0187480Y0057347D01*
X0187463Y0057407D01*
X0187449Y0057468D01*
X0187439Y0057529D01*
X0187433Y0057592D01*
X0187431Y0057654D01*
D11*
X0109183Y0002693D03*
D12*
X0113415Y0153244D03*
D13*
X0041919Y0016827D02*
X0027746Y0016827D01*
X0027746Y0015646D01*
X0027746Y0005921D02*
X0030108Y0004228D01*
X0041919Y0004228D01*
X0041919Y0005409D01*
X0041919Y0015646D02*
X0041919Y0016827D01*
D14*
X0181818Y0112067D02*
X0181818Y0149067D01*
X0181820Y0149143D01*
X0181826Y0149219D01*
X0181835Y0149294D01*
X0181849Y0149369D01*
X0181866Y0149443D01*
X0181887Y0149516D01*
X0181911Y0149588D01*
X0181940Y0149659D01*
X0181971Y0149728D01*
X0182006Y0149795D01*
X0182045Y0149860D01*
X0182087Y0149924D01*
X0182132Y0149985D01*
X0182180Y0150044D01*
X0182231Y0150100D01*
X0182285Y0150154D01*
X0182341Y0150205D01*
X0182400Y0150253D01*
X0182461Y0150298D01*
X0182525Y0150340D01*
X0182590Y0150379D01*
X0182657Y0150414D01*
X0182726Y0150445D01*
X0182797Y0150474D01*
X0182869Y0150498D01*
X0182942Y0150519D01*
X0183016Y0150536D01*
X0183091Y0150550D01*
X0183166Y0150559D01*
X0183242Y0150565D01*
X0183318Y0150567D01*
X0195718Y0150567D01*
X0195794Y0150565D01*
X0195870Y0150559D01*
X0195945Y0150550D01*
X0196020Y0150536D01*
X0196094Y0150519D01*
X0196167Y0150498D01*
X0196239Y0150474D01*
X0196310Y0150445D01*
X0196379Y0150414D01*
X0196446Y0150379D01*
X0196511Y0150340D01*
X0196575Y0150298D01*
X0196636Y0150253D01*
X0196695Y0150205D01*
X0196751Y0150154D01*
X0196805Y0150100D01*
X0196856Y0150044D01*
X0196904Y0149985D01*
X0196949Y0149924D01*
X0196991Y0149860D01*
X0197030Y0149795D01*
X0197065Y0149728D01*
X0197096Y0149659D01*
X0197125Y0149588D01*
X0197149Y0149516D01*
X0197170Y0149443D01*
X0197187Y0149369D01*
X0197201Y0149294D01*
X0197210Y0149219D01*
X0197216Y0149143D01*
X0197218Y0149067D01*
X0197218Y0112067D01*
X0197216Y0111991D01*
X0197210Y0111915D01*
X0197201Y0111840D01*
X0197187Y0111765D01*
X0197170Y0111691D01*
X0197149Y0111618D01*
X0197125Y0111546D01*
X0197096Y0111475D01*
X0197065Y0111406D01*
X0197030Y0111339D01*
X0196991Y0111274D01*
X0196949Y0111210D01*
X0196904Y0111149D01*
X0196856Y0111090D01*
X0196805Y0111034D01*
X0196751Y0110980D01*
X0196695Y0110929D01*
X0196636Y0110881D01*
X0196575Y0110836D01*
X0196511Y0110794D01*
X0196446Y0110755D01*
X0196379Y0110720D01*
X0196310Y0110689D01*
X0196239Y0110660D01*
X0196167Y0110636D01*
X0196094Y0110615D01*
X0196020Y0110598D01*
X0195945Y0110584D01*
X0195870Y0110575D01*
X0195794Y0110569D01*
X0195718Y0110567D01*
X0191518Y0110567D01*
X0187518Y0110567D01*
X0183318Y0110567D01*
X0183242Y0110569D01*
X0183166Y0110575D01*
X0183091Y0110584D01*
X0183016Y0110598D01*
X0182942Y0110615D01*
X0182869Y0110636D01*
X0182797Y0110660D01*
X0182726Y0110689D01*
X0182657Y0110720D01*
X0182590Y0110755D01*
X0182525Y0110794D01*
X0182461Y0110836D01*
X0182400Y0110881D01*
X0182341Y0110929D01*
X0182285Y0110980D01*
X0182231Y0111034D01*
X0182180Y0111090D01*
X0182132Y0111149D01*
X0182087Y0111210D01*
X0182045Y0111274D01*
X0182006Y0111339D01*
X0181971Y0111406D01*
X0181940Y0111475D01*
X0181911Y0111546D01*
X0181887Y0111618D01*
X0181866Y0111691D01*
X0181849Y0111765D01*
X0181835Y0111840D01*
X0181826Y0111915D01*
X0181820Y0111991D01*
X0181818Y0112067D01*
X0187518Y0110567D02*
X0187520Y0110655D01*
X0187526Y0110744D01*
X0187536Y0110832D01*
X0187549Y0110919D01*
X0187567Y0111006D01*
X0187588Y0111092D01*
X0187613Y0111177D01*
X0187642Y0111260D01*
X0187675Y0111343D01*
X0187711Y0111423D01*
X0187750Y0111502D01*
X0187793Y0111580D01*
X0187840Y0111655D01*
X0187890Y0111728D01*
X0187943Y0111799D01*
X0187999Y0111868D01*
X0188058Y0111934D01*
X0188120Y0111997D01*
X0188184Y0112057D01*
X0188251Y0112115D01*
X0188321Y0112169D01*
X0188393Y0112221D01*
X0188467Y0112269D01*
X0188544Y0112314D01*
X0188622Y0112355D01*
X0188702Y0112393D01*
X0188783Y0112427D01*
X0188866Y0112458D01*
X0188951Y0112485D01*
X0189036Y0112508D01*
X0189122Y0112527D01*
X0189210Y0112543D01*
X0189297Y0112555D01*
X0189385Y0112563D01*
X0189474Y0112567D01*
X0189562Y0112567D01*
X0189651Y0112563D01*
X0189739Y0112555D01*
X0189826Y0112543D01*
X0189914Y0112527D01*
X0190000Y0112508D01*
X0190085Y0112485D01*
X0190170Y0112458D01*
X0190253Y0112427D01*
X0190334Y0112393D01*
X0190414Y0112355D01*
X0190492Y0112314D01*
X0190569Y0112269D01*
X0190643Y0112221D01*
X0190715Y0112169D01*
X0190785Y0112115D01*
X0190852Y0112057D01*
X0190916Y0111997D01*
X0190978Y0111934D01*
X0191037Y0111868D01*
X0191093Y0111799D01*
X0191146Y0111728D01*
X0191196Y0111655D01*
X0191243Y0111580D01*
X0191286Y0111502D01*
X0191325Y0111423D01*
X0191361Y0111343D01*
X0191394Y0111260D01*
X0191423Y0111177D01*
X0191448Y0111092D01*
X0191469Y0111006D01*
X0191487Y0110919D01*
X0191500Y0110832D01*
X0191510Y0110744D01*
X0191516Y0110655D01*
X0191518Y0110567D01*
D15*
X0183218Y0110567D02*
X0183218Y0150567D01*
D16*
X0158563Y0137011D02*
X0157595Y0137978D01*
X0157595Y0135076D01*
X0156628Y0135076D02*
X0158563Y0135076D01*
X0155616Y0135560D02*
X0153681Y0137495D01*
X0153681Y0135560D01*
X0154165Y0135076D01*
X0155132Y0135076D01*
X0155616Y0135560D01*
X0155616Y0137495D01*
X0155132Y0137978D01*
X0154165Y0137978D01*
X0153681Y0137495D01*
X0152670Y0137978D02*
X0152670Y0135076D01*
X0152670Y0136043D02*
X0151218Y0137011D01*
X0152670Y0136043D02*
X0151218Y0135076D01*
X0133585Y0135111D02*
X0133585Y0134144D01*
X0133101Y0133660D01*
X0133101Y0132649D02*
X0133585Y0132165D01*
X0133585Y0131197D01*
X0133101Y0130714D01*
X0133101Y0129702D02*
X0133585Y0129218D01*
X0133585Y0128251D01*
X0133101Y0127767D01*
X0133101Y0126756D02*
X0133585Y0126272D01*
X0133585Y0125304D01*
X0133101Y0124821D01*
X0133101Y0126756D02*
X0132617Y0126756D01*
X0130682Y0124821D01*
X0130682Y0126756D01*
X0130682Y0127767D02*
X0132617Y0129702D01*
X0133101Y0129702D01*
X0130682Y0129702D02*
X0130682Y0127767D01*
X0130682Y0130714D02*
X0132617Y0132649D01*
X0133101Y0132649D01*
X0130682Y0132649D02*
X0130682Y0130714D01*
X0130682Y0133660D02*
X0132617Y0135595D01*
X0133101Y0135595D01*
X0133585Y0135111D01*
X0130682Y0135595D02*
X0130682Y0133660D01*
X0130017Y0139733D02*
X0128082Y0139733D01*
X0129050Y0139733D02*
X0129050Y0142635D01*
X0130017Y0141668D01*
X0127071Y0142151D02*
X0127071Y0140216D01*
X0125136Y0142151D01*
X0125136Y0140216D01*
X0125620Y0139733D01*
X0126587Y0139733D01*
X0127071Y0140216D01*
X0124124Y0139733D02*
X0124124Y0142635D01*
X0125136Y0142151D02*
X0125620Y0142635D01*
X0126587Y0142635D01*
X0127071Y0142151D01*
X0124124Y0140700D02*
X0122673Y0141668D01*
X0124124Y0140700D02*
X0122673Y0139733D01*
X0118159Y0137913D02*
X0118159Y0136946D01*
X0117675Y0136462D01*
X0117675Y0135450D02*
X0118159Y0134967D01*
X0118159Y0133999D01*
X0117675Y0133515D01*
X0117675Y0132504D02*
X0118159Y0132020D01*
X0118159Y0131053D01*
X0117675Y0130569D01*
X0117675Y0129557D02*
X0118159Y0129074D01*
X0118159Y0128106D01*
X0117675Y0127622D01*
X0117191Y0129557D02*
X0115256Y0127622D01*
X0115256Y0129557D01*
X0115256Y0130569D02*
X0117191Y0132504D01*
X0117675Y0132504D01*
X0115256Y0132504D02*
X0115256Y0130569D01*
X0117191Y0129557D02*
X0117675Y0129557D01*
X0115256Y0133515D02*
X0117191Y0135450D01*
X0117675Y0135450D01*
X0115256Y0135450D02*
X0115256Y0133515D01*
X0115256Y0136462D02*
X0117191Y0138397D01*
X0117675Y0138397D01*
X0118159Y0137913D01*
X0115256Y0138397D02*
X0115256Y0136462D01*
X0104986Y0136353D02*
X0104986Y0138288D01*
X0104986Y0137321D02*
X0102083Y0137321D01*
X0099986Y0137804D02*
X0099986Y0136353D01*
X0097083Y0136353D01*
X0097083Y0137804D01*
X0097567Y0138288D01*
X0099502Y0138288D01*
X0099986Y0137804D01*
X0099986Y0135342D02*
X0097083Y0135342D01*
X0099986Y0133407D01*
X0097083Y0133407D01*
X0097567Y0132395D02*
X0098535Y0132395D01*
X0098535Y0131428D01*
X0099502Y0132395D02*
X0099986Y0131911D01*
X0099986Y0130944D01*
X0099502Y0130460D01*
X0097567Y0130460D01*
X0097083Y0130944D01*
X0097083Y0131911D01*
X0097567Y0132395D01*
X0102083Y0132395D02*
X0104018Y0132395D01*
X0104986Y0131428D01*
X0104018Y0130460D01*
X0102083Y0130460D01*
X0103535Y0130460D02*
X0103535Y0132395D01*
X0102083Y0133407D02*
X0104986Y0133407D01*
X0102083Y0135342D01*
X0104986Y0135342D01*
X0104986Y0098021D02*
X0104986Y0096086D01*
X0104986Y0097053D02*
X0102083Y0097053D01*
X0102083Y0095074D02*
X0102083Y0093139D01*
X0104986Y0093139D01*
X0104986Y0095074D01*
X0103535Y0094107D02*
X0103535Y0093139D01*
X0103051Y0092128D02*
X0102567Y0092128D01*
X0102083Y0091644D01*
X0102083Y0090676D01*
X0102567Y0090193D01*
X0103535Y0090676D02*
X0103535Y0091644D01*
X0103051Y0092128D01*
X0104502Y0092128D02*
X0104986Y0091644D01*
X0104986Y0090676D01*
X0104502Y0090193D01*
X0104018Y0090193D01*
X0103535Y0090676D01*
X0104986Y0089181D02*
X0104986Y0087246D01*
X0102083Y0087246D01*
X0102083Y0089181D01*
X0103535Y0088214D02*
X0103535Y0087246D01*
X0103535Y0086235D02*
X0103051Y0085751D01*
X0103051Y0084300D01*
X0103051Y0085267D02*
X0102083Y0086235D01*
X0103535Y0086235D02*
X0104502Y0086235D01*
X0104986Y0085751D01*
X0104986Y0084300D01*
X0102083Y0084300D01*
X0099986Y0084300D02*
X0099986Y0085751D01*
X0099502Y0086235D01*
X0097567Y0086235D01*
X0097083Y0085751D01*
X0097083Y0084300D01*
X0099986Y0084300D01*
X0099986Y0087246D02*
X0099986Y0088214D01*
X0099986Y0087730D02*
X0097083Y0087730D01*
X0097083Y0087246D02*
X0097083Y0088214D01*
X0097567Y0089210D02*
X0097083Y0089694D01*
X0097083Y0090662D01*
X0097567Y0091145D01*
X0099502Y0091145D01*
X0099986Y0090662D01*
X0099986Y0089694D01*
X0099502Y0089210D01*
X0097567Y0089210D01*
X0094986Y0089694D02*
X0094986Y0090662D01*
X0094502Y0091145D01*
X0092567Y0091145D01*
X0092083Y0090662D01*
X0092083Y0089694D01*
X0092567Y0089210D01*
X0094502Y0089210D01*
X0094986Y0089694D01*
X0094986Y0088214D02*
X0094986Y0087246D01*
X0094986Y0087730D02*
X0092083Y0087730D01*
X0092083Y0087246D02*
X0092083Y0088214D01*
X0092567Y0086235D02*
X0092083Y0085751D01*
X0092083Y0084300D01*
X0094986Y0084300D01*
X0094986Y0085751D01*
X0094502Y0086235D01*
X0092567Y0086235D01*
X0089986Y0085751D02*
X0089986Y0084300D01*
X0087083Y0084300D01*
X0087083Y0085751D01*
X0087567Y0086235D01*
X0089502Y0086235D01*
X0089986Y0085751D01*
X0089986Y0087246D02*
X0089986Y0088214D01*
X0089986Y0087730D02*
X0087083Y0087730D01*
X0087083Y0087246D02*
X0087083Y0088214D01*
X0087567Y0089210D02*
X0087083Y0089694D01*
X0087083Y0090662D01*
X0087567Y0091145D01*
X0089502Y0091145D01*
X0089986Y0090662D01*
X0089986Y0089694D01*
X0089502Y0089210D01*
X0087567Y0089210D01*
X0084986Y0089694D02*
X0084986Y0090662D01*
X0084502Y0091145D01*
X0082567Y0091145D01*
X0082083Y0090662D01*
X0082083Y0089694D01*
X0082567Y0089210D01*
X0084502Y0089210D01*
X0084986Y0089694D01*
X0084986Y0088214D02*
X0084986Y0087246D01*
X0084986Y0087730D02*
X0082083Y0087730D01*
X0082083Y0087246D02*
X0082083Y0088214D01*
X0082567Y0086235D02*
X0084502Y0086235D01*
X0084986Y0085751D01*
X0084986Y0084300D01*
X0082083Y0084300D01*
X0082083Y0085751D01*
X0082567Y0086235D01*
X0079986Y0085751D02*
X0079986Y0084300D01*
X0077083Y0084300D01*
X0077083Y0085751D01*
X0077567Y0086235D01*
X0079502Y0086235D01*
X0079986Y0085751D01*
X0079986Y0087246D02*
X0079986Y0088214D01*
X0079986Y0087730D02*
X0077083Y0087730D01*
X0077083Y0087246D02*
X0077083Y0088214D01*
X0077567Y0089210D02*
X0077083Y0089694D01*
X0077083Y0090662D01*
X0077567Y0091145D01*
X0079502Y0091145D01*
X0079986Y0090662D01*
X0079986Y0089694D01*
X0079502Y0089210D01*
X0077567Y0089210D01*
X0074986Y0089694D02*
X0074986Y0090662D01*
X0074502Y0091145D01*
X0072567Y0091145D01*
X0072083Y0090662D01*
X0072083Y0089694D01*
X0072567Y0089210D01*
X0074502Y0089210D01*
X0074986Y0089694D01*
X0074986Y0088214D02*
X0074986Y0087246D01*
X0074986Y0087730D02*
X0072083Y0087730D01*
X0072083Y0087246D02*
X0072083Y0088214D01*
X0072567Y0086235D02*
X0074502Y0086235D01*
X0074986Y0085751D01*
X0074986Y0084300D01*
X0072083Y0084300D01*
X0072083Y0085751D01*
X0072567Y0086235D01*
X0069986Y0087730D02*
X0069986Y0088697D01*
X0069502Y0089181D01*
X0069018Y0089181D01*
X0068535Y0088697D01*
X0068051Y0089181D01*
X0067567Y0089181D01*
X0067083Y0088697D01*
X0067083Y0087730D01*
X0067567Y0087246D01*
X0068535Y0088214D02*
X0068535Y0088697D01*
X0068051Y0090193D02*
X0067083Y0091160D01*
X0068051Y0092128D01*
X0069986Y0092128D01*
X0069502Y0093139D02*
X0069986Y0093623D01*
X0069986Y0094590D01*
X0069502Y0095074D01*
X0069018Y0095074D01*
X0068535Y0094590D01*
X0068051Y0095074D01*
X0067567Y0095074D01*
X0067083Y0094590D01*
X0067083Y0093623D01*
X0067567Y0093139D01*
X0068535Y0094107D02*
X0068535Y0094590D01*
X0072083Y0093608D02*
X0072083Y0092641D01*
X0072567Y0092157D01*
X0073535Y0092157D02*
X0074018Y0093124D01*
X0074018Y0093608D01*
X0073535Y0094092D01*
X0072567Y0094092D01*
X0072083Y0093608D01*
X0073535Y0092157D02*
X0074986Y0092157D01*
X0074986Y0094092D01*
X0077083Y0093608D02*
X0079986Y0093608D01*
X0078535Y0092157D01*
X0078535Y0094092D01*
X0082083Y0093608D02*
X0082083Y0092641D01*
X0082567Y0092157D01*
X0083535Y0093124D02*
X0083535Y0093608D01*
X0083051Y0094092D01*
X0082567Y0094092D01*
X0082083Y0093608D01*
X0083535Y0093608D02*
X0084018Y0094092D01*
X0084502Y0094092D01*
X0084986Y0093608D01*
X0084986Y0092641D01*
X0084502Y0092157D01*
X0087083Y0092157D02*
X0087083Y0094092D01*
X0087083Y0092157D02*
X0089018Y0094092D01*
X0089502Y0094092D01*
X0089986Y0093608D01*
X0089986Y0092641D01*
X0089502Y0092157D01*
X0092083Y0092157D02*
X0092083Y0094092D01*
X0092083Y0093124D02*
X0094986Y0093124D01*
X0094018Y0092157D01*
X0097083Y0092641D02*
X0097567Y0092157D01*
X0099502Y0094092D01*
X0097567Y0094092D01*
X0097083Y0093608D01*
X0097083Y0092641D01*
X0097567Y0092157D02*
X0099502Y0092157D01*
X0099986Y0092641D01*
X0099986Y0093608D01*
X0099502Y0094092D01*
X0069986Y0090193D02*
X0068051Y0090193D01*
X0064986Y0090193D02*
X0064986Y0091644D01*
X0064502Y0092128D01*
X0062567Y0092128D01*
X0062083Y0091644D01*
X0062083Y0090193D01*
X0064986Y0090193D01*
X0064986Y0089181D02*
X0062083Y0089181D01*
X0064986Y0087246D01*
X0062083Y0087246D01*
X0062567Y0086235D02*
X0063535Y0086235D01*
X0063535Y0085267D01*
X0064502Y0084300D02*
X0062567Y0084300D01*
X0062083Y0084783D01*
X0062083Y0085751D01*
X0062567Y0086235D01*
X0064502Y0086235D02*
X0064986Y0085751D01*
X0064986Y0084783D01*
X0064502Y0084300D01*
X0067567Y0085267D02*
X0069502Y0085267D01*
X0068535Y0084300D02*
X0068535Y0086235D01*
X0069502Y0087246D02*
X0069986Y0087730D01*
X0059986Y0087730D02*
X0059502Y0087246D01*
X0057567Y0087246D01*
X0057083Y0087730D01*
X0057083Y0088697D01*
X0057567Y0089181D01*
X0057083Y0090193D02*
X0059986Y0090193D01*
X0059502Y0089181D02*
X0059986Y0088697D01*
X0059986Y0087730D01*
X0059502Y0086235D02*
X0059986Y0085751D01*
X0059986Y0084783D01*
X0059502Y0084300D01*
X0059018Y0084300D01*
X0058535Y0084783D01*
X0058535Y0085751D01*
X0058051Y0086235D01*
X0057567Y0086235D01*
X0057083Y0085751D01*
X0057083Y0084783D01*
X0057567Y0084300D01*
X0054986Y0084300D02*
X0054018Y0085267D01*
X0054986Y0086235D01*
X0052083Y0086235D01*
X0052083Y0087246D02*
X0052083Y0088214D01*
X0052083Y0087730D02*
X0054986Y0087730D01*
X0054986Y0087246D02*
X0054986Y0088214D01*
X0054502Y0089210D02*
X0054018Y0089210D01*
X0053535Y0089694D01*
X0053535Y0090662D01*
X0053051Y0091145D01*
X0052567Y0091145D01*
X0052083Y0090662D01*
X0052083Y0089694D01*
X0052567Y0089210D01*
X0054502Y0089210D02*
X0054986Y0089694D01*
X0054986Y0090662D01*
X0054502Y0091145D01*
X0054502Y0092157D02*
X0052567Y0092157D01*
X0052083Y0092641D01*
X0052083Y0093608D01*
X0052567Y0094092D01*
X0054502Y0094092D01*
X0054986Y0093608D01*
X0054986Y0092641D01*
X0054502Y0092157D01*
X0057083Y0092128D02*
X0058535Y0090676D01*
X0058051Y0090193D02*
X0059986Y0092128D01*
X0054986Y0084300D02*
X0052083Y0084300D01*
X0049986Y0084300D02*
X0049018Y0085267D01*
X0049986Y0086235D01*
X0047083Y0086235D01*
X0047567Y0087246D02*
X0047083Y0087730D01*
X0047083Y0088697D01*
X0047567Y0089181D01*
X0049502Y0089181D01*
X0049986Y0088697D01*
X0049986Y0087730D01*
X0049502Y0087246D01*
X0047567Y0087246D01*
X0044986Y0087730D02*
X0044502Y0087246D01*
X0044018Y0087246D01*
X0043535Y0087730D01*
X0043535Y0088697D01*
X0043051Y0089181D01*
X0042567Y0089181D01*
X0042083Y0088697D01*
X0042083Y0087730D01*
X0042567Y0087246D01*
X0042083Y0086235D02*
X0044986Y0086235D01*
X0044986Y0087730D02*
X0044986Y0088697D01*
X0044502Y0089181D01*
X0044986Y0090193D02*
X0042083Y0090193D01*
X0042083Y0092128D01*
X0042083Y0093139D02*
X0042083Y0095074D01*
X0042083Y0093139D02*
X0044986Y0093139D01*
X0044986Y0092128D02*
X0044986Y0090193D01*
X0043535Y0090193D02*
X0043535Y0091160D01*
X0047083Y0090676D02*
X0047567Y0090193D01*
X0047083Y0090676D02*
X0047083Y0091644D01*
X0047567Y0092128D01*
X0048051Y0092128D01*
X0048535Y0091644D01*
X0048535Y0090676D01*
X0049018Y0090193D01*
X0049502Y0090193D01*
X0049986Y0090676D01*
X0049986Y0091644D01*
X0049502Y0092128D01*
X0049986Y0093139D02*
X0049986Y0094107D01*
X0049986Y0093623D02*
X0047083Y0093623D01*
X0047083Y0093139D02*
X0047083Y0094107D01*
X0042083Y0086235D02*
X0044986Y0084300D01*
X0042083Y0084300D01*
X0047083Y0084300D02*
X0049986Y0084300D01*
X0034899Y0101229D02*
X0032964Y0101229D01*
X0033932Y0101229D02*
X0033932Y0104131D01*
X0034899Y0103164D01*
X0031953Y0103647D02*
X0031953Y0101712D01*
X0030018Y0103647D01*
X0030018Y0101712D01*
X0030501Y0101229D01*
X0031469Y0101229D01*
X0031953Y0101712D01*
X0031953Y0103647D02*
X0031469Y0104131D01*
X0030501Y0104131D01*
X0030018Y0103647D01*
X0029006Y0104131D02*
X0029006Y0101229D01*
X0029006Y0102196D02*
X0027071Y0104131D01*
X0027140Y0103662D02*
X0024671Y0103662D01*
X0025905Y0102427D02*
X0025905Y0104896D01*
X0028522Y0102680D02*
X0027071Y0101229D01*
X0020097Y0103501D02*
X0020097Y0106404D01*
X0018646Y0106404D01*
X0018162Y0105920D01*
X0018162Y0104952D01*
X0018646Y0104469D01*
X0020097Y0104469D01*
X0019130Y0104469D02*
X0018162Y0103501D01*
X0017151Y0103501D02*
X0015216Y0103501D01*
X0014204Y0103501D02*
X0012753Y0103501D01*
X0012269Y0103985D01*
X0012269Y0105920D01*
X0012753Y0106404D01*
X0014204Y0106404D01*
X0014204Y0103501D01*
X0016183Y0104952D02*
X0017151Y0104952D01*
X0017151Y0103501D02*
X0017151Y0106404D01*
X0015216Y0106404D01*
X0015570Y0113619D02*
X0017505Y0113619D01*
X0017505Y0116522D01*
X0015570Y0116522D01*
X0014558Y0116522D02*
X0012623Y0113619D01*
X0012623Y0116522D01*
X0014558Y0116522D02*
X0014558Y0113619D01*
X0016537Y0115071D02*
X0017505Y0115071D01*
X0018516Y0116522D02*
X0020451Y0116522D01*
X0020451Y0113619D01*
X0018516Y0113619D01*
X0019484Y0115071D02*
X0020451Y0115071D01*
X0021463Y0115071D02*
X0021947Y0114587D01*
X0023398Y0114587D01*
X0022430Y0114587D02*
X0021463Y0113619D01*
X0021463Y0115071D02*
X0021463Y0116038D01*
X0021947Y0116522D01*
X0023398Y0116522D01*
X0023398Y0113619D01*
X0024409Y0114103D02*
X0024409Y0115071D01*
X0025377Y0115071D01*
X0026141Y0114936D02*
X0026141Y0112467D01*
X0025861Y0113619D02*
X0024893Y0113619D01*
X0024409Y0114103D01*
X0024907Y0113701D02*
X0027376Y0113701D01*
X0026344Y0114103D02*
X0025861Y0113619D01*
X0026344Y0114103D02*
X0026344Y0116038D01*
X0025861Y0116522D01*
X0024893Y0116522D01*
X0024409Y0116038D01*
X0012446Y0093267D02*
X0012446Y0090799D01*
X0013681Y0092033D02*
X0011212Y0092033D01*
X0018082Y0089351D02*
X0018082Y0087416D01*
X0020984Y0087416D01*
X0020984Y0089351D01*
X0019533Y0088384D02*
X0019533Y0087416D01*
X0018566Y0086405D02*
X0020984Y0086405D01*
X0020984Y0084470D02*
X0018566Y0084470D01*
X0018082Y0084953D01*
X0018082Y0085921D01*
X0018566Y0086405D01*
X0018082Y0083458D02*
X0018082Y0081523D01*
X0020984Y0081523D01*
X0020501Y0080512D02*
X0020017Y0080512D01*
X0019533Y0080028D01*
X0019533Y0078577D01*
X0019533Y0080028D02*
X0019049Y0080512D01*
X0018566Y0080512D01*
X0018082Y0080028D01*
X0018082Y0078577D01*
X0020984Y0078577D01*
X0020984Y0080028D01*
X0020501Y0080512D01*
X0043161Y0058315D02*
X0044128Y0056864D01*
X0045096Y0058315D01*
X0046063Y0056864D02*
X0043161Y0056864D01*
X0043161Y0055852D02*
X0043161Y0053917D01*
X0045096Y0055852D01*
X0045579Y0055852D01*
X0046063Y0055369D01*
X0046063Y0054401D01*
X0045579Y0053917D01*
X0043644Y0052928D02*
X0043161Y0052928D01*
X0043161Y0052444D01*
X0043644Y0052444D01*
X0043644Y0052928D01*
X0043161Y0051433D02*
X0043161Y0049498D01*
X0043161Y0050465D02*
X0046063Y0050465D01*
X0045096Y0049498D01*
X0040214Y0039614D02*
X0039246Y0038163D01*
X0038279Y0039614D01*
X0038279Y0038163D02*
X0041181Y0038163D01*
X0040697Y0037152D02*
X0038762Y0037152D01*
X0038279Y0036668D01*
X0038279Y0035700D01*
X0038762Y0035217D01*
X0040697Y0037152D01*
X0041181Y0036668D01*
X0041181Y0035700D01*
X0040697Y0035217D01*
X0038762Y0035217D01*
X0038279Y0034205D02*
X0038279Y0032270D01*
X0038279Y0033238D02*
X0041181Y0033238D01*
X0040214Y0032270D01*
X0053301Y0016360D02*
X0052817Y0015876D01*
X0052817Y0014909D01*
X0053301Y0014425D01*
X0055236Y0016360D01*
X0053301Y0016360D01*
X0055236Y0016360D02*
X0055720Y0015876D01*
X0055720Y0014909D01*
X0055236Y0014425D01*
X0053301Y0014425D01*
X0053301Y0013413D02*
X0052817Y0012930D01*
X0052817Y0011962D01*
X0053301Y0011478D01*
X0055236Y0013413D01*
X0053301Y0013413D01*
X0053301Y0011478D02*
X0055236Y0011478D01*
X0055720Y0011962D01*
X0055720Y0012930D01*
X0055236Y0013413D01*
X0052817Y0010467D02*
X0052817Y0008532D01*
X0052817Y0009499D02*
X0055720Y0009499D01*
X0054752Y0008532D01*
X0183659Y0029761D02*
X0185111Y0030729D01*
X0183659Y0031696D01*
X0185111Y0032663D02*
X0185111Y0029761D01*
X0186122Y0030245D02*
X0186606Y0029761D01*
X0187573Y0029761D01*
X0188057Y0030245D01*
X0186122Y0032180D01*
X0186122Y0030245D01*
X0186122Y0032180D02*
X0186606Y0032663D01*
X0187573Y0032663D01*
X0188057Y0032180D01*
X0188057Y0030245D01*
X0189069Y0029761D02*
X0191004Y0029761D01*
X0190036Y0029761D02*
X0190036Y0032663D01*
X0191004Y0031696D01*
X0191916Y0022663D02*
X0191432Y0022180D01*
X0193367Y0020245D01*
X0192883Y0019761D01*
X0191916Y0019761D01*
X0191432Y0020245D01*
X0191432Y0022180D01*
X0191916Y0022663D02*
X0192883Y0022663D01*
X0193367Y0022180D01*
X0193367Y0020245D01*
X0194378Y0019761D02*
X0196313Y0019761D01*
X0195346Y0019761D02*
X0195346Y0022663D01*
X0196313Y0021696D01*
X0197097Y0018648D02*
X0197581Y0018164D01*
X0197581Y0015745D01*
X0199076Y0015745D02*
X0199076Y0017680D01*
X0198064Y0017197D02*
X0197097Y0017197D01*
X0199076Y0015745D02*
X0200527Y0015745D01*
X0201011Y0016229D01*
X0201011Y0017680D01*
X0202022Y0018164D02*
X0203957Y0016229D01*
X0203957Y0015745D01*
X0205453Y0015745D02*
X0205453Y0018648D01*
X0206904Y0017197D01*
X0204969Y0017197D01*
X0203957Y0018648D02*
X0202022Y0018648D01*
X0202022Y0018164D01*
X0190420Y0020245D02*
X0189937Y0019761D01*
X0188485Y0019761D01*
X0188485Y0021696D01*
X0187474Y0021212D02*
X0186506Y0021212D01*
X0186990Y0022180D02*
X0186990Y0019761D01*
X0186437Y0019539D02*
X0186437Y0017604D01*
X0188372Y0019539D01*
X0188856Y0019539D01*
X0189340Y0019055D01*
X0189340Y0018087D01*
X0188856Y0017604D01*
X0188856Y0016592D02*
X0189340Y0016108D01*
X0189340Y0015141D01*
X0188856Y0014657D01*
X0188856Y0013646D02*
X0189340Y0013162D01*
X0189340Y0012194D01*
X0188856Y0011711D01*
X0188856Y0010699D02*
X0189340Y0010215D01*
X0189340Y0009248D01*
X0188856Y0008764D01*
X0188856Y0010699D02*
X0188372Y0010699D01*
X0186437Y0008764D01*
X0186437Y0010699D01*
X0186437Y0011711D02*
X0188372Y0013646D01*
X0188856Y0013646D01*
X0186437Y0013646D02*
X0186437Y0011711D01*
X0186437Y0014657D02*
X0188372Y0016592D01*
X0188856Y0016592D01*
X0186437Y0016592D02*
X0186437Y0014657D01*
X0190420Y0020245D02*
X0190420Y0021696D01*
X0186990Y0022180D02*
X0186506Y0022663D01*
X0194210Y0093856D02*
X0195662Y0094823D01*
X0194210Y0095790D01*
X0195662Y0096758D02*
X0195662Y0093856D01*
X0196673Y0093856D02*
X0198608Y0093856D01*
X0197641Y0093856D02*
X0197641Y0096758D01*
X0198608Y0095790D01*
X0198550Y0100354D02*
X0196615Y0100354D01*
X0196615Y0102289D02*
X0196615Y0102772D01*
X0197099Y0103256D01*
X0198067Y0103256D01*
X0198550Y0102772D01*
X0199562Y0102772D02*
X0200046Y0103256D01*
X0201013Y0103256D01*
X0201497Y0102772D01*
X0202509Y0102772D02*
X0202992Y0103256D01*
X0203960Y0103256D01*
X0204443Y0102772D01*
X0205455Y0102772D02*
X0205939Y0103256D01*
X0206906Y0103256D01*
X0207390Y0102772D01*
X0205455Y0102772D02*
X0205455Y0102289D01*
X0207390Y0100354D01*
X0205455Y0100354D01*
X0204443Y0100354D02*
X0202509Y0102289D01*
X0202509Y0102772D01*
X0202509Y0100354D02*
X0204443Y0100354D01*
X0201497Y0100354D02*
X0199562Y0102289D01*
X0199562Y0102772D01*
X0199562Y0100354D02*
X0201497Y0100354D01*
X0198550Y0100354D02*
X0196615Y0102289D01*
X0196137Y0106670D02*
X0196137Y0109573D01*
X0197588Y0108122D01*
X0195654Y0108122D01*
X0194642Y0109089D02*
X0194158Y0109573D01*
X0193191Y0109573D01*
X0192707Y0109089D01*
X0194642Y0107154D01*
X0194158Y0106670D01*
X0193191Y0106670D01*
X0192707Y0107154D01*
X0192707Y0109089D01*
X0191695Y0108605D02*
X0190728Y0109573D01*
X0190728Y0106670D01*
X0191695Y0106670D02*
X0189760Y0106670D01*
X0188749Y0106670D02*
X0188749Y0107154D01*
X0186814Y0109089D01*
X0186814Y0109573D01*
X0188749Y0109573D01*
X0185802Y0109573D02*
X0184351Y0109573D01*
X0183867Y0109089D01*
X0183867Y0107154D01*
X0184351Y0106670D01*
X0185802Y0106670D01*
X0185802Y0109573D01*
X0185456Y0103442D02*
X0184972Y0102958D01*
X0184972Y0102475D01*
X0186907Y0100540D01*
X0184972Y0100540D01*
X0183961Y0100540D02*
X0182026Y0102475D01*
X0182026Y0102958D01*
X0182509Y0103442D01*
X0183477Y0103442D01*
X0183961Y0102958D01*
X0185456Y0103442D02*
X0186423Y0103442D01*
X0186907Y0102958D01*
X0183961Y0100540D02*
X0182026Y0100540D01*
X0181014Y0100540D02*
X0179079Y0102475D01*
X0179079Y0102958D01*
X0179563Y0103442D01*
X0180530Y0103442D01*
X0181014Y0102958D01*
X0181014Y0100540D02*
X0179079Y0100540D01*
X0178068Y0100540D02*
X0176133Y0102475D01*
X0176133Y0102958D01*
X0176616Y0103442D01*
X0177584Y0103442D01*
X0178068Y0102958D01*
X0178068Y0100540D02*
X0176133Y0100540D01*
X0194642Y0107154D02*
X0194642Y0109089D01*
D17*
X0175226Y0109177D02*
X0124045Y0109177D01*
X0124045Y0109675D02*
X0175226Y0109675D01*
X0175226Y0110174D02*
X0124045Y0110174D01*
X0124045Y0110672D02*
X0175226Y0110672D01*
X0175226Y0111171D02*
X0124045Y0111171D01*
X0124045Y0111670D02*
X0175226Y0111670D01*
X0175226Y0112168D02*
X0124045Y0112168D01*
X0124045Y0112496D02*
X0124045Y0090055D01*
X0124045Y0090234D02*
X0175226Y0090234D01*
X0175226Y0090055D02*
X0169715Y0090055D01*
X0169715Y0013677D01*
X0129951Y0013677D01*
X0129951Y0089268D01*
X0124045Y0089268D01*
X0124045Y0112890D01*
X0174439Y0112890D01*
X0174833Y0112496D01*
X0175226Y0112496D01*
X0175226Y0090055D01*
X0175226Y0112496D01*
X0124045Y0112496D01*
X0124045Y0112667D02*
X0174662Y0112667D01*
X0175226Y0108678D02*
X0124045Y0108678D01*
X0124045Y0108180D02*
X0175226Y0108180D01*
X0175226Y0107681D02*
X0124045Y0107681D01*
X0124045Y0107183D02*
X0175226Y0107183D01*
X0175226Y0106684D02*
X0124045Y0106684D01*
X0124045Y0106186D02*
X0175226Y0106186D01*
X0175226Y0105687D02*
X0124045Y0105687D01*
X0124045Y0105189D02*
X0175226Y0105189D01*
X0175226Y0104690D02*
X0124045Y0104690D01*
X0124045Y0104192D02*
X0175226Y0104192D01*
X0175226Y0103693D02*
X0124045Y0103693D01*
X0124045Y0103195D02*
X0175226Y0103195D01*
X0175226Y0102696D02*
X0124045Y0102696D01*
X0124045Y0102198D02*
X0175226Y0102198D01*
X0175226Y0101699D02*
X0124045Y0101699D01*
X0124045Y0101201D02*
X0175226Y0101201D01*
X0175226Y0100702D02*
X0124045Y0100702D01*
X0124045Y0100204D02*
X0175226Y0100204D01*
X0175226Y0099705D02*
X0124045Y0099705D01*
X0124045Y0099207D02*
X0175226Y0099207D01*
X0175226Y0098708D02*
X0124045Y0098708D01*
X0124045Y0098210D02*
X0175226Y0098210D01*
X0175226Y0097711D02*
X0124045Y0097711D01*
X0124045Y0097213D02*
X0175226Y0097213D01*
X0175226Y0096714D02*
X0124045Y0096714D01*
X0124045Y0096216D02*
X0175226Y0096216D01*
X0175226Y0095717D02*
X0124045Y0095717D01*
X0124045Y0095219D02*
X0175226Y0095219D01*
X0175226Y0094720D02*
X0124045Y0094720D01*
X0124045Y0094222D02*
X0175226Y0094222D01*
X0175226Y0093723D02*
X0124045Y0093723D01*
X0124045Y0093225D02*
X0175226Y0093225D01*
X0175226Y0092726D02*
X0124045Y0092726D01*
X0124045Y0092228D02*
X0175226Y0092228D01*
X0175226Y0091729D02*
X0124045Y0091729D01*
X0124045Y0091231D02*
X0175226Y0091231D01*
X0175226Y0090732D02*
X0124045Y0090732D01*
X0124045Y0089735D02*
X0169715Y0089735D01*
X0169715Y0089237D02*
X0129951Y0089237D01*
X0129951Y0088738D02*
X0169715Y0088738D01*
X0169715Y0088239D02*
X0129951Y0088239D01*
X0129951Y0087741D02*
X0169715Y0087741D01*
X0169715Y0087242D02*
X0129951Y0087242D01*
X0129951Y0086744D02*
X0169715Y0086744D01*
X0169715Y0086245D02*
X0129951Y0086245D01*
X0129951Y0085747D02*
X0169715Y0085747D01*
X0169715Y0085248D02*
X0129951Y0085248D01*
X0129951Y0084750D02*
X0169715Y0084750D01*
X0169715Y0084251D02*
X0129951Y0084251D01*
X0129951Y0083753D02*
X0169715Y0083753D01*
X0169715Y0083254D02*
X0129951Y0083254D01*
X0129951Y0082756D02*
X0169715Y0082756D01*
X0169715Y0082257D02*
X0129951Y0082257D01*
X0129951Y0081759D02*
X0169715Y0081759D01*
X0169715Y0081260D02*
X0129951Y0081260D01*
X0129951Y0080762D02*
X0169715Y0080762D01*
X0169715Y0080263D02*
X0129951Y0080263D01*
X0129951Y0079765D02*
X0169715Y0079765D01*
X0169715Y0079266D02*
X0129951Y0079266D01*
X0129951Y0078768D02*
X0169715Y0078768D01*
X0169715Y0078269D02*
X0129951Y0078269D01*
X0129951Y0077771D02*
X0169715Y0077771D01*
X0169715Y0077272D02*
X0129951Y0077272D01*
X0129951Y0076774D02*
X0169715Y0076774D01*
X0169715Y0076275D02*
X0129951Y0076275D01*
X0129951Y0075777D02*
X0169715Y0075777D01*
X0169715Y0075278D02*
X0129951Y0075278D01*
X0129951Y0074780D02*
X0169715Y0074780D01*
X0169715Y0074281D02*
X0129951Y0074281D01*
X0129951Y0073783D02*
X0169715Y0073783D01*
X0169715Y0073284D02*
X0129951Y0073284D01*
X0129951Y0072786D02*
X0169715Y0072786D01*
X0169715Y0072287D02*
X0129951Y0072287D01*
X0129951Y0071789D02*
X0169715Y0071789D01*
X0169715Y0071290D02*
X0129951Y0071290D01*
X0129951Y0070792D02*
X0169715Y0070792D01*
X0169715Y0070293D02*
X0129951Y0070293D01*
X0129951Y0069795D02*
X0169715Y0069795D01*
X0169715Y0069296D02*
X0129951Y0069296D01*
X0129951Y0068798D02*
X0169715Y0068798D01*
X0169715Y0068299D02*
X0129951Y0068299D01*
X0129951Y0067801D02*
X0169715Y0067801D01*
X0169715Y0067302D02*
X0129951Y0067302D01*
X0129951Y0066803D02*
X0169715Y0066803D01*
X0169715Y0066305D02*
X0129951Y0066305D01*
X0129951Y0065806D02*
X0169715Y0065806D01*
X0169715Y0065308D02*
X0129951Y0065308D01*
X0129951Y0064809D02*
X0169715Y0064809D01*
X0169715Y0064311D02*
X0129951Y0064311D01*
X0129951Y0063812D02*
X0169715Y0063812D01*
X0169715Y0063314D02*
X0129951Y0063314D01*
X0129951Y0062815D02*
X0169715Y0062815D01*
X0169715Y0062317D02*
X0129951Y0062317D01*
X0129951Y0061818D02*
X0169715Y0061818D01*
X0169715Y0061320D02*
X0129951Y0061320D01*
X0129951Y0060821D02*
X0169715Y0060821D01*
X0169715Y0060323D02*
X0129951Y0060323D01*
X0129951Y0059824D02*
X0169715Y0059824D01*
X0169715Y0059326D02*
X0129951Y0059326D01*
X0129951Y0058827D02*
X0169715Y0058827D01*
X0169715Y0058329D02*
X0129951Y0058329D01*
X0129951Y0057830D02*
X0169715Y0057830D01*
X0169715Y0057332D02*
X0129951Y0057332D01*
X0129951Y0056833D02*
X0169715Y0056833D01*
X0169715Y0056335D02*
X0129951Y0056335D01*
X0129951Y0055836D02*
X0169715Y0055836D01*
X0169715Y0055338D02*
X0129951Y0055338D01*
X0129951Y0054839D02*
X0169715Y0054839D01*
X0169715Y0054341D02*
X0129951Y0054341D01*
X0129951Y0053842D02*
X0169715Y0053842D01*
X0169715Y0053344D02*
X0129951Y0053344D01*
X0129951Y0052845D02*
X0169715Y0052845D01*
X0169715Y0052347D02*
X0129951Y0052347D01*
X0129951Y0051848D02*
X0169715Y0051848D01*
X0169715Y0051350D02*
X0129951Y0051350D01*
X0129951Y0050851D02*
X0169715Y0050851D01*
X0169715Y0050353D02*
X0129951Y0050353D01*
X0129951Y0049854D02*
X0169715Y0049854D01*
X0169715Y0049356D02*
X0129951Y0049356D01*
X0129951Y0048857D02*
X0169715Y0048857D01*
X0169715Y0048359D02*
X0129951Y0048359D01*
X0129951Y0047860D02*
X0169715Y0047860D01*
X0169715Y0047362D02*
X0129951Y0047362D01*
X0129951Y0046863D02*
X0169715Y0046863D01*
X0169715Y0046365D02*
X0129951Y0046365D01*
X0129951Y0045866D02*
X0169715Y0045866D01*
X0169715Y0045368D02*
X0129951Y0045368D01*
X0129951Y0044869D02*
X0169715Y0044869D01*
X0169715Y0044370D02*
X0129951Y0044370D01*
X0129951Y0043872D02*
X0169715Y0043872D01*
X0169715Y0043373D02*
X0129951Y0043373D01*
X0129951Y0042875D02*
X0169715Y0042875D01*
X0169715Y0042376D02*
X0129951Y0042376D01*
X0129951Y0041878D02*
X0169715Y0041878D01*
X0169715Y0041379D02*
X0129951Y0041379D01*
X0129951Y0040881D02*
X0169715Y0040881D01*
X0169715Y0040382D02*
X0129951Y0040382D01*
X0129951Y0039884D02*
X0169715Y0039884D01*
X0169715Y0039385D02*
X0129951Y0039385D01*
X0129951Y0038887D02*
X0169715Y0038887D01*
X0169715Y0038388D02*
X0129951Y0038388D01*
X0129951Y0037890D02*
X0169715Y0037890D01*
X0169715Y0037391D02*
X0129951Y0037391D01*
X0129951Y0036893D02*
X0169715Y0036893D01*
X0169715Y0036394D02*
X0129951Y0036394D01*
X0129951Y0035896D02*
X0169715Y0035896D01*
X0169715Y0035397D02*
X0129951Y0035397D01*
X0129951Y0034899D02*
X0169715Y0034899D01*
X0169715Y0034400D02*
X0129951Y0034400D01*
X0129951Y0033902D02*
X0169715Y0033902D01*
X0169715Y0033403D02*
X0129951Y0033403D01*
X0129951Y0032905D02*
X0169715Y0032905D01*
X0169715Y0032406D02*
X0129951Y0032406D01*
X0129951Y0031908D02*
X0169715Y0031908D01*
X0169715Y0031409D02*
X0129951Y0031409D01*
X0129951Y0030911D02*
X0169715Y0030911D01*
X0169715Y0030412D02*
X0129951Y0030412D01*
X0129951Y0029914D02*
X0169715Y0029914D01*
X0169715Y0029415D02*
X0129951Y0029415D01*
X0129951Y0028917D02*
X0169715Y0028917D01*
X0169715Y0028418D02*
X0129951Y0028418D01*
X0129951Y0027920D02*
X0169715Y0027920D01*
X0169715Y0027421D02*
X0129951Y0027421D01*
X0129951Y0026923D02*
X0169715Y0026923D01*
X0169715Y0026424D02*
X0129951Y0026424D01*
X0129951Y0025926D02*
X0169715Y0025926D01*
X0169715Y0025427D02*
X0129951Y0025427D01*
X0129951Y0024929D02*
X0169715Y0024929D01*
X0169715Y0024430D02*
X0129951Y0024430D01*
X0129951Y0023932D02*
X0169715Y0023932D01*
X0169715Y0023433D02*
X0129951Y0023433D01*
X0129951Y0022934D02*
X0169715Y0022934D01*
X0169715Y0022436D02*
X0129951Y0022436D01*
X0129951Y0021937D02*
X0169715Y0021937D01*
X0169715Y0021439D02*
X0129951Y0021439D01*
X0129951Y0020940D02*
X0169715Y0020940D01*
X0169715Y0020442D02*
X0129951Y0020442D01*
X0129951Y0019943D02*
X0169715Y0019943D01*
X0169715Y0019445D02*
X0129951Y0019445D01*
X0129951Y0018946D02*
X0169715Y0018946D01*
X0169715Y0018448D02*
X0129951Y0018448D01*
X0129951Y0017949D02*
X0169715Y0017949D01*
X0169715Y0017451D02*
X0129951Y0017451D01*
X0129951Y0016952D02*
X0169715Y0016952D01*
X0169715Y0016454D02*
X0129951Y0016454D01*
X0129951Y0015955D02*
X0169715Y0015955D01*
X0169715Y0015457D02*
X0129951Y0015457D01*
X0129951Y0014958D02*
X0169715Y0014958D01*
X0169715Y0014460D02*
X0129951Y0014460D01*
X0129951Y0013961D02*
X0169715Y0013961D01*
X0110510Y0005961D02*
X0057510Y0005961D01*
X0057510Y0059961D01*
X0110510Y0059961D01*
X0110510Y0005961D01*
X0030620Y0053402D02*
X0030620Y0069937D01*
X0013297Y0069937D01*
X0013297Y0053402D01*
X0030620Y0053402D01*
X0036604Y0078543D02*
X0040541Y0078543D01*
X0040541Y0082693D01*
X0036604Y0082693D01*
X0036604Y0078543D01*
X0036604Y0078768D02*
X0040541Y0078768D01*
X0040541Y0079266D02*
X0036604Y0079266D01*
X0036604Y0079150D02*
X0036604Y0145150D01*
X0036998Y0145110D02*
X0036604Y0083087D01*
X0108533Y0083087D01*
X0108533Y0082693D01*
X0108533Y0079150D01*
X0104596Y0079150D01*
X0104596Y0083087D01*
X0108533Y0083087D01*
X0108533Y0082693D01*
X0108533Y0079150D01*
X0104596Y0079150D01*
X0104596Y0083087D01*
X0108533Y0083087D01*
X0108533Y0082693D01*
X0108533Y0079150D01*
X0104596Y0079150D01*
X0104596Y0083087D01*
X0108533Y0083087D01*
X0108533Y0145110D01*
X0105384Y0145110D01*
X0105384Y0141173D01*
X0095541Y0141173D01*
X0095541Y0145110D01*
X0036998Y0145110D01*
X0036998Y0145070D02*
X0095541Y0145070D01*
X0095541Y0144571D02*
X0036995Y0144571D01*
X0036991Y0144073D02*
X0095541Y0144073D01*
X0095541Y0143574D02*
X0036988Y0143574D01*
X0036985Y0143076D02*
X0095541Y0143076D01*
X0095541Y0142577D02*
X0036982Y0142577D01*
X0036979Y0142079D02*
X0095541Y0142079D01*
X0095541Y0141580D02*
X0036976Y0141580D01*
X0036972Y0141082D02*
X0108533Y0141082D01*
X0108533Y0141580D02*
X0105384Y0141580D01*
X0105384Y0142079D02*
X0108533Y0142079D01*
X0108533Y0142577D02*
X0105384Y0142577D01*
X0105384Y0143076D02*
X0108533Y0143076D01*
X0108533Y0143574D02*
X0105384Y0143574D01*
X0105384Y0144073D02*
X0108533Y0144073D01*
X0108533Y0144150D02*
X0108533Y0079150D01*
X0108533Y0079266D02*
X0104596Y0079266D01*
X0108533Y0079266D01*
X0104596Y0079266D01*
X0104596Y0079765D02*
X0108533Y0079765D01*
X0104596Y0079765D01*
X0108533Y0079765D01*
X0108533Y0080263D02*
X0104596Y0080263D01*
X0108533Y0080263D01*
X0104596Y0080263D01*
X0104596Y0080762D02*
X0108533Y0080762D01*
X0104596Y0080762D01*
X0108533Y0080762D01*
X0108533Y0081260D02*
X0104596Y0081260D01*
X0108533Y0081260D01*
X0104596Y0081260D01*
X0104596Y0081759D02*
X0108533Y0081759D01*
X0104596Y0081759D01*
X0108533Y0081759D01*
X0108533Y0082257D02*
X0104596Y0082257D01*
X0108533Y0082257D01*
X0104596Y0082257D01*
X0104596Y0082756D02*
X0108533Y0082756D01*
X0104596Y0082756D01*
X0108533Y0082756D01*
X0108533Y0083254D02*
X0036605Y0083254D01*
X0036609Y0083753D02*
X0108533Y0083753D01*
X0108533Y0084251D02*
X0036612Y0084251D01*
X0036615Y0084750D02*
X0108533Y0084750D01*
X0108533Y0085248D02*
X0036618Y0085248D01*
X0036621Y0085747D02*
X0108533Y0085747D01*
X0108533Y0086245D02*
X0036624Y0086245D01*
X0036628Y0086744D02*
X0108533Y0086744D01*
X0108533Y0087242D02*
X0036631Y0087242D01*
X0036634Y0087741D02*
X0108533Y0087741D01*
X0108533Y0088239D02*
X0036637Y0088239D01*
X0036640Y0088738D02*
X0108533Y0088738D01*
X0108533Y0089237D02*
X0036643Y0089237D01*
X0036647Y0089735D02*
X0108533Y0089735D01*
X0108533Y0090234D02*
X0036650Y0090234D01*
X0036653Y0090732D02*
X0108533Y0090732D01*
X0108533Y0091231D02*
X0036656Y0091231D01*
X0036659Y0091729D02*
X0108533Y0091729D01*
X0108533Y0092228D02*
X0036662Y0092228D01*
X0036666Y0092726D02*
X0108533Y0092726D01*
X0108533Y0093225D02*
X0036669Y0093225D01*
X0036672Y0093723D02*
X0108533Y0093723D01*
X0108533Y0094222D02*
X0036675Y0094222D01*
X0036678Y0094720D02*
X0108533Y0094720D01*
X0108533Y0095219D02*
X0036681Y0095219D01*
X0036685Y0095717D02*
X0108533Y0095717D01*
X0108533Y0096216D02*
X0036688Y0096216D01*
X0036691Y0096714D02*
X0108533Y0096714D01*
X0108533Y0097213D02*
X0036694Y0097213D01*
X0036697Y0097711D02*
X0108533Y0097711D01*
X0108533Y0098210D02*
X0036700Y0098210D01*
X0036703Y0098708D02*
X0108533Y0098708D01*
X0108533Y0099207D02*
X0036707Y0099207D01*
X0036710Y0099705D02*
X0108533Y0099705D01*
X0108533Y0100204D02*
X0036713Y0100204D01*
X0036716Y0100702D02*
X0108533Y0100702D01*
X0108533Y0101201D02*
X0036719Y0101201D01*
X0036722Y0101699D02*
X0108533Y0101699D01*
X0108533Y0102198D02*
X0036726Y0102198D01*
X0036729Y0102696D02*
X0108533Y0102696D01*
X0108533Y0103195D02*
X0036732Y0103195D01*
X0036735Y0103693D02*
X0108533Y0103693D01*
X0108533Y0104192D02*
X0036738Y0104192D01*
X0036741Y0104690D02*
X0108533Y0104690D01*
X0108533Y0105189D02*
X0036745Y0105189D01*
X0036748Y0105687D02*
X0108533Y0105687D01*
X0108533Y0106186D02*
X0036751Y0106186D01*
X0036754Y0106684D02*
X0108533Y0106684D01*
X0108533Y0107183D02*
X0036757Y0107183D01*
X0036760Y0107681D02*
X0108533Y0107681D01*
X0108533Y0108180D02*
X0036764Y0108180D01*
X0036767Y0108678D02*
X0108533Y0108678D01*
X0108533Y0109177D02*
X0036770Y0109177D01*
X0036773Y0109675D02*
X0108533Y0109675D01*
X0108533Y0110174D02*
X0036776Y0110174D01*
X0036779Y0110672D02*
X0108533Y0110672D01*
X0108533Y0111171D02*
X0036783Y0111171D01*
X0036786Y0111670D02*
X0108533Y0111670D01*
X0108533Y0112168D02*
X0036789Y0112168D01*
X0036792Y0112667D02*
X0108533Y0112667D01*
X0108533Y0113165D02*
X0036795Y0113165D01*
X0036798Y0113664D02*
X0108533Y0113664D01*
X0108533Y0114162D02*
X0036802Y0114162D01*
X0036805Y0114661D02*
X0108533Y0114661D01*
X0108533Y0115159D02*
X0036808Y0115159D01*
X0036811Y0115658D02*
X0108533Y0115658D01*
X0108533Y0116156D02*
X0036814Y0116156D01*
X0036817Y0116655D02*
X0108533Y0116655D01*
X0108533Y0117153D02*
X0036821Y0117153D01*
X0036824Y0117652D02*
X0108533Y0117652D01*
X0108533Y0118150D02*
X0036827Y0118150D01*
X0036830Y0118649D02*
X0108533Y0118649D01*
X0108533Y0119147D02*
X0036833Y0119147D01*
X0036836Y0119646D02*
X0108533Y0119646D01*
X0108533Y0120144D02*
X0036840Y0120144D01*
X0036843Y0120643D02*
X0108533Y0120643D01*
X0108533Y0121141D02*
X0036846Y0121141D01*
X0036849Y0121640D02*
X0108533Y0121640D01*
X0108533Y0122138D02*
X0036852Y0122138D01*
X0036855Y0122637D02*
X0108533Y0122637D01*
X0108533Y0123135D02*
X0036859Y0123135D01*
X0036862Y0123634D02*
X0108533Y0123634D01*
X0108533Y0124132D02*
X0036865Y0124132D01*
X0036868Y0124631D02*
X0108533Y0124631D01*
X0108533Y0125129D02*
X0036871Y0125129D01*
X0036874Y0125628D02*
X0108533Y0125628D01*
X0108533Y0126126D02*
X0036878Y0126126D01*
X0036881Y0126625D02*
X0108533Y0126625D01*
X0108533Y0127123D02*
X0036884Y0127123D01*
X0036887Y0127622D02*
X0108533Y0127622D01*
X0108533Y0128120D02*
X0036890Y0128120D01*
X0036893Y0128619D02*
X0108533Y0128619D01*
X0108533Y0129117D02*
X0036897Y0129117D01*
X0036900Y0129616D02*
X0108533Y0129616D01*
X0108533Y0130114D02*
X0036903Y0130114D01*
X0036906Y0130613D02*
X0108533Y0130613D01*
X0108533Y0131111D02*
X0036909Y0131111D01*
X0036912Y0131610D02*
X0108533Y0131610D01*
X0108533Y0132108D02*
X0036916Y0132108D01*
X0036919Y0132607D02*
X0108533Y0132607D01*
X0108533Y0133105D02*
X0036922Y0133105D01*
X0036925Y0133604D02*
X0108533Y0133604D01*
X0108533Y0134103D02*
X0036928Y0134103D01*
X0036931Y0134601D02*
X0108533Y0134601D01*
X0108533Y0135100D02*
X0036934Y0135100D01*
X0036938Y0135598D02*
X0108533Y0135598D01*
X0108533Y0136097D02*
X0036941Y0136097D01*
X0036944Y0136595D02*
X0108533Y0136595D01*
X0108533Y0137094D02*
X0036947Y0137094D01*
X0036950Y0137592D02*
X0108533Y0137592D01*
X0108533Y0138091D02*
X0036953Y0138091D01*
X0036957Y0138589D02*
X0108533Y0138589D01*
X0108533Y0139088D02*
X0036960Y0139088D01*
X0036963Y0139586D02*
X0108533Y0139586D01*
X0108533Y0140085D02*
X0036966Y0140085D01*
X0036969Y0140583D02*
X0108533Y0140583D01*
X0108533Y0144571D02*
X0105384Y0144571D01*
X0105384Y0145070D02*
X0108533Y0145070D01*
X0040541Y0082693D02*
X0036604Y0082693D01*
X0036604Y0079543D01*
X0040541Y0079543D01*
X0040541Y0082693D01*
X0036604Y0082693D01*
X0036604Y0079543D01*
X0040541Y0079543D01*
X0040541Y0082693D01*
X0040541Y0082257D02*
X0036604Y0082257D01*
X0040541Y0082257D01*
X0036604Y0082257D01*
X0036604Y0081759D02*
X0040541Y0081759D01*
X0036604Y0081759D01*
X0040541Y0081759D01*
X0040541Y0081260D02*
X0036604Y0081260D01*
X0040541Y0081260D01*
X0036604Y0081260D01*
X0036604Y0080762D02*
X0040541Y0080762D01*
X0036604Y0080762D01*
X0040541Y0080762D01*
X0040541Y0080263D02*
X0036604Y0080263D01*
X0040541Y0080263D01*
X0036604Y0080263D01*
X0036604Y0079765D02*
X0040541Y0079765D01*
X0036604Y0079765D01*
X0040541Y0079765D01*
D18*
X0063510Y0020961D02*
X0063512Y0021024D01*
X0063518Y0021086D01*
X0063528Y0021148D01*
X0063541Y0021210D01*
X0063559Y0021270D01*
X0063580Y0021329D01*
X0063605Y0021387D01*
X0063634Y0021443D01*
X0063666Y0021497D01*
X0063701Y0021549D01*
X0063739Y0021598D01*
X0063781Y0021646D01*
X0063825Y0021690D01*
X0063873Y0021732D01*
X0063922Y0021770D01*
X0063974Y0021805D01*
X0064028Y0021837D01*
X0064084Y0021866D01*
X0064142Y0021891D01*
X0064201Y0021912D01*
X0064261Y0021930D01*
X0064323Y0021943D01*
X0064385Y0021953D01*
X0064447Y0021959D01*
X0064510Y0021961D01*
X0064573Y0021959D01*
X0064635Y0021953D01*
X0064697Y0021943D01*
X0064759Y0021930D01*
X0064819Y0021912D01*
X0064878Y0021891D01*
X0064936Y0021866D01*
X0064992Y0021837D01*
X0065046Y0021805D01*
X0065098Y0021770D01*
X0065147Y0021732D01*
X0065195Y0021690D01*
X0065239Y0021646D01*
X0065281Y0021598D01*
X0065319Y0021549D01*
X0065354Y0021497D01*
X0065386Y0021443D01*
X0065415Y0021387D01*
X0065440Y0021329D01*
X0065461Y0021270D01*
X0065479Y0021210D01*
X0065492Y0021148D01*
X0065502Y0021086D01*
X0065508Y0021024D01*
X0065510Y0020961D01*
X0065508Y0020898D01*
X0065502Y0020836D01*
X0065492Y0020774D01*
X0065479Y0020712D01*
X0065461Y0020652D01*
X0065440Y0020593D01*
X0065415Y0020535D01*
X0065386Y0020479D01*
X0065354Y0020425D01*
X0065319Y0020373D01*
X0065281Y0020324D01*
X0065239Y0020276D01*
X0065195Y0020232D01*
X0065147Y0020190D01*
X0065098Y0020152D01*
X0065046Y0020117D01*
X0064992Y0020085D01*
X0064936Y0020056D01*
X0064878Y0020031D01*
X0064819Y0020010D01*
X0064759Y0019992D01*
X0064697Y0019979D01*
X0064635Y0019969D01*
X0064573Y0019963D01*
X0064510Y0019961D01*
X0064447Y0019963D01*
X0064385Y0019969D01*
X0064323Y0019979D01*
X0064261Y0019992D01*
X0064201Y0020010D01*
X0064142Y0020031D01*
X0064084Y0020056D01*
X0064028Y0020085D01*
X0063974Y0020117D01*
X0063922Y0020152D01*
X0063873Y0020190D01*
X0063825Y0020232D01*
X0063781Y0020276D01*
X0063739Y0020324D01*
X0063701Y0020373D01*
X0063666Y0020425D01*
X0063634Y0020479D01*
X0063605Y0020535D01*
X0063580Y0020593D01*
X0063559Y0020652D01*
X0063541Y0020712D01*
X0063528Y0020774D01*
X0063518Y0020836D01*
X0063512Y0020898D01*
X0063510Y0020961D01*
X0185069Y0049386D02*
X0192156Y0049386D01*
X0185069Y0049386D02*
X0185069Y0058441D01*
X0201604Y0049386D02*
X0204360Y0049386D01*
X0185069Y0072614D02*
X0185069Y0081669D01*
X0192156Y0081669D01*
X0201604Y0081669D02*
X0204360Y0081669D01*
D19*
X0201830Y0089078D02*
X0201330Y0089078D01*
X0201580Y0089078D02*
X0201580Y0090579D01*
X0201830Y0090579D02*
X0201330Y0090579D01*
X0200848Y0090329D02*
X0200598Y0090579D01*
X0200097Y0090579D01*
X0199847Y0090329D01*
X0199374Y0090579D02*
X0199374Y0089078D01*
X0199374Y0089578D02*
X0198624Y0089578D01*
X0198374Y0089828D01*
X0198374Y0090329D01*
X0198624Y0090579D01*
X0199374Y0090579D01*
X0200097Y0089828D02*
X0199847Y0089578D01*
X0199847Y0089328D01*
X0200097Y0089078D01*
X0200598Y0089078D01*
X0200848Y0089328D01*
X0200598Y0089828D02*
X0200097Y0089828D01*
X0200598Y0089828D02*
X0200848Y0090078D01*
X0200848Y0090329D01*
X0197901Y0090329D02*
X0197651Y0090579D01*
X0197151Y0090579D01*
X0196900Y0090329D01*
X0196900Y0090078D01*
X0197901Y0089078D01*
X0196900Y0089078D01*
X0125959Y0128849D02*
X0125959Y0129850D01*
X0125959Y0129350D02*
X0124457Y0129350D01*
X0125208Y0130322D02*
X0125208Y0131323D01*
X0124457Y0131073D02*
X0125959Y0131073D01*
X0125208Y0130322D01*
X0124186Y0132391D02*
X0124186Y0133392D01*
X0124186Y0133864D02*
X0123435Y0133864D01*
X0123685Y0134365D01*
X0123685Y0134615D01*
X0123435Y0134865D01*
X0122934Y0134865D01*
X0122684Y0134615D01*
X0122684Y0134114D01*
X0122934Y0133864D01*
X0122684Y0132891D02*
X0124186Y0132891D01*
X0124186Y0133864D02*
X0124186Y0134865D01*
D20*
X0135033Y0134819D02*
X0135800Y0134052D01*
X0138869Y0137121D01*
X0135800Y0137121D01*
X0135033Y0136354D01*
X0135033Y0134819D01*
X0135800Y0134052D02*
X0138869Y0134052D01*
X0139637Y0134819D01*
X0139637Y0136354D01*
X0138869Y0137121D01*
X0139637Y0138656D02*
X0135033Y0138656D01*
X0136567Y0138656D02*
X0138102Y0140958D01*
X0136567Y0138656D02*
X0135033Y0140958D01*
X0135033Y0132517D02*
X0135033Y0129448D01*
X0135033Y0130983D02*
X0139637Y0130983D01*
X0138102Y0129448D01*
X0154208Y0113757D02*
X0155743Y0112989D01*
X0157278Y0111455D01*
X0154976Y0111455D01*
X0154208Y0110687D01*
X0154208Y0109920D01*
X0154976Y0109153D01*
X0156510Y0109153D01*
X0157278Y0109920D01*
X0157278Y0111455D01*
X0158812Y0112989D02*
X0158812Y0109920D01*
X0159580Y0109153D01*
X0161114Y0109153D01*
X0161882Y0109920D01*
X0158812Y0112989D01*
X0159580Y0113757D01*
X0161114Y0113757D01*
X0161882Y0112989D01*
X0161882Y0109920D01*
X0163416Y0109920D02*
X0164183Y0109153D01*
X0165718Y0109153D01*
X0166485Y0109920D01*
X0166485Y0112989D01*
X0165718Y0113757D01*
X0164183Y0113757D01*
X0163416Y0112989D01*
X0168020Y0113757D02*
X0168020Y0109153D01*
X0168020Y0111455D02*
X0171089Y0111455D01*
X0171089Y0109153D02*
X0171089Y0113757D01*
X0090314Y0054853D02*
X0090314Y0051784D01*
X0088012Y0051784D01*
X0088779Y0053319D01*
X0088779Y0054086D01*
X0088012Y0054853D01*
X0086477Y0054853D01*
X0085710Y0054086D01*
X0085710Y0052551D01*
X0086477Y0051784D01*
X0086477Y0050250D02*
X0085710Y0049482D01*
X0085710Y0047948D01*
X0086477Y0047180D01*
X0087244Y0047180D01*
X0088012Y0047948D01*
X0088012Y0049482D01*
X0087244Y0050250D01*
X0086477Y0050250D01*
X0088012Y0049482D02*
X0088779Y0050250D01*
X0089546Y0050250D01*
X0090314Y0049482D01*
X0090314Y0047948D01*
X0089546Y0047180D01*
X0088779Y0047180D01*
X0088012Y0047948D01*
X0088012Y0045646D02*
X0088012Y0042576D01*
X0088779Y0042576D02*
X0090314Y0044111D01*
X0088779Y0045646D01*
X0085710Y0045646D01*
X0085710Y0042576D02*
X0088779Y0042576D01*
X0088012Y0041042D02*
X0088012Y0037972D01*
X0090314Y0036438D02*
X0090314Y0033368D01*
X0085710Y0033368D01*
X0086477Y0031834D02*
X0085710Y0031067D01*
X0085710Y0029532D01*
X0086477Y0028765D01*
X0088012Y0029532D02*
X0088012Y0031067D01*
X0087244Y0031834D01*
X0086477Y0031834D01*
X0088012Y0033368D02*
X0088012Y0034903D01*
X0089546Y0031834D02*
X0090314Y0031067D01*
X0090314Y0029532D01*
X0089546Y0028765D01*
X0088779Y0028765D01*
X0088012Y0029532D01*
X0088012Y0027230D02*
X0087244Y0026463D01*
X0087244Y0024161D01*
X0085710Y0024161D02*
X0090314Y0024161D01*
X0090314Y0026463D01*
X0089546Y0027230D01*
X0088012Y0027230D01*
X0041778Y0059684D02*
X0038709Y0062753D01*
X0038709Y0059684D01*
X0039476Y0058917D01*
X0041011Y0058917D01*
X0041778Y0059684D01*
X0041778Y0062753D01*
X0041011Y0063520D01*
X0039476Y0063520D01*
X0038709Y0062753D01*
D21*
X0017510Y0083441D03*
X0012785Y0083441D03*
D22*
X0015148Y0083441D03*
X0017313Y0100961D03*
X0017549Y0111000D03*
D23*
X0028652Y0055370D03*
D24*
X0017313Y0098598D03*
X0017313Y0103323D03*
X0017549Y0108638D03*
X0017549Y0113362D03*
M02*
