%
M48
M72
T01C0.01200
T02C0.01969
T03C0.02362
T04C0.03150
T05C0.03200
T06C0.04331
T07C0.04724
T08C0.05118
%
T01
X194738Y111000
X146338Y141400
X160338Y141800
X168338Y75800
X27938Y84600
X60338Y73800
X45938Y54600
X91538Y68200
X79138Y54200
X117538Y65800
X37938Y146200
X57138Y92600
X49538Y31000
X67138Y67400
X185138Y133400
X194338Y146200
X134338Y141400
X55138Y141400
X187138Y127800
X57938Y125800
X45138Y149400
X183538Y73400
X162738Y73400
X104738Y91000
X93538Y92200
X75138Y94600
X47538Y73000
X29138Y77400
X183538Y146200
X149938Y150600
X191538Y131000
X187138Y118200
X25138Y20200
X51538Y46200
X41538Y127800
X37938Y95000
X42738Y95000
X186338Y31000
X17138Y68200
X16738Y21000
X191138Y71000
X159138Y103800
X169138Y87000
X181138Y77000
X116338Y31000
X181138Y58600
X113138Y88600
X14338Y95400
X29138Y120600
X117938Y101000
X84338Y126600
X116338Y21000
X126338Y127800
X47138Y24600
X66338Y43800
X95938Y94200
X95138Y85800
X86738Y74600
X86738Y66600
X98338Y84600
X63938Y99400
X52338Y111000
X43938Y115400
X94338Y66200
X200738Y71000
X104338Y54200
X203138Y75800
X104338Y50600
X70738Y94200
X88338Y87400
X29938Y35800
X168338Y98200
X176338Y90200
X165938Y89000
X98338Y115800
X89138Y46600
X189138Y77000
X106738Y72600
X106738Y65400
X163538Y108600
X129538Y136600
X140338Y131800
X112338Y140200
X144738Y123400
X116738Y128200
X111538Y124600
X95938Y122200
X90738Y96600
X147138Y98200
X131538Y38600
X104738Y38600
X21538Y89000
X53538Y91400
X75938Y101800
X67538Y106600
X47538Y64600
X35938Y90200
X174338Y9800
X57538Y61400
T02
X188415Y73402
X188415Y57654
T03
X20148Y25882
X20148Y33756
X20148Y18008
T04
X32864Y135409
T05
X165804Y127649
X165804Y137491
X165804Y117806
T06
X139006Y120803
X119006Y120803
T07
X20817Y95488
X48376Y95488
X20148Y8559
X20148Y43205
T08
X46211Y40134
X195817Y40134
M30
