G75*
%MOIN*%
%OFA0B0*%
%FSLAX24Y24*%
%IPPOS*%
%LPD*%
%AMOC8*
5,1,8,0,0,1.08239X$1,22.5*
%
%ADD10C,0.0000*%
%ADD11R,0.0472X0.0276*%
%ADD12R,0.0531X0.0791*%
%ADD13R,0.0591X0.0815*%
%ADD14R,0.0531X0.0806*%
%ADD15R,0.1000X0.0295*%
%ADD16R,0.0531X0.1000*%
%ADD17R,0.0500X0.0250*%
%ADD18R,0.1600X0.0600*%
%ADD19R,0.0800X0.0260*%
%ADD20R,0.0512X0.0591*%
%ADD21R,0.0500X0.0220*%
%ADD22R,0.0220X0.0500*%
%ADD23R,0.0591X0.0512*%
%ADD24R,0.0551X0.0394*%
%ADD25R,0.0709X0.0669*%
%ADD26R,0.0350X0.0550*%
%ADD27R,0.0350X0.0750*%
%ADD28R,0.0787X0.1200*%
%ADD29R,0.0394X0.0551*%
%ADD30R,0.0320X0.0560*%
%ADD31R,0.0450X0.0400*%
%ADD32R,0.0394X0.0787*%
%ADD33R,0.0709X0.0394*%
%ADD34R,0.0630X0.0591*%
%ADD35R,0.0472X0.0472*%
D10*
X002038Y000854D02*
X002038Y011613D01*
X002039Y011613D02*
X002041Y011645D01*
X002046Y011676D01*
X002055Y011707D01*
X002067Y011737D01*
X002083Y011765D01*
X002101Y011791D01*
X002122Y011815D01*
X002146Y011836D01*
X002172Y011854D01*
X002200Y011870D01*
X002230Y011882D01*
X002261Y011891D01*
X002292Y011896D01*
X002324Y011898D01*
X002324Y011899D02*
X002659Y011899D01*
X002689Y011901D01*
X002718Y011906D01*
X002747Y011914D01*
X002774Y011925D01*
X002800Y011940D01*
X002824Y011957D01*
X002846Y011977D01*
X002866Y011999D01*
X002883Y012023D01*
X002898Y012049D01*
X002909Y012076D01*
X002917Y012105D01*
X002922Y012134D01*
X002924Y012164D01*
X002924Y015048D01*
X002926Y015095D01*
X002931Y015142D01*
X002941Y015189D01*
X002954Y015234D01*
X002970Y015279D01*
X002990Y015322D01*
X003013Y015363D01*
X003039Y015402D01*
X003068Y015440D01*
X003101Y015474D01*
X003135Y015507D01*
X003173Y015536D01*
X003212Y015562D01*
X003253Y015585D01*
X003296Y015605D01*
X003341Y015621D01*
X003386Y015634D01*
X003433Y015644D01*
X003480Y015649D01*
X003527Y015651D01*
X021161Y015651D01*
X021161Y015650D02*
X021207Y015648D01*
X021254Y015642D01*
X021299Y015633D01*
X021343Y015620D01*
X021387Y015603D01*
X021428Y015582D01*
X021468Y015558D01*
X021506Y015531D01*
X021542Y015501D01*
X021574Y015469D01*
X021604Y015433D01*
X021631Y015395D01*
X021655Y015355D01*
X021676Y015314D01*
X021693Y015270D01*
X021706Y015226D01*
X021715Y015181D01*
X021721Y015134D01*
X021723Y015088D01*
X021723Y000683D01*
X021721Y000644D01*
X021716Y000606D01*
X021707Y000569D01*
X021695Y000532D01*
X021679Y000497D01*
X021660Y000463D01*
X021639Y000431D01*
X021614Y000401D01*
X021587Y000374D01*
X021557Y000349D01*
X021525Y000328D01*
X021491Y000309D01*
X021456Y000293D01*
X021419Y000281D01*
X021382Y000272D01*
X021344Y000267D01*
X021305Y000265D01*
X002628Y000265D01*
X002582Y000267D01*
X002536Y000272D01*
X002491Y000281D01*
X002446Y000294D01*
X002403Y000310D01*
X002361Y000329D01*
X002320Y000352D01*
X002282Y000377D01*
X002245Y000406D01*
X002212Y000438D01*
X002180Y000471D01*
X002151Y000508D01*
X002126Y000546D01*
X002103Y000587D01*
X002084Y000629D01*
X002068Y000672D01*
X002055Y000717D01*
X002046Y000762D01*
X002041Y000808D01*
X002039Y000854D01*
X003456Y006501D02*
X003458Y006528D01*
X003464Y006555D01*
X003473Y006581D01*
X003486Y006605D01*
X003502Y006628D01*
X003521Y006647D01*
X003543Y006664D01*
X003567Y006678D01*
X003592Y006688D01*
X003619Y006695D01*
X003646Y006698D01*
X003674Y006697D01*
X003701Y006692D01*
X003727Y006684D01*
X003751Y006672D01*
X003774Y006656D01*
X003795Y006638D01*
X003812Y006617D01*
X003827Y006593D01*
X003838Y006568D01*
X003846Y006542D01*
X003850Y006515D01*
X003850Y006487D01*
X003846Y006460D01*
X003838Y006434D01*
X003827Y006409D01*
X003812Y006385D01*
X003795Y006364D01*
X003774Y006346D01*
X003752Y006330D01*
X003727Y006318D01*
X003701Y006310D01*
X003674Y006305D01*
X003646Y006304D01*
X003619Y006307D01*
X003592Y006314D01*
X003567Y006324D01*
X003543Y006338D01*
X003521Y006355D01*
X003502Y006374D01*
X003486Y006397D01*
X003473Y006421D01*
X003464Y006447D01*
X003458Y006474D01*
X003456Y006501D01*
X003532Y007222D02*
X003534Y007249D01*
X003540Y007276D01*
X003549Y007302D01*
X003562Y007326D01*
X003578Y007349D01*
X003597Y007368D01*
X003619Y007385D01*
X003643Y007399D01*
X003668Y007409D01*
X003695Y007416D01*
X003722Y007419D01*
X003750Y007418D01*
X003777Y007413D01*
X003803Y007405D01*
X003827Y007393D01*
X003850Y007377D01*
X003871Y007359D01*
X003888Y007338D01*
X003903Y007314D01*
X003914Y007289D01*
X003922Y007263D01*
X003926Y007236D01*
X003926Y007208D01*
X003922Y007181D01*
X003914Y007155D01*
X003903Y007130D01*
X003888Y007106D01*
X003871Y007085D01*
X003850Y007067D01*
X003828Y007051D01*
X003803Y007039D01*
X003777Y007031D01*
X003750Y007026D01*
X003722Y007025D01*
X003695Y007028D01*
X003668Y007035D01*
X003643Y007045D01*
X003619Y007059D01*
X003597Y007076D01*
X003578Y007095D01*
X003562Y007118D01*
X003549Y007142D01*
X003540Y007168D01*
X003534Y007195D01*
X003532Y007222D01*
X003532Y008954D02*
X003534Y008981D01*
X003540Y009008D01*
X003549Y009034D01*
X003562Y009058D01*
X003578Y009081D01*
X003597Y009100D01*
X003619Y009117D01*
X003643Y009131D01*
X003668Y009141D01*
X003695Y009148D01*
X003722Y009151D01*
X003750Y009150D01*
X003777Y009145D01*
X003803Y009137D01*
X003827Y009125D01*
X003850Y009109D01*
X003871Y009091D01*
X003888Y009070D01*
X003903Y009046D01*
X003914Y009021D01*
X003922Y008995D01*
X003926Y008968D01*
X003926Y008940D01*
X003922Y008913D01*
X003914Y008887D01*
X003903Y008862D01*
X003888Y008838D01*
X003871Y008817D01*
X003850Y008799D01*
X003828Y008783D01*
X003803Y008771D01*
X003777Y008763D01*
X003750Y008758D01*
X003722Y008757D01*
X003695Y008760D01*
X003668Y008767D01*
X003643Y008777D01*
X003619Y008791D01*
X003597Y008808D01*
X003578Y008827D01*
X003562Y008850D01*
X003549Y008874D01*
X003540Y008900D01*
X003534Y008927D01*
X003532Y008954D01*
X003456Y009655D02*
X003458Y009682D01*
X003464Y009709D01*
X003473Y009735D01*
X003486Y009759D01*
X003502Y009782D01*
X003521Y009801D01*
X003543Y009818D01*
X003567Y009832D01*
X003592Y009842D01*
X003619Y009849D01*
X003646Y009852D01*
X003674Y009851D01*
X003701Y009846D01*
X003727Y009838D01*
X003751Y009826D01*
X003774Y009810D01*
X003795Y009792D01*
X003812Y009771D01*
X003827Y009747D01*
X003838Y009722D01*
X003846Y009696D01*
X003850Y009669D01*
X003850Y009641D01*
X003846Y009614D01*
X003838Y009588D01*
X003827Y009563D01*
X003812Y009539D01*
X003795Y009518D01*
X003774Y009500D01*
X003752Y009484D01*
X003727Y009472D01*
X003701Y009464D01*
X003674Y009459D01*
X003646Y009458D01*
X003619Y009461D01*
X003592Y009468D01*
X003567Y009478D01*
X003543Y009492D01*
X003521Y009509D01*
X003502Y009528D01*
X003486Y009551D01*
X003473Y009575D01*
X003464Y009601D01*
X003458Y009628D01*
X003456Y009655D01*
X020066Y002045D02*
X020068Y002072D01*
X020074Y002099D01*
X020083Y002125D01*
X020096Y002149D01*
X020112Y002172D01*
X020131Y002191D01*
X020153Y002208D01*
X020177Y002222D01*
X020202Y002232D01*
X020229Y002239D01*
X020256Y002242D01*
X020284Y002241D01*
X020311Y002236D01*
X020337Y002228D01*
X020361Y002216D01*
X020384Y002200D01*
X020405Y002182D01*
X020422Y002161D01*
X020437Y002137D01*
X020448Y002112D01*
X020456Y002086D01*
X020460Y002059D01*
X020460Y002031D01*
X020456Y002004D01*
X020448Y001978D01*
X020437Y001953D01*
X020422Y001929D01*
X020405Y001908D01*
X020384Y001890D01*
X020362Y001874D01*
X020337Y001862D01*
X020311Y001854D01*
X020284Y001849D01*
X020256Y001848D01*
X020229Y001851D01*
X020202Y001858D01*
X020177Y001868D01*
X020153Y001882D01*
X020131Y001899D01*
X020112Y001918D01*
X020096Y001941D01*
X020083Y001965D01*
X020074Y001991D01*
X020068Y002018D01*
X020066Y002045D01*
X021011Y002045D02*
X021013Y002072D01*
X021019Y002099D01*
X021028Y002125D01*
X021041Y002149D01*
X021057Y002172D01*
X021076Y002191D01*
X021098Y002208D01*
X021122Y002222D01*
X021147Y002232D01*
X021174Y002239D01*
X021201Y002242D01*
X021229Y002241D01*
X021256Y002236D01*
X021282Y002228D01*
X021306Y002216D01*
X021329Y002200D01*
X021350Y002182D01*
X021367Y002161D01*
X021382Y002137D01*
X021393Y002112D01*
X021401Y002086D01*
X021405Y002059D01*
X021405Y002031D01*
X021401Y002004D01*
X021393Y001978D01*
X021382Y001953D01*
X021367Y001929D01*
X021350Y001908D01*
X021329Y001890D01*
X021307Y001874D01*
X021282Y001862D01*
X021256Y001854D01*
X021229Y001849D01*
X021201Y001848D01*
X021174Y001851D01*
X021147Y001858D01*
X021122Y001868D01*
X021098Y001882D01*
X021076Y001899D01*
X021057Y001918D01*
X021041Y001941D01*
X021028Y001965D01*
X021019Y001991D01*
X021013Y002018D01*
X021011Y002045D01*
D11*
X007397Y001552D03*
X007397Y001001D03*
X005979Y001001D03*
X005979Y001552D03*
D12*
X007658Y005205D03*
D13*
X003824Y011383D03*
D14*
X003857Y005330D03*
D15*
X007703Y005899D03*
X007703Y006312D03*
X007703Y006745D03*
X007703Y007178D03*
X007703Y007611D03*
X007703Y008045D03*
X007703Y008478D03*
X007703Y008911D03*
X007703Y009344D03*
D16*
X007625Y010989D03*
D17*
X008625Y014033D03*
X008625Y014533D03*
X015125Y014478D03*
X015125Y013978D03*
X015125Y013478D03*
X015125Y012978D03*
X015125Y012478D03*
X015125Y011978D03*
X015125Y011478D03*
X015125Y010978D03*
X015125Y010478D03*
X015125Y009978D03*
X015125Y009478D03*
X015125Y008978D03*
D18*
X003751Y012706D03*
X003751Y014706D03*
D19*
X018706Y014472D03*
X018706Y014972D03*
X018706Y013972D03*
X018706Y013472D03*
X018706Y012972D03*
X018706Y012472D03*
X018706Y011972D03*
X018706Y011472D03*
X021126Y011472D03*
X021126Y011972D03*
X021126Y012472D03*
X021126Y012972D03*
X021126Y013472D03*
X021126Y013972D03*
X021126Y014472D03*
X021126Y014972D03*
D20*
X021113Y005804D03*
X020365Y005804D03*
X020373Y004840D03*
X021121Y004840D03*
X021074Y003970D03*
X020326Y003970D03*
X007889Y013253D03*
X007141Y013253D03*
X005869Y013631D03*
X005121Y013631D03*
X004979Y014938D03*
X005727Y014938D03*
D21*
G36*
X016214Y009150D02*
X015862Y009502D01*
X016018Y009658D01*
X016370Y009306D01*
X016214Y009150D01*
G37*
G36*
X016437Y009373D02*
X016085Y009725D01*
X016241Y009881D01*
X016593Y009529D01*
X016437Y009373D01*
G37*
G36*
X016660Y009596D02*
X016308Y009948D01*
X016464Y010104D01*
X016816Y009752D01*
X016660Y009596D01*
G37*
G36*
X016882Y009819D02*
X016530Y010171D01*
X016686Y010327D01*
X017038Y009975D01*
X016882Y009819D01*
G37*
G36*
X017105Y010041D02*
X016753Y010393D01*
X016909Y010549D01*
X017261Y010197D01*
X017105Y010041D01*
G37*
G36*
X017328Y010264D02*
X016976Y010616D01*
X017132Y010772D01*
X017484Y010420D01*
X017328Y010264D01*
G37*
G36*
X017550Y010487D02*
X017198Y010839D01*
X017354Y010995D01*
X017706Y010643D01*
X017550Y010487D01*
G37*
G36*
X017773Y010709D02*
X017421Y011061D01*
X017577Y011217D01*
X017929Y010865D01*
X017773Y010709D01*
G37*
G36*
X020163Y008319D02*
X019811Y008671D01*
X019967Y008827D01*
X020319Y008475D01*
X020163Y008319D01*
G37*
G36*
X019941Y008097D02*
X019589Y008449D01*
X019745Y008605D01*
X020097Y008253D01*
X019941Y008097D01*
G37*
G36*
X019718Y007874D02*
X019366Y008226D01*
X019522Y008382D01*
X019874Y008030D01*
X019718Y007874D01*
G37*
G36*
X019495Y007651D02*
X019143Y008003D01*
X019299Y008159D01*
X019651Y007807D01*
X019495Y007651D01*
G37*
G36*
X019272Y007429D02*
X018920Y007781D01*
X019076Y007937D01*
X019428Y007585D01*
X019272Y007429D01*
G37*
G36*
X019050Y007206D02*
X018698Y007558D01*
X018854Y007714D01*
X019206Y007362D01*
X019050Y007206D01*
G37*
G36*
X018827Y006983D02*
X018475Y007335D01*
X018631Y007491D01*
X018983Y007139D01*
X018827Y006983D01*
G37*
G36*
X018604Y006760D02*
X018252Y007112D01*
X018408Y007268D01*
X018760Y006916D01*
X018604Y006760D01*
G37*
D22*
G36*
X017577Y006760D02*
X017421Y006916D01*
X017773Y007268D01*
X017929Y007112D01*
X017577Y006760D01*
G37*
G36*
X017354Y006983D02*
X017198Y007139D01*
X017550Y007491D01*
X017706Y007335D01*
X017354Y006983D01*
G37*
G36*
X017132Y007206D02*
X016976Y007362D01*
X017328Y007714D01*
X017484Y007558D01*
X017132Y007206D01*
G37*
G36*
X016909Y007429D02*
X016753Y007585D01*
X017105Y007937D01*
X017261Y007781D01*
X016909Y007429D01*
G37*
G36*
X016686Y007651D02*
X016530Y007807D01*
X016882Y008159D01*
X017038Y008003D01*
X016686Y007651D01*
G37*
G36*
X016464Y007874D02*
X016308Y008030D01*
X016660Y008382D01*
X016816Y008226D01*
X016464Y007874D01*
G37*
G36*
X016241Y008097D02*
X016085Y008253D01*
X016437Y008605D01*
X016593Y008449D01*
X016241Y008097D01*
G37*
G36*
X016018Y008319D02*
X015862Y008475D01*
X016214Y008827D01*
X016370Y008671D01*
X016018Y008319D01*
G37*
G36*
X018854Y010264D02*
X018698Y010420D01*
X019050Y010772D01*
X019206Y010616D01*
X018854Y010264D01*
G37*
G36*
X019076Y010041D02*
X018920Y010197D01*
X019272Y010549D01*
X019428Y010393D01*
X019076Y010041D01*
G37*
G36*
X019299Y009819D02*
X019143Y009975D01*
X019495Y010327D01*
X019651Y010171D01*
X019299Y009819D01*
G37*
G36*
X019522Y009596D02*
X019366Y009752D01*
X019718Y010104D01*
X019874Y009948D01*
X019522Y009596D01*
G37*
G36*
X019745Y009373D02*
X019589Y009529D01*
X019941Y009881D01*
X020097Y009725D01*
X019745Y009373D01*
G37*
G36*
X019967Y009150D02*
X019811Y009306D01*
X020163Y009658D01*
X020319Y009502D01*
X019967Y009150D01*
G37*
G36*
X018631Y010487D02*
X018475Y010643D01*
X018827Y010995D01*
X018983Y010839D01*
X018631Y010487D01*
G37*
G36*
X018408Y010709D02*
X018252Y010865D01*
X018604Y011217D01*
X018760Y011061D01*
X018408Y010709D01*
G37*
D23*
X016223Y011501D03*
X016223Y012249D03*
X016196Y013812D03*
X016196Y014560D03*
X021082Y009391D03*
X021082Y008643D03*
X006365Y003182D03*
X006365Y002434D03*
D24*
X020381Y010521D03*
X021247Y010895D03*
X021247Y010147D03*
D25*
X005330Y003131D03*
X003716Y003131D03*
D26*
X003842Y002269D03*
X005023Y002269D03*
D27*
X004432Y002190D03*
D28*
X004432Y001230D03*
D29*
X005046Y011856D03*
X005794Y011856D03*
X005420Y012722D03*
X007550Y014104D03*
X007176Y014970D03*
X007924Y014970D03*
D30*
X020420Y003068D03*
X021050Y003068D03*
X021050Y001021D03*
X020420Y001021D03*
D31*
X020974Y006726D03*
X020974Y007474D03*
X020174Y007100D03*
D32*
X016916Y006257D03*
X016326Y006257D03*
X015735Y006257D03*
X015145Y006257D03*
X014554Y006257D03*
X013964Y006257D03*
X013373Y006257D03*
X012782Y006257D03*
X012192Y006257D03*
X011601Y006257D03*
X011011Y006257D03*
X010420Y006257D03*
X009830Y006257D03*
X009830Y001139D03*
X010420Y001139D03*
X011011Y001139D03*
X011601Y001139D03*
X012192Y001139D03*
X012782Y001139D03*
X013373Y001139D03*
X013964Y001139D03*
X014554Y001139D03*
X015145Y001139D03*
X015735Y001139D03*
X016326Y001139D03*
X016916Y001139D03*
D33*
X009141Y001631D03*
X009141Y002222D03*
X009141Y002812D03*
X009141Y003403D03*
X009141Y003993D03*
X009141Y004584D03*
X009141Y005174D03*
X009141Y005765D03*
D34*
X010275Y007493D03*
X012838Y007470D03*
X015282Y007474D03*
D35*
X013973Y007867D03*
X013973Y007080D03*
X011529Y007076D03*
X011529Y007863D03*
X008966Y007887D03*
X008966Y007100D03*
M02*
