%
M48
M72
T01C0.0120
T02C0.0236
T03C0.0320
T04C0.0360
T05C0.0394
T06C0.0433
T07C0.0472
%
T01
X5718Y11385
X4278Y7945
X15838Y8985
X16718Y9385
X3838Y865
X8598Y6625
X7118Y12145
X6118Y13145
X18118Y11385
X8598Y14945
X11998Y14345
X15558Y14505
X6358Y13625
X7558Y14585
X2798Y11105
X17078Y8225
X19918Y4385
X10758Y14185
X5758Y13145
X20198Y7745
X20558Y6545
X17678Y9785
X18958Y8505
X10118Y8625
X8518Y7665
X5718Y3665
X9998Y2825
X8958Y6145
X20678Y3505
X10918Y2425
X9318Y13745
X9318Y11985
X17278Y11185
X13958Y9505
X11838Y9345
X8318Y12825
X16958Y11105
X10398Y14185
X12638Y11505
X4238Y14225
X9078Y10345
X6998Y6865
X20398Y9065
X11918Y3425
X10318Y5025
X8318Y5145
X6118Y6865
X9438Y10345
X8438Y8505
X20158Y9945
X19518Y5745
X18998Y5225
X9678Y6945
X17278Y9545
X13998Y9185
X11598Y9105
X9478Y8945
X12638Y10025
X8398Y7345
X18078Y8745
X13878Y10585
X8318Y4465
X18878Y4745
X19758Y6865
X19758Y10345
X13318Y10345
X12158Y11385
X14558Y7825
X17478Y6585
X17238Y4865
X17238Y4145
X16078Y7945
X17958Y6865
X3598Y1145
X6998Y505
X9678Y2785
X19438Y7265
X19038Y9785
X8278Y1025
X18438Y10025
X16358Y10265
X18478Y10345
X3478Y2305
X6518Y9105
X20518Y11505
X19798Y15425
X5078Y745
X6478Y745
X6998Y1265
X8598Y1105
X15318Y15425
X19558Y14545
X19958Y13905
X19318Y15065
X14398Y15225
X20518Y13665
X19918Y12265
X20518Y11865
X6518Y8745
X18598Y4985
X8278Y4785
X7118Y3185
X6878Y6465
X6878Y5305
X18358Y6105
X10038Y6945
X7478Y9705
X15838Y7305
X11078Y8465
X9678Y9865
X6518Y10545
X5598Y8625
X17318Y7985
X5798Y12465
X4118Y8465
X19478Y13185
X19758Y11145
X16878Y11425
X16478Y11025
X14318Y11025
X13118Y11025
X11838Y11505
X16678Y14425
X18198Y6625
X14398Y8105
X13918Y8505
X15558Y11345
X8118Y14505
X3758Y14225
X7158Y13945
X6598Y13385
X21358Y7785
X16398Y2065
X15558Y10785
X13958Y9865
X12398Y7905
X14758Y7585
X20718Y5305
X13358Y3665
X17838Y8985
X14398Y8745
X12198Y8465
X11438Y8465
X5038Y12505
X5478Y11065
T02
X2912Y2867
X2912Y3655
X2912Y2080
X7999Y2375
X7999Y3950
T03
X17565Y13265
X17565Y14249
X17565Y12280
T04
X4716Y4115
X4716Y4903
X5503Y4115
X5503Y4903
X6290Y4115
X6290Y4903
T05
X3653Y9655
X3653Y6501
X3729Y8954
X3729Y7222
X21208Y2045
X20263Y2045
T06
X6527Y12438
X6527Y14438
T07
X2912Y1135
X2912Y4600
M30
