G75*
%MOIN*%
%OFA0B0*%
%FSLAX24Y24*%
%IPPOS*%
%LPD*%
%AMOC8*
5,1,8,0,0,1.08239X$1,22.5*
%
%ADD10C,0.0000*%
%ADD11R,1.8110X0.0315*%
%ADD12R,1.7323X0.0315*%
%ADD13C,0.0080*%
%ADD14C,0.0050*%
%ADD15C,0.0030*%
%ADD16C,0.0060*%
%ADD17C,0.0020*%
%ADD18C,0.0100*%
%ADD19R,0.0118X0.0827*%
%ADD20C,0.0040*%
D10*
X002038Y000854D02*
X002038Y011613D01*
X002039Y011613D02*
X002041Y011645D01*
X002046Y011676D01*
X002055Y011707D01*
X002067Y011737D01*
X002083Y011765D01*
X002101Y011791D01*
X002122Y011815D01*
X002146Y011836D01*
X002172Y011854D01*
X002200Y011870D01*
X002230Y011882D01*
X002261Y011891D01*
X002292Y011896D01*
X002324Y011898D01*
X002324Y011899D02*
X002659Y011899D01*
X002689Y011901D01*
X002718Y011906D01*
X002747Y011914D01*
X002774Y011925D01*
X002800Y011940D01*
X002824Y011957D01*
X002846Y011977D01*
X002866Y011999D01*
X002883Y012023D01*
X002898Y012049D01*
X002909Y012076D01*
X002917Y012105D01*
X002922Y012134D01*
X002924Y012164D01*
X002924Y015048D01*
X002926Y015095D01*
X002931Y015142D01*
X002941Y015189D01*
X002954Y015234D01*
X002970Y015279D01*
X002990Y015322D01*
X003013Y015363D01*
X003039Y015402D01*
X003068Y015440D01*
X003101Y015474D01*
X003135Y015507D01*
X003173Y015536D01*
X003212Y015562D01*
X003253Y015585D01*
X003296Y015605D01*
X003341Y015621D01*
X003386Y015634D01*
X003433Y015644D01*
X003480Y015649D01*
X003527Y015651D01*
X021161Y015651D01*
X021161Y015650D02*
X021207Y015648D01*
X021254Y015642D01*
X021299Y015633D01*
X021343Y015620D01*
X021387Y015603D01*
X021428Y015582D01*
X021468Y015558D01*
X021506Y015531D01*
X021542Y015501D01*
X021574Y015469D01*
X021604Y015433D01*
X021631Y015395D01*
X021655Y015355D01*
X021676Y015314D01*
X021693Y015270D01*
X021706Y015226D01*
X021715Y015181D01*
X021721Y015134D01*
X021723Y015088D01*
X021723Y000683D01*
X021721Y000644D01*
X021716Y000606D01*
X021707Y000569D01*
X021695Y000532D01*
X021679Y000497D01*
X021660Y000463D01*
X021639Y000431D01*
X021614Y000401D01*
X021587Y000374D01*
X021557Y000349D01*
X021525Y000328D01*
X021491Y000309D01*
X021456Y000293D01*
X021419Y000281D01*
X021382Y000272D01*
X021344Y000267D01*
X021305Y000265D01*
X002628Y000265D01*
X002582Y000267D01*
X002536Y000272D01*
X002491Y000281D01*
X002446Y000294D01*
X002403Y000310D01*
X002361Y000329D01*
X002320Y000352D01*
X002282Y000377D01*
X002245Y000406D01*
X002212Y000438D01*
X002180Y000471D01*
X002151Y000508D01*
X002126Y000546D01*
X002103Y000587D01*
X002084Y000629D01*
X002068Y000672D01*
X002055Y000717D01*
X002046Y000762D01*
X002041Y000808D01*
X002039Y000854D01*
X003456Y006501D02*
X003458Y006528D01*
X003464Y006555D01*
X003473Y006581D01*
X003486Y006605D01*
X003502Y006628D01*
X003521Y006647D01*
X003543Y006664D01*
X003567Y006678D01*
X003592Y006688D01*
X003619Y006695D01*
X003646Y006698D01*
X003674Y006697D01*
X003701Y006692D01*
X003727Y006684D01*
X003751Y006672D01*
X003774Y006656D01*
X003795Y006638D01*
X003812Y006617D01*
X003827Y006593D01*
X003838Y006568D01*
X003846Y006542D01*
X003850Y006515D01*
X003850Y006487D01*
X003846Y006460D01*
X003838Y006434D01*
X003827Y006409D01*
X003812Y006385D01*
X003795Y006364D01*
X003774Y006346D01*
X003752Y006330D01*
X003727Y006318D01*
X003701Y006310D01*
X003674Y006305D01*
X003646Y006304D01*
X003619Y006307D01*
X003592Y006314D01*
X003567Y006324D01*
X003543Y006338D01*
X003521Y006355D01*
X003502Y006374D01*
X003486Y006397D01*
X003473Y006421D01*
X003464Y006447D01*
X003458Y006474D01*
X003456Y006501D01*
X003532Y007222D02*
X003534Y007249D01*
X003540Y007276D01*
X003549Y007302D01*
X003562Y007326D01*
X003578Y007349D01*
X003597Y007368D01*
X003619Y007385D01*
X003643Y007399D01*
X003668Y007409D01*
X003695Y007416D01*
X003722Y007419D01*
X003750Y007418D01*
X003777Y007413D01*
X003803Y007405D01*
X003827Y007393D01*
X003850Y007377D01*
X003871Y007359D01*
X003888Y007338D01*
X003903Y007314D01*
X003914Y007289D01*
X003922Y007263D01*
X003926Y007236D01*
X003926Y007208D01*
X003922Y007181D01*
X003914Y007155D01*
X003903Y007130D01*
X003888Y007106D01*
X003871Y007085D01*
X003850Y007067D01*
X003828Y007051D01*
X003803Y007039D01*
X003777Y007031D01*
X003750Y007026D01*
X003722Y007025D01*
X003695Y007028D01*
X003668Y007035D01*
X003643Y007045D01*
X003619Y007059D01*
X003597Y007076D01*
X003578Y007095D01*
X003562Y007118D01*
X003549Y007142D01*
X003540Y007168D01*
X003534Y007195D01*
X003532Y007222D01*
X003532Y008954D02*
X003534Y008981D01*
X003540Y009008D01*
X003549Y009034D01*
X003562Y009058D01*
X003578Y009081D01*
X003597Y009100D01*
X003619Y009117D01*
X003643Y009131D01*
X003668Y009141D01*
X003695Y009148D01*
X003722Y009151D01*
X003750Y009150D01*
X003777Y009145D01*
X003803Y009137D01*
X003827Y009125D01*
X003850Y009109D01*
X003871Y009091D01*
X003888Y009070D01*
X003903Y009046D01*
X003914Y009021D01*
X003922Y008995D01*
X003926Y008968D01*
X003926Y008940D01*
X003922Y008913D01*
X003914Y008887D01*
X003903Y008862D01*
X003888Y008838D01*
X003871Y008817D01*
X003850Y008799D01*
X003828Y008783D01*
X003803Y008771D01*
X003777Y008763D01*
X003750Y008758D01*
X003722Y008757D01*
X003695Y008760D01*
X003668Y008767D01*
X003643Y008777D01*
X003619Y008791D01*
X003597Y008808D01*
X003578Y008827D01*
X003562Y008850D01*
X003549Y008874D01*
X003540Y008900D01*
X003534Y008927D01*
X003532Y008954D01*
X003456Y009655D02*
X003458Y009682D01*
X003464Y009709D01*
X003473Y009735D01*
X003486Y009759D01*
X003502Y009782D01*
X003521Y009801D01*
X003543Y009818D01*
X003567Y009832D01*
X003592Y009842D01*
X003619Y009849D01*
X003646Y009852D01*
X003674Y009851D01*
X003701Y009846D01*
X003727Y009838D01*
X003751Y009826D01*
X003774Y009810D01*
X003795Y009792D01*
X003812Y009771D01*
X003827Y009747D01*
X003838Y009722D01*
X003846Y009696D01*
X003850Y009669D01*
X003850Y009641D01*
X003846Y009614D01*
X003838Y009588D01*
X003827Y009563D01*
X003812Y009539D01*
X003795Y009518D01*
X003774Y009500D01*
X003752Y009484D01*
X003727Y009472D01*
X003701Y009464D01*
X003674Y009459D01*
X003646Y009458D01*
X003619Y009461D01*
X003592Y009468D01*
X003567Y009478D01*
X003543Y009492D01*
X003521Y009509D01*
X003502Y009528D01*
X003486Y009551D01*
X003473Y009575D01*
X003464Y009601D01*
X003458Y009628D01*
X003456Y009655D01*
X020066Y002045D02*
X020068Y002072D01*
X020074Y002099D01*
X020083Y002125D01*
X020096Y002149D01*
X020112Y002172D01*
X020131Y002191D01*
X020153Y002208D01*
X020177Y002222D01*
X020202Y002232D01*
X020229Y002239D01*
X020256Y002242D01*
X020284Y002241D01*
X020311Y002236D01*
X020337Y002228D01*
X020361Y002216D01*
X020384Y002200D01*
X020405Y002182D01*
X020422Y002161D01*
X020437Y002137D01*
X020448Y002112D01*
X020456Y002086D01*
X020460Y002059D01*
X020460Y002031D01*
X020456Y002004D01*
X020448Y001978D01*
X020437Y001953D01*
X020422Y001929D01*
X020405Y001908D01*
X020384Y001890D01*
X020362Y001874D01*
X020337Y001862D01*
X020311Y001854D01*
X020284Y001849D01*
X020256Y001848D01*
X020229Y001851D01*
X020202Y001858D01*
X020177Y001868D01*
X020153Y001882D01*
X020131Y001899D01*
X020112Y001918D01*
X020096Y001941D01*
X020083Y001965D01*
X020074Y001991D01*
X020068Y002018D01*
X020066Y002045D01*
X021011Y002045D02*
X021013Y002072D01*
X021019Y002099D01*
X021028Y002125D01*
X021041Y002149D01*
X021057Y002172D01*
X021076Y002191D01*
X021098Y002208D01*
X021122Y002222D01*
X021147Y002232D01*
X021174Y002239D01*
X021201Y002242D01*
X021229Y002241D01*
X021256Y002236D01*
X021282Y002228D01*
X021306Y002216D01*
X021329Y002200D01*
X021350Y002182D01*
X021367Y002161D01*
X021382Y002137D01*
X021393Y002112D01*
X021401Y002086D01*
X021405Y002059D01*
X021405Y002031D01*
X021401Y002004D01*
X021393Y001978D01*
X021382Y001953D01*
X021367Y001929D01*
X021350Y001908D01*
X021329Y001890D01*
X021307Y001874D01*
X021282Y001862D01*
X021256Y001854D01*
X021229Y001849D01*
X021201Y001848D01*
X021174Y001851D01*
X021147Y001858D01*
X021122Y001868D01*
X021098Y001882D01*
X021076Y001899D01*
X021057Y001918D01*
X021041Y001941D01*
X021028Y001965D01*
X021019Y001991D01*
X021013Y002018D01*
X021011Y002045D01*
D11*
X011881Y000422D03*
D12*
X012306Y015489D03*
D13*
X007109Y011234D02*
X004192Y011234D01*
X003440Y011234D02*
X002066Y011234D01*
X002066Y009659D01*
X002633Y009659D01*
X002632Y009659D02*
X002690Y009572D01*
X002743Y009483D01*
X002794Y009392D01*
X002841Y009299D01*
X002884Y009205D01*
X002924Y009109D01*
X002960Y009011D01*
X002992Y008913D01*
X003021Y008813D01*
X003046Y008712D01*
X003067Y008610D01*
X003084Y008507D01*
X003097Y008404D01*
X003106Y008301D01*
X003112Y008197D01*
X003113Y008093D01*
X003110Y007989D01*
X003104Y007886D01*
X003094Y007782D01*
X003079Y007679D01*
X003061Y007577D01*
X003039Y007475D01*
X003014Y007375D01*
X002984Y007275D01*
X002951Y007177D01*
X002913Y007080D01*
X002873Y006984D01*
X002828Y006890D01*
X002781Y006798D01*
X002729Y006707D01*
X002675Y006619D01*
X002617Y006533D01*
X002263Y006529D01*
X002263Y005458D01*
X002279Y005446D02*
X003475Y005446D01*
X004200Y005446D02*
X007302Y005446D01*
X005338Y002072D02*
X003527Y002072D01*
X003527Y001048D01*
X005338Y001048D01*
X005338Y002072D01*
X005979Y001907D02*
X005979Y001789D01*
X005979Y001907D02*
X007160Y001907D01*
X007397Y001737D01*
X007397Y000765D02*
X007397Y000647D01*
X005979Y000647D01*
X005979Y000765D01*
X007696Y009659D02*
X007696Y010643D01*
X007105Y010643D01*
X007109Y011234D01*
D14*
X008629Y011226D02*
X014731Y011226D01*
X014731Y011178D02*
X008629Y011178D01*
X008629Y011129D02*
X014731Y011129D01*
X014731Y011081D02*
X008629Y011081D01*
X008629Y011032D02*
X014731Y011032D01*
X014731Y010984D02*
X008629Y010984D01*
X008629Y010935D02*
X014731Y010935D01*
X014731Y010887D02*
X008629Y010887D01*
X008629Y010838D02*
X014731Y010838D01*
X014731Y010790D02*
X008629Y010790D01*
X008629Y010741D02*
X014731Y010741D01*
X014731Y010693D02*
X008629Y010693D01*
X008629Y010644D02*
X014731Y010644D01*
X014731Y010596D02*
X008629Y010596D01*
X008629Y010547D02*
X014731Y010547D01*
X014731Y010499D02*
X008629Y010499D01*
X008629Y010450D02*
X014731Y010450D01*
X014731Y010402D02*
X008629Y010402D01*
X008629Y010353D02*
X014731Y010353D01*
X014731Y010305D02*
X008629Y010305D01*
X008629Y010256D02*
X014731Y010256D01*
X014731Y010208D02*
X008629Y010208D01*
X008629Y010159D02*
X014731Y010159D01*
X014731Y010111D02*
X008629Y010111D01*
X008629Y010062D02*
X014731Y010062D01*
X014731Y010014D02*
X008629Y010014D01*
X008629Y009965D02*
X014731Y009965D01*
X014731Y009917D02*
X008629Y009917D01*
X008629Y009868D02*
X014731Y009868D01*
X014731Y009820D02*
X008629Y009820D01*
X008629Y009771D02*
X014731Y009771D01*
X014731Y009723D02*
X008629Y009723D01*
X008629Y009674D02*
X014731Y009674D01*
X014731Y009626D02*
X008629Y009626D01*
X008629Y009577D02*
X014731Y009577D01*
X014731Y009529D02*
X008629Y009529D01*
X008629Y009480D02*
X014731Y009480D01*
X014731Y009432D02*
X008629Y009432D01*
X008629Y009383D02*
X014731Y009383D01*
X014731Y009335D02*
X008629Y009335D01*
X008629Y009286D02*
X014731Y009286D01*
X014731Y009238D02*
X008629Y009238D01*
X008629Y009189D02*
X014731Y009189D01*
X014731Y009141D02*
X008629Y009141D01*
X008629Y009092D02*
X014731Y009092D01*
X014731Y009044D02*
X008629Y009044D01*
X008629Y008995D02*
X014731Y008995D01*
X014731Y008947D02*
X008629Y008947D01*
X008629Y008898D02*
X014731Y008898D01*
X014731Y008850D02*
X008629Y008850D01*
X008629Y008801D02*
X014731Y008801D01*
X014731Y008753D02*
X008629Y008753D01*
X008629Y008704D02*
X014731Y008704D01*
X014771Y008704D02*
X015086Y008704D01*
X015086Y008734D02*
X015086Y008773D01*
X014771Y008773D01*
X014771Y008379D01*
X015086Y008379D01*
X015086Y008734D01*
X015086Y008753D02*
X014771Y008753D01*
X014771Y008656D02*
X015086Y008656D01*
X015086Y008607D02*
X014771Y008607D01*
X014731Y008607D02*
X008629Y008607D01*
X008629Y008559D02*
X014731Y008559D01*
X014771Y008559D02*
X015086Y008559D01*
X015086Y008510D02*
X014771Y008510D01*
X014731Y008510D02*
X008629Y008510D01*
X008629Y008462D02*
X014731Y008462D01*
X014771Y008462D02*
X015086Y008462D01*
X015086Y008413D02*
X014771Y008413D01*
X014731Y008413D02*
X009482Y008413D01*
X009645Y008438D02*
X009645Y008202D01*
X009340Y008203D02*
X009239Y008432D01*
X008964Y008214D02*
X008797Y008381D01*
X008625Y008379D02*
X015125Y008379D01*
X014998Y008415D02*
X014937Y008186D01*
X014731Y008379D02*
X014731Y015072D01*
X014771Y015072D01*
X015125Y015072D01*
X015125Y014678D01*
X014731Y014678D01*
X014731Y015072D01*
X014692Y015072D01*
X008629Y015072D01*
X008629Y014757D01*
X009023Y014757D01*
X009023Y013773D01*
X008629Y013773D01*
X008629Y008419D01*
X014731Y008379D01*
X014653Y008419D02*
X014653Y008182D01*
X014348Y008184D02*
X014247Y008412D01*
X013972Y008194D02*
X013805Y008361D01*
X013446Y007982D02*
X013242Y007863D01*
X013058Y008123D02*
X013225Y008290D01*
X012916Y008404D02*
X012798Y008199D01*
X012492Y008182D02*
X012553Y008411D01*
X012208Y008415D02*
X012208Y008178D01*
X011903Y008180D02*
X011802Y008408D01*
X011527Y008190D02*
X011360Y008357D01*
X010883Y008005D02*
X010679Y007887D01*
X010495Y008146D02*
X010662Y008313D01*
X010353Y008428D02*
X010235Y008223D01*
X009929Y008206D02*
X009990Y008434D01*
X010708Y007493D02*
X010944Y007493D01*
X010684Y007119D02*
X010889Y007001D01*
X010673Y006662D02*
X010506Y006829D01*
X010255Y006769D02*
X010373Y006564D01*
X010009Y006550D02*
X009948Y006778D01*
X009684Y006785D02*
X009684Y006548D01*
X009360Y006781D02*
X009260Y006552D01*
X008980Y006789D02*
X008813Y006622D01*
X009672Y005667D02*
X017231Y005667D01*
X017231Y006257D01*
X019594Y006257D01*
X019594Y001218D01*
X019554Y001178D01*
X019554Y001139D01*
X017310Y001139D01*
X017310Y001690D01*
X009672Y001690D01*
X009672Y005667D01*
X009672Y005649D02*
X019594Y005649D01*
X019594Y005697D02*
X017231Y005697D01*
X017231Y005746D02*
X019594Y005746D01*
X019594Y005794D02*
X017231Y005794D01*
X017231Y005843D02*
X019594Y005843D01*
X019594Y005891D02*
X017231Y005891D01*
X017231Y005940D02*
X019594Y005940D01*
X019594Y005988D02*
X017231Y005988D01*
X017231Y006037D02*
X019594Y006037D01*
X019594Y006085D02*
X017231Y006085D01*
X017231Y006134D02*
X019594Y006134D01*
X019594Y006182D02*
X017231Y006182D01*
X017231Y006231D02*
X019594Y006231D01*
X019554Y006257D02*
X017310Y006257D01*
X015897Y006982D02*
X015692Y007100D01*
X015514Y006809D02*
X015681Y006642D01*
X015381Y006545D02*
X015263Y006749D01*
X014956Y006758D02*
X015017Y006530D01*
X014692Y006529D02*
X014692Y006765D01*
X014368Y006761D02*
X014268Y006533D01*
X013988Y006770D02*
X013821Y006603D01*
X013452Y006978D02*
X013247Y007096D01*
X013069Y006805D02*
X013236Y006638D01*
X012936Y006541D02*
X012818Y006745D01*
X012511Y006754D02*
X012572Y006526D01*
X012247Y006525D02*
X012247Y006761D01*
X011923Y006757D02*
X011823Y006529D01*
X011543Y006766D02*
X011376Y006599D01*
X009672Y005600D02*
X019594Y005600D01*
X019594Y005552D02*
X009672Y005552D01*
X009672Y005503D02*
X019594Y005503D01*
X019594Y005455D02*
X009672Y005455D01*
X009672Y005406D02*
X019594Y005406D01*
X019594Y005358D02*
X009672Y005358D01*
X009672Y005309D02*
X019594Y005309D01*
X019594Y005261D02*
X009672Y005261D01*
X009672Y005212D02*
X019594Y005212D01*
X019594Y005164D02*
X009672Y005164D01*
X009672Y005115D02*
X019594Y005115D01*
X019594Y005067D02*
X009672Y005067D01*
X009672Y005018D02*
X019594Y005018D01*
X019594Y004970D02*
X009672Y004970D01*
X009672Y004921D02*
X019594Y004921D01*
X019594Y004873D02*
X009672Y004873D01*
X009672Y004824D02*
X019594Y004824D01*
X019594Y004776D02*
X009672Y004776D01*
X009672Y004727D02*
X019594Y004727D01*
X019594Y004679D02*
X009672Y004679D01*
X009672Y004630D02*
X019594Y004630D01*
X019594Y004582D02*
X009672Y004582D01*
X009672Y004533D02*
X019594Y004533D01*
X019594Y004485D02*
X009672Y004485D01*
X009672Y004436D02*
X019594Y004436D01*
X019594Y004388D02*
X009672Y004388D01*
X009672Y004339D02*
X019594Y004339D01*
X019594Y004291D02*
X009672Y004291D01*
X009672Y004242D02*
X019594Y004242D01*
X019594Y004194D02*
X009672Y004194D01*
X009672Y004145D02*
X019594Y004145D01*
X019594Y004097D02*
X009672Y004097D01*
X009672Y004048D02*
X019594Y004048D01*
X019594Y004000D02*
X009672Y004000D01*
X009672Y003951D02*
X019594Y003951D01*
X019594Y003903D02*
X009672Y003903D01*
X009672Y003854D02*
X019594Y003854D01*
X019594Y003806D02*
X009672Y003806D01*
X009672Y003757D02*
X019594Y003757D01*
X019594Y003709D02*
X009672Y003709D01*
X009672Y003660D02*
X019594Y003660D01*
X019594Y003612D02*
X009672Y003612D01*
X009672Y003563D02*
X019594Y003563D01*
X019594Y003515D02*
X009672Y003515D01*
X009672Y003466D02*
X019594Y003466D01*
X019594Y003418D02*
X009672Y003418D01*
X009672Y003369D02*
X019594Y003369D01*
X019594Y003321D02*
X009672Y003321D01*
X009672Y003272D02*
X019594Y003272D01*
X019594Y003224D02*
X009672Y003224D01*
X009672Y003175D02*
X019594Y003175D01*
X019594Y003127D02*
X009672Y003127D01*
X009672Y003078D02*
X019594Y003078D01*
X019594Y003030D02*
X009672Y003030D01*
X009672Y002981D02*
X019594Y002981D01*
X019594Y002933D02*
X009672Y002933D01*
X009672Y002884D02*
X019594Y002884D01*
X019594Y002836D02*
X009672Y002836D01*
X009672Y002787D02*
X019594Y002787D01*
X019594Y002739D02*
X009672Y002739D01*
X009672Y002690D02*
X019594Y002690D01*
X019594Y002642D02*
X009672Y002642D01*
X009672Y002593D02*
X019594Y002593D01*
X019594Y002545D02*
X009672Y002545D01*
X009672Y002496D02*
X019594Y002496D01*
X019594Y002448D02*
X009672Y002448D01*
X009672Y002399D02*
X019594Y002399D01*
X019594Y002351D02*
X009672Y002351D01*
X009672Y002302D02*
X019594Y002302D01*
X019594Y002254D02*
X009672Y002254D01*
X009672Y002205D02*
X019594Y002205D01*
X019594Y002157D02*
X009672Y002157D01*
X009672Y002108D02*
X019594Y002108D01*
X019594Y002060D02*
X009672Y002060D01*
X009672Y002011D02*
X019594Y002011D01*
X019594Y001963D02*
X009672Y001963D01*
X009672Y001914D02*
X019594Y001914D01*
X019594Y001866D02*
X009672Y001866D01*
X009672Y001817D02*
X019594Y001817D01*
X019594Y001769D02*
X009672Y001769D01*
X009672Y001720D02*
X019594Y001720D01*
X019594Y001672D02*
X017310Y001672D01*
X017310Y001623D02*
X019594Y001623D01*
X019594Y001575D02*
X017310Y001575D01*
X017310Y001526D02*
X019594Y001526D01*
X019594Y001478D02*
X017310Y001478D01*
X017310Y001429D02*
X019594Y001429D01*
X019594Y001381D02*
X017310Y001381D01*
X017310Y001332D02*
X019594Y001332D01*
X019594Y001284D02*
X017310Y001284D01*
X017310Y001235D02*
X019594Y001235D01*
X019562Y001187D02*
X017310Y001187D01*
X017310Y001139D02*
X019554Y001139D01*
X019554Y006257D01*
X020324Y006525D02*
X020324Y006825D01*
X020324Y006525D02*
X020674Y006525D01*
X020824Y007025D02*
X020824Y007175D01*
X020324Y007375D02*
X020324Y007675D01*
X020674Y007675D01*
X015952Y007474D02*
X015716Y007474D01*
X015687Y007867D02*
X015891Y007985D01*
X015669Y008294D02*
X015502Y008127D01*
X015243Y008203D02*
X015361Y008408D01*
X014731Y008656D02*
X008629Y008656D01*
X008629Y011275D02*
X014731Y011275D01*
X014731Y011323D02*
X008629Y011323D01*
X008629Y011372D02*
X014731Y011372D01*
X014731Y011420D02*
X008629Y011420D01*
X008629Y011469D02*
X014731Y011469D01*
X014731Y011517D02*
X008629Y011517D01*
X008629Y011566D02*
X014731Y011566D01*
X014731Y011614D02*
X008629Y011614D01*
X008629Y011663D02*
X014731Y011663D01*
X014731Y011711D02*
X008629Y011711D01*
X008629Y011760D02*
X014731Y011760D01*
X014731Y011808D02*
X008629Y011808D01*
X008629Y011857D02*
X014731Y011857D01*
X014731Y011905D02*
X008629Y011905D01*
X008629Y011954D02*
X014731Y011954D01*
X014731Y012002D02*
X008629Y012002D01*
X008629Y012051D02*
X014731Y012051D01*
X014731Y012099D02*
X008629Y012099D01*
X008629Y012148D02*
X014731Y012148D01*
X014731Y012196D02*
X008629Y012196D01*
X008629Y012245D02*
X014731Y012245D01*
X014731Y012293D02*
X008629Y012293D01*
X008629Y012342D02*
X014731Y012342D01*
X014731Y012390D02*
X008629Y012390D01*
X008629Y012439D02*
X014731Y012439D01*
X014731Y012487D02*
X008629Y012487D01*
X008629Y012536D02*
X014731Y012536D01*
X014731Y012584D02*
X008629Y012584D01*
X008629Y012633D02*
X014731Y012633D01*
X014731Y012681D02*
X008629Y012681D01*
X008629Y012730D02*
X014731Y012730D01*
X014731Y012778D02*
X008629Y012778D01*
X008629Y012827D02*
X014731Y012827D01*
X014731Y012875D02*
X008629Y012875D01*
X008629Y012924D02*
X014731Y012924D01*
X014731Y012972D02*
X008629Y012972D01*
X008629Y013021D02*
X014731Y013021D01*
X014731Y013069D02*
X008629Y013069D01*
X008629Y013118D02*
X014731Y013118D01*
X014731Y013166D02*
X008629Y013166D01*
X008629Y013215D02*
X014731Y013215D01*
X014731Y013263D02*
X008629Y013263D01*
X008629Y013312D02*
X014731Y013312D01*
X014731Y013360D02*
X008629Y013360D01*
X008629Y013409D02*
X014731Y013409D01*
X014731Y013457D02*
X008629Y013457D01*
X008629Y013506D02*
X014731Y013506D01*
X014731Y013554D02*
X008629Y013554D01*
X008629Y013603D02*
X014731Y013603D01*
X014731Y013651D02*
X008629Y013651D01*
X008629Y013700D02*
X014731Y013700D01*
X014731Y013748D02*
X008629Y013748D01*
X009023Y013797D02*
X014731Y013797D01*
X014731Y013845D02*
X009023Y013845D01*
X009023Y013894D02*
X014731Y013894D01*
X014731Y013942D02*
X009023Y013942D01*
X009023Y013991D02*
X014731Y013991D01*
X014731Y014039D02*
X009023Y014039D01*
X009023Y014088D02*
X014731Y014088D01*
X014731Y014136D02*
X009023Y014136D01*
X009023Y014185D02*
X014731Y014185D01*
X014731Y014233D02*
X009023Y014233D01*
X009023Y014282D02*
X014731Y014282D01*
X014731Y014330D02*
X009023Y014330D01*
X009023Y014379D02*
X014731Y014379D01*
X014731Y014427D02*
X009023Y014427D01*
X009023Y014476D02*
X014731Y014476D01*
X014731Y014524D02*
X009023Y014524D01*
X009023Y014573D02*
X014731Y014573D01*
X014731Y014621D02*
X009023Y014621D01*
X009023Y014670D02*
X014731Y014670D01*
X014731Y014718D02*
X015125Y014718D01*
X015125Y014767D02*
X014731Y014767D01*
X008629Y014767D01*
X008629Y014815D02*
X014731Y014815D01*
X015125Y014815D01*
X015125Y014864D02*
X014731Y014864D01*
X008629Y014864D01*
X008629Y014912D02*
X014731Y014912D01*
X015125Y014912D01*
X015125Y014961D02*
X014731Y014961D01*
X008629Y014961D01*
X008629Y015009D02*
X014731Y015009D01*
X015125Y015009D01*
X015125Y015058D02*
X014731Y015058D01*
X008629Y015058D01*
X008625Y015072D02*
X015125Y015072D01*
X014731Y014718D02*
X009023Y014718D01*
X013271Y007470D02*
X013507Y007470D01*
X020145Y002832D02*
X020145Y001257D01*
X021326Y001257D01*
X021326Y001533D01*
X021680Y001533D01*
X021680Y002556D01*
X021326Y002556D01*
X021326Y002832D01*
X020145Y002832D01*
X021326Y002556D02*
X021326Y001533D01*
D15*
X020033Y001504D02*
X019742Y001504D01*
X019742Y001697D01*
X019791Y001798D02*
X019742Y001847D01*
X019742Y001944D01*
X019791Y001992D01*
X019839Y001992D01*
X019887Y001944D01*
X019887Y001847D01*
X019936Y001798D01*
X019984Y001798D01*
X020033Y001847D01*
X020033Y001944D01*
X019984Y001992D01*
X020033Y002093D02*
X019742Y002093D01*
X019742Y002287D01*
X019887Y002190D02*
X019887Y002093D01*
X020033Y002093D02*
X020033Y002287D01*
X020033Y002388D02*
X020033Y002581D01*
X020033Y002484D02*
X019742Y002484D01*
X020033Y001697D02*
X020033Y001504D01*
X019984Y001403D02*
X019887Y001403D01*
X019839Y001354D01*
X019839Y001209D01*
X019742Y001209D02*
X020033Y001209D01*
X020033Y001354D01*
X019984Y001403D01*
X019887Y001504D02*
X019887Y001601D01*
X019742Y001403D02*
X019839Y001306D01*
X021431Y003632D02*
X021431Y003826D01*
X021431Y003729D02*
X021722Y003729D01*
X021625Y003632D01*
X021673Y003927D02*
X021480Y003927D01*
X021673Y004121D01*
X021480Y004121D01*
X021431Y004072D01*
X021431Y003975D01*
X021480Y003927D01*
X021673Y003927D02*
X021722Y003975D01*
X021722Y004072D01*
X021673Y004121D01*
X021722Y004222D02*
X021431Y004222D01*
X021528Y004222D02*
X021625Y004367D01*
X021612Y004364D02*
X021709Y004461D01*
X021418Y004461D01*
X021431Y004367D02*
X021528Y004222D01*
X021418Y004364D02*
X021418Y004558D01*
X021467Y004659D02*
X021418Y004707D01*
X021418Y004852D01*
X021612Y004852D01*
X021564Y004954D02*
X021564Y005050D01*
X021660Y005002D02*
X021418Y005002D01*
X021660Y005002D02*
X021709Y005050D01*
X021600Y005309D02*
X021697Y005406D01*
X021407Y005406D01*
X021407Y005309D02*
X021407Y005503D01*
X021455Y005604D02*
X021648Y005797D01*
X021455Y005797D01*
X021407Y005749D01*
X021407Y005652D01*
X021455Y005604D01*
X021648Y005604D01*
X021697Y005652D01*
X021697Y005749D01*
X021648Y005797D01*
X021697Y005899D02*
X021407Y005899D01*
X021503Y005899D02*
X021600Y006044D01*
X021503Y005899D02*
X021407Y006044D01*
X021436Y006391D02*
X021339Y006391D01*
X021290Y006440D01*
X021290Y006537D01*
X021339Y006585D01*
X021387Y006585D01*
X021436Y006537D01*
X021436Y006391D01*
X021532Y006488D01*
X021581Y006585D01*
X021436Y006686D02*
X021436Y006831D01*
X021387Y006880D01*
X021339Y006880D01*
X021290Y006831D01*
X021290Y006734D01*
X021339Y006686D01*
X021436Y006686D01*
X021532Y006783D01*
X021581Y006880D01*
X021532Y006981D02*
X021581Y007029D01*
X021581Y007126D01*
X021532Y007174D01*
X021484Y007174D01*
X021290Y006981D01*
X021290Y007174D01*
X021290Y007275D02*
X021581Y007275D01*
X021436Y007324D02*
X021290Y007469D01*
X021290Y007570D02*
X021290Y007763D01*
X021290Y007667D02*
X021581Y007667D01*
X021484Y007570D01*
X021581Y007469D02*
X021387Y007275D01*
X021395Y007869D02*
X021589Y007869D01*
X021492Y007869D02*
X021492Y008160D01*
X021589Y008063D01*
X021294Y008111D02*
X021294Y007918D01*
X021100Y008111D01*
X021100Y007918D01*
X021149Y007869D01*
X021246Y007869D01*
X021294Y007918D01*
X021294Y008111D02*
X021246Y008160D01*
X021149Y008160D01*
X021100Y008111D01*
X020999Y008160D02*
X020999Y007869D01*
X020999Y007966D02*
X020854Y008063D01*
X020999Y007966D02*
X020854Y007869D01*
X018205Y007905D02*
X018205Y008098D01*
X018205Y008002D02*
X017915Y008002D01*
X017915Y008200D02*
X018205Y008200D01*
X018108Y008296D01*
X018205Y008393D01*
X017915Y008393D01*
X017915Y008494D02*
X017915Y008688D01*
X017963Y008789D02*
X017915Y008837D01*
X017915Y008934D01*
X017963Y008982D01*
X018060Y008982D01*
X018060Y008886D01*
X018157Y008982D02*
X018205Y008934D01*
X018205Y008837D01*
X018157Y008789D01*
X017963Y008789D01*
X018205Y008688D02*
X018205Y008494D01*
X017915Y008494D01*
X018060Y008494D02*
X018060Y008591D01*
X018060Y009084D02*
X018060Y009277D01*
X018108Y009277D02*
X017915Y009277D01*
X017963Y009378D02*
X017915Y009427D01*
X017915Y009523D01*
X017963Y009572D01*
X018012Y009572D01*
X018060Y009523D01*
X018060Y009475D01*
X018060Y009523D02*
X018108Y009572D01*
X018157Y009572D01*
X018205Y009523D01*
X018205Y009427D01*
X018157Y009378D01*
X018108Y009277D02*
X018205Y009180D01*
X018108Y009084D01*
X017915Y009084D01*
X017915Y009673D02*
X018108Y009866D01*
X018157Y009866D01*
X018205Y009818D01*
X018205Y009721D01*
X018157Y009673D01*
X017915Y009673D02*
X017915Y009866D01*
X017963Y009968D02*
X018012Y009968D01*
X018060Y010016D01*
X018060Y010113D01*
X018012Y010161D01*
X017963Y010161D01*
X017915Y010113D01*
X017915Y010016D01*
X017963Y009968D01*
X018060Y010016D02*
X018108Y009968D01*
X018157Y009968D01*
X018205Y010016D01*
X018205Y010113D01*
X018157Y010161D01*
X018108Y010161D01*
X018060Y010113D01*
X018012Y010262D02*
X018012Y010407D01*
X018060Y010456D01*
X018157Y010456D01*
X018205Y010407D01*
X018205Y010262D01*
X017915Y010262D01*
X019351Y010880D02*
X019351Y011074D01*
X019400Y011122D01*
X019545Y011122D01*
X019545Y010832D01*
X019400Y010832D01*
X019351Y010880D01*
X019646Y011074D02*
X019839Y010880D01*
X019839Y010832D01*
X019941Y010832D02*
X020134Y010832D01*
X020037Y010832D02*
X020037Y011122D01*
X020134Y011026D01*
X020235Y011074D02*
X020429Y010880D01*
X020380Y010832D01*
X020284Y010832D01*
X020235Y010880D01*
X020235Y011074D01*
X020284Y011122D01*
X020380Y011122D01*
X020429Y011074D01*
X020429Y010880D01*
X020530Y010977D02*
X020723Y010977D01*
X020578Y011122D01*
X020578Y010832D01*
X020677Y010844D02*
X020677Y010651D01*
X020871Y010844D01*
X020919Y010844D01*
X020968Y010796D01*
X020968Y010699D01*
X020919Y010651D01*
X020919Y010550D02*
X020968Y010501D01*
X020968Y010405D01*
X020919Y010356D01*
X020919Y010255D02*
X020968Y010207D01*
X020968Y010110D01*
X020919Y010061D01*
X020919Y010255D02*
X020871Y010255D01*
X020677Y010061D01*
X020677Y010255D01*
X020677Y010356D02*
X020871Y010550D01*
X020919Y010550D01*
X020677Y010550D02*
X020677Y010356D01*
X020677Y010945D02*
X020871Y011139D01*
X020919Y011139D01*
X020968Y011091D01*
X020968Y010994D01*
X020919Y010945D01*
X020677Y010945D02*
X020677Y011139D01*
X019839Y011122D02*
X019646Y011122D01*
X019646Y011074D01*
X016929Y011445D02*
X016639Y011445D01*
X016639Y011349D02*
X016639Y011542D01*
X016687Y011643D02*
X016881Y011837D01*
X016687Y011837D01*
X016639Y011788D01*
X016639Y011692D01*
X016687Y011643D01*
X016881Y011643D01*
X016929Y011692D01*
X016929Y011788D01*
X016881Y011837D01*
X016929Y011938D02*
X016639Y011938D01*
X016736Y011938D02*
X016832Y012083D01*
X016736Y011938D02*
X016639Y012083D01*
X016929Y011445D02*
X016832Y011349D01*
X014610Y011475D02*
X014562Y011427D01*
X014465Y011427D01*
X014417Y011475D01*
X014417Y011524D01*
X014465Y011572D01*
X014562Y011572D01*
X014610Y011621D01*
X014610Y011669D01*
X014562Y011717D01*
X014465Y011717D01*
X014417Y011669D01*
X014315Y011717D02*
X014170Y011717D01*
X014122Y011669D01*
X014122Y011475D01*
X014170Y011427D01*
X014315Y011427D01*
X014315Y011717D01*
X014315Y011927D02*
X014170Y011927D01*
X014122Y011975D01*
X014122Y012169D01*
X014170Y012217D01*
X014315Y012217D01*
X014315Y011927D01*
X014417Y011975D02*
X014465Y011927D01*
X014562Y011927D01*
X014610Y011975D01*
X014562Y012072D02*
X014465Y012072D01*
X014417Y012024D01*
X014417Y011975D01*
X014562Y012072D02*
X014610Y012121D01*
X014610Y012169D01*
X014562Y012217D01*
X014465Y012217D01*
X014417Y012169D01*
X014267Y012427D02*
X014315Y012475D01*
X014267Y012427D02*
X014170Y012427D01*
X014122Y012475D01*
X014122Y012524D01*
X014170Y012572D01*
X014219Y012572D01*
X014170Y012572D02*
X014122Y012621D01*
X014122Y012669D01*
X014170Y012717D01*
X014267Y012717D01*
X014315Y012669D01*
X014417Y012572D02*
X014610Y012572D01*
X014513Y012669D02*
X014513Y012475D01*
X014021Y012524D02*
X013924Y012427D01*
X013827Y012524D01*
X013827Y012717D01*
X013726Y012669D02*
X013678Y012717D01*
X013581Y012717D01*
X013533Y012669D01*
X013533Y012621D01*
X013581Y012572D01*
X013533Y012524D01*
X013533Y012475D01*
X013581Y012427D01*
X013678Y012427D01*
X013726Y012475D01*
X013629Y012572D02*
X013581Y012572D01*
X013431Y012217D02*
X013431Y012024D01*
X013335Y011927D01*
X013238Y012024D01*
X013238Y012217D01*
X013137Y012217D02*
X012992Y012217D01*
X012943Y012169D01*
X012943Y011975D01*
X012992Y011927D01*
X013137Y011927D01*
X013137Y012217D01*
X012842Y012217D02*
X012697Y012217D01*
X012649Y012169D01*
X012649Y011975D01*
X012697Y011927D01*
X012842Y011927D01*
X012842Y012217D01*
X013533Y012072D02*
X013726Y012072D01*
X013827Y011975D02*
X013827Y012169D01*
X013876Y012217D01*
X013972Y012217D01*
X014021Y012169D01*
X014021Y011975D01*
X013972Y011927D01*
X013876Y011927D01*
X013827Y011975D01*
X013924Y011717D02*
X014021Y011717D01*
X013972Y011717D02*
X013972Y011427D01*
X013924Y011427D02*
X014021Y011427D01*
X014021Y011217D02*
X014021Y010927D01*
X013827Y010927D01*
X013726Y010927D02*
X013726Y011217D01*
X013678Y011072D02*
X013533Y010927D01*
X013726Y011024D02*
X013533Y011217D01*
X013726Y010717D02*
X013726Y010427D01*
X013533Y010427D01*
X013679Y010217D02*
X013631Y010169D01*
X013631Y009975D01*
X013679Y009927D01*
X013776Y009927D01*
X013824Y009975D01*
X013824Y010169D01*
X013776Y010217D01*
X013679Y010217D01*
X013925Y010169D02*
X013925Y010072D01*
X013974Y010024D01*
X014119Y010024D01*
X014022Y010024D02*
X013925Y009927D01*
X014119Y009927D02*
X014119Y010217D01*
X013974Y010217D01*
X013925Y010169D01*
X013728Y010024D02*
X013631Y009927D01*
X013827Y009717D02*
X013827Y009427D01*
X014021Y009717D01*
X014021Y009427D01*
X014122Y009475D02*
X014122Y009669D01*
X014170Y009717D01*
X014315Y009717D01*
X014315Y009427D01*
X014170Y009427D01*
X014122Y009475D01*
X014417Y009475D02*
X014465Y009427D01*
X014562Y009427D01*
X014610Y009475D01*
X014562Y009572D02*
X014465Y009572D01*
X014417Y009524D01*
X014417Y009475D01*
X014562Y009572D02*
X014610Y009621D01*
X014610Y009669D01*
X014562Y009717D01*
X014465Y009717D01*
X014417Y009669D01*
X014417Y009927D02*
X014417Y010217D01*
X014315Y010217D02*
X014219Y010217D01*
X014267Y010217D02*
X014267Y009927D01*
X014315Y009927D02*
X014219Y009927D01*
X014417Y009927D02*
X014610Y010217D01*
X014610Y009927D01*
X014610Y010427D02*
X014610Y010717D01*
X014417Y010427D01*
X014417Y010717D01*
X014315Y010669D02*
X014315Y010621D01*
X014267Y010572D01*
X014170Y010572D01*
X014122Y010524D01*
X014122Y010475D01*
X014170Y010427D01*
X014267Y010427D01*
X014315Y010475D01*
X014315Y010669D02*
X014267Y010717D01*
X014170Y010717D01*
X014122Y010669D01*
X014021Y010717D02*
X014021Y010427D01*
X013827Y010427D01*
X013924Y010572D02*
X014021Y010572D01*
X014021Y010717D02*
X013827Y010717D01*
X014122Y010975D02*
X014170Y010927D01*
X014267Y010927D01*
X014315Y010975D01*
X014315Y011169D01*
X014267Y011217D01*
X014170Y011217D01*
X014122Y011169D01*
X014417Y011169D02*
X014465Y011217D01*
X014562Y011217D01*
X014610Y011169D01*
X014610Y011121D01*
X014562Y011072D01*
X014465Y011072D01*
X014417Y011024D01*
X014417Y010975D01*
X014465Y010927D01*
X014562Y010927D01*
X014610Y010975D01*
X014021Y012524D02*
X014021Y012717D01*
X014021Y012927D02*
X013924Y012927D01*
X013972Y012927D02*
X013972Y013217D01*
X013924Y013217D02*
X014021Y013217D01*
X014122Y013169D02*
X014122Y013072D01*
X014170Y013024D01*
X014315Y013024D01*
X014315Y012927D02*
X014315Y013217D01*
X014170Y013217D01*
X014122Y013169D01*
X014417Y013169D02*
X014465Y013217D01*
X014562Y013217D01*
X014610Y013169D01*
X014610Y012975D01*
X014562Y012927D01*
X014465Y012927D01*
X014417Y012975D01*
X014417Y013072D01*
X014513Y013072D01*
X014465Y013427D02*
X014417Y013475D01*
X014417Y013572D01*
X014513Y013572D01*
X014417Y013669D02*
X014465Y013717D01*
X014562Y013717D01*
X014610Y013669D01*
X014610Y013475D01*
X014562Y013427D01*
X014465Y013427D01*
X014315Y013427D02*
X014315Y013717D01*
X014170Y013717D01*
X014122Y013669D01*
X014122Y013572D01*
X014170Y013524D01*
X014315Y013524D01*
X014021Y013427D02*
X013924Y013427D01*
X013972Y013427D02*
X013972Y013717D01*
X013924Y013717D02*
X014021Y013717D01*
X013824Y013669D02*
X013824Y013475D01*
X013776Y013427D01*
X013679Y013427D01*
X013631Y013475D01*
X013631Y013669D01*
X013679Y013717D01*
X013776Y013717D01*
X013824Y013669D01*
X013530Y013621D02*
X013433Y013717D01*
X013433Y013427D01*
X013530Y013427D02*
X013336Y013427D01*
X013384Y013217D02*
X013481Y013217D01*
X013530Y013169D01*
X013631Y013169D02*
X013679Y013217D01*
X013776Y013217D01*
X013824Y013169D01*
X013824Y012975D01*
X013776Y012927D01*
X013679Y012927D01*
X013631Y012975D01*
X013631Y013169D01*
X013384Y013217D02*
X013336Y013169D01*
X013336Y013121D01*
X013530Y012927D01*
X013336Y012927D01*
X013384Y013927D02*
X013481Y013927D01*
X013530Y013975D01*
X013336Y014169D01*
X013336Y013975D01*
X013384Y013927D01*
X013530Y013975D02*
X013530Y014169D01*
X013481Y014217D01*
X013384Y014217D01*
X013336Y014169D01*
X013631Y014169D02*
X013631Y013975D01*
X013679Y013927D01*
X013776Y013927D01*
X013824Y013975D01*
X013824Y014169D01*
X013776Y014217D01*
X013679Y014217D01*
X013631Y014169D01*
X013924Y014217D02*
X014021Y014217D01*
X013972Y014217D02*
X013972Y013927D01*
X013924Y013927D02*
X014021Y013927D01*
X014122Y014072D02*
X014170Y014024D01*
X014315Y014024D01*
X014315Y013927D02*
X014315Y014217D01*
X014170Y014217D01*
X014122Y014169D01*
X014122Y014072D01*
X014417Y014072D02*
X014417Y013975D01*
X014465Y013927D01*
X014562Y013927D01*
X014610Y013975D01*
X014610Y014169D01*
X014562Y014217D01*
X014465Y014217D01*
X014417Y014169D01*
X014417Y014072D02*
X014513Y014072D01*
X014465Y014427D02*
X014417Y014475D01*
X014417Y014572D01*
X014513Y014572D01*
X014417Y014669D02*
X014465Y014717D01*
X014562Y014717D01*
X014610Y014669D01*
X014610Y014475D01*
X014562Y014427D01*
X014465Y014427D01*
X014315Y014427D02*
X014315Y014717D01*
X014122Y014427D01*
X014122Y014717D01*
X014021Y014717D02*
X013876Y014717D01*
X013827Y014669D01*
X013827Y014475D01*
X013876Y014427D01*
X014021Y014427D01*
X014021Y014717D01*
X016620Y014237D02*
X016717Y014092D01*
X016814Y014237D01*
X016911Y014092D02*
X016620Y014092D01*
X016620Y013991D02*
X016620Y013798D01*
X016620Y013894D02*
X016911Y013894D01*
X016814Y013798D01*
X014562Y009217D02*
X014465Y009217D01*
X014417Y009169D01*
X014417Y009072D02*
X014513Y009072D01*
X014417Y009072D02*
X014417Y008975D01*
X014465Y008927D01*
X014562Y008927D01*
X014610Y008975D01*
X014610Y009169D01*
X014562Y009217D01*
X014315Y009217D02*
X014315Y008927D01*
X014122Y008927D02*
X014122Y009217D01*
X014021Y009217D02*
X014021Y008927D01*
X013876Y008927D01*
X013827Y008975D01*
X013827Y009169D01*
X013876Y009217D01*
X014021Y009217D01*
X014315Y009217D02*
X014122Y008927D01*
X013545Y007950D02*
X013352Y007950D01*
X013303Y007902D01*
X013303Y007805D01*
X013352Y007756D01*
X013545Y007756D01*
X013594Y007805D01*
X013594Y007902D01*
X013545Y007950D01*
X013400Y007853D02*
X013303Y007950D01*
X013303Y007655D02*
X013303Y007462D01*
X013594Y007462D01*
X013594Y007655D01*
X013449Y007559D02*
X013449Y007462D01*
X013449Y007361D02*
X013400Y007312D01*
X013400Y007167D01*
X013303Y007167D02*
X013594Y007167D01*
X013594Y007312D01*
X013545Y007361D01*
X013449Y007361D01*
X013400Y007264D02*
X013303Y007361D01*
X013594Y007066D02*
X013594Y006873D01*
X013303Y006873D01*
X013449Y006873D02*
X013449Y006969D01*
X011196Y006970D02*
X011196Y007115D01*
X011148Y007164D01*
X011051Y007164D01*
X011002Y007115D01*
X011002Y006970D01*
X010906Y006970D02*
X011196Y006970D01*
X011148Y006869D02*
X011196Y006821D01*
X011196Y006724D01*
X011148Y006676D01*
X010954Y006676D01*
X010906Y006724D01*
X010906Y006821D01*
X010954Y006869D01*
X011051Y006869D01*
X011051Y006772D01*
X011002Y007067D02*
X010906Y007164D01*
X010954Y007265D02*
X010906Y007313D01*
X010906Y007410D01*
X010954Y007458D01*
X011148Y007458D01*
X011196Y007410D01*
X011196Y007313D01*
X011148Y007265D01*
X010954Y007265D01*
X010954Y007560D02*
X010906Y007608D01*
X010906Y007705D01*
X010954Y007753D01*
X011196Y007753D01*
X011196Y007854D02*
X010906Y007854D01*
X011002Y007854D02*
X011002Y007999D01*
X011051Y008048D01*
X011148Y008048D01*
X011196Y007999D01*
X011196Y007854D01*
X011196Y007560D02*
X010954Y007560D01*
X008636Y007522D02*
X008636Y007377D01*
X008346Y007377D01*
X008346Y007522D01*
X008394Y007571D01*
X008587Y007571D01*
X008636Y007522D01*
X008636Y007277D02*
X008636Y007181D01*
X008636Y007229D02*
X008346Y007229D01*
X008346Y007181D02*
X008346Y007277D01*
X003593Y005072D02*
X003593Y004975D01*
X003545Y004926D01*
X003496Y004926D01*
X003448Y004975D01*
X003448Y005120D01*
X003351Y005120D02*
X003545Y005120D01*
X003593Y005072D01*
X003351Y005120D02*
X003303Y005072D01*
X003303Y004975D01*
X003351Y004926D01*
X003303Y004825D02*
X003303Y004632D01*
X003303Y004729D02*
X003593Y004729D01*
X003496Y004632D01*
X003496Y004531D02*
X003448Y004482D01*
X003448Y004386D01*
X003496Y004337D01*
X003545Y004337D01*
X003593Y004386D01*
X003593Y004482D01*
X003545Y004531D01*
X003496Y004531D01*
X003448Y004482D02*
X003400Y004531D01*
X003351Y004531D01*
X003303Y004482D01*
X003303Y004386D01*
X003351Y004337D01*
X003400Y004337D01*
X003448Y004386D01*
X003448Y004236D02*
X003351Y004236D01*
X003303Y004188D01*
X003303Y004091D01*
X003351Y004043D01*
X003448Y004043D02*
X003496Y004139D01*
X003496Y004188D01*
X003448Y004236D01*
X003593Y004236D02*
X003593Y004043D01*
X003448Y004043D01*
X003303Y003941D02*
X003593Y003941D01*
X003593Y003748D02*
X003303Y003941D01*
X003303Y003748D02*
X003593Y003748D01*
X003593Y003550D02*
X003303Y003550D01*
X003303Y003453D02*
X003303Y003647D01*
X003496Y003453D02*
X003593Y003550D01*
X005671Y002910D02*
X005671Y002813D01*
X005720Y002765D01*
X005913Y002958D01*
X005720Y002958D01*
X005671Y002910D01*
X005720Y002765D02*
X005913Y002765D01*
X005962Y002813D01*
X005962Y002910D01*
X005913Y002958D01*
X005913Y002664D02*
X005720Y002664D01*
X005671Y002615D01*
X005671Y002519D01*
X005720Y002470D01*
X005913Y002664D01*
X005962Y002615D01*
X005962Y002519D01*
X005913Y002470D01*
X005720Y002470D01*
X005671Y002369D02*
X005671Y002176D01*
X005671Y002272D02*
X005962Y002272D01*
X005865Y002176D01*
X005092Y001723D02*
X004947Y001723D01*
X004899Y001675D01*
X004899Y001626D01*
X004947Y001578D01*
X005092Y001578D01*
X004947Y001578D02*
X004899Y001530D01*
X004899Y001481D01*
X004947Y001433D01*
X005092Y001433D01*
X005092Y001723D01*
X004798Y001723D02*
X004798Y001433D01*
X004604Y001433D01*
X004503Y001481D02*
X004455Y001433D01*
X004358Y001433D01*
X004310Y001481D01*
X004310Y001530D01*
X004358Y001578D01*
X004455Y001578D01*
X004503Y001626D01*
X004503Y001675D01*
X004455Y001723D01*
X004358Y001723D01*
X004310Y001675D01*
X004310Y001626D01*
X004358Y001578D01*
X004455Y001578D02*
X004503Y001530D01*
X004503Y001481D01*
X004209Y001481D02*
X004160Y001433D01*
X004063Y001433D01*
X004015Y001481D01*
X004015Y001578D01*
X004063Y001626D01*
X004112Y001626D01*
X004209Y001578D01*
X004209Y001723D01*
X004015Y001723D01*
X003914Y001675D02*
X003865Y001723D01*
X003769Y001723D01*
X003720Y001675D01*
X003720Y001626D01*
X003769Y001578D01*
X003720Y001530D01*
X003720Y001481D01*
X003769Y001433D01*
X003865Y001433D01*
X003914Y001481D01*
X003817Y001578D02*
X003769Y001578D01*
X003619Y001481D02*
X003571Y001433D01*
X003474Y001433D01*
X003426Y001481D01*
X003426Y001675D01*
X003619Y001481D01*
X003619Y001675D01*
X003571Y001723D01*
X003474Y001723D01*
X003426Y001675D01*
X004810Y012166D02*
X005004Y012166D01*
X004810Y012359D01*
X004810Y012408D01*
X004859Y012456D01*
X004956Y012456D01*
X005004Y012408D01*
X005105Y012408D02*
X005154Y012456D01*
X005250Y012456D01*
X005299Y012408D01*
X005400Y012408D02*
X005448Y012456D01*
X005545Y012456D01*
X005593Y012408D01*
X005694Y012408D02*
X005743Y012456D01*
X005840Y012456D01*
X005888Y012408D01*
X005694Y012408D02*
X005694Y012359D01*
X005888Y012166D01*
X005694Y012166D01*
X005593Y012166D02*
X005400Y012359D01*
X005400Y012408D01*
X005400Y012166D02*
X005593Y012166D01*
X005299Y012166D02*
X005105Y012359D01*
X005105Y012408D01*
X005105Y012166D02*
X005299Y012166D01*
X006357Y013132D02*
X006357Y013326D01*
X006357Y013229D02*
X006647Y013229D01*
X006550Y013132D01*
X006598Y013427D02*
X006647Y013475D01*
X006647Y013572D01*
X006598Y013621D01*
X006405Y013427D01*
X006357Y013475D01*
X006357Y013572D01*
X006405Y013621D01*
X006598Y013621D01*
X006647Y013722D02*
X006357Y013722D01*
X006453Y013722D02*
X006357Y013867D01*
X006453Y013722D02*
X006550Y013867D01*
X006598Y013427D02*
X006405Y013427D01*
X006862Y012806D02*
X006910Y012758D01*
X006910Y012516D01*
X006958Y012661D02*
X006862Y012661D01*
X007059Y012661D02*
X007059Y012565D01*
X007108Y012516D01*
X007253Y012516D01*
X007253Y012419D02*
X007253Y012710D01*
X007108Y012710D01*
X007059Y012661D01*
X007354Y012710D02*
X007354Y012758D01*
X007403Y012806D01*
X007499Y012806D01*
X007548Y012758D01*
X007649Y012758D02*
X007697Y012806D01*
X007794Y012806D01*
X007842Y012758D01*
X007649Y012758D02*
X007649Y012710D01*
X007842Y012516D01*
X007649Y012516D01*
X007548Y012516D02*
X007354Y012710D01*
X007354Y012516D02*
X007548Y012516D01*
X009211Y013975D02*
X009211Y014169D01*
X009260Y014217D01*
X009405Y014217D01*
X009405Y013927D01*
X009260Y013927D01*
X009211Y013975D01*
X009506Y013927D02*
X009506Y014217D01*
X009699Y014217D02*
X009506Y013927D01*
X009699Y013927D02*
X009699Y014217D01*
X009800Y014169D02*
X009849Y014217D01*
X009946Y014217D01*
X009994Y014169D01*
X009994Y013975D01*
X009946Y013927D01*
X009849Y013927D01*
X009800Y013975D01*
X009800Y014072D01*
X009897Y014072D01*
X009800Y014427D02*
X009800Y014621D01*
X009897Y014717D01*
X009994Y014621D01*
X009994Y014427D01*
X009994Y014572D02*
X009800Y014572D01*
X009699Y014427D02*
X009699Y014717D01*
X009506Y014427D01*
X009506Y014717D01*
X009405Y014717D02*
X009211Y014717D01*
X009308Y014717D02*
X009308Y014427D01*
X008243Y014401D02*
X008049Y014595D01*
X008049Y014643D01*
X008098Y014691D01*
X008195Y014691D01*
X008243Y014643D01*
X008243Y014401D02*
X008049Y014401D01*
X007948Y014401D02*
X007755Y014595D01*
X007755Y014643D01*
X007803Y014691D01*
X007900Y014691D01*
X007948Y014643D01*
X007948Y014401D02*
X007755Y014401D01*
X007654Y014401D02*
X007460Y014595D01*
X007460Y014643D01*
X007509Y014691D01*
X007605Y014691D01*
X007654Y014643D01*
X007654Y014401D02*
X007460Y014401D01*
X007359Y014401D02*
X007165Y014595D01*
X007165Y014643D01*
X007214Y014691D01*
X007311Y014691D01*
X007359Y014643D01*
X007359Y014401D02*
X007165Y014401D01*
X005901Y014398D02*
X005805Y014494D01*
X005805Y014204D01*
X005901Y014204D02*
X005708Y014204D01*
X005607Y014252D02*
X005413Y014446D01*
X005413Y014252D01*
X005462Y014204D01*
X005558Y014204D01*
X005607Y014252D01*
X005607Y014446D01*
X005558Y014494D01*
X005462Y014494D01*
X005413Y014446D01*
X005312Y014494D02*
X005312Y014204D01*
X005312Y014301D02*
X005119Y014494D01*
X005264Y014349D02*
X005119Y014204D01*
X017915Y007804D02*
X018108Y007804D01*
X018205Y007707D01*
X018108Y007610D01*
X017915Y007610D01*
X018060Y007610D02*
X018060Y007804D01*
X021467Y004659D02*
X021612Y004659D01*
D16*
X018091Y007037D02*
X016238Y008890D01*
X016238Y009088D01*
X018091Y010940D01*
X020042Y008989D01*
X018091Y007037D01*
X016422Y008989D02*
X016424Y009012D01*
X016430Y009035D01*
X016439Y009056D01*
X016452Y009076D01*
X016468Y009093D01*
X016486Y009107D01*
X016506Y009118D01*
X016528Y009126D01*
X016551Y009130D01*
X016575Y009130D01*
X016598Y009126D01*
X016620Y009118D01*
X016640Y009107D01*
X016658Y009093D01*
X016674Y009076D01*
X016687Y009056D01*
X016696Y009035D01*
X016702Y009012D01*
X016704Y008989D01*
X016702Y008966D01*
X016696Y008943D01*
X016687Y008922D01*
X016674Y008902D01*
X016658Y008885D01*
X016640Y008871D01*
X016620Y008860D01*
X016598Y008852D01*
X016575Y008848D01*
X016551Y008848D01*
X016528Y008852D01*
X016506Y008860D01*
X016486Y008871D01*
X016468Y008885D01*
X016452Y008902D01*
X016439Y008922D01*
X016430Y008943D01*
X016424Y008966D01*
X016422Y008989D01*
X019296Y011222D02*
X019716Y011222D01*
X020116Y011222D01*
X020536Y011222D01*
X020559Y011224D01*
X020582Y011229D01*
X020604Y011238D01*
X020624Y011251D01*
X020642Y011266D01*
X020657Y011284D01*
X020670Y011304D01*
X020679Y011326D01*
X020684Y011349D01*
X020686Y011372D01*
X020686Y015072D01*
X020684Y015095D01*
X020679Y015118D01*
X020670Y015140D01*
X020657Y015160D01*
X020642Y015178D01*
X020624Y015193D01*
X020604Y015206D01*
X020582Y015215D01*
X020559Y015220D01*
X020536Y015222D01*
X019296Y015222D01*
X019273Y015220D01*
X019250Y015215D01*
X019228Y015206D01*
X019208Y015193D01*
X019190Y015178D01*
X019175Y015160D01*
X019162Y015140D01*
X019153Y015118D01*
X019148Y015095D01*
X019146Y015072D01*
X019146Y011372D01*
X019148Y011349D01*
X019153Y011326D01*
X019162Y011304D01*
X019175Y011284D01*
X019190Y011266D01*
X019208Y011251D01*
X019228Y011238D01*
X019250Y011229D01*
X019273Y011224D01*
X019296Y011222D01*
X019716Y011222D02*
X019718Y011249D01*
X019723Y011276D01*
X019733Y011302D01*
X019745Y011326D01*
X019761Y011348D01*
X019779Y011368D01*
X019801Y011385D01*
X019824Y011400D01*
X019849Y011410D01*
X019875Y011418D01*
X019902Y011422D01*
X019930Y011422D01*
X019957Y011418D01*
X019983Y011410D01*
X020008Y011400D01*
X020031Y011385D01*
X020053Y011368D01*
X020071Y011348D01*
X020087Y011326D01*
X020099Y011302D01*
X020109Y011276D01*
X020114Y011249D01*
X020116Y011222D01*
D17*
X019286Y011222D02*
X019286Y015222D01*
D18*
X015381Y008045D02*
X014534Y008045D01*
X015381Y008045D02*
X015381Y007808D01*
X015381Y007139D02*
X015381Y006903D01*
X014534Y006903D01*
X012936Y006899D02*
X012936Y007135D01*
X012936Y006899D02*
X012090Y006899D01*
X012936Y007804D02*
X012936Y008041D01*
X012090Y008041D01*
X010373Y008064D02*
X010373Y007828D01*
X010373Y008064D02*
X009527Y008064D01*
X010373Y007159D02*
X010373Y006922D01*
X009527Y006922D01*
X004621Y003407D02*
X004208Y003131D01*
X004621Y002836D01*
X004621Y003407D01*
D19*
X004188Y003131D03*
D20*
X017818Y001690D02*
X017972Y001614D01*
X018125Y001460D01*
X017895Y001460D01*
X017818Y001383D01*
X017818Y001307D01*
X017895Y001230D01*
X018049Y001230D01*
X018125Y001307D01*
X018125Y001460D01*
X018279Y001307D02*
X018356Y001230D01*
X018509Y001230D01*
X018586Y001307D01*
X018279Y001614D01*
X018279Y001307D01*
X018279Y001614D02*
X018356Y001690D01*
X018509Y001690D01*
X018586Y001614D01*
X018586Y001307D01*
X018739Y001307D02*
X018816Y001230D01*
X018969Y001230D01*
X019046Y001307D01*
X019046Y001614D01*
X018969Y001690D01*
X018816Y001690D01*
X018739Y001614D01*
X019200Y001690D02*
X019200Y001230D01*
X019507Y001230D02*
X019507Y001690D01*
X019507Y001460D02*
X019200Y001460D01*
M02*
