G75*
%MOIN*%
%OFA0B0*%
%FSLAX24Y24*%
%IPPOS*%
%LPD*%
%AMOC8*
5,1,8,0,0,1.08239X$1,22.5*
%
%ADD10C,0.0000*%
%ADD11C,0.0436*%
%ADD12C,0.0709*%
%ADD13R,0.0945X0.0787*%
%ADD14R,0.0909X0.0197*%
%ADD15R,0.0250X0.0500*%
%ADD16R,0.1600X0.0600*%
%ADD17R,0.0512X0.0591*%
%ADD18R,0.0760X0.2100*%
%ADD19R,0.0500X0.0220*%
%ADD20R,0.0220X0.0500*%
%ADD21R,0.0560X0.0560*%
%ADD22C,0.0560*%
%ADD23R,0.0450X0.0400*%
%ADD24R,0.0600X0.0600*%
%ADD25OC8,0.0600*%
%ADD26R,0.0320X0.0560*%
%ADD27C,0.0600*%
%ADD28R,0.0591X0.0512*%
%ADD29R,0.0866X0.0236*%
%ADD30C,0.0860*%
%ADD31C,0.0100*%
%ADD32C,0.0240*%
D10*
X002038Y000848D02*
X002038Y013148D01*
X002041Y013188D01*
X002048Y013227D01*
X002058Y013266D01*
X002072Y013304D01*
X002089Y013340D01*
X002110Y013374D01*
X002133Y013407D01*
X002160Y013437D01*
X002189Y013464D01*
X002220Y013489D01*
X002254Y013511D01*
X002290Y013529D01*
X002327Y013545D01*
X002365Y013556D01*
X002404Y013565D01*
X002444Y013569D01*
X002484Y013570D01*
X002587Y013570D01*
X002586Y013570D02*
X002623Y013573D01*
X002659Y013580D01*
X002694Y013590D01*
X002728Y013605D01*
X002760Y013622D01*
X002790Y013643D01*
X002818Y013667D01*
X002843Y013694D01*
X002865Y013723D01*
X002884Y013755D01*
X002900Y013788D01*
X002912Y013823D01*
X002921Y013858D01*
X002925Y013895D01*
X002926Y013931D01*
X002924Y016531D01*
X002925Y016531D02*
X002927Y016563D01*
X002933Y016594D01*
X002942Y016624D01*
X002955Y016653D01*
X002972Y016680D01*
X002991Y016705D01*
X003014Y016728D01*
X003039Y016747D01*
X003066Y016764D01*
X003095Y016777D01*
X003125Y016786D01*
X003156Y016792D01*
X003188Y016794D01*
X009212Y016794D01*
X009244Y016796D01*
X009276Y016801D01*
X009307Y016809D01*
X009337Y016821D01*
X009366Y016835D01*
X009392Y016853D01*
X009417Y016873D01*
X009440Y016896D01*
X009460Y016921D01*
X009478Y016948D01*
X009492Y016976D01*
X009504Y017006D01*
X009512Y017037D01*
X009517Y017069D01*
X009519Y017101D01*
X009519Y019323D01*
X009521Y019372D01*
X009527Y019420D01*
X009536Y019468D01*
X009549Y019515D01*
X009566Y019561D01*
X009587Y019605D01*
X009611Y019647D01*
X009638Y019688D01*
X009668Y019726D01*
X009701Y019762D01*
X009737Y019795D01*
X009775Y019825D01*
X009816Y019852D01*
X009858Y019876D01*
X009902Y019897D01*
X009948Y019914D01*
X009995Y019927D01*
X010043Y019936D01*
X010091Y019942D01*
X010140Y019944D01*
X012090Y019944D01*
X012135Y019942D01*
X012180Y019937D01*
X012225Y019928D01*
X012269Y019916D01*
X012311Y019900D01*
X012352Y019881D01*
X012392Y019859D01*
X012430Y019834D01*
X012465Y019806D01*
X012499Y019775D01*
X012530Y019741D01*
X012558Y019706D01*
X012583Y019668D01*
X012605Y019628D01*
X012624Y019587D01*
X012640Y019545D01*
X012652Y019501D01*
X012661Y019456D01*
X012666Y019411D01*
X012668Y019366D01*
X012668Y016534D01*
X012670Y016490D01*
X012675Y016447D01*
X012684Y016405D01*
X012697Y016363D01*
X012712Y016322D01*
X012732Y016283D01*
X012754Y016246D01*
X012779Y016210D01*
X012807Y016177D01*
X012838Y016146D01*
X012871Y016118D01*
X012907Y016093D01*
X012944Y016071D01*
X012983Y016051D01*
X013024Y016036D01*
X013066Y016023D01*
X013108Y016014D01*
X013151Y016009D01*
X013195Y016007D01*
X020717Y016007D01*
X020765Y016005D01*
X020813Y015999D01*
X020860Y015990D01*
X020906Y015977D01*
X020952Y015960D01*
X020995Y015940D01*
X021037Y015917D01*
X021077Y015890D01*
X021115Y015860D01*
X021150Y015827D01*
X021183Y015792D01*
X021213Y015754D01*
X021240Y015714D01*
X021263Y015672D01*
X021283Y015629D01*
X021300Y015583D01*
X021313Y015537D01*
X021322Y015490D01*
X021328Y015442D01*
X021330Y015394D01*
X021330Y001050D01*
X021328Y000996D01*
X021323Y000942D01*
X021313Y000889D01*
X021301Y000837D01*
X021284Y000785D01*
X021265Y000735D01*
X021241Y000686D01*
X021215Y000639D01*
X021185Y000594D01*
X021153Y000551D01*
X021117Y000510D01*
X021079Y000472D01*
X021038Y000436D01*
X020995Y000404D01*
X020950Y000374D01*
X020903Y000348D01*
X020854Y000324D01*
X020804Y000305D01*
X020752Y000288D01*
X020700Y000276D01*
X020647Y000266D01*
X020593Y000261D01*
X020539Y000259D01*
X002628Y000259D01*
X002582Y000261D01*
X002536Y000266D01*
X002491Y000275D01*
X002446Y000288D01*
X002403Y000304D01*
X002361Y000323D01*
X002320Y000346D01*
X002282Y000371D01*
X002245Y000400D01*
X002212Y000432D01*
X002180Y000465D01*
X002151Y000502D01*
X002126Y000540D01*
X002103Y000581D01*
X002084Y000623D01*
X002068Y000666D01*
X002055Y000711D01*
X002046Y000756D01*
X002041Y000802D01*
X002039Y000848D01*
X003456Y006369D02*
X003458Y006396D01*
X003464Y006423D01*
X003473Y006449D01*
X003486Y006473D01*
X003502Y006496D01*
X003521Y006515D01*
X003543Y006532D01*
X003567Y006546D01*
X003592Y006556D01*
X003619Y006563D01*
X003646Y006566D01*
X003674Y006565D01*
X003701Y006560D01*
X003727Y006552D01*
X003751Y006540D01*
X003774Y006524D01*
X003795Y006506D01*
X003812Y006485D01*
X003827Y006461D01*
X003838Y006436D01*
X003846Y006410D01*
X003850Y006383D01*
X003850Y006355D01*
X003846Y006328D01*
X003838Y006302D01*
X003827Y006277D01*
X003812Y006253D01*
X003795Y006232D01*
X003774Y006214D01*
X003752Y006198D01*
X003727Y006186D01*
X003701Y006178D01*
X003674Y006173D01*
X003646Y006172D01*
X003619Y006175D01*
X003592Y006182D01*
X003567Y006192D01*
X003543Y006206D01*
X003521Y006223D01*
X003502Y006242D01*
X003486Y006265D01*
X003473Y006289D01*
X003464Y006315D01*
X003458Y006342D01*
X003456Y006369D01*
X003532Y007105D02*
X003534Y007132D01*
X003540Y007159D01*
X003549Y007185D01*
X003562Y007209D01*
X003578Y007232D01*
X003597Y007251D01*
X003619Y007268D01*
X003643Y007282D01*
X003668Y007292D01*
X003695Y007299D01*
X003722Y007302D01*
X003750Y007301D01*
X003777Y007296D01*
X003803Y007288D01*
X003827Y007276D01*
X003850Y007260D01*
X003871Y007242D01*
X003888Y007221D01*
X003903Y007197D01*
X003914Y007172D01*
X003922Y007146D01*
X003926Y007119D01*
X003926Y007091D01*
X003922Y007064D01*
X003914Y007038D01*
X003903Y007013D01*
X003888Y006989D01*
X003871Y006968D01*
X003850Y006950D01*
X003828Y006934D01*
X003803Y006922D01*
X003777Y006914D01*
X003750Y006909D01*
X003722Y006908D01*
X003695Y006911D01*
X003668Y006918D01*
X003643Y006928D01*
X003619Y006942D01*
X003597Y006959D01*
X003578Y006978D01*
X003562Y007001D01*
X003549Y007025D01*
X003540Y007051D01*
X003534Y007078D01*
X003532Y007105D01*
X003532Y008838D02*
X003534Y008865D01*
X003540Y008892D01*
X003549Y008918D01*
X003562Y008942D01*
X003578Y008965D01*
X003597Y008984D01*
X003619Y009001D01*
X003643Y009015D01*
X003668Y009025D01*
X003695Y009032D01*
X003722Y009035D01*
X003750Y009034D01*
X003777Y009029D01*
X003803Y009021D01*
X003827Y009009D01*
X003850Y008993D01*
X003871Y008975D01*
X003888Y008954D01*
X003903Y008930D01*
X003914Y008905D01*
X003922Y008879D01*
X003926Y008852D01*
X003926Y008824D01*
X003922Y008797D01*
X003914Y008771D01*
X003903Y008746D01*
X003888Y008722D01*
X003871Y008701D01*
X003850Y008683D01*
X003828Y008667D01*
X003803Y008655D01*
X003777Y008647D01*
X003750Y008642D01*
X003722Y008641D01*
X003695Y008644D01*
X003668Y008651D01*
X003643Y008661D01*
X003619Y008675D01*
X003597Y008692D01*
X003578Y008711D01*
X003562Y008734D01*
X003549Y008758D01*
X003540Y008784D01*
X003534Y008811D01*
X003532Y008838D01*
X003456Y009523D02*
X003458Y009550D01*
X003464Y009577D01*
X003473Y009603D01*
X003486Y009627D01*
X003502Y009650D01*
X003521Y009669D01*
X003543Y009686D01*
X003567Y009700D01*
X003592Y009710D01*
X003619Y009717D01*
X003646Y009720D01*
X003674Y009719D01*
X003701Y009714D01*
X003727Y009706D01*
X003751Y009694D01*
X003774Y009678D01*
X003795Y009660D01*
X003812Y009639D01*
X003827Y009615D01*
X003838Y009590D01*
X003846Y009564D01*
X003850Y009537D01*
X003850Y009509D01*
X003846Y009482D01*
X003838Y009456D01*
X003827Y009431D01*
X003812Y009407D01*
X003795Y009386D01*
X003774Y009368D01*
X003752Y009352D01*
X003727Y009340D01*
X003701Y009332D01*
X003674Y009327D01*
X003646Y009326D01*
X003619Y009329D01*
X003592Y009336D01*
X003567Y009346D01*
X003543Y009360D01*
X003521Y009377D01*
X003502Y009396D01*
X003486Y009419D01*
X003473Y009443D01*
X003464Y009469D01*
X003458Y009496D01*
X003456Y009523D01*
X003337Y012035D02*
X003339Y012062D01*
X003345Y012089D01*
X003354Y012115D01*
X003367Y012139D01*
X003383Y012162D01*
X003402Y012181D01*
X003424Y012198D01*
X003448Y012212D01*
X003473Y012222D01*
X003500Y012229D01*
X003527Y012232D01*
X003555Y012231D01*
X003582Y012226D01*
X003608Y012218D01*
X003632Y012206D01*
X003655Y012190D01*
X003676Y012172D01*
X003693Y012151D01*
X003708Y012127D01*
X003719Y012102D01*
X003727Y012076D01*
X003731Y012049D01*
X003731Y012021D01*
X003727Y011994D01*
X003719Y011968D01*
X003708Y011943D01*
X003693Y011919D01*
X003676Y011898D01*
X003655Y011880D01*
X003633Y011864D01*
X003608Y011852D01*
X003582Y011844D01*
X003555Y011839D01*
X003527Y011838D01*
X003500Y011841D01*
X003473Y011848D01*
X003448Y011858D01*
X003424Y011872D01*
X003402Y011889D01*
X003383Y011908D01*
X003367Y011931D01*
X003354Y011955D01*
X003345Y011981D01*
X003339Y012008D01*
X003337Y012035D01*
X002393Y012035D02*
X002395Y012062D01*
X002401Y012089D01*
X002410Y012115D01*
X002423Y012139D01*
X002439Y012162D01*
X002458Y012181D01*
X002480Y012198D01*
X002504Y012212D01*
X002529Y012222D01*
X002556Y012229D01*
X002583Y012232D01*
X002611Y012231D01*
X002638Y012226D01*
X002664Y012218D01*
X002688Y012206D01*
X002711Y012190D01*
X002732Y012172D01*
X002749Y012151D01*
X002764Y012127D01*
X002775Y012102D01*
X002783Y012076D01*
X002787Y012049D01*
X002787Y012021D01*
X002783Y011994D01*
X002775Y011968D01*
X002764Y011943D01*
X002749Y011919D01*
X002732Y011898D01*
X002711Y011880D01*
X002689Y011864D01*
X002664Y011852D01*
X002638Y011844D01*
X002611Y011839D01*
X002583Y011838D01*
X002556Y011841D01*
X002529Y011848D01*
X002504Y011858D01*
X002480Y011872D01*
X002458Y011889D01*
X002439Y011908D01*
X002423Y011931D01*
X002410Y011955D01*
X002401Y011981D01*
X002395Y012008D01*
X002393Y012035D01*
D11*
X002928Y003601D03*
X002928Y002814D03*
X002928Y002027D03*
D12*
X002928Y001082D03*
X002928Y004546D03*
D13*
X002548Y006239D03*
X004714Y006239D03*
X004714Y009704D03*
X002548Y009704D03*
D14*
X004936Y008601D03*
X004936Y008286D03*
X004936Y007972D03*
X004936Y007657D03*
X004936Y007342D03*
D15*
X006554Y007133D03*
X007054Y007133D03*
X007554Y007133D03*
X008054Y007133D03*
X008554Y007133D03*
X009054Y007133D03*
X009554Y007133D03*
X010054Y007133D03*
X010554Y007133D03*
X011054Y007133D03*
X011554Y007133D03*
X012054Y007133D03*
X012109Y000633D03*
X011609Y000633D03*
D16*
X003775Y014286D03*
X003775Y015286D03*
X003775Y016286D03*
D17*
X005349Y015893D03*
X006097Y015893D03*
X008306Y015901D03*
X009054Y015901D03*
X013290Y005369D03*
X014038Y005369D03*
X014168Y003200D03*
X013420Y003200D03*
X014243Y002267D03*
X014991Y002267D03*
X016641Y004468D03*
X017389Y004468D03*
D18*
X013464Y008461D03*
X013464Y012261D03*
D19*
G36*
X009670Y013528D02*
X009318Y013176D01*
X009162Y013332D01*
X009514Y013684D01*
X009670Y013528D01*
G37*
G36*
X009447Y013751D02*
X009095Y013399D01*
X008939Y013555D01*
X009291Y013907D01*
X009447Y013751D01*
G37*
G36*
X009224Y013973D02*
X008872Y013621D01*
X008716Y013777D01*
X009068Y014129D01*
X009224Y013973D01*
G37*
G36*
X009001Y014196D02*
X008649Y013844D01*
X008493Y014000D01*
X008845Y014352D01*
X009001Y014196D01*
G37*
G36*
X008779Y014419D02*
X008427Y014067D01*
X008271Y014223D01*
X008623Y014575D01*
X008779Y014419D01*
G37*
G36*
X008556Y014641D02*
X008204Y014289D01*
X008048Y014445D01*
X008400Y014797D01*
X008556Y014641D01*
G37*
G36*
X008333Y014864D02*
X007981Y014512D01*
X007825Y014668D01*
X008177Y015020D01*
X008333Y014864D01*
G37*
G36*
X008111Y015087D02*
X007759Y014735D01*
X007603Y014891D01*
X007955Y015243D01*
X008111Y015087D01*
G37*
G36*
X005721Y012697D02*
X005369Y012345D01*
X005213Y012501D01*
X005565Y012853D01*
X005721Y012697D01*
G37*
G36*
X005943Y012474D02*
X005591Y012122D01*
X005435Y012278D01*
X005787Y012630D01*
X005943Y012474D01*
G37*
G36*
X006166Y012251D02*
X005814Y011899D01*
X005658Y012055D01*
X006010Y012407D01*
X006166Y012251D01*
G37*
G36*
X006389Y012029D02*
X006037Y011677D01*
X005881Y011833D01*
X006233Y012185D01*
X006389Y012029D01*
G37*
G36*
X006611Y011806D02*
X006259Y011454D01*
X006103Y011610D01*
X006455Y011962D01*
X006611Y011806D01*
G37*
G36*
X006834Y011583D02*
X006482Y011231D01*
X006326Y011387D01*
X006678Y011739D01*
X006834Y011583D01*
G37*
G36*
X007057Y011361D02*
X006705Y011009D01*
X006549Y011165D01*
X006901Y011517D01*
X007057Y011361D01*
G37*
G36*
X007280Y011138D02*
X006928Y010786D01*
X006772Y010942D01*
X007124Y011294D01*
X007280Y011138D01*
G37*
D20*
G36*
X008111Y010942D02*
X007955Y010786D01*
X007603Y011138D01*
X007759Y011294D01*
X008111Y010942D01*
G37*
G36*
X008333Y011165D02*
X008177Y011009D01*
X007825Y011361D01*
X007981Y011517D01*
X008333Y011165D01*
G37*
G36*
X008556Y011387D02*
X008400Y011231D01*
X008048Y011583D01*
X008204Y011739D01*
X008556Y011387D01*
G37*
G36*
X008779Y011610D02*
X008623Y011454D01*
X008271Y011806D01*
X008427Y011962D01*
X008779Y011610D01*
G37*
G36*
X009001Y011833D02*
X008845Y011677D01*
X008493Y012029D01*
X008649Y012185D01*
X009001Y011833D01*
G37*
G36*
X009224Y012055D02*
X009068Y011899D01*
X008716Y012251D01*
X008872Y012407D01*
X009224Y012055D01*
G37*
G36*
X009447Y012278D02*
X009291Y012122D01*
X008939Y012474D01*
X009095Y012630D01*
X009447Y012278D01*
G37*
G36*
X009670Y012501D02*
X009514Y012345D01*
X009162Y012697D01*
X009318Y012853D01*
X009670Y012501D01*
G37*
G36*
X007280Y014891D02*
X007124Y014735D01*
X006772Y015087D01*
X006928Y015243D01*
X007280Y014891D01*
G37*
G36*
X007057Y014668D02*
X006901Y014512D01*
X006549Y014864D01*
X006705Y015020D01*
X007057Y014668D01*
G37*
G36*
X006834Y014445D02*
X006678Y014289D01*
X006326Y014641D01*
X006482Y014797D01*
X006834Y014445D01*
G37*
G36*
X006611Y014223D02*
X006455Y014067D01*
X006103Y014419D01*
X006259Y014575D01*
X006611Y014223D01*
G37*
G36*
X006389Y014000D02*
X006233Y013844D01*
X005881Y014196D01*
X006037Y014352D01*
X006389Y014000D01*
G37*
G36*
X006166Y013777D02*
X006010Y013621D01*
X005658Y013973D01*
X005814Y014129D01*
X006166Y013777D01*
G37*
G36*
X005943Y013555D02*
X005787Y013399D01*
X005435Y013751D01*
X005591Y013907D01*
X005943Y013555D01*
G37*
G36*
X005721Y013332D02*
X005565Y013176D01*
X005213Y013528D01*
X005369Y013684D01*
X005721Y013332D01*
G37*
D21*
X005279Y001613D03*
X014692Y000960D03*
D22*
X017393Y001464D03*
X018180Y001464D03*
X005279Y002401D03*
X005279Y003188D03*
X004491Y003188D03*
X004491Y002401D03*
X004491Y001613D03*
D23*
X015867Y003042D03*
X016667Y002668D03*
X016667Y003416D03*
D24*
X011594Y012113D03*
D25*
X011594Y013113D03*
X011594Y014113D03*
X011594Y015113D03*
X011594Y016113D03*
X011594Y017113D03*
X011594Y018113D03*
X011594Y019113D03*
X010594Y019113D03*
X010594Y018113D03*
X010594Y017113D03*
X010594Y016113D03*
X010594Y015113D03*
X010594Y014113D03*
X010594Y013113D03*
X010594Y012113D03*
D26*
X003377Y013058D03*
X002747Y013058D03*
X002747Y011011D03*
X003377Y011011D03*
D27*
X014727Y014124D02*
X014727Y014724D01*
X015727Y014724D02*
X015727Y014124D01*
X016727Y014124D02*
X016727Y014724D01*
X017727Y014724D02*
X017727Y014124D01*
X018727Y014124D02*
X018727Y014724D01*
X019727Y014724D02*
X019727Y014124D01*
X020727Y014124D02*
X020727Y014724D01*
D28*
X020401Y012901D03*
X020401Y012153D03*
X019405Y012172D03*
X019405Y012920D03*
X018424Y012916D03*
X018424Y012168D03*
X017487Y012153D03*
X017487Y012901D03*
X016523Y012912D03*
X016523Y012164D03*
X015499Y012141D03*
X015499Y012889D03*
X011101Y009578D03*
X011101Y008830D03*
X009621Y008834D03*
X009621Y009582D03*
X007826Y009590D03*
X007826Y008842D03*
X015452Y006436D03*
X015452Y005688D03*
X016601Y005696D03*
X016601Y006444D03*
X017688Y006452D03*
X017688Y005704D03*
X018814Y005692D03*
X018814Y006440D03*
X019916Y006432D03*
X019916Y005684D03*
D29*
X019708Y007572D03*
X019708Y008072D03*
X019708Y008572D03*
X019708Y009072D03*
X019708Y009572D03*
X019708Y010072D03*
X019708Y010572D03*
X019708Y011072D03*
X016086Y011072D03*
X016086Y010572D03*
X016086Y010072D03*
X016086Y009572D03*
X016086Y009072D03*
X016086Y008572D03*
X016086Y008072D03*
X016086Y007572D03*
D30*
X019857Y004310D03*
X019857Y002932D03*
D31*
X019903Y002966D01*
X020444Y003507D01*
X020444Y004491D01*
X019952Y004983D01*
X019952Y005672D01*
X019916Y005684D01*
X019952Y005722D01*
X020887Y006657D01*
X020887Y010692D01*
X019780Y011799D01*
X020099Y012119D01*
X020395Y012119D01*
X020401Y012153D01*
X019780Y011799D02*
X019312Y011332D01*
X017540Y011332D01*
X016802Y010594D01*
X016113Y010594D01*
X016086Y010572D01*
X016310Y010840D02*
X016113Y011036D01*
X016086Y011072D01*
X016310Y010840D02*
X016704Y010840D01*
X016113Y010052D02*
X016086Y010072D01*
X016113Y010052D02*
X016359Y009806D01*
X020198Y009806D01*
X020296Y009708D01*
X020296Y007444D01*
X020149Y007296D01*
X017786Y007296D01*
X016950Y006460D01*
X016605Y006460D01*
X016601Y006444D01*
X016950Y006066D02*
X015916Y006066D01*
X015916Y005672D02*
X015473Y005672D01*
X015452Y005688D01*
X015326Y005771D01*
X014046Y004491D01*
X013308Y004491D01*
X012029Y005771D01*
X012029Y007099D01*
X012054Y007133D01*
X012029Y007149D01*
X012029Y007936D01*
X011143Y008822D01*
X011101Y008830D01*
X011094Y008871D01*
X009666Y008871D01*
X009621Y008834D01*
X009617Y008871D01*
X007845Y008871D01*
X007826Y008842D01*
X008141Y008428D02*
X007501Y008428D01*
X006566Y009363D01*
X006566Y010889D01*
X006566Y010938D01*
X006763Y011135D01*
X006763Y011233D01*
X006803Y011263D01*
X006580Y011485D02*
X006615Y011529D01*
X006763Y011676D01*
X006763Y012021D01*
X008731Y013989D01*
X008731Y014088D01*
X008747Y014098D01*
X008781Y014137D01*
X008879Y014137D01*
X009027Y014285D01*
X009076Y014285D01*
X009371Y013989D01*
X009371Y013842D01*
X009223Y013694D01*
X009193Y013653D01*
X009420Y013546D02*
X009962Y014088D01*
X009962Y014334D01*
X010158Y014531D01*
X010158Y015269D01*
X010454Y015564D01*
X011733Y015564D01*
X012127Y015170D01*
X012127Y014826D01*
X012521Y014432D01*
X012521Y011283D01*
X014194Y009609D01*
X014194Y007346D01*
X013899Y007050D01*
X013899Y007296D02*
X012865Y007296D01*
X012275Y006706D01*
X011290Y006804D02*
X011290Y007542D01*
X011290Y006804D02*
X010528Y006041D01*
X010060Y006509D01*
X010060Y007099D01*
X010054Y007133D01*
X009814Y006853D02*
X009814Y007444D01*
X009322Y007936D01*
X009125Y007936D01*
X008928Y008133D01*
X009076Y008379D02*
X009322Y008133D01*
X009617Y008133D01*
X010306Y007444D01*
X010306Y006607D01*
X010454Y006460D01*
X010528Y006041D02*
X012964Y003605D01*
X013751Y003605D01*
X014145Y003212D01*
X014168Y003200D01*
X014194Y003212D01*
X014440Y003458D01*
X016605Y003458D01*
X016667Y003416D01*
X016655Y003458D01*
X016655Y004442D01*
X016641Y004468D01*
X016704Y004885D02*
X016950Y004885D01*
X017344Y004491D01*
X017389Y004468D01*
X017393Y004294D01*
X019853Y004294D01*
X019857Y004310D01*
X019916Y005684D02*
X019903Y005722D01*
X018820Y005722D01*
X018814Y005692D01*
X018771Y005722D01*
X017737Y005722D01*
X017688Y005704D01*
X017688Y005722D01*
X016605Y005722D01*
X016601Y005696D01*
X016950Y006066D02*
X017344Y006460D01*
X017639Y006460D01*
X017688Y006452D01*
X017688Y006460D01*
X018082Y006460D01*
X018721Y007099D01*
X020198Y007099D01*
X020493Y007395D01*
X020493Y010003D01*
X019952Y010544D01*
X019755Y010544D01*
X019708Y010572D01*
X019708Y010072D02*
X019706Y010052D01*
X019066Y010052D01*
X019708Y009572D02*
X019706Y009560D01*
X019706Y009117D01*
X019708Y009072D01*
X019706Y009068D01*
X019706Y008576D01*
X019708Y008572D01*
X019706Y008527D01*
X019706Y008084D01*
X019708Y008072D01*
X019706Y008035D01*
X019706Y007838D01*
X016113Y007838D01*
X016113Y007592D01*
X016086Y007572D01*
X016064Y007542D01*
X015818Y007542D01*
X015031Y006755D01*
X015031Y006115D01*
X015424Y005722D01*
X015452Y005688D01*
X015916Y005672D02*
X016704Y004885D01*
X017344Y004442D02*
X017389Y004468D01*
X017344Y004442D02*
X017344Y003409D01*
X016655Y002720D01*
X016667Y002668D01*
X016704Y002621D01*
X016704Y002277D01*
X015031Y002277D01*
X014991Y002267D01*
X014243Y002267D02*
X014194Y002277D01*
X012865Y000948D01*
X012127Y000849D02*
X012127Y000702D01*
X012109Y000633D01*
X012127Y000653D01*
X014391Y000653D01*
X014686Y000948D01*
X014692Y000960D01*
X014243Y002267D02*
X014243Y002277D01*
X014981Y003015D01*
X015818Y003015D01*
X015867Y003042D01*
X016704Y002277D02*
X016704Y002178D01*
X017393Y001489D01*
X017393Y001464D01*
X013899Y004737D02*
X013308Y005328D01*
X013290Y005369D01*
X012668Y005475D02*
X014686Y007493D01*
X014686Y008674D01*
X015572Y009560D01*
X016064Y009560D01*
X016086Y009572D01*
X016086Y009072D02*
X016113Y009068D01*
X016113Y008576D01*
X016086Y008572D01*
X016113Y008527D01*
X016113Y008084D01*
X016086Y008072D01*
X016113Y008035D01*
X016113Y007838D01*
X016261Y007247D02*
X015473Y006460D01*
X015452Y006436D01*
X014440Y007592D02*
X014440Y013300D01*
X012914Y014826D01*
X012914Y014924D01*
X012767Y014727D02*
X012324Y015170D01*
X012324Y016007D01*
X011782Y016548D01*
X010995Y016548D01*
X010601Y016155D01*
X010594Y016113D01*
X010552Y016696D02*
X010798Y016696D01*
X011143Y017040D01*
X011143Y018664D01*
X011586Y019107D01*
X011594Y019113D01*
X010601Y019107D02*
X010601Y018123D01*
X010594Y018113D01*
X010552Y018074D01*
X010552Y017680D01*
X008928Y016056D01*
X009054Y015901D01*
X009027Y015909D01*
X008584Y016351D01*
X008042Y016351D01*
X007599Y015909D01*
X006123Y015909D01*
X006097Y015893D01*
X005582Y015662D02*
X005385Y015859D01*
X005349Y015893D01*
X005582Y015662D02*
X005582Y015269D01*
X005483Y015023D02*
X005828Y015023D01*
X006172Y015367D01*
X006172Y015121D02*
X006615Y015121D01*
X006861Y015367D01*
X008436Y015367D01*
X008781Y015416D02*
X008338Y015859D01*
X008306Y015901D01*
X009027Y015859D02*
X009054Y015901D01*
X009027Y015859D02*
X009027Y014924D01*
X009076Y014924D01*
X009273Y014727D01*
X009027Y014924D02*
X008534Y014432D01*
X008534Y014334D01*
X008525Y014321D01*
X008485Y014285D01*
X006394Y012193D01*
X006517Y012070D01*
X006517Y011972D01*
X006369Y011824D01*
X006369Y011725D01*
X006357Y011708D01*
X006123Y011824D02*
X006123Y011922D01*
X006135Y011931D01*
X006123Y011824D02*
X005975Y011676D01*
X005975Y011578D01*
X006221Y011332D01*
X006320Y011332D01*
X006320Y008625D01*
X006418Y008379D02*
X006566Y008527D01*
X007107Y008527D01*
X007255Y008379D01*
X007255Y008182D01*
X007058Y007985D01*
X007058Y007149D01*
X007054Y007133D01*
X006812Y006804D02*
X006812Y007493D01*
X006369Y007493D01*
X006271Y007395D01*
X005828Y007395D01*
X006172Y006952D02*
X006714Y006411D01*
X009371Y006411D01*
X009814Y006853D01*
X009519Y007001D02*
X009519Y007099D01*
X009554Y007133D01*
X009519Y007001D02*
X009174Y006657D01*
X008830Y006853D02*
X008731Y006755D01*
X006861Y006755D01*
X006812Y006804D01*
X006554Y007133D02*
X006517Y007149D01*
X005090Y007149D01*
X004942Y007296D01*
X004936Y007342D01*
X004893Y007346D01*
X004499Y007346D01*
X003269Y008576D01*
X003269Y010052D01*
X004007Y010052D01*
X004401Y010446D01*
X004844Y010446D01*
X005385Y010987D01*
X005779Y010987D02*
X004893Y011873D01*
X004893Y013300D01*
X005090Y013448D02*
X005090Y015023D01*
X005237Y015269D02*
X005483Y015023D01*
X005237Y015269D02*
X003810Y015269D01*
X003775Y015286D01*
X003810Y014777D02*
X003810Y014334D01*
X003775Y014286D01*
X003810Y014285D01*
X004007Y014088D01*
X004007Y012513D01*
X004745Y011775D01*
X004745Y010692D01*
X005779Y010987D02*
X005779Y008822D01*
X006221Y008379D01*
X006418Y008379D01*
X006812Y008084D02*
X007009Y008281D01*
X006812Y008084D02*
X006812Y007493D01*
X006172Y006952D02*
X004942Y006952D01*
X004936Y007657D02*
X004893Y007690D01*
X004499Y007690D01*
X004253Y007936D01*
X004253Y008330D02*
X004499Y008576D01*
X004893Y008576D01*
X004936Y008601D01*
X004942Y008330D02*
X004936Y008286D01*
X004942Y008330D02*
X005385Y008330D01*
X005532Y008477D01*
X005532Y008970D01*
X005582Y008182D02*
X005385Y007985D01*
X004942Y007985D01*
X004936Y007972D01*
X004105Y007395D02*
X004105Y005820D01*
X004204Y005722D01*
X004401Y005722D01*
X005926Y004196D01*
X008534Y004196D01*
X011586Y001145D01*
X011586Y000653D01*
X011609Y000633D01*
X012127Y000849D02*
X008584Y004393D01*
X008485Y004393D01*
X006172Y006706D01*
X006074Y006706D01*
X007554Y007133D02*
X007599Y007149D01*
X007599Y007592D01*
X008387Y008379D01*
X009076Y008379D01*
X009125Y008576D02*
X008288Y008576D01*
X008141Y008428D01*
X008485Y008133D02*
X008092Y007739D01*
X008092Y007149D01*
X008054Y007133D01*
X008534Y007149D02*
X008534Y007444D01*
X008387Y007592D01*
X008534Y007149D02*
X008554Y007133D01*
X008830Y006903D02*
X008830Y006853D01*
X008830Y006903D02*
X009027Y007099D01*
X009054Y007133D01*
X009322Y008379D02*
X009125Y008576D01*
X009322Y008379D02*
X009420Y008379D01*
X009174Y009117D02*
X009273Y009216D01*
X010257Y009216D01*
X010651Y009609D01*
X010651Y009855D01*
X010847Y010052D01*
X012225Y010052D01*
X013456Y008822D01*
X013456Y008477D01*
X013464Y008461D01*
X013456Y008428D01*
X012865Y007838D01*
X012865Y007641D01*
X013899Y007296D02*
X013997Y007395D01*
X013997Y009560D01*
X012422Y011135D01*
X010011Y011135D01*
X009912Y011381D02*
X011930Y011381D01*
X012225Y011676D01*
X012225Y014481D01*
X011594Y015113D01*
X010798Y014531D02*
X011143Y014186D01*
X011143Y013596D01*
X011586Y013153D01*
X011594Y013113D01*
X011094Y013202D02*
X011094Y012021D01*
X010749Y011676D01*
X009962Y011676D01*
X009666Y011381D01*
X008977Y011381D01*
X008682Y011676D01*
X008534Y011676D01*
X008525Y011708D01*
X008436Y011479D02*
X008338Y011479D01*
X008302Y011485D01*
X008436Y011479D02*
X008731Y011184D01*
X009716Y011184D01*
X009912Y011381D01*
X009420Y011578D02*
X010060Y012218D01*
X010060Y013596D01*
X009814Y013694D02*
X010158Y014038D01*
X010158Y014285D01*
X010405Y014531D01*
X010798Y014531D01*
X010594Y014113D02*
X010601Y014088D01*
X010601Y013153D01*
X010594Y013113D01*
X010601Y013103D01*
X010601Y012119D01*
X010594Y012113D01*
X009814Y012316D02*
X009568Y012562D01*
X009420Y012562D01*
X009416Y012599D01*
X009174Y012414D02*
X009193Y012376D01*
X009174Y012414D02*
X009027Y012414D01*
X008879Y012562D01*
X008387Y012562D01*
X007698Y011873D01*
X007452Y011972D02*
X008534Y013054D01*
X009371Y013054D01*
X009814Y013497D01*
X009814Y013694D01*
X009420Y013546D02*
X009420Y013448D01*
X009416Y013430D01*
X008928Y013743D02*
X008928Y013842D01*
X008970Y013875D01*
X008928Y013743D02*
X007255Y012070D01*
X007255Y011332D01*
X007452Y011135D01*
X007452Y009954D01*
X007796Y009609D01*
X007826Y009590D01*
X007845Y009560D01*
X008092Y009560D01*
X008288Y009363D01*
X008928Y009363D01*
X009174Y009117D02*
X008288Y009117D01*
X008190Y009216D01*
X007452Y009216D01*
X007058Y009609D01*
X007058Y011036D01*
X007026Y011040D01*
X006580Y011485D02*
X006566Y011479D01*
X006418Y011332D01*
X006320Y011332D01*
X005779Y011332D02*
X005729Y011332D01*
X005483Y011578D01*
X005483Y012070D01*
X005680Y012267D01*
X005680Y012365D01*
X005689Y012376D01*
X005467Y012599D02*
X005434Y012562D01*
X005139Y012267D01*
X005729Y011972D02*
X005729Y011676D01*
X005729Y011972D02*
X005877Y012119D01*
X005912Y012153D01*
X005926Y012168D01*
X006074Y012316D01*
X006271Y012316D01*
X006394Y012193D01*
X006123Y012611D02*
X006074Y012611D01*
X006123Y012611D02*
X006763Y013251D01*
X006763Y014235D01*
X006615Y014383D01*
X006615Y014531D01*
X006580Y014543D01*
X006812Y014727D02*
X006803Y014766D01*
X006812Y014727D02*
X007698Y013842D01*
X007895Y014334D02*
X007895Y014580D01*
X008042Y014727D01*
X008079Y014766D01*
X007857Y014989D02*
X007845Y015023D01*
X007747Y015121D01*
X007304Y015121D01*
X007058Y014974D02*
X007026Y014989D01*
X007058Y014974D02*
X007452Y014580D01*
X007649Y014580D01*
X008302Y014543D02*
X008338Y014580D01*
X008682Y014924D01*
X009765Y014481D02*
X009765Y015909D01*
X010552Y016696D01*
X012767Y014727D02*
X012767Y014432D01*
X012029Y013694D02*
X011635Y014088D01*
X011594Y014113D01*
X012029Y013694D02*
X012029Y011775D01*
X011881Y011627D01*
X011832Y011627D01*
X011094Y010889D02*
X008584Y010889D01*
X008239Y011233D01*
X008092Y011233D01*
X008079Y011263D01*
X007845Y011184D02*
X007452Y011578D01*
X007452Y011972D01*
X007845Y011184D02*
X007845Y011086D01*
X007857Y011040D01*
X008387Y010741D02*
X008485Y010741D01*
X009617Y009609D01*
X009621Y009582D01*
X009666Y009560D01*
X010257Y009560D01*
X011101Y009578D02*
X011143Y009609D01*
X011930Y009609D01*
X012127Y009806D01*
X013464Y012261D02*
X013505Y012267D01*
X013505Y012562D01*
X014046Y013103D01*
X014735Y014383D02*
X014727Y014424D01*
X014735Y014383D02*
X015473Y013645D01*
X015473Y012907D01*
X015499Y012889D01*
X015523Y012168D02*
X015499Y012141D01*
X015523Y012168D02*
X015769Y012168D01*
X016507Y012907D01*
X016523Y012912D01*
X016507Y012956D01*
X016507Y013645D01*
X015727Y014424D01*
X016727Y014424D02*
X016753Y014383D01*
X016950Y014186D01*
X016950Y012562D01*
X016556Y012168D01*
X016523Y012164D01*
X017487Y012153D02*
X017491Y012168D01*
X017639Y012168D01*
X018377Y012907D01*
X018424Y012916D01*
X018426Y012956D01*
X018426Y014088D01*
X018721Y014383D01*
X018727Y014424D01*
X018968Y013645D02*
X019706Y014383D01*
X019727Y014424D01*
X020395Y014088D02*
X020690Y014383D01*
X020727Y014424D01*
X020395Y014088D02*
X020395Y012956D01*
X020401Y012901D01*
X020395Y012907D01*
X019410Y012907D01*
X019405Y012920D01*
X019405Y012172D02*
X019361Y012168D01*
X018968Y012168D01*
X018968Y013645D01*
X017727Y014424D02*
X017688Y014383D01*
X017491Y014186D01*
X017491Y012907D01*
X017487Y012901D01*
X018424Y012168D02*
X018968Y012168D01*
X019708Y011072D02*
X019755Y011036D01*
X019952Y011036D01*
X020690Y010298D01*
X020690Y007346D01*
X020247Y006903D01*
X020247Y006853D01*
X020444Y006657D01*
X020247Y006903D02*
X019656Y006903D01*
X019214Y006460D01*
X018820Y006460D01*
X018814Y006440D01*
X019361Y006263D02*
X019509Y006411D01*
X019903Y006411D01*
X019916Y006432D01*
X019708Y007572D02*
X019706Y007592D01*
X019706Y007838D01*
X018328Y009314D02*
X015572Y009314D01*
X015523Y009265D01*
X015523Y008084D01*
X014046Y006607D01*
X014046Y005377D01*
X014038Y005369D01*
X013406Y003212D02*
X013420Y003200D01*
X013406Y003212D02*
X010109Y003212D01*
X009863Y003458D01*
X008682Y003704D02*
X010897Y001489D01*
X008682Y003704D02*
X005237Y003704D01*
X004745Y003212D01*
X004499Y003212D01*
X004491Y003188D01*
X004056Y003064D02*
X004450Y002670D01*
X004450Y002424D01*
X004491Y002401D01*
X003810Y001735D02*
X003810Y004639D01*
X004351Y005180D01*
X004351Y005525D02*
X003958Y005525D01*
X003269Y006214D01*
X003269Y008231D01*
X003269Y010052D02*
X002777Y010544D01*
X002777Y010987D01*
X002747Y011011D01*
X003377Y013058D02*
X003416Y013054D01*
X003761Y013054D01*
X005090Y013448D02*
X005483Y013054D01*
X005532Y013054D01*
X005729Y012857D01*
X005926Y012857D01*
X006074Y013005D01*
X006074Y013596D01*
X005926Y013743D01*
X005926Y013842D01*
X005912Y013875D01*
X005680Y013792D02*
X005532Y013940D01*
X005532Y014481D01*
X006172Y015121D01*
X006357Y014321D02*
X006369Y014285D01*
X006369Y014186D01*
X006517Y014038D01*
X006517Y013349D01*
X006320Y013153D01*
X005828Y013103D02*
X005779Y013103D01*
X005483Y013399D01*
X005467Y013430D01*
X005689Y013653D02*
X005680Y013694D01*
X005680Y013792D01*
X006025Y014137D02*
X005779Y014383D01*
X006025Y014137D02*
X006123Y014137D01*
X006135Y014098D01*
X004794Y016253D02*
X003810Y016253D01*
X003775Y016286D01*
X008747Y011931D02*
X008781Y011922D01*
X008879Y011922D01*
X009223Y011578D01*
X009420Y011578D01*
X009322Y011824D02*
X009273Y011824D01*
X008977Y012119D01*
X008970Y012153D01*
X003416Y005722D02*
X002432Y004737D01*
X002432Y002031D01*
X002777Y001686D01*
X003023Y001686D01*
X004007Y000702D01*
X005188Y000702D01*
X005926Y001440D01*
X006369Y001538D02*
X006369Y003458D01*
X008288Y003458D01*
X007944Y003950D02*
X005926Y003950D01*
X004351Y005525D01*
X004056Y004540D02*
X004056Y003064D01*
X002973Y001981D02*
X002928Y002027D01*
X002973Y001981D02*
X003318Y001981D01*
X004351Y000948D01*
X005090Y000948D01*
X004745Y001194D02*
X004351Y001194D01*
X003810Y001735D01*
X003859Y000505D02*
X005336Y000505D01*
X006369Y001538D01*
X005279Y002401D02*
X005286Y002424D01*
X006123Y003261D01*
X006271Y003458D02*
X006221Y003507D01*
X005582Y003507D01*
X005286Y003212D01*
X005279Y003188D01*
X006271Y003458D02*
X006369Y003458D01*
X010601Y019107D02*
X010594Y019113D01*
D32*
X008781Y015416D03*
X008436Y015367D03*
X008682Y014924D03*
X009273Y014727D03*
X009765Y014481D03*
X010060Y013596D03*
X011094Y013202D03*
X009814Y012316D03*
X009322Y011824D03*
X010011Y011135D03*
X011094Y010889D03*
X011832Y011627D03*
X012127Y009806D03*
X010257Y009560D03*
X008928Y009363D03*
X009420Y008379D03*
X008928Y008133D03*
X008485Y008133D03*
X008387Y007592D03*
X009174Y006657D03*
X010454Y006460D03*
X011290Y007542D03*
X012275Y006706D03*
X012865Y007641D03*
X013899Y007050D03*
X014440Y007592D03*
X015916Y006066D03*
X016261Y007247D03*
X018328Y009314D03*
X019066Y010052D03*
X016704Y010840D03*
X014046Y013103D03*
X012767Y014432D03*
X012914Y014924D03*
X008387Y010741D03*
X007698Y011873D03*
X006566Y010889D03*
X005779Y011332D03*
X005729Y011676D03*
X005139Y012267D03*
X005828Y013103D03*
X006320Y013153D03*
X006074Y012611D03*
X004893Y013300D03*
X003761Y013054D03*
X003810Y014777D03*
X005090Y015023D03*
X005582Y015269D03*
X006172Y015367D03*
X005779Y014383D03*
X007304Y015121D03*
X007649Y014580D03*
X007895Y014334D03*
X007698Y013842D03*
X004794Y016253D03*
X005385Y010987D03*
X004745Y010692D03*
X005532Y008970D03*
X005582Y008182D03*
X006320Y008625D03*
X007009Y008281D03*
X005828Y007395D03*
X006074Y006706D03*
X004942Y006952D03*
X004105Y007395D03*
X004253Y007936D03*
X004253Y008330D03*
X003269Y008231D03*
X003416Y005722D03*
X004351Y005180D03*
X004056Y004540D03*
X006123Y003261D03*
X005926Y001440D03*
X005090Y000948D03*
X004745Y001194D03*
X003859Y000505D03*
X007944Y003950D03*
X008288Y003458D03*
X009863Y003458D03*
X010897Y001489D03*
X012865Y000948D03*
X013899Y004737D03*
X012668Y005475D03*
X019361Y006263D03*
X020444Y006657D03*
M02*
