G75*
%MOIN*%
%OFA0B0*%
%FSLAX24Y24*%
%IPPOS*%
%LPD*%
%AMOC8*
5,1,8,0,0,1.08239X$1,22.5*
%
%ADD10C,0.0000*%
%ADD11C,0.0050*%
%ADD12C,0.0030*%
%ADD13C,0.0002*%
%ADD14C,0.0060*%
%ADD15C,0.0020*%
%ADD16C,0.0080*%
%ADD17C,0.0040*%
D10*
X002038Y000848D02*
X002038Y013148D01*
X002041Y013188D01*
X002048Y013227D01*
X002058Y013266D01*
X002072Y013304D01*
X002089Y013340D01*
X002110Y013374D01*
X002133Y013407D01*
X002160Y013437D01*
X002189Y013464D01*
X002220Y013489D01*
X002254Y013511D01*
X002290Y013529D01*
X002327Y013545D01*
X002365Y013556D01*
X002404Y013565D01*
X002444Y013569D01*
X002484Y013570D01*
X002587Y013570D01*
X002586Y013570D02*
X002623Y013573D01*
X002659Y013580D01*
X002694Y013590D01*
X002728Y013605D01*
X002760Y013622D01*
X002790Y013643D01*
X002818Y013667D01*
X002843Y013694D01*
X002865Y013723D01*
X002884Y013755D01*
X002900Y013788D01*
X002912Y013823D01*
X002921Y013858D01*
X002925Y013895D01*
X002926Y013931D01*
X002924Y016531D01*
X002925Y016531D02*
X002927Y016563D01*
X002933Y016594D01*
X002942Y016624D01*
X002955Y016653D01*
X002972Y016680D01*
X002991Y016705D01*
X003014Y016728D01*
X003039Y016747D01*
X003066Y016764D01*
X003095Y016777D01*
X003125Y016786D01*
X003156Y016792D01*
X003188Y016794D01*
X009212Y016794D01*
X009244Y016796D01*
X009276Y016801D01*
X009307Y016809D01*
X009337Y016821D01*
X009366Y016835D01*
X009392Y016853D01*
X009417Y016873D01*
X009440Y016896D01*
X009460Y016921D01*
X009478Y016948D01*
X009492Y016976D01*
X009504Y017006D01*
X009512Y017037D01*
X009517Y017069D01*
X009519Y017101D01*
X009519Y019323D01*
X009521Y019372D01*
X009527Y019420D01*
X009536Y019468D01*
X009549Y019515D01*
X009566Y019561D01*
X009587Y019605D01*
X009611Y019647D01*
X009638Y019688D01*
X009668Y019726D01*
X009701Y019762D01*
X009737Y019795D01*
X009775Y019825D01*
X009816Y019852D01*
X009858Y019876D01*
X009902Y019897D01*
X009948Y019914D01*
X009995Y019927D01*
X010043Y019936D01*
X010091Y019942D01*
X010140Y019944D01*
X012090Y019944D01*
X012135Y019942D01*
X012180Y019937D01*
X012225Y019928D01*
X012269Y019916D01*
X012311Y019900D01*
X012352Y019881D01*
X012392Y019859D01*
X012430Y019834D01*
X012465Y019806D01*
X012499Y019775D01*
X012530Y019741D01*
X012558Y019706D01*
X012583Y019668D01*
X012605Y019628D01*
X012624Y019587D01*
X012640Y019545D01*
X012652Y019501D01*
X012661Y019456D01*
X012666Y019411D01*
X012668Y019366D01*
X012668Y016534D01*
X012670Y016490D01*
X012675Y016447D01*
X012684Y016405D01*
X012697Y016363D01*
X012712Y016322D01*
X012732Y016283D01*
X012754Y016246D01*
X012779Y016210D01*
X012807Y016177D01*
X012838Y016146D01*
X012871Y016118D01*
X012907Y016093D01*
X012944Y016071D01*
X012983Y016051D01*
X013024Y016036D01*
X013066Y016023D01*
X013108Y016014D01*
X013151Y016009D01*
X013195Y016007D01*
X020717Y016007D01*
X020765Y016005D01*
X020813Y015999D01*
X020860Y015990D01*
X020906Y015977D01*
X020952Y015960D01*
X020995Y015940D01*
X021037Y015917D01*
X021077Y015890D01*
X021115Y015860D01*
X021150Y015827D01*
X021183Y015792D01*
X021213Y015754D01*
X021240Y015714D01*
X021263Y015672D01*
X021283Y015629D01*
X021300Y015583D01*
X021313Y015537D01*
X021322Y015490D01*
X021328Y015442D01*
X021330Y015394D01*
X021330Y001050D01*
X021328Y000996D01*
X021323Y000942D01*
X021313Y000889D01*
X021301Y000837D01*
X021284Y000785D01*
X021265Y000735D01*
X021241Y000686D01*
X021215Y000639D01*
X021185Y000594D01*
X021153Y000551D01*
X021117Y000510D01*
X021079Y000472D01*
X021038Y000436D01*
X020995Y000404D01*
X020950Y000374D01*
X020903Y000348D01*
X020854Y000324D01*
X020804Y000305D01*
X020752Y000288D01*
X020700Y000276D01*
X020647Y000266D01*
X020593Y000261D01*
X020539Y000259D01*
X002628Y000259D01*
X002582Y000261D01*
X002536Y000266D01*
X002491Y000275D01*
X002446Y000288D01*
X002403Y000304D01*
X002361Y000323D01*
X002320Y000346D01*
X002282Y000371D01*
X002245Y000400D01*
X002212Y000432D01*
X002180Y000465D01*
X002151Y000502D01*
X002126Y000540D01*
X002103Y000581D01*
X002084Y000623D01*
X002068Y000666D01*
X002055Y000711D01*
X002046Y000756D01*
X002041Y000802D01*
X002039Y000848D01*
X003456Y006369D02*
X003458Y006396D01*
X003464Y006423D01*
X003473Y006449D01*
X003486Y006473D01*
X003502Y006496D01*
X003521Y006515D01*
X003543Y006532D01*
X003567Y006546D01*
X003592Y006556D01*
X003619Y006563D01*
X003646Y006566D01*
X003674Y006565D01*
X003701Y006560D01*
X003727Y006552D01*
X003751Y006540D01*
X003774Y006524D01*
X003795Y006506D01*
X003812Y006485D01*
X003827Y006461D01*
X003838Y006436D01*
X003846Y006410D01*
X003850Y006383D01*
X003850Y006355D01*
X003846Y006328D01*
X003838Y006302D01*
X003827Y006277D01*
X003812Y006253D01*
X003795Y006232D01*
X003774Y006214D01*
X003752Y006198D01*
X003727Y006186D01*
X003701Y006178D01*
X003674Y006173D01*
X003646Y006172D01*
X003619Y006175D01*
X003592Y006182D01*
X003567Y006192D01*
X003543Y006206D01*
X003521Y006223D01*
X003502Y006242D01*
X003486Y006265D01*
X003473Y006289D01*
X003464Y006315D01*
X003458Y006342D01*
X003456Y006369D01*
X003532Y007105D02*
X003534Y007132D01*
X003540Y007159D01*
X003549Y007185D01*
X003562Y007209D01*
X003578Y007232D01*
X003597Y007251D01*
X003619Y007268D01*
X003643Y007282D01*
X003668Y007292D01*
X003695Y007299D01*
X003722Y007302D01*
X003750Y007301D01*
X003777Y007296D01*
X003803Y007288D01*
X003827Y007276D01*
X003850Y007260D01*
X003871Y007242D01*
X003888Y007221D01*
X003903Y007197D01*
X003914Y007172D01*
X003922Y007146D01*
X003926Y007119D01*
X003926Y007091D01*
X003922Y007064D01*
X003914Y007038D01*
X003903Y007013D01*
X003888Y006989D01*
X003871Y006968D01*
X003850Y006950D01*
X003828Y006934D01*
X003803Y006922D01*
X003777Y006914D01*
X003750Y006909D01*
X003722Y006908D01*
X003695Y006911D01*
X003668Y006918D01*
X003643Y006928D01*
X003619Y006942D01*
X003597Y006959D01*
X003578Y006978D01*
X003562Y007001D01*
X003549Y007025D01*
X003540Y007051D01*
X003534Y007078D01*
X003532Y007105D01*
X003532Y008838D02*
X003534Y008865D01*
X003540Y008892D01*
X003549Y008918D01*
X003562Y008942D01*
X003578Y008965D01*
X003597Y008984D01*
X003619Y009001D01*
X003643Y009015D01*
X003668Y009025D01*
X003695Y009032D01*
X003722Y009035D01*
X003750Y009034D01*
X003777Y009029D01*
X003803Y009021D01*
X003827Y009009D01*
X003850Y008993D01*
X003871Y008975D01*
X003888Y008954D01*
X003903Y008930D01*
X003914Y008905D01*
X003922Y008879D01*
X003926Y008852D01*
X003926Y008824D01*
X003922Y008797D01*
X003914Y008771D01*
X003903Y008746D01*
X003888Y008722D01*
X003871Y008701D01*
X003850Y008683D01*
X003828Y008667D01*
X003803Y008655D01*
X003777Y008647D01*
X003750Y008642D01*
X003722Y008641D01*
X003695Y008644D01*
X003668Y008651D01*
X003643Y008661D01*
X003619Y008675D01*
X003597Y008692D01*
X003578Y008711D01*
X003562Y008734D01*
X003549Y008758D01*
X003540Y008784D01*
X003534Y008811D01*
X003532Y008838D01*
X003456Y009523D02*
X003458Y009550D01*
X003464Y009577D01*
X003473Y009603D01*
X003486Y009627D01*
X003502Y009650D01*
X003521Y009669D01*
X003543Y009686D01*
X003567Y009700D01*
X003592Y009710D01*
X003619Y009717D01*
X003646Y009720D01*
X003674Y009719D01*
X003701Y009714D01*
X003727Y009706D01*
X003751Y009694D01*
X003774Y009678D01*
X003795Y009660D01*
X003812Y009639D01*
X003827Y009615D01*
X003838Y009590D01*
X003846Y009564D01*
X003850Y009537D01*
X003850Y009509D01*
X003846Y009482D01*
X003838Y009456D01*
X003827Y009431D01*
X003812Y009407D01*
X003795Y009386D01*
X003774Y009368D01*
X003752Y009352D01*
X003727Y009340D01*
X003701Y009332D01*
X003674Y009327D01*
X003646Y009326D01*
X003619Y009329D01*
X003592Y009336D01*
X003567Y009346D01*
X003543Y009360D01*
X003521Y009377D01*
X003502Y009396D01*
X003486Y009419D01*
X003473Y009443D01*
X003464Y009469D01*
X003458Y009496D01*
X003456Y009523D01*
X003337Y012035D02*
X003339Y012062D01*
X003345Y012089D01*
X003354Y012115D01*
X003367Y012139D01*
X003383Y012162D01*
X003402Y012181D01*
X003424Y012198D01*
X003448Y012212D01*
X003473Y012222D01*
X003500Y012229D01*
X003527Y012232D01*
X003555Y012231D01*
X003582Y012226D01*
X003608Y012218D01*
X003632Y012206D01*
X003655Y012190D01*
X003676Y012172D01*
X003693Y012151D01*
X003708Y012127D01*
X003719Y012102D01*
X003727Y012076D01*
X003731Y012049D01*
X003731Y012021D01*
X003727Y011994D01*
X003719Y011968D01*
X003708Y011943D01*
X003693Y011919D01*
X003676Y011898D01*
X003655Y011880D01*
X003633Y011864D01*
X003608Y011852D01*
X003582Y011844D01*
X003555Y011839D01*
X003527Y011838D01*
X003500Y011841D01*
X003473Y011848D01*
X003448Y011858D01*
X003424Y011872D01*
X003402Y011889D01*
X003383Y011908D01*
X003367Y011931D01*
X003354Y011955D01*
X003345Y011981D01*
X003339Y012008D01*
X003337Y012035D01*
X002393Y012035D02*
X002395Y012062D01*
X002401Y012089D01*
X002410Y012115D01*
X002423Y012139D01*
X002439Y012162D01*
X002458Y012181D01*
X002480Y012198D01*
X002504Y012212D01*
X002529Y012222D01*
X002556Y012229D01*
X002583Y012232D01*
X002611Y012231D01*
X002638Y012226D01*
X002664Y012218D01*
X002688Y012206D01*
X002711Y012190D01*
X002732Y012172D01*
X002749Y012151D01*
X002764Y012127D01*
X002775Y012102D01*
X002783Y012076D01*
X002787Y012049D01*
X002787Y012021D01*
X002783Y011994D01*
X002775Y011968D01*
X002764Y011943D01*
X002749Y011919D01*
X002732Y011898D01*
X002711Y011880D01*
X002689Y011864D01*
X002664Y011852D01*
X002638Y011844D01*
X002611Y011839D01*
X002583Y011838D01*
X002556Y011841D01*
X002529Y011848D01*
X002504Y011858D01*
X002480Y011872D01*
X002458Y011889D01*
X002439Y011908D01*
X002423Y011931D01*
X002410Y011955D01*
X002401Y011981D01*
X002395Y012008D01*
X002393Y012035D01*
D11*
X002471Y012546D02*
X002117Y012546D01*
X002117Y011523D01*
X002471Y011523D01*
X002471Y012546D01*
X002471Y012822D01*
X003653Y012822D01*
X003653Y011247D01*
X002471Y011247D01*
X002471Y011523D01*
X003099Y009507D02*
X004162Y009507D01*
X005147Y009507D02*
X005147Y006436D01*
X005147Y006712D02*
X005147Y007145D01*
X005956Y007133D02*
X005956Y000633D01*
X005995Y000637D02*
X005956Y006739D01*
X012649Y006739D01*
X012649Y006779D01*
X012649Y007133D01*
X012255Y007133D01*
X012255Y006739D01*
X012649Y006739D01*
X012649Y006700D01*
X012649Y000637D01*
X012334Y000637D01*
X012334Y001031D01*
X011349Y001031D01*
X011349Y000637D01*
X005995Y000637D01*
X005995Y000647D02*
X011349Y000647D01*
X011349Y000695D02*
X005995Y000695D01*
X005994Y000744D02*
X011349Y000744D01*
X011349Y000792D02*
X005994Y000792D01*
X005994Y000841D02*
X011349Y000841D01*
X011349Y000889D02*
X005993Y000889D01*
X005993Y000938D02*
X011349Y000938D01*
X011349Y000986D02*
X005993Y000986D01*
X005993Y001035D02*
X012649Y001035D01*
X012649Y001083D02*
X005992Y001083D01*
X005992Y001132D02*
X012649Y001132D01*
X012649Y001180D02*
X005992Y001180D01*
X005991Y001229D02*
X012649Y001229D01*
X012649Y001277D02*
X005991Y001277D01*
X005991Y001326D02*
X012649Y001326D01*
X012649Y001374D02*
X005990Y001374D01*
X005990Y001423D02*
X012649Y001423D01*
X012649Y001471D02*
X005990Y001471D01*
X005989Y001520D02*
X012649Y001520D01*
X012649Y001568D02*
X005989Y001568D01*
X005989Y001617D02*
X012649Y001617D01*
X012649Y001665D02*
X005988Y001665D01*
X005988Y001714D02*
X012649Y001714D01*
X012649Y001762D02*
X005988Y001762D01*
X005988Y001811D02*
X012649Y001811D01*
X012649Y001859D02*
X005987Y001859D01*
X005987Y001908D02*
X012649Y001908D01*
X012649Y001956D02*
X005987Y001956D01*
X005986Y002005D02*
X012649Y002005D01*
X012649Y002053D02*
X005986Y002053D01*
X005986Y002102D02*
X012649Y002102D01*
X012649Y002150D02*
X005985Y002150D01*
X005985Y002199D02*
X012649Y002199D01*
X012649Y002247D02*
X005985Y002247D01*
X005984Y002296D02*
X012649Y002296D01*
X012649Y002344D02*
X005984Y002344D01*
X005984Y002393D02*
X012649Y002393D01*
X012649Y002441D02*
X005983Y002441D01*
X005983Y002490D02*
X012649Y002490D01*
X012649Y002538D02*
X005983Y002538D01*
X005982Y002587D02*
X012649Y002587D01*
X012649Y002635D02*
X005982Y002635D01*
X005982Y002684D02*
X012649Y002684D01*
X012649Y002732D02*
X005982Y002732D01*
X005981Y002781D02*
X012649Y002781D01*
X012649Y002829D02*
X005981Y002829D01*
X005981Y002878D02*
X012649Y002878D01*
X012649Y002926D02*
X005980Y002926D01*
X005980Y002975D02*
X012649Y002975D01*
X012649Y003023D02*
X005980Y003023D01*
X005979Y003072D02*
X012649Y003072D01*
X012649Y003120D02*
X005979Y003120D01*
X005979Y003169D02*
X012649Y003169D01*
X012649Y003217D02*
X005978Y003217D01*
X005978Y003266D02*
X012649Y003266D01*
X012649Y003314D02*
X005978Y003314D01*
X005977Y003363D02*
X012649Y003363D01*
X012649Y003411D02*
X005977Y003411D01*
X005977Y003460D02*
X012649Y003460D01*
X012649Y003508D02*
X005977Y003508D01*
X005976Y003557D02*
X012649Y003557D01*
X012649Y003605D02*
X005976Y003605D01*
X005976Y003654D02*
X012649Y003654D01*
X012649Y003702D02*
X005975Y003702D01*
X005975Y003751D02*
X012649Y003751D01*
X012649Y003799D02*
X005975Y003799D01*
X005974Y003848D02*
X012649Y003848D01*
X012649Y003896D02*
X005974Y003896D01*
X005974Y003945D02*
X012649Y003945D01*
X012649Y003993D02*
X005973Y003993D01*
X005973Y004042D02*
X012649Y004042D01*
X012649Y004090D02*
X005973Y004090D01*
X005972Y004139D02*
X012649Y004139D01*
X012649Y004187D02*
X005972Y004187D01*
X005972Y004236D02*
X012649Y004236D01*
X012649Y004284D02*
X005972Y004284D01*
X005971Y004333D02*
X012649Y004333D01*
X012649Y004381D02*
X005971Y004381D01*
X005971Y004430D02*
X012649Y004430D01*
X012649Y004478D02*
X005970Y004478D01*
X005970Y004527D02*
X012649Y004527D01*
X012649Y004575D02*
X005970Y004575D01*
X005969Y004624D02*
X012649Y004624D01*
X012649Y004672D02*
X005969Y004672D01*
X005969Y004721D02*
X012649Y004721D01*
X012649Y004769D02*
X005968Y004769D01*
X005968Y004818D02*
X012649Y004818D01*
X012649Y004866D02*
X005968Y004866D01*
X005967Y004915D02*
X012649Y004915D01*
X012649Y004963D02*
X005967Y004963D01*
X005967Y005012D02*
X012649Y005012D01*
X012649Y005060D02*
X005967Y005060D01*
X005966Y005109D02*
X012649Y005109D01*
X012649Y005157D02*
X005966Y005157D01*
X005966Y005206D02*
X012649Y005206D01*
X012649Y005254D02*
X005965Y005254D01*
X005965Y005303D02*
X012649Y005303D01*
X012649Y005351D02*
X005965Y005351D01*
X005964Y005400D02*
X012649Y005400D01*
X012649Y005448D02*
X005964Y005448D01*
X005964Y005497D02*
X012649Y005497D01*
X012649Y005545D02*
X005963Y005545D01*
X005963Y005594D02*
X012649Y005594D01*
X012649Y005642D02*
X005963Y005642D01*
X005962Y005691D02*
X012649Y005691D01*
X012649Y005739D02*
X005962Y005739D01*
X005962Y005788D02*
X012649Y005788D01*
X012649Y005836D02*
X005962Y005836D01*
X005961Y005885D02*
X012649Y005885D01*
X012649Y005933D02*
X005961Y005933D01*
X005961Y005982D02*
X012649Y005982D01*
X012649Y006030D02*
X005960Y006030D01*
X005960Y006079D02*
X012649Y006079D01*
X012649Y006127D02*
X005960Y006127D01*
X005959Y006176D02*
X012649Y006176D01*
X012649Y006224D02*
X005959Y006224D01*
X005959Y006273D02*
X012649Y006273D01*
X012649Y006321D02*
X005958Y006321D01*
X005958Y006370D02*
X012649Y006370D01*
X012649Y006418D02*
X005958Y006418D01*
X005957Y006467D02*
X012649Y006467D01*
X012649Y006515D02*
X005957Y006515D01*
X005957Y006564D02*
X012649Y006564D01*
X012649Y006612D02*
X005957Y006612D01*
X005956Y006661D02*
X012649Y006661D01*
X012649Y006709D02*
X005956Y006709D01*
X005956Y006779D02*
X005956Y007094D01*
X006310Y007094D01*
X006349Y007094D01*
X006349Y006779D01*
X005956Y006779D01*
X005956Y006806D02*
X006349Y006806D01*
X006349Y006855D02*
X005956Y006855D01*
X005956Y006903D02*
X006349Y006903D01*
X006349Y006952D02*
X005956Y006952D01*
X005956Y007000D02*
X006349Y007000D01*
X006349Y007049D02*
X005956Y007049D01*
X004162Y006436D02*
X003099Y006436D01*
X001525Y006436D02*
X001525Y009507D01*
X005147Y009231D02*
X005147Y008798D01*
X003794Y004546D02*
X002062Y004546D01*
X002062Y003641D01*
X002219Y003641D01*
X002219Y001987D01*
X002062Y001987D01*
X002062Y002420D01*
X001038Y002420D01*
X001038Y003208D01*
X002062Y003208D01*
X002062Y003641D01*
X002062Y003208D02*
X002062Y002420D01*
X002062Y001987D02*
X002062Y001082D01*
X003794Y001082D01*
X003794Y002538D01*
X003558Y002538D01*
X003558Y003090D01*
X003794Y003090D01*
X003794Y002538D01*
X003794Y003090D02*
X003794Y004546D01*
X009828Y010987D02*
X010128Y010987D01*
X010288Y010987D02*
X010589Y010987D01*
X010749Y010987D02*
X010974Y010987D01*
X011049Y011062D01*
X011049Y011362D01*
X010974Y011437D01*
X010749Y011437D01*
X010749Y010987D01*
X010438Y011212D02*
X010288Y011212D01*
X010288Y011437D02*
X010288Y010987D01*
X010288Y011437D02*
X010589Y011437D01*
X009828Y011437D02*
X009828Y010987D01*
X012255Y007097D02*
X012649Y007097D01*
X012649Y007133D02*
X012649Y000633D01*
X012649Y000647D02*
X012334Y000647D01*
X012334Y000695D02*
X012649Y000695D01*
X012649Y000744D02*
X012334Y000744D01*
X012334Y000792D02*
X012649Y000792D01*
X012649Y000841D02*
X012334Y000841D01*
X012334Y000889D02*
X012649Y000889D01*
X012649Y000938D02*
X012334Y000938D01*
X012334Y000986D02*
X012649Y000986D01*
X016017Y002467D02*
X016367Y002467D01*
X016017Y002467D02*
X016017Y002767D01*
X016517Y002967D02*
X016517Y003117D01*
X016367Y003617D02*
X016017Y003617D01*
X016017Y003317D01*
X016605Y002133D02*
X016605Y000361D01*
X018968Y000361D01*
X018968Y002133D01*
X017983Y002133D01*
X017983Y002330D01*
X017590Y002330D01*
X017590Y002133D01*
X016605Y002133D01*
X018519Y002263D02*
X018519Y005019D01*
X020723Y005019D01*
X020723Y002263D01*
X021275Y002263D01*
X021275Y005019D01*
X020723Y005019D01*
X020723Y002263D02*
X018519Y002263D01*
X012649Y006758D02*
X012255Y006758D01*
X012255Y006806D02*
X012649Y006806D01*
X012649Y006855D02*
X012255Y006855D01*
X012255Y006903D02*
X012649Y006903D01*
X012649Y006952D02*
X012255Y006952D01*
X012255Y007000D02*
X012649Y007000D01*
X012649Y007049D02*
X012255Y007049D01*
D12*
X012245Y006547D02*
X012052Y006547D01*
X012003Y006498D01*
X012003Y006353D01*
X012294Y006353D01*
X012294Y006498D01*
X012245Y006547D01*
X012294Y006252D02*
X012003Y006252D01*
X012003Y006059D02*
X012294Y006252D01*
X012294Y006059D02*
X012003Y006059D01*
X012052Y005957D02*
X012003Y005909D01*
X012003Y005812D01*
X012052Y005764D01*
X012245Y005764D01*
X012294Y005812D01*
X012294Y005909D01*
X012245Y005957D01*
X012148Y005957D01*
X012148Y005861D01*
X011794Y005862D02*
X011794Y005959D01*
X011794Y005911D02*
X011503Y005911D01*
X011503Y005959D02*
X011503Y005862D01*
X011552Y005761D02*
X011648Y005761D01*
X011697Y005713D01*
X011697Y005568D01*
X011794Y005568D02*
X011503Y005568D01*
X011503Y005713D01*
X011552Y005761D01*
X011294Y005862D02*
X011294Y005959D01*
X011294Y005911D02*
X011003Y005911D01*
X011003Y005959D02*
X011003Y005862D01*
X011052Y005761D02*
X011148Y005761D01*
X011197Y005713D01*
X011197Y005568D01*
X011294Y005568D02*
X011003Y005568D01*
X011003Y005713D01*
X011052Y005761D01*
X010794Y005862D02*
X010794Y005959D01*
X010794Y005911D02*
X010503Y005911D01*
X010503Y005959D02*
X010503Y005862D01*
X010552Y005761D02*
X010648Y005761D01*
X010697Y005713D01*
X010697Y005568D01*
X010794Y005568D02*
X010503Y005568D01*
X010503Y005713D01*
X010552Y005761D01*
X010294Y005812D02*
X010294Y005909D01*
X010245Y005957D01*
X010197Y005957D01*
X010148Y005909D01*
X010148Y005861D01*
X010148Y005909D02*
X010100Y005957D01*
X010052Y005957D01*
X010003Y005909D01*
X010003Y005812D01*
X010052Y005764D01*
X010148Y005663D02*
X010148Y005469D01*
X010052Y005566D02*
X010245Y005566D01*
X010245Y005764D02*
X010294Y005812D01*
X010552Y005466D02*
X010503Y005418D01*
X010503Y005321D01*
X010552Y005273D01*
X010745Y005273D01*
X010794Y005321D01*
X010794Y005418D01*
X010745Y005466D01*
X010648Y005466D01*
X010648Y005370D01*
X011003Y005418D02*
X011003Y005321D01*
X011052Y005273D01*
X011245Y005273D01*
X011294Y005321D01*
X011294Y005418D01*
X011245Y005466D01*
X011148Y005466D01*
X011148Y005370D01*
X011052Y005466D02*
X011003Y005418D01*
X011503Y005418D02*
X011503Y005321D01*
X011552Y005273D01*
X011745Y005273D01*
X011794Y005321D01*
X011794Y005418D01*
X011745Y005466D01*
X011648Y005466D01*
X011648Y005370D01*
X011552Y005466D02*
X011503Y005418D01*
X011552Y006059D02*
X011745Y006059D01*
X011794Y006107D01*
X011794Y006204D01*
X011745Y006252D01*
X011552Y006252D01*
X011503Y006204D01*
X011503Y006107D01*
X011552Y006059D01*
X011294Y006107D02*
X011294Y006204D01*
X011245Y006252D01*
X011052Y006252D01*
X011003Y006204D01*
X011003Y006107D01*
X011052Y006059D01*
X011245Y006059D01*
X011294Y006107D01*
X011294Y006353D02*
X011294Y006547D01*
X011294Y006450D02*
X011003Y006450D01*
X011100Y006353D01*
X010794Y006353D02*
X010794Y006547D01*
X010794Y006353D02*
X010600Y006547D01*
X010552Y006547D01*
X010503Y006498D01*
X010503Y006402D01*
X010552Y006353D01*
X010552Y006252D02*
X010503Y006204D01*
X010503Y006107D01*
X010552Y006059D01*
X010745Y006059D01*
X010794Y006107D01*
X010794Y006204D01*
X010745Y006252D01*
X010552Y006252D01*
X010294Y006155D02*
X010197Y006252D01*
X010003Y006252D01*
X010052Y006353D02*
X010003Y006402D01*
X010003Y006498D01*
X010052Y006547D01*
X010100Y006547D01*
X010148Y006498D01*
X010197Y006547D01*
X010245Y006547D01*
X010294Y006498D01*
X010294Y006402D01*
X010245Y006353D01*
X010148Y006450D02*
X010148Y006498D01*
X009794Y006498D02*
X009794Y006353D01*
X009503Y006353D01*
X009503Y006498D01*
X009552Y006547D01*
X009745Y006547D01*
X009794Y006498D01*
X009745Y006252D02*
X009552Y006252D01*
X009503Y006204D01*
X009503Y006059D01*
X009794Y006059D01*
X009794Y006204D01*
X009745Y006252D01*
X010003Y006059D02*
X010197Y006059D01*
X010294Y006155D01*
X009794Y005861D02*
X009697Y005764D01*
X009503Y005764D01*
X009648Y005663D02*
X009648Y005469D01*
X009552Y005368D02*
X009503Y005320D01*
X009503Y005223D01*
X009552Y005175D01*
X009745Y005175D01*
X009794Y005223D01*
X009794Y005320D01*
X009745Y005368D01*
X009552Y005368D01*
X009552Y005074D02*
X009503Y005025D01*
X009503Y004880D01*
X009794Y004880D01*
X009794Y005025D01*
X009745Y005074D01*
X009552Y005074D01*
X009552Y004779D02*
X009503Y004731D01*
X009503Y004634D01*
X009552Y004585D01*
X009600Y004585D01*
X009648Y004634D01*
X009648Y004731D01*
X009697Y004779D01*
X009745Y004779D01*
X009794Y004731D01*
X009794Y004634D01*
X009745Y004585D01*
X008794Y005518D02*
X008745Y005469D01*
X008794Y005518D02*
X008794Y005614D01*
X008745Y005663D01*
X008697Y005663D01*
X008648Y005614D01*
X008648Y005518D01*
X008600Y005469D01*
X008552Y005469D01*
X008503Y005518D01*
X008503Y005614D01*
X008552Y005663D01*
X008552Y005764D02*
X008745Y005764D01*
X008794Y005812D01*
X008794Y005909D01*
X008745Y005957D01*
X008794Y006059D02*
X008503Y006059D01*
X008552Y005957D02*
X008503Y005909D01*
X008503Y005812D01*
X008552Y005764D01*
X008294Y005812D02*
X008294Y005909D01*
X008245Y005957D01*
X008197Y005957D01*
X008148Y005909D01*
X008148Y005812D01*
X008100Y005764D01*
X008052Y005764D01*
X008003Y005812D01*
X008003Y005909D01*
X008052Y005957D01*
X008003Y006059D02*
X008294Y006059D01*
X008294Y006252D01*
X008294Y006353D02*
X008294Y006547D01*
X008294Y006353D02*
X008003Y006353D01*
X008003Y006252D02*
X008003Y006059D01*
X008148Y006059D02*
X008148Y006155D01*
X008503Y006353D02*
X008794Y006353D01*
X008697Y006353D02*
X008503Y006547D01*
X008648Y006402D02*
X008794Y006547D01*
X009003Y006548D02*
X009003Y006452D01*
X009003Y006500D02*
X009294Y006500D01*
X009294Y006452D02*
X009294Y006548D01*
X009245Y006350D02*
X009052Y006350D01*
X009003Y006302D01*
X009003Y006157D01*
X009294Y006157D01*
X009294Y006302D01*
X009245Y006350D01*
X009245Y006056D02*
X009197Y006056D01*
X009148Y006007D01*
X009148Y005911D01*
X009100Y005862D01*
X009052Y005862D01*
X009003Y005911D01*
X009003Y006007D01*
X009052Y006056D01*
X009245Y006056D02*
X009294Y006007D01*
X009294Y005911D01*
X009245Y005862D01*
X009503Y005957D02*
X009697Y005957D01*
X009794Y005861D01*
X008794Y006059D02*
X008794Y006252D01*
X008294Y005812D02*
X008245Y005764D01*
X008294Y005663D02*
X008003Y005663D01*
X008003Y005469D02*
X008294Y005663D01*
X008294Y005469D02*
X008003Y005469D01*
X007794Y005568D02*
X007503Y005568D01*
X007794Y005761D01*
X007503Y005761D01*
X007503Y005862D02*
X007503Y005959D01*
X007503Y005911D02*
X007794Y005911D01*
X007794Y005959D02*
X007794Y005862D01*
X007794Y006059D02*
X007503Y006059D01*
X007503Y006204D01*
X007552Y006252D01*
X007648Y006252D01*
X007697Y006204D01*
X007697Y006059D01*
X007697Y006155D02*
X007794Y006252D01*
X007745Y006353D02*
X007794Y006402D01*
X007794Y006498D01*
X007745Y006547D01*
X007552Y006547D01*
X007503Y006498D01*
X007503Y006402D01*
X007552Y006353D01*
X007745Y006353D01*
X007697Y006450D02*
X007794Y006547D01*
X007294Y006547D02*
X007003Y006547D01*
X007003Y006353D02*
X007294Y006547D01*
X007294Y006353D02*
X007003Y006353D01*
X007052Y006252D02*
X007003Y006204D01*
X007003Y006059D01*
X007294Y006059D01*
X007294Y006204D01*
X007245Y006252D01*
X007052Y006252D01*
X006794Y006252D02*
X006503Y006252D01*
X006503Y006353D02*
X006503Y006498D01*
X006552Y006547D01*
X006745Y006547D01*
X006794Y006498D01*
X006794Y006353D01*
X006503Y006353D01*
X006503Y006059D02*
X006794Y006252D01*
X006794Y006059D02*
X006503Y006059D01*
X006552Y005957D02*
X006503Y005909D01*
X006503Y005812D01*
X006552Y005764D01*
X006745Y005764D01*
X006794Y005812D01*
X006794Y005909D01*
X006745Y005957D01*
X006648Y005957D01*
X006648Y005861D01*
X007003Y005909D02*
X007003Y005812D01*
X007052Y005764D01*
X007100Y005764D01*
X007148Y005812D01*
X007148Y005909D01*
X007197Y005957D01*
X007245Y005957D01*
X007294Y005909D01*
X007294Y005812D01*
X007245Y005764D01*
X007052Y005957D02*
X007003Y005909D01*
X008338Y008914D02*
X008241Y009010D01*
X008531Y009010D01*
X008531Y008914D02*
X008531Y009107D01*
X008483Y009208D02*
X008289Y009402D01*
X008483Y009402D01*
X008531Y009353D01*
X008531Y009257D01*
X008483Y009208D01*
X008289Y009208D01*
X008241Y009257D01*
X008241Y009353D01*
X008289Y009402D01*
X008241Y009503D02*
X008531Y009503D01*
X008435Y009503D02*
X008338Y009648D01*
X008435Y009503D02*
X008531Y009648D01*
X010024Y009479D02*
X010315Y009479D01*
X010218Y009479D02*
X010121Y009625D01*
X010218Y009479D02*
X010315Y009625D01*
X010266Y009378D02*
X010315Y009330D01*
X010315Y009233D01*
X010266Y009185D01*
X010073Y009378D01*
X010266Y009378D01*
X010073Y009378D02*
X010024Y009330D01*
X010024Y009233D01*
X010073Y009185D01*
X010266Y009185D01*
X010315Y009084D02*
X010315Y008890D01*
X010315Y008987D02*
X010024Y008987D01*
X010121Y008890D01*
X011517Y008928D02*
X011807Y008928D01*
X011807Y008831D02*
X011807Y009025D01*
X011758Y009126D02*
X011807Y009174D01*
X011807Y009271D01*
X011758Y009319D01*
X011565Y009319D01*
X011758Y009126D01*
X011565Y009126D01*
X011517Y009174D01*
X011517Y009271D01*
X011565Y009319D01*
X011517Y009420D02*
X011807Y009420D01*
X011710Y009420D02*
X011613Y009565D01*
X011710Y009420D02*
X011807Y009565D01*
X012111Y009684D02*
X012402Y009684D01*
X012402Y009780D02*
X012402Y009587D01*
X012208Y009587D02*
X012111Y009684D01*
X012160Y009882D02*
X012111Y009930D01*
X012111Y010027D01*
X012160Y010075D01*
X012208Y010075D01*
X012402Y009882D01*
X012402Y010075D01*
X012402Y010176D02*
X012111Y010176D01*
X012208Y010273D01*
X012111Y010370D01*
X012402Y010370D01*
X012402Y010471D02*
X012111Y010471D01*
X012208Y010519D02*
X012208Y010616D01*
X012257Y010664D01*
X012402Y010664D01*
X012402Y010766D02*
X012402Y010959D01*
X012402Y010766D02*
X012208Y010959D01*
X012208Y010766D01*
X012208Y010519D02*
X012257Y010471D01*
X011517Y008928D02*
X011613Y008831D01*
X011552Y006547D02*
X011745Y006353D01*
X011794Y006402D01*
X011794Y006498D01*
X011745Y006547D01*
X011552Y006547D01*
X011503Y006498D01*
X011503Y006402D01*
X011552Y006353D01*
X011745Y006353D01*
X013307Y004747D02*
X013404Y004844D01*
X013404Y004553D01*
X013307Y004553D02*
X013501Y004553D01*
X013602Y004602D02*
X013795Y004795D01*
X013795Y004602D01*
X013747Y004553D01*
X013650Y004553D01*
X013602Y004602D01*
X013602Y004795D01*
X013650Y004844D01*
X013747Y004844D01*
X013795Y004795D01*
X013897Y004844D02*
X013897Y004553D01*
X013897Y004650D02*
X014042Y004747D01*
X013897Y004650D02*
X014042Y004553D01*
X015146Y004927D02*
X015339Y004927D01*
X015243Y004927D02*
X015243Y005218D01*
X015146Y005121D01*
X015441Y005169D02*
X015441Y004976D01*
X015634Y005169D01*
X015634Y004976D01*
X015586Y004927D01*
X015489Y004927D01*
X015441Y004976D01*
X015441Y005169D02*
X015489Y005218D01*
X015586Y005218D01*
X015634Y005169D01*
X015735Y005218D02*
X015735Y004927D01*
X015735Y005024D02*
X015880Y005121D01*
X015735Y005024D02*
X015880Y004927D01*
X016307Y004947D02*
X016501Y004947D01*
X016404Y004947D02*
X016404Y005237D01*
X016307Y005141D01*
X016602Y005189D02*
X016602Y004996D01*
X016795Y005189D01*
X016795Y004996D01*
X016747Y004947D01*
X016650Y004947D01*
X016602Y004996D01*
X016602Y005189D02*
X016650Y005237D01*
X016747Y005237D01*
X016795Y005189D01*
X016897Y005237D02*
X016897Y004947D01*
X016897Y005044D02*
X017042Y005141D01*
X016897Y005044D02*
X017042Y004947D01*
X017299Y004987D02*
X017493Y004987D01*
X017396Y004987D02*
X017396Y005277D01*
X017299Y005180D01*
X017594Y005228D02*
X017594Y005035D01*
X017788Y005228D01*
X017788Y005035D01*
X017739Y004987D01*
X017642Y004987D01*
X017594Y005035D01*
X017594Y005228D02*
X017642Y005277D01*
X017739Y005277D01*
X017788Y005228D01*
X017889Y005277D02*
X017889Y004987D01*
X017889Y005083D02*
X018034Y005180D01*
X017889Y005083D02*
X018034Y004987D01*
X018583Y004951D02*
X018776Y004951D01*
X018680Y004951D02*
X018680Y005241D01*
X018583Y005145D01*
X018878Y005193D02*
X018878Y004999D01*
X019071Y005193D01*
X019071Y004999D01*
X019023Y004951D01*
X018926Y004951D01*
X018878Y004999D01*
X018878Y005193D02*
X018926Y005241D01*
X019023Y005241D01*
X019071Y005193D01*
X019172Y005241D02*
X019172Y004951D01*
X019172Y005048D02*
X019317Y005145D01*
X019172Y005048D02*
X019317Y004951D01*
X019607Y004967D02*
X019800Y004967D01*
X019703Y004967D02*
X019703Y005257D01*
X019607Y005160D01*
X019901Y005209D02*
X019950Y005257D01*
X020046Y005257D01*
X020095Y005209D01*
X019901Y005015D01*
X019950Y004967D01*
X020046Y004967D01*
X020095Y005015D01*
X020095Y005209D01*
X020196Y005257D02*
X020196Y004967D01*
X020196Y005064D02*
X020341Y004967D01*
X020196Y005064D02*
X020341Y005160D01*
X019901Y005209D02*
X019901Y005015D01*
X017273Y003680D02*
X017273Y003486D01*
X017273Y003583D02*
X016983Y003583D01*
X017080Y003486D01*
X016983Y003385D02*
X017177Y003191D01*
X017128Y003240D02*
X017273Y003385D01*
X017273Y003191D02*
X016983Y003191D01*
X017032Y003090D02*
X016983Y003042D01*
X016983Y002945D01*
X017032Y002897D01*
X016983Y002796D02*
X017032Y002699D01*
X017128Y002602D01*
X017128Y002747D01*
X017177Y002796D01*
X017225Y002796D01*
X017273Y002747D01*
X017273Y002650D01*
X017225Y002602D01*
X017128Y002602D01*
X017177Y002501D02*
X017128Y002453D01*
X017128Y002307D01*
X017225Y002307D01*
X017273Y002356D01*
X017273Y002453D01*
X017225Y002501D01*
X017177Y002501D01*
X017032Y002404D02*
X017128Y002307D01*
X017032Y002404D02*
X016983Y002501D01*
X017273Y002897D02*
X017080Y003090D01*
X017032Y003090D01*
X017273Y003090D02*
X017273Y002897D01*
X016075Y004174D02*
X016075Y004416D01*
X016123Y004465D01*
X016123Y004320D02*
X016026Y004320D01*
X015925Y004368D02*
X015925Y004174D01*
X015780Y004174D01*
X015732Y004223D01*
X015732Y004368D01*
X015630Y004174D02*
X015437Y004174D01*
X015534Y004174D02*
X015534Y004465D01*
X015437Y004368D01*
X014977Y003467D02*
X014880Y003322D01*
X014784Y003467D01*
X014687Y003322D02*
X014977Y003322D01*
X014929Y003221D02*
X014977Y003172D01*
X014977Y003075D01*
X014929Y003027D01*
X014735Y003221D01*
X014929Y003221D01*
X014735Y003221D02*
X014687Y003172D01*
X014687Y003075D01*
X014735Y003027D01*
X014929Y003027D01*
X014977Y002926D02*
X014977Y002732D01*
X014977Y002829D02*
X014687Y002829D01*
X014784Y002732D01*
X014540Y001863D02*
X014540Y001573D01*
X014443Y001573D02*
X014637Y001573D01*
X014738Y001622D02*
X014786Y001573D01*
X014931Y001573D01*
X014931Y001767D01*
X015032Y001718D02*
X015129Y001718D01*
X015081Y001815D02*
X015081Y001573D01*
X015081Y001815D02*
X015129Y001863D01*
X014738Y001767D02*
X014738Y001622D01*
X014540Y001863D02*
X014443Y001767D01*
X012294Y001834D02*
X012003Y001834D01*
X012003Y001737D02*
X012003Y001931D01*
X011794Y001882D02*
X011794Y001737D01*
X011503Y001737D01*
X011503Y001882D01*
X011552Y001931D01*
X011745Y001931D01*
X011794Y001882D01*
X011794Y001636D02*
X011503Y001636D01*
X011503Y001443D02*
X011794Y001636D01*
X011794Y001443D02*
X011503Y001443D01*
X011552Y001341D02*
X011503Y001293D01*
X011503Y001196D01*
X011552Y001148D01*
X011745Y001148D01*
X011794Y001196D01*
X011794Y001293D01*
X011745Y001341D01*
X011648Y001341D01*
X011648Y001245D01*
X012003Y001245D02*
X012100Y001148D01*
X012294Y001148D01*
X012148Y001148D02*
X012148Y001341D01*
X012100Y001341D02*
X012294Y001341D01*
X012294Y001443D02*
X012003Y001443D01*
X012294Y001636D01*
X012003Y001636D01*
X012100Y001341D02*
X012003Y001245D01*
X002649Y002031D02*
X002601Y001983D01*
X002649Y002031D02*
X002649Y002128D01*
X002601Y002176D01*
X002553Y002176D01*
X002504Y002128D01*
X002504Y002031D01*
X002456Y001983D01*
X002407Y001983D01*
X002359Y002031D01*
X002359Y002128D01*
X002407Y002176D01*
X002359Y002277D02*
X002649Y002277D01*
X002553Y002374D01*
X002649Y002471D01*
X002359Y002471D01*
X002359Y002572D02*
X002359Y002669D01*
X002359Y002620D02*
X002649Y002620D01*
X002649Y002572D02*
X002649Y002669D01*
X002649Y002865D02*
X002359Y002865D01*
X002359Y002768D02*
X002359Y002962D01*
X002407Y003063D02*
X002601Y003063D01*
X002649Y003111D01*
X002649Y003208D01*
X002601Y003256D01*
X002649Y003358D02*
X002359Y003358D01*
X002407Y003256D02*
X002359Y003208D01*
X002359Y003111D01*
X002407Y003063D01*
X002504Y003358D02*
X002504Y003551D01*
X002359Y003551D02*
X002649Y003551D01*
X007362Y011476D02*
X007265Y011573D01*
X007362Y011670D01*
X007555Y011670D01*
X007410Y011670D02*
X007410Y011476D01*
X007362Y011476D02*
X007555Y011476D01*
X007555Y011868D02*
X007265Y011868D01*
X007265Y011771D02*
X007265Y011965D01*
X007265Y012066D02*
X007362Y012163D01*
X007265Y012259D01*
X007555Y012259D01*
X007555Y012360D02*
X007555Y012554D01*
X007507Y012655D02*
X007313Y012655D01*
X007265Y012703D01*
X007265Y012800D01*
X007313Y012849D01*
X007410Y012849D02*
X007410Y012752D01*
X007410Y012849D02*
X007507Y012849D01*
X007555Y012800D01*
X007555Y012703D01*
X007507Y012655D01*
X007410Y012457D02*
X007410Y012360D01*
X007265Y012360D02*
X007265Y012554D01*
X007265Y012360D02*
X007555Y012360D01*
X007555Y012066D02*
X007265Y012066D01*
X007362Y012950D02*
X007265Y013046D01*
X007362Y013143D01*
X007555Y013143D01*
X007507Y013244D02*
X007555Y013293D01*
X007555Y013390D01*
X007507Y013438D01*
X007458Y013438D01*
X007410Y013390D01*
X007410Y013341D01*
X007410Y013390D02*
X007362Y013438D01*
X007313Y013438D01*
X007265Y013390D01*
X007265Y013293D01*
X007313Y013244D01*
X007410Y013143D02*
X007410Y012950D01*
X007362Y012950D02*
X007555Y012950D01*
X007555Y013539D02*
X007362Y013733D01*
X007313Y013733D01*
X007265Y013684D01*
X007265Y013587D01*
X007313Y013539D01*
X007555Y013539D02*
X007555Y013733D01*
X007507Y013834D02*
X007458Y013834D01*
X007410Y013882D01*
X007410Y013979D01*
X007458Y014027D01*
X007507Y014027D01*
X007555Y013979D01*
X007555Y013882D01*
X007507Y013834D01*
X007410Y013882D02*
X007362Y013834D01*
X007313Y013834D01*
X007265Y013882D01*
X007265Y013979D01*
X007313Y014027D01*
X007362Y014027D01*
X007410Y013979D01*
X007458Y014128D02*
X007458Y014273D01*
X007410Y014322D01*
X007313Y014322D01*
X007265Y014273D01*
X007265Y014128D01*
X007555Y014128D01*
X008242Y016376D02*
X008436Y016570D01*
X008436Y016618D01*
X008387Y016667D01*
X008291Y016667D01*
X008242Y016618D01*
X008242Y016376D02*
X008436Y016376D01*
X008537Y016376D02*
X008731Y016570D01*
X008731Y016618D01*
X008682Y016667D01*
X008585Y016667D01*
X008537Y016618D01*
X008537Y016376D02*
X008731Y016376D01*
X008832Y016376D02*
X008977Y016376D01*
X009025Y016425D01*
X009025Y016521D01*
X008977Y016570D01*
X008832Y016570D01*
X008832Y016280D01*
X009175Y016376D02*
X009175Y016618D01*
X009223Y016667D01*
X009223Y016521D02*
X009126Y016521D01*
X006727Y016569D02*
X006630Y016569D01*
X006529Y016569D02*
X006529Y016472D01*
X006481Y016424D01*
X006336Y016424D01*
X006336Y016327D02*
X006336Y016617D01*
X006481Y016617D01*
X006529Y016569D01*
X006679Y016665D02*
X006679Y016424D01*
X006679Y016665D02*
X006727Y016714D01*
X006234Y016665D02*
X006234Y016617D01*
X006041Y016424D01*
X006234Y016424D01*
X006234Y016665D02*
X006186Y016714D01*
X006089Y016714D01*
X006041Y016665D01*
X005940Y016665D02*
X005940Y016617D01*
X005746Y016424D01*
X005940Y016424D01*
X005940Y016665D02*
X005891Y016714D01*
X005795Y016714D01*
X005746Y016665D01*
X015197Y013598D02*
X015245Y013647D01*
X015342Y013647D01*
X015391Y013598D01*
X015391Y013550D01*
X015197Y013357D01*
X015391Y013357D01*
X015492Y013357D02*
X015685Y013550D01*
X015685Y013598D01*
X015637Y013647D01*
X015540Y013647D01*
X015492Y013598D01*
X015492Y013357D02*
X015685Y013357D01*
X015786Y013405D02*
X015980Y013598D01*
X015980Y013405D01*
X015932Y013357D01*
X015835Y013357D01*
X015786Y013405D01*
X015786Y013598D01*
X015835Y013647D01*
X015932Y013647D01*
X015980Y013598D01*
X016244Y013598D02*
X016293Y013647D01*
X016389Y013647D01*
X016438Y013598D01*
X016438Y013550D01*
X016244Y013357D01*
X016438Y013357D01*
X016539Y013357D02*
X016732Y013550D01*
X016732Y013598D01*
X016684Y013647D01*
X016587Y013647D01*
X016539Y013598D01*
X016539Y013357D02*
X016732Y013357D01*
X016834Y013405D02*
X017027Y013598D01*
X017027Y013405D01*
X016979Y013357D01*
X016882Y013357D01*
X016834Y013405D01*
X016834Y013598D01*
X016882Y013647D01*
X016979Y013647D01*
X017027Y013598D01*
X017240Y013558D02*
X017337Y013655D01*
X017337Y013364D01*
X017240Y013364D02*
X017434Y013364D01*
X017535Y013364D02*
X017535Y013655D01*
X017680Y013558D02*
X017535Y013461D01*
X017680Y013364D01*
X018276Y013361D02*
X018469Y013361D01*
X018373Y013361D02*
X018373Y013651D01*
X018276Y013554D01*
X018570Y013457D02*
X018716Y013554D01*
X018570Y013457D02*
X018716Y013361D01*
X018570Y013361D02*
X018570Y013651D01*
X019039Y013561D02*
X019136Y013658D01*
X019136Y013367D01*
X019232Y013367D02*
X019039Y013367D01*
X019333Y013367D02*
X019333Y013658D01*
X019479Y013561D02*
X019333Y013464D01*
X019479Y013367D01*
X020181Y013364D02*
X020375Y013364D01*
X020278Y013364D02*
X020278Y013655D01*
X020181Y013558D01*
X020476Y013655D02*
X020476Y013364D01*
X020476Y013461D02*
X020621Y013558D01*
X020476Y013461D02*
X020621Y013364D01*
X019038Y015248D02*
X018852Y015248D01*
X018791Y015310D01*
X018791Y015434D01*
X018852Y015495D01*
X019038Y015495D01*
X019038Y015619D02*
X019038Y015248D01*
X018669Y015495D02*
X018607Y015495D01*
X018484Y015372D01*
X018362Y015372D02*
X018177Y015372D01*
X018115Y015310D01*
X018177Y015248D01*
X018362Y015248D01*
X018362Y015434D01*
X018301Y015495D01*
X018177Y015495D01*
X017994Y015434D02*
X017932Y015495D01*
X017809Y015495D01*
X017747Y015434D01*
X017747Y015310D01*
X017809Y015248D01*
X017932Y015248D01*
X017994Y015310D01*
X017994Y015434D01*
X017626Y015495D02*
X017564Y015434D01*
X017379Y015434D01*
X017257Y015495D02*
X017257Y015187D01*
X017196Y015125D01*
X017134Y015125D01*
X017072Y015248D02*
X017257Y015248D01*
X017379Y015248D02*
X017379Y015619D01*
X017564Y015619D01*
X017626Y015557D01*
X017626Y015495D01*
X017564Y015434D02*
X017626Y015372D01*
X017626Y015310D01*
X017564Y015248D01*
X017379Y015248D01*
X017072Y015248D02*
X017010Y015310D01*
X017010Y015495D01*
X016889Y015434D02*
X016889Y015372D01*
X016642Y015372D01*
X016642Y015434D02*
X016704Y015495D01*
X016827Y015495D01*
X016889Y015434D01*
X016827Y015248D02*
X016704Y015248D01*
X016642Y015310D01*
X016642Y015434D01*
X016521Y015619D02*
X016274Y015372D01*
X016336Y015434D02*
X016521Y015248D01*
X016274Y015248D02*
X016274Y015619D01*
X018484Y015495D02*
X018484Y015248D01*
D13*
X013009Y012379D02*
X013019Y012364D01*
X013018Y012364D02*
X012974Y012332D01*
X012932Y012297D01*
X012893Y012258D01*
X012856Y012217D01*
X012823Y012174D01*
X012792Y012129D01*
X012765Y012081D01*
X012741Y012032D01*
X012720Y011981D01*
X012704Y011929D01*
X012690Y011875D01*
X012681Y011821D01*
X012675Y011767D01*
X012673Y011712D01*
X012656Y011711D01*
X012655Y011712D01*
X012657Y011768D01*
X012663Y011824D01*
X012673Y011879D01*
X012686Y011934D01*
X012703Y011987D01*
X012724Y012039D01*
X012749Y012089D01*
X012777Y012138D01*
X012808Y012185D01*
X012843Y012229D01*
X012880Y012271D01*
X012920Y012310D01*
X012963Y012346D01*
X013008Y012379D01*
X013009Y012378D01*
X012964Y012345D01*
X012921Y012309D01*
X012881Y012270D01*
X012843Y012228D01*
X012809Y012184D01*
X012778Y012137D01*
X012750Y012089D01*
X012725Y012038D01*
X012704Y011987D01*
X012687Y011933D01*
X012674Y011879D01*
X012664Y011824D01*
X012658Y011768D01*
X012656Y011712D01*
X012657Y011712D01*
X012659Y011768D01*
X012665Y011824D01*
X012675Y011879D01*
X012688Y011933D01*
X012705Y011986D01*
X012726Y012038D01*
X012751Y012088D01*
X012779Y012137D01*
X012810Y012183D01*
X012844Y012228D01*
X012881Y012269D01*
X012921Y012308D01*
X012964Y012345D01*
X013009Y012378D01*
X013010Y012377D01*
X012965Y012344D01*
X012922Y012308D01*
X012882Y012269D01*
X012845Y012227D01*
X012811Y012183D01*
X012779Y012136D01*
X012752Y012088D01*
X012727Y012038D01*
X012706Y011986D01*
X012689Y011933D01*
X012676Y011878D01*
X012666Y011823D01*
X012660Y011768D01*
X012658Y011712D01*
X012659Y011712D01*
X012661Y011768D01*
X012667Y011823D01*
X012677Y011878D01*
X012690Y011932D01*
X012707Y011986D01*
X012728Y012037D01*
X012752Y012087D01*
X012780Y012136D01*
X012811Y012182D01*
X012846Y012226D01*
X012883Y012268D01*
X012923Y012307D01*
X012965Y012343D01*
X013010Y012376D01*
X013011Y012375D01*
X012966Y012342D01*
X012923Y012306D01*
X012884Y012267D01*
X012846Y012226D01*
X012812Y012182D01*
X012781Y012135D01*
X012753Y012087D01*
X012729Y012037D01*
X012708Y011985D01*
X012691Y011932D01*
X012678Y011878D01*
X012668Y011823D01*
X012662Y011768D01*
X012660Y011712D01*
X012661Y011712D01*
X012663Y011768D01*
X012669Y011823D01*
X012679Y011878D01*
X012692Y011932D01*
X012709Y011985D01*
X012730Y012036D01*
X012754Y012087D01*
X012782Y012135D01*
X012813Y012181D01*
X012847Y012225D01*
X012884Y012267D01*
X012924Y012305D01*
X012967Y012341D01*
X013011Y012374D01*
X013012Y012374D01*
X012967Y012341D01*
X012925Y012305D01*
X012885Y012266D01*
X012848Y012224D01*
X012814Y012180D01*
X012783Y012134D01*
X012755Y012086D01*
X012731Y012036D01*
X012710Y011984D01*
X012693Y011932D01*
X012679Y011878D01*
X012670Y011823D01*
X012664Y011768D01*
X012662Y011712D01*
X012663Y011712D01*
X012665Y011767D01*
X012671Y011823D01*
X012680Y011877D01*
X012694Y011931D01*
X012711Y011984D01*
X012732Y012036D01*
X012756Y012086D01*
X012784Y012134D01*
X012815Y012180D01*
X012849Y012224D01*
X012886Y012265D01*
X012925Y012304D01*
X012968Y012340D01*
X013013Y012373D01*
X013013Y012372D01*
X012968Y012339D01*
X012926Y012303D01*
X012886Y012265D01*
X012849Y012223D01*
X012815Y012179D01*
X012785Y012133D01*
X012757Y012085D01*
X012733Y012035D01*
X012712Y011984D01*
X012695Y011931D01*
X012681Y011877D01*
X012672Y011823D01*
X012666Y011767D01*
X012664Y011712D01*
X012665Y011712D01*
X012667Y011767D01*
X012673Y011822D01*
X012682Y011877D01*
X012696Y011931D01*
X012713Y011983D01*
X012734Y012035D01*
X012758Y012085D01*
X012785Y012133D01*
X012816Y012179D01*
X012850Y012223D01*
X012887Y012264D01*
X012927Y012302D01*
X012969Y012338D01*
X013014Y012371D01*
X013014Y012370D01*
X012970Y012337D01*
X012927Y012302D01*
X012888Y012263D01*
X012851Y012222D01*
X012817Y012178D01*
X012786Y012132D01*
X012759Y012084D01*
X012734Y012034D01*
X012714Y011983D01*
X012697Y011930D01*
X012683Y011877D01*
X012674Y011822D01*
X012668Y011767D01*
X012666Y011712D01*
X012667Y011712D01*
X012669Y011767D01*
X012675Y011822D01*
X012684Y011877D01*
X012698Y011930D01*
X012715Y011983D01*
X012735Y012034D01*
X012760Y012084D01*
X012787Y012132D01*
X012818Y012178D01*
X012852Y012221D01*
X012889Y012262D01*
X012928Y012301D01*
X012970Y012337D01*
X013015Y012369D01*
X012971Y012336D01*
X012929Y012300D01*
X012889Y012262D01*
X012852Y012221D01*
X012819Y012177D01*
X012788Y012131D01*
X012760Y012083D01*
X012736Y012034D01*
X012716Y011982D01*
X012699Y011930D01*
X012685Y011876D01*
X012676Y011822D01*
X012670Y011767D01*
X012668Y011712D01*
X012669Y011712D01*
X012671Y011767D01*
X012677Y011822D01*
X012686Y011876D01*
X012700Y011930D01*
X012717Y011982D01*
X012737Y012033D01*
X012761Y012083D01*
X012789Y012131D01*
X012819Y012176D01*
X012853Y012220D01*
X012890Y012261D01*
X012929Y012299D01*
X012972Y012335D01*
X013016Y012368D01*
X013017Y012367D01*
X012972Y012334D01*
X012930Y012299D01*
X012891Y012260D01*
X012854Y012219D01*
X012820Y012176D01*
X012790Y012130D01*
X012762Y012082D01*
X012738Y012033D01*
X012718Y011982D01*
X012701Y011929D01*
X012687Y011876D01*
X012678Y011822D01*
X012672Y011767D01*
X012670Y011712D01*
X012671Y011712D01*
X012673Y011767D01*
X012679Y011822D01*
X012688Y011876D01*
X012702Y011929D01*
X012719Y011981D01*
X012739Y012032D01*
X012763Y012082D01*
X012790Y012130D01*
X012821Y012175D01*
X012855Y012219D01*
X012891Y012260D01*
X012931Y012298D01*
X012973Y012334D01*
X013017Y012366D01*
X013018Y012365D01*
X012973Y012333D01*
X012932Y012297D01*
X012892Y012259D01*
X012856Y012218D01*
X012822Y012175D01*
X012791Y012129D01*
X012764Y012081D01*
X012740Y012032D01*
X012719Y011981D01*
X012703Y011929D01*
X012689Y011876D01*
X012680Y011821D01*
X012674Y011767D01*
X012672Y011712D01*
X014272Y011712D02*
X014254Y011712D01*
X014255Y011712D02*
X014253Y011767D01*
X014247Y011821D01*
X014238Y011875D01*
X014224Y011929D01*
X014208Y011981D01*
X014187Y012032D01*
X014163Y012081D01*
X014136Y012129D01*
X014105Y012174D01*
X014072Y012217D01*
X014035Y012258D01*
X013996Y012297D01*
X013954Y012332D01*
X013910Y012364D01*
X013919Y012379D01*
X013920Y012379D01*
X013965Y012346D01*
X014008Y012310D01*
X014048Y012271D01*
X014085Y012229D01*
X014120Y012185D01*
X014151Y012138D01*
X014179Y012089D01*
X014204Y012039D01*
X014224Y011987D01*
X014242Y011934D01*
X014255Y011879D01*
X014265Y011824D01*
X014271Y011768D01*
X014273Y011712D01*
X014272Y011712D01*
X014270Y011768D01*
X014264Y011824D01*
X014254Y011879D01*
X014241Y011933D01*
X014224Y011987D01*
X014203Y012039D01*
X014178Y012089D01*
X014150Y012138D01*
X014119Y012184D01*
X014085Y012228D01*
X014047Y012270D01*
X014007Y012309D01*
X013964Y012345D01*
X013919Y012379D01*
X013919Y012378D01*
X013964Y012345D01*
X014007Y012308D01*
X014047Y012269D01*
X014084Y012228D01*
X014118Y012183D01*
X014149Y012137D01*
X014177Y012088D01*
X014202Y012038D01*
X014223Y011986D01*
X014240Y011933D01*
X014253Y011879D01*
X014263Y011824D01*
X014269Y011768D01*
X014271Y011712D01*
X014270Y011712D01*
X014268Y011768D01*
X014262Y011823D01*
X014252Y011879D01*
X014239Y011933D01*
X014222Y011986D01*
X014201Y012038D01*
X014176Y012088D01*
X014149Y012136D01*
X014117Y012183D01*
X014083Y012227D01*
X014046Y012269D01*
X014006Y012308D01*
X013963Y012344D01*
X013918Y012377D01*
X013918Y012376D01*
X013963Y012343D01*
X014005Y012307D01*
X014045Y012268D01*
X014082Y012226D01*
X014117Y012182D01*
X014148Y012136D01*
X014176Y012088D01*
X014200Y012037D01*
X014221Y011986D01*
X014238Y011932D01*
X014251Y011878D01*
X014261Y011823D01*
X014267Y011768D01*
X014269Y011712D01*
X014268Y011712D01*
X014266Y011768D01*
X014260Y011823D01*
X014250Y011878D01*
X014237Y011932D01*
X014220Y011985D01*
X014199Y012037D01*
X014175Y012087D01*
X014147Y012135D01*
X014116Y012182D01*
X014082Y012226D01*
X014044Y012267D01*
X014005Y012306D01*
X013962Y012342D01*
X013917Y012375D01*
X013916Y012374D01*
X013961Y012341D01*
X014004Y012305D01*
X014044Y012267D01*
X014081Y012225D01*
X014115Y012181D01*
X014146Y012135D01*
X014174Y012087D01*
X014198Y012037D01*
X014219Y011985D01*
X014236Y011932D01*
X014249Y011878D01*
X014259Y011823D01*
X014265Y011768D01*
X014267Y011712D01*
X014266Y011712D01*
X014264Y011768D01*
X014258Y011823D01*
X014248Y011878D01*
X014235Y011932D01*
X014218Y011985D01*
X014197Y012036D01*
X014173Y012086D01*
X014145Y012134D01*
X014114Y012181D01*
X014080Y012224D01*
X014043Y012266D01*
X014003Y012305D01*
X013961Y012341D01*
X013916Y012374D01*
X013915Y012373D01*
X013960Y012340D01*
X014003Y012304D01*
X014042Y012265D01*
X014079Y012224D01*
X014113Y012180D01*
X014144Y012134D01*
X014172Y012086D01*
X014196Y012036D01*
X014217Y011984D01*
X014234Y011931D01*
X014248Y011877D01*
X014257Y011823D01*
X014263Y011768D01*
X014265Y011712D01*
X014264Y011712D01*
X014262Y011767D01*
X014256Y011823D01*
X014247Y011877D01*
X014233Y011931D01*
X014216Y011984D01*
X014195Y012035D01*
X014171Y012085D01*
X014143Y012133D01*
X014113Y012179D01*
X014079Y012223D01*
X014042Y012265D01*
X014002Y012303D01*
X013959Y012339D01*
X013915Y012372D01*
X013914Y012371D01*
X013959Y012338D01*
X014001Y012302D01*
X014041Y012264D01*
X014078Y012223D01*
X014112Y012179D01*
X014143Y012133D01*
X014170Y012085D01*
X014194Y012035D01*
X014215Y011984D01*
X014232Y011931D01*
X014246Y011877D01*
X014255Y011823D01*
X014261Y011767D01*
X014263Y011712D01*
X014262Y011712D01*
X014260Y011767D01*
X014254Y011822D01*
X014245Y011877D01*
X014231Y011931D01*
X014214Y011983D01*
X014193Y012035D01*
X014169Y012084D01*
X014142Y012132D01*
X014111Y012178D01*
X014077Y012222D01*
X014040Y012263D01*
X014000Y012302D01*
X013958Y012338D01*
X013914Y012370D01*
X013913Y012369D01*
X013958Y012337D01*
X014000Y012301D01*
X014039Y012262D01*
X014076Y012221D01*
X014110Y012178D01*
X014141Y012132D01*
X014168Y012084D01*
X014193Y012034D01*
X014213Y011983D01*
X014230Y011930D01*
X014244Y011877D01*
X014253Y011822D01*
X014259Y011767D01*
X014261Y011712D01*
X014260Y011712D01*
X014258Y011767D01*
X014252Y011822D01*
X014243Y011876D01*
X014229Y011930D01*
X014212Y011982D01*
X014192Y012034D01*
X014168Y012083D01*
X014140Y012131D01*
X014109Y012177D01*
X014075Y012221D01*
X014039Y012262D01*
X013999Y012300D01*
X013957Y012336D01*
X013913Y012369D01*
X013912Y012368D01*
X013956Y012335D01*
X013998Y012300D01*
X014038Y012261D01*
X014075Y012220D01*
X014109Y012176D01*
X014139Y012131D01*
X014167Y012083D01*
X014191Y012033D01*
X014211Y011982D01*
X014228Y011930D01*
X014242Y011876D01*
X014251Y011822D01*
X014257Y011767D01*
X014259Y011712D01*
X014258Y011712D01*
X014256Y011767D01*
X014250Y011822D01*
X014241Y011876D01*
X014227Y011929D01*
X014210Y011982D01*
X014190Y012033D01*
X014166Y012082D01*
X014138Y012130D01*
X014108Y012176D01*
X014074Y012219D01*
X014037Y012260D01*
X013998Y012299D01*
X013956Y012334D01*
X013911Y012367D01*
X013911Y012366D01*
X013955Y012334D01*
X013997Y012298D01*
X014037Y012260D01*
X014073Y012219D01*
X014107Y012175D01*
X014138Y012130D01*
X014165Y012082D01*
X014189Y012032D01*
X014209Y011981D01*
X014226Y011929D01*
X014240Y011876D01*
X014249Y011822D01*
X014255Y011767D01*
X014257Y011712D01*
X014256Y011712D01*
X014254Y011767D01*
X014248Y011822D01*
X014239Y011876D01*
X014225Y011929D01*
X014209Y011981D01*
X014188Y012032D01*
X014164Y012081D01*
X014137Y012129D01*
X014106Y012175D01*
X014072Y012218D01*
X014036Y012259D01*
X013996Y012297D01*
X013955Y012333D01*
X013910Y012365D01*
X013972Y011711D02*
X013954Y011711D01*
X013955Y011712D02*
X013953Y011756D01*
X013947Y011799D01*
X013937Y011842D01*
X013924Y011884D01*
X013906Y011924D01*
X013922Y011931D01*
X013923Y011932D01*
X013938Y011897D01*
X013950Y011861D01*
X013960Y011825D01*
X013967Y011788D01*
X013972Y011750D01*
X013973Y011712D01*
X013972Y011712D01*
X013971Y011750D01*
X013966Y011787D01*
X013959Y011825D01*
X013949Y011861D01*
X013937Y011897D01*
X013922Y011932D01*
X013921Y011931D01*
X013936Y011896D01*
X013948Y011861D01*
X013958Y011824D01*
X013965Y011787D01*
X013970Y011750D01*
X013971Y011712D01*
X013970Y011712D01*
X013969Y011750D01*
X013964Y011787D01*
X013957Y011824D01*
X013947Y011861D01*
X013935Y011896D01*
X013920Y011931D01*
X013919Y011930D01*
X013934Y011896D01*
X013946Y011860D01*
X013956Y011824D01*
X013963Y011787D01*
X013968Y011750D01*
X013969Y011712D01*
X013968Y011712D01*
X013967Y011750D01*
X013962Y011787D01*
X013955Y011824D01*
X013945Y011860D01*
X013933Y011895D01*
X013918Y011930D01*
X013917Y011929D01*
X013932Y011895D01*
X013945Y011860D01*
X013954Y011823D01*
X013961Y011787D01*
X013966Y011749D01*
X013967Y011712D01*
X013966Y011712D01*
X013965Y011749D01*
X013960Y011787D01*
X013953Y011823D01*
X013944Y011859D01*
X013931Y011895D01*
X013916Y011929D01*
X013915Y011928D01*
X013930Y011894D01*
X013943Y011859D01*
X013952Y011823D01*
X013959Y011786D01*
X013964Y011749D01*
X013965Y011712D01*
X013964Y011712D01*
X013963Y011749D01*
X013958Y011786D01*
X013951Y011823D01*
X013942Y011859D01*
X013929Y011894D01*
X013914Y011928D01*
X013928Y011894D01*
X013941Y011858D01*
X013950Y011823D01*
X013957Y011786D01*
X013962Y011749D01*
X013963Y011712D01*
X013962Y011712D01*
X013961Y011749D01*
X013956Y011786D01*
X013949Y011822D01*
X013940Y011858D01*
X013927Y011893D01*
X013913Y011927D01*
X013912Y011927D01*
X013927Y011893D01*
X013939Y011858D01*
X013948Y011822D01*
X013955Y011786D01*
X013960Y011749D01*
X013961Y011712D01*
X013960Y011712D01*
X013958Y011756D01*
X013952Y011800D01*
X013942Y011843D01*
X013928Y011886D01*
X013911Y011926D01*
X013910Y011926D01*
X013927Y011885D01*
X013941Y011843D01*
X013951Y011800D01*
X013957Y011756D01*
X013959Y011712D01*
X013958Y011712D01*
X013956Y011756D01*
X013950Y011800D01*
X013940Y011843D01*
X013926Y011885D01*
X013909Y011925D01*
X013908Y011925D01*
X013925Y011884D01*
X013939Y011843D01*
X013949Y011800D01*
X013955Y011756D01*
X013957Y011712D01*
X013956Y011712D01*
X013954Y011756D01*
X013948Y011799D01*
X013938Y011842D01*
X013925Y011884D01*
X013907Y011925D01*
X013006Y011931D02*
X013022Y011924D01*
X013004Y011884D01*
X012991Y011842D01*
X012981Y011799D01*
X012975Y011756D01*
X012973Y011712D01*
X012956Y011711D01*
X012955Y011712D01*
X012956Y011750D01*
X012961Y011788D01*
X012968Y011825D01*
X012978Y011861D01*
X012990Y011897D01*
X013005Y011932D01*
X013006Y011932D01*
X012991Y011897D01*
X012979Y011861D01*
X012969Y011825D01*
X012962Y011787D01*
X012957Y011750D01*
X012956Y011712D01*
X012957Y011712D01*
X012958Y011750D01*
X012963Y011787D01*
X012970Y011824D01*
X012980Y011861D01*
X012992Y011896D01*
X013007Y011931D01*
X013008Y011931D01*
X012993Y011896D01*
X012981Y011861D01*
X012971Y011824D01*
X012964Y011787D01*
X012959Y011750D01*
X012958Y011712D01*
X012959Y011712D01*
X012960Y011750D01*
X012965Y011787D01*
X012972Y011824D01*
X012982Y011860D01*
X012994Y011896D01*
X013009Y011930D01*
X013010Y011930D01*
X012995Y011895D01*
X012983Y011860D01*
X012973Y011824D01*
X012966Y011787D01*
X012961Y011750D01*
X012960Y011712D01*
X012961Y011712D01*
X012962Y011749D01*
X012967Y011787D01*
X012974Y011823D01*
X012983Y011860D01*
X012996Y011895D01*
X013011Y011929D01*
X013012Y011929D01*
X012997Y011895D01*
X012984Y011859D01*
X012975Y011823D01*
X012968Y011787D01*
X012963Y011749D01*
X012962Y011712D01*
X012963Y011712D01*
X012964Y011749D01*
X012969Y011786D01*
X012976Y011823D01*
X012985Y011859D01*
X012998Y011894D01*
X013013Y011928D01*
X013014Y011928D01*
X012999Y011894D01*
X012986Y011859D01*
X012977Y011823D01*
X012970Y011786D01*
X012965Y011749D01*
X012964Y011712D01*
X012965Y011712D01*
X012966Y011749D01*
X012971Y011786D01*
X012978Y011823D01*
X012987Y011858D01*
X013000Y011894D01*
X013014Y011928D01*
X013015Y011927D01*
X013001Y011893D01*
X012988Y011858D01*
X012979Y011822D01*
X012972Y011786D01*
X012967Y011749D01*
X012966Y011712D01*
X012967Y011712D01*
X012968Y011749D01*
X012973Y011786D01*
X012980Y011822D01*
X012989Y011858D01*
X013001Y011893D01*
X013016Y011927D01*
X013017Y011926D01*
X013000Y011886D01*
X012986Y011843D01*
X012976Y011800D01*
X012970Y011756D01*
X012968Y011712D01*
X012969Y011712D01*
X012971Y011756D01*
X012977Y011800D01*
X012987Y011843D01*
X013001Y011885D01*
X013018Y011926D01*
X013019Y011925D01*
X013002Y011885D01*
X012988Y011843D01*
X012978Y011800D01*
X012972Y011756D01*
X012970Y011712D01*
X012971Y011712D01*
X012973Y011756D01*
X012979Y011800D01*
X012989Y011843D01*
X013003Y011884D01*
X013020Y011925D01*
X013021Y011925D01*
X013003Y011884D01*
X012990Y011842D01*
X012980Y011799D01*
X012974Y011756D01*
X012972Y011712D01*
X012656Y009010D02*
X012674Y009010D01*
X012673Y009010D02*
X012675Y008955D01*
X012681Y008901D01*
X012690Y008847D01*
X012704Y008793D01*
X012720Y008741D01*
X012741Y008690D01*
X012765Y008641D01*
X012792Y008593D01*
X012823Y008548D01*
X012856Y008505D01*
X012893Y008464D01*
X012932Y008425D01*
X012974Y008390D01*
X013018Y008358D01*
X013009Y008343D01*
X013008Y008343D01*
X012963Y008376D01*
X012920Y008412D01*
X012880Y008451D01*
X012843Y008493D01*
X012808Y008537D01*
X012777Y008584D01*
X012749Y008633D01*
X012724Y008683D01*
X012704Y008735D01*
X012686Y008788D01*
X012673Y008843D01*
X012663Y008898D01*
X012657Y008954D01*
X012655Y009010D01*
X012656Y009010D01*
X012658Y008954D01*
X012664Y008898D01*
X012674Y008843D01*
X012687Y008789D01*
X012704Y008735D01*
X012725Y008683D01*
X012750Y008633D01*
X012778Y008584D01*
X012809Y008538D01*
X012843Y008494D01*
X012881Y008452D01*
X012921Y008413D01*
X012964Y008377D01*
X013009Y008343D01*
X013009Y008344D01*
X012964Y008377D01*
X012921Y008414D01*
X012881Y008453D01*
X012844Y008494D01*
X012810Y008539D01*
X012779Y008585D01*
X012751Y008634D01*
X012726Y008684D01*
X012705Y008736D01*
X012688Y008789D01*
X012675Y008843D01*
X012665Y008898D01*
X012659Y008954D01*
X012657Y009010D01*
X012658Y009010D01*
X012660Y008954D01*
X012666Y008899D01*
X012676Y008844D01*
X012689Y008789D01*
X012706Y008736D01*
X012727Y008684D01*
X012752Y008634D01*
X012779Y008586D01*
X012811Y008539D01*
X012845Y008495D01*
X012882Y008453D01*
X012922Y008414D01*
X012965Y008378D01*
X013010Y008345D01*
X013010Y008346D01*
X012965Y008379D01*
X012923Y008415D01*
X012883Y008454D01*
X012846Y008496D01*
X012811Y008540D01*
X012780Y008586D01*
X012752Y008634D01*
X012728Y008685D01*
X012707Y008736D01*
X012690Y008790D01*
X012677Y008844D01*
X012667Y008899D01*
X012661Y008954D01*
X012659Y009010D01*
X012660Y009010D01*
X012662Y008954D01*
X012668Y008899D01*
X012678Y008844D01*
X012691Y008790D01*
X012708Y008737D01*
X012729Y008685D01*
X012753Y008635D01*
X012781Y008587D01*
X012812Y008540D01*
X012846Y008496D01*
X012884Y008455D01*
X012923Y008416D01*
X012966Y008380D01*
X013011Y008347D01*
X013012Y008348D01*
X012967Y008381D01*
X012924Y008417D01*
X012884Y008455D01*
X012847Y008497D01*
X012813Y008541D01*
X012782Y008587D01*
X012754Y008635D01*
X012730Y008685D01*
X012709Y008737D01*
X012692Y008790D01*
X012679Y008844D01*
X012669Y008899D01*
X012663Y008954D01*
X012661Y009010D01*
X012662Y009010D01*
X012664Y008954D01*
X012670Y008899D01*
X012680Y008844D01*
X012693Y008790D01*
X012710Y008737D01*
X012731Y008686D01*
X012755Y008636D01*
X012783Y008588D01*
X012814Y008541D01*
X012848Y008498D01*
X012885Y008456D01*
X012925Y008417D01*
X012967Y008381D01*
X013012Y008348D01*
X013013Y008349D01*
X012968Y008382D01*
X012925Y008418D01*
X012886Y008457D01*
X012849Y008498D01*
X012815Y008542D01*
X012784Y008588D01*
X012756Y008636D01*
X012732Y008686D01*
X012711Y008738D01*
X012694Y008791D01*
X012680Y008845D01*
X012671Y008899D01*
X012665Y008954D01*
X012663Y009010D01*
X012664Y009010D01*
X012666Y008955D01*
X012672Y008899D01*
X012681Y008845D01*
X012695Y008791D01*
X012712Y008738D01*
X012733Y008687D01*
X012757Y008637D01*
X012785Y008589D01*
X012815Y008543D01*
X012849Y008499D01*
X012886Y008457D01*
X012926Y008419D01*
X012968Y008383D01*
X013013Y008350D01*
X013014Y008351D01*
X012969Y008384D01*
X012927Y008420D01*
X012887Y008458D01*
X012850Y008499D01*
X012816Y008543D01*
X012785Y008589D01*
X012758Y008637D01*
X012734Y008687D01*
X012713Y008739D01*
X012696Y008791D01*
X012682Y008845D01*
X012673Y008900D01*
X012667Y008955D01*
X012665Y009010D01*
X012666Y009010D01*
X012668Y008955D01*
X012674Y008900D01*
X012683Y008845D01*
X012697Y008791D01*
X012714Y008739D01*
X012735Y008688D01*
X012759Y008638D01*
X012786Y008590D01*
X012817Y008544D01*
X012851Y008500D01*
X012888Y008459D01*
X012927Y008420D01*
X012970Y008385D01*
X013014Y008352D01*
X013015Y008353D01*
X012970Y008385D01*
X012928Y008421D01*
X012889Y008460D01*
X012852Y008501D01*
X012818Y008544D01*
X012787Y008590D01*
X012760Y008638D01*
X012735Y008688D01*
X012715Y008739D01*
X012698Y008792D01*
X012684Y008845D01*
X012675Y008900D01*
X012669Y008955D01*
X012667Y009010D01*
X012668Y009010D01*
X012670Y008955D01*
X012676Y008900D01*
X012685Y008846D01*
X012699Y008792D01*
X012716Y008740D01*
X012736Y008688D01*
X012760Y008639D01*
X012788Y008591D01*
X012819Y008545D01*
X012853Y008501D01*
X012889Y008460D01*
X012929Y008422D01*
X012971Y008386D01*
X013015Y008353D01*
X013016Y008354D01*
X012972Y008387D01*
X012930Y008422D01*
X012890Y008461D01*
X012853Y008502D01*
X012819Y008546D01*
X012789Y008591D01*
X012761Y008639D01*
X012737Y008689D01*
X012717Y008740D01*
X012700Y008792D01*
X012686Y008846D01*
X012677Y008900D01*
X012671Y008955D01*
X012669Y009010D01*
X012670Y009010D01*
X012672Y008955D01*
X012678Y008900D01*
X012687Y008846D01*
X012701Y008793D01*
X012718Y008740D01*
X012738Y008689D01*
X012762Y008640D01*
X012790Y008592D01*
X012820Y008546D01*
X012854Y008503D01*
X012891Y008462D01*
X012930Y008423D01*
X012972Y008388D01*
X013017Y008355D01*
X013017Y008356D01*
X012973Y008388D01*
X012931Y008424D01*
X012891Y008462D01*
X012855Y008503D01*
X012821Y008547D01*
X012790Y008592D01*
X012763Y008640D01*
X012739Y008690D01*
X012719Y008741D01*
X012702Y008793D01*
X012688Y008846D01*
X012679Y008900D01*
X012673Y008955D01*
X012671Y009010D01*
X012672Y009010D01*
X012674Y008955D01*
X012680Y008900D01*
X012689Y008846D01*
X012703Y008793D01*
X012719Y008741D01*
X012740Y008690D01*
X012764Y008641D01*
X012791Y008593D01*
X012822Y008547D01*
X012856Y008504D01*
X012892Y008463D01*
X012932Y008425D01*
X012973Y008389D01*
X013018Y008357D01*
X013919Y008343D02*
X013909Y008358D01*
X013910Y008358D02*
X013954Y008390D01*
X013996Y008425D01*
X014035Y008464D01*
X014072Y008505D01*
X014105Y008548D01*
X014136Y008593D01*
X014163Y008641D01*
X014187Y008690D01*
X014208Y008741D01*
X014224Y008793D01*
X014238Y008847D01*
X014247Y008901D01*
X014253Y008955D01*
X014255Y009010D01*
X014272Y009011D01*
X014273Y009010D01*
X014271Y008954D01*
X014265Y008898D01*
X014255Y008843D01*
X014242Y008788D01*
X014225Y008735D01*
X014204Y008683D01*
X014179Y008633D01*
X014151Y008584D01*
X014120Y008537D01*
X014085Y008493D01*
X014048Y008451D01*
X014008Y008412D01*
X013965Y008376D01*
X013920Y008343D01*
X013919Y008344D01*
X013964Y008377D01*
X014007Y008413D01*
X014047Y008452D01*
X014085Y008494D01*
X014119Y008538D01*
X014150Y008585D01*
X014178Y008633D01*
X014203Y008684D01*
X014224Y008735D01*
X014241Y008789D01*
X014254Y008843D01*
X014264Y008898D01*
X014270Y008954D01*
X014272Y009010D01*
X014271Y009010D01*
X014269Y008954D01*
X014263Y008898D01*
X014253Y008843D01*
X014240Y008789D01*
X014223Y008736D01*
X014202Y008684D01*
X014177Y008634D01*
X014149Y008585D01*
X014118Y008539D01*
X014084Y008494D01*
X014047Y008453D01*
X014007Y008414D01*
X013964Y008377D01*
X013919Y008344D01*
X013918Y008345D01*
X013963Y008378D01*
X014006Y008414D01*
X014046Y008453D01*
X014083Y008495D01*
X014117Y008539D01*
X014149Y008586D01*
X014176Y008634D01*
X014201Y008684D01*
X014222Y008736D01*
X014239Y008789D01*
X014252Y008844D01*
X014262Y008899D01*
X014268Y008954D01*
X014270Y009010D01*
X014269Y009010D01*
X014267Y008954D01*
X014261Y008899D01*
X014251Y008844D01*
X014238Y008790D01*
X014221Y008736D01*
X014200Y008685D01*
X014176Y008635D01*
X014148Y008586D01*
X014117Y008540D01*
X014082Y008496D01*
X014045Y008454D01*
X014005Y008415D01*
X013963Y008379D01*
X013918Y008346D01*
X013917Y008347D01*
X013962Y008380D01*
X014005Y008416D01*
X014044Y008455D01*
X014082Y008496D01*
X014116Y008540D01*
X014147Y008587D01*
X014175Y008635D01*
X014199Y008685D01*
X014220Y008737D01*
X014237Y008790D01*
X014250Y008844D01*
X014260Y008899D01*
X014266Y008954D01*
X014268Y009010D01*
X014267Y009010D01*
X014265Y008954D01*
X014259Y008899D01*
X014249Y008844D01*
X014236Y008790D01*
X014219Y008737D01*
X014198Y008686D01*
X014174Y008635D01*
X014146Y008587D01*
X014115Y008541D01*
X014081Y008497D01*
X014044Y008455D01*
X014004Y008417D01*
X013961Y008381D01*
X013917Y008348D01*
X013916Y008348D01*
X013961Y008381D01*
X014003Y008417D01*
X014043Y008456D01*
X014080Y008498D01*
X014114Y008542D01*
X014145Y008588D01*
X014173Y008636D01*
X014197Y008686D01*
X014218Y008738D01*
X014235Y008790D01*
X014249Y008844D01*
X014258Y008899D01*
X014264Y008954D01*
X014266Y009010D01*
X014265Y009010D01*
X014263Y008955D01*
X014257Y008899D01*
X014248Y008845D01*
X014234Y008791D01*
X014217Y008738D01*
X014196Y008686D01*
X014172Y008636D01*
X014144Y008588D01*
X014113Y008542D01*
X014079Y008498D01*
X014042Y008457D01*
X014003Y008418D01*
X013960Y008382D01*
X013915Y008349D01*
X013915Y008350D01*
X013960Y008383D01*
X014002Y008419D01*
X014042Y008457D01*
X014079Y008499D01*
X014113Y008543D01*
X014143Y008589D01*
X014171Y008637D01*
X014195Y008687D01*
X014216Y008738D01*
X014233Y008791D01*
X014247Y008845D01*
X014256Y008899D01*
X014262Y008955D01*
X014264Y009010D01*
X014263Y009010D01*
X014261Y008955D01*
X014255Y008900D01*
X014246Y008845D01*
X014232Y008791D01*
X014215Y008739D01*
X014194Y008687D01*
X014170Y008637D01*
X014143Y008589D01*
X014112Y008543D01*
X014078Y008499D01*
X014041Y008458D01*
X014001Y008420D01*
X013959Y008384D01*
X013914Y008351D01*
X013914Y008352D01*
X013958Y008385D01*
X014001Y008420D01*
X014040Y008459D01*
X014077Y008500D01*
X014111Y008544D01*
X014142Y008590D01*
X014169Y008638D01*
X014194Y008688D01*
X014214Y008739D01*
X014231Y008792D01*
X014245Y008845D01*
X014254Y008900D01*
X014260Y008955D01*
X014262Y009010D01*
X014261Y009010D01*
X014259Y008955D01*
X014253Y008900D01*
X014244Y008845D01*
X014230Y008792D01*
X014213Y008739D01*
X014193Y008688D01*
X014168Y008638D01*
X014141Y008590D01*
X014110Y008544D01*
X014076Y008501D01*
X014039Y008460D01*
X014000Y008421D01*
X013958Y008385D01*
X013913Y008353D01*
X013957Y008386D01*
X013999Y008422D01*
X014039Y008460D01*
X014076Y008501D01*
X014109Y008545D01*
X014140Y008591D01*
X014168Y008639D01*
X014192Y008688D01*
X014212Y008740D01*
X014229Y008792D01*
X014243Y008846D01*
X014252Y008900D01*
X014258Y008955D01*
X014260Y009010D01*
X014259Y009010D01*
X014257Y008955D01*
X014251Y008900D01*
X014242Y008846D01*
X014228Y008792D01*
X014211Y008740D01*
X014191Y008689D01*
X014167Y008639D01*
X014139Y008591D01*
X014109Y008546D01*
X014075Y008502D01*
X014038Y008461D01*
X013999Y008423D01*
X013956Y008387D01*
X013912Y008354D01*
X013911Y008355D01*
X013956Y008388D01*
X013998Y008423D01*
X014037Y008462D01*
X014074Y008503D01*
X014108Y008546D01*
X014138Y008592D01*
X014166Y008640D01*
X014190Y008689D01*
X014210Y008740D01*
X014227Y008793D01*
X014241Y008846D01*
X014250Y008900D01*
X014256Y008955D01*
X014258Y009010D01*
X014257Y009010D01*
X014255Y008955D01*
X014249Y008900D01*
X014240Y008846D01*
X014226Y008793D01*
X014209Y008741D01*
X014189Y008690D01*
X014165Y008640D01*
X014138Y008592D01*
X014107Y008547D01*
X014073Y008503D01*
X014037Y008462D01*
X013997Y008424D01*
X013955Y008388D01*
X013911Y008356D01*
X013910Y008357D01*
X013955Y008389D01*
X013996Y008425D01*
X014036Y008463D01*
X014072Y008504D01*
X014106Y008547D01*
X014137Y008593D01*
X014164Y008641D01*
X014188Y008690D01*
X014209Y008741D01*
X014225Y008793D01*
X014239Y008846D01*
X014248Y008901D01*
X014254Y008955D01*
X014256Y009010D01*
X013922Y008791D02*
X013906Y008798D01*
X013924Y008838D01*
X013937Y008880D01*
X013947Y008923D01*
X013953Y008966D01*
X013955Y009010D01*
X013972Y009011D01*
X013973Y009010D01*
X013972Y008972D01*
X013967Y008934D01*
X013960Y008897D01*
X013950Y008861D01*
X013938Y008825D01*
X013923Y008790D01*
X013922Y008790D01*
X013937Y008825D01*
X013949Y008861D01*
X013959Y008897D01*
X013966Y008935D01*
X013971Y008972D01*
X013972Y009010D01*
X013971Y009010D01*
X013970Y008972D01*
X013965Y008935D01*
X013958Y008898D01*
X013948Y008861D01*
X013936Y008826D01*
X013921Y008791D01*
X013920Y008791D01*
X013935Y008826D01*
X013947Y008861D01*
X013957Y008898D01*
X013964Y008935D01*
X013969Y008972D01*
X013970Y009010D01*
X013969Y009010D01*
X013968Y008972D01*
X013963Y008935D01*
X013956Y008898D01*
X013946Y008862D01*
X013934Y008826D01*
X013919Y008792D01*
X013918Y008792D01*
X013933Y008827D01*
X013945Y008862D01*
X013955Y008898D01*
X013962Y008935D01*
X013967Y008972D01*
X013968Y009010D01*
X013967Y009010D01*
X013966Y008973D01*
X013961Y008935D01*
X013954Y008899D01*
X013945Y008862D01*
X013932Y008827D01*
X013917Y008793D01*
X013916Y008793D01*
X013931Y008827D01*
X013944Y008863D01*
X013953Y008899D01*
X013960Y008935D01*
X013965Y008973D01*
X013966Y009010D01*
X013965Y009010D01*
X013964Y008973D01*
X013959Y008936D01*
X013952Y008899D01*
X013943Y008863D01*
X013930Y008828D01*
X013915Y008794D01*
X013914Y008794D01*
X013929Y008828D01*
X013942Y008863D01*
X013951Y008899D01*
X013958Y008936D01*
X013963Y008973D01*
X013964Y009010D01*
X013963Y009010D01*
X013962Y008973D01*
X013957Y008936D01*
X013950Y008899D01*
X013941Y008864D01*
X013928Y008828D01*
X013914Y008794D01*
X013913Y008795D01*
X013927Y008829D01*
X013940Y008864D01*
X013949Y008900D01*
X013956Y008936D01*
X013961Y008973D01*
X013962Y009010D01*
X013961Y009010D01*
X013960Y008973D01*
X013955Y008936D01*
X013948Y008900D01*
X013939Y008864D01*
X013927Y008829D01*
X013912Y008795D01*
X013911Y008796D01*
X013928Y008836D01*
X013942Y008879D01*
X013952Y008922D01*
X013958Y008966D01*
X013960Y009010D01*
X013959Y009010D01*
X013957Y008966D01*
X013951Y008922D01*
X013941Y008879D01*
X013927Y008837D01*
X013910Y008796D01*
X013909Y008797D01*
X013926Y008837D01*
X013940Y008879D01*
X013950Y008922D01*
X013956Y008966D01*
X013958Y009010D01*
X013957Y009010D01*
X013955Y008966D01*
X013949Y008922D01*
X013939Y008879D01*
X013925Y008838D01*
X013908Y008797D01*
X013907Y008797D01*
X013925Y008838D01*
X013938Y008880D01*
X013948Y008923D01*
X013954Y008966D01*
X013956Y009010D01*
X012956Y009011D02*
X012974Y009011D01*
X012973Y009010D02*
X012975Y008966D01*
X012981Y008923D01*
X012991Y008880D01*
X013004Y008838D01*
X013022Y008798D01*
X013006Y008791D01*
X013005Y008790D01*
X012990Y008825D01*
X012978Y008861D01*
X012968Y008897D01*
X012961Y008934D01*
X012956Y008972D01*
X012955Y009010D01*
X012956Y009010D01*
X012957Y008972D01*
X012962Y008935D01*
X012969Y008897D01*
X012979Y008861D01*
X012991Y008825D01*
X013006Y008790D01*
X013007Y008791D01*
X012992Y008826D01*
X012980Y008861D01*
X012970Y008898D01*
X012963Y008935D01*
X012958Y008972D01*
X012957Y009010D01*
X012958Y009010D01*
X012959Y008972D01*
X012964Y008935D01*
X012971Y008898D01*
X012981Y008861D01*
X012993Y008826D01*
X013008Y008791D01*
X013009Y008792D01*
X012994Y008826D01*
X012982Y008862D01*
X012972Y008898D01*
X012965Y008935D01*
X012960Y008972D01*
X012959Y009010D01*
X012960Y009010D01*
X012961Y008972D01*
X012966Y008935D01*
X012973Y008898D01*
X012983Y008862D01*
X012995Y008827D01*
X013010Y008792D01*
X013011Y008793D01*
X012996Y008827D01*
X012983Y008862D01*
X012974Y008899D01*
X012967Y008935D01*
X012962Y008973D01*
X012961Y009010D01*
X012962Y009010D01*
X012963Y008973D01*
X012968Y008935D01*
X012975Y008899D01*
X012984Y008863D01*
X012997Y008827D01*
X013012Y008793D01*
X013013Y008794D01*
X012998Y008828D01*
X012985Y008863D01*
X012976Y008899D01*
X012969Y008936D01*
X012964Y008973D01*
X012963Y009010D01*
X012964Y009010D01*
X012965Y008973D01*
X012970Y008936D01*
X012977Y008899D01*
X012986Y008863D01*
X012999Y008828D01*
X013014Y008794D01*
X013000Y008828D01*
X012987Y008864D01*
X012978Y008899D01*
X012971Y008936D01*
X012966Y008973D01*
X012965Y009010D01*
X012966Y009010D01*
X012967Y008973D01*
X012972Y008936D01*
X012979Y008900D01*
X012988Y008864D01*
X013001Y008829D01*
X013015Y008795D01*
X013016Y008795D01*
X013001Y008829D01*
X012989Y008864D01*
X012980Y008900D01*
X012973Y008936D01*
X012968Y008973D01*
X012967Y009010D01*
X012968Y009010D01*
X012970Y008966D01*
X012976Y008922D01*
X012986Y008879D01*
X013000Y008836D01*
X013017Y008796D01*
X013018Y008796D01*
X013001Y008837D01*
X012987Y008879D01*
X012977Y008922D01*
X012971Y008966D01*
X012969Y009010D01*
X012970Y009010D01*
X012972Y008966D01*
X012978Y008922D01*
X012988Y008879D01*
X013002Y008837D01*
X013019Y008797D01*
X013020Y008797D01*
X013003Y008838D01*
X012989Y008879D01*
X012979Y008922D01*
X012973Y008966D01*
X012971Y009010D01*
X012972Y009010D01*
X012974Y008966D01*
X012980Y008923D01*
X012990Y008880D01*
X013003Y008838D01*
X013021Y008797D01*
D14*
X013014Y008111D02*
X012614Y008111D01*
X012597Y008113D01*
X012580Y008117D01*
X012564Y008124D01*
X012550Y008134D01*
X012537Y008147D01*
X012527Y008161D01*
X012520Y008177D01*
X012516Y008194D01*
X012514Y008211D01*
X012514Y012511D01*
X012516Y012528D01*
X012520Y012545D01*
X012527Y012561D01*
X012537Y012575D01*
X012550Y012588D01*
X012564Y012598D01*
X012580Y012605D01*
X012597Y012609D01*
X012614Y012611D01*
X013014Y012611D01*
X013914Y012611D02*
X014314Y012611D01*
X014331Y012609D01*
X014348Y012605D01*
X014364Y012598D01*
X014378Y012588D01*
X014391Y012575D01*
X014401Y012561D01*
X014408Y012545D01*
X014412Y012528D01*
X014414Y012511D01*
X014414Y008211D01*
X014412Y008194D01*
X014408Y008177D01*
X014401Y008161D01*
X014391Y008147D01*
X014378Y008134D01*
X014364Y008124D01*
X014348Y008117D01*
X014331Y008113D01*
X014314Y008111D01*
X013914Y008111D01*
X013714Y010111D02*
X013464Y010111D01*
X013214Y010111D01*
X013214Y010261D02*
X013214Y010461D01*
X013714Y010461D01*
X013714Y010261D01*
X013214Y010261D01*
X013214Y010611D02*
X013464Y010611D01*
X013714Y010611D01*
X012094Y011863D02*
X012094Y012363D01*
X011844Y012613D01*
X010344Y012613D01*
X010094Y012863D01*
X010094Y013363D01*
X010344Y013613D01*
X011844Y013613D01*
X012094Y013863D01*
X012094Y014363D01*
X011844Y014613D01*
X010344Y014613D01*
X010094Y014863D01*
X010094Y015363D01*
X010344Y015613D01*
X011844Y015613D01*
X012094Y015863D01*
X012094Y016363D01*
X011844Y016613D01*
X010344Y016613D01*
X010094Y016863D01*
X010094Y017363D01*
X010344Y017613D01*
X011844Y017613D01*
X012094Y017863D01*
X012094Y018363D01*
X011844Y018613D01*
X012094Y018863D01*
X012094Y019363D01*
X011844Y019613D01*
X010344Y019613D01*
X010094Y019363D01*
X010094Y018863D01*
X010344Y018613D01*
X011844Y018613D01*
X011844Y017613D02*
X012094Y017363D01*
X012094Y016863D01*
X011844Y016613D01*
X011844Y015613D02*
X012094Y015363D01*
X012094Y014863D01*
X011844Y014613D01*
X011844Y013613D02*
X012094Y013363D01*
X012094Y012863D01*
X011844Y012613D01*
X012094Y011863D02*
X011844Y011613D01*
X010344Y011613D01*
X010094Y011863D01*
X010094Y012363D01*
X010344Y012613D01*
X010344Y013613D02*
X010094Y013863D01*
X010094Y014363D01*
X010344Y014613D01*
X010344Y015613D02*
X010094Y015863D01*
X010094Y016363D01*
X010344Y016613D01*
X010344Y017613D02*
X010094Y017863D01*
X010094Y018363D01*
X010344Y018613D01*
X007441Y014966D02*
X005588Y013113D01*
X005588Y012916D01*
X007441Y011063D01*
X009393Y013014D01*
X007441Y014966D01*
X005773Y013014D02*
X005775Y013037D01*
X005781Y013060D01*
X005790Y013081D01*
X005803Y013101D01*
X005819Y013118D01*
X005837Y013132D01*
X005857Y013143D01*
X005879Y013151D01*
X005902Y013155D01*
X005926Y013155D01*
X005949Y013151D01*
X005971Y013143D01*
X005991Y013132D01*
X006009Y013118D01*
X006025Y013101D01*
X006038Y013081D01*
X006047Y013060D01*
X006053Y013037D01*
X006055Y013014D01*
X006053Y012991D01*
X006047Y012968D01*
X006038Y012947D01*
X006025Y012927D01*
X006009Y012910D01*
X005991Y012896D01*
X005971Y012885D01*
X005949Y012877D01*
X005926Y012873D01*
X005902Y012873D01*
X005879Y012877D01*
X005857Y012885D01*
X005837Y012896D01*
X005819Y012910D01*
X005803Y012927D01*
X005790Y012947D01*
X005781Y012968D01*
X005775Y012991D01*
X005773Y013014D01*
X014227Y014174D02*
X014477Y013924D01*
X014977Y013924D01*
X015227Y014174D01*
X015477Y013924D01*
X015977Y013924D01*
X016227Y014174D01*
X016227Y014674D01*
X015977Y014924D01*
X015477Y014924D01*
X015227Y014674D01*
X015227Y014174D01*
X015227Y014674D02*
X014977Y014924D01*
X014477Y014924D01*
X014227Y014674D01*
X014227Y014174D01*
X016227Y014174D02*
X016477Y013924D01*
X016977Y013924D01*
X017227Y014174D01*
X017477Y013924D01*
X017977Y013924D01*
X018227Y014174D01*
X018477Y013924D01*
X018977Y013924D01*
X019227Y014174D01*
X019227Y014674D01*
X018977Y014924D01*
X018477Y014924D01*
X018227Y014674D01*
X018227Y014174D01*
X018227Y014674D02*
X017977Y014924D01*
X017477Y014924D01*
X017227Y014674D01*
X017227Y014174D01*
X017227Y014674D02*
X016977Y014924D01*
X016477Y014924D01*
X016227Y014674D01*
X019227Y014674D02*
X019477Y014924D01*
X019977Y014924D01*
X020227Y014674D01*
X020477Y014924D01*
X020977Y014924D01*
X021227Y014674D01*
X021227Y014174D01*
X020977Y013924D01*
X020477Y013924D01*
X020227Y014174D01*
X019977Y013924D01*
X019477Y013924D01*
X019227Y014174D01*
X020227Y014174D02*
X020227Y014674D01*
X013875Y001446D02*
X013534Y001446D01*
X013534Y001333D02*
X013534Y001560D01*
X013534Y001191D02*
X013875Y001191D01*
X013534Y000964D01*
X013875Y000964D01*
X013875Y000823D02*
X013648Y000823D01*
X013534Y000709D01*
X013648Y000596D01*
X013875Y000596D01*
X013704Y000596D02*
X013704Y000823D01*
X005214Y000815D02*
X005158Y000758D01*
X004987Y000758D01*
X004987Y000645D02*
X004987Y000985D01*
X005158Y000985D01*
X005214Y000928D01*
X005214Y000815D01*
X004846Y000758D02*
X004846Y000702D01*
X004789Y000645D01*
X004676Y000645D01*
X004619Y000702D01*
X004676Y000815D02*
X004789Y000815D01*
X004846Y000758D01*
X004846Y000928D02*
X004789Y000985D01*
X004676Y000985D01*
X004619Y000928D01*
X004619Y000872D01*
X004676Y000815D01*
X004487Y000985D02*
X004374Y000985D01*
X004430Y000985D02*
X004430Y000645D01*
X004374Y000645D02*
X004487Y000645D01*
D15*
X012664Y009011D02*
X012664Y011711D01*
X012964Y011711D02*
X012964Y009011D01*
X013964Y009011D02*
X013964Y011711D01*
X014264Y011711D02*
X014264Y009011D01*
X013464Y009961D02*
X013464Y010111D01*
X013464Y010611D02*
X013464Y010761D01*
X004052Y011545D02*
X003832Y011545D01*
X003832Y011655D01*
X003869Y011691D01*
X003942Y011691D01*
X003979Y011655D01*
X003979Y011545D01*
X003979Y011618D02*
X004052Y011691D01*
X004052Y011766D02*
X004052Y011912D01*
X004015Y011987D02*
X004052Y012023D01*
X004052Y012097D01*
X004015Y012133D01*
X003979Y012133D01*
X003942Y012097D01*
X003942Y012023D01*
X003905Y011987D01*
X003869Y011987D01*
X003832Y012023D01*
X003832Y012097D01*
X003869Y012133D01*
X003832Y012207D02*
X004052Y012207D01*
X004052Y012354D01*
X003942Y012281D02*
X003942Y012207D01*
X003832Y012207D02*
X003832Y012354D01*
X003832Y012428D02*
X003832Y012575D01*
X003832Y012502D02*
X004052Y012502D01*
X003832Y011912D02*
X003832Y011766D01*
X004052Y011766D01*
X003942Y011766D02*
X003942Y011839D01*
D16*
X003999Y003680D02*
X003999Y001121D01*
X005771Y001121D01*
X005771Y003680D01*
X003999Y003680D01*
X014200Y001452D02*
X014200Y000468D01*
X015184Y000468D01*
X015184Y001452D01*
X014200Y001452D01*
D17*
X016662Y000682D02*
X016969Y000682D01*
X017122Y000682D02*
X017353Y000682D01*
X017429Y000606D01*
X017429Y000529D01*
X017353Y000452D01*
X017122Y000452D01*
X017122Y000913D01*
X017353Y000913D01*
X017429Y000836D01*
X017429Y000759D01*
X017353Y000682D01*
X017583Y000682D02*
X017890Y000682D01*
X017890Y000759D02*
X017890Y000452D01*
X018197Y000452D02*
X018197Y000913D01*
X018350Y000913D02*
X018043Y000913D01*
X017890Y000759D02*
X017736Y000913D01*
X017583Y000759D01*
X017583Y000452D01*
X018504Y000682D02*
X018810Y000682D01*
X018657Y000529D02*
X018657Y000836D01*
X018139Y002501D02*
X018139Y002808D01*
X017985Y002654D02*
X018292Y002654D01*
X018369Y002961D02*
X018369Y003268D01*
X018369Y003421D02*
X018369Y003728D01*
X018369Y003882D02*
X018369Y004112D01*
X018292Y004189D01*
X017985Y004189D01*
X017908Y004112D01*
X017908Y003882D01*
X018369Y003882D01*
X018139Y003575D02*
X018139Y003421D01*
X018369Y003421D02*
X017908Y003421D01*
X017908Y003728D01*
X018139Y004342D02*
X018139Y004649D01*
X017908Y002961D02*
X018369Y002961D01*
X017377Y006948D02*
X016916Y006948D01*
X016916Y007179D01*
X016993Y007255D01*
X017300Y007255D01*
X017377Y007179D01*
X017377Y006948D01*
X017300Y007409D02*
X017377Y007486D01*
X017377Y007639D01*
X017300Y007716D01*
X017223Y007716D01*
X017146Y007639D01*
X017146Y007486D01*
X017070Y007409D01*
X016993Y007409D01*
X016916Y007486D01*
X016916Y007639D01*
X016993Y007716D01*
X016993Y007869D02*
X016916Y007946D01*
X016916Y008099D01*
X016993Y008176D01*
X017070Y008176D01*
X017146Y008099D01*
X017223Y008176D01*
X017300Y008176D01*
X017377Y008099D01*
X017377Y007946D01*
X017300Y007869D01*
X017146Y008023D02*
X017146Y008099D01*
X016993Y008330D02*
X016916Y008406D01*
X016916Y008560D01*
X016993Y008636D01*
X017070Y008636D01*
X017377Y008330D01*
X017377Y008636D01*
X017300Y008790D02*
X017377Y008867D01*
X017377Y009020D01*
X017300Y009097D01*
X017223Y009097D01*
X017146Y009020D01*
X017146Y008943D01*
X017146Y009020D02*
X017070Y009097D01*
X016993Y009097D01*
X016916Y009020D01*
X016916Y008867D01*
X016993Y008790D01*
X017070Y009250D02*
X016916Y009404D01*
X017377Y009404D01*
X017377Y009557D02*
X017377Y009250D01*
X017377Y009711D02*
X016916Y010018D01*
X016993Y010171D02*
X017070Y010171D01*
X017146Y010248D01*
X017146Y010401D01*
X017223Y010478D01*
X017300Y010478D01*
X017377Y010401D01*
X017377Y010248D01*
X017300Y010171D01*
X016993Y010171D02*
X016916Y010248D01*
X016916Y010401D01*
X016993Y010478D01*
X016993Y010632D02*
X016916Y010708D01*
X016916Y010862D01*
X016993Y010938D01*
X017300Y010938D01*
X017377Y010862D01*
X017377Y010708D01*
X017300Y010632D01*
X016993Y010632D01*
M02*
