%
M48
M72
T01C0.0120
T02C0.0236
T03C0.0315
T04C0.0360
T05C0.0394
T06C0.0400
T07C0.0472
%
T01
X5828Y13103
X4253Y7936
X9273Y14727
X5385Y10987
X5729Y11676
X10897Y1489
X5779Y14383
X3761Y13054
X9863Y3458
X8288Y3458
X12668Y5475
X3859Y505
X6320Y8625
X11290Y7542
X8781Y15416
X12914Y14924
X14440Y7592
X12865Y7641
X6566Y10889
X5582Y15269
X14046Y13103
X9420Y8379
X6172Y15367
X6074Y6706
X9174Y6657
X9814Y12316
X10011Y11135
X12275Y6706
X7009Y8281
X7698Y11873
X4056Y4540
X5828Y7395
X9322Y11824
X8387Y7592
X13899Y7050
X6123Y3261
X10454Y6460
X7944Y3950
X3269Y8231
X5139Y12267
X8485Y8133
X7895Y14334
X4253Y8330
X13899Y4737
X5090Y948
X12865Y948
X6074Y12611
X5532Y8970
X15916Y6066
X5926Y1440
X3416Y5722
X6320Y13153
X5582Y8182
X20444Y6657
X4745Y1194
X4351Y5180
X4794Y16253
X4105Y7395
X4745Y10692
X3810Y14777
X4893Y13300
X7304Y15121
X5779Y11332
X4942Y6952
X8928Y8133
X11094Y10889
X11832Y11627
X8436Y15367
X11094Y13202
X12767Y14432
X5090Y15023
X10060Y13596
X9765Y14481
X8682Y14924
X16261Y7247
X19361Y6263
X16704Y10840
X18328Y9314
X19066Y10052
X7649Y14580
X12127Y9806
X7698Y13842
X8387Y10741
X10257Y9560
X8928Y9363
T02
X2928Y2814
X2928Y3601
X2928Y2027
T03
X17393Y1464
X18180Y1464
T04
X5279Y1613
X4491Y1613
X5279Y2401
X4491Y2401
X5279Y3188
X4491Y3188
X14692Y960
T05
X3653Y9523
X3653Y6369
X3729Y8838
X3729Y7105
X2590Y12035
X3534Y12035
X19857Y4310
X19857Y2932
T06
X11594Y12113
X10594Y12113
X11594Y13113
X10594Y13113
X11594Y14113
X10594Y14113
X11594Y15113
X10594Y15113
X11594Y16113
X10594Y16113
X11594Y17113
X10594Y17113
X11594Y18113
X10594Y18113
X11594Y19113
X10594Y19113
X14727Y14424
X15727Y14424
X16727Y14424
X17727Y14424
X18727Y14424
X19727Y14424
X20727Y14424
T07
X2928Y1082
X2928Y4546
M30
