G75*
%MOIN*%
%OFA0B0*%
%FSLAX24Y24*%
%IPPOS*%
%LPD*%
%AMOC8*
5,1,8,0,0,1.08239X$1,22.5*
%
%ADD10C,0.0000*%
%ADD11C,0.0476*%
%ADD12C,0.0749*%
%ADD13C,0.0434*%
%ADD14R,0.0985X0.0827*%
%ADD15R,0.0949X0.0237*%
%ADD16R,0.0290X0.0540*%
%ADD17R,0.1640X0.0640*%
%ADD18R,0.0552X0.0631*%
%ADD19R,0.0800X0.2140*%
%ADD20R,0.0540X0.0260*%
%ADD21R,0.0260X0.0540*%
%ADD22R,0.0600X0.0600*%
%ADD23C,0.0600*%
%ADD24R,0.0490X0.0440*%
%ADD25R,0.0640X0.0640*%
%ADD26OC8,0.0640*%
%ADD27R,0.0360X0.0600*%
%ADD28C,0.0640*%
%ADD29R,0.0631X0.0552*%
%ADD30R,0.0906X0.0276*%
%ADD31C,0.0900*%
D10*
X002038Y000848D02*
X002038Y013148D01*
X002041Y013188D01*
X002048Y013227D01*
X002058Y013266D01*
X002072Y013304D01*
X002089Y013340D01*
X002110Y013374D01*
X002133Y013407D01*
X002160Y013437D01*
X002189Y013464D01*
X002220Y013489D01*
X002254Y013511D01*
X002290Y013529D01*
X002327Y013545D01*
X002365Y013556D01*
X002404Y013565D01*
X002444Y013569D01*
X002484Y013570D01*
X002587Y013570D01*
X002586Y013570D02*
X002623Y013573D01*
X002659Y013580D01*
X002694Y013590D01*
X002728Y013605D01*
X002760Y013622D01*
X002790Y013643D01*
X002818Y013667D01*
X002843Y013694D01*
X002865Y013723D01*
X002884Y013755D01*
X002900Y013788D01*
X002912Y013823D01*
X002921Y013858D01*
X002925Y013895D01*
X002926Y013931D01*
X002924Y016531D01*
X002925Y016531D02*
X002927Y016563D01*
X002933Y016594D01*
X002942Y016624D01*
X002955Y016653D01*
X002972Y016680D01*
X002991Y016705D01*
X003014Y016728D01*
X003039Y016747D01*
X003066Y016764D01*
X003095Y016777D01*
X003125Y016786D01*
X003156Y016792D01*
X003188Y016794D01*
X009212Y016794D01*
X009244Y016796D01*
X009276Y016801D01*
X009307Y016809D01*
X009337Y016821D01*
X009366Y016835D01*
X009392Y016853D01*
X009417Y016873D01*
X009440Y016896D01*
X009460Y016921D01*
X009478Y016948D01*
X009492Y016976D01*
X009504Y017006D01*
X009512Y017037D01*
X009517Y017069D01*
X009519Y017101D01*
X009519Y019323D01*
X009521Y019372D01*
X009527Y019420D01*
X009536Y019468D01*
X009549Y019515D01*
X009566Y019561D01*
X009587Y019605D01*
X009611Y019647D01*
X009638Y019688D01*
X009668Y019726D01*
X009701Y019762D01*
X009737Y019795D01*
X009775Y019825D01*
X009816Y019852D01*
X009858Y019876D01*
X009902Y019897D01*
X009948Y019914D01*
X009995Y019927D01*
X010043Y019936D01*
X010091Y019942D01*
X010140Y019944D01*
X012090Y019944D01*
X012135Y019942D01*
X012180Y019937D01*
X012225Y019928D01*
X012269Y019916D01*
X012311Y019900D01*
X012352Y019881D01*
X012392Y019859D01*
X012430Y019834D01*
X012465Y019806D01*
X012499Y019775D01*
X012530Y019741D01*
X012558Y019706D01*
X012583Y019668D01*
X012605Y019628D01*
X012624Y019587D01*
X012640Y019545D01*
X012652Y019501D01*
X012661Y019456D01*
X012666Y019411D01*
X012668Y019366D01*
X012668Y016534D01*
X012670Y016490D01*
X012675Y016447D01*
X012684Y016405D01*
X012697Y016363D01*
X012712Y016322D01*
X012732Y016283D01*
X012754Y016246D01*
X012779Y016210D01*
X012807Y016177D01*
X012838Y016146D01*
X012871Y016118D01*
X012907Y016093D01*
X012944Y016071D01*
X012983Y016051D01*
X013024Y016036D01*
X013066Y016023D01*
X013108Y016014D01*
X013151Y016009D01*
X013195Y016007D01*
X020717Y016007D01*
X020765Y016005D01*
X020813Y015999D01*
X020860Y015990D01*
X020906Y015977D01*
X020952Y015960D01*
X020995Y015940D01*
X021037Y015917D01*
X021077Y015890D01*
X021115Y015860D01*
X021150Y015827D01*
X021183Y015792D01*
X021213Y015754D01*
X021240Y015714D01*
X021263Y015672D01*
X021283Y015629D01*
X021300Y015583D01*
X021313Y015537D01*
X021322Y015490D01*
X021328Y015442D01*
X021330Y015394D01*
X021330Y001050D01*
X021328Y000996D01*
X021323Y000942D01*
X021313Y000889D01*
X021301Y000837D01*
X021284Y000785D01*
X021265Y000735D01*
X021241Y000686D01*
X021215Y000639D01*
X021185Y000594D01*
X021153Y000551D01*
X021117Y000510D01*
X021079Y000472D01*
X021038Y000436D01*
X020995Y000404D01*
X020950Y000374D01*
X020903Y000348D01*
X020854Y000324D01*
X020804Y000305D01*
X020752Y000288D01*
X020700Y000276D01*
X020647Y000266D01*
X020593Y000261D01*
X020539Y000259D01*
X002628Y000259D01*
X002582Y000261D01*
X002536Y000266D01*
X002491Y000275D01*
X002446Y000288D01*
X002403Y000304D01*
X002361Y000323D01*
X002320Y000346D01*
X002282Y000371D01*
X002245Y000400D01*
X002212Y000432D01*
X002180Y000465D01*
X002151Y000502D01*
X002126Y000540D01*
X002103Y000581D01*
X002084Y000623D01*
X002068Y000666D01*
X002055Y000711D01*
X002046Y000756D01*
X002041Y000802D01*
X002039Y000848D01*
X003456Y006369D02*
X003458Y006396D01*
X003464Y006423D01*
X003473Y006449D01*
X003486Y006473D01*
X003502Y006496D01*
X003521Y006515D01*
X003543Y006532D01*
X003567Y006546D01*
X003592Y006556D01*
X003619Y006563D01*
X003646Y006566D01*
X003674Y006565D01*
X003701Y006560D01*
X003727Y006552D01*
X003751Y006540D01*
X003774Y006524D01*
X003795Y006506D01*
X003812Y006485D01*
X003827Y006461D01*
X003838Y006436D01*
X003846Y006410D01*
X003850Y006383D01*
X003850Y006355D01*
X003846Y006328D01*
X003838Y006302D01*
X003827Y006277D01*
X003812Y006253D01*
X003795Y006232D01*
X003774Y006214D01*
X003752Y006198D01*
X003727Y006186D01*
X003701Y006178D01*
X003674Y006173D01*
X003646Y006172D01*
X003619Y006175D01*
X003592Y006182D01*
X003567Y006192D01*
X003543Y006206D01*
X003521Y006223D01*
X003502Y006242D01*
X003486Y006265D01*
X003473Y006289D01*
X003464Y006315D01*
X003458Y006342D01*
X003456Y006369D01*
X003532Y007105D02*
X003534Y007132D01*
X003540Y007159D01*
X003549Y007185D01*
X003562Y007209D01*
X003578Y007232D01*
X003597Y007251D01*
X003619Y007268D01*
X003643Y007282D01*
X003668Y007292D01*
X003695Y007299D01*
X003722Y007302D01*
X003750Y007301D01*
X003777Y007296D01*
X003803Y007288D01*
X003827Y007276D01*
X003850Y007260D01*
X003871Y007242D01*
X003888Y007221D01*
X003903Y007197D01*
X003914Y007172D01*
X003922Y007146D01*
X003926Y007119D01*
X003926Y007091D01*
X003922Y007064D01*
X003914Y007038D01*
X003903Y007013D01*
X003888Y006989D01*
X003871Y006968D01*
X003850Y006950D01*
X003828Y006934D01*
X003803Y006922D01*
X003777Y006914D01*
X003750Y006909D01*
X003722Y006908D01*
X003695Y006911D01*
X003668Y006918D01*
X003643Y006928D01*
X003619Y006942D01*
X003597Y006959D01*
X003578Y006978D01*
X003562Y007001D01*
X003549Y007025D01*
X003540Y007051D01*
X003534Y007078D01*
X003532Y007105D01*
X003532Y008838D02*
X003534Y008865D01*
X003540Y008892D01*
X003549Y008918D01*
X003562Y008942D01*
X003578Y008965D01*
X003597Y008984D01*
X003619Y009001D01*
X003643Y009015D01*
X003668Y009025D01*
X003695Y009032D01*
X003722Y009035D01*
X003750Y009034D01*
X003777Y009029D01*
X003803Y009021D01*
X003827Y009009D01*
X003850Y008993D01*
X003871Y008975D01*
X003888Y008954D01*
X003903Y008930D01*
X003914Y008905D01*
X003922Y008879D01*
X003926Y008852D01*
X003926Y008824D01*
X003922Y008797D01*
X003914Y008771D01*
X003903Y008746D01*
X003888Y008722D01*
X003871Y008701D01*
X003850Y008683D01*
X003828Y008667D01*
X003803Y008655D01*
X003777Y008647D01*
X003750Y008642D01*
X003722Y008641D01*
X003695Y008644D01*
X003668Y008651D01*
X003643Y008661D01*
X003619Y008675D01*
X003597Y008692D01*
X003578Y008711D01*
X003562Y008734D01*
X003549Y008758D01*
X003540Y008784D01*
X003534Y008811D01*
X003532Y008838D01*
X003456Y009523D02*
X003458Y009550D01*
X003464Y009577D01*
X003473Y009603D01*
X003486Y009627D01*
X003502Y009650D01*
X003521Y009669D01*
X003543Y009686D01*
X003567Y009700D01*
X003592Y009710D01*
X003619Y009717D01*
X003646Y009720D01*
X003674Y009719D01*
X003701Y009714D01*
X003727Y009706D01*
X003751Y009694D01*
X003774Y009678D01*
X003795Y009660D01*
X003812Y009639D01*
X003827Y009615D01*
X003838Y009590D01*
X003846Y009564D01*
X003850Y009537D01*
X003850Y009509D01*
X003846Y009482D01*
X003838Y009456D01*
X003827Y009431D01*
X003812Y009407D01*
X003795Y009386D01*
X003774Y009368D01*
X003752Y009352D01*
X003727Y009340D01*
X003701Y009332D01*
X003674Y009327D01*
X003646Y009326D01*
X003619Y009329D01*
X003592Y009336D01*
X003567Y009346D01*
X003543Y009360D01*
X003521Y009377D01*
X003502Y009396D01*
X003486Y009419D01*
X003473Y009443D01*
X003464Y009469D01*
X003458Y009496D01*
X003456Y009523D01*
X003337Y012035D02*
X003339Y012062D01*
X003345Y012089D01*
X003354Y012115D01*
X003367Y012139D01*
X003383Y012162D01*
X003402Y012181D01*
X003424Y012198D01*
X003448Y012212D01*
X003473Y012222D01*
X003500Y012229D01*
X003527Y012232D01*
X003555Y012231D01*
X003582Y012226D01*
X003608Y012218D01*
X003632Y012206D01*
X003655Y012190D01*
X003676Y012172D01*
X003693Y012151D01*
X003708Y012127D01*
X003719Y012102D01*
X003727Y012076D01*
X003731Y012049D01*
X003731Y012021D01*
X003727Y011994D01*
X003719Y011968D01*
X003708Y011943D01*
X003693Y011919D01*
X003676Y011898D01*
X003655Y011880D01*
X003633Y011864D01*
X003608Y011852D01*
X003582Y011844D01*
X003555Y011839D01*
X003527Y011838D01*
X003500Y011841D01*
X003473Y011848D01*
X003448Y011858D01*
X003424Y011872D01*
X003402Y011889D01*
X003383Y011908D01*
X003367Y011931D01*
X003354Y011955D01*
X003345Y011981D01*
X003339Y012008D01*
X003337Y012035D01*
X002393Y012035D02*
X002395Y012062D01*
X002401Y012089D01*
X002410Y012115D01*
X002423Y012139D01*
X002439Y012162D01*
X002458Y012181D01*
X002480Y012198D01*
X002504Y012212D01*
X002529Y012222D01*
X002556Y012229D01*
X002583Y012232D01*
X002611Y012231D01*
X002638Y012226D01*
X002664Y012218D01*
X002688Y012206D01*
X002711Y012190D01*
X002732Y012172D01*
X002749Y012151D01*
X002764Y012127D01*
X002775Y012102D01*
X002783Y012076D01*
X002787Y012049D01*
X002787Y012021D01*
X002783Y011994D01*
X002775Y011968D01*
X002764Y011943D01*
X002749Y011919D01*
X002732Y011898D01*
X002711Y011880D01*
X002689Y011864D01*
X002664Y011852D01*
X002638Y011844D01*
X002611Y011839D01*
X002583Y011838D01*
X002556Y011841D01*
X002529Y011848D01*
X002504Y011858D01*
X002480Y011872D01*
X002458Y011889D01*
X002439Y011908D01*
X002423Y011931D01*
X002410Y011955D01*
X002401Y011981D01*
X002395Y012008D01*
X002393Y012035D01*
D11*
X002928Y003601D03*
X002928Y002814D03*
X002928Y002027D03*
D12*
X002928Y001082D03*
X002928Y004546D03*
D13*
X003653Y006369D03*
X003729Y007105D03*
X003729Y008838D03*
X003653Y009523D03*
X003534Y012035D03*
X002590Y012035D03*
D14*
X002548Y009704D03*
X004714Y009704D03*
X004714Y006239D03*
X002548Y006239D03*
D15*
X004936Y007342D03*
X004936Y007657D03*
X004936Y007972D03*
X004936Y008286D03*
X004936Y008601D03*
D16*
X006554Y007133D03*
X007054Y007133D03*
X007554Y007133D03*
X008054Y007133D03*
X008554Y007133D03*
X009054Y007133D03*
X009554Y007133D03*
X010054Y007133D03*
X010554Y007133D03*
X011054Y007133D03*
X011554Y007133D03*
X012054Y007133D03*
X012109Y000633D03*
X011609Y000633D03*
D17*
X003775Y014286D03*
X003775Y015286D03*
X003775Y016286D03*
D18*
X005349Y015893D03*
X006097Y015893D03*
X008306Y015901D03*
X009054Y015901D03*
X013290Y005369D03*
X014038Y005369D03*
X014168Y003200D03*
X013420Y003200D03*
X014243Y002267D03*
X014991Y002267D03*
X016641Y004468D03*
X017389Y004468D03*
D19*
X013464Y008461D03*
X013464Y012261D03*
D20*
G36*
X009698Y013528D02*
X009318Y013148D01*
X009134Y013332D01*
X009514Y013712D01*
X009698Y013528D01*
G37*
G36*
X009475Y013751D02*
X009095Y013371D01*
X008911Y013555D01*
X009291Y013935D01*
X009475Y013751D01*
G37*
G36*
X009252Y013973D02*
X008872Y013593D01*
X008688Y013777D01*
X009068Y014157D01*
X009252Y013973D01*
G37*
G36*
X009029Y014196D02*
X008649Y013816D01*
X008465Y014000D01*
X008845Y014380D01*
X009029Y014196D01*
G37*
G36*
X008807Y014419D02*
X008427Y014039D01*
X008243Y014223D01*
X008623Y014603D01*
X008807Y014419D01*
G37*
G36*
X008584Y014641D02*
X008204Y014261D01*
X008020Y014445D01*
X008400Y014825D01*
X008584Y014641D01*
G37*
G36*
X008361Y014864D02*
X007981Y014484D01*
X007797Y014668D01*
X008177Y015048D01*
X008361Y014864D01*
G37*
G36*
X008139Y015087D02*
X007759Y014707D01*
X007575Y014891D01*
X007955Y015271D01*
X008139Y015087D01*
G37*
G36*
X005749Y012697D02*
X005369Y012317D01*
X005185Y012501D01*
X005565Y012881D01*
X005749Y012697D01*
G37*
G36*
X005971Y012474D02*
X005591Y012094D01*
X005407Y012278D01*
X005787Y012658D01*
X005971Y012474D01*
G37*
G36*
X006194Y012251D02*
X005814Y011871D01*
X005630Y012055D01*
X006010Y012435D01*
X006194Y012251D01*
G37*
G36*
X006417Y012029D02*
X006037Y011649D01*
X005853Y011833D01*
X006233Y012213D01*
X006417Y012029D01*
G37*
G36*
X006639Y011806D02*
X006259Y011426D01*
X006075Y011610D01*
X006455Y011990D01*
X006639Y011806D01*
G37*
G36*
X006862Y011583D02*
X006482Y011203D01*
X006298Y011387D01*
X006678Y011767D01*
X006862Y011583D01*
G37*
G36*
X007085Y011361D02*
X006705Y010981D01*
X006521Y011165D01*
X006901Y011545D01*
X007085Y011361D01*
G37*
G36*
X007308Y011138D02*
X006928Y010758D01*
X006744Y010942D01*
X007124Y011322D01*
X007308Y011138D01*
G37*
D21*
G36*
X008139Y010942D02*
X007955Y010758D01*
X007575Y011138D01*
X007759Y011322D01*
X008139Y010942D01*
G37*
G36*
X008361Y011165D02*
X008177Y010981D01*
X007797Y011361D01*
X007981Y011545D01*
X008361Y011165D01*
G37*
G36*
X008584Y011387D02*
X008400Y011203D01*
X008020Y011583D01*
X008204Y011767D01*
X008584Y011387D01*
G37*
G36*
X008807Y011610D02*
X008623Y011426D01*
X008243Y011806D01*
X008427Y011990D01*
X008807Y011610D01*
G37*
G36*
X009029Y011833D02*
X008845Y011649D01*
X008465Y012029D01*
X008649Y012213D01*
X009029Y011833D01*
G37*
G36*
X009252Y012055D02*
X009068Y011871D01*
X008688Y012251D01*
X008872Y012435D01*
X009252Y012055D01*
G37*
G36*
X009475Y012278D02*
X009291Y012094D01*
X008911Y012474D01*
X009095Y012658D01*
X009475Y012278D01*
G37*
G36*
X009698Y012501D02*
X009514Y012317D01*
X009134Y012697D01*
X009318Y012881D01*
X009698Y012501D01*
G37*
G36*
X007308Y014891D02*
X007124Y014707D01*
X006744Y015087D01*
X006928Y015271D01*
X007308Y014891D01*
G37*
G36*
X007085Y014668D02*
X006901Y014484D01*
X006521Y014864D01*
X006705Y015048D01*
X007085Y014668D01*
G37*
G36*
X006862Y014445D02*
X006678Y014261D01*
X006298Y014641D01*
X006482Y014825D01*
X006862Y014445D01*
G37*
G36*
X006639Y014223D02*
X006455Y014039D01*
X006075Y014419D01*
X006259Y014603D01*
X006639Y014223D01*
G37*
G36*
X006417Y014000D02*
X006233Y013816D01*
X005853Y014196D01*
X006037Y014380D01*
X006417Y014000D01*
G37*
G36*
X006194Y013777D02*
X006010Y013593D01*
X005630Y013973D01*
X005814Y014157D01*
X006194Y013777D01*
G37*
G36*
X005971Y013555D02*
X005787Y013371D01*
X005407Y013751D01*
X005591Y013935D01*
X005971Y013555D01*
G37*
G36*
X005749Y013332D02*
X005565Y013148D01*
X005185Y013528D01*
X005369Y013712D01*
X005749Y013332D01*
G37*
D22*
X005279Y001613D03*
X014692Y000960D03*
D23*
X017393Y001464D03*
X018180Y001464D03*
X005279Y002401D03*
X005279Y003188D03*
X004491Y003188D03*
X004491Y002401D03*
X004491Y001613D03*
D24*
X015867Y003042D03*
X016667Y002668D03*
X016667Y003416D03*
D25*
X011594Y012113D03*
D26*
X011594Y013113D03*
X011594Y014113D03*
X011594Y015113D03*
X011594Y016113D03*
X011594Y017113D03*
X011594Y018113D03*
X011594Y019113D03*
X010594Y019113D03*
X010594Y018113D03*
X010594Y017113D03*
X010594Y016113D03*
X010594Y015113D03*
X010594Y014113D03*
X010594Y013113D03*
X010594Y012113D03*
D27*
X003377Y013058D03*
X002747Y013058D03*
X002747Y011011D03*
X003377Y011011D03*
D28*
X014727Y014124D02*
X014727Y014724D01*
X015727Y014724D02*
X015727Y014124D01*
X016727Y014124D02*
X016727Y014724D01*
X017727Y014724D02*
X017727Y014124D01*
X018727Y014124D02*
X018727Y014724D01*
X019727Y014724D02*
X019727Y014124D01*
X020727Y014124D02*
X020727Y014724D01*
D29*
X020401Y012901D03*
X020401Y012153D03*
X019405Y012172D03*
X019405Y012920D03*
X018424Y012916D03*
X018424Y012168D03*
X017487Y012153D03*
X017487Y012901D03*
X016523Y012912D03*
X016523Y012164D03*
X015499Y012141D03*
X015499Y012889D03*
X011101Y009578D03*
X011101Y008830D03*
X009621Y008834D03*
X009621Y009582D03*
X007826Y009590D03*
X007826Y008842D03*
X015452Y006436D03*
X015452Y005688D03*
X016601Y005696D03*
X016601Y006444D03*
X017688Y006452D03*
X017688Y005704D03*
X018814Y005692D03*
X018814Y006440D03*
X019916Y006432D03*
X019916Y005684D03*
D30*
X019708Y007572D03*
X019708Y008072D03*
X019708Y008572D03*
X019708Y009072D03*
X019708Y009572D03*
X019708Y010072D03*
X019708Y010572D03*
X019708Y011072D03*
X016086Y011072D03*
X016086Y010572D03*
X016086Y010072D03*
X016086Y009572D03*
X016086Y009072D03*
X016086Y008572D03*
X016086Y008072D03*
X016086Y007572D03*
D31*
X019857Y004310D03*
X019857Y002932D03*
M02*
