G75*
%MOIN*%
%OFA0B0*%
%FSLAX25Y25*%
%IPPOS*%
%LPD*%
%AMOC8*
5,1,8,0,0,1.08239X$1,22.5*
%
%ADD10C,0.00000*%
%ADD11R,1.82244X0.03228*%
%ADD12R,1.73228X0.03150*%
%ADD13C,0.00800*%
%ADD14C,0.00600*%
%ADD15C,0.00200*%
%ADD16C,0.00300*%
%ADD17C,0.01000*%
%ADD18C,0.00500*%
%ADD19C,0.00100*%
%ADD20C,0.00400*%
%ADD21R,0.00591X0.01181*%
%ADD22R,0.01181X0.01181*%
D10*
X0011565Y0006895D02*
X0011565Y0114484D01*
X0011567Y0114588D01*
X0011573Y0114692D01*
X0011582Y0114796D01*
X0011595Y0114900D01*
X0011612Y0115002D01*
X0011633Y0115105D01*
X0011658Y0115206D01*
X0011686Y0115306D01*
X0011718Y0115406D01*
X0011753Y0115504D01*
X0011792Y0115600D01*
X0011835Y0115695D01*
X0011881Y0115789D01*
X0011930Y0115881D01*
X0011983Y0115971D01*
X0012039Y0116059D01*
X0012098Y0116145D01*
X0012160Y0116228D01*
X0012225Y0116310D01*
X0012293Y0116389D01*
X0012364Y0116465D01*
X0012438Y0116539D01*
X0012514Y0116610D01*
X0012593Y0116678D01*
X0012675Y0116743D01*
X0012758Y0116805D01*
X0012844Y0116864D01*
X0012932Y0116920D01*
X0013022Y0116973D01*
X0013114Y0117022D01*
X0013208Y0117068D01*
X0013303Y0117111D01*
X0013399Y0117150D01*
X0013497Y0117185D01*
X0013597Y0117217D01*
X0013697Y0117245D01*
X0013798Y0117270D01*
X0013901Y0117291D01*
X0014003Y0117308D01*
X0014107Y0117321D01*
X0014211Y0117330D01*
X0014315Y0117336D01*
X0014419Y0117338D01*
X0014419Y0117339D02*
X0017769Y0117339D01*
X0017871Y0117341D01*
X0017972Y0117347D01*
X0018073Y0117357D01*
X0018174Y0117370D01*
X0018274Y0117388D01*
X0018374Y0117409D01*
X0018472Y0117434D01*
X0018570Y0117463D01*
X0018666Y0117495D01*
X0018761Y0117531D01*
X0018855Y0117571D01*
X0018947Y0117615D01*
X0019037Y0117661D01*
X0019125Y0117712D01*
X0019212Y0117765D01*
X0019296Y0117822D01*
X0019378Y0117882D01*
X0019458Y0117945D01*
X0019535Y0118012D01*
X0019609Y0118081D01*
X0019681Y0118153D01*
X0019750Y0118227D01*
X0019817Y0118304D01*
X0019880Y0118384D01*
X0019940Y0118466D01*
X0019997Y0118550D01*
X0020050Y0118637D01*
X0020101Y0118725D01*
X0020147Y0118815D01*
X0020191Y0118907D01*
X0020231Y0119001D01*
X0020267Y0119096D01*
X0020299Y0119192D01*
X0020328Y0119290D01*
X0020353Y0119388D01*
X0020374Y0119488D01*
X0020392Y0119588D01*
X0020405Y0119689D01*
X0020415Y0119790D01*
X0020421Y0119891D01*
X0020423Y0119993D01*
X0020423Y0148826D01*
X0020424Y0148826D02*
X0020426Y0148979D01*
X0020432Y0149132D01*
X0020441Y0149284D01*
X0020455Y0149436D01*
X0020472Y0149588D01*
X0020494Y0149739D01*
X0020519Y0149890D01*
X0020547Y0150040D01*
X0020580Y0150190D01*
X0020617Y0150338D01*
X0020657Y0150485D01*
X0020701Y0150632D01*
X0020748Y0150777D01*
X0020799Y0150921D01*
X0020854Y0151064D01*
X0020913Y0151205D01*
X0020975Y0151344D01*
X0021040Y0151482D01*
X0021109Y0151619D01*
X0021182Y0151753D01*
X0021258Y0151886D01*
X0021337Y0152017D01*
X0021419Y0152145D01*
X0021505Y0152272D01*
X0021594Y0152396D01*
X0021686Y0152518D01*
X0021781Y0152638D01*
X0021879Y0152755D01*
X0021980Y0152870D01*
X0022084Y0152982D01*
X0022191Y0153091D01*
X0022300Y0153198D01*
X0022412Y0153302D01*
X0022527Y0153403D01*
X0022644Y0153501D01*
X0022764Y0153596D01*
X0022886Y0153688D01*
X0023010Y0153777D01*
X0023137Y0153863D01*
X0023265Y0153945D01*
X0023396Y0154024D01*
X0023529Y0154100D01*
X0023663Y0154173D01*
X0023800Y0154242D01*
X0023938Y0154307D01*
X0024077Y0154369D01*
X0024218Y0154428D01*
X0024361Y0154483D01*
X0024505Y0154534D01*
X0024650Y0154581D01*
X0024797Y0154625D01*
X0024944Y0154665D01*
X0025092Y0154702D01*
X0025242Y0154735D01*
X0025392Y0154763D01*
X0025543Y0154788D01*
X0025694Y0154810D01*
X0025846Y0154827D01*
X0025998Y0154841D01*
X0026150Y0154850D01*
X0026303Y0154856D01*
X0026456Y0154858D01*
X0202791Y0154858D01*
X0202791Y0154859D02*
X0202938Y0154857D01*
X0203085Y0154851D01*
X0203232Y0154842D01*
X0203379Y0154828D01*
X0203525Y0154811D01*
X0203671Y0154790D01*
X0203816Y0154765D01*
X0203961Y0154736D01*
X0204104Y0154704D01*
X0204247Y0154667D01*
X0204389Y0154627D01*
X0204529Y0154584D01*
X0204669Y0154536D01*
X0204807Y0154485D01*
X0204944Y0154431D01*
X0205079Y0154373D01*
X0205213Y0154311D01*
X0205345Y0154246D01*
X0205475Y0154177D01*
X0205604Y0154105D01*
X0205730Y0154030D01*
X0205855Y0153952D01*
X0205977Y0153870D01*
X0206097Y0153785D01*
X0206215Y0153697D01*
X0206331Y0153605D01*
X0206444Y0153511D01*
X0206555Y0153414D01*
X0206663Y0153314D01*
X0206768Y0153211D01*
X0206871Y0153106D01*
X0206971Y0152998D01*
X0207068Y0152887D01*
X0207162Y0152774D01*
X0207254Y0152658D01*
X0207342Y0152540D01*
X0207427Y0152420D01*
X0207509Y0152298D01*
X0207587Y0152173D01*
X0207662Y0152047D01*
X0207734Y0151918D01*
X0207803Y0151788D01*
X0207868Y0151656D01*
X0207930Y0151522D01*
X0207988Y0151387D01*
X0208042Y0151250D01*
X0208093Y0151112D01*
X0208141Y0150972D01*
X0208184Y0150832D01*
X0208224Y0150690D01*
X0208261Y0150547D01*
X0208293Y0150404D01*
X0208322Y0150259D01*
X0208347Y0150114D01*
X0208368Y0149968D01*
X0208385Y0149822D01*
X0208399Y0149675D01*
X0208408Y0149528D01*
X0208414Y0149381D01*
X0208416Y0149234D01*
X0208415Y0149234D02*
X0208223Y0049784D01*
X0208224Y0049784D02*
X0208222Y0049681D01*
X0208216Y0049578D01*
X0208206Y0049476D01*
X0208192Y0049374D01*
X0208175Y0049272D01*
X0208153Y0049172D01*
X0208128Y0049072D01*
X0208099Y0048973D01*
X0208066Y0048876D01*
X0208030Y0048779D01*
X0207990Y0048684D01*
X0207947Y0048591D01*
X0207900Y0048499D01*
X0207850Y0048410D01*
X0207796Y0048322D01*
X0207739Y0048236D01*
X0207679Y0048152D01*
X0207616Y0048071D01*
X0207549Y0047992D01*
X0207480Y0047916D01*
X0207408Y0047843D01*
X0207333Y0047772D01*
X0207256Y0047704D01*
X0207176Y0047639D01*
X0207094Y0047577D01*
X0207010Y0047518D01*
X0206923Y0047463D01*
X0206834Y0047410D01*
X0206744Y0047362D01*
X0206651Y0047316D01*
X0206557Y0047274D01*
X0206462Y0047236D01*
X0206365Y0047201D01*
X0206267Y0047170D01*
X0206167Y0047143D01*
X0206067Y0047119D01*
X0205966Y0047099D01*
X0205865Y0047084D01*
X0205762Y0047071D01*
X0205660Y0047063D01*
X0205659Y0047063D02*
X0205659Y0004345D01*
X0205657Y0004231D01*
X0205651Y0004117D01*
X0205641Y0004003D01*
X0205628Y0003890D01*
X0205610Y0003777D01*
X0205589Y0003664D01*
X0205564Y0003553D01*
X0205535Y0003443D01*
X0205502Y0003333D01*
X0205466Y0003225D01*
X0205426Y0003118D01*
X0205382Y0003012D01*
X0205335Y0002908D01*
X0205284Y0002806D01*
X0205230Y0002706D01*
X0205172Y0002607D01*
X0205111Y0002510D01*
X0205047Y0002416D01*
X0204979Y0002324D01*
X0204909Y0002234D01*
X0204835Y0002147D01*
X0204759Y0002062D01*
X0204679Y0001980D01*
X0204597Y0001900D01*
X0204512Y0001824D01*
X0204425Y0001750D01*
X0204335Y0001680D01*
X0204243Y0001612D01*
X0204149Y0001548D01*
X0204052Y0001487D01*
X0203953Y0001429D01*
X0203853Y0001375D01*
X0203751Y0001324D01*
X0203647Y0001277D01*
X0203541Y0001233D01*
X0203434Y0001193D01*
X0203326Y0001157D01*
X0203216Y0001124D01*
X0203106Y0001095D01*
X0202995Y0001070D01*
X0202882Y0001049D01*
X0202769Y0001031D01*
X0202656Y0001018D01*
X0202542Y0001008D01*
X0202428Y0001002D01*
X0202314Y0001000D01*
X0017470Y0001000D01*
X0017319Y0001002D01*
X0017167Y0001008D01*
X0017015Y0001017D01*
X0016864Y0001031D01*
X0016713Y0001048D01*
X0016562Y0001069D01*
X0016413Y0001095D01*
X0016263Y0001124D01*
X0016115Y0001156D01*
X0015968Y0001193D01*
X0015821Y0001234D01*
X0015676Y0001278D01*
X0015532Y0001326D01*
X0015389Y0001377D01*
X0015247Y0001433D01*
X0015107Y0001492D01*
X0014969Y0001554D01*
X0014832Y0001620D01*
X0014697Y0001690D01*
X0014564Y0001763D01*
X0014432Y0001839D01*
X0014303Y0001919D01*
X0014176Y0002002D01*
X0014051Y0002088D01*
X0013928Y0002178D01*
X0013808Y0002270D01*
X0013690Y0002366D01*
X0013574Y0002465D01*
X0013461Y0002566D01*
X0013351Y0002671D01*
X0013244Y0002778D01*
X0013139Y0002888D01*
X0013037Y0003001D01*
X0012938Y0003116D01*
X0012842Y0003234D01*
X0012749Y0003354D01*
X0012659Y0003477D01*
X0012573Y0003602D01*
X0012490Y0003729D01*
X0012410Y0003858D01*
X0012333Y0003989D01*
X0012260Y0004122D01*
X0012190Y0004257D01*
X0012124Y0004394D01*
X0012061Y0004532D01*
X0012002Y0004672D01*
X0011946Y0004814D01*
X0011894Y0004956D01*
X0011846Y0005101D01*
X0011802Y0005246D01*
X0011761Y0005392D01*
X0011724Y0005540D01*
X0011691Y0005688D01*
X0011662Y0005837D01*
X0011636Y0005987D01*
X0011615Y0006137D01*
X0011597Y0006288D01*
X0011583Y0006439D01*
X0011573Y0006591D01*
X0011567Y0006743D01*
X0011565Y0006895D01*
X0019282Y0090409D02*
X0019284Y0090506D01*
X0019290Y0090603D01*
X0019300Y0090699D01*
X0019314Y0090795D01*
X0019332Y0090891D01*
X0019353Y0090985D01*
X0019379Y0091079D01*
X0019408Y0091171D01*
X0019442Y0091262D01*
X0019478Y0091352D01*
X0019519Y0091440D01*
X0019563Y0091526D01*
X0019611Y0091611D01*
X0019662Y0091693D01*
X0019716Y0091774D01*
X0019774Y0091852D01*
X0019835Y0091927D01*
X0019898Y0092000D01*
X0019965Y0092071D01*
X0020035Y0092138D01*
X0020107Y0092203D01*
X0020182Y0092264D01*
X0020260Y0092323D01*
X0020339Y0092378D01*
X0020421Y0092430D01*
X0020505Y0092478D01*
X0020591Y0092523D01*
X0020679Y0092565D01*
X0020768Y0092603D01*
X0020859Y0092637D01*
X0020951Y0092667D01*
X0021044Y0092694D01*
X0021139Y0092716D01*
X0021234Y0092735D01*
X0021330Y0092750D01*
X0021426Y0092761D01*
X0021523Y0092768D01*
X0021620Y0092771D01*
X0021717Y0092770D01*
X0021814Y0092765D01*
X0021910Y0092756D01*
X0022006Y0092743D01*
X0022102Y0092726D01*
X0022197Y0092705D01*
X0022290Y0092681D01*
X0022383Y0092652D01*
X0022475Y0092620D01*
X0022565Y0092584D01*
X0022653Y0092545D01*
X0022740Y0092501D01*
X0022825Y0092455D01*
X0022908Y0092404D01*
X0022989Y0092351D01*
X0023067Y0092294D01*
X0023144Y0092234D01*
X0023217Y0092171D01*
X0023288Y0092105D01*
X0023356Y0092036D01*
X0023422Y0091964D01*
X0023484Y0091890D01*
X0023543Y0091813D01*
X0023599Y0091734D01*
X0023652Y0091652D01*
X0023702Y0091569D01*
X0023747Y0091483D01*
X0023790Y0091396D01*
X0023829Y0091307D01*
X0023864Y0091217D01*
X0023895Y0091125D01*
X0023922Y0091032D01*
X0023946Y0090938D01*
X0023966Y0090843D01*
X0023982Y0090747D01*
X0023994Y0090651D01*
X0024002Y0090554D01*
X0024006Y0090457D01*
X0024006Y0090361D01*
X0024002Y0090264D01*
X0023994Y0090167D01*
X0023982Y0090071D01*
X0023966Y0089975D01*
X0023946Y0089880D01*
X0023922Y0089786D01*
X0023895Y0089693D01*
X0023864Y0089601D01*
X0023829Y0089511D01*
X0023790Y0089422D01*
X0023747Y0089335D01*
X0023702Y0089249D01*
X0023652Y0089166D01*
X0023599Y0089084D01*
X0023543Y0089005D01*
X0023484Y0088928D01*
X0023422Y0088854D01*
X0023356Y0088782D01*
X0023288Y0088713D01*
X0023217Y0088647D01*
X0023144Y0088584D01*
X0023067Y0088524D01*
X0022989Y0088467D01*
X0022908Y0088414D01*
X0022825Y0088363D01*
X0022740Y0088317D01*
X0022653Y0088273D01*
X0022565Y0088234D01*
X0022475Y0088198D01*
X0022383Y0088166D01*
X0022290Y0088137D01*
X0022197Y0088113D01*
X0022102Y0088092D01*
X0022006Y0088075D01*
X0021910Y0088062D01*
X0021814Y0088053D01*
X0021717Y0088048D01*
X0021620Y0088047D01*
X0021523Y0088050D01*
X0021426Y0088057D01*
X0021330Y0088068D01*
X0021234Y0088083D01*
X0021139Y0088102D01*
X0021044Y0088124D01*
X0020951Y0088151D01*
X0020859Y0088181D01*
X0020768Y0088215D01*
X0020679Y0088253D01*
X0020591Y0088295D01*
X0020505Y0088340D01*
X0020421Y0088388D01*
X0020339Y0088440D01*
X0020260Y0088495D01*
X0020182Y0088554D01*
X0020107Y0088615D01*
X0020035Y0088680D01*
X0019965Y0088747D01*
X0019898Y0088818D01*
X0019835Y0088891D01*
X0019774Y0088966D01*
X0019716Y0089044D01*
X0019662Y0089125D01*
X0019611Y0089207D01*
X0019563Y0089292D01*
X0019519Y0089378D01*
X0019478Y0089466D01*
X0019442Y0089556D01*
X0019408Y0089647D01*
X0019379Y0089739D01*
X0019353Y0089833D01*
X0019332Y0089927D01*
X0019314Y0090023D01*
X0019300Y0090119D01*
X0019290Y0090215D01*
X0019284Y0090312D01*
X0019282Y0090409D01*
X0046841Y0090409D02*
X0046843Y0090506D01*
X0046849Y0090603D01*
X0046859Y0090699D01*
X0046873Y0090795D01*
X0046891Y0090891D01*
X0046912Y0090985D01*
X0046938Y0091079D01*
X0046967Y0091171D01*
X0047001Y0091262D01*
X0047037Y0091352D01*
X0047078Y0091440D01*
X0047122Y0091526D01*
X0047170Y0091611D01*
X0047221Y0091693D01*
X0047275Y0091774D01*
X0047333Y0091852D01*
X0047394Y0091927D01*
X0047457Y0092000D01*
X0047524Y0092071D01*
X0047594Y0092138D01*
X0047666Y0092203D01*
X0047741Y0092264D01*
X0047819Y0092323D01*
X0047898Y0092378D01*
X0047980Y0092430D01*
X0048064Y0092478D01*
X0048150Y0092523D01*
X0048238Y0092565D01*
X0048327Y0092603D01*
X0048418Y0092637D01*
X0048510Y0092667D01*
X0048603Y0092694D01*
X0048698Y0092716D01*
X0048793Y0092735D01*
X0048889Y0092750D01*
X0048985Y0092761D01*
X0049082Y0092768D01*
X0049179Y0092771D01*
X0049276Y0092770D01*
X0049373Y0092765D01*
X0049469Y0092756D01*
X0049565Y0092743D01*
X0049661Y0092726D01*
X0049756Y0092705D01*
X0049849Y0092681D01*
X0049942Y0092652D01*
X0050034Y0092620D01*
X0050124Y0092584D01*
X0050212Y0092545D01*
X0050299Y0092501D01*
X0050384Y0092455D01*
X0050467Y0092404D01*
X0050548Y0092351D01*
X0050626Y0092294D01*
X0050703Y0092234D01*
X0050776Y0092171D01*
X0050847Y0092105D01*
X0050915Y0092036D01*
X0050981Y0091964D01*
X0051043Y0091890D01*
X0051102Y0091813D01*
X0051158Y0091734D01*
X0051211Y0091652D01*
X0051261Y0091569D01*
X0051306Y0091483D01*
X0051349Y0091396D01*
X0051388Y0091307D01*
X0051423Y0091217D01*
X0051454Y0091125D01*
X0051481Y0091032D01*
X0051505Y0090938D01*
X0051525Y0090843D01*
X0051541Y0090747D01*
X0051553Y0090651D01*
X0051561Y0090554D01*
X0051565Y0090457D01*
X0051565Y0090361D01*
X0051561Y0090264D01*
X0051553Y0090167D01*
X0051541Y0090071D01*
X0051525Y0089975D01*
X0051505Y0089880D01*
X0051481Y0089786D01*
X0051454Y0089693D01*
X0051423Y0089601D01*
X0051388Y0089511D01*
X0051349Y0089422D01*
X0051306Y0089335D01*
X0051261Y0089249D01*
X0051211Y0089166D01*
X0051158Y0089084D01*
X0051102Y0089005D01*
X0051043Y0088928D01*
X0050981Y0088854D01*
X0050915Y0088782D01*
X0050847Y0088713D01*
X0050776Y0088647D01*
X0050703Y0088584D01*
X0050626Y0088524D01*
X0050548Y0088467D01*
X0050467Y0088414D01*
X0050384Y0088363D01*
X0050299Y0088317D01*
X0050212Y0088273D01*
X0050124Y0088234D01*
X0050034Y0088198D01*
X0049942Y0088166D01*
X0049849Y0088137D01*
X0049756Y0088113D01*
X0049661Y0088092D01*
X0049565Y0088075D01*
X0049469Y0088062D01*
X0049373Y0088053D01*
X0049276Y0088048D01*
X0049179Y0088047D01*
X0049082Y0088050D01*
X0048985Y0088057D01*
X0048889Y0088068D01*
X0048793Y0088083D01*
X0048698Y0088102D01*
X0048603Y0088124D01*
X0048510Y0088151D01*
X0048418Y0088181D01*
X0048327Y0088215D01*
X0048238Y0088253D01*
X0048150Y0088295D01*
X0048064Y0088340D01*
X0047980Y0088388D01*
X0047898Y0088440D01*
X0047819Y0088495D01*
X0047741Y0088554D01*
X0047666Y0088615D01*
X0047594Y0088680D01*
X0047524Y0088747D01*
X0047457Y0088818D01*
X0047394Y0088891D01*
X0047333Y0088966D01*
X0047275Y0089044D01*
X0047221Y0089125D01*
X0047170Y0089207D01*
X0047122Y0089292D01*
X0047078Y0089378D01*
X0047037Y0089466D01*
X0047001Y0089556D01*
X0046967Y0089647D01*
X0046938Y0089739D01*
X0046912Y0089833D01*
X0046891Y0089927D01*
X0046873Y0090023D01*
X0046859Y0090119D01*
X0046849Y0090215D01*
X0046843Y0090312D01*
X0046841Y0090409D01*
X0187668Y0034268D02*
X0187670Y0034330D01*
X0187676Y0034393D01*
X0187686Y0034454D01*
X0187700Y0034515D01*
X0187717Y0034575D01*
X0187738Y0034634D01*
X0187764Y0034691D01*
X0187792Y0034746D01*
X0187824Y0034800D01*
X0187860Y0034851D01*
X0187898Y0034901D01*
X0187940Y0034947D01*
X0187984Y0034991D01*
X0188032Y0035032D01*
X0188081Y0035070D01*
X0188133Y0035104D01*
X0188187Y0035135D01*
X0188243Y0035163D01*
X0188301Y0035187D01*
X0188360Y0035208D01*
X0188420Y0035224D01*
X0188481Y0035237D01*
X0188543Y0035246D01*
X0188605Y0035251D01*
X0188668Y0035252D01*
X0188730Y0035249D01*
X0188792Y0035242D01*
X0188854Y0035231D01*
X0188914Y0035216D01*
X0188974Y0035198D01*
X0189032Y0035176D01*
X0189089Y0035150D01*
X0189144Y0035120D01*
X0189197Y0035087D01*
X0189248Y0035051D01*
X0189296Y0035012D01*
X0189342Y0034969D01*
X0189385Y0034924D01*
X0189425Y0034876D01*
X0189462Y0034826D01*
X0189496Y0034773D01*
X0189527Y0034719D01*
X0189553Y0034663D01*
X0189577Y0034605D01*
X0189596Y0034545D01*
X0189612Y0034485D01*
X0189624Y0034423D01*
X0189632Y0034362D01*
X0189636Y0034299D01*
X0189636Y0034237D01*
X0189632Y0034174D01*
X0189624Y0034113D01*
X0189612Y0034051D01*
X0189596Y0033991D01*
X0189577Y0033931D01*
X0189553Y0033873D01*
X0189527Y0033817D01*
X0189496Y0033763D01*
X0189462Y0033710D01*
X0189425Y0033660D01*
X0189385Y0033612D01*
X0189342Y0033567D01*
X0189296Y0033524D01*
X0189248Y0033485D01*
X0189197Y0033449D01*
X0189144Y0033416D01*
X0189089Y0033386D01*
X0189032Y0033360D01*
X0188974Y0033338D01*
X0188914Y0033320D01*
X0188854Y0033305D01*
X0188792Y0033294D01*
X0188730Y0033287D01*
X0188668Y0033284D01*
X0188605Y0033285D01*
X0188543Y0033290D01*
X0188481Y0033299D01*
X0188420Y0033312D01*
X0188360Y0033328D01*
X0188301Y0033349D01*
X0188243Y0033373D01*
X0188187Y0033401D01*
X0188133Y0033432D01*
X0188081Y0033466D01*
X0188032Y0033504D01*
X0187984Y0033545D01*
X0187940Y0033589D01*
X0187898Y0033635D01*
X0187860Y0033685D01*
X0187824Y0033736D01*
X0187792Y0033790D01*
X0187764Y0033845D01*
X0187738Y0033902D01*
X0187717Y0033961D01*
X0187700Y0034021D01*
X0187686Y0034082D01*
X0187676Y0034143D01*
X0187670Y0034206D01*
X0187668Y0034268D01*
X0187668Y0018520D02*
X0187670Y0018582D01*
X0187676Y0018645D01*
X0187686Y0018706D01*
X0187700Y0018767D01*
X0187717Y0018827D01*
X0187738Y0018886D01*
X0187764Y0018943D01*
X0187792Y0018998D01*
X0187824Y0019052D01*
X0187860Y0019103D01*
X0187898Y0019153D01*
X0187940Y0019199D01*
X0187984Y0019243D01*
X0188032Y0019284D01*
X0188081Y0019322D01*
X0188133Y0019356D01*
X0188187Y0019387D01*
X0188243Y0019415D01*
X0188301Y0019439D01*
X0188360Y0019460D01*
X0188420Y0019476D01*
X0188481Y0019489D01*
X0188543Y0019498D01*
X0188605Y0019503D01*
X0188668Y0019504D01*
X0188730Y0019501D01*
X0188792Y0019494D01*
X0188854Y0019483D01*
X0188914Y0019468D01*
X0188974Y0019450D01*
X0189032Y0019428D01*
X0189089Y0019402D01*
X0189144Y0019372D01*
X0189197Y0019339D01*
X0189248Y0019303D01*
X0189296Y0019264D01*
X0189342Y0019221D01*
X0189385Y0019176D01*
X0189425Y0019128D01*
X0189462Y0019078D01*
X0189496Y0019025D01*
X0189527Y0018971D01*
X0189553Y0018915D01*
X0189577Y0018857D01*
X0189596Y0018797D01*
X0189612Y0018737D01*
X0189624Y0018675D01*
X0189632Y0018614D01*
X0189636Y0018551D01*
X0189636Y0018489D01*
X0189632Y0018426D01*
X0189624Y0018365D01*
X0189612Y0018303D01*
X0189596Y0018243D01*
X0189577Y0018183D01*
X0189553Y0018125D01*
X0189527Y0018069D01*
X0189496Y0018015D01*
X0189462Y0017962D01*
X0189425Y0017912D01*
X0189385Y0017864D01*
X0189342Y0017819D01*
X0189296Y0017776D01*
X0189248Y0017737D01*
X0189197Y0017701D01*
X0189144Y0017668D01*
X0189089Y0017638D01*
X0189032Y0017612D01*
X0188974Y0017590D01*
X0188914Y0017572D01*
X0188854Y0017557D01*
X0188792Y0017546D01*
X0188730Y0017539D01*
X0188668Y0017536D01*
X0188605Y0017537D01*
X0188543Y0017542D01*
X0188481Y0017551D01*
X0188420Y0017564D01*
X0188360Y0017580D01*
X0188301Y0017601D01*
X0188243Y0017625D01*
X0188187Y0017653D01*
X0188133Y0017684D01*
X0188081Y0017718D01*
X0188032Y0017756D01*
X0187984Y0017797D01*
X0187940Y0017841D01*
X0187898Y0017887D01*
X0187860Y0017937D01*
X0187824Y0017988D01*
X0187792Y0018042D01*
X0187764Y0018097D01*
X0187738Y0018154D01*
X0187717Y0018213D01*
X0187700Y0018273D01*
X0187686Y0018334D01*
X0187676Y0018395D01*
X0187670Y0018458D01*
X0187668Y0018520D01*
D11*
X0109419Y0002614D03*
D12*
X0114242Y0153244D03*
D13*
X0063573Y0109228D02*
X0022707Y0109228D01*
X0022707Y0082063D01*
X0022707Y0080094D01*
X0063573Y0080094D01*
X0063573Y0082063D01*
X0022707Y0082063D01*
X0063573Y0082063D02*
X0063573Y0109228D01*
X0055352Y0016122D02*
X0049352Y0016122D01*
X0049292Y0016120D01*
X0049231Y0016115D01*
X0049172Y0016106D01*
X0049113Y0016093D01*
X0049054Y0016077D01*
X0048997Y0016057D01*
X0048942Y0016034D01*
X0048887Y0016007D01*
X0048835Y0015978D01*
X0048784Y0015945D01*
X0048735Y0015909D01*
X0048689Y0015871D01*
X0048645Y0015829D01*
X0048603Y0015785D01*
X0048565Y0015739D01*
X0048529Y0015690D01*
X0048496Y0015639D01*
X0048467Y0015587D01*
X0048440Y0015532D01*
X0048417Y0015477D01*
X0048397Y0015420D01*
X0048381Y0015361D01*
X0048368Y0015302D01*
X0048359Y0015243D01*
X0048354Y0015182D01*
X0048352Y0015122D01*
X0048352Y0004122D01*
X0048354Y0004062D01*
X0048359Y0004001D01*
X0048368Y0003942D01*
X0048381Y0003883D01*
X0048397Y0003824D01*
X0048417Y0003767D01*
X0048440Y0003712D01*
X0048467Y0003657D01*
X0048496Y0003605D01*
X0048529Y0003554D01*
X0048565Y0003505D01*
X0048603Y0003459D01*
X0048645Y0003415D01*
X0048689Y0003373D01*
X0048735Y0003335D01*
X0048784Y0003299D01*
X0048835Y0003266D01*
X0048887Y0003237D01*
X0048942Y0003210D01*
X0048997Y0003187D01*
X0049054Y0003167D01*
X0049113Y0003151D01*
X0049172Y0003138D01*
X0049231Y0003129D01*
X0049292Y0003124D01*
X0049352Y0003122D01*
X0055352Y0003122D01*
X0055412Y0003124D01*
X0055473Y0003129D01*
X0055532Y0003138D01*
X0055591Y0003151D01*
X0055650Y0003167D01*
X0055707Y0003187D01*
X0055762Y0003210D01*
X0055817Y0003237D01*
X0055869Y0003266D01*
X0055920Y0003299D01*
X0055969Y0003335D01*
X0056015Y0003373D01*
X0056059Y0003415D01*
X0056101Y0003459D01*
X0056139Y0003505D01*
X0056175Y0003554D01*
X0056208Y0003605D01*
X0056237Y0003657D01*
X0056264Y0003712D01*
X0056287Y0003767D01*
X0056307Y0003824D01*
X0056323Y0003883D01*
X0056336Y0003942D01*
X0056345Y0004001D01*
X0056350Y0004062D01*
X0056352Y0004122D01*
X0056352Y0015122D01*
X0056350Y0015182D01*
X0056345Y0015243D01*
X0056336Y0015302D01*
X0056323Y0015361D01*
X0056307Y0015420D01*
X0056287Y0015477D01*
X0056264Y0015532D01*
X0056237Y0015587D01*
X0056208Y0015639D01*
X0056175Y0015690D01*
X0056139Y0015739D01*
X0056101Y0015785D01*
X0056059Y0015829D01*
X0056015Y0015871D01*
X0055969Y0015909D01*
X0055920Y0015945D01*
X0055869Y0015978D01*
X0055817Y0016007D01*
X0055762Y0016034D01*
X0055707Y0016057D01*
X0055650Y0016077D01*
X0055591Y0016093D01*
X0055532Y0016106D01*
X0055473Y0016115D01*
X0055412Y0016120D01*
X0055352Y0016122D01*
X0042746Y0015646D02*
X0042746Y0016827D01*
X0028573Y0016827D01*
X0028573Y0015646D01*
X0028573Y0005921D02*
X0030935Y0004228D01*
X0042746Y0004228D01*
X0042746Y0005409D01*
D14*
X0047377Y0016969D02*
X0047377Y0018270D01*
X0046509Y0019138D01*
X0046509Y0019572D01*
X0047377Y0018270D02*
X0048244Y0019138D01*
X0048244Y0019572D01*
X0049456Y0019572D02*
X0051191Y0019572D01*
X0051191Y0016969D01*
X0049456Y0016969D01*
X0050323Y0018270D02*
X0051191Y0018270D01*
X0052403Y0016969D02*
X0053704Y0018270D01*
X0054137Y0017837D02*
X0052403Y0019572D01*
X0054137Y0019572D02*
X0054137Y0016969D01*
X0055349Y0017403D02*
X0055783Y0016969D01*
X0057084Y0016969D01*
X0057084Y0019572D01*
X0055783Y0019572D01*
X0055349Y0019138D01*
X0055349Y0018704D01*
X0055783Y0018270D01*
X0057084Y0018270D01*
X0055783Y0018270D02*
X0055349Y0017837D01*
X0055349Y0017403D01*
X0162305Y0065424D02*
X0162305Y0091625D01*
X0163702Y0093023D01*
X0189903Y0093023D01*
X0189903Y0065424D01*
X0162305Y0065424D01*
X0163890Y0090024D02*
X0163892Y0090099D01*
X0163898Y0090173D01*
X0163908Y0090247D01*
X0163921Y0090320D01*
X0163939Y0090393D01*
X0163960Y0090464D01*
X0163985Y0090535D01*
X0164014Y0090604D01*
X0164047Y0090671D01*
X0164083Y0090736D01*
X0164122Y0090800D01*
X0164164Y0090861D01*
X0164210Y0090920D01*
X0164259Y0090977D01*
X0164311Y0091030D01*
X0164365Y0091081D01*
X0164422Y0091130D01*
X0164482Y0091174D01*
X0164544Y0091216D01*
X0164608Y0091255D01*
X0164674Y0091290D01*
X0164741Y0091321D01*
X0164811Y0091349D01*
X0164881Y0091373D01*
X0164953Y0091394D01*
X0165026Y0091410D01*
X0165099Y0091423D01*
X0165174Y0091432D01*
X0165248Y0091437D01*
X0165323Y0091438D01*
X0165397Y0091435D01*
X0165472Y0091428D01*
X0165545Y0091417D01*
X0165619Y0091403D01*
X0165691Y0091384D01*
X0165762Y0091362D01*
X0165832Y0091336D01*
X0165901Y0091306D01*
X0165967Y0091273D01*
X0166032Y0091236D01*
X0166095Y0091196D01*
X0166156Y0091152D01*
X0166214Y0091106D01*
X0166270Y0091056D01*
X0166323Y0091004D01*
X0166374Y0090949D01*
X0166421Y0090891D01*
X0166465Y0090831D01*
X0166506Y0090768D01*
X0166544Y0090704D01*
X0166578Y0090638D01*
X0166609Y0090569D01*
X0166636Y0090500D01*
X0166659Y0090429D01*
X0166678Y0090357D01*
X0166694Y0090284D01*
X0166706Y0090210D01*
X0166714Y0090136D01*
X0166718Y0090061D01*
X0166718Y0089987D01*
X0166714Y0089912D01*
X0166706Y0089838D01*
X0166694Y0089764D01*
X0166678Y0089691D01*
X0166659Y0089619D01*
X0166636Y0089548D01*
X0166609Y0089479D01*
X0166578Y0089410D01*
X0166544Y0089344D01*
X0166506Y0089280D01*
X0166465Y0089217D01*
X0166421Y0089157D01*
X0166374Y0089099D01*
X0166323Y0089044D01*
X0166270Y0088992D01*
X0166214Y0088942D01*
X0166156Y0088896D01*
X0166095Y0088852D01*
X0166032Y0088812D01*
X0165967Y0088775D01*
X0165901Y0088742D01*
X0165832Y0088712D01*
X0165762Y0088686D01*
X0165691Y0088664D01*
X0165619Y0088645D01*
X0165545Y0088631D01*
X0165472Y0088620D01*
X0165397Y0088613D01*
X0165323Y0088610D01*
X0165248Y0088611D01*
X0165174Y0088616D01*
X0165099Y0088625D01*
X0165026Y0088638D01*
X0164953Y0088654D01*
X0164881Y0088675D01*
X0164811Y0088699D01*
X0164741Y0088727D01*
X0164674Y0088758D01*
X0164608Y0088793D01*
X0164544Y0088832D01*
X0164482Y0088874D01*
X0164422Y0088918D01*
X0164365Y0088967D01*
X0164311Y0089018D01*
X0164259Y0089071D01*
X0164210Y0089128D01*
X0164164Y0089187D01*
X0164122Y0089248D01*
X0164083Y0089312D01*
X0164047Y0089377D01*
X0164014Y0089444D01*
X0163985Y0089513D01*
X0163960Y0089584D01*
X0163939Y0089655D01*
X0163921Y0089728D01*
X0163908Y0089801D01*
X0163898Y0089875D01*
X0163892Y0089949D01*
X0163890Y0090024D01*
X0184144Y0110567D02*
X0188344Y0110567D01*
X0192344Y0110567D01*
X0196544Y0110567D01*
X0196620Y0110569D01*
X0196696Y0110575D01*
X0196771Y0110584D01*
X0196846Y0110598D01*
X0196920Y0110615D01*
X0196993Y0110636D01*
X0197065Y0110660D01*
X0197136Y0110689D01*
X0197205Y0110720D01*
X0197272Y0110755D01*
X0197337Y0110794D01*
X0197401Y0110836D01*
X0197462Y0110881D01*
X0197521Y0110929D01*
X0197577Y0110980D01*
X0197631Y0111034D01*
X0197682Y0111090D01*
X0197730Y0111149D01*
X0197775Y0111210D01*
X0197817Y0111274D01*
X0197856Y0111339D01*
X0197891Y0111406D01*
X0197922Y0111475D01*
X0197951Y0111546D01*
X0197975Y0111618D01*
X0197996Y0111691D01*
X0198013Y0111765D01*
X0198027Y0111840D01*
X0198036Y0111915D01*
X0198042Y0111991D01*
X0198044Y0112067D01*
X0198044Y0149067D01*
X0198042Y0149143D01*
X0198036Y0149219D01*
X0198027Y0149294D01*
X0198013Y0149369D01*
X0197996Y0149443D01*
X0197975Y0149516D01*
X0197951Y0149588D01*
X0197922Y0149659D01*
X0197891Y0149728D01*
X0197856Y0149795D01*
X0197817Y0149860D01*
X0197775Y0149924D01*
X0197730Y0149985D01*
X0197682Y0150044D01*
X0197631Y0150100D01*
X0197577Y0150154D01*
X0197521Y0150205D01*
X0197462Y0150253D01*
X0197401Y0150298D01*
X0197337Y0150340D01*
X0197272Y0150379D01*
X0197205Y0150414D01*
X0197136Y0150445D01*
X0197065Y0150474D01*
X0196993Y0150498D01*
X0196920Y0150519D01*
X0196846Y0150536D01*
X0196771Y0150550D01*
X0196696Y0150559D01*
X0196620Y0150565D01*
X0196544Y0150567D01*
X0184144Y0150567D01*
X0184068Y0150565D01*
X0183992Y0150559D01*
X0183917Y0150550D01*
X0183842Y0150536D01*
X0183768Y0150519D01*
X0183695Y0150498D01*
X0183623Y0150474D01*
X0183552Y0150445D01*
X0183483Y0150414D01*
X0183416Y0150379D01*
X0183351Y0150340D01*
X0183287Y0150298D01*
X0183226Y0150253D01*
X0183167Y0150205D01*
X0183111Y0150154D01*
X0183057Y0150100D01*
X0183006Y0150044D01*
X0182958Y0149985D01*
X0182913Y0149924D01*
X0182871Y0149860D01*
X0182832Y0149795D01*
X0182797Y0149728D01*
X0182766Y0149659D01*
X0182737Y0149588D01*
X0182713Y0149516D01*
X0182692Y0149443D01*
X0182675Y0149369D01*
X0182661Y0149294D01*
X0182652Y0149219D01*
X0182646Y0149143D01*
X0182644Y0149067D01*
X0182644Y0112067D01*
X0182646Y0111991D01*
X0182652Y0111915D01*
X0182661Y0111840D01*
X0182675Y0111765D01*
X0182692Y0111691D01*
X0182713Y0111618D01*
X0182737Y0111546D01*
X0182766Y0111475D01*
X0182797Y0111406D01*
X0182832Y0111339D01*
X0182871Y0111274D01*
X0182913Y0111210D01*
X0182958Y0111149D01*
X0183006Y0111090D01*
X0183057Y0111034D01*
X0183111Y0110980D01*
X0183167Y0110929D01*
X0183226Y0110881D01*
X0183287Y0110836D01*
X0183351Y0110794D01*
X0183416Y0110755D01*
X0183483Y0110720D01*
X0183552Y0110689D01*
X0183623Y0110660D01*
X0183695Y0110636D01*
X0183768Y0110615D01*
X0183842Y0110598D01*
X0183917Y0110584D01*
X0183992Y0110575D01*
X0184068Y0110569D01*
X0184144Y0110567D01*
X0188344Y0110567D02*
X0188346Y0110655D01*
X0188352Y0110744D01*
X0188362Y0110832D01*
X0188375Y0110919D01*
X0188393Y0111006D01*
X0188414Y0111092D01*
X0188439Y0111177D01*
X0188468Y0111260D01*
X0188501Y0111343D01*
X0188537Y0111423D01*
X0188576Y0111502D01*
X0188619Y0111580D01*
X0188666Y0111655D01*
X0188716Y0111728D01*
X0188769Y0111799D01*
X0188825Y0111868D01*
X0188884Y0111934D01*
X0188946Y0111997D01*
X0189010Y0112057D01*
X0189077Y0112115D01*
X0189147Y0112169D01*
X0189219Y0112221D01*
X0189293Y0112269D01*
X0189370Y0112314D01*
X0189448Y0112355D01*
X0189528Y0112393D01*
X0189609Y0112427D01*
X0189692Y0112458D01*
X0189777Y0112485D01*
X0189862Y0112508D01*
X0189948Y0112527D01*
X0190036Y0112543D01*
X0190123Y0112555D01*
X0190211Y0112563D01*
X0190300Y0112567D01*
X0190388Y0112567D01*
X0190477Y0112563D01*
X0190565Y0112555D01*
X0190652Y0112543D01*
X0190740Y0112527D01*
X0190826Y0112508D01*
X0190911Y0112485D01*
X0190996Y0112458D01*
X0191079Y0112427D01*
X0191160Y0112393D01*
X0191240Y0112355D01*
X0191318Y0112314D01*
X0191395Y0112269D01*
X0191469Y0112221D01*
X0191541Y0112169D01*
X0191611Y0112115D01*
X0191678Y0112057D01*
X0191742Y0111997D01*
X0191804Y0111934D01*
X0191863Y0111868D01*
X0191919Y0111799D01*
X0191972Y0111728D01*
X0192022Y0111655D01*
X0192069Y0111580D01*
X0192112Y0111502D01*
X0192151Y0111423D01*
X0192187Y0111343D01*
X0192220Y0111260D01*
X0192249Y0111177D01*
X0192274Y0111092D01*
X0192295Y0111006D01*
X0192313Y0110919D01*
X0192326Y0110832D01*
X0192336Y0110744D01*
X0192342Y0110655D01*
X0192344Y0110567D01*
D15*
X0184044Y0110567D02*
X0184044Y0150567D01*
D16*
X0159389Y0137011D02*
X0158422Y0137978D01*
X0158422Y0135076D01*
X0159389Y0135076D02*
X0157454Y0135076D01*
X0156443Y0135560D02*
X0154508Y0137495D01*
X0154508Y0135560D01*
X0154992Y0135076D01*
X0155959Y0135076D01*
X0156443Y0135560D01*
X0156443Y0137495D01*
X0155959Y0137978D01*
X0154992Y0137978D01*
X0154508Y0137495D01*
X0153496Y0137978D02*
X0153496Y0135076D01*
X0153496Y0136043D02*
X0152045Y0137011D01*
X0153496Y0136043D02*
X0152045Y0135076D01*
X0141954Y0135848D02*
X0139052Y0137782D01*
X0141954Y0137782D01*
X0141954Y0138794D02*
X0141954Y0140729D01*
X0141954Y0139762D02*
X0139052Y0139762D01*
X0138220Y0140591D02*
X0138220Y0138656D01*
X0138704Y0138172D01*
X0140155Y0138172D01*
X0140155Y0141075D01*
X0138704Y0141075D01*
X0138220Y0140591D01*
X0137209Y0141075D02*
X0136241Y0141075D01*
X0136471Y0140729D02*
X0136954Y0140245D01*
X0136954Y0138794D01*
X0134052Y0138794D01*
X0134052Y0140245D01*
X0134536Y0140729D01*
X0136471Y0140729D01*
X0136725Y0141075D02*
X0136725Y0138172D01*
X0136954Y0137782D02*
X0134052Y0137782D01*
X0136954Y0135848D01*
X0134052Y0135848D01*
X0133793Y0136075D02*
X0133309Y0135591D01*
X0133309Y0133656D01*
X0133793Y0133172D01*
X0134761Y0133172D01*
X0135244Y0133656D01*
X0135244Y0135591D01*
X0134761Y0136075D01*
X0133793Y0136075D01*
X0134536Y0134836D02*
X0135503Y0134836D01*
X0135503Y0133868D01*
X0136241Y0133172D02*
X0137209Y0133172D01*
X0136954Y0133385D02*
X0136471Y0132901D01*
X0134536Y0132901D01*
X0134052Y0133385D01*
X0134052Y0134352D01*
X0134536Y0134836D01*
X0136471Y0134836D02*
X0136954Y0134352D01*
X0136954Y0133385D01*
X0136725Y0133172D02*
X0136725Y0136075D01*
X0137209Y0136075D02*
X0136241Y0136075D01*
X0138220Y0135591D02*
X0138704Y0136075D01*
X0140155Y0136075D01*
X0140155Y0133172D01*
X0138704Y0133172D01*
X0138220Y0133656D01*
X0138220Y0135591D01*
X0139052Y0135848D02*
X0141954Y0135848D01*
X0140987Y0134836D02*
X0139052Y0134836D01*
X0140503Y0134836D02*
X0140503Y0132901D01*
X0140987Y0132901D02*
X0141954Y0133868D01*
X0140987Y0134836D01*
X0140987Y0132901D02*
X0139052Y0132901D01*
X0138704Y0131075D02*
X0140155Y0131075D01*
X0140155Y0128172D01*
X0138704Y0128172D01*
X0138220Y0128656D01*
X0138220Y0130591D01*
X0138704Y0131075D01*
X0137209Y0131075D02*
X0136241Y0131075D01*
X0136725Y0131075D02*
X0136725Y0128172D01*
X0137209Y0128172D02*
X0136241Y0128172D01*
X0135244Y0128656D02*
X0134761Y0128172D01*
X0133793Y0128172D01*
X0133309Y0128656D01*
X0133309Y0130591D01*
X0133793Y0131075D01*
X0134761Y0131075D01*
X0135244Y0130591D01*
X0135244Y0128656D01*
X0134761Y0126075D02*
X0133793Y0126075D01*
X0133309Y0125591D01*
X0133309Y0123656D01*
X0133793Y0123172D01*
X0134761Y0123172D01*
X0135244Y0123656D01*
X0135244Y0125591D01*
X0134761Y0126075D01*
X0136241Y0126075D02*
X0137209Y0126075D01*
X0136725Y0126075D02*
X0136725Y0123172D01*
X0137209Y0123172D02*
X0136241Y0123172D01*
X0138220Y0123656D02*
X0138220Y0125591D01*
X0138704Y0126075D01*
X0140155Y0126075D01*
X0140155Y0123172D01*
X0138704Y0123172D01*
X0138220Y0123656D01*
X0138704Y0121075D02*
X0140155Y0121075D01*
X0140155Y0118172D01*
X0138704Y0118172D01*
X0138220Y0118656D01*
X0138220Y0120591D01*
X0138704Y0121075D01*
X0137209Y0121075D02*
X0136241Y0121075D01*
X0136725Y0121075D02*
X0136725Y0118172D01*
X0137209Y0118172D02*
X0136241Y0118172D01*
X0135244Y0118656D02*
X0134761Y0118172D01*
X0133793Y0118172D01*
X0133309Y0118656D01*
X0133309Y0120591D01*
X0133793Y0121075D01*
X0134761Y0121075D01*
X0135244Y0120591D01*
X0135244Y0118656D01*
X0134761Y0116075D02*
X0133793Y0116075D01*
X0133309Y0115591D01*
X0133309Y0113656D01*
X0133793Y0113172D01*
X0134761Y0113172D01*
X0135244Y0113656D01*
X0135244Y0115591D01*
X0134761Y0116075D01*
X0136241Y0116075D02*
X0137209Y0116075D01*
X0136725Y0116075D02*
X0136725Y0113172D01*
X0137209Y0113172D02*
X0136241Y0113172D01*
X0138220Y0113656D02*
X0138220Y0115591D01*
X0138704Y0116075D01*
X0140155Y0116075D01*
X0140155Y0113172D01*
X0138704Y0113172D01*
X0138220Y0113656D01*
X0136725Y0111075D02*
X0135757Y0111075D01*
X0135274Y0110591D01*
X0135274Y0110107D01*
X0135757Y0109623D01*
X0135274Y0109140D01*
X0135274Y0108656D01*
X0135757Y0108172D01*
X0136725Y0108172D01*
X0137209Y0108656D01*
X0136241Y0109623D02*
X0135757Y0109623D01*
X0134262Y0109140D02*
X0133295Y0108172D01*
X0132327Y0109140D01*
X0132327Y0111075D01*
X0131316Y0110591D02*
X0130832Y0111075D01*
X0129864Y0111075D01*
X0129381Y0110591D01*
X0129381Y0110107D01*
X0129864Y0109623D01*
X0129381Y0109140D01*
X0129381Y0108656D01*
X0129864Y0108172D01*
X0130832Y0108172D01*
X0131316Y0108656D01*
X0130348Y0109623D02*
X0129864Y0109623D01*
X0130847Y0113172D02*
X0131814Y0113172D01*
X0132298Y0113656D01*
X0132298Y0114623D02*
X0131330Y0115107D01*
X0130847Y0115107D01*
X0130363Y0114623D01*
X0130363Y0113656D01*
X0130847Y0113172D01*
X0132298Y0114623D02*
X0132298Y0116075D01*
X0130363Y0116075D01*
X0130847Y0118172D02*
X0130847Y0121075D01*
X0132298Y0119623D01*
X0130363Y0119623D01*
X0130847Y0123172D02*
X0131814Y0123172D01*
X0132298Y0123656D01*
X0131330Y0124623D02*
X0130847Y0124623D01*
X0130363Y0124140D01*
X0130363Y0123656D01*
X0130847Y0123172D01*
X0130847Y0124623D02*
X0130363Y0125107D01*
X0130363Y0125591D01*
X0130847Y0126075D01*
X0131814Y0126075D01*
X0132298Y0125591D01*
X0132298Y0128172D02*
X0130363Y0130107D01*
X0130363Y0130591D01*
X0130847Y0131075D01*
X0131814Y0131075D01*
X0132298Y0130591D01*
X0132298Y0128172D02*
X0130363Y0128172D01*
X0130363Y0133172D02*
X0132298Y0133172D01*
X0131330Y0133172D02*
X0131330Y0136075D01*
X0132298Y0135107D01*
X0131814Y0138172D02*
X0132298Y0138656D01*
X0130363Y0140591D01*
X0130363Y0138656D01*
X0130847Y0138172D01*
X0131814Y0138172D01*
X0132298Y0138656D02*
X0132298Y0140591D01*
X0131814Y0141075D01*
X0130847Y0141075D01*
X0130363Y0140591D01*
X0131316Y0143172D02*
X0129381Y0143172D01*
X0130348Y0144623D02*
X0131316Y0144623D01*
X0132327Y0144140D02*
X0132327Y0143656D01*
X0132811Y0143172D01*
X0133778Y0143172D01*
X0134262Y0143656D01*
X0133778Y0144623D02*
X0132811Y0144623D01*
X0132327Y0144140D01*
X0131316Y0143172D02*
X0131316Y0146075D01*
X0129381Y0146075D01*
X0128369Y0146075D02*
X0126434Y0146075D01*
X0127402Y0146075D02*
X0127402Y0143172D01*
X0132327Y0145591D02*
X0132811Y0146075D01*
X0133778Y0146075D01*
X0134262Y0145591D01*
X0134262Y0145107D01*
X0133778Y0144623D01*
X0135274Y0143172D02*
X0137209Y0143172D01*
X0137209Y0146075D01*
X0135274Y0146075D01*
X0136241Y0144623D02*
X0137209Y0144623D01*
X0138220Y0144623D02*
X0138704Y0144140D01*
X0140155Y0144140D01*
X0139188Y0144140D02*
X0138220Y0143172D01*
X0138220Y0144623D02*
X0138220Y0145591D01*
X0138704Y0146075D01*
X0140155Y0146075D01*
X0140155Y0143172D01*
X0135244Y0140591D02*
X0135244Y0138656D01*
X0134761Y0138172D01*
X0133793Y0138172D01*
X0133309Y0138656D01*
X0133309Y0140591D01*
X0133793Y0141075D01*
X0134761Y0141075D01*
X0135244Y0140591D01*
X0136241Y0138172D02*
X0137209Y0138172D01*
X0163900Y0114149D02*
X0163900Y0112214D01*
X0165835Y0114149D01*
X0166319Y0114149D01*
X0166802Y0113665D01*
X0166802Y0112698D01*
X0166319Y0112214D01*
X0166319Y0111202D02*
X0166802Y0110719D01*
X0166802Y0109751D01*
X0166319Y0109267D01*
X0166319Y0108256D02*
X0166802Y0107772D01*
X0166802Y0106805D01*
X0166319Y0106321D01*
X0166319Y0105309D02*
X0166802Y0104826D01*
X0166802Y0103858D01*
X0166319Y0103374D01*
X0166319Y0105309D02*
X0165835Y0105309D01*
X0163900Y0103374D01*
X0163900Y0105309D01*
X0163900Y0106321D02*
X0165835Y0108256D01*
X0166319Y0108256D01*
X0163900Y0108256D02*
X0163900Y0106321D01*
X0163900Y0109267D02*
X0165835Y0111202D01*
X0166319Y0111202D01*
X0163900Y0111202D02*
X0163900Y0109267D01*
X0160433Y0110121D02*
X0157531Y0110121D01*
X0157531Y0109154D02*
X0157531Y0111089D01*
X0157531Y0112100D02*
X0160433Y0112100D01*
X0159466Y0113551D02*
X0158498Y0112100D01*
X0157531Y0113551D01*
X0160433Y0110121D02*
X0159466Y0109154D01*
X0140155Y0109623D02*
X0138220Y0109623D01*
X0139188Y0110591D02*
X0139188Y0108656D01*
X0138704Y0106075D02*
X0139671Y0106075D01*
X0140155Y0105591D01*
X0140155Y0103656D01*
X0139671Y0103172D01*
X0138704Y0103172D01*
X0138220Y0103656D01*
X0138220Y0104623D01*
X0139188Y0104623D01*
X0138220Y0105591D02*
X0138704Y0106075D01*
X0137209Y0106075D02*
X0135274Y0103172D01*
X0135274Y0106075D01*
X0134262Y0106075D02*
X0132811Y0106075D01*
X0132327Y0105591D01*
X0132327Y0103656D01*
X0132811Y0103172D01*
X0134262Y0103172D01*
X0134262Y0106075D01*
X0137209Y0106075D02*
X0137209Y0103172D01*
X0136725Y0101075D02*
X0137209Y0100591D01*
X0137209Y0098656D01*
X0136725Y0098172D01*
X0135757Y0098172D01*
X0135274Y0098656D01*
X0134536Y0099479D02*
X0136471Y0099479D01*
X0134536Y0097544D01*
X0134052Y0098028D01*
X0134052Y0098996D01*
X0134536Y0099479D01*
X0134262Y0099140D02*
X0132327Y0101075D01*
X0134262Y0101075D02*
X0134262Y0098172D01*
X0134536Y0097544D02*
X0136471Y0097544D01*
X0136954Y0098028D01*
X0136954Y0098996D01*
X0136471Y0099479D01*
X0136725Y0101075D02*
X0135757Y0101075D01*
X0135274Y0100591D01*
X0133778Y0099623D02*
X0132327Y0098172D01*
X0131954Y0098512D02*
X0130987Y0097544D01*
X0131471Y0096533D02*
X0129536Y0096533D01*
X0129052Y0096049D01*
X0129052Y0095082D01*
X0129536Y0094598D01*
X0131471Y0094598D01*
X0131954Y0095082D01*
X0131954Y0096049D01*
X0131471Y0096533D01*
X0131814Y0096075D02*
X0132298Y0095591D01*
X0132298Y0093656D01*
X0131814Y0093172D01*
X0130847Y0093172D01*
X0130363Y0093656D01*
X0130363Y0095591D01*
X0130847Y0096075D01*
X0131814Y0096075D01*
X0133309Y0095591D02*
X0133793Y0096075D01*
X0134761Y0096075D01*
X0135244Y0095591D01*
X0135244Y0095107D01*
X0134761Y0094623D01*
X0133793Y0094623D01*
X0133309Y0094140D01*
X0133309Y0093656D01*
X0133793Y0093172D01*
X0134761Y0093172D01*
X0135244Y0093656D01*
X0136241Y0093172D02*
X0137209Y0093172D01*
X0136954Y0093117D02*
X0134052Y0093117D01*
X0134052Y0092634D02*
X0134052Y0093601D01*
X0134536Y0094598D02*
X0134052Y0095082D01*
X0134052Y0096049D01*
X0134536Y0096533D01*
X0136471Y0096533D01*
X0136954Y0096049D01*
X0136954Y0095082D01*
X0136471Y0094598D01*
X0134536Y0094598D01*
X0136241Y0096075D02*
X0137209Y0096075D01*
X0136725Y0096075D02*
X0136725Y0093172D01*
X0136954Y0093601D02*
X0136954Y0092634D01*
X0136471Y0091622D02*
X0135503Y0091622D01*
X0135019Y0091138D01*
X0135019Y0089687D01*
X0134262Y0090107D02*
X0134262Y0090591D01*
X0133778Y0091075D01*
X0132811Y0091075D01*
X0132327Y0090591D01*
X0131954Y0091138D02*
X0131471Y0091622D01*
X0130503Y0091622D01*
X0130019Y0091138D01*
X0130019Y0089687D01*
X0129052Y0089687D02*
X0131954Y0089687D01*
X0131954Y0091138D01*
X0131316Y0091075D02*
X0130348Y0091075D01*
X0130832Y0091075D02*
X0130832Y0088172D01*
X0131316Y0088172D02*
X0130348Y0088172D01*
X0130503Y0087708D02*
X0130503Y0088676D01*
X0129536Y0088676D01*
X0129052Y0088192D01*
X0129052Y0087224D01*
X0129536Y0086741D01*
X0131471Y0086741D01*
X0131954Y0087224D01*
X0131954Y0088192D01*
X0131471Y0088676D01*
X0132327Y0088656D02*
X0132811Y0088172D01*
X0133778Y0088172D01*
X0134262Y0088656D01*
X0134536Y0088676D02*
X0135503Y0088676D01*
X0135503Y0087708D01*
X0135757Y0088172D02*
X0135274Y0088656D01*
X0135274Y0090591D01*
X0135757Y0091075D01*
X0136725Y0091075D01*
X0137209Y0090591D01*
X0137209Y0088656D01*
X0136725Y0088172D01*
X0135757Y0088172D01*
X0136471Y0088676D02*
X0136954Y0088192D01*
X0136954Y0087224D01*
X0136471Y0086741D01*
X0134536Y0086741D01*
X0134052Y0087224D01*
X0134052Y0088192D01*
X0134536Y0088676D01*
X0134052Y0089687D02*
X0136954Y0089687D01*
X0136954Y0091138D01*
X0136471Y0091622D01*
X0138220Y0091075D02*
X0138220Y0088172D01*
X0139052Y0088192D02*
X0139052Y0087224D01*
X0139536Y0086741D01*
X0141471Y0086741D01*
X0141954Y0087224D01*
X0141954Y0088192D01*
X0141471Y0088676D01*
X0140503Y0088676D02*
X0140503Y0087708D01*
X0140155Y0088172D02*
X0140155Y0091075D01*
X0139188Y0090107D01*
X0138220Y0091075D01*
X0139052Y0091622D02*
X0141954Y0091622D01*
X0141954Y0092634D02*
X0139052Y0092634D01*
X0139052Y0094085D01*
X0139536Y0094569D01*
X0141471Y0094569D01*
X0141954Y0094085D01*
X0141954Y0092634D01*
X0140155Y0093172D02*
X0140155Y0096075D01*
X0139188Y0095107D01*
X0138220Y0096075D01*
X0138220Y0093172D01*
X0139052Y0091622D02*
X0141954Y0089687D01*
X0139052Y0089687D01*
X0139536Y0088676D02*
X0140503Y0088676D01*
X0139536Y0088676D02*
X0139052Y0088192D01*
X0138220Y0086075D02*
X0138220Y0083172D01*
X0140155Y0086075D01*
X0140155Y0083172D01*
X0137209Y0083656D02*
X0136725Y0083172D01*
X0135757Y0083172D01*
X0135274Y0083656D01*
X0135274Y0084140D01*
X0135757Y0084623D01*
X0136725Y0084623D01*
X0137209Y0085107D01*
X0137209Y0085591D01*
X0136725Y0086075D01*
X0135757Y0086075D01*
X0135274Y0085591D01*
X0134262Y0086075D02*
X0134262Y0083172D01*
X0132327Y0083172D01*
X0131316Y0083172D02*
X0129381Y0083172D01*
X0131316Y0083172D02*
X0131316Y0086075D01*
X0132327Y0086075D02*
X0134262Y0086075D01*
X0134262Y0084623D02*
X0133295Y0084623D01*
X0132327Y0088656D02*
X0132327Y0089140D01*
X0132811Y0089623D01*
X0133778Y0089623D01*
X0134262Y0090107D01*
X0131954Y0092634D02*
X0131954Y0093601D01*
X0131954Y0093117D02*
X0129052Y0093117D01*
X0129052Y0092634D02*
X0129052Y0093601D01*
X0126954Y0093601D02*
X0126954Y0092634D01*
X0126954Y0093117D02*
X0124052Y0093117D01*
X0124052Y0092634D02*
X0124052Y0093601D01*
X0124536Y0094598D02*
X0124052Y0095082D01*
X0124052Y0096049D01*
X0124536Y0096533D01*
X0126471Y0096533D01*
X0126954Y0096049D01*
X0126954Y0095082D01*
X0126471Y0094598D01*
X0124536Y0094598D01*
X0121954Y0094569D02*
X0120019Y0094569D01*
X0119052Y0093601D01*
X0120019Y0092634D01*
X0121954Y0092634D01*
X0121471Y0091622D02*
X0120987Y0091622D01*
X0120503Y0091138D01*
X0120019Y0091622D01*
X0119536Y0091622D01*
X0119052Y0091138D01*
X0119052Y0090171D01*
X0119536Y0089687D01*
X0120503Y0090655D02*
X0120503Y0091138D01*
X0121471Y0091622D02*
X0121954Y0091138D01*
X0121954Y0090171D01*
X0121471Y0089687D01*
X0120503Y0088676D02*
X0120503Y0086741D01*
X0119536Y0087708D02*
X0121471Y0087708D01*
X0124052Y0087224D02*
X0124052Y0088192D01*
X0124536Y0088676D01*
X0125503Y0088676D01*
X0125503Y0087708D01*
X0124536Y0086741D02*
X0124052Y0087224D01*
X0124536Y0086741D02*
X0126471Y0086741D01*
X0126954Y0087224D01*
X0126954Y0088192D01*
X0126471Y0088676D01*
X0126954Y0089687D02*
X0124052Y0089687D01*
X0125019Y0089687D02*
X0125019Y0091138D01*
X0125503Y0091622D01*
X0126471Y0091622D01*
X0126954Y0091138D01*
X0126954Y0089687D01*
X0121471Y0095580D02*
X0121954Y0096064D01*
X0121954Y0097031D01*
X0121471Y0097515D01*
X0120987Y0097515D01*
X0120503Y0097031D01*
X0120019Y0097515D01*
X0119536Y0097515D01*
X0119052Y0097031D01*
X0119052Y0096064D01*
X0119536Y0095580D01*
X0120503Y0096548D02*
X0120503Y0097031D01*
X0116954Y0098527D02*
X0115019Y0098527D01*
X0114052Y0099494D01*
X0115019Y0100462D01*
X0116954Y0100462D01*
X0116954Y0101473D02*
X0116954Y0102924D01*
X0116471Y0103408D01*
X0114536Y0103408D01*
X0114052Y0102924D01*
X0114052Y0101473D01*
X0116954Y0101473D01*
X0116954Y0104420D02*
X0116954Y0105871D01*
X0116471Y0106355D01*
X0114536Y0106355D01*
X0114052Y0105871D01*
X0114052Y0104420D01*
X0116954Y0104420D01*
X0124052Y0099479D02*
X0124052Y0097544D01*
X0125987Y0099479D01*
X0126471Y0099479D01*
X0126954Y0098996D01*
X0126954Y0098028D01*
X0126471Y0097544D01*
X0129052Y0097544D02*
X0129052Y0099479D01*
X0129052Y0098512D02*
X0131954Y0098512D01*
X0138220Y0098656D02*
X0138704Y0098172D01*
X0139671Y0098172D01*
X0140155Y0098656D01*
X0139671Y0099623D02*
X0138704Y0099623D01*
X0138220Y0099140D01*
X0138220Y0098656D01*
X0139671Y0099623D02*
X0140155Y0100107D01*
X0140155Y0100591D01*
X0139671Y0101075D01*
X0138704Y0101075D01*
X0138220Y0100591D01*
X0134262Y0109140D02*
X0134262Y0111075D01*
X0136725Y0111075D02*
X0137209Y0110591D01*
X0115503Y0097515D02*
X0115503Y0095580D01*
X0114536Y0094569D02*
X0116471Y0094569D01*
X0116954Y0094085D01*
X0116954Y0093117D01*
X0116471Y0092634D01*
X0114536Y0092634D01*
X0114052Y0093117D01*
X0114052Y0094085D01*
X0114536Y0094569D01*
X0111954Y0093601D02*
X0111954Y0092634D01*
X0111954Y0093117D02*
X0109052Y0093117D01*
X0109052Y0092634D02*
X0109052Y0093601D01*
X0106954Y0092634D02*
X0104052Y0092634D01*
X0104052Y0094569D01*
X0104052Y0095580D02*
X0106954Y0095580D01*
X0105503Y0096064D02*
X0104052Y0097515D01*
X0105019Y0095580D02*
X0106954Y0097515D01*
X0101954Y0095580D02*
X0099052Y0095580D01*
X0099052Y0097515D01*
X0096954Y0096049D02*
X0096471Y0096533D01*
X0094536Y0096533D01*
X0094052Y0096049D01*
X0094052Y0095082D01*
X0094536Y0094598D01*
X0096471Y0094598D01*
X0096954Y0095082D01*
X0096954Y0096049D01*
X0095019Y0095565D02*
X0094052Y0096533D01*
X0091954Y0094569D02*
X0089052Y0094569D01*
X0091954Y0092634D01*
X0089052Y0092634D01*
X0089536Y0091622D02*
X0091471Y0091622D01*
X0091954Y0091138D01*
X0091954Y0089687D01*
X0089052Y0089687D01*
X0089052Y0091138D01*
X0089536Y0091622D01*
X0086954Y0091622D02*
X0084052Y0091622D01*
X0086954Y0089687D01*
X0084052Y0089687D01*
X0084536Y0088676D02*
X0085503Y0088676D01*
X0085503Y0087708D01*
X0084536Y0086741D02*
X0084052Y0087224D01*
X0084052Y0088192D01*
X0084536Y0088676D01*
X0086471Y0088676D02*
X0086954Y0088192D01*
X0086954Y0087224D01*
X0086471Y0086741D01*
X0084536Y0086741D01*
X0089052Y0087224D02*
X0089536Y0086741D01*
X0089052Y0087224D02*
X0089052Y0088192D01*
X0089536Y0088676D01*
X0090019Y0088676D01*
X0090503Y0088192D01*
X0090503Y0087224D01*
X0090987Y0086741D01*
X0091471Y0086741D01*
X0091954Y0087224D01*
X0091954Y0088192D01*
X0091471Y0088676D01*
X0094052Y0088676D02*
X0096954Y0088676D01*
X0096954Y0089687D02*
X0096954Y0090655D01*
X0096954Y0090171D02*
X0094052Y0090171D01*
X0094052Y0089687D02*
X0094052Y0090655D01*
X0094052Y0091651D02*
X0096954Y0091651D01*
X0096954Y0093103D01*
X0096471Y0093586D01*
X0095503Y0093586D01*
X0095019Y0093103D01*
X0095019Y0091651D01*
X0095019Y0092619D02*
X0094052Y0093586D01*
X0099052Y0092634D02*
X0099052Y0094569D01*
X0100503Y0093601D02*
X0100503Y0092634D01*
X0100019Y0091622D02*
X0099536Y0091622D01*
X0099052Y0091138D01*
X0099052Y0090171D01*
X0099536Y0089687D01*
X0100503Y0090171D02*
X0100503Y0091138D01*
X0100019Y0091622D01*
X0099052Y0092634D02*
X0101954Y0092634D01*
X0101954Y0094569D01*
X0101471Y0091622D02*
X0101954Y0091138D01*
X0101954Y0090171D01*
X0101471Y0089687D01*
X0100987Y0089687D01*
X0100503Y0090171D01*
X0099052Y0088676D02*
X0101954Y0088676D01*
X0101954Y0086741D02*
X0099052Y0088676D01*
X0099052Y0086741D02*
X0101954Y0086741D01*
X0104052Y0087224D02*
X0104052Y0088192D01*
X0104536Y0088676D01*
X0105019Y0088676D01*
X0105503Y0088192D01*
X0105503Y0087224D01*
X0105987Y0086741D01*
X0106471Y0086741D01*
X0106954Y0087224D01*
X0106954Y0088192D01*
X0106471Y0088676D01*
X0106471Y0089687D02*
X0104536Y0089687D01*
X0104052Y0090171D01*
X0104052Y0091138D01*
X0104536Y0091622D01*
X0106471Y0091622D02*
X0106954Y0091138D01*
X0106954Y0090171D01*
X0106471Y0089687D01*
X0109052Y0089687D02*
X0109052Y0091138D01*
X0109536Y0091622D01*
X0111471Y0091622D01*
X0111954Y0091138D01*
X0111954Y0089687D01*
X0109052Y0089687D01*
X0109536Y0088676D02*
X0109052Y0088192D01*
X0109052Y0087224D01*
X0109536Y0086741D01*
X0110503Y0087224D02*
X0110503Y0088192D01*
X0110019Y0088676D01*
X0109536Y0088676D01*
X0110503Y0087224D02*
X0110987Y0086741D01*
X0111471Y0086741D01*
X0111954Y0087224D01*
X0111954Y0088192D01*
X0111471Y0088676D01*
X0114052Y0088192D02*
X0114052Y0087224D01*
X0114536Y0086741D01*
X0115503Y0087224D02*
X0115503Y0088192D01*
X0115019Y0088676D01*
X0114536Y0088676D01*
X0114052Y0088192D01*
X0114052Y0089687D02*
X0114052Y0091138D01*
X0114536Y0091622D01*
X0116471Y0091622D01*
X0116954Y0091138D01*
X0116954Y0089687D01*
X0114052Y0089687D01*
X0116471Y0088676D02*
X0116954Y0088192D01*
X0116954Y0087224D01*
X0116471Y0086741D01*
X0115987Y0086741D01*
X0115503Y0087224D01*
X0104536Y0086741D02*
X0104052Y0087224D01*
X0096954Y0086741D02*
X0094052Y0088676D01*
X0094052Y0086741D02*
X0096954Y0086741D01*
X0086954Y0092634D02*
X0086954Y0094085D01*
X0086471Y0094569D01*
X0084536Y0094569D01*
X0084052Y0094085D01*
X0084052Y0092634D01*
X0086954Y0092634D01*
X0069252Y0087494D02*
X0066350Y0087494D01*
X0067317Y0087494D02*
X0068285Y0088945D01*
X0067317Y0087494D02*
X0066350Y0088945D01*
X0066833Y0086482D02*
X0066350Y0085998D01*
X0066350Y0085031D01*
X0066833Y0084547D01*
X0068768Y0086482D01*
X0066833Y0086482D01*
X0066833Y0084547D02*
X0068768Y0084547D01*
X0069252Y0085031D01*
X0069252Y0085998D01*
X0068768Y0086482D01*
X0066350Y0083536D02*
X0066350Y0081601D01*
X0066350Y0082568D02*
X0069252Y0082568D01*
X0068285Y0081601D01*
X0075602Y0073268D02*
X0077053Y0071817D01*
X0076569Y0071333D02*
X0078504Y0073268D01*
X0078504Y0071333D02*
X0075602Y0071333D01*
X0076085Y0070322D02*
X0075602Y0069838D01*
X0075602Y0068871D01*
X0076085Y0068387D01*
X0078020Y0070322D01*
X0076085Y0070322D01*
X0078020Y0070322D02*
X0078504Y0069838D01*
X0078504Y0068871D01*
X0078020Y0068387D01*
X0076085Y0068387D01*
X0075602Y0067375D02*
X0075602Y0065440D01*
X0075602Y0066408D02*
X0078504Y0066408D01*
X0077537Y0065440D01*
X0083856Y0064761D02*
X0085307Y0065729D01*
X0083856Y0066696D01*
X0085307Y0067663D02*
X0085307Y0064761D01*
X0086319Y0065245D02*
X0086803Y0064761D01*
X0087770Y0064761D01*
X0088254Y0065245D01*
X0086319Y0067180D01*
X0086319Y0065245D01*
X0088254Y0065245D02*
X0088254Y0067180D01*
X0087770Y0067663D01*
X0086803Y0067663D01*
X0086319Y0067180D01*
X0090233Y0067663D02*
X0090233Y0064761D01*
X0091200Y0064761D02*
X0089265Y0064761D01*
X0091200Y0066696D02*
X0090233Y0067663D01*
X0094917Y0074181D02*
X0094433Y0074665D01*
X0094433Y0076600D01*
X0096368Y0074665D01*
X0095885Y0074181D01*
X0094917Y0074181D01*
X0096368Y0074665D02*
X0096368Y0076600D01*
X0095885Y0077084D01*
X0094917Y0077084D01*
X0094433Y0076600D01*
X0097380Y0076600D02*
X0097380Y0074665D01*
X0097864Y0074181D01*
X0098831Y0074181D01*
X0099315Y0074665D01*
X0097380Y0076600D01*
X0097864Y0077084D01*
X0098831Y0077084D01*
X0099315Y0076600D01*
X0099315Y0074665D01*
X0100326Y0074181D02*
X0102261Y0074181D01*
X0101294Y0074181D02*
X0101294Y0077084D01*
X0102261Y0076116D01*
X0114053Y0067011D02*
X0115504Y0066043D01*
X0114053Y0065076D01*
X0115504Y0065076D02*
X0115504Y0067978D01*
X0116516Y0067495D02*
X0118451Y0065560D01*
X0117967Y0065076D01*
X0117000Y0065076D01*
X0116516Y0065560D01*
X0116516Y0067495D01*
X0117000Y0067978D01*
X0117967Y0067978D01*
X0118451Y0067495D01*
X0118451Y0065560D01*
X0119462Y0065076D02*
X0121397Y0065076D01*
X0120430Y0065076D02*
X0120430Y0067978D01*
X0121397Y0067011D01*
X0132754Y0066972D02*
X0134205Y0066004D01*
X0132754Y0065037D01*
X0134205Y0065037D02*
X0134205Y0067939D01*
X0135217Y0067455D02*
X0135217Y0065520D01*
X0135700Y0065037D01*
X0136668Y0065037D01*
X0137152Y0065520D01*
X0135217Y0067455D01*
X0135700Y0067939D01*
X0136668Y0067939D01*
X0137152Y0067455D01*
X0137152Y0065520D01*
X0138163Y0065037D02*
X0140098Y0065037D01*
X0139131Y0065037D02*
X0139131Y0067939D01*
X0140098Y0066972D01*
X0165955Y0070882D02*
X0166639Y0070198D01*
X0167323Y0070198D01*
X0168350Y0071224D01*
X0169034Y0070540D02*
X0166981Y0072592D01*
X0165955Y0071566D01*
X0165955Y0070882D01*
X0168039Y0072965D02*
X0168381Y0072623D01*
X0169065Y0072623D01*
X0169749Y0073308D01*
X0169749Y0073992D01*
X0169407Y0074334D01*
X0168723Y0074334D01*
X0168039Y0073650D01*
X0168039Y0072965D01*
X0169065Y0072623D02*
X0169065Y0071939D01*
X0169407Y0071597D01*
X0170091Y0071597D01*
X0170775Y0072281D01*
X0170775Y0072965D01*
X0170433Y0073308D01*
X0169749Y0073308D01*
X0170464Y0074707D02*
X0170122Y0075049D01*
X0170122Y0075733D01*
X0170806Y0076417D01*
X0171490Y0076417D01*
X0172206Y0077133D02*
X0172548Y0076790D01*
X0173232Y0076790D01*
X0173232Y0076106D01*
X0173574Y0075764D01*
X0174258Y0075764D01*
X0174942Y0076448D01*
X0174942Y0077133D01*
X0175999Y0077506D02*
X0174631Y0078874D01*
X0174631Y0080242D01*
X0175999Y0080242D01*
X0177368Y0078874D01*
X0177741Y0079931D02*
X0177057Y0080615D01*
X0177741Y0081300D01*
X0177741Y0082668D02*
X0179109Y0081300D01*
X0179109Y0080615D01*
X0178425Y0079931D01*
X0177741Y0079931D01*
X0176341Y0079900D02*
X0174973Y0078532D01*
X0173574Y0078501D02*
X0172890Y0078501D01*
X0172206Y0077817D01*
X0172206Y0077133D01*
X0173232Y0076790D02*
X0173574Y0077133D01*
X0173201Y0074707D02*
X0170464Y0074707D01*
X0171832Y0073339D02*
X0173201Y0074707D01*
X0176373Y0081300D02*
X0176373Y0081984D01*
X0177057Y0082668D01*
X0177741Y0082668D01*
X0178114Y0083725D02*
X0179482Y0085093D01*
X0181535Y0083041D01*
X0180166Y0081673D01*
X0179824Y0083383D02*
X0180508Y0084067D01*
X0180198Y0085809D02*
X0182250Y0083756D01*
X0183618Y0085125D02*
X0181566Y0087177D01*
X0181566Y0085809D01*
X0180198Y0085809D01*
X0182281Y0087892D02*
X0183649Y0089260D01*
X0182965Y0088576D02*
X0185018Y0086524D01*
X0186417Y0087923D02*
X0185049Y0089292D01*
X0185049Y0090660D01*
X0186417Y0090660D01*
X0187785Y0089292D01*
X0186759Y0090318D02*
X0185391Y0088949D01*
X0185178Y0106670D02*
X0184694Y0107154D01*
X0184694Y0109089D01*
X0185178Y0109573D01*
X0186629Y0109573D01*
X0186629Y0106670D01*
X0185178Y0106670D01*
X0187641Y0109089D02*
X0187641Y0109573D01*
X0189576Y0109573D01*
X0191555Y0109573D02*
X0191555Y0106670D01*
X0192522Y0106670D02*
X0190587Y0106670D01*
X0189576Y0106670D02*
X0189576Y0107154D01*
X0187641Y0109089D01*
X0191555Y0109573D02*
X0192522Y0108605D01*
X0193534Y0109089D02*
X0195469Y0107154D01*
X0194985Y0106670D01*
X0194018Y0106670D01*
X0193534Y0107154D01*
X0193534Y0109089D01*
X0194018Y0109573D01*
X0194985Y0109573D01*
X0195469Y0109089D01*
X0195469Y0107154D01*
X0196480Y0108122D02*
X0198415Y0108122D01*
X0196964Y0109573D01*
X0196964Y0106670D01*
X0179036Y0052289D02*
X0178069Y0052289D01*
X0177585Y0051806D01*
X0176573Y0052289D02*
X0174638Y0052289D01*
X0175606Y0052289D02*
X0175606Y0049387D01*
X0173627Y0049387D02*
X0173627Y0052289D01*
X0172176Y0052289D01*
X0171692Y0051806D01*
X0171692Y0050838D01*
X0172176Y0050354D01*
X0173627Y0050354D01*
X0172659Y0050354D02*
X0171692Y0049387D01*
X0170680Y0049387D02*
X0168745Y0049387D01*
X0170680Y0049387D02*
X0170680Y0052289D01*
X0177585Y0049871D02*
X0178069Y0049387D01*
X0179036Y0049387D01*
X0179520Y0049871D01*
X0179520Y0051806D01*
X0179036Y0052289D01*
X0195667Y0048468D02*
X0197118Y0047500D01*
X0195667Y0046533D01*
X0197118Y0046533D02*
X0197118Y0049435D01*
X0198130Y0048951D02*
X0200065Y0047016D01*
X0199581Y0046533D01*
X0198614Y0046533D01*
X0198130Y0047016D01*
X0198130Y0048951D01*
X0198614Y0049435D01*
X0199581Y0049435D01*
X0200065Y0048951D01*
X0200065Y0047016D01*
X0201076Y0046533D02*
X0203011Y0046533D01*
X0202044Y0046533D02*
X0202044Y0049435D01*
X0203011Y0048468D01*
X0181471Y0022005D02*
X0181471Y0019103D01*
X0180504Y0019103D02*
X0182439Y0019103D01*
X0182439Y0021038D02*
X0181471Y0022005D01*
X0179492Y0021038D02*
X0179492Y0019586D01*
X0179008Y0019103D01*
X0177557Y0019103D01*
X0177557Y0021038D01*
X0176546Y0020554D02*
X0175578Y0020554D01*
X0176062Y0021521D02*
X0175578Y0022005D01*
X0176062Y0021521D02*
X0176062Y0019103D01*
X0173679Y0019575D02*
X0171744Y0019575D01*
X0172711Y0019575D02*
X0172711Y0022478D01*
X0173679Y0021510D01*
X0170732Y0021994D02*
X0170732Y0020059D01*
X0168797Y0021994D01*
X0168797Y0020059D01*
X0169281Y0019575D01*
X0170248Y0019575D01*
X0170732Y0020059D01*
X0167786Y0020543D02*
X0166334Y0021510D01*
X0167786Y0020543D02*
X0166334Y0019575D01*
X0167786Y0019575D02*
X0167786Y0022478D01*
X0168797Y0021994D02*
X0169281Y0022478D01*
X0170248Y0022478D01*
X0170732Y0021994D01*
X0069263Y0101783D02*
X0068296Y0100815D01*
X0069263Y0101783D02*
X0066361Y0101783D01*
X0066361Y0102750D02*
X0066361Y0100815D01*
X0066844Y0103762D02*
X0068779Y0105697D01*
X0066844Y0105697D01*
X0066361Y0105213D01*
X0066361Y0104246D01*
X0066844Y0103762D01*
X0068779Y0103762D01*
X0069263Y0104246D01*
X0069263Y0105213D01*
X0068779Y0105697D01*
X0069263Y0106708D02*
X0066361Y0106708D01*
X0067328Y0106708D02*
X0068296Y0108160D01*
X0067328Y0106708D02*
X0066361Y0108160D01*
X0066153Y0111679D02*
X0066153Y0113614D01*
X0066153Y0112647D02*
X0069055Y0112647D01*
X0068088Y0111679D01*
X0068571Y0114626D02*
X0066636Y0114626D01*
X0068571Y0116561D01*
X0066636Y0116561D01*
X0066153Y0116077D01*
X0066153Y0115110D01*
X0066636Y0114626D01*
X0068571Y0114626D02*
X0069055Y0115110D01*
X0069055Y0116077D01*
X0068571Y0116561D01*
X0069055Y0117573D02*
X0066153Y0117573D01*
X0067120Y0117573D02*
X0066153Y0119024D01*
X0067120Y0117573D02*
X0068088Y0119024D01*
X0066624Y0123529D02*
X0066624Y0126431D01*
X0065173Y0126431D01*
X0064689Y0125948D01*
X0064689Y0124980D01*
X0065173Y0124496D01*
X0066624Y0124496D01*
X0067636Y0124496D02*
X0069571Y0124496D01*
X0067636Y0126431D01*
X0067636Y0126915D01*
X0068120Y0127399D01*
X0069087Y0127399D01*
X0069571Y0126915D01*
X0070582Y0126915D02*
X0071066Y0127399D01*
X0072034Y0127399D01*
X0072517Y0126915D01*
X0070582Y0126915D02*
X0070582Y0126431D01*
X0072517Y0124496D01*
X0070582Y0124496D01*
X0063678Y0125948D02*
X0062710Y0125948D01*
X0063194Y0126915D02*
X0063194Y0124496D01*
X0063194Y0126915D02*
X0062710Y0127399D01*
X0050021Y0127054D02*
X0048086Y0128989D01*
X0048086Y0129472D01*
X0048570Y0129956D01*
X0049538Y0129956D01*
X0050021Y0129472D01*
X0047075Y0129472D02*
X0046591Y0129956D01*
X0045624Y0129956D01*
X0045140Y0129472D01*
X0045140Y0128989D01*
X0047075Y0127054D01*
X0045140Y0127054D01*
X0044128Y0127054D02*
X0042193Y0128989D01*
X0042193Y0129472D01*
X0042677Y0129956D01*
X0043644Y0129956D01*
X0044128Y0129472D01*
X0044128Y0127054D02*
X0042193Y0127054D01*
X0041182Y0127054D02*
X0039247Y0128989D01*
X0039247Y0129472D01*
X0039730Y0129956D01*
X0040698Y0129956D01*
X0041182Y0129472D01*
X0041182Y0127054D02*
X0039247Y0127054D01*
X0048086Y0127054D02*
X0050021Y0127054D01*
X0046258Y0141296D02*
X0044323Y0141296D01*
X0045291Y0141296D02*
X0045291Y0144199D01*
X0046258Y0143231D01*
X0043312Y0143715D02*
X0043312Y0141780D01*
X0041377Y0143715D01*
X0041377Y0141780D01*
X0041861Y0141296D01*
X0042828Y0141296D01*
X0043312Y0141780D01*
X0040365Y0141296D02*
X0040365Y0144199D01*
X0041377Y0143715D02*
X0041861Y0144199D01*
X0042828Y0144199D01*
X0043312Y0143715D01*
X0040365Y0142264D02*
X0038430Y0144199D01*
X0039882Y0142748D02*
X0038430Y0141296D01*
X0062836Y0142361D02*
X0064771Y0142361D01*
X0062836Y0144296D01*
X0062836Y0144780D01*
X0063320Y0145264D01*
X0064287Y0145264D01*
X0064771Y0144780D01*
X0065782Y0144780D02*
X0066266Y0145264D01*
X0067234Y0145264D01*
X0067717Y0144780D01*
X0068729Y0144780D02*
X0069213Y0145264D01*
X0070180Y0145264D01*
X0070664Y0144780D01*
X0071676Y0144780D02*
X0072159Y0145264D01*
X0073127Y0145264D01*
X0073610Y0144780D01*
X0071676Y0144780D02*
X0071676Y0144296D01*
X0073610Y0142361D01*
X0071676Y0142361D01*
X0070664Y0142361D02*
X0068729Y0144296D01*
X0068729Y0144780D01*
X0068729Y0142361D02*
X0070664Y0142361D01*
X0067717Y0142361D02*
X0065782Y0144296D01*
X0065782Y0144780D01*
X0065782Y0142361D02*
X0067717Y0142361D01*
X0086167Y0140591D02*
X0086167Y0138656D01*
X0086650Y0138172D01*
X0088102Y0138172D01*
X0088102Y0141075D01*
X0086650Y0141075D01*
X0086167Y0140591D01*
X0087134Y0143172D02*
X0087134Y0146075D01*
X0086167Y0146075D02*
X0088102Y0146075D01*
X0089113Y0146075D02*
X0089113Y0143172D01*
X0091048Y0146075D01*
X0091048Y0143172D01*
X0092060Y0143172D02*
X0092060Y0145107D01*
X0093027Y0146075D01*
X0093995Y0145107D01*
X0093995Y0143172D01*
X0093995Y0144623D02*
X0092060Y0144623D01*
X0092543Y0141075D02*
X0093511Y0141075D01*
X0093995Y0140591D01*
X0093995Y0138656D01*
X0093511Y0138172D01*
X0092543Y0138172D01*
X0092060Y0138656D01*
X0092060Y0139623D01*
X0093027Y0139623D01*
X0092060Y0140591D02*
X0092543Y0141075D01*
X0091048Y0141075D02*
X0089113Y0138172D01*
X0089113Y0141075D01*
X0091048Y0141075D02*
X0091048Y0138172D01*
X0056907Y0087767D02*
X0055056Y0087767D01*
X0054438Y0087149D01*
X0054438Y0084681D01*
X0055056Y0084063D01*
X0056907Y0084063D01*
X0056907Y0087767D01*
X0053224Y0087149D02*
X0053224Y0086532D01*
X0052607Y0085915D01*
X0051372Y0085915D01*
X0050755Y0085298D01*
X0050755Y0084681D01*
X0051372Y0084063D01*
X0052607Y0084063D01*
X0053224Y0084681D01*
X0053224Y0087149D02*
X0052607Y0087767D01*
X0051372Y0087767D01*
X0050755Y0087149D01*
X0049541Y0087149D02*
X0048924Y0087767D01*
X0047689Y0087767D01*
X0047072Y0087149D01*
X0047072Y0086532D01*
X0047689Y0085915D01*
X0047072Y0085298D01*
X0047072Y0084681D01*
X0047689Y0084063D01*
X0048924Y0084063D01*
X0049541Y0084681D01*
X0048306Y0085915D02*
X0047689Y0085915D01*
X0045858Y0087149D02*
X0045240Y0087767D01*
X0044006Y0087767D01*
X0043389Y0087149D01*
X0043389Y0086532D01*
X0045858Y0084063D01*
X0043389Y0084063D01*
X0042175Y0084681D02*
X0041557Y0084063D01*
X0040323Y0084063D01*
X0039706Y0084681D01*
X0039706Y0085298D01*
X0040323Y0085915D01*
X0040940Y0085915D01*
X0040323Y0085915D02*
X0039706Y0086532D01*
X0039706Y0087149D01*
X0040323Y0087767D01*
X0041557Y0087767D01*
X0042175Y0087149D01*
X0038491Y0086532D02*
X0037257Y0087767D01*
X0037257Y0084063D01*
X0038491Y0084063D02*
X0036023Y0084063D01*
X0034808Y0084063D02*
X0032339Y0087767D01*
X0031125Y0087149D02*
X0031125Y0086532D01*
X0030508Y0085915D01*
X0029273Y0085915D01*
X0028656Y0085298D01*
X0028656Y0084681D01*
X0029273Y0084063D01*
X0030508Y0084063D01*
X0031125Y0084681D01*
X0031125Y0087149D02*
X0030508Y0087767D01*
X0029273Y0087767D01*
X0028656Y0087149D01*
X0027442Y0087149D02*
X0027442Y0084681D01*
X0026825Y0084063D01*
X0025590Y0084063D01*
X0024973Y0084681D01*
X0024973Y0087149D01*
X0025590Y0087767D01*
X0026825Y0087767D01*
X0027442Y0087149D01*
X0021437Y0084924D02*
X0020469Y0085892D01*
X0020469Y0082989D01*
X0019502Y0082989D02*
X0021437Y0082989D01*
X0018490Y0083473D02*
X0018490Y0085408D01*
X0018006Y0085892D01*
X0017039Y0085892D01*
X0016555Y0085408D01*
X0018490Y0083473D01*
X0018006Y0082989D01*
X0017039Y0082989D01*
X0016555Y0083473D01*
X0016555Y0085408D01*
X0015544Y0085892D02*
X0015544Y0082989D01*
X0015544Y0083957D02*
X0014092Y0084924D01*
X0015544Y0083957D02*
X0014092Y0082989D01*
X0018763Y0099523D02*
X0018763Y0101992D01*
X0018802Y0103473D02*
X0018802Y0104924D01*
X0019285Y0105408D01*
X0019769Y0105408D01*
X0020253Y0104924D01*
X0020253Y0103473D01*
X0021704Y0103473D02*
X0021704Y0104924D01*
X0021220Y0105408D01*
X0020737Y0105408D01*
X0020253Y0104924D01*
X0018802Y0103473D02*
X0021704Y0103473D01*
X0021704Y0106419D02*
X0018802Y0106419D01*
X0018802Y0108354D01*
X0019285Y0109366D02*
X0018802Y0109850D01*
X0018802Y0110817D01*
X0019285Y0111301D01*
X0021704Y0111301D01*
X0021704Y0112312D02*
X0018802Y0112312D01*
X0018802Y0114247D01*
X0020253Y0113280D02*
X0020253Y0112312D01*
X0021704Y0112312D02*
X0021704Y0114247D01*
X0021704Y0109366D02*
X0019285Y0109366D01*
X0019998Y0100757D02*
X0017529Y0100757D01*
X0016725Y0050577D02*
X0016725Y0047674D01*
X0016725Y0048642D02*
X0015273Y0049609D01*
X0016725Y0048642D02*
X0015273Y0047674D01*
X0017736Y0047674D02*
X0019671Y0047674D01*
X0018704Y0047674D02*
X0018704Y0050577D01*
X0019671Y0049609D01*
X0029145Y0034811D02*
X0030112Y0033360D01*
X0031080Y0034811D01*
X0032047Y0033360D02*
X0029145Y0033360D01*
X0029629Y0032348D02*
X0029145Y0031865D01*
X0029145Y0030897D01*
X0029629Y0030413D01*
X0031564Y0032348D01*
X0029629Y0032348D01*
X0029629Y0030413D02*
X0031564Y0030413D01*
X0032047Y0030897D01*
X0032047Y0031865D01*
X0031564Y0032348D01*
X0029145Y0029402D02*
X0029145Y0027467D01*
X0029145Y0028434D02*
X0032047Y0028434D01*
X0031080Y0027467D01*
X0031395Y0024299D02*
X0030427Y0022848D01*
X0029460Y0024299D01*
X0029460Y0022848D02*
X0032362Y0022848D01*
X0031879Y0021837D02*
X0029944Y0019902D01*
X0029460Y0020385D01*
X0029460Y0021353D01*
X0029944Y0021837D01*
X0031879Y0021837D01*
X0032362Y0021353D01*
X0032362Y0020385D01*
X0031879Y0019902D01*
X0029944Y0019902D01*
X0029460Y0018890D02*
X0029460Y0016955D01*
X0029460Y0017923D02*
X0032362Y0017923D01*
X0031395Y0016955D01*
X0045376Y0035894D02*
X0045376Y0037829D01*
X0045376Y0036862D02*
X0048279Y0036862D01*
X0047311Y0035894D01*
X0047795Y0038841D02*
X0045860Y0038841D01*
X0047795Y0040776D01*
X0045860Y0040776D01*
X0045376Y0040292D01*
X0045376Y0039324D01*
X0045860Y0038841D01*
X0047795Y0038841D02*
X0048279Y0039324D01*
X0048279Y0040292D01*
X0047795Y0040776D01*
X0048279Y0041787D02*
X0045376Y0041787D01*
X0045169Y0042231D02*
X0045169Y0044166D01*
X0045376Y0043238D02*
X0046344Y0041787D01*
X0047311Y0043238D01*
X0048071Y0043198D02*
X0045169Y0043198D01*
X0045652Y0045177D02*
X0047587Y0047112D01*
X0045652Y0047112D01*
X0045169Y0046628D01*
X0045169Y0045661D01*
X0045652Y0045177D01*
X0047587Y0045177D01*
X0048071Y0045661D01*
X0048071Y0046628D01*
X0047587Y0047112D01*
X0048071Y0048124D02*
X0045169Y0048124D01*
X0046136Y0048124D02*
X0047103Y0049575D01*
X0046136Y0048124D02*
X0045169Y0049575D01*
X0048071Y0043198D02*
X0047103Y0042231D01*
D17*
X0167982Y0039189D02*
X0167982Y0030724D01*
X0170344Y0030724D01*
X0177037Y0030724D02*
X0179400Y0030724D01*
X0179400Y0039189D01*
X0185305Y0042535D02*
X0185305Y0033480D01*
X0185305Y0042535D02*
X0192392Y0042535D01*
X0201841Y0042535D02*
X0204596Y0042535D01*
X0185305Y0019307D02*
X0185305Y0010252D01*
X0192392Y0010252D01*
X0201841Y0010252D02*
X0204596Y0010252D01*
D18*
X0181891Y0027839D02*
X0180221Y0029510D01*
X0180989Y0032102D02*
X0183034Y0030921D01*
X0177628Y0027666D02*
X0178809Y0025620D01*
X0173691Y0025016D02*
X0173691Y0027378D01*
X0169951Y0027613D02*
X0168770Y0025568D01*
X0165375Y0027724D02*
X0167046Y0029394D01*
X0166446Y0031906D02*
X0164400Y0030724D01*
X0164256Y0034363D02*
X0166537Y0034974D01*
X0166604Y0037614D02*
X0164242Y0037614D01*
X0166564Y0040852D02*
X0164282Y0041857D01*
X0166652Y0044653D02*
X0164982Y0046323D01*
X0156644Y0046365D02*
X0057431Y0046365D01*
X0057431Y0046863D02*
X0156644Y0046863D01*
X0156644Y0047362D02*
X0057431Y0047362D01*
X0057431Y0047860D02*
X0156644Y0047860D01*
X0156644Y0048359D02*
X0057431Y0048359D01*
X0057431Y0048857D02*
X0156644Y0048857D01*
X0156644Y0049356D02*
X0057431Y0049356D01*
X0057431Y0049854D02*
X0156644Y0049854D01*
X0156644Y0050353D02*
X0057431Y0050353D01*
X0057431Y0050851D02*
X0156644Y0050851D01*
X0156644Y0051350D02*
X0057431Y0051350D01*
X0057431Y0051848D02*
X0156644Y0051848D01*
X0156644Y0052347D02*
X0057431Y0052347D01*
X0057431Y0052845D02*
X0080266Y0052845D01*
X0080266Y0052614D02*
X0156644Y0052614D01*
X0156644Y0012850D01*
X0081053Y0012850D01*
X0081053Y0006945D01*
X0057431Y0006945D01*
X0057431Y0057339D01*
X0057825Y0057732D01*
X0057825Y0058126D01*
X0080266Y0058126D01*
X0080266Y0052614D01*
X0080266Y0053344D02*
X0057431Y0053344D01*
X0057431Y0053842D02*
X0080266Y0053842D01*
X0080266Y0054341D02*
X0057431Y0054341D01*
X0057431Y0054839D02*
X0080266Y0054839D01*
X0080266Y0055338D02*
X0057431Y0055338D01*
X0057431Y0055836D02*
X0080266Y0055836D01*
X0080266Y0056335D02*
X0057431Y0056335D01*
X0057431Y0056833D02*
X0080266Y0056833D01*
X0080266Y0057332D02*
X0057431Y0057332D01*
X0057825Y0057830D02*
X0080266Y0057830D01*
X0080266Y0058126D02*
X0057825Y0058126D01*
X0057825Y0006945D01*
X0080266Y0006945D01*
X0081053Y0006982D02*
X0057431Y0006982D01*
X0057431Y0007481D02*
X0081053Y0007481D01*
X0081053Y0007979D02*
X0057431Y0007979D01*
X0057431Y0008478D02*
X0081053Y0008478D01*
X0081053Y0008976D02*
X0057431Y0008976D01*
X0057431Y0009475D02*
X0081053Y0009475D01*
X0081053Y0009973D02*
X0057431Y0009973D01*
X0057431Y0010472D02*
X0081053Y0010472D01*
X0081053Y0010970D02*
X0057431Y0010970D01*
X0057431Y0011469D02*
X0081053Y0011469D01*
X0081053Y0011967D02*
X0057431Y0011967D01*
X0057431Y0012466D02*
X0081053Y0012466D01*
X0057431Y0012964D02*
X0156644Y0012964D01*
X0156644Y0013463D02*
X0057431Y0013463D01*
X0057431Y0013961D02*
X0156644Y0013961D01*
X0156644Y0014460D02*
X0057431Y0014460D01*
X0057431Y0014958D02*
X0156644Y0014958D01*
X0156644Y0015457D02*
X0057431Y0015457D01*
X0057431Y0015955D02*
X0156644Y0015955D01*
X0156644Y0016454D02*
X0057431Y0016454D01*
X0057431Y0016952D02*
X0156644Y0016952D01*
X0156644Y0017451D02*
X0057431Y0017451D01*
X0057431Y0017949D02*
X0156644Y0017949D01*
X0156644Y0018448D02*
X0057431Y0018448D01*
X0057431Y0018946D02*
X0156644Y0018946D01*
X0156644Y0019445D02*
X0057431Y0019445D01*
X0057431Y0019943D02*
X0156644Y0019943D01*
X0156644Y0020442D02*
X0057431Y0020442D01*
X0057431Y0020940D02*
X0156644Y0020940D01*
X0156644Y0021439D02*
X0057431Y0021439D01*
X0057431Y0021937D02*
X0156644Y0021937D01*
X0156644Y0022436D02*
X0057431Y0022436D01*
X0057431Y0022934D02*
X0156644Y0022934D01*
X0156644Y0023433D02*
X0057431Y0023433D01*
X0057431Y0023932D02*
X0156644Y0023932D01*
X0156644Y0024430D02*
X0057431Y0024430D01*
X0057431Y0024929D02*
X0156644Y0024929D01*
X0156644Y0025427D02*
X0057431Y0025427D01*
X0057431Y0025926D02*
X0156644Y0025926D01*
X0156644Y0026424D02*
X0057431Y0026424D01*
X0057431Y0026923D02*
X0156644Y0026923D01*
X0156644Y0027421D02*
X0057431Y0027421D01*
X0057431Y0027920D02*
X0156644Y0027920D01*
X0156644Y0028418D02*
X0057431Y0028418D01*
X0057431Y0028917D02*
X0156644Y0028917D01*
X0156644Y0029415D02*
X0057431Y0029415D01*
X0057431Y0029914D02*
X0156644Y0029914D01*
X0156644Y0030412D02*
X0057431Y0030412D01*
X0057431Y0030911D02*
X0156644Y0030911D01*
X0156644Y0031409D02*
X0057431Y0031409D01*
X0057431Y0031908D02*
X0156644Y0031908D01*
X0156644Y0032406D02*
X0057431Y0032406D01*
X0057431Y0032905D02*
X0156644Y0032905D01*
X0156644Y0033403D02*
X0057431Y0033403D01*
X0057431Y0033902D02*
X0156644Y0033902D01*
X0156644Y0034400D02*
X0057431Y0034400D01*
X0057431Y0034899D02*
X0156644Y0034899D01*
X0156644Y0035397D02*
X0057431Y0035397D01*
X0057431Y0035896D02*
X0156644Y0035896D01*
X0156644Y0036394D02*
X0057431Y0036394D01*
X0057431Y0036893D02*
X0156644Y0036893D01*
X0156644Y0037391D02*
X0057431Y0037391D01*
X0057431Y0037890D02*
X0156644Y0037890D01*
X0156644Y0038388D02*
X0057431Y0038388D01*
X0057431Y0038887D02*
X0156644Y0038887D01*
X0156644Y0039385D02*
X0057431Y0039385D01*
X0057431Y0039884D02*
X0156644Y0039884D01*
X0156644Y0040382D02*
X0057431Y0040382D01*
X0057431Y0040881D02*
X0156644Y0040881D01*
X0156644Y0041379D02*
X0057431Y0041379D01*
X0057431Y0041878D02*
X0156644Y0041878D01*
X0156644Y0042376D02*
X0057431Y0042376D01*
X0057431Y0042875D02*
X0156644Y0042875D01*
X0156644Y0043373D02*
X0057431Y0043373D01*
X0057431Y0043872D02*
X0156644Y0043872D01*
X0156644Y0044370D02*
X0057431Y0044370D01*
X0057431Y0044869D02*
X0156644Y0044869D01*
X0156644Y0045368D02*
X0057431Y0045368D01*
X0057431Y0045866D02*
X0156644Y0045866D01*
X0180791Y0041056D02*
X0183073Y0042061D01*
X0180893Y0044816D02*
X0182563Y0046486D01*
X0183140Y0038008D02*
X0180778Y0038008D01*
X0180818Y0035164D02*
X0183100Y0034553D01*
X0145911Y0077693D02*
X0141762Y0077693D01*
X0141762Y0081630D01*
X0145911Y0081630D01*
X0145911Y0077693D01*
X0145911Y0077771D02*
X0141762Y0077771D01*
X0144911Y0077771D01*
X0141762Y0077771D01*
X0141762Y0077693D02*
X0144911Y0077693D01*
X0144911Y0081630D01*
X0141762Y0081630D01*
X0141762Y0077693D01*
X0144911Y0077693D01*
X0144911Y0081630D01*
X0141762Y0081630D01*
X0141762Y0077693D01*
X0141368Y0077693D02*
X0141368Y0149622D01*
X0141762Y0149622D01*
X0145305Y0149622D01*
X0145305Y0145685D01*
X0141368Y0145685D01*
X0141368Y0149622D01*
X0141762Y0149622D01*
X0145305Y0149622D01*
X0145305Y0145685D01*
X0141368Y0145685D01*
X0141368Y0149622D01*
X0141762Y0149622D01*
X0145305Y0149622D01*
X0145305Y0145685D01*
X0141368Y0145685D01*
X0141368Y0149622D01*
X0079344Y0149622D01*
X0079344Y0146472D01*
X0083281Y0146472D01*
X0083281Y0136630D01*
X0079344Y0136630D01*
X0079344Y0078087D01*
X0141368Y0077693D01*
X0141368Y0077771D02*
X0129107Y0077771D01*
X0141368Y0078269D02*
X0079344Y0078269D01*
X0079344Y0078768D02*
X0141368Y0078768D01*
X0141762Y0078768D02*
X0145911Y0078768D01*
X0145911Y0079266D02*
X0141762Y0079266D01*
X0144911Y0079266D01*
X0141762Y0079266D01*
X0141368Y0079266D02*
X0079344Y0079266D01*
X0079344Y0079765D02*
X0141368Y0079765D01*
X0141762Y0079765D02*
X0145911Y0079765D01*
X0145911Y0080263D02*
X0141762Y0080263D01*
X0144911Y0080263D01*
X0141762Y0080263D01*
X0141368Y0080263D02*
X0079344Y0080263D01*
X0079344Y0080762D02*
X0141368Y0080762D01*
X0141762Y0080762D02*
X0145911Y0080762D01*
X0145911Y0081260D02*
X0141762Y0081260D01*
X0144911Y0081260D01*
X0141762Y0081260D01*
X0141565Y0081591D02*
X0141565Y0085528D01*
X0145502Y0085528D01*
X0145502Y0085134D01*
X0145502Y0081591D01*
X0141565Y0081591D01*
X0141565Y0081759D02*
X0145502Y0081759D01*
X0145502Y0081591D02*
X0145502Y0146591D01*
X0145502Y0146551D02*
X0145502Y0085921D01*
X0145502Y0085528D01*
X0078573Y0085528D01*
X0078967Y0146551D01*
X0132510Y0146551D01*
X0132510Y0142614D01*
X0142352Y0142614D01*
X0142352Y0146551D01*
X0145502Y0146551D01*
X0145305Y0146565D02*
X0141368Y0146565D01*
X0145305Y0146565D01*
X0141368Y0146565D01*
X0079344Y0146565D01*
X0079344Y0147064D02*
X0141368Y0147064D01*
X0145305Y0147064D01*
X0141368Y0147064D01*
X0145305Y0147064D01*
X0145305Y0147562D02*
X0141368Y0147562D01*
X0145305Y0147562D01*
X0141368Y0147562D01*
X0079344Y0147562D01*
X0079344Y0148061D02*
X0141368Y0148061D01*
X0145305Y0148061D01*
X0141368Y0148061D01*
X0145305Y0148061D01*
X0145305Y0148559D02*
X0141368Y0148559D01*
X0145305Y0148559D01*
X0141368Y0148559D01*
X0079344Y0148559D01*
X0079344Y0149058D02*
X0141368Y0149058D01*
X0145305Y0149058D01*
X0141368Y0149058D01*
X0145305Y0149058D01*
X0145305Y0149556D02*
X0141368Y0149556D01*
X0145305Y0149556D01*
X0141368Y0149556D01*
X0079344Y0149556D01*
X0080305Y0149622D02*
X0145305Y0149622D01*
X0145305Y0146067D02*
X0141368Y0146067D01*
X0145305Y0146067D01*
X0141368Y0146067D01*
X0083281Y0146067D01*
X0083281Y0145568D02*
X0141368Y0145568D01*
X0141368Y0145070D02*
X0083281Y0145070D01*
X0083281Y0144571D02*
X0141368Y0144571D01*
X0141368Y0144073D02*
X0083281Y0144073D01*
X0083281Y0143574D02*
X0141368Y0143574D01*
X0141368Y0143076D02*
X0083281Y0143076D01*
X0083281Y0142577D02*
X0141368Y0142577D01*
X0141368Y0142079D02*
X0083281Y0142079D01*
X0083281Y0141580D02*
X0141368Y0141580D01*
X0141368Y0141082D02*
X0083281Y0141082D01*
X0083281Y0140583D02*
X0141368Y0140583D01*
X0141368Y0140085D02*
X0083281Y0140085D01*
X0083281Y0139586D02*
X0141368Y0139586D01*
X0141368Y0139088D02*
X0083281Y0139088D01*
X0083281Y0138589D02*
X0141368Y0138589D01*
X0141368Y0138091D02*
X0083281Y0138091D01*
X0083281Y0137592D02*
X0141368Y0137592D01*
X0141368Y0137094D02*
X0083281Y0137094D01*
X0079344Y0136595D02*
X0141368Y0136595D01*
X0141368Y0136097D02*
X0079344Y0136097D01*
X0078899Y0136097D02*
X0145502Y0136097D01*
X0145502Y0136595D02*
X0078902Y0136595D01*
X0078906Y0137094D02*
X0145502Y0137094D01*
X0145502Y0137592D02*
X0078909Y0137592D01*
X0078912Y0138091D02*
X0145502Y0138091D01*
X0145502Y0138589D02*
X0078915Y0138589D01*
X0078918Y0139088D02*
X0145502Y0139088D01*
X0145502Y0139586D02*
X0078922Y0139586D01*
X0078925Y0140085D02*
X0145502Y0140085D01*
X0145502Y0140583D02*
X0078928Y0140583D01*
X0078931Y0141082D02*
X0145502Y0141082D01*
X0145502Y0141580D02*
X0078934Y0141580D01*
X0078938Y0142079D02*
X0145502Y0142079D01*
X0145502Y0142577D02*
X0078941Y0142577D01*
X0078944Y0143076D02*
X0132510Y0143076D01*
X0132510Y0143574D02*
X0078947Y0143574D01*
X0078951Y0144073D02*
X0132510Y0144073D01*
X0132510Y0144571D02*
X0078954Y0144571D01*
X0078957Y0145070D02*
X0132510Y0145070D01*
X0132510Y0145568D02*
X0078960Y0145568D01*
X0078963Y0146067D02*
X0132510Y0146067D01*
X0142352Y0146067D02*
X0145502Y0146067D01*
X0145502Y0145568D02*
X0142352Y0145568D01*
X0142352Y0145070D02*
X0145502Y0145070D01*
X0145502Y0144571D02*
X0142352Y0144571D01*
X0142352Y0144073D02*
X0145502Y0144073D01*
X0145502Y0143574D02*
X0142352Y0143574D01*
X0142352Y0143076D02*
X0145502Y0143076D01*
X0145502Y0135598D02*
X0078896Y0135598D01*
X0079344Y0135598D02*
X0141368Y0135598D01*
X0141368Y0135100D02*
X0079344Y0135100D01*
X0078893Y0135100D02*
X0145502Y0135100D01*
X0145502Y0134601D02*
X0078889Y0134601D01*
X0079344Y0134601D02*
X0141368Y0134601D01*
X0141368Y0134103D02*
X0079344Y0134103D01*
X0078886Y0134103D02*
X0145502Y0134103D01*
X0145502Y0133604D02*
X0078883Y0133604D01*
X0079344Y0133604D02*
X0141368Y0133604D01*
X0141368Y0133105D02*
X0079344Y0133105D01*
X0078880Y0133105D02*
X0145502Y0133105D01*
X0145502Y0132607D02*
X0078877Y0132607D01*
X0079344Y0132607D02*
X0141368Y0132607D01*
X0141368Y0132108D02*
X0079344Y0132108D01*
X0078873Y0132108D02*
X0145502Y0132108D01*
X0145502Y0131610D02*
X0078870Y0131610D01*
X0079344Y0131610D02*
X0141368Y0131610D01*
X0141368Y0131111D02*
X0079344Y0131111D01*
X0078867Y0131111D02*
X0145502Y0131111D01*
X0145502Y0130613D02*
X0078864Y0130613D01*
X0079344Y0130613D02*
X0141368Y0130613D01*
X0141368Y0130114D02*
X0079344Y0130114D01*
X0078860Y0130114D02*
X0145502Y0130114D01*
X0145502Y0129616D02*
X0078857Y0129616D01*
X0079344Y0129616D02*
X0141368Y0129616D01*
X0141368Y0129117D02*
X0079344Y0129117D01*
X0078854Y0129117D02*
X0145502Y0129117D01*
X0145502Y0128619D02*
X0078851Y0128619D01*
X0079344Y0128619D02*
X0141368Y0128619D01*
X0141368Y0128120D02*
X0079344Y0128120D01*
X0078848Y0128120D02*
X0145502Y0128120D01*
X0145502Y0127622D02*
X0078844Y0127622D01*
X0078841Y0127123D02*
X0145502Y0127123D01*
X0145502Y0126625D02*
X0078838Y0126625D01*
X0078835Y0126126D02*
X0145502Y0126126D01*
X0145502Y0125628D02*
X0078832Y0125628D01*
X0078828Y0125129D02*
X0145502Y0125129D01*
X0145502Y0124631D02*
X0078825Y0124631D01*
X0078822Y0124132D02*
X0145502Y0124132D01*
X0145502Y0123634D02*
X0078819Y0123634D01*
X0078815Y0123135D02*
X0145502Y0123135D01*
X0145502Y0122637D02*
X0078812Y0122637D01*
X0078809Y0122138D02*
X0145502Y0122138D01*
X0145502Y0121640D02*
X0078806Y0121640D01*
X0078803Y0121141D02*
X0145502Y0121141D01*
X0145502Y0120643D02*
X0078799Y0120643D01*
X0078796Y0120144D02*
X0145502Y0120144D01*
X0145502Y0119646D02*
X0078793Y0119646D01*
X0078790Y0119147D02*
X0145502Y0119147D01*
X0145502Y0118649D02*
X0078787Y0118649D01*
X0078783Y0118150D02*
X0145502Y0118150D01*
X0145502Y0117652D02*
X0078780Y0117652D01*
X0078777Y0117153D02*
X0145502Y0117153D01*
X0145502Y0116655D02*
X0078774Y0116655D01*
X0078770Y0116156D02*
X0145502Y0116156D01*
X0145502Y0115658D02*
X0078767Y0115658D01*
X0078764Y0115159D02*
X0145502Y0115159D01*
X0145502Y0114661D02*
X0078761Y0114661D01*
X0078758Y0114162D02*
X0145502Y0114162D01*
X0145502Y0113664D02*
X0078754Y0113664D01*
X0078751Y0113165D02*
X0145502Y0113165D01*
X0145502Y0112667D02*
X0078748Y0112667D01*
X0078745Y0112168D02*
X0145502Y0112168D01*
X0145502Y0111670D02*
X0078741Y0111670D01*
X0078738Y0111171D02*
X0145502Y0111171D01*
X0145502Y0110672D02*
X0078735Y0110672D01*
X0078732Y0110174D02*
X0145502Y0110174D01*
X0145502Y0109675D02*
X0078729Y0109675D01*
X0078725Y0109177D02*
X0145502Y0109177D01*
X0145502Y0108678D02*
X0078722Y0108678D01*
X0078719Y0108180D02*
X0145502Y0108180D01*
X0145502Y0107681D02*
X0078716Y0107681D01*
X0078713Y0107183D02*
X0145502Y0107183D01*
X0145502Y0106684D02*
X0078709Y0106684D01*
X0078706Y0106186D02*
X0145502Y0106186D01*
X0145502Y0105687D02*
X0078703Y0105687D01*
X0078700Y0105189D02*
X0145502Y0105189D01*
X0145502Y0104690D02*
X0078696Y0104690D01*
X0078693Y0104192D02*
X0145502Y0104192D01*
X0145502Y0103693D02*
X0078690Y0103693D01*
X0078687Y0103195D02*
X0145502Y0103195D01*
X0145502Y0102696D02*
X0078684Y0102696D01*
X0078680Y0102198D02*
X0145502Y0102198D01*
X0145502Y0101699D02*
X0078677Y0101699D01*
X0078674Y0101201D02*
X0145502Y0101201D01*
X0145502Y0100702D02*
X0078671Y0100702D01*
X0078668Y0100204D02*
X0145502Y0100204D01*
X0145502Y0099705D02*
X0078664Y0099705D01*
X0078661Y0099207D02*
X0145502Y0099207D01*
X0145502Y0098708D02*
X0078658Y0098708D01*
X0078655Y0098210D02*
X0145502Y0098210D01*
X0145502Y0097711D02*
X0078651Y0097711D01*
X0078648Y0097213D02*
X0145502Y0097213D01*
X0145502Y0096714D02*
X0078645Y0096714D01*
X0078642Y0096216D02*
X0145502Y0096216D01*
X0145502Y0095717D02*
X0078639Y0095717D01*
X0078635Y0095219D02*
X0145502Y0095219D01*
X0145502Y0094720D02*
X0078632Y0094720D01*
X0078629Y0094222D02*
X0145502Y0094222D01*
X0145502Y0093723D02*
X0078626Y0093723D01*
X0078623Y0093225D02*
X0145502Y0093225D01*
X0145502Y0092726D02*
X0078619Y0092726D01*
X0078616Y0092228D02*
X0145502Y0092228D01*
X0145502Y0091729D02*
X0078613Y0091729D01*
X0078610Y0091231D02*
X0145502Y0091231D01*
X0145502Y0090732D02*
X0078606Y0090732D01*
X0078603Y0090234D02*
X0145502Y0090234D01*
X0145502Y0089735D02*
X0078600Y0089735D01*
X0078597Y0089237D02*
X0145502Y0089237D01*
X0145502Y0088738D02*
X0078594Y0088738D01*
X0078590Y0088239D02*
X0145502Y0088239D01*
X0145502Y0087741D02*
X0078587Y0087741D01*
X0078584Y0087242D02*
X0145502Y0087242D01*
X0145502Y0086744D02*
X0078581Y0086744D01*
X0078577Y0086245D02*
X0145502Y0086245D01*
X0145502Y0085747D02*
X0078574Y0085747D01*
X0078573Y0085134D02*
X0078573Y0081984D01*
X0082116Y0081984D01*
X0082510Y0081984D01*
X0082510Y0085134D01*
X0078573Y0085134D01*
X0078573Y0084750D02*
X0082510Y0084750D01*
X0082510Y0084251D02*
X0078573Y0084251D01*
X0078573Y0083753D02*
X0082510Y0083753D01*
X0082510Y0083254D02*
X0078573Y0083254D01*
X0078573Y0082756D02*
X0082510Y0082756D01*
X0082510Y0082257D02*
X0078573Y0082257D01*
X0078573Y0081591D02*
X0078573Y0146591D01*
X0079344Y0127622D02*
X0141368Y0127622D01*
X0141368Y0127123D02*
X0079344Y0127123D01*
X0079344Y0126625D02*
X0141368Y0126625D01*
X0141368Y0126126D02*
X0079344Y0126126D01*
X0079344Y0125628D02*
X0141368Y0125628D01*
X0141368Y0125129D02*
X0079344Y0125129D01*
X0079344Y0124631D02*
X0141368Y0124631D01*
X0141368Y0124132D02*
X0079344Y0124132D01*
X0079344Y0123634D02*
X0141368Y0123634D01*
X0141368Y0123135D02*
X0079344Y0123135D01*
X0079344Y0122637D02*
X0141368Y0122637D01*
X0141368Y0122138D02*
X0079344Y0122138D01*
X0079344Y0121640D02*
X0141368Y0121640D01*
X0141368Y0121141D02*
X0079344Y0121141D01*
X0079344Y0120643D02*
X0141368Y0120643D01*
X0141368Y0120144D02*
X0079344Y0120144D01*
X0079344Y0119646D02*
X0141368Y0119646D01*
X0141368Y0119147D02*
X0079344Y0119147D01*
X0079344Y0118649D02*
X0141368Y0118649D01*
X0141368Y0118150D02*
X0079344Y0118150D01*
X0079344Y0117652D02*
X0141368Y0117652D01*
X0141368Y0117153D02*
X0079344Y0117153D01*
X0079344Y0116655D02*
X0141368Y0116655D01*
X0141368Y0116156D02*
X0079344Y0116156D01*
X0079344Y0115658D02*
X0141368Y0115658D01*
X0141368Y0115159D02*
X0079344Y0115159D01*
X0079344Y0114661D02*
X0141368Y0114661D01*
X0141368Y0114162D02*
X0079344Y0114162D01*
X0079344Y0113664D02*
X0141368Y0113664D01*
X0141368Y0113165D02*
X0079344Y0113165D01*
X0079344Y0112667D02*
X0141368Y0112667D01*
X0141368Y0112168D02*
X0079344Y0112168D01*
X0079344Y0111670D02*
X0141368Y0111670D01*
X0141368Y0111171D02*
X0079344Y0111171D01*
X0079344Y0110672D02*
X0141368Y0110672D01*
X0141368Y0110174D02*
X0079344Y0110174D01*
X0079344Y0109675D02*
X0141368Y0109675D01*
X0141368Y0109177D02*
X0079344Y0109177D01*
X0079344Y0108678D02*
X0141368Y0108678D01*
X0141368Y0108180D02*
X0079344Y0108180D01*
X0079344Y0107681D02*
X0141368Y0107681D01*
X0141368Y0107183D02*
X0079344Y0107183D01*
X0079344Y0106684D02*
X0141368Y0106684D01*
X0141368Y0106186D02*
X0079344Y0106186D01*
X0079344Y0105687D02*
X0141368Y0105687D01*
X0141368Y0105189D02*
X0079344Y0105189D01*
X0079344Y0104690D02*
X0141368Y0104690D01*
X0141368Y0104192D02*
X0079344Y0104192D01*
X0079344Y0103693D02*
X0141368Y0103693D01*
X0141368Y0103195D02*
X0079344Y0103195D01*
X0079344Y0102696D02*
X0141368Y0102696D01*
X0141368Y0102198D02*
X0079344Y0102198D01*
X0079344Y0101699D02*
X0141368Y0101699D01*
X0141368Y0101201D02*
X0079344Y0101201D01*
X0079344Y0100702D02*
X0141368Y0100702D01*
X0141368Y0100204D02*
X0079344Y0100204D01*
X0079344Y0099705D02*
X0141368Y0099705D01*
X0141368Y0099207D02*
X0079344Y0099207D01*
X0079344Y0098708D02*
X0141368Y0098708D01*
X0141368Y0098210D02*
X0079344Y0098210D01*
X0079344Y0097711D02*
X0141368Y0097711D01*
X0141368Y0097213D02*
X0079344Y0097213D01*
X0079344Y0096714D02*
X0141368Y0096714D01*
X0141368Y0096216D02*
X0079344Y0096216D01*
X0079344Y0095717D02*
X0141368Y0095717D01*
X0141368Y0095219D02*
X0079344Y0095219D01*
X0079344Y0094720D02*
X0141368Y0094720D01*
X0141368Y0094222D02*
X0079344Y0094222D01*
X0079344Y0093723D02*
X0141368Y0093723D01*
X0141368Y0093225D02*
X0079344Y0093225D01*
X0079344Y0092726D02*
X0141368Y0092726D01*
X0141368Y0092228D02*
X0079344Y0092228D01*
X0079344Y0091729D02*
X0141368Y0091729D01*
X0141368Y0091231D02*
X0079344Y0091231D01*
X0079344Y0090732D02*
X0141368Y0090732D01*
X0141368Y0090234D02*
X0079344Y0090234D01*
X0079344Y0089735D02*
X0141368Y0089735D01*
X0141368Y0089237D02*
X0079344Y0089237D01*
X0079344Y0088738D02*
X0141368Y0088738D01*
X0141368Y0088239D02*
X0079344Y0088239D01*
X0079344Y0087741D02*
X0141368Y0087741D01*
X0141368Y0087242D02*
X0079344Y0087242D01*
X0079344Y0086744D02*
X0141368Y0086744D01*
X0141368Y0086245D02*
X0079344Y0086245D01*
X0079344Y0085747D02*
X0141368Y0085747D01*
X0141368Y0085248D02*
X0079344Y0085248D01*
X0079344Y0084750D02*
X0141368Y0084750D01*
X0141565Y0084750D02*
X0145502Y0084750D01*
X0145502Y0085248D02*
X0141565Y0085248D01*
X0141565Y0084251D02*
X0145502Y0084251D01*
X0145502Y0083753D02*
X0141565Y0083753D01*
X0141368Y0083753D02*
X0079344Y0083753D01*
X0079344Y0084251D02*
X0141368Y0084251D01*
X0141368Y0083254D02*
X0079344Y0083254D01*
X0079344Y0082756D02*
X0141368Y0082756D01*
X0141565Y0082756D02*
X0145502Y0082756D01*
X0145502Y0083254D02*
X0141565Y0083254D01*
X0141565Y0082257D02*
X0145502Y0082257D01*
X0144911Y0080762D02*
X0141762Y0080762D01*
X0144911Y0080762D01*
X0144911Y0079765D02*
X0141762Y0079765D01*
X0144911Y0079765D01*
X0144911Y0078768D02*
X0141762Y0078768D01*
X0144911Y0078768D01*
X0144911Y0078269D02*
X0141762Y0078269D01*
X0145911Y0078269D01*
X0145305Y0077693D02*
X0079305Y0077693D01*
X0079344Y0081260D02*
X0141368Y0081260D01*
X0141368Y0081759D02*
X0079344Y0081759D01*
X0079344Y0082257D02*
X0141368Y0082257D01*
X0141762Y0078269D02*
X0144911Y0078269D01*
X0063140Y0089661D02*
X0063000Y0089663D01*
X0062860Y0089669D01*
X0062720Y0089679D01*
X0062580Y0089692D01*
X0062441Y0089710D01*
X0062302Y0089732D01*
X0062165Y0089757D01*
X0062027Y0089786D01*
X0061891Y0089819D01*
X0061756Y0089856D01*
X0061622Y0089897D01*
X0061489Y0089942D01*
X0061357Y0089990D01*
X0061227Y0090042D01*
X0061098Y0090097D01*
X0060971Y0090156D01*
X0060845Y0090219D01*
X0060721Y0090285D01*
X0060600Y0090354D01*
X0060480Y0090427D01*
X0060362Y0090504D01*
X0060247Y0090583D01*
X0060133Y0090666D01*
X0060023Y0090752D01*
X0059914Y0090841D01*
X0059808Y0090933D01*
X0059705Y0091028D01*
X0059604Y0091125D01*
X0059507Y0091226D01*
X0059412Y0091329D01*
X0059320Y0091435D01*
X0059231Y0091544D01*
X0059145Y0091654D01*
X0059062Y0091768D01*
X0058983Y0091883D01*
X0058906Y0092001D01*
X0058833Y0092121D01*
X0058764Y0092242D01*
X0058698Y0092366D01*
X0058635Y0092492D01*
X0058576Y0092619D01*
X0058521Y0092748D01*
X0058469Y0092878D01*
X0058421Y0093010D01*
X0058376Y0093143D01*
X0058335Y0093277D01*
X0058298Y0093412D01*
X0058265Y0093548D01*
X0058236Y0093686D01*
X0058211Y0093823D01*
X0058189Y0093962D01*
X0058171Y0094101D01*
X0058158Y0094241D01*
X0058148Y0094381D01*
X0058142Y0094521D01*
X0058140Y0094661D01*
X0058142Y0094801D01*
X0058148Y0094941D01*
X0058158Y0095081D01*
X0058171Y0095221D01*
X0058189Y0095360D01*
X0058211Y0095499D01*
X0058236Y0095636D01*
X0058265Y0095774D01*
X0058298Y0095910D01*
X0058335Y0096045D01*
X0058376Y0096179D01*
X0058421Y0096312D01*
X0058469Y0096444D01*
X0058521Y0096574D01*
X0058576Y0096703D01*
X0058635Y0096830D01*
X0058698Y0096956D01*
X0058764Y0097080D01*
X0058833Y0097201D01*
X0058906Y0097321D01*
X0058983Y0097439D01*
X0059062Y0097554D01*
X0059145Y0097668D01*
X0059231Y0097778D01*
X0059320Y0097887D01*
X0059412Y0097993D01*
X0059507Y0098096D01*
X0059604Y0098197D01*
X0059705Y0098294D01*
X0059808Y0098389D01*
X0059914Y0098481D01*
X0060023Y0098570D01*
X0060133Y0098656D01*
X0060247Y0098739D01*
X0060362Y0098818D01*
X0060480Y0098895D01*
X0060600Y0098968D01*
X0060721Y0099037D01*
X0060845Y0099103D01*
X0060971Y0099166D01*
X0061098Y0099225D01*
X0061227Y0099280D01*
X0061357Y0099332D01*
X0061489Y0099380D01*
X0061622Y0099425D01*
X0061756Y0099466D01*
X0061891Y0099503D01*
X0062027Y0099536D01*
X0062165Y0099565D01*
X0062302Y0099590D01*
X0062441Y0099612D01*
X0062580Y0099630D01*
X0062720Y0099643D01*
X0062860Y0099653D01*
X0063000Y0099659D01*
X0063140Y0099661D01*
D19*
X0187007Y0045028D02*
X0187007Y0043526D01*
X0186507Y0043526D02*
X0187508Y0043526D01*
X0188230Y0044027D02*
X0188981Y0044027D01*
X0189453Y0044027D02*
X0189453Y0043777D01*
X0189703Y0043526D01*
X0190204Y0043526D01*
X0190454Y0043777D01*
X0190936Y0043526D02*
X0191436Y0043526D01*
X0191186Y0043526D02*
X0191186Y0045028D01*
X0191436Y0045028D02*
X0190936Y0045028D01*
X0190454Y0044777D02*
X0190454Y0044527D01*
X0190204Y0044277D01*
X0189703Y0044277D01*
X0189453Y0044027D01*
X0188981Y0043526D02*
X0188981Y0045028D01*
X0188230Y0045028D01*
X0187980Y0044777D01*
X0187980Y0044277D01*
X0188230Y0044027D01*
X0187508Y0044527D02*
X0187007Y0045028D01*
X0189453Y0044777D02*
X0189703Y0045028D01*
X0190204Y0045028D01*
X0190454Y0044777D01*
D20*
X0115109Y0092991D02*
X0115109Y0095293D01*
X0114342Y0096060D01*
X0111272Y0096060D01*
X0110505Y0095293D01*
X0110505Y0092991D01*
X0115109Y0092991D01*
X0115109Y0097595D02*
X0110505Y0097595D01*
X0112040Y0097595D02*
X0112040Y0099896D01*
X0112807Y0100664D01*
X0114342Y0100664D01*
X0115109Y0099896D01*
X0115109Y0097595D01*
X0112040Y0099129D02*
X0110505Y0100664D01*
X0110505Y0102198D02*
X0115109Y0102198D01*
X0115109Y0105268D01*
X0113574Y0106802D02*
X0115109Y0108337D01*
X0110505Y0108337D01*
X0110505Y0106802D02*
X0110505Y0109872D01*
X0110505Y0111406D02*
X0113574Y0114476D01*
X0114342Y0114476D01*
X0115109Y0113708D01*
X0115109Y0112174D01*
X0114342Y0111406D01*
X0115327Y0111791D02*
X0115327Y0116394D01*
X0117629Y0114093D01*
X0114559Y0114093D01*
X0113025Y0114093D02*
X0109956Y0114093D01*
X0110505Y0114476D02*
X0110505Y0111406D01*
X0110723Y0111791D02*
X0110723Y0116394D01*
X0113025Y0114093D01*
X0111272Y0116010D02*
X0110505Y0116010D01*
X0111272Y0116010D02*
X0114342Y0119079D01*
X0115109Y0119079D01*
X0115109Y0116010D01*
X0119163Y0116394D02*
X0120698Y0116394D01*
X0119931Y0116394D02*
X0119931Y0111791D01*
X0120698Y0111791D02*
X0119163Y0111791D01*
X0122233Y0112558D02*
X0123000Y0111791D01*
X0124535Y0111791D01*
X0125302Y0112558D01*
X0124535Y0114093D02*
X0123000Y0114093D01*
X0122233Y0113325D01*
X0122233Y0112558D01*
X0124535Y0114093D02*
X0125302Y0114860D01*
X0125302Y0115627D01*
X0124535Y0116394D01*
X0123000Y0116394D01*
X0122233Y0115627D01*
X0119163Y0121023D02*
X0119163Y0127162D01*
X0118396Y0126394D02*
X0119931Y0126394D01*
X0120698Y0125627D01*
X0120698Y0124860D01*
X0119931Y0124093D01*
X0118396Y0124093D01*
X0117629Y0123325D01*
X0117629Y0122558D01*
X0118396Y0121791D01*
X0119931Y0121791D01*
X0120698Y0122558D01*
X0122233Y0122558D02*
X0122233Y0126394D01*
X0125302Y0126394D02*
X0125302Y0122558D01*
X0124535Y0121791D01*
X0123000Y0121791D01*
X0122233Y0122558D01*
X0118396Y0126394D02*
X0117629Y0125627D01*
X0116094Y0126394D02*
X0113025Y0126394D01*
X0113025Y0125627D01*
X0116094Y0122558D01*
X0116094Y0121791D01*
X0115109Y0121381D02*
X0115109Y0122916D01*
X0114342Y0123683D01*
X0113574Y0123683D01*
X0112807Y0122916D01*
X0112807Y0121381D01*
X0113574Y0120614D01*
X0114342Y0120614D01*
X0115109Y0121381D01*
X0112807Y0121381D02*
X0112040Y0120614D01*
X0111272Y0120614D01*
X0110505Y0121381D01*
X0110505Y0122916D01*
X0111272Y0123683D01*
X0112040Y0123683D01*
X0112807Y0122916D01*
X0112807Y0125218D02*
X0112807Y0126753D01*
X0115109Y0125218D02*
X0115109Y0128287D01*
X0115109Y0125218D02*
X0110505Y0125218D01*
X0107654Y0116394D02*
X0106119Y0116394D01*
X0105352Y0115627D01*
X0105352Y0114860D01*
X0106119Y0114093D01*
X0105352Y0113325D01*
X0105352Y0112558D01*
X0106119Y0111791D01*
X0107654Y0111791D01*
X0108421Y0112558D01*
X0106886Y0114093D02*
X0106119Y0114093D01*
X0108421Y0115627D02*
X0107654Y0116394D01*
X0103817Y0115627D02*
X0103050Y0116394D01*
X0101515Y0116394D01*
X0100748Y0115627D01*
X0100748Y0114860D01*
X0103817Y0111791D01*
X0100748Y0111791D01*
X0112807Y0103733D02*
X0112807Y0102198D01*
X0061172Y0052854D02*
X0060405Y0051320D01*
X0058870Y0049785D01*
X0058870Y0052087D01*
X0058103Y0052854D01*
X0057335Y0052854D01*
X0056568Y0052087D01*
X0056568Y0050552D01*
X0057335Y0049785D01*
X0058870Y0049785D01*
X0057335Y0048250D02*
X0056568Y0047483D01*
X0056568Y0045948D01*
X0057335Y0045181D01*
X0060405Y0048250D01*
X0057335Y0048250D01*
X0057335Y0045181D02*
X0060405Y0045181D01*
X0061172Y0045948D01*
X0061172Y0047483D01*
X0060405Y0048250D01*
X0060405Y0043646D02*
X0061172Y0042879D01*
X0061172Y0041344D01*
X0060405Y0040577D01*
X0057335Y0040577D01*
X0056568Y0041344D01*
X0056568Y0042879D01*
X0057335Y0043646D01*
X0056568Y0039043D02*
X0061172Y0039043D01*
X0058870Y0039043D02*
X0058870Y0035973D01*
X0056568Y0035973D02*
X0061172Y0035973D01*
D21*
X0017510Y0109346D03*
X0012785Y0109346D03*
D22*
X0015148Y0109346D03*
M02*
