G75*
%MOIN*%
%OFA0B0*%
%FSLAX25Y25*%
%IPPOS*%
%LPD*%
%AMOC8*
5,1,8,0,0,1.08239X$1,22.5*
%
%ADD10C,0.00000*%
%ADD11C,0.00500*%
%ADD12C,0.00300*%
%ADD13C,0.00020*%
%ADD14C,0.00600*%
%ADD15C,0.00200*%
%ADD16C,0.00400*%
%ADD17C,0.01000*%
%ADD18C,0.00800*%
%ADD19C,0.03000*%
%ADD20R,0.02000X0.03000*%
%ADD21R,0.04000X0.03000*%
D10*
X0011250Y0006926D02*
X0011250Y0094284D01*
X0011252Y0094353D01*
X0011258Y0094422D01*
X0011267Y0094491D01*
X0011281Y0094559D01*
X0011298Y0094626D01*
X0011319Y0094692D01*
X0011344Y0094757D01*
X0011372Y0094820D01*
X0011404Y0094882D01*
X0011439Y0094942D01*
X0011478Y0094999D01*
X0011520Y0095055D01*
X0011564Y0095108D01*
X0011612Y0095158D01*
X0011662Y0095206D01*
X0011715Y0095250D01*
X0011771Y0095292D01*
X0011828Y0095331D01*
X0011888Y0095366D01*
X0011950Y0095398D01*
X0012013Y0095426D01*
X0012078Y0095451D01*
X0012144Y0095472D01*
X0012211Y0095489D01*
X0012279Y0095503D01*
X0012348Y0095512D01*
X0012417Y0095518D01*
X0012486Y0095520D01*
X0013194Y0095520D01*
X0013252Y0095522D01*
X0013310Y0095528D01*
X0013368Y0095537D01*
X0013425Y0095550D01*
X0013480Y0095567D01*
X0013535Y0095588D01*
X0013588Y0095612D01*
X0013640Y0095639D01*
X0013689Y0095670D01*
X0013736Y0095704D01*
X0013781Y0095741D01*
X0013824Y0095781D01*
X0013864Y0095824D01*
X0013901Y0095869D01*
X0013935Y0095916D01*
X0013966Y0095966D01*
X0013993Y0096017D01*
X0014017Y0096070D01*
X0014038Y0096125D01*
X0014055Y0096180D01*
X0014068Y0096237D01*
X0014077Y0096295D01*
X0014083Y0096353D01*
X0014085Y0096411D01*
X0014085Y0132185D01*
X0014087Y0132271D01*
X0014093Y0132357D01*
X0014102Y0132442D01*
X0014116Y0132527D01*
X0014133Y0132612D01*
X0014154Y0132695D01*
X0014179Y0132777D01*
X0014207Y0132859D01*
X0014239Y0132938D01*
X0014275Y0133017D01*
X0014314Y0133093D01*
X0014356Y0133168D01*
X0014402Y0133241D01*
X0014451Y0133312D01*
X0014503Y0133380D01*
X0014558Y0133446D01*
X0014616Y0133510D01*
X0014677Y0133571D01*
X0014741Y0133629D01*
X0014807Y0133684D01*
X0014875Y0133736D01*
X0014946Y0133785D01*
X0015019Y0133831D01*
X0015094Y0133873D01*
X0015170Y0133912D01*
X0015249Y0133948D01*
X0015328Y0133980D01*
X0015410Y0134008D01*
X0015492Y0134033D01*
X0015575Y0134054D01*
X0015660Y0134071D01*
X0015745Y0134085D01*
X0015830Y0134094D01*
X0015916Y0134100D01*
X0016002Y0134102D01*
X0016956Y0134102D01*
X0017066Y0134104D01*
X0017176Y0134110D01*
X0017285Y0134119D01*
X0017395Y0134133D01*
X0017503Y0134150D01*
X0017611Y0134171D01*
X0017719Y0134196D01*
X0017825Y0134224D01*
X0017930Y0134256D01*
X0018034Y0134292D01*
X0018137Y0134332D01*
X0018238Y0134375D01*
X0018338Y0134421D01*
X0018436Y0134471D01*
X0018532Y0134524D01*
X0018626Y0134581D01*
X0018719Y0134641D01*
X0018809Y0134704D01*
X0018897Y0134770D01*
X0018982Y0134839D01*
X0019065Y0134912D01*
X0019146Y0134987D01*
X0019223Y0135064D01*
X0019298Y0135145D01*
X0019371Y0135228D01*
X0019440Y0135313D01*
X0019506Y0135401D01*
X0019569Y0135491D01*
X0019629Y0135584D01*
X0019686Y0135678D01*
X0019739Y0135774D01*
X0019789Y0135872D01*
X0019835Y0135972D01*
X0019878Y0136073D01*
X0019918Y0136176D01*
X0019954Y0136280D01*
X0019986Y0136385D01*
X0020014Y0136491D01*
X0020039Y0136599D01*
X0020060Y0136707D01*
X0020077Y0136815D01*
X0020091Y0136925D01*
X0020100Y0137034D01*
X0020106Y0137144D01*
X0020108Y0137254D01*
X0020108Y0163755D01*
X0020110Y0163856D01*
X0020116Y0163957D01*
X0020126Y0164057D01*
X0020139Y0164157D01*
X0020157Y0164256D01*
X0020178Y0164355D01*
X0020203Y0164453D01*
X0020231Y0164549D01*
X0020264Y0164645D01*
X0020300Y0164739D01*
X0020339Y0164832D01*
X0020382Y0164923D01*
X0020429Y0165012D01*
X0020479Y0165100D01*
X0020532Y0165186D01*
X0020588Y0165269D01*
X0020648Y0165351D01*
X0020711Y0165429D01*
X0020776Y0165506D01*
X0020845Y0165580D01*
X0020916Y0165651D01*
X0020990Y0165720D01*
X0021067Y0165785D01*
X0021146Y0165848D01*
X0021227Y0165907D01*
X0021311Y0165964D01*
X0021397Y0166017D01*
X0021484Y0166067D01*
X0021574Y0166113D01*
X0021665Y0166156D01*
X0021758Y0166196D01*
X0021852Y0166231D01*
X0021948Y0166264D01*
X0022044Y0166292D01*
X0022142Y0166317D01*
X0022241Y0166338D01*
X0022340Y0166355D01*
X0022440Y0166369D01*
X0022540Y0166378D01*
X0022641Y0166384D01*
X0022742Y0166386D01*
X0082985Y0166386D01*
X0083095Y0166388D01*
X0083204Y0166394D01*
X0083313Y0166404D01*
X0083422Y0166417D01*
X0083530Y0166435D01*
X0083637Y0166456D01*
X0083744Y0166481D01*
X0083849Y0166510D01*
X0083954Y0166543D01*
X0084057Y0166579D01*
X0084159Y0166620D01*
X0084259Y0166663D01*
X0084358Y0166711D01*
X0084455Y0166761D01*
X0084551Y0166815D01*
X0084644Y0166873D01*
X0084735Y0166934D01*
X0084824Y0166998D01*
X0084910Y0167065D01*
X0084994Y0167135D01*
X0085076Y0167209D01*
X0085154Y0167285D01*
X0085230Y0167363D01*
X0085304Y0167445D01*
X0085374Y0167529D01*
X0085441Y0167615D01*
X0085505Y0167704D01*
X0085566Y0167795D01*
X0085624Y0167888D01*
X0085678Y0167984D01*
X0085728Y0168081D01*
X0085776Y0168180D01*
X0085819Y0168280D01*
X0085860Y0168382D01*
X0085896Y0168485D01*
X0085929Y0168590D01*
X0085958Y0168695D01*
X0085983Y0168802D01*
X0086004Y0168909D01*
X0086022Y0169017D01*
X0086035Y0169126D01*
X0086045Y0169235D01*
X0086051Y0169344D01*
X0086053Y0169454D01*
X0086053Y0191669D01*
X0086055Y0191824D01*
X0086061Y0191979D01*
X0086070Y0192133D01*
X0086084Y0192288D01*
X0086101Y0192442D01*
X0086122Y0192595D01*
X0086147Y0192748D01*
X0086176Y0192900D01*
X0086209Y0193052D01*
X0086245Y0193202D01*
X0086285Y0193352D01*
X0086329Y0193500D01*
X0086377Y0193648D01*
X0086428Y0193794D01*
X0086482Y0193939D01*
X0086541Y0194082D01*
X0086603Y0194224D01*
X0086668Y0194365D01*
X0086737Y0194503D01*
X0086810Y0194640D01*
X0086885Y0194775D01*
X0086965Y0194909D01*
X0087047Y0195040D01*
X0087133Y0195169D01*
X0087221Y0195296D01*
X0087313Y0195420D01*
X0087408Y0195543D01*
X0087507Y0195663D01*
X0087608Y0195780D01*
X0087712Y0195895D01*
X0087818Y0196007D01*
X0087928Y0196117D01*
X0088040Y0196223D01*
X0088155Y0196327D01*
X0088272Y0196428D01*
X0088392Y0196527D01*
X0088515Y0196622D01*
X0088639Y0196714D01*
X0088766Y0196802D01*
X0088895Y0196888D01*
X0089026Y0196970D01*
X0089159Y0197050D01*
X0089295Y0197125D01*
X0089432Y0197198D01*
X0089570Y0197267D01*
X0089711Y0197332D01*
X0089853Y0197394D01*
X0089996Y0197453D01*
X0090141Y0197507D01*
X0090287Y0197558D01*
X0090435Y0197606D01*
X0090583Y0197650D01*
X0090733Y0197690D01*
X0090883Y0197726D01*
X0091035Y0197759D01*
X0091187Y0197788D01*
X0091340Y0197813D01*
X0091493Y0197834D01*
X0091647Y0197851D01*
X0091802Y0197865D01*
X0091956Y0197874D01*
X0092111Y0197880D01*
X0092266Y0197882D01*
X0111769Y0197882D01*
X0111920Y0197880D01*
X0112072Y0197874D01*
X0112222Y0197864D01*
X0112373Y0197850D01*
X0112523Y0197833D01*
X0112673Y0197811D01*
X0112822Y0197785D01*
X0112971Y0197756D01*
X0113118Y0197722D01*
X0113265Y0197685D01*
X0113411Y0197644D01*
X0113555Y0197599D01*
X0113698Y0197550D01*
X0113840Y0197498D01*
X0113981Y0197442D01*
X0114120Y0197382D01*
X0114257Y0197319D01*
X0114393Y0197252D01*
X0114527Y0197182D01*
X0114659Y0197108D01*
X0114789Y0197030D01*
X0114917Y0196950D01*
X0115043Y0196865D01*
X0115166Y0196778D01*
X0115288Y0196688D01*
X0115406Y0196594D01*
X0115523Y0196497D01*
X0115637Y0196397D01*
X0115748Y0196295D01*
X0115856Y0196189D01*
X0115962Y0196081D01*
X0116064Y0195970D01*
X0116164Y0195856D01*
X0116261Y0195739D01*
X0116355Y0195621D01*
X0116445Y0195499D01*
X0116532Y0195376D01*
X0116617Y0195250D01*
X0116697Y0195122D01*
X0116775Y0194992D01*
X0116849Y0194860D01*
X0116919Y0194726D01*
X0116986Y0194590D01*
X0117049Y0194453D01*
X0117109Y0194314D01*
X0117165Y0194173D01*
X0117217Y0194031D01*
X0117266Y0193888D01*
X0117311Y0193744D01*
X0117352Y0193598D01*
X0117389Y0193451D01*
X0117423Y0193304D01*
X0117452Y0193155D01*
X0117478Y0193006D01*
X0117500Y0192856D01*
X0117517Y0192706D01*
X0117531Y0192555D01*
X0117541Y0192405D01*
X0117547Y0192253D01*
X0117549Y0192102D01*
X0117549Y0163780D01*
X0117551Y0163637D01*
X0117557Y0163495D01*
X0117566Y0163352D01*
X0117580Y0163210D01*
X0117597Y0163069D01*
X0117618Y0162928D01*
X0117643Y0162787D01*
X0117672Y0162647D01*
X0117705Y0162508D01*
X0117741Y0162370D01*
X0117781Y0162233D01*
X0117825Y0162098D01*
X0117872Y0161963D01*
X0117923Y0161830D01*
X0117978Y0161698D01*
X0118036Y0161568D01*
X0118098Y0161439D01*
X0118163Y0161312D01*
X0118231Y0161187D01*
X0118303Y0161064D01*
X0118378Y0160942D01*
X0118457Y0160823D01*
X0118539Y0160706D01*
X0118623Y0160591D01*
X0118711Y0160479D01*
X0118802Y0160369D01*
X0118896Y0160261D01*
X0118993Y0160157D01*
X0119092Y0160054D01*
X0119195Y0159955D01*
X0119299Y0159858D01*
X0119407Y0159764D01*
X0119517Y0159673D01*
X0119629Y0159585D01*
X0119744Y0159501D01*
X0119861Y0159419D01*
X0119980Y0159340D01*
X0120102Y0159265D01*
X0120225Y0159193D01*
X0120350Y0159125D01*
X0120477Y0159060D01*
X0120606Y0158998D01*
X0120736Y0158940D01*
X0120868Y0158885D01*
X0121001Y0158834D01*
X0121136Y0158787D01*
X0121271Y0158743D01*
X0121408Y0158703D01*
X0121546Y0158667D01*
X0121685Y0158634D01*
X0121825Y0158605D01*
X0121966Y0158580D01*
X0122107Y0158559D01*
X0122248Y0158542D01*
X0122390Y0158528D01*
X0122533Y0158519D01*
X0122675Y0158513D01*
X0122818Y0158511D01*
X0122818Y0158512D02*
X0198035Y0158512D01*
X0198190Y0158510D01*
X0198345Y0158504D01*
X0198500Y0158494D01*
X0198655Y0158481D01*
X0198809Y0158463D01*
X0198963Y0158441D01*
X0199116Y0158416D01*
X0199269Y0158387D01*
X0199420Y0158353D01*
X0199571Y0158316D01*
X0199721Y0158276D01*
X0199870Y0158231D01*
X0200017Y0158183D01*
X0200164Y0158130D01*
X0200309Y0158075D01*
X0200452Y0158015D01*
X0200594Y0157952D01*
X0200734Y0157886D01*
X0200873Y0157816D01*
X0201009Y0157742D01*
X0201144Y0157665D01*
X0201277Y0157584D01*
X0201408Y0157501D01*
X0201536Y0157413D01*
X0201663Y0157323D01*
X0201787Y0157230D01*
X0201908Y0157133D01*
X0202027Y0157033D01*
X0202144Y0156931D01*
X0202258Y0156825D01*
X0202369Y0156717D01*
X0202477Y0156606D01*
X0202583Y0156492D01*
X0202685Y0156375D01*
X0202785Y0156256D01*
X0202882Y0156135D01*
X0202975Y0156011D01*
X0203065Y0155884D01*
X0203153Y0155756D01*
X0203236Y0155625D01*
X0203317Y0155492D01*
X0203394Y0155357D01*
X0203468Y0155221D01*
X0203538Y0155082D01*
X0203604Y0154942D01*
X0203667Y0154800D01*
X0203727Y0154657D01*
X0203782Y0154512D01*
X0203835Y0154365D01*
X0203883Y0154218D01*
X0203928Y0154069D01*
X0203968Y0153919D01*
X0204005Y0153768D01*
X0204039Y0153617D01*
X0204068Y0153464D01*
X0204093Y0153311D01*
X0204115Y0153157D01*
X0204133Y0153003D01*
X0204146Y0152848D01*
X0204156Y0152693D01*
X0204162Y0152538D01*
X0204164Y0152383D01*
X0204163Y0152383D02*
X0204163Y0008939D01*
X0204161Y0008748D01*
X0204154Y0008557D01*
X0204142Y0008366D01*
X0204126Y0008176D01*
X0204105Y0007986D01*
X0204080Y0007797D01*
X0204050Y0007608D01*
X0204016Y0007420D01*
X0203977Y0007233D01*
X0203933Y0007047D01*
X0203885Y0006862D01*
X0203833Y0006678D01*
X0203776Y0006496D01*
X0203715Y0006315D01*
X0203649Y0006135D01*
X0203579Y0005957D01*
X0203505Y0005781D01*
X0203427Y0005607D01*
X0203344Y0005435D01*
X0203257Y0005264D01*
X0203166Y0005096D01*
X0203072Y0004930D01*
X0202973Y0004767D01*
X0202870Y0004606D01*
X0202763Y0004447D01*
X0202653Y0004291D01*
X0202539Y0004138D01*
X0202421Y0003988D01*
X0202299Y0003840D01*
X0202174Y0003696D01*
X0202046Y0003554D01*
X0201914Y0003416D01*
X0201779Y0003281D01*
X0201641Y0003149D01*
X0201499Y0003021D01*
X0201355Y0002896D01*
X0201207Y0002774D01*
X0201057Y0002656D01*
X0200904Y0002542D01*
X0200748Y0002432D01*
X0200589Y0002325D01*
X0200428Y0002222D01*
X0200265Y0002123D01*
X0200099Y0002029D01*
X0199931Y0001938D01*
X0199760Y0001851D01*
X0199588Y0001768D01*
X0199414Y0001690D01*
X0199238Y0001616D01*
X0199060Y0001546D01*
X0198880Y0001480D01*
X0198699Y0001419D01*
X0198517Y0001362D01*
X0198333Y0001310D01*
X0198148Y0001262D01*
X0197962Y0001218D01*
X0197775Y0001179D01*
X0197587Y0001145D01*
X0197398Y0001115D01*
X0197209Y0001090D01*
X0197019Y0001069D01*
X0196829Y0001053D01*
X0196638Y0001041D01*
X0196447Y0001034D01*
X0196256Y0001032D01*
X0196256Y0001031D02*
X0017145Y0001031D01*
X0016993Y0001033D01*
X0016842Y0001039D01*
X0016690Y0001049D01*
X0016539Y0001062D01*
X0016388Y0001080D01*
X0016238Y0001101D01*
X0016088Y0001127D01*
X0015939Y0001156D01*
X0015791Y0001189D01*
X0015644Y0001225D01*
X0015497Y0001266D01*
X0015352Y0001310D01*
X0015208Y0001358D01*
X0015066Y0001410D01*
X0014924Y0001465D01*
X0014784Y0001524D01*
X0014646Y0001587D01*
X0014509Y0001653D01*
X0014374Y0001723D01*
X0014241Y0001796D01*
X0014110Y0001872D01*
X0013981Y0001952D01*
X0013854Y0002035D01*
X0013729Y0002121D01*
X0013607Y0002211D01*
X0013487Y0002304D01*
X0013369Y0002399D01*
X0013253Y0002498D01*
X0013141Y0002600D01*
X0013031Y0002704D01*
X0012923Y0002812D01*
X0012819Y0002922D01*
X0012717Y0003034D01*
X0012618Y0003150D01*
X0012523Y0003268D01*
X0012430Y0003388D01*
X0012340Y0003510D01*
X0012254Y0003635D01*
X0012171Y0003762D01*
X0012091Y0003891D01*
X0012015Y0004022D01*
X0011942Y0004155D01*
X0011872Y0004290D01*
X0011806Y0004427D01*
X0011743Y0004565D01*
X0011684Y0004705D01*
X0011629Y0004847D01*
X0011577Y0004989D01*
X0011529Y0005133D01*
X0011485Y0005278D01*
X0011444Y0005425D01*
X0011408Y0005572D01*
X0011375Y0005720D01*
X0011346Y0005869D01*
X0011320Y0006019D01*
X0011299Y0006169D01*
X0011281Y0006320D01*
X0011268Y0006471D01*
X0011258Y0006623D01*
X0011252Y0006774D01*
X0011250Y0006926D01*
X0018731Y0070362D02*
X0018733Y0070459D01*
X0018739Y0070556D01*
X0018749Y0070652D01*
X0018763Y0070748D01*
X0018781Y0070844D01*
X0018802Y0070938D01*
X0018828Y0071032D01*
X0018857Y0071124D01*
X0018891Y0071215D01*
X0018927Y0071305D01*
X0018968Y0071393D01*
X0019012Y0071479D01*
X0019060Y0071564D01*
X0019111Y0071646D01*
X0019165Y0071727D01*
X0019223Y0071805D01*
X0019284Y0071880D01*
X0019347Y0071953D01*
X0019414Y0072024D01*
X0019484Y0072091D01*
X0019556Y0072156D01*
X0019631Y0072217D01*
X0019709Y0072276D01*
X0019788Y0072331D01*
X0019870Y0072383D01*
X0019954Y0072431D01*
X0020040Y0072476D01*
X0020128Y0072518D01*
X0020217Y0072556D01*
X0020308Y0072590D01*
X0020400Y0072620D01*
X0020493Y0072647D01*
X0020588Y0072669D01*
X0020683Y0072688D01*
X0020779Y0072703D01*
X0020875Y0072714D01*
X0020972Y0072721D01*
X0021069Y0072724D01*
X0021166Y0072723D01*
X0021263Y0072718D01*
X0021359Y0072709D01*
X0021455Y0072696D01*
X0021551Y0072679D01*
X0021646Y0072658D01*
X0021739Y0072634D01*
X0021832Y0072605D01*
X0021924Y0072573D01*
X0022014Y0072537D01*
X0022102Y0072498D01*
X0022189Y0072454D01*
X0022274Y0072408D01*
X0022357Y0072357D01*
X0022438Y0072304D01*
X0022516Y0072247D01*
X0022593Y0072187D01*
X0022666Y0072124D01*
X0022737Y0072058D01*
X0022805Y0071989D01*
X0022871Y0071917D01*
X0022933Y0071843D01*
X0022992Y0071766D01*
X0023048Y0071687D01*
X0023101Y0071605D01*
X0023151Y0071522D01*
X0023196Y0071436D01*
X0023239Y0071349D01*
X0023278Y0071260D01*
X0023313Y0071170D01*
X0023344Y0071078D01*
X0023371Y0070985D01*
X0023395Y0070891D01*
X0023415Y0070796D01*
X0023431Y0070700D01*
X0023443Y0070604D01*
X0023451Y0070507D01*
X0023455Y0070410D01*
X0023455Y0070314D01*
X0023451Y0070217D01*
X0023443Y0070120D01*
X0023431Y0070024D01*
X0023415Y0069928D01*
X0023395Y0069833D01*
X0023371Y0069739D01*
X0023344Y0069646D01*
X0023313Y0069554D01*
X0023278Y0069464D01*
X0023239Y0069375D01*
X0023196Y0069288D01*
X0023151Y0069202D01*
X0023101Y0069119D01*
X0023048Y0069037D01*
X0022992Y0068958D01*
X0022933Y0068881D01*
X0022871Y0068807D01*
X0022805Y0068735D01*
X0022737Y0068666D01*
X0022666Y0068600D01*
X0022593Y0068537D01*
X0022516Y0068477D01*
X0022438Y0068420D01*
X0022357Y0068367D01*
X0022274Y0068316D01*
X0022189Y0068270D01*
X0022102Y0068226D01*
X0022014Y0068187D01*
X0021924Y0068151D01*
X0021832Y0068119D01*
X0021739Y0068090D01*
X0021646Y0068066D01*
X0021551Y0068045D01*
X0021455Y0068028D01*
X0021359Y0068015D01*
X0021263Y0068006D01*
X0021166Y0068001D01*
X0021069Y0068000D01*
X0020972Y0068003D01*
X0020875Y0068010D01*
X0020779Y0068021D01*
X0020683Y0068036D01*
X0020588Y0068055D01*
X0020493Y0068077D01*
X0020400Y0068104D01*
X0020308Y0068134D01*
X0020217Y0068168D01*
X0020128Y0068206D01*
X0020040Y0068248D01*
X0019954Y0068293D01*
X0019870Y0068341D01*
X0019788Y0068393D01*
X0019709Y0068448D01*
X0019631Y0068507D01*
X0019556Y0068568D01*
X0019484Y0068633D01*
X0019414Y0068700D01*
X0019347Y0068771D01*
X0019284Y0068844D01*
X0019223Y0068919D01*
X0019165Y0068997D01*
X0019111Y0069078D01*
X0019060Y0069160D01*
X0019012Y0069245D01*
X0018968Y0069331D01*
X0018927Y0069419D01*
X0018891Y0069509D01*
X0018857Y0069600D01*
X0018828Y0069692D01*
X0018802Y0069786D01*
X0018781Y0069880D01*
X0018763Y0069976D01*
X0018749Y0070072D01*
X0018739Y0070168D01*
X0018733Y0070265D01*
X0018731Y0070362D01*
X0046290Y0070362D02*
X0046292Y0070459D01*
X0046298Y0070556D01*
X0046308Y0070652D01*
X0046322Y0070748D01*
X0046340Y0070844D01*
X0046361Y0070938D01*
X0046387Y0071032D01*
X0046416Y0071124D01*
X0046450Y0071215D01*
X0046486Y0071305D01*
X0046527Y0071393D01*
X0046571Y0071479D01*
X0046619Y0071564D01*
X0046670Y0071646D01*
X0046724Y0071727D01*
X0046782Y0071805D01*
X0046843Y0071880D01*
X0046906Y0071953D01*
X0046973Y0072024D01*
X0047043Y0072091D01*
X0047115Y0072156D01*
X0047190Y0072217D01*
X0047268Y0072276D01*
X0047347Y0072331D01*
X0047429Y0072383D01*
X0047513Y0072431D01*
X0047599Y0072476D01*
X0047687Y0072518D01*
X0047776Y0072556D01*
X0047867Y0072590D01*
X0047959Y0072620D01*
X0048052Y0072647D01*
X0048147Y0072669D01*
X0048242Y0072688D01*
X0048338Y0072703D01*
X0048434Y0072714D01*
X0048531Y0072721D01*
X0048628Y0072724D01*
X0048725Y0072723D01*
X0048822Y0072718D01*
X0048918Y0072709D01*
X0049014Y0072696D01*
X0049110Y0072679D01*
X0049205Y0072658D01*
X0049298Y0072634D01*
X0049391Y0072605D01*
X0049483Y0072573D01*
X0049573Y0072537D01*
X0049661Y0072498D01*
X0049748Y0072454D01*
X0049833Y0072408D01*
X0049916Y0072357D01*
X0049997Y0072304D01*
X0050075Y0072247D01*
X0050152Y0072187D01*
X0050225Y0072124D01*
X0050296Y0072058D01*
X0050364Y0071989D01*
X0050430Y0071917D01*
X0050492Y0071843D01*
X0050551Y0071766D01*
X0050607Y0071687D01*
X0050660Y0071605D01*
X0050710Y0071522D01*
X0050755Y0071436D01*
X0050798Y0071349D01*
X0050837Y0071260D01*
X0050872Y0071170D01*
X0050903Y0071078D01*
X0050930Y0070985D01*
X0050954Y0070891D01*
X0050974Y0070796D01*
X0050990Y0070700D01*
X0051002Y0070604D01*
X0051010Y0070507D01*
X0051014Y0070410D01*
X0051014Y0070314D01*
X0051010Y0070217D01*
X0051002Y0070120D01*
X0050990Y0070024D01*
X0050974Y0069928D01*
X0050954Y0069833D01*
X0050930Y0069739D01*
X0050903Y0069646D01*
X0050872Y0069554D01*
X0050837Y0069464D01*
X0050798Y0069375D01*
X0050755Y0069288D01*
X0050710Y0069202D01*
X0050660Y0069119D01*
X0050607Y0069037D01*
X0050551Y0068958D01*
X0050492Y0068881D01*
X0050430Y0068807D01*
X0050364Y0068735D01*
X0050296Y0068666D01*
X0050225Y0068600D01*
X0050152Y0068537D01*
X0050075Y0068477D01*
X0049997Y0068420D01*
X0049916Y0068367D01*
X0049833Y0068316D01*
X0049748Y0068270D01*
X0049661Y0068226D01*
X0049573Y0068187D01*
X0049483Y0068151D01*
X0049391Y0068119D01*
X0049298Y0068090D01*
X0049205Y0068066D01*
X0049110Y0068045D01*
X0049014Y0068028D01*
X0048918Y0068015D01*
X0048822Y0068006D01*
X0048725Y0068001D01*
X0048628Y0068000D01*
X0048531Y0068003D01*
X0048434Y0068010D01*
X0048338Y0068021D01*
X0048242Y0068036D01*
X0048147Y0068055D01*
X0048052Y0068077D01*
X0047959Y0068104D01*
X0047867Y0068134D01*
X0047776Y0068168D01*
X0047687Y0068206D01*
X0047599Y0068248D01*
X0047513Y0068293D01*
X0047429Y0068341D01*
X0047347Y0068393D01*
X0047268Y0068448D01*
X0047190Y0068507D01*
X0047115Y0068568D01*
X0047043Y0068633D01*
X0046973Y0068700D01*
X0046906Y0068771D01*
X0046843Y0068844D01*
X0046782Y0068919D01*
X0046724Y0068997D01*
X0046670Y0069078D01*
X0046619Y0069160D01*
X0046571Y0069245D01*
X0046527Y0069331D01*
X0046486Y0069419D01*
X0046450Y0069509D01*
X0046416Y0069600D01*
X0046387Y0069692D01*
X0046361Y0069786D01*
X0046340Y0069880D01*
X0046322Y0069976D01*
X0046308Y0070072D01*
X0046298Y0070168D01*
X0046292Y0070265D01*
X0046290Y0070362D01*
X0031172Y0106504D02*
X0031174Y0106566D01*
X0031180Y0106629D01*
X0031190Y0106690D01*
X0031204Y0106751D01*
X0031221Y0106811D01*
X0031242Y0106870D01*
X0031268Y0106927D01*
X0031296Y0106982D01*
X0031328Y0107036D01*
X0031364Y0107087D01*
X0031402Y0107137D01*
X0031444Y0107183D01*
X0031488Y0107227D01*
X0031536Y0107268D01*
X0031585Y0107306D01*
X0031637Y0107340D01*
X0031691Y0107371D01*
X0031747Y0107399D01*
X0031805Y0107423D01*
X0031864Y0107444D01*
X0031924Y0107460D01*
X0031985Y0107473D01*
X0032047Y0107482D01*
X0032109Y0107487D01*
X0032172Y0107488D01*
X0032234Y0107485D01*
X0032296Y0107478D01*
X0032358Y0107467D01*
X0032418Y0107452D01*
X0032478Y0107434D01*
X0032536Y0107412D01*
X0032593Y0107386D01*
X0032648Y0107356D01*
X0032701Y0107323D01*
X0032752Y0107287D01*
X0032800Y0107248D01*
X0032846Y0107205D01*
X0032889Y0107160D01*
X0032929Y0107112D01*
X0032966Y0107062D01*
X0033000Y0107009D01*
X0033031Y0106955D01*
X0033057Y0106899D01*
X0033081Y0106841D01*
X0033100Y0106781D01*
X0033116Y0106721D01*
X0033128Y0106659D01*
X0033136Y0106598D01*
X0033140Y0106535D01*
X0033140Y0106473D01*
X0033136Y0106410D01*
X0033128Y0106349D01*
X0033116Y0106287D01*
X0033100Y0106227D01*
X0033081Y0106167D01*
X0033057Y0106109D01*
X0033031Y0106053D01*
X0033000Y0105999D01*
X0032966Y0105946D01*
X0032929Y0105896D01*
X0032889Y0105848D01*
X0032846Y0105803D01*
X0032800Y0105760D01*
X0032752Y0105721D01*
X0032701Y0105685D01*
X0032648Y0105652D01*
X0032593Y0105622D01*
X0032536Y0105596D01*
X0032478Y0105574D01*
X0032418Y0105556D01*
X0032358Y0105541D01*
X0032296Y0105530D01*
X0032234Y0105523D01*
X0032172Y0105520D01*
X0032109Y0105521D01*
X0032047Y0105526D01*
X0031985Y0105535D01*
X0031924Y0105548D01*
X0031864Y0105564D01*
X0031805Y0105585D01*
X0031747Y0105609D01*
X0031691Y0105637D01*
X0031637Y0105668D01*
X0031585Y0105702D01*
X0031536Y0105740D01*
X0031488Y0105781D01*
X0031444Y0105825D01*
X0031402Y0105871D01*
X0031364Y0105921D01*
X0031328Y0105972D01*
X0031296Y0106026D01*
X0031268Y0106081D01*
X0031242Y0106138D01*
X0031221Y0106197D01*
X0031204Y0106257D01*
X0031190Y0106318D01*
X0031180Y0106379D01*
X0031174Y0106442D01*
X0031172Y0106504D01*
X0031172Y0122252D02*
X0031174Y0122314D01*
X0031180Y0122377D01*
X0031190Y0122438D01*
X0031204Y0122499D01*
X0031221Y0122559D01*
X0031242Y0122618D01*
X0031268Y0122675D01*
X0031296Y0122730D01*
X0031328Y0122784D01*
X0031364Y0122835D01*
X0031402Y0122885D01*
X0031444Y0122931D01*
X0031488Y0122975D01*
X0031536Y0123016D01*
X0031585Y0123054D01*
X0031637Y0123088D01*
X0031691Y0123119D01*
X0031747Y0123147D01*
X0031805Y0123171D01*
X0031864Y0123192D01*
X0031924Y0123208D01*
X0031985Y0123221D01*
X0032047Y0123230D01*
X0032109Y0123235D01*
X0032172Y0123236D01*
X0032234Y0123233D01*
X0032296Y0123226D01*
X0032358Y0123215D01*
X0032418Y0123200D01*
X0032478Y0123182D01*
X0032536Y0123160D01*
X0032593Y0123134D01*
X0032648Y0123104D01*
X0032701Y0123071D01*
X0032752Y0123035D01*
X0032800Y0122996D01*
X0032846Y0122953D01*
X0032889Y0122908D01*
X0032929Y0122860D01*
X0032966Y0122810D01*
X0033000Y0122757D01*
X0033031Y0122703D01*
X0033057Y0122647D01*
X0033081Y0122589D01*
X0033100Y0122529D01*
X0033116Y0122469D01*
X0033128Y0122407D01*
X0033136Y0122346D01*
X0033140Y0122283D01*
X0033140Y0122221D01*
X0033136Y0122158D01*
X0033128Y0122097D01*
X0033116Y0122035D01*
X0033100Y0121975D01*
X0033081Y0121915D01*
X0033057Y0121857D01*
X0033031Y0121801D01*
X0033000Y0121747D01*
X0032966Y0121694D01*
X0032929Y0121644D01*
X0032889Y0121596D01*
X0032846Y0121551D01*
X0032800Y0121508D01*
X0032752Y0121469D01*
X0032701Y0121433D01*
X0032648Y0121400D01*
X0032593Y0121370D01*
X0032536Y0121344D01*
X0032478Y0121322D01*
X0032418Y0121304D01*
X0032358Y0121289D01*
X0032296Y0121278D01*
X0032234Y0121271D01*
X0032172Y0121268D01*
X0032109Y0121269D01*
X0032047Y0121274D01*
X0031985Y0121283D01*
X0031924Y0121296D01*
X0031864Y0121312D01*
X0031805Y0121333D01*
X0031747Y0121357D01*
X0031691Y0121385D01*
X0031637Y0121416D01*
X0031585Y0121450D01*
X0031536Y0121488D01*
X0031488Y0121529D01*
X0031444Y0121573D01*
X0031402Y0121619D01*
X0031364Y0121669D01*
X0031328Y0121720D01*
X0031296Y0121774D01*
X0031268Y0121829D01*
X0031242Y0121886D01*
X0031221Y0121945D01*
X0031204Y0122005D01*
X0031190Y0122066D01*
X0031180Y0122127D01*
X0031174Y0122190D01*
X0031172Y0122252D01*
D11*
X0011250Y0082173D02*
X0063612Y0082173D01*
X0063612Y0058551D01*
X0011250Y0058551D01*
X0011250Y0059535D01*
X0011250Y0081189D01*
X0011250Y0082173D01*
X0037589Y0050519D02*
X0038770Y0048473D01*
X0042510Y0048709D02*
X0042510Y0051071D01*
X0046447Y0048420D02*
X0047628Y0050466D01*
X0050710Y0048247D02*
X0049040Y0046577D01*
X0049807Y0043984D02*
X0051853Y0045165D01*
X0051918Y0041534D02*
X0049637Y0040923D01*
X0049596Y0038079D02*
X0051959Y0038079D01*
X0049610Y0035031D02*
X0051892Y0034026D01*
X0049712Y0031271D02*
X0051382Y0029600D01*
X0035471Y0031434D02*
X0033801Y0029763D01*
X0028809Y0029339D02*
X0026447Y0029339D01*
X0026447Y0023827D01*
X0028809Y0023827D01*
X0028809Y0009260D01*
X0011486Y0009260D01*
X0011486Y0018315D01*
X0013061Y0018315D01*
X0013061Y0034850D01*
X0011486Y0034850D01*
X0011486Y0043906D01*
X0028809Y0043906D01*
X0028809Y0029339D01*
X0028809Y0023827D01*
X0033101Y0034230D02*
X0035383Y0035235D01*
X0035423Y0038472D02*
X0033061Y0038472D01*
X0033074Y0041724D02*
X0035356Y0041113D01*
X0035265Y0044181D02*
X0033219Y0045362D01*
X0035865Y0046692D02*
X0034194Y0048363D01*
X0011486Y0034850D02*
X0011486Y0030520D01*
X0001250Y0030520D01*
X0001250Y0022646D01*
X0011486Y0022646D01*
X0011486Y0030520D01*
X0011486Y0022646D02*
X0011486Y0018315D01*
X0069478Y0018479D02*
X0141354Y0018479D01*
X0141358Y0017981D02*
X0069478Y0017981D01*
X0069478Y0017482D02*
X0141361Y0017482D01*
X0141364Y0016984D02*
X0069478Y0016984D01*
X0069478Y0016485D02*
X0141367Y0016485D01*
X0141370Y0015987D02*
X0069478Y0015987D01*
X0069478Y0015488D02*
X0141373Y0015488D01*
X0141377Y0014990D02*
X0069478Y0014990D01*
X0069478Y0014491D02*
X0141380Y0014491D01*
X0141383Y0013993D02*
X0069478Y0013993D01*
X0069478Y0013494D02*
X0141386Y0013494D01*
X0141389Y0012996D02*
X0069478Y0012996D01*
X0069478Y0012497D02*
X0141392Y0012497D01*
X0141396Y0011999D02*
X0069478Y0011999D01*
X0069478Y0011500D02*
X0141399Y0011500D01*
X0141402Y0011002D02*
X0069478Y0011002D01*
X0069478Y0010503D02*
X0141405Y0010503D01*
X0141407Y0010126D02*
X0069478Y0010126D01*
X0069478Y0009732D01*
X0069478Y0006189D01*
X0073415Y0006189D01*
X0073415Y0010126D01*
X0069478Y0010126D01*
X0069478Y0009732D01*
X0069478Y0006189D01*
X0073415Y0006189D01*
X0073415Y0010126D01*
X0069478Y0010126D01*
X0069478Y0009732D01*
X0069478Y0006189D01*
X0073415Y0006189D01*
X0073415Y0010126D01*
X0069478Y0010126D01*
X0069478Y0072150D01*
X0072628Y0072150D01*
X0072628Y0068213D01*
X0082470Y0068213D01*
X0082470Y0072150D01*
X0141014Y0072150D01*
X0141407Y0010126D01*
X0141407Y0009732D02*
X0141407Y0005583D01*
X0137470Y0005583D01*
X0137470Y0009732D01*
X0141407Y0009732D01*
X0141407Y0006583D01*
X0137470Y0006583D01*
X0137470Y0009732D01*
X0141407Y0009732D01*
X0141407Y0006583D01*
X0137470Y0006583D01*
X0137470Y0009732D01*
X0141407Y0009732D01*
X0141407Y0009506D02*
X0137470Y0009506D01*
X0141407Y0009506D01*
X0137470Y0009506D01*
X0137313Y0009506D02*
X0133376Y0009506D01*
X0076289Y0009506D01*
X0076289Y0009260D02*
X0076289Y0019102D01*
X0072352Y0019102D01*
X0072352Y0072646D01*
X0133376Y0073039D01*
X0133376Y0006110D01*
X0133770Y0006110D01*
X0137313Y0006110D01*
X0137313Y0010047D01*
X0133376Y0010047D01*
X0133376Y0006110D01*
X0132982Y0006110D01*
X0072352Y0006110D01*
X0072352Y0009260D01*
X0076289Y0009260D01*
X0076289Y0010005D02*
X0133376Y0010005D01*
X0137313Y0010005D01*
X0137313Y0009008D02*
X0133376Y0009008D01*
X0072352Y0009008D01*
X0072352Y0008509D02*
X0133376Y0008509D01*
X0137313Y0008509D01*
X0137470Y0008509D02*
X0141407Y0008509D01*
X0137470Y0008509D01*
X0141407Y0008509D01*
X0141407Y0008011D02*
X0137470Y0008011D01*
X0141407Y0008011D01*
X0137470Y0008011D01*
X0137313Y0008011D02*
X0133376Y0008011D01*
X0072352Y0008011D01*
X0072352Y0007512D02*
X0133376Y0007512D01*
X0137313Y0007512D01*
X0137470Y0007512D02*
X0141407Y0007512D01*
X0137470Y0007512D01*
X0141407Y0007512D01*
X0141407Y0007014D02*
X0137470Y0007014D01*
X0141407Y0007014D01*
X0137470Y0007014D01*
X0137313Y0007014D02*
X0133376Y0007014D01*
X0072352Y0007014D01*
X0072352Y0006515D02*
X0133376Y0006515D01*
X0137313Y0006515D01*
X0137470Y0006515D02*
X0141407Y0006515D01*
X0141407Y0006189D02*
X0141407Y0072189D01*
X0141016Y0071820D02*
X0082470Y0071820D01*
X0082470Y0071322D02*
X0141019Y0071322D01*
X0141022Y0070823D02*
X0082470Y0070823D01*
X0082470Y0070325D02*
X0141025Y0070325D01*
X0141029Y0069826D02*
X0082470Y0069826D01*
X0082470Y0069328D02*
X0141032Y0069328D01*
X0141035Y0068829D02*
X0082470Y0068829D01*
X0082470Y0068331D02*
X0141038Y0068331D01*
X0141041Y0067832D02*
X0069478Y0067832D01*
X0069478Y0067334D02*
X0141044Y0067334D01*
X0141048Y0066835D02*
X0069478Y0066835D01*
X0069478Y0066336D02*
X0141051Y0066336D01*
X0141054Y0065838D02*
X0069478Y0065838D01*
X0069478Y0065339D02*
X0141057Y0065339D01*
X0141060Y0064841D02*
X0069478Y0064841D01*
X0069478Y0064342D02*
X0141063Y0064342D01*
X0141066Y0063844D02*
X0069478Y0063844D01*
X0069478Y0063345D02*
X0141070Y0063345D01*
X0141073Y0062847D02*
X0069478Y0062847D01*
X0069478Y0062348D02*
X0141076Y0062348D01*
X0141079Y0061850D02*
X0069478Y0061850D01*
X0069478Y0061351D02*
X0141082Y0061351D01*
X0141085Y0060853D02*
X0069478Y0060853D01*
X0069478Y0060354D02*
X0141089Y0060354D01*
X0141092Y0059856D02*
X0069478Y0059856D01*
X0069478Y0059357D02*
X0141095Y0059357D01*
X0141098Y0058859D02*
X0069478Y0058859D01*
X0069478Y0058360D02*
X0141101Y0058360D01*
X0141104Y0057862D02*
X0069478Y0057862D01*
X0069478Y0057363D02*
X0141108Y0057363D01*
X0141111Y0056865D02*
X0069478Y0056865D01*
X0069478Y0056366D02*
X0141114Y0056366D01*
X0141117Y0055868D02*
X0069478Y0055868D01*
X0069478Y0055369D02*
X0141120Y0055369D01*
X0141123Y0054871D02*
X0069478Y0054871D01*
X0069478Y0054372D02*
X0141127Y0054372D01*
X0141130Y0053874D02*
X0069478Y0053874D01*
X0069478Y0053375D02*
X0141133Y0053375D01*
X0141136Y0052877D02*
X0069478Y0052877D01*
X0069478Y0052378D02*
X0141139Y0052378D01*
X0141142Y0051880D02*
X0069478Y0051880D01*
X0069478Y0051381D02*
X0141146Y0051381D01*
X0141149Y0050883D02*
X0069478Y0050883D01*
X0069478Y0050384D02*
X0141152Y0050384D01*
X0141155Y0049886D02*
X0069478Y0049886D01*
X0069478Y0049387D02*
X0141158Y0049387D01*
X0141161Y0048889D02*
X0069478Y0048889D01*
X0069478Y0048390D02*
X0141165Y0048390D01*
X0141168Y0047892D02*
X0069478Y0047892D01*
X0069478Y0047393D02*
X0141171Y0047393D01*
X0141174Y0046895D02*
X0069478Y0046895D01*
X0069478Y0046396D02*
X0141177Y0046396D01*
X0141180Y0045898D02*
X0069478Y0045898D01*
X0069478Y0045399D02*
X0141184Y0045399D01*
X0141187Y0044900D02*
X0069478Y0044900D01*
X0069478Y0044402D02*
X0141190Y0044402D01*
X0141193Y0043903D02*
X0069478Y0043903D01*
X0069478Y0043405D02*
X0141196Y0043405D01*
X0141199Y0042906D02*
X0069478Y0042906D01*
X0069478Y0042408D02*
X0141203Y0042408D01*
X0141206Y0041909D02*
X0069478Y0041909D01*
X0069478Y0041411D02*
X0141209Y0041411D01*
X0141212Y0040912D02*
X0069478Y0040912D01*
X0069478Y0040414D02*
X0141215Y0040414D01*
X0141218Y0039915D02*
X0069478Y0039915D01*
X0069478Y0039417D02*
X0141222Y0039417D01*
X0141225Y0038918D02*
X0069478Y0038918D01*
X0069478Y0038420D02*
X0141228Y0038420D01*
X0141231Y0037921D02*
X0069478Y0037921D01*
X0069478Y0037423D02*
X0141234Y0037423D01*
X0141237Y0036924D02*
X0069478Y0036924D01*
X0069478Y0036426D02*
X0141241Y0036426D01*
X0141244Y0035927D02*
X0069478Y0035927D01*
X0069478Y0035429D02*
X0141247Y0035429D01*
X0141250Y0034930D02*
X0069478Y0034930D01*
X0069478Y0034432D02*
X0141253Y0034432D01*
X0141256Y0033933D02*
X0069478Y0033933D01*
X0069478Y0033435D02*
X0141260Y0033435D01*
X0141263Y0032936D02*
X0069478Y0032936D01*
X0069478Y0032438D02*
X0141266Y0032438D01*
X0141269Y0031939D02*
X0069478Y0031939D01*
X0069478Y0031441D02*
X0141272Y0031441D01*
X0141275Y0030942D02*
X0069478Y0030942D01*
X0069478Y0030444D02*
X0141279Y0030444D01*
X0141282Y0029945D02*
X0069478Y0029945D01*
X0069478Y0029447D02*
X0141285Y0029447D01*
X0141288Y0028948D02*
X0069478Y0028948D01*
X0069478Y0028450D02*
X0141291Y0028450D01*
X0141294Y0027951D02*
X0069478Y0027951D01*
X0069478Y0027453D02*
X0141297Y0027453D01*
X0141301Y0026954D02*
X0069478Y0026954D01*
X0069478Y0026456D02*
X0141304Y0026456D01*
X0141307Y0025957D02*
X0069478Y0025957D01*
X0069478Y0025459D02*
X0141310Y0025459D01*
X0141313Y0024960D02*
X0069478Y0024960D01*
X0069478Y0024462D02*
X0141316Y0024462D01*
X0141320Y0023963D02*
X0069478Y0023963D01*
X0069478Y0023465D02*
X0141323Y0023465D01*
X0141326Y0022966D02*
X0069478Y0022966D01*
X0069478Y0022467D02*
X0141329Y0022467D01*
X0141332Y0021969D02*
X0069478Y0021969D01*
X0069478Y0021470D02*
X0141335Y0021470D01*
X0141339Y0020972D02*
X0069478Y0020972D01*
X0069478Y0020473D02*
X0141342Y0020473D01*
X0141345Y0019975D02*
X0069478Y0019975D01*
X0069478Y0019476D02*
X0141348Y0019476D01*
X0141351Y0018978D02*
X0069478Y0018978D01*
X0072352Y0019476D02*
X0133376Y0019476D01*
X0133376Y0018978D02*
X0076289Y0018978D01*
X0076289Y0018479D02*
X0133376Y0018479D01*
X0133376Y0017981D02*
X0076289Y0017981D01*
X0076289Y0017482D02*
X0133376Y0017482D01*
X0133376Y0016984D02*
X0076289Y0016984D01*
X0076289Y0016485D02*
X0133376Y0016485D01*
X0133376Y0015987D02*
X0076289Y0015987D01*
X0076289Y0015488D02*
X0133376Y0015488D01*
X0133376Y0014990D02*
X0076289Y0014990D01*
X0076289Y0014491D02*
X0133376Y0014491D01*
X0133376Y0013993D02*
X0076289Y0013993D01*
X0076289Y0013494D02*
X0133376Y0013494D01*
X0133376Y0012996D02*
X0076289Y0012996D01*
X0076289Y0012497D02*
X0133376Y0012497D01*
X0133376Y0011999D02*
X0076289Y0011999D01*
X0076289Y0011500D02*
X0133376Y0011500D01*
X0133376Y0011002D02*
X0076289Y0011002D01*
X0076289Y0010503D02*
X0133376Y0010503D01*
X0137470Y0009008D02*
X0141407Y0009008D01*
X0137470Y0009008D01*
X0141407Y0009008D01*
X0141407Y0006017D02*
X0137470Y0006017D01*
X0137313Y0006110D02*
X0072313Y0006110D01*
X0073415Y0006515D02*
X0069478Y0006515D01*
X0073415Y0006515D01*
X0069478Y0006515D01*
X0069478Y0006189D02*
X0069478Y0071189D01*
X0069478Y0071322D02*
X0072628Y0071322D01*
X0072352Y0071322D02*
X0133376Y0071322D01*
X0133770Y0071322D02*
X0136919Y0071322D01*
X0136919Y0071820D02*
X0133770Y0071820D01*
X0133376Y0071820D02*
X0072352Y0071820D01*
X0072628Y0071820D02*
X0069478Y0071820D01*
X0069478Y0070823D02*
X0072628Y0070823D01*
X0072352Y0070823D02*
X0133376Y0070823D01*
X0133770Y0070823D02*
X0136919Y0070823D01*
X0136919Y0070325D02*
X0133770Y0070325D01*
X0133376Y0070325D02*
X0072352Y0070325D01*
X0072628Y0070325D02*
X0069478Y0070325D01*
X0069478Y0069826D02*
X0072628Y0069826D01*
X0072352Y0069826D02*
X0133376Y0069826D01*
X0133770Y0069826D02*
X0136919Y0069826D01*
X0136919Y0069496D02*
X0136919Y0069102D01*
X0133770Y0069102D01*
X0133770Y0073039D01*
X0136919Y0073039D01*
X0136919Y0069496D01*
X0136919Y0069328D02*
X0133770Y0069328D01*
X0133376Y0069328D02*
X0072352Y0069328D01*
X0072628Y0069328D02*
X0069478Y0069328D01*
X0069478Y0068829D02*
X0072628Y0068829D01*
X0072352Y0068829D02*
X0133376Y0068829D01*
X0133376Y0068331D02*
X0072352Y0068331D01*
X0072628Y0068331D02*
X0069478Y0068331D01*
X0072352Y0067832D02*
X0133376Y0067832D01*
X0133376Y0067334D02*
X0072352Y0067334D01*
X0072352Y0066835D02*
X0133376Y0066835D01*
X0133376Y0066336D02*
X0072352Y0066336D01*
X0072352Y0065838D02*
X0133376Y0065838D01*
X0133376Y0065339D02*
X0072352Y0065339D01*
X0072352Y0064841D02*
X0133376Y0064841D01*
X0133376Y0064342D02*
X0072352Y0064342D01*
X0072352Y0063844D02*
X0133376Y0063844D01*
X0133376Y0063345D02*
X0072352Y0063345D01*
X0072352Y0062847D02*
X0133376Y0062847D01*
X0133376Y0062348D02*
X0072352Y0062348D01*
X0072352Y0061850D02*
X0133376Y0061850D01*
X0133376Y0061351D02*
X0072352Y0061351D01*
X0072352Y0060853D02*
X0133376Y0060853D01*
X0133376Y0060354D02*
X0072352Y0060354D01*
X0072352Y0059856D02*
X0133376Y0059856D01*
X0133376Y0059357D02*
X0072352Y0059357D01*
X0072352Y0058859D02*
X0133376Y0058859D01*
X0133376Y0058360D02*
X0072352Y0058360D01*
X0072352Y0057862D02*
X0133376Y0057862D01*
X0133376Y0057363D02*
X0072352Y0057363D01*
X0072352Y0056865D02*
X0133376Y0056865D01*
X0133376Y0056366D02*
X0072352Y0056366D01*
X0072352Y0055868D02*
X0133376Y0055868D01*
X0133376Y0055369D02*
X0072352Y0055369D01*
X0072352Y0054871D02*
X0133376Y0054871D01*
X0133376Y0054372D02*
X0072352Y0054372D01*
X0072352Y0053874D02*
X0133376Y0053874D01*
X0133376Y0053375D02*
X0072352Y0053375D01*
X0072352Y0052877D02*
X0133376Y0052877D01*
X0133376Y0052378D02*
X0072352Y0052378D01*
X0072352Y0051880D02*
X0133376Y0051880D01*
X0133376Y0051381D02*
X0072352Y0051381D01*
X0072352Y0050883D02*
X0133376Y0050883D01*
X0133376Y0050384D02*
X0072352Y0050384D01*
X0072352Y0049886D02*
X0133376Y0049886D01*
X0133376Y0049387D02*
X0072352Y0049387D01*
X0072352Y0048889D02*
X0133376Y0048889D01*
X0133376Y0048390D02*
X0072352Y0048390D01*
X0072352Y0047892D02*
X0133376Y0047892D01*
X0133376Y0047393D02*
X0072352Y0047393D01*
X0072352Y0046895D02*
X0133376Y0046895D01*
X0133376Y0046396D02*
X0072352Y0046396D01*
X0072352Y0045898D02*
X0133376Y0045898D01*
X0133376Y0045399D02*
X0072352Y0045399D01*
X0072352Y0044900D02*
X0133376Y0044900D01*
X0133376Y0044402D02*
X0072352Y0044402D01*
X0072352Y0043903D02*
X0133376Y0043903D01*
X0133376Y0043405D02*
X0072352Y0043405D01*
X0072352Y0042906D02*
X0133376Y0042906D01*
X0133376Y0042408D02*
X0072352Y0042408D01*
X0072352Y0041909D02*
X0133376Y0041909D01*
X0133376Y0041411D02*
X0072352Y0041411D01*
X0072352Y0040912D02*
X0133376Y0040912D01*
X0133376Y0040414D02*
X0072352Y0040414D01*
X0072352Y0039915D02*
X0133376Y0039915D01*
X0133376Y0039417D02*
X0072352Y0039417D01*
X0072352Y0038918D02*
X0133376Y0038918D01*
X0133376Y0038420D02*
X0072352Y0038420D01*
X0072352Y0037921D02*
X0133376Y0037921D01*
X0133376Y0037423D02*
X0072352Y0037423D01*
X0072352Y0036924D02*
X0133376Y0036924D01*
X0133376Y0036426D02*
X0072352Y0036426D01*
X0072352Y0035927D02*
X0133376Y0035927D01*
X0133376Y0035429D02*
X0072352Y0035429D01*
X0072352Y0034930D02*
X0133376Y0034930D01*
X0133376Y0034432D02*
X0072352Y0034432D01*
X0072352Y0033933D02*
X0133376Y0033933D01*
X0133376Y0033435D02*
X0072352Y0033435D01*
X0072352Y0032936D02*
X0133376Y0032936D01*
X0133376Y0032438D02*
X0072352Y0032438D01*
X0072352Y0031939D02*
X0133376Y0031939D01*
X0133376Y0031441D02*
X0072352Y0031441D01*
X0072352Y0030942D02*
X0133376Y0030942D01*
X0133376Y0030444D02*
X0072352Y0030444D01*
X0072352Y0029945D02*
X0133376Y0029945D01*
X0133376Y0029447D02*
X0072352Y0029447D01*
X0072352Y0028948D02*
X0133376Y0028948D01*
X0133376Y0028450D02*
X0072352Y0028450D01*
X0072352Y0027951D02*
X0133376Y0027951D01*
X0133376Y0027453D02*
X0072352Y0027453D01*
X0072352Y0026954D02*
X0133376Y0026954D01*
X0133376Y0026456D02*
X0072352Y0026456D01*
X0072352Y0025957D02*
X0133376Y0025957D01*
X0133376Y0025459D02*
X0072352Y0025459D01*
X0072352Y0024960D02*
X0133376Y0024960D01*
X0133376Y0024462D02*
X0072352Y0024462D01*
X0072352Y0023963D02*
X0133376Y0023963D01*
X0133376Y0023465D02*
X0072352Y0023465D01*
X0072352Y0022966D02*
X0133376Y0022966D01*
X0133376Y0022467D02*
X0072352Y0022467D01*
X0072352Y0021969D02*
X0133376Y0021969D01*
X0133376Y0021470D02*
X0072352Y0021470D01*
X0072352Y0020972D02*
X0133376Y0020972D01*
X0133376Y0020473D02*
X0072352Y0020473D01*
X0072352Y0019975D02*
X0133376Y0019975D01*
X0145699Y0021425D02*
X0145699Y0003709D01*
X0169321Y0003709D01*
X0169321Y0021425D01*
X0159478Y0021425D01*
X0159478Y0023394D01*
X0155541Y0023394D01*
X0155541Y0021425D01*
X0145699Y0021425D01*
X0173337Y0032567D02*
X0173337Y0005008D01*
X0178848Y0005008D01*
X0178848Y0032567D01*
X0173337Y0032567D01*
X0178848Y0032567D02*
X0200896Y0032567D01*
X0200896Y0005008D01*
X0178848Y0005008D01*
X0187254Y0060205D02*
X0132254Y0060205D01*
X0132254Y0157705D01*
X0187254Y0157705D01*
X0187254Y0060205D01*
X0137313Y0073039D02*
X0072313Y0073039D01*
X0072352Y0072319D02*
X0133376Y0072319D01*
X0133770Y0072319D02*
X0136919Y0072319D01*
X0136919Y0072817D02*
X0133770Y0072817D01*
X0133376Y0072817D02*
X0098928Y0072817D01*
X0098353Y0108309D02*
X0100605Y0108309D01*
X0101355Y0109060D01*
X0101355Y0112062D01*
X0100605Y0112813D01*
X0098353Y0112813D01*
X0098353Y0108309D01*
X0096751Y0108309D02*
X0093749Y0108309D01*
X0093749Y0112813D01*
X0096751Y0112813D01*
X0095250Y0110561D02*
X0093749Y0110561D01*
X0092147Y0108309D02*
X0089145Y0108309D01*
X0089145Y0112813D01*
X0183524Y0141045D02*
X0188028Y0141045D01*
X0186526Y0141045D02*
X0183524Y0144048D01*
X0183524Y0145649D02*
X0188028Y0145649D01*
X0188028Y0148652D01*
X0185776Y0147150D02*
X0185776Y0145649D01*
X0183524Y0145649D02*
X0183524Y0148652D01*
X0183524Y0150253D02*
X0184274Y0150253D01*
X0185776Y0151754D01*
X0188028Y0151754D01*
X0185776Y0151754D02*
X0184274Y0153256D01*
X0183524Y0153256D01*
X0188028Y0144048D02*
X0185776Y0141796D01*
X0185989Y0125515D02*
X0190493Y0125515D01*
X0187490Y0124013D02*
X0185989Y0125515D01*
X0187490Y0124013D02*
X0185989Y0122512D01*
X0190493Y0122512D01*
X0189742Y0120911D02*
X0188992Y0120911D01*
X0188241Y0120160D01*
X0188241Y0118659D01*
X0187490Y0117908D01*
X0186740Y0117908D01*
X0185989Y0118659D01*
X0185989Y0120160D01*
X0186740Y0120911D01*
X0189742Y0120911D02*
X0190493Y0120160D01*
X0190493Y0118659D01*
X0189742Y0117908D01*
X0189742Y0116307D02*
X0188241Y0116307D01*
X0188241Y0114806D01*
X0186740Y0116307D02*
X0185989Y0115556D01*
X0185989Y0114055D01*
X0186740Y0113304D01*
X0189742Y0113304D01*
X0190493Y0114055D01*
X0190493Y0115556D01*
X0189742Y0116307D01*
X0073415Y0010005D02*
X0069478Y0010005D01*
X0073415Y0010005D01*
X0069478Y0010005D01*
X0069478Y0009506D02*
X0073415Y0009506D01*
X0069478Y0009506D01*
X0073415Y0009506D01*
X0073415Y0009008D02*
X0069478Y0009008D01*
X0073415Y0009008D01*
X0069478Y0009008D01*
X0069478Y0008509D02*
X0073415Y0008509D01*
X0069478Y0008509D01*
X0073415Y0008509D01*
X0073415Y0008011D02*
X0069478Y0008011D01*
X0073415Y0008011D01*
X0069478Y0008011D01*
X0069478Y0007512D02*
X0073415Y0007512D01*
X0069478Y0007512D01*
X0073415Y0007512D01*
X0073415Y0007014D02*
X0069478Y0007014D01*
X0073415Y0007014D01*
X0069478Y0007014D01*
D12*
X0066992Y0005872D02*
X0065541Y0004905D01*
X0066992Y0003937D01*
X0065541Y0003937D02*
X0065541Y0006840D01*
X0064530Y0006356D02*
X0062595Y0004421D01*
X0063078Y0003937D01*
X0064046Y0003937D01*
X0064530Y0004421D01*
X0064530Y0006356D01*
X0064046Y0006840D01*
X0063078Y0006840D01*
X0062595Y0006356D01*
X0062595Y0004421D01*
X0061583Y0003937D02*
X0059648Y0003937D01*
X0060616Y0003937D02*
X0060616Y0006840D01*
X0059648Y0005872D01*
X0053046Y0006238D02*
X0051111Y0004303D01*
X0051595Y0004787D02*
X0053046Y0003336D01*
X0051111Y0003336D02*
X0051111Y0006238D01*
X0050099Y0005755D02*
X0048164Y0003820D01*
X0048648Y0003336D01*
X0049616Y0003336D01*
X0050099Y0003820D01*
X0050099Y0005755D01*
X0049616Y0006238D01*
X0048648Y0006238D01*
X0048164Y0005755D01*
X0048164Y0003820D01*
X0047153Y0003336D02*
X0045218Y0003336D01*
X0046185Y0003336D02*
X0046185Y0006238D01*
X0045218Y0005271D01*
X0041804Y0004601D02*
X0040836Y0004601D01*
X0041320Y0005569D02*
X0041804Y0006052D01*
X0041320Y0005569D02*
X0041320Y0003150D01*
X0039825Y0003150D02*
X0039825Y0005085D01*
X0039825Y0003150D02*
X0038374Y0003150D01*
X0037890Y0003634D01*
X0037890Y0005085D01*
X0036878Y0003150D02*
X0034943Y0003150D01*
X0035911Y0003150D02*
X0035911Y0006052D01*
X0034943Y0005085D01*
X0017360Y0018752D02*
X0016876Y0018268D01*
X0017360Y0018752D02*
X0017360Y0019719D01*
X0016876Y0020203D01*
X0016392Y0020203D01*
X0015909Y0019719D01*
X0015909Y0018752D01*
X0015425Y0018268D01*
X0014941Y0018268D01*
X0014457Y0018752D01*
X0014457Y0019719D01*
X0014941Y0020203D01*
X0014457Y0021215D02*
X0017360Y0021215D01*
X0016392Y0022182D01*
X0017360Y0023150D01*
X0014457Y0023150D01*
X0014457Y0024161D02*
X0014457Y0025129D01*
X0014457Y0024645D02*
X0017360Y0024645D01*
X0017360Y0024161D02*
X0017360Y0025129D01*
X0017360Y0027093D02*
X0014457Y0027093D01*
X0014457Y0028060D02*
X0014457Y0026125D01*
X0014941Y0029072D02*
X0016876Y0029072D01*
X0017360Y0029556D01*
X0017360Y0030523D01*
X0016876Y0031007D01*
X0017360Y0032019D02*
X0014457Y0032019D01*
X0014941Y0031007D02*
X0014457Y0030523D01*
X0014457Y0029556D01*
X0014941Y0029072D01*
X0015909Y0032019D02*
X0015909Y0033954D01*
X0017360Y0033954D02*
X0014457Y0033954D01*
X0036811Y0026944D02*
X0037779Y0027912D01*
X0037779Y0025009D01*
X0038746Y0025009D02*
X0036811Y0025009D01*
X0039758Y0025493D02*
X0039758Y0027428D01*
X0040242Y0027912D01*
X0041209Y0027912D01*
X0041693Y0027428D01*
X0039758Y0025493D01*
X0040242Y0025009D01*
X0041209Y0025009D01*
X0041693Y0025493D01*
X0041693Y0027428D01*
X0042704Y0027912D02*
X0042704Y0025009D01*
X0042704Y0025977D02*
X0044156Y0026944D01*
X0042704Y0025977D02*
X0044156Y0025009D01*
X0061105Y0047205D02*
X0063040Y0047205D01*
X0062072Y0047205D02*
X0062072Y0050108D01*
X0061105Y0049140D01*
X0064051Y0048173D02*
X0065502Y0049140D01*
X0064051Y0048173D02*
X0065502Y0047205D01*
X0064051Y0047205D02*
X0064051Y0050108D01*
X0073026Y0058467D02*
X0073993Y0059434D01*
X0075928Y0059434D01*
X0075928Y0060446D02*
X0073026Y0060446D01*
X0075928Y0062381D01*
X0073026Y0062381D01*
X0073026Y0063392D02*
X0073026Y0065327D01*
X0073026Y0064360D02*
X0075928Y0064360D01*
X0078026Y0064844D02*
X0078026Y0063392D01*
X0080928Y0063392D01*
X0080928Y0064844D01*
X0080445Y0065327D01*
X0078510Y0065327D01*
X0078026Y0064844D01*
X0078026Y0062381D02*
X0080928Y0062381D01*
X0078026Y0060446D01*
X0080928Y0060446D01*
X0080445Y0059434D02*
X0079477Y0059434D01*
X0079477Y0058467D01*
X0078510Y0059434D02*
X0078026Y0058951D01*
X0078026Y0057983D01*
X0078510Y0057499D01*
X0080445Y0057499D01*
X0080928Y0057983D01*
X0080928Y0058951D01*
X0080445Y0059434D01*
X0075928Y0057499D02*
X0073993Y0057499D01*
X0073026Y0058467D01*
X0074477Y0059434D02*
X0074477Y0057499D01*
X0082204Y0076096D02*
X0081720Y0076579D01*
X0081720Y0077063D01*
X0082204Y0077547D01*
X0083171Y0077547D01*
X0083655Y0077063D01*
X0083655Y0076579D01*
X0083171Y0076096D01*
X0082204Y0076096D01*
X0082204Y0077547D02*
X0081720Y0078031D01*
X0081720Y0078514D01*
X0082204Y0078998D01*
X0083171Y0078998D01*
X0083655Y0078514D01*
X0083655Y0078031D01*
X0083171Y0077547D01*
X0084667Y0078998D02*
X0085634Y0078031D01*
X0086602Y0078998D01*
X0086602Y0076096D01*
X0087613Y0076096D02*
X0087613Y0078998D01*
X0088097Y0078031D02*
X0089064Y0078031D01*
X0089548Y0077547D01*
X0089548Y0076096D01*
X0090560Y0076096D02*
X0092495Y0076096D01*
X0092495Y0078031D02*
X0090560Y0078031D01*
X0092495Y0078031D02*
X0090560Y0076096D01*
X0088097Y0078031D02*
X0087613Y0077547D01*
X0084667Y0076096D02*
X0084667Y0078998D01*
X0111724Y0105059D02*
X0110757Y0106027D01*
X0113659Y0106027D01*
X0113659Y0106994D02*
X0113659Y0105059D01*
X0113175Y0108006D02*
X0111240Y0108006D01*
X0110757Y0108490D01*
X0110757Y0109457D01*
X0111240Y0109941D01*
X0113175Y0108006D01*
X0113659Y0108490D01*
X0113659Y0109457D01*
X0113175Y0109941D01*
X0111240Y0109941D01*
X0110757Y0110952D02*
X0113659Y0110952D01*
X0112692Y0110952D02*
X0111724Y0112404D01*
X0112692Y0110952D02*
X0113659Y0112404D01*
X0114727Y0115394D02*
X0116662Y0115394D01*
X0115694Y0115394D02*
X0115694Y0118297D01*
X0114727Y0117329D01*
X0117673Y0117813D02*
X0117673Y0115878D01*
X0119608Y0117813D01*
X0119608Y0115878D01*
X0119125Y0115394D01*
X0118157Y0115394D01*
X0117673Y0115878D01*
X0117673Y0117813D02*
X0118157Y0118297D01*
X0119125Y0118297D01*
X0119608Y0117813D01*
X0120620Y0118297D02*
X0120620Y0115394D01*
X0120620Y0116362D02*
X0122071Y0117329D01*
X0122874Y0117397D02*
X0123842Y0118364D01*
X0123842Y0115462D01*
X0124809Y0115462D02*
X0122874Y0115462D01*
X0122071Y0115394D02*
X0120620Y0116362D01*
X0125821Y0115946D02*
X0127756Y0117881D01*
X0127756Y0115946D01*
X0127272Y0115462D01*
X0126305Y0115462D01*
X0125821Y0115946D01*
X0125821Y0117881D01*
X0126305Y0118364D01*
X0127272Y0118364D01*
X0127756Y0117881D01*
X0128767Y0118364D02*
X0128767Y0115462D01*
X0128767Y0116429D02*
X0130219Y0117397D01*
X0128767Y0116429D02*
X0130219Y0115462D01*
X0130888Y0136682D02*
X0129437Y0137650D01*
X0130888Y0138617D01*
X0129437Y0139585D02*
X0129437Y0136682D01*
X0128425Y0137166D02*
X0128425Y0139101D01*
X0126490Y0137166D01*
X0126974Y0136682D01*
X0127941Y0136682D01*
X0128425Y0137166D01*
X0126490Y0137166D02*
X0126490Y0139101D01*
X0126974Y0139585D01*
X0127941Y0139585D01*
X0128425Y0139101D01*
X0125479Y0136682D02*
X0123544Y0136682D01*
X0124511Y0136682D02*
X0124511Y0139585D01*
X0123544Y0138617D01*
X0122158Y0138538D02*
X0121191Y0138538D01*
X0121674Y0139506D02*
X0121674Y0137087D01*
X0120179Y0137087D02*
X0120179Y0139022D01*
X0121674Y0139506D02*
X0122158Y0139989D01*
X0120179Y0137087D02*
X0118728Y0137087D01*
X0118244Y0137571D01*
X0118244Y0139022D01*
X0117233Y0137087D02*
X0115298Y0137087D01*
X0116265Y0137087D02*
X0116265Y0139989D01*
X0115298Y0139022D01*
X0078572Y0128715D02*
X0078572Y0127748D01*
X0078088Y0127264D01*
X0076637Y0127264D01*
X0076637Y0126297D02*
X0076637Y0129199D01*
X0078088Y0129199D01*
X0078572Y0128715D01*
X0075625Y0128715D02*
X0075625Y0128232D01*
X0075142Y0127748D01*
X0074174Y0127748D01*
X0073690Y0128232D01*
X0073690Y0128715D01*
X0074174Y0129199D01*
X0075142Y0129199D01*
X0075625Y0128715D01*
X0075142Y0127748D02*
X0075625Y0127264D01*
X0075625Y0126780D01*
X0075142Y0126297D01*
X0074174Y0126297D01*
X0073690Y0126780D01*
X0073690Y0127264D01*
X0074174Y0127748D01*
X0072679Y0128232D02*
X0072679Y0128715D01*
X0072195Y0129199D01*
X0071228Y0129199D01*
X0070744Y0128715D01*
X0069732Y0128715D02*
X0069732Y0128232D01*
X0069249Y0127748D01*
X0069732Y0127264D01*
X0069732Y0126780D01*
X0069249Y0126297D01*
X0068281Y0126297D01*
X0067797Y0126780D01*
X0066786Y0126297D02*
X0066786Y0128232D01*
X0065818Y0129199D01*
X0064851Y0128232D01*
X0064851Y0126297D01*
X0063839Y0126780D02*
X0063839Y0127748D01*
X0062872Y0127748D01*
X0063839Y0128715D02*
X0063356Y0129199D01*
X0062388Y0129199D01*
X0061904Y0128715D01*
X0061904Y0126780D01*
X0062388Y0126297D01*
X0063356Y0126297D01*
X0063839Y0126780D01*
X0064851Y0127748D02*
X0066786Y0127748D01*
X0067797Y0128715D02*
X0068281Y0129199D01*
X0069249Y0129199D01*
X0069732Y0128715D01*
X0069249Y0127748D02*
X0068765Y0127748D01*
X0070744Y0126297D02*
X0072679Y0128232D01*
X0072679Y0126297D02*
X0070744Y0126297D01*
X0060893Y0126297D02*
X0058958Y0126297D01*
X0058958Y0129199D01*
X0060893Y0129199D01*
X0059925Y0127748D02*
X0058958Y0127748D01*
X0057946Y0129199D02*
X0057946Y0126297D01*
X0056011Y0126297D02*
X0056011Y0129199D01*
X0056979Y0128232D01*
X0057946Y0129199D01*
X0055000Y0129199D02*
X0053065Y0129199D01*
X0054032Y0129199D02*
X0054032Y0126297D01*
X0052053Y0126297D02*
X0052053Y0128232D01*
X0051086Y0129199D01*
X0050118Y0128232D01*
X0050118Y0126297D01*
X0050118Y0127748D02*
X0052053Y0127748D01*
X0055758Y0152537D02*
X0055758Y0155439D01*
X0057209Y0155439D01*
X0057693Y0154956D01*
X0057693Y0153988D01*
X0057209Y0153504D01*
X0055758Y0153504D01*
X0054746Y0153504D02*
X0052811Y0153504D01*
X0054746Y0155439D01*
X0054746Y0155923D01*
X0054262Y0156407D01*
X0053295Y0156407D01*
X0052811Y0155923D01*
X0051800Y0155923D02*
X0051316Y0156407D01*
X0050348Y0156407D01*
X0049865Y0155923D01*
X0051800Y0155923D02*
X0051800Y0155439D01*
X0049865Y0153504D01*
X0051800Y0153504D01*
X0058704Y0154956D02*
X0059672Y0154956D01*
X0059188Y0155923D02*
X0059188Y0153504D01*
X0059188Y0155923D02*
X0059672Y0156407D01*
X0067463Y0155923D02*
X0067947Y0156407D01*
X0068914Y0156407D01*
X0069398Y0155923D01*
X0069398Y0155439D01*
X0067463Y0153504D01*
X0069398Y0153504D01*
X0070410Y0153504D02*
X0072344Y0155439D01*
X0072344Y0155923D01*
X0071861Y0156407D01*
X0070893Y0156407D01*
X0070410Y0155923D01*
X0070410Y0153504D02*
X0072344Y0153504D01*
X0073356Y0153504D02*
X0074807Y0153504D01*
X0075291Y0153988D01*
X0075291Y0154956D01*
X0074807Y0155439D01*
X0073356Y0155439D01*
X0073356Y0152537D01*
X0076303Y0154956D02*
X0077270Y0154956D01*
X0076786Y0155923D02*
X0076786Y0153504D01*
X0076786Y0155923D02*
X0077270Y0156407D01*
X0041786Y0072714D02*
X0042153Y0072347D01*
X0042153Y0071980D01*
X0041786Y0071613D01*
X0042153Y0071246D01*
X0042153Y0070879D01*
X0041786Y0070512D01*
X0041052Y0070512D01*
X0040685Y0070879D01*
X0039851Y0070879D02*
X0039851Y0072347D01*
X0039484Y0072714D01*
X0038750Y0072714D01*
X0038383Y0072347D01*
X0038383Y0071980D01*
X0038750Y0071613D01*
X0039851Y0071613D01*
X0039851Y0070879D02*
X0039484Y0070512D01*
X0038750Y0070512D01*
X0038383Y0070879D01*
X0037549Y0070879D02*
X0037182Y0070512D01*
X0036448Y0070512D01*
X0036081Y0070879D01*
X0036815Y0071613D02*
X0037182Y0071613D01*
X0037549Y0071246D01*
X0037549Y0070879D01*
X0037182Y0071613D02*
X0037549Y0071980D01*
X0037549Y0072347D01*
X0037182Y0072714D01*
X0036448Y0072714D01*
X0036081Y0072347D01*
X0035247Y0071613D02*
X0033780Y0071613D01*
X0032945Y0072714D02*
X0032212Y0072714D01*
X0032578Y0072714D02*
X0032578Y0070879D01*
X0032212Y0070512D01*
X0031845Y0070512D01*
X0031478Y0070879D01*
X0030644Y0071613D02*
X0030277Y0071246D01*
X0029176Y0071246D01*
X0029176Y0070512D02*
X0029176Y0072714D01*
X0030277Y0072714D01*
X0030644Y0072347D01*
X0030644Y0071613D01*
X0040685Y0072347D02*
X0041052Y0072714D01*
X0041786Y0072714D01*
X0041786Y0071613D02*
X0041419Y0071613D01*
X0073026Y0025060D02*
X0073026Y0023125D01*
X0073026Y0024093D02*
X0075928Y0024093D01*
X0075928Y0022114D02*
X0075928Y0020179D01*
X0073026Y0020179D01*
X0073026Y0022114D01*
X0074477Y0021146D02*
X0074477Y0020179D01*
X0074961Y0019167D02*
X0075445Y0019167D01*
X0075928Y0018683D01*
X0075928Y0017716D01*
X0075445Y0017232D01*
X0074477Y0017716D02*
X0074477Y0018683D01*
X0074961Y0019167D01*
X0073510Y0019167D02*
X0073026Y0018683D01*
X0073026Y0017716D01*
X0073510Y0017232D01*
X0073993Y0017232D01*
X0074477Y0017716D01*
X0073026Y0016220D02*
X0073026Y0014285D01*
X0075928Y0014285D01*
X0075928Y0016220D01*
X0074477Y0015253D02*
X0074477Y0014285D01*
X0074477Y0013274D02*
X0073510Y0013274D01*
X0073026Y0012790D01*
X0073026Y0011339D01*
X0075928Y0011339D01*
X0074961Y0011339D02*
X0074961Y0012790D01*
X0074477Y0013274D01*
X0074961Y0012306D02*
X0075928Y0013274D01*
X0078026Y0012790D02*
X0078026Y0011339D01*
X0080928Y0011339D01*
X0080928Y0012790D01*
X0080445Y0013274D01*
X0078510Y0013274D01*
X0078026Y0012790D01*
X0078430Y0012563D02*
X0079398Y0011595D01*
X0079398Y0009660D01*
X0080410Y0009660D02*
X0080410Y0012563D01*
X0082344Y0009660D01*
X0082344Y0012563D01*
X0083026Y0012790D02*
X0083026Y0011339D01*
X0085928Y0011339D01*
X0085928Y0012790D01*
X0085445Y0013274D01*
X0083510Y0013274D01*
X0083026Y0012790D01*
X0083356Y0012563D02*
X0085291Y0012563D01*
X0084324Y0012563D02*
X0084324Y0009660D01*
X0088026Y0011339D02*
X0088026Y0012790D01*
X0088510Y0013274D01*
X0090445Y0013274D01*
X0090928Y0012790D01*
X0090928Y0011339D01*
X0088026Y0011339D01*
X0088026Y0014285D02*
X0088026Y0015253D01*
X0088026Y0014769D02*
X0090928Y0014769D01*
X0090928Y0014285D02*
X0090928Y0015253D01*
X0090445Y0016250D02*
X0088510Y0016250D01*
X0088026Y0016734D01*
X0088026Y0017701D01*
X0088510Y0018185D01*
X0090445Y0018185D01*
X0090928Y0017701D01*
X0090928Y0016734D01*
X0090445Y0016250D01*
X0093026Y0016734D02*
X0093510Y0016250D01*
X0095445Y0016250D01*
X0095928Y0016734D01*
X0095928Y0017701D01*
X0095445Y0018185D01*
X0093510Y0018185D01*
X0093026Y0017701D01*
X0093026Y0016734D01*
X0093026Y0015253D02*
X0093026Y0014285D01*
X0093026Y0014769D02*
X0095928Y0014769D01*
X0095928Y0014285D02*
X0095928Y0015253D01*
X0095445Y0013274D02*
X0093510Y0013274D01*
X0093026Y0012790D01*
X0093026Y0011339D01*
X0095928Y0011339D01*
X0095928Y0012790D01*
X0095445Y0013274D01*
X0098026Y0012790D02*
X0098026Y0011339D01*
X0100928Y0011339D01*
X0100928Y0012790D01*
X0100445Y0013274D01*
X0098510Y0013274D01*
X0098026Y0012790D01*
X0098026Y0014285D02*
X0098026Y0015253D01*
X0098026Y0014769D02*
X0100928Y0014769D01*
X0100928Y0014285D02*
X0100928Y0015253D01*
X0100445Y0016250D02*
X0100928Y0016734D01*
X0100928Y0017701D01*
X0100445Y0018185D01*
X0098510Y0018185D01*
X0098026Y0017701D01*
X0098026Y0016734D01*
X0098510Y0016250D01*
X0100445Y0016250D01*
X0099477Y0019196D02*
X0099477Y0021131D01*
X0098026Y0020648D02*
X0099477Y0019196D01*
X0100928Y0020648D02*
X0098026Y0020648D01*
X0095928Y0020648D02*
X0095928Y0019680D01*
X0095445Y0019196D01*
X0094477Y0020164D02*
X0094477Y0020648D01*
X0094961Y0021131D01*
X0095445Y0021131D01*
X0095928Y0020648D01*
X0094477Y0020648D02*
X0093993Y0021131D01*
X0093510Y0021131D01*
X0093026Y0020648D01*
X0093026Y0019680D01*
X0093510Y0019196D01*
X0090928Y0019196D02*
X0088993Y0021131D01*
X0088510Y0021131D01*
X0088026Y0020648D01*
X0088026Y0019680D01*
X0088510Y0019196D01*
X0090928Y0019196D02*
X0090928Y0021131D01*
X0085928Y0021131D02*
X0085928Y0019196D01*
X0085928Y0020164D02*
X0083026Y0020164D01*
X0083993Y0019196D01*
X0083510Y0018185D02*
X0085445Y0018185D01*
X0085928Y0017701D01*
X0085928Y0016734D01*
X0085445Y0016250D01*
X0083510Y0016250D01*
X0083026Y0016734D01*
X0083026Y0017701D01*
X0083510Y0018185D01*
X0083356Y0017563D02*
X0084807Y0017563D01*
X0085291Y0017079D01*
X0085291Y0015144D01*
X0084807Y0014660D01*
X0083356Y0014660D01*
X0083356Y0017563D01*
X0082344Y0017563D02*
X0082344Y0014660D01*
X0080410Y0017563D01*
X0080410Y0014660D01*
X0080928Y0014769D02*
X0078026Y0014769D01*
X0077947Y0014660D02*
X0078914Y0014660D01*
X0079398Y0015144D01*
X0079398Y0016111D01*
X0078430Y0016111D01*
X0078510Y0016250D02*
X0080445Y0016250D01*
X0080928Y0016734D01*
X0080928Y0017701D01*
X0080445Y0018185D01*
X0078510Y0018185D01*
X0078026Y0017701D01*
X0078026Y0016734D01*
X0078510Y0016250D01*
X0078026Y0015253D02*
X0078026Y0014285D01*
X0077947Y0014660D02*
X0077463Y0015144D01*
X0077463Y0017079D01*
X0077947Y0017563D01*
X0078914Y0017563D01*
X0079398Y0017079D01*
X0078510Y0019196D02*
X0078026Y0019680D01*
X0078026Y0020648D01*
X0078510Y0021131D01*
X0080445Y0019196D01*
X0080928Y0019680D01*
X0080928Y0020648D01*
X0080445Y0021131D01*
X0078510Y0021131D01*
X0078510Y0019196D02*
X0080445Y0019196D01*
X0080928Y0015253D02*
X0080928Y0014285D01*
X0083026Y0014285D02*
X0083026Y0015253D01*
X0083026Y0014769D02*
X0085928Y0014769D01*
X0085928Y0014285D02*
X0085928Y0015253D01*
X0079398Y0011111D02*
X0077463Y0011111D01*
X0077463Y0011595D02*
X0078430Y0012563D01*
X0077463Y0011595D02*
X0077463Y0009660D01*
X0103026Y0011339D02*
X0103026Y0012790D01*
X0103510Y0013274D01*
X0105445Y0013274D01*
X0105928Y0012790D01*
X0105928Y0011339D01*
X0103026Y0011339D01*
X0103026Y0014285D02*
X0103026Y0015253D01*
X0103026Y0014769D02*
X0105928Y0014769D01*
X0105928Y0014285D02*
X0105928Y0015253D01*
X0105445Y0016250D02*
X0103510Y0016250D01*
X0103026Y0016734D01*
X0103026Y0017701D01*
X0103510Y0018185D01*
X0105445Y0018185D01*
X0105928Y0017701D01*
X0105928Y0016734D01*
X0105445Y0016250D01*
X0108026Y0015737D02*
X0108510Y0016220D01*
X0108993Y0016220D01*
X0109477Y0015737D01*
X0109961Y0016220D01*
X0110445Y0016220D01*
X0110928Y0015737D01*
X0110928Y0014769D01*
X0110445Y0014285D01*
X0109477Y0015253D02*
X0109477Y0015737D01*
X0108026Y0015737D02*
X0108026Y0014769D01*
X0108510Y0014285D01*
X0109477Y0013274D02*
X0109477Y0011339D01*
X0108510Y0012306D02*
X0110445Y0012306D01*
X0113026Y0011823D02*
X0113510Y0011339D01*
X0115445Y0011339D01*
X0115928Y0011823D01*
X0115928Y0012790D01*
X0115445Y0013274D01*
X0114477Y0013274D01*
X0114477Y0012306D01*
X0113510Y0013274D02*
X0113026Y0012790D01*
X0113026Y0011823D01*
X0113026Y0014285D02*
X0115928Y0016220D01*
X0113026Y0016220D01*
X0113026Y0017232D02*
X0113026Y0018683D01*
X0113510Y0019167D01*
X0115445Y0019167D01*
X0115928Y0018683D01*
X0115928Y0017232D01*
X0113026Y0017232D01*
X0110928Y0018199D02*
X0109961Y0019167D01*
X0108026Y0019167D01*
X0108510Y0020179D02*
X0108026Y0020662D01*
X0108026Y0021630D01*
X0108510Y0022114D01*
X0108993Y0022114D01*
X0109477Y0021630D01*
X0109961Y0022114D01*
X0110445Y0022114D01*
X0110928Y0021630D01*
X0110928Y0020662D01*
X0110445Y0020179D01*
X0109477Y0021146D02*
X0109477Y0021630D01*
X0105928Y0020648D02*
X0105928Y0019680D01*
X0105445Y0019196D01*
X0104477Y0019196D02*
X0103993Y0020164D01*
X0103993Y0020648D01*
X0104477Y0021131D01*
X0105445Y0021131D01*
X0105928Y0020648D01*
X0104477Y0019196D02*
X0103026Y0019196D01*
X0103026Y0021131D01*
X0108026Y0017232D02*
X0109961Y0017232D01*
X0110928Y0018199D01*
X0113026Y0014285D02*
X0115928Y0014285D01*
X0118026Y0014769D02*
X0118510Y0014285D01*
X0120445Y0014285D01*
X0120928Y0014769D01*
X0120928Y0015737D01*
X0120445Y0016220D01*
X0120648Y0016111D02*
X0119680Y0016111D01*
X0120648Y0016111D02*
X0120648Y0015144D01*
X0120164Y0014660D01*
X0119196Y0014660D01*
X0118713Y0015144D01*
X0118713Y0017079D01*
X0119196Y0017563D01*
X0120164Y0017563D01*
X0120648Y0017079D01*
X0120928Y0017232D02*
X0118026Y0017232D01*
X0118510Y0016220D02*
X0118026Y0015737D01*
X0118026Y0014769D01*
X0118510Y0013274D02*
X0118026Y0012790D01*
X0118026Y0011823D01*
X0118510Y0011339D01*
X0118993Y0011339D01*
X0119477Y0011823D01*
X0119477Y0012790D01*
X0119961Y0013274D01*
X0120445Y0013274D01*
X0120928Y0012790D01*
X0120928Y0011823D01*
X0120445Y0011339D01*
X0123026Y0011339D02*
X0123993Y0012306D01*
X0123026Y0013274D01*
X0125928Y0013274D01*
X0126570Y0012563D02*
X0128505Y0009660D01*
X0128505Y0012563D01*
X0128993Y0012306D02*
X0128026Y0013274D01*
X0130928Y0013274D01*
X0130968Y0012563D02*
X0129516Y0012563D01*
X0129516Y0009660D01*
X0130968Y0009660D01*
X0131451Y0010144D01*
X0131451Y0012079D01*
X0130968Y0012563D01*
X0130928Y0011339D02*
X0128026Y0011339D01*
X0128993Y0012306D01*
X0128510Y0014285D02*
X0130445Y0014285D01*
X0130928Y0014769D01*
X0130928Y0015737D01*
X0130445Y0016220D01*
X0128510Y0016220D01*
X0128026Y0015737D01*
X0128026Y0014769D01*
X0128510Y0014285D01*
X0128021Y0014660D02*
X0128505Y0015144D01*
X0128505Y0017079D01*
X0128021Y0017563D01*
X0127054Y0017563D01*
X0126570Y0017079D01*
X0126570Y0015144D01*
X0127054Y0014660D01*
X0128021Y0014660D01*
X0129516Y0015144D02*
X0131451Y0017079D01*
X0131451Y0015144D01*
X0130968Y0014660D01*
X0130000Y0014660D01*
X0129516Y0015144D01*
X0129516Y0017079D01*
X0130000Y0017563D01*
X0130968Y0017563D01*
X0131451Y0017079D01*
X0130928Y0017716D02*
X0130445Y0017232D01*
X0130928Y0017716D02*
X0130928Y0018683D01*
X0130445Y0019167D01*
X0129961Y0019167D01*
X0129477Y0018683D01*
X0129477Y0017716D01*
X0128993Y0017232D01*
X0128510Y0017232D01*
X0128026Y0017716D01*
X0128026Y0018683D01*
X0128510Y0019167D01*
X0128021Y0019660D02*
X0128505Y0020144D01*
X0128505Y0022079D01*
X0128021Y0022563D01*
X0127054Y0022563D01*
X0126570Y0022079D01*
X0126570Y0020144D01*
X0127054Y0019660D01*
X0128021Y0019660D01*
X0128026Y0020179D02*
X0128026Y0021146D01*
X0128026Y0020662D02*
X0130928Y0020662D01*
X0130928Y0020179D02*
X0130928Y0021146D01*
X0129516Y0021595D02*
X0130484Y0022563D01*
X0130484Y0019660D01*
X0131451Y0019660D02*
X0129516Y0019660D01*
X0133026Y0019167D02*
X0133026Y0017232D01*
X0135928Y0017232D01*
X0135928Y0019167D01*
X0135928Y0020179D02*
X0133026Y0020179D01*
X0134477Y0018199D02*
X0134477Y0017232D01*
X0134961Y0016220D02*
X0135445Y0016220D01*
X0135928Y0015737D01*
X0135928Y0014769D01*
X0135445Y0014285D01*
X0134477Y0014769D02*
X0134477Y0015737D01*
X0134961Y0016220D01*
X0133510Y0016220D02*
X0133026Y0015737D01*
X0133026Y0014769D01*
X0133510Y0014285D01*
X0133993Y0014285D01*
X0134477Y0014769D01*
X0135928Y0013274D02*
X0133026Y0013274D01*
X0133026Y0011339D02*
X0135928Y0013274D01*
X0135928Y0011339D02*
X0133026Y0011339D01*
X0126570Y0012563D02*
X0126570Y0009660D01*
X0125558Y0010144D02*
X0125075Y0009660D01*
X0124107Y0009660D01*
X0123623Y0010144D01*
X0123623Y0012079D01*
X0124107Y0012563D01*
X0125075Y0012563D01*
X0125558Y0012079D01*
X0125928Y0011339D02*
X0123026Y0011339D01*
X0124591Y0011111D02*
X0125558Y0011111D01*
X0125558Y0010144D01*
X0125928Y0014285D02*
X0125928Y0015253D01*
X0125928Y0014769D02*
X0123026Y0014769D01*
X0123026Y0014285D02*
X0123026Y0015253D01*
X0123110Y0015628D02*
X0121659Y0015628D01*
X0121659Y0014660D02*
X0121659Y0017563D01*
X0123110Y0017563D01*
X0123594Y0017079D01*
X0123594Y0016111D01*
X0123110Y0015628D01*
X0123510Y0016250D02*
X0123993Y0016250D01*
X0124477Y0016734D01*
X0124477Y0017701D01*
X0124961Y0018185D01*
X0125445Y0018185D01*
X0125928Y0017701D01*
X0125928Y0016734D01*
X0125445Y0016250D01*
X0125573Y0017563D02*
X0124606Y0017563D01*
X0125089Y0017563D02*
X0125089Y0014660D01*
X0124606Y0014660D02*
X0125573Y0014660D01*
X0123510Y0016250D02*
X0123026Y0016734D01*
X0123026Y0017701D01*
X0123510Y0018185D01*
X0123510Y0019196D02*
X0125445Y0019196D01*
X0125928Y0019680D01*
X0125928Y0020648D01*
X0125445Y0021131D01*
X0123510Y0021131D01*
X0123026Y0020648D01*
X0123026Y0019680D01*
X0123510Y0019196D01*
X0124606Y0019660D02*
X0125573Y0019660D01*
X0125089Y0019660D02*
X0125089Y0022563D01*
X0124606Y0022563D02*
X0125573Y0022563D01*
X0123594Y0022079D02*
X0123594Y0021111D01*
X0123110Y0020628D01*
X0121659Y0020628D01*
X0121659Y0019660D02*
X0121659Y0022563D01*
X0123110Y0022563D01*
X0123594Y0022079D01*
X0124606Y0024660D02*
X0125573Y0024660D01*
X0125089Y0024660D02*
X0125089Y0027563D01*
X0124606Y0027563D02*
X0125573Y0027563D01*
X0126570Y0027079D02*
X0126570Y0025144D01*
X0127054Y0024660D01*
X0128021Y0024660D01*
X0128505Y0025144D01*
X0128505Y0027079D01*
X0128021Y0027563D01*
X0127054Y0027563D01*
X0126570Y0027079D01*
X0127537Y0029660D02*
X0128505Y0030628D01*
X0128505Y0032563D01*
X0129516Y0032079D02*
X0130000Y0032563D01*
X0130968Y0032563D01*
X0131451Y0032079D01*
X0131451Y0031595D01*
X0130968Y0031111D01*
X0131451Y0030628D01*
X0131451Y0030144D01*
X0130968Y0029660D01*
X0130000Y0029660D01*
X0129516Y0030144D01*
X0130484Y0031111D02*
X0130968Y0031111D01*
X0127537Y0029660D02*
X0126570Y0030628D01*
X0126570Y0032563D01*
X0125558Y0032079D02*
X0125558Y0031595D01*
X0125075Y0031111D01*
X0125558Y0030628D01*
X0125558Y0030144D01*
X0125075Y0029660D01*
X0124107Y0029660D01*
X0123623Y0030144D01*
X0124591Y0031111D02*
X0125075Y0031111D01*
X0125558Y0032079D02*
X0125075Y0032563D01*
X0124107Y0032563D01*
X0123623Y0032079D01*
X0122612Y0031111D02*
X0120677Y0031111D01*
X0121644Y0030144D02*
X0121644Y0032079D01*
X0119182Y0034660D02*
X0119665Y0035144D01*
X0119665Y0037079D01*
X0119182Y0037563D01*
X0118214Y0037563D01*
X0117730Y0037079D01*
X0117730Y0035144D01*
X0118214Y0034660D01*
X0119182Y0034660D01*
X0120677Y0036111D02*
X0122612Y0036111D01*
X0123623Y0035628D02*
X0123623Y0037563D01*
X0123623Y0035628D02*
X0124591Y0034660D01*
X0125558Y0035628D01*
X0125558Y0037563D01*
X0126570Y0037563D02*
X0128021Y0037563D01*
X0128505Y0037079D01*
X0128505Y0035144D01*
X0128021Y0034660D01*
X0126570Y0034660D01*
X0126570Y0037563D01*
X0126057Y0039660D02*
X0125089Y0039660D01*
X0124606Y0040144D01*
X0125089Y0041111D02*
X0126057Y0041111D01*
X0126541Y0040628D01*
X0126541Y0040144D01*
X0126057Y0039660D01*
X0127552Y0039660D02*
X0129003Y0039660D01*
X0129487Y0040144D01*
X0129487Y0042079D01*
X0129003Y0042563D01*
X0127552Y0042563D01*
X0127552Y0039660D01*
X0125089Y0041111D02*
X0124606Y0041595D01*
X0124606Y0042079D01*
X0125089Y0042563D01*
X0126057Y0042563D01*
X0126541Y0042079D01*
X0126570Y0044660D02*
X0128505Y0044660D01*
X0129516Y0044660D02*
X0129516Y0047563D01*
X0130000Y0046111D02*
X0131451Y0044660D01*
X0131466Y0042563D02*
X0130499Y0042563D01*
X0130982Y0042563D02*
X0130982Y0039660D01*
X0130499Y0039660D02*
X0131466Y0039660D01*
X0130968Y0037563D02*
X0129516Y0037563D01*
X0129516Y0034660D01*
X0130968Y0034660D01*
X0131451Y0035144D01*
X0131451Y0037079D01*
X0130968Y0037563D01*
X0129516Y0045628D02*
X0131451Y0047563D01*
X0131451Y0049660D02*
X0129516Y0049660D01*
X0129516Y0052563D01*
X0128505Y0052563D02*
X0126570Y0052563D01*
X0126570Y0049660D01*
X0128505Y0049660D01*
X0127537Y0051111D02*
X0126570Y0051111D01*
X0125558Y0050628D02*
X0125558Y0050144D01*
X0125075Y0049660D01*
X0124107Y0049660D01*
X0123623Y0050144D01*
X0124107Y0051111D02*
X0125075Y0051111D01*
X0125558Y0050628D01*
X0125558Y0052079D02*
X0125075Y0052563D01*
X0124107Y0052563D01*
X0123623Y0052079D01*
X0123623Y0051595D01*
X0124107Y0051111D01*
X0122612Y0049660D02*
X0120677Y0052563D01*
X0120677Y0049660D01*
X0122612Y0049660D02*
X0122612Y0052563D01*
X0121659Y0054660D02*
X0121659Y0057563D01*
X0123594Y0054660D01*
X0123594Y0057563D01*
X0124606Y0057563D02*
X0125573Y0057563D01*
X0125089Y0057563D02*
X0125089Y0054660D01*
X0124606Y0054660D02*
X0125573Y0054660D01*
X0126570Y0054660D02*
X0126570Y0057563D01*
X0128021Y0057563D01*
X0128505Y0057079D01*
X0128505Y0056111D01*
X0128021Y0055628D01*
X0126570Y0055628D01*
X0127537Y0055628D02*
X0128505Y0054660D01*
X0129516Y0055144D02*
X0129516Y0057079D01*
X0130000Y0057563D01*
X0130968Y0057563D01*
X0131451Y0057079D01*
X0131451Y0055144D01*
X0130968Y0054660D01*
X0130000Y0054660D01*
X0129516Y0055144D01*
X0130484Y0055628D02*
X0131451Y0054660D01*
X0131451Y0059660D02*
X0131451Y0062563D01*
X0129516Y0062563D02*
X0131451Y0059660D01*
X0129516Y0059660D02*
X0129516Y0062563D01*
X0128505Y0062079D02*
X0128505Y0060144D01*
X0128021Y0059660D01*
X0126570Y0059660D01*
X0126570Y0062563D01*
X0128021Y0062563D01*
X0128505Y0062079D01*
X0128505Y0064660D02*
X0128505Y0067563D01*
X0129516Y0067563D02*
X0129516Y0064660D01*
X0130968Y0064660D01*
X0131451Y0065144D01*
X0131451Y0067079D01*
X0130968Y0067563D01*
X0129516Y0067563D01*
X0126570Y0067563D02*
X0128505Y0064660D01*
X0126570Y0064660D02*
X0126570Y0067563D01*
X0125558Y0067079D02*
X0125075Y0067563D01*
X0124107Y0067563D01*
X0123623Y0067079D01*
X0123623Y0065144D01*
X0124107Y0064660D01*
X0125075Y0064660D01*
X0125558Y0065144D01*
X0125558Y0066111D01*
X0124591Y0066111D01*
X0125075Y0062563D02*
X0124107Y0062563D01*
X0123623Y0062079D01*
X0123623Y0061595D01*
X0124107Y0061111D01*
X0125075Y0061111D01*
X0125558Y0060628D01*
X0125558Y0060144D01*
X0125075Y0059660D01*
X0124107Y0059660D01*
X0123623Y0060144D01*
X0125558Y0062079D02*
X0125075Y0062563D01*
X0125075Y0047563D02*
X0124107Y0047563D01*
X0123623Y0047079D01*
X0123623Y0045144D01*
X0124107Y0044660D01*
X0125075Y0044660D01*
X0125558Y0045144D01*
X0126570Y0044660D02*
X0126570Y0047563D01*
X0125558Y0047079D02*
X0125075Y0047563D01*
X0122612Y0047079D02*
X0122128Y0047563D01*
X0121161Y0047563D01*
X0120677Y0047079D01*
X0120677Y0046595D01*
X0121161Y0046111D01*
X0122128Y0046111D01*
X0122612Y0045628D01*
X0122612Y0045144D01*
X0122128Y0044660D01*
X0121161Y0044660D01*
X0120677Y0045144D01*
X0116235Y0037563D02*
X0114784Y0037563D01*
X0114784Y0034660D01*
X0116235Y0034660D01*
X0116719Y0035144D01*
X0116719Y0037079D01*
X0116235Y0037563D01*
X0113772Y0037079D02*
X0113289Y0037563D01*
X0112321Y0037563D01*
X0111837Y0037079D01*
X0111837Y0036595D01*
X0112321Y0036111D01*
X0113289Y0036111D01*
X0113772Y0035628D01*
X0113772Y0035144D01*
X0113289Y0034660D01*
X0112321Y0034660D01*
X0111837Y0035144D01*
X0119196Y0027563D02*
X0118713Y0027079D01*
X0118713Y0025144D01*
X0119196Y0024660D01*
X0120164Y0024660D01*
X0120648Y0025144D01*
X0120648Y0026111D01*
X0119680Y0026111D01*
X0120648Y0027079D02*
X0120164Y0027563D01*
X0119196Y0027563D01*
X0121659Y0027563D02*
X0121659Y0024660D01*
X0121659Y0025628D02*
X0123110Y0025628D01*
X0123594Y0026111D01*
X0123594Y0027079D01*
X0123110Y0027563D01*
X0121659Y0027563D01*
X0120164Y0022563D02*
X0119196Y0022563D01*
X0118713Y0022079D01*
X0118713Y0020144D01*
X0119196Y0019660D01*
X0120164Y0019660D01*
X0120648Y0020144D01*
X0120648Y0021111D01*
X0119680Y0021111D01*
X0120648Y0022079D02*
X0120164Y0022563D01*
X0120928Y0019167D02*
X0119477Y0017716D01*
X0119961Y0017232D02*
X0118026Y0019167D01*
X0129516Y0024660D02*
X0131451Y0026595D01*
X0131451Y0027079D01*
X0130968Y0027563D01*
X0130000Y0027563D01*
X0129516Y0027079D01*
X0129516Y0024660D02*
X0131451Y0024660D01*
X0135928Y0022114D02*
X0135928Y0020179D01*
X0200335Y0042088D02*
X0203237Y0042088D01*
X0203237Y0043055D02*
X0203237Y0041120D01*
X0201302Y0041120D02*
X0200335Y0042088D01*
X0200818Y0044067D02*
X0200335Y0044551D01*
X0200335Y0045518D01*
X0200818Y0046002D01*
X0202753Y0044067D01*
X0203237Y0044551D01*
X0203237Y0045518D01*
X0202753Y0046002D01*
X0200818Y0046002D01*
X0200335Y0047013D02*
X0203237Y0047013D01*
X0202270Y0047013D02*
X0201302Y0048465D01*
X0202270Y0047013D02*
X0203237Y0048465D01*
X0202753Y0044067D02*
X0200818Y0044067D01*
D13*
X0120213Y0095196D02*
X0120064Y0095095D01*
X0120064Y0095096D02*
X0119954Y0095253D01*
X0119840Y0095407D01*
X0119723Y0095559D01*
X0119601Y0095708D01*
X0119477Y0095854D01*
X0119348Y0095997D01*
X0119217Y0096136D01*
X0119081Y0096273D01*
X0118943Y0096406D01*
X0118801Y0096535D01*
X0118657Y0096662D01*
X0118509Y0096784D01*
X0118358Y0096903D01*
X0118205Y0097019D01*
X0118049Y0097130D01*
X0117890Y0097238D01*
X0117728Y0097342D01*
X0117564Y0097442D01*
X0117398Y0097538D01*
X0117229Y0097630D01*
X0117059Y0097717D01*
X0116886Y0097801D01*
X0116711Y0097880D01*
X0116534Y0097955D01*
X0116356Y0098026D01*
X0116176Y0098092D01*
X0115994Y0098154D01*
X0115811Y0098212D01*
X0115626Y0098265D01*
X0115441Y0098314D01*
X0115254Y0098358D01*
X0115066Y0098397D01*
X0114877Y0098432D01*
X0114688Y0098463D01*
X0114497Y0098489D01*
X0114307Y0098510D01*
X0114115Y0098526D01*
X0113924Y0098538D01*
X0113732Y0098545D01*
X0113540Y0098548D01*
X0113539Y0098727D01*
X0113540Y0098728D01*
X0113736Y0098725D01*
X0113932Y0098718D01*
X0114128Y0098706D01*
X0114324Y0098689D01*
X0114519Y0098667D01*
X0114714Y0098641D01*
X0114908Y0098610D01*
X0115101Y0098574D01*
X0115293Y0098534D01*
X0115484Y0098488D01*
X0115674Y0098439D01*
X0115863Y0098384D01*
X0116050Y0098325D01*
X0116236Y0098262D01*
X0116420Y0098194D01*
X0116603Y0098122D01*
X0116783Y0098045D01*
X0116962Y0097964D01*
X0117139Y0097878D01*
X0117314Y0097789D01*
X0117486Y0097695D01*
X0117656Y0097597D01*
X0117824Y0097494D01*
X0117989Y0097388D01*
X0118152Y0097278D01*
X0118311Y0097164D01*
X0118468Y0097046D01*
X0118622Y0096924D01*
X0118773Y0096799D01*
X0118921Y0096670D01*
X0119066Y0096537D01*
X0119208Y0096401D01*
X0119346Y0096261D01*
X0119481Y0096119D01*
X0119612Y0095972D01*
X0119740Y0095823D01*
X0119864Y0095671D01*
X0119984Y0095516D01*
X0120101Y0095358D01*
X0120213Y0095197D01*
X0120198Y0095187D01*
X0120086Y0095347D01*
X0119970Y0095505D01*
X0119850Y0095660D01*
X0119726Y0095812D01*
X0119599Y0095961D01*
X0119468Y0096106D01*
X0119333Y0096249D01*
X0119195Y0096388D01*
X0119054Y0096524D01*
X0118909Y0096656D01*
X0118762Y0096785D01*
X0118611Y0096910D01*
X0118457Y0097032D01*
X0118301Y0097149D01*
X0118141Y0097263D01*
X0117979Y0097373D01*
X0117814Y0097479D01*
X0117647Y0097581D01*
X0117477Y0097679D01*
X0117305Y0097773D01*
X0117131Y0097862D01*
X0116955Y0097948D01*
X0116776Y0098029D01*
X0116596Y0098105D01*
X0116414Y0098177D01*
X0116230Y0098245D01*
X0116044Y0098308D01*
X0115858Y0098367D01*
X0115669Y0098421D01*
X0115480Y0098471D01*
X0115289Y0098516D01*
X0115097Y0098556D01*
X0114905Y0098592D01*
X0114711Y0098623D01*
X0114517Y0098649D01*
X0114322Y0098671D01*
X0114127Y0098688D01*
X0113932Y0098700D01*
X0113736Y0098707D01*
X0113540Y0098710D01*
X0113540Y0098692D01*
X0113735Y0098689D01*
X0113931Y0098682D01*
X0114126Y0098670D01*
X0114321Y0098653D01*
X0114515Y0098632D01*
X0114709Y0098605D01*
X0114902Y0098574D01*
X0115094Y0098539D01*
X0115285Y0098498D01*
X0115475Y0098454D01*
X0115664Y0098404D01*
X0115852Y0098350D01*
X0116039Y0098291D01*
X0116224Y0098228D01*
X0116407Y0098161D01*
X0116589Y0098088D01*
X0116769Y0098012D01*
X0116947Y0097931D01*
X0117123Y0097846D01*
X0117297Y0097757D01*
X0117469Y0097663D01*
X0117638Y0097566D01*
X0117805Y0097464D01*
X0117969Y0097358D01*
X0118131Y0097248D01*
X0118290Y0097135D01*
X0118446Y0097017D01*
X0118600Y0096896D01*
X0118750Y0096771D01*
X0118897Y0096643D01*
X0119042Y0096511D01*
X0119183Y0096375D01*
X0119320Y0096236D01*
X0119454Y0096094D01*
X0119585Y0095949D01*
X0119712Y0095800D01*
X0119836Y0095649D01*
X0119955Y0095494D01*
X0120071Y0095337D01*
X0120183Y0095177D01*
X0120169Y0095167D01*
X0120057Y0095326D01*
X0119941Y0095483D01*
X0119821Y0095637D01*
X0119698Y0095789D01*
X0119571Y0095937D01*
X0119441Y0096082D01*
X0119307Y0096224D01*
X0119170Y0096362D01*
X0119029Y0096498D01*
X0118885Y0096629D01*
X0118738Y0096758D01*
X0118588Y0096882D01*
X0118435Y0097003D01*
X0118279Y0097120D01*
X0118121Y0097234D01*
X0117959Y0097343D01*
X0117795Y0097449D01*
X0117629Y0097550D01*
X0117460Y0097648D01*
X0117288Y0097741D01*
X0117115Y0097830D01*
X0116939Y0097915D01*
X0116762Y0097996D01*
X0116582Y0098072D01*
X0116401Y0098144D01*
X0116218Y0098211D01*
X0116033Y0098274D01*
X0115847Y0098333D01*
X0115660Y0098387D01*
X0115471Y0098436D01*
X0115281Y0098481D01*
X0115090Y0098521D01*
X0114899Y0098557D01*
X0114706Y0098587D01*
X0114513Y0098614D01*
X0114319Y0098635D01*
X0114124Y0098652D01*
X0113930Y0098664D01*
X0113735Y0098671D01*
X0113540Y0098674D01*
X0113540Y0098656D01*
X0113734Y0098653D01*
X0113929Y0098646D01*
X0114123Y0098634D01*
X0114317Y0098617D01*
X0114510Y0098596D01*
X0114703Y0098570D01*
X0114895Y0098539D01*
X0115087Y0098503D01*
X0115277Y0098463D01*
X0115467Y0098419D01*
X0115655Y0098369D01*
X0115842Y0098315D01*
X0116028Y0098257D01*
X0116212Y0098194D01*
X0116394Y0098127D01*
X0116575Y0098055D01*
X0116754Y0097979D01*
X0116932Y0097899D01*
X0117107Y0097814D01*
X0117280Y0097725D01*
X0117451Y0097632D01*
X0117619Y0097535D01*
X0117786Y0097433D01*
X0117949Y0097328D01*
X0118110Y0097219D01*
X0118269Y0097106D01*
X0118424Y0096989D01*
X0118577Y0096868D01*
X0118727Y0096744D01*
X0118873Y0096616D01*
X0119017Y0096484D01*
X0119157Y0096350D01*
X0119294Y0096211D01*
X0119428Y0096070D01*
X0119558Y0095925D01*
X0119684Y0095777D01*
X0119807Y0095626D01*
X0119927Y0095472D01*
X0120042Y0095316D01*
X0120154Y0095156D01*
X0120139Y0095146D01*
X0120027Y0095305D01*
X0119912Y0095462D01*
X0119793Y0095615D01*
X0119671Y0095766D01*
X0119544Y0095913D01*
X0119415Y0096058D01*
X0119281Y0096199D01*
X0119145Y0096337D01*
X0119005Y0096471D01*
X0118861Y0096603D01*
X0118715Y0096730D01*
X0118566Y0096854D01*
X0118413Y0096975D01*
X0118258Y0097091D01*
X0118100Y0097204D01*
X0117939Y0097313D01*
X0117776Y0097418D01*
X0117610Y0097519D01*
X0117442Y0097616D01*
X0117272Y0097709D01*
X0117099Y0097798D01*
X0116924Y0097882D01*
X0116747Y0097963D01*
X0116568Y0098039D01*
X0116388Y0098110D01*
X0116206Y0098177D01*
X0116022Y0098240D01*
X0115837Y0098298D01*
X0115650Y0098352D01*
X0115462Y0098401D01*
X0115273Y0098446D01*
X0115083Y0098486D01*
X0114892Y0098521D01*
X0114701Y0098552D01*
X0114508Y0098578D01*
X0114315Y0098599D01*
X0114122Y0098616D01*
X0113928Y0098628D01*
X0113734Y0098635D01*
X0113540Y0098638D01*
X0113540Y0098620D01*
X0113734Y0098617D01*
X0113927Y0098610D01*
X0114121Y0098598D01*
X0114314Y0098581D01*
X0114506Y0098560D01*
X0114698Y0098534D01*
X0114889Y0098503D01*
X0115080Y0098468D01*
X0115269Y0098428D01*
X0115458Y0098384D01*
X0115645Y0098335D01*
X0115832Y0098281D01*
X0116016Y0098223D01*
X0116200Y0098160D01*
X0116382Y0098093D01*
X0116562Y0098022D01*
X0116740Y0097946D01*
X0116916Y0097866D01*
X0117091Y0097782D01*
X0117263Y0097693D01*
X0117433Y0097601D01*
X0117601Y0097504D01*
X0117767Y0097403D01*
X0117929Y0097298D01*
X0118090Y0097189D01*
X0118247Y0097077D01*
X0118402Y0096960D01*
X0118554Y0096840D01*
X0118703Y0096716D01*
X0118849Y0096589D01*
X0118992Y0096458D01*
X0119132Y0096324D01*
X0119268Y0096186D01*
X0119401Y0096045D01*
X0119531Y0095901D01*
X0119657Y0095754D01*
X0119779Y0095604D01*
X0119898Y0095451D01*
X0120013Y0095295D01*
X0120124Y0095136D01*
X0120109Y0095126D01*
X0119998Y0095284D01*
X0119883Y0095440D01*
X0119765Y0095593D01*
X0119643Y0095743D01*
X0119517Y0095889D01*
X0119388Y0096033D01*
X0119255Y0096174D01*
X0119119Y0096311D01*
X0118980Y0096445D01*
X0118837Y0096576D01*
X0118692Y0096703D01*
X0118543Y0096826D01*
X0118391Y0096946D01*
X0118237Y0097062D01*
X0118080Y0097175D01*
X0117920Y0097283D01*
X0117757Y0097388D01*
X0117592Y0097488D01*
X0117424Y0097585D01*
X0117255Y0097677D01*
X0117083Y0097766D01*
X0116909Y0097850D01*
X0116733Y0097930D01*
X0116555Y0098005D01*
X0116375Y0098076D01*
X0116194Y0098143D01*
X0116011Y0098206D01*
X0115826Y0098264D01*
X0115641Y0098317D01*
X0115454Y0098366D01*
X0115266Y0098411D01*
X0115076Y0098450D01*
X0114886Y0098486D01*
X0114695Y0098516D01*
X0114504Y0098542D01*
X0114312Y0098564D01*
X0114119Y0098580D01*
X0113926Y0098592D01*
X0113733Y0098599D01*
X0113540Y0098602D01*
X0113540Y0098584D01*
X0113733Y0098581D01*
X0113925Y0098574D01*
X0114118Y0098562D01*
X0114310Y0098546D01*
X0114502Y0098524D01*
X0114693Y0098498D01*
X0114883Y0098468D01*
X0115073Y0098433D01*
X0115262Y0098393D01*
X0115449Y0098349D01*
X0115636Y0098300D01*
X0115821Y0098246D01*
X0116005Y0098189D01*
X0116188Y0098126D01*
X0116369Y0098060D01*
X0116548Y0097989D01*
X0116725Y0097913D01*
X0116901Y0097833D01*
X0117075Y0097750D01*
X0117246Y0097661D01*
X0117416Y0097569D01*
X0117583Y0097473D01*
X0117747Y0097372D01*
X0117910Y0097268D01*
X0118069Y0097160D01*
X0118226Y0097048D01*
X0118380Y0096932D01*
X0118532Y0096812D01*
X0118680Y0096689D01*
X0118825Y0096562D01*
X0118968Y0096432D01*
X0119107Y0096298D01*
X0119242Y0096161D01*
X0119375Y0096021D01*
X0119504Y0095878D01*
X0119629Y0095731D01*
X0119751Y0095582D01*
X0119869Y0095429D01*
X0119983Y0095274D01*
X0120094Y0095116D01*
X0120079Y0095106D01*
X0119969Y0095263D01*
X0119855Y0095418D01*
X0119737Y0095570D01*
X0119615Y0095720D01*
X0119490Y0095866D01*
X0119362Y0096009D01*
X0119229Y0096149D01*
X0119094Y0096286D01*
X0118955Y0096419D01*
X0118813Y0096549D01*
X0118668Y0096675D01*
X0118520Y0096798D01*
X0118369Y0096918D01*
X0118216Y0097033D01*
X0118059Y0097145D01*
X0117900Y0097253D01*
X0117738Y0097357D01*
X0117574Y0097457D01*
X0117407Y0097553D01*
X0117238Y0097645D01*
X0117067Y0097733D01*
X0116893Y0097817D01*
X0116718Y0097897D01*
X0116541Y0097972D01*
X0116362Y0098043D01*
X0116182Y0098109D01*
X0116000Y0098172D01*
X0115816Y0098229D01*
X0115631Y0098283D01*
X0115445Y0098331D01*
X0115258Y0098375D01*
X0115069Y0098415D01*
X0114880Y0098450D01*
X0114690Y0098481D01*
X0114500Y0098506D01*
X0114308Y0098528D01*
X0114117Y0098544D01*
X0113925Y0098556D01*
X0113732Y0098563D01*
X0113540Y0098566D01*
X0115739Y0095223D02*
X0115661Y0095061D01*
X0115537Y0095119D01*
X0115411Y0095173D01*
X0115283Y0095224D01*
X0115155Y0095271D01*
X0115025Y0095315D01*
X0114893Y0095355D01*
X0114761Y0095391D01*
X0114628Y0095424D01*
X0114494Y0095452D01*
X0114359Y0095478D01*
X0114223Y0095499D01*
X0114087Y0095516D01*
X0113951Y0095530D01*
X0113814Y0095540D01*
X0113677Y0095546D01*
X0113540Y0095548D01*
X0113539Y0095727D01*
X0113540Y0095728D01*
X0113674Y0095726D01*
X0113808Y0095720D01*
X0113941Y0095711D01*
X0114074Y0095699D01*
X0114207Y0095683D01*
X0114340Y0095663D01*
X0114472Y0095640D01*
X0114603Y0095614D01*
X0114733Y0095584D01*
X0114863Y0095550D01*
X0114992Y0095514D01*
X0115119Y0095474D01*
X0115246Y0095430D01*
X0115371Y0095383D01*
X0115496Y0095333D01*
X0115618Y0095280D01*
X0115740Y0095223D01*
X0115732Y0095207D01*
X0115603Y0095267D01*
X0115473Y0095323D01*
X0115342Y0095375D01*
X0115208Y0095424D01*
X0115074Y0095469D01*
X0114938Y0095511D01*
X0114802Y0095548D01*
X0114664Y0095582D01*
X0114526Y0095611D01*
X0114386Y0095637D01*
X0114246Y0095659D01*
X0114106Y0095677D01*
X0113965Y0095691D01*
X0113823Y0095702D01*
X0113682Y0095708D01*
X0113540Y0095710D01*
X0113540Y0095692D01*
X0113681Y0095690D01*
X0113822Y0095684D01*
X0113963Y0095673D01*
X0114104Y0095659D01*
X0114244Y0095641D01*
X0114383Y0095619D01*
X0114522Y0095594D01*
X0114660Y0095564D01*
X0114797Y0095531D01*
X0114933Y0095493D01*
X0115069Y0095452D01*
X0115202Y0095407D01*
X0115335Y0095359D01*
X0115466Y0095306D01*
X0115596Y0095250D01*
X0115724Y0095191D01*
X0115716Y0095175D01*
X0115589Y0095234D01*
X0115459Y0095290D01*
X0115329Y0095342D01*
X0115196Y0095390D01*
X0115063Y0095435D01*
X0114928Y0095476D01*
X0114793Y0095513D01*
X0114656Y0095546D01*
X0114518Y0095576D01*
X0114380Y0095602D01*
X0114241Y0095624D01*
X0114102Y0095641D01*
X0113962Y0095655D01*
X0113821Y0095666D01*
X0113681Y0095672D01*
X0113540Y0095674D01*
X0113540Y0095656D01*
X0113680Y0095654D01*
X0113820Y0095648D01*
X0113960Y0095638D01*
X0114100Y0095624D01*
X0114239Y0095606D01*
X0114377Y0095584D01*
X0114515Y0095558D01*
X0114652Y0095529D01*
X0114788Y0095496D01*
X0114923Y0095459D01*
X0115058Y0095418D01*
X0115191Y0095373D01*
X0115322Y0095325D01*
X0115452Y0095273D01*
X0115581Y0095218D01*
X0115708Y0095159D01*
X0115700Y0095142D01*
X0115574Y0095201D01*
X0115445Y0095257D01*
X0115316Y0095308D01*
X0115185Y0095356D01*
X0115052Y0095401D01*
X0114918Y0095441D01*
X0114784Y0095478D01*
X0114648Y0095511D01*
X0114511Y0095541D01*
X0114374Y0095566D01*
X0114236Y0095588D01*
X0114097Y0095606D01*
X0113958Y0095620D01*
X0113819Y0095630D01*
X0113680Y0095636D01*
X0113540Y0095638D01*
X0113540Y0095620D01*
X0113679Y0095618D01*
X0113818Y0095612D01*
X0113957Y0095602D01*
X0114095Y0095588D01*
X0114234Y0095570D01*
X0114371Y0095548D01*
X0114508Y0095523D01*
X0114644Y0095494D01*
X0114779Y0095461D01*
X0114913Y0095424D01*
X0115047Y0095384D01*
X0115179Y0095339D01*
X0115309Y0095291D01*
X0115439Y0095240D01*
X0115566Y0095185D01*
X0115693Y0095126D01*
X0115685Y0095110D01*
X0115559Y0095168D01*
X0115432Y0095223D01*
X0115303Y0095275D01*
X0115173Y0095322D01*
X0115041Y0095366D01*
X0114908Y0095407D01*
X0114775Y0095443D01*
X0114640Y0095476D01*
X0114504Y0095505D01*
X0114368Y0095531D01*
X0114231Y0095552D01*
X0114093Y0095570D01*
X0113955Y0095584D01*
X0113817Y0095594D01*
X0113679Y0095600D01*
X0113540Y0095602D01*
X0113540Y0095584D01*
X0113678Y0095582D01*
X0113816Y0095576D01*
X0113954Y0095566D01*
X0114091Y0095552D01*
X0114228Y0095534D01*
X0114365Y0095513D01*
X0114501Y0095488D01*
X0114636Y0095459D01*
X0114770Y0095426D01*
X0114903Y0095389D01*
X0115036Y0095349D01*
X0115167Y0095305D01*
X0115296Y0095258D01*
X0115425Y0095207D01*
X0115552Y0095152D01*
X0115677Y0095094D01*
X0115669Y0095078D01*
X0115544Y0095136D01*
X0115418Y0095190D01*
X0115290Y0095241D01*
X0115161Y0095288D01*
X0115030Y0095332D01*
X0114898Y0095372D01*
X0114766Y0095409D01*
X0114632Y0095441D01*
X0114497Y0095470D01*
X0114362Y0095495D01*
X0114226Y0095517D01*
X0114089Y0095534D01*
X0113952Y0095548D01*
X0113815Y0095558D01*
X0113678Y0095564D01*
X0113540Y0095566D01*
X0113539Y0085549D02*
X0113539Y0085729D01*
X0113540Y0085728D02*
X0113677Y0085730D01*
X0113814Y0085736D01*
X0113951Y0085746D01*
X0114087Y0085760D01*
X0114223Y0085777D01*
X0114359Y0085798D01*
X0114494Y0085824D01*
X0114628Y0085852D01*
X0114761Y0085885D01*
X0114893Y0085921D01*
X0115025Y0085961D01*
X0115155Y0086005D01*
X0115283Y0086052D01*
X0115411Y0086103D01*
X0115537Y0086157D01*
X0115661Y0086215D01*
X0115739Y0086053D01*
X0115740Y0086053D01*
X0115618Y0085996D01*
X0115496Y0085943D01*
X0115371Y0085893D01*
X0115246Y0085846D01*
X0115119Y0085802D01*
X0114992Y0085762D01*
X0114863Y0085726D01*
X0114733Y0085692D01*
X0114603Y0085662D01*
X0114472Y0085636D01*
X0114340Y0085613D01*
X0114207Y0085593D01*
X0114074Y0085577D01*
X0113941Y0085565D01*
X0113808Y0085556D01*
X0113674Y0085550D01*
X0113540Y0085548D01*
X0113540Y0085566D01*
X0113682Y0085568D01*
X0113823Y0085574D01*
X0113965Y0085585D01*
X0114106Y0085599D01*
X0114246Y0085617D01*
X0114386Y0085639D01*
X0114526Y0085665D01*
X0114664Y0085694D01*
X0114802Y0085728D01*
X0114938Y0085765D01*
X0115074Y0085807D01*
X0115208Y0085852D01*
X0115342Y0085901D01*
X0115473Y0085953D01*
X0115603Y0086009D01*
X0115732Y0086069D01*
X0115724Y0086085D01*
X0115596Y0086026D01*
X0115466Y0085970D01*
X0115335Y0085917D01*
X0115202Y0085869D01*
X0115069Y0085824D01*
X0114933Y0085783D01*
X0114797Y0085745D01*
X0114660Y0085712D01*
X0114522Y0085682D01*
X0114383Y0085657D01*
X0114244Y0085635D01*
X0114104Y0085617D01*
X0113963Y0085603D01*
X0113822Y0085592D01*
X0113681Y0085586D01*
X0113540Y0085584D01*
X0113540Y0085602D01*
X0113681Y0085604D01*
X0113821Y0085610D01*
X0113962Y0085621D01*
X0114102Y0085635D01*
X0114241Y0085652D01*
X0114380Y0085674D01*
X0114518Y0085700D01*
X0114656Y0085730D01*
X0114793Y0085763D01*
X0114928Y0085800D01*
X0115063Y0085841D01*
X0115196Y0085886D01*
X0115329Y0085934D01*
X0115459Y0085986D01*
X0115589Y0086042D01*
X0115716Y0086101D01*
X0115708Y0086117D01*
X0115581Y0086058D01*
X0115452Y0086003D01*
X0115322Y0085951D01*
X0115191Y0085903D01*
X0115058Y0085858D01*
X0114923Y0085817D01*
X0114788Y0085780D01*
X0114652Y0085747D01*
X0114515Y0085718D01*
X0114377Y0085692D01*
X0114239Y0085670D01*
X0114100Y0085652D01*
X0113960Y0085638D01*
X0113820Y0085628D01*
X0113680Y0085622D01*
X0113540Y0085620D01*
X0113540Y0085638D01*
X0113680Y0085640D01*
X0113819Y0085646D01*
X0113958Y0085656D01*
X0114097Y0085670D01*
X0114236Y0085688D01*
X0114374Y0085710D01*
X0114511Y0085735D01*
X0114648Y0085765D01*
X0114784Y0085798D01*
X0114918Y0085835D01*
X0115052Y0085875D01*
X0115185Y0085920D01*
X0115316Y0085968D01*
X0115445Y0086019D01*
X0115574Y0086075D01*
X0115700Y0086134D01*
X0115693Y0086150D01*
X0115566Y0086091D01*
X0115439Y0086036D01*
X0115309Y0085985D01*
X0115179Y0085937D01*
X0115047Y0085892D01*
X0114913Y0085852D01*
X0114779Y0085815D01*
X0114644Y0085782D01*
X0114508Y0085753D01*
X0114371Y0085728D01*
X0114234Y0085706D01*
X0114095Y0085688D01*
X0113957Y0085674D01*
X0113818Y0085664D01*
X0113679Y0085658D01*
X0113540Y0085656D01*
X0113540Y0085674D01*
X0113679Y0085676D01*
X0113817Y0085682D01*
X0113955Y0085692D01*
X0114093Y0085706D01*
X0114231Y0085724D01*
X0114368Y0085745D01*
X0114504Y0085771D01*
X0114640Y0085800D01*
X0114775Y0085833D01*
X0114908Y0085869D01*
X0115041Y0085910D01*
X0115173Y0085954D01*
X0115303Y0086001D01*
X0115432Y0086053D01*
X0115559Y0086108D01*
X0115685Y0086166D01*
X0115677Y0086182D01*
X0115552Y0086124D01*
X0115425Y0086069D01*
X0115296Y0086018D01*
X0115167Y0085971D01*
X0115036Y0085927D01*
X0114903Y0085887D01*
X0114770Y0085850D01*
X0114636Y0085817D01*
X0114501Y0085788D01*
X0114365Y0085763D01*
X0114228Y0085742D01*
X0114091Y0085724D01*
X0113954Y0085710D01*
X0113816Y0085700D01*
X0113678Y0085694D01*
X0113540Y0085692D01*
X0113540Y0085710D01*
X0113678Y0085712D01*
X0113815Y0085718D01*
X0113952Y0085728D01*
X0114089Y0085742D01*
X0114226Y0085759D01*
X0114362Y0085781D01*
X0114497Y0085806D01*
X0114632Y0085835D01*
X0114766Y0085867D01*
X0114898Y0085904D01*
X0115030Y0085944D01*
X0115161Y0085988D01*
X0115290Y0086035D01*
X0115418Y0086086D01*
X0115544Y0086140D01*
X0115669Y0086198D01*
X0113539Y0082549D02*
X0113539Y0082729D01*
X0113539Y0082728D02*
X0113731Y0082731D01*
X0113923Y0082738D01*
X0114115Y0082750D01*
X0114306Y0082766D01*
X0114497Y0082787D01*
X0114687Y0082813D01*
X0114877Y0082844D01*
X0115065Y0082879D01*
X0115253Y0082918D01*
X0115440Y0082962D01*
X0115626Y0083011D01*
X0115810Y0083064D01*
X0115993Y0083122D01*
X0116175Y0083184D01*
X0116355Y0083250D01*
X0116534Y0083321D01*
X0116710Y0083396D01*
X0116885Y0083475D01*
X0117058Y0083559D01*
X0117229Y0083647D01*
X0117397Y0083738D01*
X0117564Y0083834D01*
X0117728Y0083934D01*
X0117889Y0084038D01*
X0118048Y0084146D01*
X0118204Y0084258D01*
X0118358Y0084373D01*
X0118508Y0084492D01*
X0118656Y0084615D01*
X0118801Y0084741D01*
X0118942Y0084870D01*
X0119081Y0085003D01*
X0119216Y0085140D01*
X0119347Y0085280D01*
X0119476Y0085422D01*
X0119601Y0085568D01*
X0119722Y0085717D01*
X0119839Y0085869D01*
X0119953Y0086023D01*
X0120063Y0086181D01*
X0120212Y0086080D01*
X0120212Y0086079D01*
X0120100Y0085918D01*
X0119983Y0085760D01*
X0119863Y0085605D01*
X0119739Y0085453D01*
X0119611Y0085304D01*
X0119480Y0085158D01*
X0119345Y0085015D01*
X0119207Y0084875D01*
X0119066Y0084739D01*
X0118921Y0084607D01*
X0118773Y0084478D01*
X0118622Y0084352D01*
X0118468Y0084230D01*
X0118311Y0084112D01*
X0118151Y0083998D01*
X0117988Y0083888D01*
X0117823Y0083782D01*
X0117656Y0083680D01*
X0117485Y0083581D01*
X0117313Y0083488D01*
X0117138Y0083398D01*
X0116962Y0083312D01*
X0116783Y0083231D01*
X0116602Y0083154D01*
X0116419Y0083082D01*
X0116235Y0083014D01*
X0116049Y0082951D01*
X0115862Y0082892D01*
X0115673Y0082837D01*
X0115483Y0082788D01*
X0115292Y0082743D01*
X0115100Y0082702D01*
X0114907Y0082666D01*
X0114713Y0082635D01*
X0114519Y0082609D01*
X0114323Y0082587D01*
X0114128Y0082570D01*
X0113932Y0082558D01*
X0113736Y0082551D01*
X0113539Y0082548D01*
X0113539Y0082566D01*
X0113735Y0082569D01*
X0113931Y0082576D01*
X0114127Y0082588D01*
X0114322Y0082605D01*
X0114516Y0082627D01*
X0114711Y0082653D01*
X0114904Y0082684D01*
X0115097Y0082720D01*
X0115288Y0082760D01*
X0115479Y0082805D01*
X0115669Y0082855D01*
X0115857Y0082909D01*
X0116044Y0082968D01*
X0116229Y0083031D01*
X0116413Y0083099D01*
X0116595Y0083171D01*
X0116776Y0083248D01*
X0116954Y0083329D01*
X0117130Y0083414D01*
X0117305Y0083503D01*
X0117477Y0083597D01*
X0117646Y0083695D01*
X0117814Y0083797D01*
X0117978Y0083903D01*
X0118141Y0084013D01*
X0118300Y0084127D01*
X0118457Y0084245D01*
X0118610Y0084366D01*
X0118761Y0084491D01*
X0118909Y0084620D01*
X0119053Y0084752D01*
X0119194Y0084888D01*
X0119332Y0085027D01*
X0119467Y0085170D01*
X0119598Y0085316D01*
X0119725Y0085464D01*
X0119849Y0085616D01*
X0119969Y0085771D01*
X0120085Y0085929D01*
X0120197Y0086089D01*
X0120183Y0086100D01*
X0120070Y0085939D01*
X0119954Y0085782D01*
X0119835Y0085628D01*
X0119711Y0085476D01*
X0119584Y0085327D01*
X0119453Y0085182D01*
X0119319Y0085040D01*
X0119182Y0084901D01*
X0119041Y0084765D01*
X0118897Y0084633D01*
X0118749Y0084505D01*
X0118599Y0084380D01*
X0118446Y0084259D01*
X0118289Y0084141D01*
X0118130Y0084028D01*
X0117968Y0083918D01*
X0117804Y0083812D01*
X0117637Y0083711D01*
X0117468Y0083613D01*
X0117296Y0083519D01*
X0117122Y0083430D01*
X0116946Y0083345D01*
X0116768Y0083264D01*
X0116588Y0083188D01*
X0116407Y0083116D01*
X0116223Y0083048D01*
X0116038Y0082985D01*
X0115852Y0082926D01*
X0115664Y0082872D01*
X0115475Y0082823D01*
X0115285Y0082778D01*
X0115093Y0082737D01*
X0114901Y0082702D01*
X0114708Y0082671D01*
X0114514Y0082644D01*
X0114320Y0082623D01*
X0114125Y0082606D01*
X0113930Y0082594D01*
X0113735Y0082587D01*
X0113539Y0082584D01*
X0113539Y0082602D01*
X0113734Y0082605D01*
X0113929Y0082612D01*
X0114124Y0082624D01*
X0114318Y0082641D01*
X0114512Y0082662D01*
X0114705Y0082689D01*
X0114898Y0082719D01*
X0115090Y0082755D01*
X0115281Y0082795D01*
X0115470Y0082840D01*
X0115659Y0082889D01*
X0115847Y0082943D01*
X0116033Y0083002D01*
X0116217Y0083065D01*
X0116400Y0083132D01*
X0116582Y0083204D01*
X0116761Y0083281D01*
X0116939Y0083361D01*
X0117114Y0083446D01*
X0117288Y0083535D01*
X0117459Y0083629D01*
X0117628Y0083726D01*
X0117795Y0083828D01*
X0117959Y0083933D01*
X0118120Y0084043D01*
X0118279Y0084156D01*
X0118435Y0084273D01*
X0118588Y0084394D01*
X0118738Y0084519D01*
X0118885Y0084647D01*
X0119029Y0084779D01*
X0119169Y0084914D01*
X0119306Y0085052D01*
X0119440Y0085194D01*
X0119571Y0085339D01*
X0119697Y0085487D01*
X0119821Y0085639D01*
X0119940Y0085793D01*
X0120056Y0085950D01*
X0120168Y0086110D01*
X0120153Y0086120D01*
X0120041Y0085960D01*
X0119926Y0085804D01*
X0119807Y0085650D01*
X0119684Y0085499D01*
X0119557Y0085351D01*
X0119427Y0085206D01*
X0119293Y0085065D01*
X0119156Y0084927D01*
X0119016Y0084792D01*
X0118873Y0084660D01*
X0118726Y0084532D01*
X0118576Y0084408D01*
X0118424Y0084287D01*
X0118268Y0084170D01*
X0118110Y0084057D01*
X0117949Y0083948D01*
X0117785Y0083843D01*
X0117619Y0083741D01*
X0117450Y0083644D01*
X0117279Y0083551D01*
X0117106Y0083462D01*
X0116931Y0083378D01*
X0116754Y0083297D01*
X0116575Y0083221D01*
X0116394Y0083149D01*
X0116211Y0083082D01*
X0116027Y0083019D01*
X0115841Y0082961D01*
X0115654Y0082907D01*
X0115466Y0082858D01*
X0115277Y0082813D01*
X0115086Y0082773D01*
X0114895Y0082737D01*
X0114703Y0082706D01*
X0114510Y0082680D01*
X0114316Y0082659D01*
X0114123Y0082642D01*
X0113928Y0082630D01*
X0113734Y0082623D01*
X0113539Y0082620D01*
X0113539Y0082638D01*
X0113733Y0082641D01*
X0113927Y0082648D01*
X0114121Y0082660D01*
X0114315Y0082677D01*
X0114508Y0082698D01*
X0114700Y0082724D01*
X0114892Y0082755D01*
X0115083Y0082790D01*
X0115273Y0082830D01*
X0115462Y0082875D01*
X0115650Y0082924D01*
X0115836Y0082978D01*
X0116021Y0083036D01*
X0116205Y0083099D01*
X0116387Y0083166D01*
X0116568Y0083238D01*
X0116747Y0083314D01*
X0116923Y0083394D01*
X0117098Y0083478D01*
X0117271Y0083567D01*
X0117441Y0083660D01*
X0117610Y0083757D01*
X0117775Y0083858D01*
X0117939Y0083963D01*
X0118099Y0084072D01*
X0118257Y0084185D01*
X0118413Y0084302D01*
X0118565Y0084422D01*
X0118714Y0084546D01*
X0118861Y0084674D01*
X0119004Y0084805D01*
X0119144Y0084939D01*
X0119280Y0085077D01*
X0119414Y0085219D01*
X0119544Y0085363D01*
X0119670Y0085511D01*
X0119792Y0085661D01*
X0119911Y0085815D01*
X0120027Y0085971D01*
X0120138Y0086130D01*
X0120123Y0086140D01*
X0120012Y0085981D01*
X0119897Y0085825D01*
X0119778Y0085672D01*
X0119656Y0085522D01*
X0119530Y0085375D01*
X0119400Y0085231D01*
X0119268Y0085090D01*
X0119131Y0084952D01*
X0118992Y0084818D01*
X0118849Y0084687D01*
X0118703Y0084560D01*
X0118554Y0084436D01*
X0118402Y0084316D01*
X0118247Y0084199D01*
X0118089Y0084087D01*
X0117929Y0083978D01*
X0117766Y0083873D01*
X0117600Y0083772D01*
X0117433Y0083676D01*
X0117262Y0083583D01*
X0117090Y0083494D01*
X0116916Y0083410D01*
X0116739Y0083330D01*
X0116561Y0083254D01*
X0116381Y0083183D01*
X0116199Y0083116D01*
X0116016Y0083053D01*
X0115831Y0082995D01*
X0115645Y0082942D01*
X0115457Y0082892D01*
X0115269Y0082848D01*
X0115079Y0082808D01*
X0114889Y0082773D01*
X0114698Y0082742D01*
X0114506Y0082716D01*
X0114313Y0082695D01*
X0114120Y0082678D01*
X0113927Y0082666D01*
X0113733Y0082659D01*
X0113539Y0082656D01*
X0113539Y0082674D01*
X0113733Y0082677D01*
X0113926Y0082684D01*
X0114119Y0082696D01*
X0114311Y0082713D01*
X0114503Y0082734D01*
X0114695Y0082760D01*
X0114886Y0082790D01*
X0115076Y0082826D01*
X0115265Y0082865D01*
X0115453Y0082910D01*
X0115640Y0082959D01*
X0115826Y0083012D01*
X0116010Y0083070D01*
X0116193Y0083133D01*
X0116374Y0083200D01*
X0116554Y0083271D01*
X0116732Y0083347D01*
X0116908Y0083426D01*
X0117082Y0083511D01*
X0117254Y0083599D01*
X0117424Y0083691D01*
X0117591Y0083788D01*
X0117756Y0083889D01*
X0117919Y0083993D01*
X0118079Y0084102D01*
X0118236Y0084214D01*
X0118391Y0084330D01*
X0118542Y0084450D01*
X0118691Y0084573D01*
X0118837Y0084701D01*
X0118979Y0084831D01*
X0119119Y0084965D01*
X0119255Y0085102D01*
X0119387Y0085243D01*
X0119516Y0085387D01*
X0119642Y0085534D01*
X0119764Y0085683D01*
X0119883Y0085836D01*
X0119997Y0085992D01*
X0120108Y0086150D01*
X0120093Y0086160D01*
X0119983Y0086002D01*
X0119868Y0085847D01*
X0119750Y0085695D01*
X0119628Y0085545D01*
X0119503Y0085399D01*
X0119374Y0085255D01*
X0119242Y0085115D01*
X0119106Y0084978D01*
X0118967Y0084844D01*
X0118825Y0084714D01*
X0118679Y0084587D01*
X0118531Y0084464D01*
X0118380Y0084344D01*
X0118225Y0084228D01*
X0118069Y0084116D01*
X0117909Y0084008D01*
X0117747Y0083904D01*
X0117582Y0083803D01*
X0117415Y0083707D01*
X0117246Y0083615D01*
X0117074Y0083527D01*
X0116900Y0083443D01*
X0116725Y0083363D01*
X0116547Y0083288D01*
X0116368Y0083217D01*
X0116187Y0083150D01*
X0116005Y0083087D01*
X0115821Y0083030D01*
X0115635Y0082976D01*
X0115449Y0082927D01*
X0115261Y0082883D01*
X0115072Y0082843D01*
X0114883Y0082808D01*
X0114692Y0082778D01*
X0114501Y0082752D01*
X0114309Y0082730D01*
X0114117Y0082714D01*
X0113925Y0082702D01*
X0113732Y0082695D01*
X0113539Y0082692D01*
X0113539Y0082710D01*
X0113732Y0082713D01*
X0113924Y0082720D01*
X0114116Y0082732D01*
X0114308Y0082748D01*
X0114499Y0082770D01*
X0114690Y0082795D01*
X0114880Y0082826D01*
X0115069Y0082861D01*
X0115257Y0082901D01*
X0115444Y0082945D01*
X0115631Y0082994D01*
X0115815Y0083047D01*
X0115999Y0083105D01*
X0116181Y0083167D01*
X0116362Y0083233D01*
X0116541Y0083304D01*
X0116718Y0083379D01*
X0116893Y0083459D01*
X0117066Y0083543D01*
X0117237Y0083631D01*
X0117406Y0083723D01*
X0117573Y0083819D01*
X0117737Y0083919D01*
X0117899Y0084023D01*
X0118058Y0084131D01*
X0118215Y0084243D01*
X0118369Y0084359D01*
X0118520Y0084478D01*
X0118668Y0084601D01*
X0118813Y0084727D01*
X0118955Y0084857D01*
X0119093Y0084991D01*
X0119229Y0085127D01*
X0119361Y0085267D01*
X0119489Y0085410D01*
X0119614Y0085557D01*
X0119736Y0085706D01*
X0119854Y0085858D01*
X0119968Y0086013D01*
X0120078Y0086170D01*
X0086520Y0098727D02*
X0086520Y0098547D01*
X0086520Y0098548D02*
X0086328Y0098545D01*
X0086136Y0098538D01*
X0085944Y0098526D01*
X0085753Y0098510D01*
X0085562Y0098489D01*
X0085372Y0098463D01*
X0085182Y0098432D01*
X0084993Y0098397D01*
X0084806Y0098358D01*
X0084619Y0098314D01*
X0084433Y0098265D01*
X0084249Y0098212D01*
X0084065Y0098154D01*
X0083884Y0098092D01*
X0083704Y0098026D01*
X0083525Y0097955D01*
X0083348Y0097880D01*
X0083174Y0097801D01*
X0083001Y0097717D01*
X0082830Y0097629D01*
X0082661Y0097537D01*
X0082495Y0097442D01*
X0082331Y0097342D01*
X0082170Y0097238D01*
X0082011Y0097130D01*
X0081855Y0097018D01*
X0081701Y0096903D01*
X0081551Y0096784D01*
X0081403Y0096661D01*
X0081258Y0096535D01*
X0081117Y0096405D01*
X0080978Y0096272D01*
X0080843Y0096136D01*
X0080711Y0095996D01*
X0080583Y0095854D01*
X0080458Y0095708D01*
X0080337Y0095559D01*
X0080219Y0095407D01*
X0080105Y0095253D01*
X0079995Y0095095D01*
X0079847Y0095196D01*
X0079959Y0095357D01*
X0080076Y0095515D01*
X0080196Y0095671D01*
X0080320Y0095823D01*
X0080448Y0095972D01*
X0080579Y0096118D01*
X0080714Y0096261D01*
X0080852Y0096400D01*
X0080993Y0096537D01*
X0081138Y0096669D01*
X0081286Y0096798D01*
X0081437Y0096924D01*
X0081591Y0097046D01*
X0081748Y0097164D01*
X0081908Y0097278D01*
X0082070Y0097388D01*
X0082236Y0097494D01*
X0082403Y0097596D01*
X0082573Y0097694D01*
X0082746Y0097788D01*
X0082920Y0097878D01*
X0083097Y0097964D01*
X0083276Y0098045D01*
X0083457Y0098122D01*
X0083639Y0098194D01*
X0083824Y0098262D01*
X0084009Y0098325D01*
X0084197Y0098384D01*
X0084385Y0098439D01*
X0084575Y0098488D01*
X0084766Y0098533D01*
X0084959Y0098574D01*
X0085152Y0098610D01*
X0085346Y0098641D01*
X0085540Y0098667D01*
X0085735Y0098689D01*
X0085931Y0098706D01*
X0086127Y0098718D01*
X0086323Y0098725D01*
X0086520Y0098728D01*
X0086520Y0098710D01*
X0086324Y0098707D01*
X0086128Y0098700D01*
X0085932Y0098688D01*
X0085737Y0098671D01*
X0085542Y0098649D01*
X0085348Y0098623D01*
X0085155Y0098592D01*
X0084962Y0098556D01*
X0084770Y0098516D01*
X0084580Y0098471D01*
X0084390Y0098421D01*
X0084202Y0098367D01*
X0084015Y0098308D01*
X0083830Y0098245D01*
X0083646Y0098177D01*
X0083464Y0098105D01*
X0083283Y0098028D01*
X0083105Y0097947D01*
X0082929Y0097862D01*
X0082754Y0097772D01*
X0082582Y0097679D01*
X0082412Y0097581D01*
X0082245Y0097479D01*
X0082080Y0097373D01*
X0081918Y0097263D01*
X0081759Y0097149D01*
X0081602Y0097031D01*
X0081449Y0096910D01*
X0081298Y0096785D01*
X0081150Y0096656D01*
X0081006Y0096523D01*
X0080864Y0096388D01*
X0080727Y0096248D01*
X0080592Y0096106D01*
X0080461Y0095960D01*
X0080334Y0095811D01*
X0080210Y0095659D01*
X0080090Y0095505D01*
X0079974Y0095347D01*
X0079861Y0095186D01*
X0079876Y0095176D01*
X0079988Y0095336D01*
X0080104Y0095494D01*
X0080224Y0095648D01*
X0080348Y0095800D01*
X0080475Y0095948D01*
X0080605Y0096094D01*
X0080740Y0096236D01*
X0080877Y0096375D01*
X0081018Y0096510D01*
X0081162Y0096642D01*
X0081309Y0096771D01*
X0081460Y0096896D01*
X0081613Y0097017D01*
X0081769Y0097134D01*
X0081929Y0097248D01*
X0082090Y0097358D01*
X0082255Y0097464D01*
X0082422Y0097565D01*
X0082591Y0097663D01*
X0082763Y0097757D01*
X0082937Y0097846D01*
X0083113Y0097931D01*
X0083291Y0098012D01*
X0083470Y0098088D01*
X0083652Y0098160D01*
X0083836Y0098228D01*
X0084021Y0098291D01*
X0084207Y0098350D01*
X0084395Y0098404D01*
X0084584Y0098453D01*
X0084774Y0098498D01*
X0084966Y0098539D01*
X0085158Y0098574D01*
X0085351Y0098605D01*
X0085545Y0098631D01*
X0085739Y0098653D01*
X0085934Y0098670D01*
X0086129Y0098682D01*
X0086324Y0098689D01*
X0086520Y0098692D01*
X0086520Y0098674D01*
X0086324Y0098671D01*
X0086130Y0098664D01*
X0085935Y0098652D01*
X0085741Y0098635D01*
X0085547Y0098614D01*
X0085353Y0098587D01*
X0085161Y0098557D01*
X0084969Y0098521D01*
X0084778Y0098481D01*
X0084588Y0098436D01*
X0084400Y0098386D01*
X0084212Y0098333D01*
X0084026Y0098274D01*
X0083842Y0098211D01*
X0083659Y0098143D01*
X0083477Y0098072D01*
X0083298Y0097995D01*
X0083120Y0097915D01*
X0082945Y0097830D01*
X0082771Y0097741D01*
X0082600Y0097647D01*
X0082431Y0097550D01*
X0082264Y0097448D01*
X0082100Y0097343D01*
X0081939Y0097233D01*
X0081780Y0097120D01*
X0081624Y0097003D01*
X0081471Y0096882D01*
X0081321Y0096757D01*
X0081174Y0096629D01*
X0081030Y0096497D01*
X0080890Y0096362D01*
X0080752Y0096223D01*
X0080619Y0096082D01*
X0080488Y0095937D01*
X0080361Y0095788D01*
X0080238Y0095637D01*
X0080119Y0095483D01*
X0080003Y0095326D01*
X0079891Y0095166D01*
X0079906Y0095156D01*
X0080018Y0095315D01*
X0080133Y0095472D01*
X0080252Y0095626D01*
X0080375Y0095777D01*
X0080502Y0095925D01*
X0080632Y0096069D01*
X0080765Y0096211D01*
X0080902Y0096349D01*
X0081043Y0096484D01*
X0081186Y0096616D01*
X0081333Y0096744D01*
X0081483Y0096868D01*
X0081635Y0096989D01*
X0081791Y0097105D01*
X0081949Y0097219D01*
X0082110Y0097328D01*
X0082274Y0097433D01*
X0082440Y0097534D01*
X0082609Y0097632D01*
X0082780Y0097725D01*
X0082953Y0097814D01*
X0083128Y0097898D01*
X0083305Y0097979D01*
X0083484Y0098055D01*
X0083665Y0098127D01*
X0083848Y0098194D01*
X0084032Y0098257D01*
X0084217Y0098315D01*
X0084404Y0098369D01*
X0084593Y0098418D01*
X0084782Y0098463D01*
X0084973Y0098503D01*
X0085164Y0098539D01*
X0085356Y0098570D01*
X0085549Y0098596D01*
X0085742Y0098617D01*
X0085936Y0098634D01*
X0086130Y0098646D01*
X0086325Y0098653D01*
X0086520Y0098656D01*
X0086520Y0098638D01*
X0086325Y0098635D01*
X0086131Y0098628D01*
X0085938Y0098616D01*
X0085744Y0098599D01*
X0085551Y0098578D01*
X0085359Y0098552D01*
X0085167Y0098521D01*
X0084976Y0098486D01*
X0084786Y0098446D01*
X0084597Y0098401D01*
X0084409Y0098352D01*
X0084223Y0098298D01*
X0084037Y0098240D01*
X0083854Y0098177D01*
X0083671Y0098110D01*
X0083491Y0098038D01*
X0083312Y0097962D01*
X0083135Y0097882D01*
X0082961Y0097798D01*
X0082788Y0097709D01*
X0082617Y0097616D01*
X0082449Y0097519D01*
X0082283Y0097418D01*
X0082120Y0097313D01*
X0081959Y0097204D01*
X0081801Y0097091D01*
X0081646Y0096974D01*
X0081494Y0096854D01*
X0081344Y0096730D01*
X0081198Y0096602D01*
X0081055Y0096471D01*
X0080915Y0096336D01*
X0080778Y0096198D01*
X0080645Y0096057D01*
X0080515Y0095913D01*
X0080389Y0095765D01*
X0080266Y0095615D01*
X0080148Y0095461D01*
X0080032Y0095305D01*
X0079921Y0095146D01*
X0079936Y0095136D01*
X0080047Y0095294D01*
X0080162Y0095450D01*
X0080281Y0095604D01*
X0080403Y0095754D01*
X0080529Y0095901D01*
X0080658Y0096045D01*
X0080791Y0096186D01*
X0080928Y0096324D01*
X0081067Y0096458D01*
X0081210Y0096589D01*
X0081356Y0096716D01*
X0081505Y0096840D01*
X0081657Y0096960D01*
X0081812Y0097076D01*
X0081970Y0097189D01*
X0082130Y0097298D01*
X0082293Y0097403D01*
X0082458Y0097503D01*
X0082626Y0097600D01*
X0082796Y0097693D01*
X0082969Y0097781D01*
X0083143Y0097866D01*
X0083319Y0097946D01*
X0083498Y0098022D01*
X0083678Y0098093D01*
X0083860Y0098160D01*
X0084043Y0098223D01*
X0084228Y0098281D01*
X0084414Y0098334D01*
X0084601Y0098384D01*
X0084790Y0098428D01*
X0084980Y0098468D01*
X0085170Y0098503D01*
X0085361Y0098534D01*
X0085553Y0098560D01*
X0085746Y0098581D01*
X0085939Y0098598D01*
X0086132Y0098610D01*
X0086326Y0098617D01*
X0086520Y0098620D01*
X0086520Y0098602D01*
X0086326Y0098599D01*
X0086133Y0098592D01*
X0085940Y0098580D01*
X0085748Y0098563D01*
X0085555Y0098542D01*
X0085364Y0098516D01*
X0085173Y0098486D01*
X0084983Y0098450D01*
X0084794Y0098410D01*
X0084606Y0098366D01*
X0084419Y0098317D01*
X0084233Y0098264D01*
X0084049Y0098206D01*
X0083866Y0098143D01*
X0083684Y0098076D01*
X0083505Y0098005D01*
X0083327Y0097929D01*
X0083151Y0097850D01*
X0082977Y0097765D01*
X0082805Y0097677D01*
X0082635Y0097585D01*
X0082468Y0097488D01*
X0082303Y0097387D01*
X0082140Y0097283D01*
X0081980Y0097174D01*
X0081823Y0097062D01*
X0081668Y0096946D01*
X0081517Y0096826D01*
X0081368Y0096702D01*
X0081222Y0096575D01*
X0081080Y0096445D01*
X0080940Y0096311D01*
X0080804Y0096173D01*
X0080672Y0096033D01*
X0080542Y0095889D01*
X0080417Y0095742D01*
X0080295Y0095592D01*
X0080176Y0095440D01*
X0080062Y0095284D01*
X0079951Y0095126D01*
X0079966Y0095115D01*
X0080076Y0095273D01*
X0080191Y0095429D01*
X0080309Y0095581D01*
X0080431Y0095731D01*
X0080556Y0095877D01*
X0080685Y0096021D01*
X0080817Y0096161D01*
X0080953Y0096298D01*
X0081092Y0096432D01*
X0081234Y0096562D01*
X0081380Y0096689D01*
X0081528Y0096812D01*
X0081679Y0096932D01*
X0081833Y0097047D01*
X0081990Y0097159D01*
X0082150Y0097268D01*
X0082312Y0097372D01*
X0082477Y0097472D01*
X0082644Y0097569D01*
X0082813Y0097661D01*
X0082985Y0097749D01*
X0083158Y0097833D01*
X0083334Y0097913D01*
X0083511Y0097988D01*
X0083691Y0098059D01*
X0083872Y0098126D01*
X0084054Y0098188D01*
X0084238Y0098246D01*
X0084424Y0098300D01*
X0084610Y0098349D01*
X0084798Y0098393D01*
X0084986Y0098433D01*
X0085176Y0098468D01*
X0085367Y0098498D01*
X0085558Y0098524D01*
X0085749Y0098546D01*
X0085941Y0098562D01*
X0086134Y0098574D01*
X0086327Y0098581D01*
X0086520Y0098584D01*
X0086520Y0098566D01*
X0086327Y0098563D01*
X0086135Y0098556D01*
X0085943Y0098544D01*
X0085751Y0098528D01*
X0085560Y0098506D01*
X0085369Y0098481D01*
X0085179Y0098450D01*
X0084990Y0098415D01*
X0084802Y0098375D01*
X0084614Y0098331D01*
X0084428Y0098282D01*
X0084243Y0098229D01*
X0084060Y0098171D01*
X0083878Y0098109D01*
X0083697Y0098043D01*
X0083518Y0097972D01*
X0083341Y0097896D01*
X0083166Y0097817D01*
X0082993Y0097733D01*
X0082822Y0097645D01*
X0082653Y0097553D01*
X0082486Y0097457D01*
X0082322Y0097357D01*
X0082160Y0097253D01*
X0082001Y0097145D01*
X0081844Y0097033D01*
X0081690Y0096917D01*
X0081539Y0096798D01*
X0081391Y0096675D01*
X0081246Y0096549D01*
X0081104Y0096419D01*
X0080966Y0096285D01*
X0080830Y0096148D01*
X0080698Y0096009D01*
X0080570Y0095865D01*
X0080444Y0095719D01*
X0080323Y0095570D01*
X0080205Y0095418D01*
X0080091Y0095263D01*
X0079981Y0095105D01*
X0079846Y0086080D02*
X0079995Y0086181D01*
X0079995Y0086180D02*
X0080105Y0086023D01*
X0080219Y0085869D01*
X0080336Y0085717D01*
X0080458Y0085568D01*
X0080582Y0085422D01*
X0080711Y0085279D01*
X0080842Y0085140D01*
X0080978Y0085003D01*
X0081116Y0084870D01*
X0081258Y0084741D01*
X0081402Y0084614D01*
X0081550Y0084492D01*
X0081701Y0084373D01*
X0081854Y0084257D01*
X0082010Y0084146D01*
X0082169Y0084038D01*
X0082331Y0083934D01*
X0082495Y0083834D01*
X0082661Y0083738D01*
X0082830Y0083646D01*
X0083000Y0083559D01*
X0083173Y0083475D01*
X0083348Y0083396D01*
X0083525Y0083321D01*
X0083703Y0083250D01*
X0083883Y0083184D01*
X0084065Y0083122D01*
X0084248Y0083064D01*
X0084433Y0083011D01*
X0084618Y0082962D01*
X0084805Y0082918D01*
X0084993Y0082879D01*
X0085182Y0082844D01*
X0085371Y0082813D01*
X0085562Y0082787D01*
X0085752Y0082766D01*
X0085944Y0082750D01*
X0086135Y0082738D01*
X0086327Y0082731D01*
X0086519Y0082728D01*
X0086520Y0082549D01*
X0086519Y0082548D01*
X0086323Y0082551D01*
X0086127Y0082558D01*
X0085931Y0082570D01*
X0085735Y0082587D01*
X0085540Y0082609D01*
X0085345Y0082635D01*
X0085151Y0082666D01*
X0084958Y0082702D01*
X0084766Y0082742D01*
X0084575Y0082788D01*
X0084385Y0082837D01*
X0084196Y0082892D01*
X0084009Y0082951D01*
X0083823Y0083014D01*
X0083639Y0083082D01*
X0083456Y0083154D01*
X0083276Y0083231D01*
X0083097Y0083312D01*
X0082920Y0083398D01*
X0082745Y0083487D01*
X0082573Y0083581D01*
X0082403Y0083679D01*
X0082235Y0083782D01*
X0082070Y0083888D01*
X0081907Y0083998D01*
X0081748Y0084112D01*
X0081591Y0084230D01*
X0081437Y0084352D01*
X0081286Y0084477D01*
X0081138Y0084606D01*
X0080993Y0084739D01*
X0080851Y0084875D01*
X0080713Y0085015D01*
X0080578Y0085157D01*
X0080447Y0085304D01*
X0080319Y0085453D01*
X0080195Y0085605D01*
X0080075Y0085760D01*
X0079958Y0085918D01*
X0079846Y0086079D01*
X0079861Y0086089D01*
X0079973Y0085929D01*
X0080089Y0085771D01*
X0080209Y0085616D01*
X0080333Y0085464D01*
X0080460Y0085315D01*
X0080591Y0085170D01*
X0080726Y0085027D01*
X0080864Y0084888D01*
X0081005Y0084752D01*
X0081150Y0084620D01*
X0081297Y0084491D01*
X0081448Y0084366D01*
X0081602Y0084244D01*
X0081758Y0084127D01*
X0081918Y0084013D01*
X0082080Y0083903D01*
X0082245Y0083797D01*
X0082412Y0083695D01*
X0082582Y0083597D01*
X0082754Y0083503D01*
X0082928Y0083414D01*
X0083104Y0083328D01*
X0083283Y0083247D01*
X0083463Y0083171D01*
X0083645Y0083099D01*
X0083829Y0083031D01*
X0084015Y0082968D01*
X0084201Y0082909D01*
X0084390Y0082855D01*
X0084579Y0082805D01*
X0084770Y0082760D01*
X0084962Y0082720D01*
X0085154Y0082684D01*
X0085348Y0082653D01*
X0085542Y0082627D01*
X0085737Y0082605D01*
X0085932Y0082588D01*
X0086127Y0082576D01*
X0086323Y0082569D01*
X0086519Y0082566D01*
X0086519Y0082584D01*
X0086324Y0082587D01*
X0086128Y0082594D01*
X0085933Y0082606D01*
X0085738Y0082623D01*
X0085544Y0082644D01*
X0085350Y0082671D01*
X0085157Y0082702D01*
X0084965Y0082737D01*
X0084774Y0082778D01*
X0084584Y0082822D01*
X0084395Y0082872D01*
X0084207Y0082926D01*
X0084020Y0082985D01*
X0083835Y0083048D01*
X0083652Y0083115D01*
X0083470Y0083188D01*
X0083290Y0083264D01*
X0083112Y0083345D01*
X0082936Y0083430D01*
X0082762Y0083519D01*
X0082590Y0083613D01*
X0082421Y0083710D01*
X0082254Y0083812D01*
X0082090Y0083918D01*
X0081928Y0084028D01*
X0081769Y0084141D01*
X0081613Y0084259D01*
X0081459Y0084380D01*
X0081309Y0084505D01*
X0081162Y0084633D01*
X0081017Y0084765D01*
X0080876Y0084901D01*
X0080739Y0085040D01*
X0080605Y0085182D01*
X0080474Y0085327D01*
X0080347Y0085476D01*
X0080223Y0085627D01*
X0080104Y0085782D01*
X0079988Y0085939D01*
X0079876Y0086099D01*
X0079890Y0086109D01*
X0080002Y0085950D01*
X0080118Y0085793D01*
X0080238Y0085639D01*
X0080361Y0085487D01*
X0080488Y0085339D01*
X0080618Y0085194D01*
X0080752Y0085052D01*
X0080889Y0084914D01*
X0081030Y0084778D01*
X0081174Y0084647D01*
X0081321Y0084518D01*
X0081471Y0084394D01*
X0081624Y0084273D01*
X0081780Y0084156D01*
X0081938Y0084042D01*
X0082100Y0083933D01*
X0082264Y0083827D01*
X0082430Y0083726D01*
X0082599Y0083628D01*
X0082771Y0083535D01*
X0082944Y0083446D01*
X0083120Y0083361D01*
X0083297Y0083280D01*
X0083477Y0083204D01*
X0083658Y0083132D01*
X0083841Y0083065D01*
X0084026Y0083002D01*
X0084212Y0082943D01*
X0084399Y0082889D01*
X0084588Y0082840D01*
X0084778Y0082795D01*
X0084969Y0082755D01*
X0085160Y0082719D01*
X0085353Y0082689D01*
X0085546Y0082662D01*
X0085740Y0082641D01*
X0085935Y0082624D01*
X0086129Y0082612D01*
X0086324Y0082605D01*
X0086519Y0082602D01*
X0086519Y0082620D01*
X0086325Y0082623D01*
X0086130Y0082630D01*
X0085936Y0082642D01*
X0085742Y0082659D01*
X0085549Y0082680D01*
X0085356Y0082706D01*
X0085164Y0082737D01*
X0084972Y0082773D01*
X0084782Y0082813D01*
X0084592Y0082857D01*
X0084404Y0082907D01*
X0084217Y0082961D01*
X0084031Y0083019D01*
X0083847Y0083082D01*
X0083665Y0083149D01*
X0083484Y0083221D01*
X0083305Y0083297D01*
X0083127Y0083377D01*
X0082952Y0083462D01*
X0082779Y0083551D01*
X0082608Y0083644D01*
X0082440Y0083741D01*
X0082273Y0083843D01*
X0082110Y0083948D01*
X0081949Y0084057D01*
X0081790Y0084170D01*
X0081635Y0084287D01*
X0081482Y0084408D01*
X0081332Y0084532D01*
X0081186Y0084660D01*
X0081042Y0084792D01*
X0080902Y0084926D01*
X0080765Y0085065D01*
X0080631Y0085206D01*
X0080501Y0085351D01*
X0080375Y0085499D01*
X0080252Y0085650D01*
X0080132Y0085804D01*
X0080017Y0085960D01*
X0079905Y0086120D01*
X0079920Y0086130D01*
X0080032Y0085971D01*
X0080147Y0085814D01*
X0080266Y0085661D01*
X0080388Y0085510D01*
X0080515Y0085363D01*
X0080644Y0085218D01*
X0080778Y0085077D01*
X0080914Y0084939D01*
X0081054Y0084805D01*
X0081198Y0084673D01*
X0081344Y0084546D01*
X0081493Y0084422D01*
X0081646Y0084301D01*
X0081801Y0084185D01*
X0081959Y0084072D01*
X0082120Y0083963D01*
X0082283Y0083858D01*
X0082449Y0083757D01*
X0082617Y0083660D01*
X0082787Y0083567D01*
X0082960Y0083478D01*
X0083135Y0083394D01*
X0083312Y0083313D01*
X0083491Y0083237D01*
X0083671Y0083166D01*
X0083853Y0083099D01*
X0084037Y0083036D01*
X0084222Y0082978D01*
X0084409Y0082924D01*
X0084597Y0082875D01*
X0084786Y0082830D01*
X0084976Y0082790D01*
X0085167Y0082755D01*
X0085358Y0082724D01*
X0085551Y0082698D01*
X0085744Y0082677D01*
X0085937Y0082660D01*
X0086131Y0082648D01*
X0086325Y0082641D01*
X0086519Y0082638D01*
X0086519Y0082656D01*
X0086325Y0082659D01*
X0086132Y0082666D01*
X0085938Y0082678D01*
X0085745Y0082695D01*
X0085553Y0082716D01*
X0085361Y0082742D01*
X0085170Y0082773D01*
X0084979Y0082808D01*
X0084790Y0082848D01*
X0084601Y0082892D01*
X0084414Y0082941D01*
X0084227Y0082995D01*
X0084043Y0083053D01*
X0083859Y0083116D01*
X0083677Y0083183D01*
X0083497Y0083254D01*
X0083319Y0083330D01*
X0083143Y0083410D01*
X0082968Y0083494D01*
X0082796Y0083583D01*
X0082626Y0083675D01*
X0082458Y0083772D01*
X0082292Y0083873D01*
X0082130Y0083978D01*
X0081969Y0084087D01*
X0081812Y0084199D01*
X0081657Y0084316D01*
X0081505Y0084436D01*
X0081356Y0084560D01*
X0081210Y0084687D01*
X0081067Y0084818D01*
X0080927Y0084952D01*
X0080791Y0085090D01*
X0080658Y0085231D01*
X0080528Y0085375D01*
X0080402Y0085522D01*
X0080280Y0085672D01*
X0080161Y0085825D01*
X0080046Y0085981D01*
X0079935Y0086140D01*
X0079950Y0086150D01*
X0080061Y0085992D01*
X0080176Y0085836D01*
X0080294Y0085683D01*
X0080416Y0085533D01*
X0080542Y0085387D01*
X0080671Y0085243D01*
X0080804Y0085102D01*
X0080940Y0084965D01*
X0081079Y0084831D01*
X0081222Y0084700D01*
X0081367Y0084573D01*
X0081516Y0084450D01*
X0081668Y0084330D01*
X0081822Y0084214D01*
X0081979Y0084101D01*
X0082139Y0083993D01*
X0082302Y0083888D01*
X0082467Y0083788D01*
X0082635Y0083691D01*
X0082804Y0083599D01*
X0082976Y0083510D01*
X0083150Y0083426D01*
X0083326Y0083346D01*
X0083504Y0083271D01*
X0083684Y0083200D01*
X0083865Y0083133D01*
X0084048Y0083070D01*
X0084233Y0083012D01*
X0084418Y0082959D01*
X0084605Y0082910D01*
X0084793Y0082865D01*
X0084983Y0082826D01*
X0085173Y0082790D01*
X0085364Y0082760D01*
X0085555Y0082734D01*
X0085747Y0082712D01*
X0085940Y0082696D01*
X0086133Y0082684D01*
X0086326Y0082677D01*
X0086519Y0082674D01*
X0086519Y0082692D01*
X0086326Y0082695D01*
X0086134Y0082702D01*
X0085941Y0082714D01*
X0085749Y0082730D01*
X0085557Y0082752D01*
X0085366Y0082778D01*
X0085176Y0082808D01*
X0084986Y0082843D01*
X0084797Y0082883D01*
X0084610Y0082927D01*
X0084423Y0082976D01*
X0084238Y0083030D01*
X0084054Y0083087D01*
X0083871Y0083150D01*
X0083690Y0083216D01*
X0083511Y0083287D01*
X0083334Y0083363D01*
X0083158Y0083443D01*
X0082984Y0083526D01*
X0082813Y0083615D01*
X0082643Y0083707D01*
X0082476Y0083803D01*
X0082312Y0083904D01*
X0082149Y0084008D01*
X0081990Y0084116D01*
X0081833Y0084228D01*
X0081679Y0084344D01*
X0081527Y0084464D01*
X0081379Y0084587D01*
X0081234Y0084714D01*
X0081091Y0084844D01*
X0080952Y0084978D01*
X0080817Y0085115D01*
X0080684Y0085255D01*
X0080555Y0085398D01*
X0080430Y0085545D01*
X0080308Y0085694D01*
X0080190Y0085847D01*
X0080076Y0086002D01*
X0079965Y0086160D01*
X0079980Y0086170D01*
X0080090Y0086013D01*
X0080204Y0085858D01*
X0080322Y0085706D01*
X0080444Y0085556D01*
X0080569Y0085410D01*
X0080697Y0085267D01*
X0080830Y0085127D01*
X0080965Y0084990D01*
X0081104Y0084857D01*
X0081246Y0084727D01*
X0081391Y0084601D01*
X0081539Y0084478D01*
X0081690Y0084358D01*
X0081843Y0084243D01*
X0082000Y0084131D01*
X0082159Y0084023D01*
X0082321Y0083919D01*
X0082485Y0083819D01*
X0082652Y0083723D01*
X0082821Y0083631D01*
X0082992Y0083543D01*
X0083166Y0083459D01*
X0083341Y0083379D01*
X0083518Y0083304D01*
X0083697Y0083233D01*
X0083877Y0083167D01*
X0084059Y0083104D01*
X0084243Y0083047D01*
X0084428Y0082993D01*
X0084614Y0082945D01*
X0084801Y0082901D01*
X0084990Y0082861D01*
X0085179Y0082826D01*
X0085369Y0082795D01*
X0085559Y0082770D01*
X0085751Y0082748D01*
X0085942Y0082732D01*
X0086134Y0082720D01*
X0086327Y0082713D01*
X0086519Y0082710D01*
X0084320Y0086053D02*
X0084398Y0086215D01*
X0084522Y0086157D01*
X0084648Y0086103D01*
X0084776Y0086052D01*
X0084904Y0086005D01*
X0085034Y0085961D01*
X0085166Y0085921D01*
X0085298Y0085885D01*
X0085431Y0085852D01*
X0085565Y0085824D01*
X0085700Y0085798D01*
X0085836Y0085777D01*
X0085972Y0085760D01*
X0086108Y0085746D01*
X0086245Y0085736D01*
X0086382Y0085730D01*
X0086519Y0085728D01*
X0086520Y0085549D01*
X0086519Y0085548D01*
X0086385Y0085550D01*
X0086251Y0085556D01*
X0086118Y0085565D01*
X0085985Y0085577D01*
X0085852Y0085593D01*
X0085719Y0085613D01*
X0085587Y0085636D01*
X0085456Y0085662D01*
X0085326Y0085692D01*
X0085196Y0085726D01*
X0085067Y0085762D01*
X0084940Y0085802D01*
X0084813Y0085846D01*
X0084688Y0085893D01*
X0084563Y0085943D01*
X0084441Y0085996D01*
X0084319Y0086053D01*
X0084327Y0086069D01*
X0084456Y0086009D01*
X0084586Y0085953D01*
X0084717Y0085901D01*
X0084851Y0085852D01*
X0084985Y0085807D01*
X0085121Y0085765D01*
X0085257Y0085728D01*
X0085395Y0085694D01*
X0085533Y0085665D01*
X0085673Y0085639D01*
X0085813Y0085617D01*
X0085953Y0085599D01*
X0086094Y0085585D01*
X0086236Y0085574D01*
X0086377Y0085568D01*
X0086519Y0085566D01*
X0086519Y0085584D01*
X0086378Y0085586D01*
X0086237Y0085592D01*
X0086096Y0085603D01*
X0085955Y0085617D01*
X0085815Y0085635D01*
X0085676Y0085657D01*
X0085537Y0085682D01*
X0085399Y0085712D01*
X0085262Y0085745D01*
X0085126Y0085783D01*
X0084990Y0085824D01*
X0084857Y0085869D01*
X0084724Y0085917D01*
X0084593Y0085970D01*
X0084463Y0086026D01*
X0084335Y0086085D01*
X0084343Y0086101D01*
X0084470Y0086042D01*
X0084600Y0085986D01*
X0084730Y0085934D01*
X0084863Y0085886D01*
X0084996Y0085841D01*
X0085131Y0085800D01*
X0085266Y0085763D01*
X0085403Y0085730D01*
X0085541Y0085700D01*
X0085679Y0085674D01*
X0085818Y0085652D01*
X0085957Y0085635D01*
X0086097Y0085621D01*
X0086238Y0085610D01*
X0086378Y0085604D01*
X0086519Y0085602D01*
X0086519Y0085620D01*
X0086379Y0085622D01*
X0086239Y0085628D01*
X0086099Y0085638D01*
X0085959Y0085652D01*
X0085820Y0085670D01*
X0085682Y0085692D01*
X0085544Y0085718D01*
X0085407Y0085747D01*
X0085271Y0085780D01*
X0085136Y0085817D01*
X0085001Y0085858D01*
X0084868Y0085903D01*
X0084737Y0085951D01*
X0084607Y0086003D01*
X0084478Y0086058D01*
X0084351Y0086117D01*
X0084359Y0086134D01*
X0084485Y0086075D01*
X0084614Y0086019D01*
X0084743Y0085968D01*
X0084874Y0085920D01*
X0085007Y0085875D01*
X0085141Y0085835D01*
X0085275Y0085798D01*
X0085411Y0085765D01*
X0085548Y0085735D01*
X0085685Y0085710D01*
X0085823Y0085688D01*
X0085962Y0085670D01*
X0086101Y0085656D01*
X0086240Y0085646D01*
X0086379Y0085640D01*
X0086519Y0085638D01*
X0086519Y0085656D01*
X0086380Y0085658D01*
X0086241Y0085664D01*
X0086102Y0085674D01*
X0085964Y0085688D01*
X0085825Y0085706D01*
X0085688Y0085728D01*
X0085551Y0085753D01*
X0085415Y0085782D01*
X0085280Y0085815D01*
X0085146Y0085852D01*
X0085012Y0085892D01*
X0084880Y0085937D01*
X0084750Y0085985D01*
X0084620Y0086036D01*
X0084493Y0086091D01*
X0084366Y0086150D01*
X0084374Y0086166D01*
X0084500Y0086108D01*
X0084627Y0086053D01*
X0084756Y0086001D01*
X0084886Y0085954D01*
X0085018Y0085910D01*
X0085151Y0085869D01*
X0085284Y0085833D01*
X0085419Y0085800D01*
X0085555Y0085771D01*
X0085691Y0085745D01*
X0085828Y0085724D01*
X0085966Y0085706D01*
X0086104Y0085692D01*
X0086242Y0085682D01*
X0086380Y0085676D01*
X0086519Y0085674D01*
X0086519Y0085692D01*
X0086381Y0085694D01*
X0086243Y0085700D01*
X0086105Y0085710D01*
X0085968Y0085724D01*
X0085831Y0085742D01*
X0085694Y0085763D01*
X0085558Y0085788D01*
X0085423Y0085817D01*
X0085289Y0085850D01*
X0085156Y0085887D01*
X0085023Y0085927D01*
X0084892Y0085971D01*
X0084763Y0086018D01*
X0084634Y0086069D01*
X0084507Y0086124D01*
X0084382Y0086182D01*
X0084390Y0086198D01*
X0084515Y0086140D01*
X0084641Y0086086D01*
X0084769Y0086035D01*
X0084898Y0085988D01*
X0085029Y0085944D01*
X0085161Y0085904D01*
X0085293Y0085867D01*
X0085427Y0085835D01*
X0085562Y0085806D01*
X0085697Y0085781D01*
X0085833Y0085759D01*
X0085970Y0085742D01*
X0086107Y0085728D01*
X0086244Y0085718D01*
X0086381Y0085712D01*
X0086519Y0085710D01*
X0086520Y0095727D02*
X0086520Y0095547D01*
X0086519Y0095548D02*
X0086382Y0095546D01*
X0086245Y0095540D01*
X0086108Y0095530D01*
X0085972Y0095516D01*
X0085836Y0095499D01*
X0085700Y0095478D01*
X0085565Y0095452D01*
X0085431Y0095424D01*
X0085298Y0095391D01*
X0085166Y0095355D01*
X0085034Y0095315D01*
X0084904Y0095271D01*
X0084776Y0095224D01*
X0084648Y0095173D01*
X0084522Y0095119D01*
X0084398Y0095061D01*
X0084320Y0095223D01*
X0084319Y0095223D01*
X0084441Y0095280D01*
X0084563Y0095333D01*
X0084688Y0095383D01*
X0084813Y0095430D01*
X0084940Y0095474D01*
X0085067Y0095514D01*
X0085196Y0095550D01*
X0085326Y0095584D01*
X0085456Y0095614D01*
X0085587Y0095640D01*
X0085719Y0095663D01*
X0085852Y0095683D01*
X0085985Y0095699D01*
X0086118Y0095711D01*
X0086251Y0095720D01*
X0086385Y0095726D01*
X0086519Y0095728D01*
X0086519Y0095710D01*
X0086377Y0095708D01*
X0086236Y0095702D01*
X0086094Y0095691D01*
X0085953Y0095677D01*
X0085813Y0095659D01*
X0085673Y0095637D01*
X0085533Y0095611D01*
X0085395Y0095582D01*
X0085257Y0095548D01*
X0085121Y0095511D01*
X0084985Y0095469D01*
X0084851Y0095424D01*
X0084717Y0095375D01*
X0084586Y0095323D01*
X0084456Y0095267D01*
X0084327Y0095207D01*
X0084335Y0095191D01*
X0084463Y0095250D01*
X0084593Y0095306D01*
X0084724Y0095359D01*
X0084857Y0095407D01*
X0084990Y0095452D01*
X0085126Y0095493D01*
X0085262Y0095531D01*
X0085399Y0095564D01*
X0085537Y0095594D01*
X0085676Y0095619D01*
X0085815Y0095641D01*
X0085955Y0095659D01*
X0086096Y0095673D01*
X0086237Y0095684D01*
X0086378Y0095690D01*
X0086519Y0095692D01*
X0086519Y0095674D01*
X0086378Y0095672D01*
X0086238Y0095666D01*
X0086097Y0095655D01*
X0085957Y0095641D01*
X0085818Y0095624D01*
X0085679Y0095602D01*
X0085541Y0095576D01*
X0085403Y0095546D01*
X0085266Y0095513D01*
X0085131Y0095476D01*
X0084996Y0095435D01*
X0084863Y0095390D01*
X0084730Y0095342D01*
X0084600Y0095290D01*
X0084470Y0095234D01*
X0084343Y0095175D01*
X0084351Y0095159D01*
X0084478Y0095218D01*
X0084607Y0095273D01*
X0084737Y0095325D01*
X0084868Y0095373D01*
X0085001Y0095418D01*
X0085136Y0095459D01*
X0085271Y0095496D01*
X0085407Y0095529D01*
X0085544Y0095558D01*
X0085682Y0095584D01*
X0085820Y0095606D01*
X0085959Y0095624D01*
X0086099Y0095638D01*
X0086239Y0095648D01*
X0086379Y0095654D01*
X0086519Y0095656D01*
X0086519Y0095638D01*
X0086379Y0095636D01*
X0086240Y0095630D01*
X0086101Y0095620D01*
X0085962Y0095606D01*
X0085823Y0095588D01*
X0085685Y0095566D01*
X0085548Y0095541D01*
X0085411Y0095511D01*
X0085275Y0095478D01*
X0085141Y0095441D01*
X0085007Y0095401D01*
X0084874Y0095356D01*
X0084743Y0095308D01*
X0084614Y0095257D01*
X0084485Y0095201D01*
X0084359Y0095142D01*
X0084366Y0095126D01*
X0084493Y0095185D01*
X0084620Y0095240D01*
X0084750Y0095291D01*
X0084880Y0095339D01*
X0085012Y0095384D01*
X0085146Y0095424D01*
X0085280Y0095461D01*
X0085415Y0095494D01*
X0085551Y0095523D01*
X0085688Y0095548D01*
X0085825Y0095570D01*
X0085964Y0095588D01*
X0086102Y0095602D01*
X0086241Y0095612D01*
X0086380Y0095618D01*
X0086519Y0095620D01*
X0086519Y0095602D01*
X0086380Y0095600D01*
X0086242Y0095594D01*
X0086104Y0095584D01*
X0085966Y0095570D01*
X0085828Y0095552D01*
X0085691Y0095531D01*
X0085555Y0095505D01*
X0085419Y0095476D01*
X0085284Y0095443D01*
X0085151Y0095407D01*
X0085018Y0095366D01*
X0084886Y0095322D01*
X0084756Y0095275D01*
X0084627Y0095223D01*
X0084500Y0095168D01*
X0084374Y0095110D01*
X0084382Y0095094D01*
X0084507Y0095152D01*
X0084634Y0095207D01*
X0084763Y0095258D01*
X0084892Y0095305D01*
X0085023Y0095349D01*
X0085156Y0095389D01*
X0085289Y0095426D01*
X0085423Y0095459D01*
X0085558Y0095488D01*
X0085694Y0095513D01*
X0085831Y0095534D01*
X0085968Y0095552D01*
X0086105Y0095566D01*
X0086243Y0095576D01*
X0086381Y0095582D01*
X0086519Y0095584D01*
X0086519Y0095566D01*
X0086381Y0095564D01*
X0086244Y0095558D01*
X0086107Y0095548D01*
X0085970Y0095534D01*
X0085833Y0095517D01*
X0085697Y0095495D01*
X0085562Y0095470D01*
X0085427Y0095441D01*
X0085293Y0095409D01*
X0085161Y0095372D01*
X0085029Y0095332D01*
X0084898Y0095288D01*
X0084769Y0095241D01*
X0084641Y0095190D01*
X0084515Y0095136D01*
X0084390Y0095078D01*
D14*
X0077530Y0095138D02*
X0077530Y0099138D01*
X0077532Y0099198D01*
X0077537Y0099259D01*
X0077546Y0099318D01*
X0077559Y0099377D01*
X0077575Y0099436D01*
X0077595Y0099493D01*
X0077618Y0099548D01*
X0077645Y0099603D01*
X0077674Y0099655D01*
X0077707Y0099706D01*
X0077743Y0099755D01*
X0077781Y0099801D01*
X0077823Y0099845D01*
X0077867Y0099887D01*
X0077913Y0099925D01*
X0077962Y0099961D01*
X0078013Y0099994D01*
X0078065Y0100023D01*
X0078120Y0100050D01*
X0078175Y0100073D01*
X0078232Y0100093D01*
X0078291Y0100109D01*
X0078350Y0100122D01*
X0078409Y0100131D01*
X0078470Y0100136D01*
X0078530Y0100138D01*
X0121530Y0100138D01*
X0121590Y0100136D01*
X0121651Y0100131D01*
X0121710Y0100122D01*
X0121769Y0100109D01*
X0121828Y0100093D01*
X0121885Y0100073D01*
X0121940Y0100050D01*
X0121995Y0100023D01*
X0122047Y0099994D01*
X0122098Y0099961D01*
X0122147Y0099925D01*
X0122193Y0099887D01*
X0122237Y0099845D01*
X0122279Y0099801D01*
X0122317Y0099755D01*
X0122353Y0099706D01*
X0122386Y0099655D01*
X0122415Y0099603D01*
X0122442Y0099548D01*
X0122465Y0099493D01*
X0122485Y0099436D01*
X0122501Y0099377D01*
X0122514Y0099318D01*
X0122523Y0099259D01*
X0122528Y0099198D01*
X0122530Y0099138D01*
X0122530Y0095138D01*
X0122530Y0086138D02*
X0122530Y0082138D01*
X0122528Y0082078D01*
X0122523Y0082017D01*
X0122514Y0081958D01*
X0122501Y0081899D01*
X0122485Y0081840D01*
X0122465Y0081783D01*
X0122442Y0081728D01*
X0122415Y0081673D01*
X0122386Y0081621D01*
X0122353Y0081570D01*
X0122317Y0081521D01*
X0122279Y0081475D01*
X0122237Y0081431D01*
X0122193Y0081389D01*
X0122147Y0081351D01*
X0122098Y0081315D01*
X0122047Y0081282D01*
X0121995Y0081253D01*
X0121940Y0081226D01*
X0121885Y0081203D01*
X0121828Y0081183D01*
X0121769Y0081167D01*
X0121710Y0081154D01*
X0121651Y0081145D01*
X0121590Y0081140D01*
X0121530Y0081138D01*
X0078530Y0081138D01*
X0078470Y0081140D01*
X0078409Y0081145D01*
X0078350Y0081154D01*
X0078291Y0081167D01*
X0078232Y0081183D01*
X0078175Y0081203D01*
X0078120Y0081226D01*
X0078065Y0081253D01*
X0078013Y0081282D01*
X0077962Y0081315D01*
X0077913Y0081351D01*
X0077867Y0081389D01*
X0077823Y0081431D01*
X0077781Y0081475D01*
X0077743Y0081521D01*
X0077707Y0081570D01*
X0077674Y0081621D01*
X0077645Y0081673D01*
X0077618Y0081728D01*
X0077595Y0081783D01*
X0077575Y0081840D01*
X0077559Y0081899D01*
X0077546Y0081958D01*
X0077537Y0082017D01*
X0077532Y0082078D01*
X0077530Y0082138D01*
X0077530Y0086138D01*
X0097530Y0088138D02*
X0097530Y0090638D01*
X0097530Y0093138D01*
X0099030Y0093138D02*
X0099030Y0088138D01*
X0101030Y0088138D01*
X0101030Y0093138D01*
X0099030Y0093138D01*
X0102530Y0093138D02*
X0102530Y0090638D01*
X0102530Y0088138D01*
X0109301Y0114575D02*
X0094301Y0114575D01*
X0091801Y0117075D01*
X0091801Y0122075D01*
X0094301Y0124575D01*
X0109301Y0124575D01*
X0111801Y0127075D01*
X0111801Y0132075D01*
X0109301Y0134575D01*
X0094301Y0134575D01*
X0091801Y0137075D01*
X0091801Y0142075D01*
X0094301Y0144575D01*
X0109301Y0144575D01*
X0111801Y0147075D01*
X0111801Y0152075D01*
X0109301Y0154575D01*
X0094301Y0154575D01*
X0091801Y0157075D01*
X0091801Y0162075D01*
X0094301Y0164575D01*
X0109301Y0164575D01*
X0111801Y0167075D01*
X0111801Y0172075D01*
X0109301Y0174575D01*
X0094301Y0174575D01*
X0091801Y0177075D01*
X0091801Y0182075D01*
X0094301Y0184575D01*
X0091801Y0187075D01*
X0091801Y0192075D01*
X0094301Y0194575D01*
X0109301Y0194575D01*
X0111801Y0192075D01*
X0111801Y0187075D01*
X0109301Y0184575D01*
X0094301Y0184575D01*
X0094301Y0174575D02*
X0091801Y0172075D01*
X0091801Y0167075D01*
X0094301Y0164575D01*
X0094301Y0154575D02*
X0091801Y0152075D01*
X0091801Y0147075D01*
X0094301Y0144575D01*
X0094301Y0134575D02*
X0091801Y0132075D01*
X0091801Y0127075D01*
X0094301Y0124575D01*
X0085012Y0127437D02*
X0066485Y0145964D01*
X0064509Y0145964D01*
X0045982Y0127437D01*
X0065497Y0107922D01*
X0085012Y0127437D01*
X0064083Y0142711D02*
X0064085Y0142786D01*
X0064091Y0142860D01*
X0064101Y0142934D01*
X0064114Y0143007D01*
X0064132Y0143080D01*
X0064153Y0143151D01*
X0064178Y0143222D01*
X0064207Y0143291D01*
X0064240Y0143358D01*
X0064276Y0143423D01*
X0064315Y0143487D01*
X0064357Y0143548D01*
X0064403Y0143607D01*
X0064452Y0143664D01*
X0064504Y0143717D01*
X0064558Y0143768D01*
X0064615Y0143817D01*
X0064675Y0143861D01*
X0064737Y0143903D01*
X0064801Y0143942D01*
X0064867Y0143977D01*
X0064934Y0144008D01*
X0065004Y0144036D01*
X0065074Y0144060D01*
X0065146Y0144081D01*
X0065219Y0144097D01*
X0065292Y0144110D01*
X0065367Y0144119D01*
X0065441Y0144124D01*
X0065516Y0144125D01*
X0065590Y0144122D01*
X0065665Y0144115D01*
X0065738Y0144104D01*
X0065812Y0144090D01*
X0065884Y0144071D01*
X0065955Y0144049D01*
X0066025Y0144023D01*
X0066094Y0143993D01*
X0066160Y0143960D01*
X0066225Y0143923D01*
X0066288Y0143883D01*
X0066349Y0143839D01*
X0066407Y0143793D01*
X0066463Y0143743D01*
X0066516Y0143691D01*
X0066567Y0143636D01*
X0066614Y0143578D01*
X0066658Y0143518D01*
X0066699Y0143455D01*
X0066737Y0143391D01*
X0066771Y0143325D01*
X0066802Y0143256D01*
X0066829Y0143187D01*
X0066852Y0143116D01*
X0066871Y0143044D01*
X0066887Y0142971D01*
X0066899Y0142897D01*
X0066907Y0142823D01*
X0066911Y0142748D01*
X0066911Y0142674D01*
X0066907Y0142599D01*
X0066899Y0142525D01*
X0066887Y0142451D01*
X0066871Y0142378D01*
X0066852Y0142306D01*
X0066829Y0142235D01*
X0066802Y0142166D01*
X0066771Y0142097D01*
X0066737Y0142031D01*
X0066699Y0141967D01*
X0066658Y0141904D01*
X0066614Y0141844D01*
X0066567Y0141786D01*
X0066516Y0141731D01*
X0066463Y0141679D01*
X0066407Y0141629D01*
X0066349Y0141583D01*
X0066288Y0141539D01*
X0066225Y0141499D01*
X0066160Y0141462D01*
X0066094Y0141429D01*
X0066025Y0141399D01*
X0065955Y0141373D01*
X0065884Y0141351D01*
X0065812Y0141332D01*
X0065738Y0141318D01*
X0065665Y0141307D01*
X0065590Y0141300D01*
X0065516Y0141297D01*
X0065441Y0141298D01*
X0065367Y0141303D01*
X0065292Y0141312D01*
X0065219Y0141325D01*
X0065146Y0141341D01*
X0065074Y0141362D01*
X0065004Y0141386D01*
X0064934Y0141414D01*
X0064867Y0141445D01*
X0064801Y0141480D01*
X0064737Y0141519D01*
X0064675Y0141561D01*
X0064615Y0141605D01*
X0064558Y0141654D01*
X0064504Y0141705D01*
X0064452Y0141758D01*
X0064403Y0141815D01*
X0064357Y0141874D01*
X0064315Y0141935D01*
X0064276Y0141999D01*
X0064240Y0142064D01*
X0064207Y0142131D01*
X0064178Y0142200D01*
X0064153Y0142271D01*
X0064132Y0142342D01*
X0064114Y0142415D01*
X0064101Y0142488D01*
X0064091Y0142562D01*
X0064085Y0142636D01*
X0064083Y0142711D01*
X0109301Y0144575D02*
X0111801Y0142075D01*
X0111801Y0137075D01*
X0109301Y0134575D01*
X0109301Y0124575D02*
X0111801Y0122075D01*
X0111801Y0117075D01*
X0109301Y0114575D01*
X0109301Y0154575D02*
X0111801Y0157075D01*
X0111801Y0162075D01*
X0109301Y0164575D01*
X0109301Y0174575D02*
X0111801Y0177075D01*
X0111801Y0182075D01*
X0109301Y0184575D01*
X0192549Y0125461D02*
X0192549Y0120461D01*
X0195049Y0117961D01*
X0192549Y0115461D01*
X0192549Y0110461D01*
X0195049Y0107961D01*
X0200049Y0107961D01*
X0202549Y0110461D01*
X0202549Y0115461D01*
X0200049Y0117961D01*
X0195049Y0117961D01*
X0200049Y0117961D02*
X0202549Y0120461D01*
X0202549Y0125461D01*
X0200049Y0127961D01*
X0195049Y0127961D01*
X0192549Y0125461D01*
X0201900Y0137094D02*
X0211900Y0137094D01*
X0211900Y0147094D01*
X0211900Y0157094D01*
X0201900Y0157094D01*
X0201900Y0147094D01*
X0201900Y0137094D01*
X0201900Y0147094D02*
X0211900Y0147094D01*
X0200049Y0107961D02*
X0202549Y0105461D01*
X0202549Y0100461D01*
X0200049Y0097961D01*
X0202549Y0095461D01*
X0202549Y0090461D01*
X0200049Y0087961D01*
X0202549Y0085461D01*
X0202549Y0080461D01*
X0200049Y0077961D01*
X0195049Y0077961D01*
X0192549Y0080461D01*
X0192549Y0085461D01*
X0195049Y0087961D01*
X0192549Y0090461D01*
X0192549Y0095461D01*
X0195049Y0097961D01*
X0192549Y0100461D01*
X0192549Y0105461D01*
X0195049Y0107961D01*
X0195049Y0097961D02*
X0200049Y0097961D01*
X0200049Y0087961D02*
X0195049Y0087961D01*
X0195049Y0077961D02*
X0192549Y0075461D01*
X0192549Y0070461D01*
X0195049Y0067961D01*
X0192549Y0065461D01*
X0192549Y0060461D01*
X0195049Y0057961D01*
X0200049Y0057961D01*
X0202549Y0060461D01*
X0202549Y0065461D01*
X0200049Y0067961D01*
X0195049Y0067961D01*
X0200049Y0067961D02*
X0202549Y0070461D01*
X0202549Y0075461D01*
X0200049Y0077961D01*
X0187793Y0048551D02*
X0187423Y0048551D01*
X0187793Y0048551D02*
X0187793Y0042173D01*
X0187423Y0042173D01*
X0184250Y0042173D02*
X0180140Y0042173D01*
X0176967Y0042173D02*
X0176596Y0042173D01*
X0176596Y0048551D01*
X0176967Y0048551D01*
X0180140Y0048551D02*
X0180510Y0048551D01*
X0183880Y0048551D02*
X0184250Y0048551D01*
X0170696Y0042362D02*
X0170262Y0042796D01*
X0169394Y0042796D01*
X0168961Y0042362D01*
X0168961Y0040627D01*
X0169394Y0040194D01*
X0170262Y0040194D01*
X0170696Y0040627D01*
X0167749Y0040627D02*
X0167749Y0041061D01*
X0167315Y0041495D01*
X0166014Y0041495D01*
X0166014Y0040627D01*
X0166448Y0040194D01*
X0167315Y0040194D01*
X0167749Y0040627D01*
X0166882Y0042362D02*
X0166014Y0041495D01*
X0164802Y0041495D02*
X0164369Y0041929D01*
X0163935Y0041929D01*
X0163068Y0041495D01*
X0163068Y0042796D01*
X0164802Y0042796D01*
X0164802Y0041495D02*
X0164802Y0040627D01*
X0164369Y0040194D01*
X0163501Y0040194D01*
X0163068Y0040627D01*
X0161856Y0040194D02*
X0160121Y0040194D01*
X0161856Y0041929D01*
X0161856Y0042362D01*
X0161422Y0042796D01*
X0160555Y0042796D01*
X0160121Y0042362D01*
X0158909Y0042362D02*
X0158476Y0042796D01*
X0157608Y0042796D01*
X0157175Y0042362D01*
X0157175Y0040627D01*
X0157608Y0040194D01*
X0158476Y0040194D01*
X0158909Y0040627D01*
X0155963Y0041495D02*
X0154228Y0041495D01*
X0155529Y0042796D01*
X0155529Y0040194D01*
X0153016Y0040194D02*
X0151282Y0040194D01*
X0153016Y0041929D01*
X0153016Y0042362D01*
X0152583Y0042796D01*
X0151715Y0042796D01*
X0151282Y0042362D01*
X0150070Y0042796D02*
X0148335Y0042796D01*
X0149202Y0042796D02*
X0149202Y0040194D01*
X0147123Y0040194D02*
X0147123Y0041929D01*
X0146256Y0042796D01*
X0145389Y0041929D01*
X0145389Y0040194D01*
X0145389Y0041495D02*
X0147123Y0041495D01*
X0166882Y0042362D02*
X0167749Y0042796D01*
D15*
X0113530Y0082638D02*
X0086530Y0082638D01*
X0086530Y0085638D02*
X0113530Y0085638D01*
X0104030Y0090638D02*
X0102530Y0090638D01*
X0097530Y0090638D02*
X0096030Y0090638D01*
X0086530Y0095638D02*
X0113530Y0095638D01*
X0113530Y0098638D02*
X0086530Y0098638D01*
D16*
X0103276Y0050864D02*
X0102509Y0050097D01*
X0102509Y0048563D01*
X0103276Y0047795D01*
X0103276Y0046261D02*
X0104044Y0046261D01*
X0104811Y0045493D01*
X0105578Y0046261D01*
X0106346Y0046261D01*
X0107113Y0045493D01*
X0107113Y0043959D01*
X0106346Y0043191D01*
X0104811Y0041657D02*
X0104811Y0038587D01*
X0102509Y0040889D01*
X0107113Y0040889D01*
X0108094Y0040226D02*
X0108861Y0040993D01*
X0110396Y0040993D01*
X0111163Y0040226D01*
X0111163Y0039458D01*
X0108094Y0036389D01*
X0111163Y0036389D01*
X0112698Y0036389D02*
X0112698Y0037156D01*
X0115767Y0040226D01*
X0115767Y0040993D01*
X0112698Y0040993D01*
X0117302Y0040226D02*
X0117302Y0039458D01*
X0118069Y0038691D01*
X0119604Y0038691D01*
X0120371Y0037924D01*
X0120371Y0037156D01*
X0119604Y0036389D01*
X0118069Y0036389D01*
X0117302Y0037156D01*
X0117302Y0037924D01*
X0118069Y0038691D01*
X0119604Y0038691D02*
X0120371Y0039458D01*
X0120371Y0040226D01*
X0119604Y0040993D01*
X0118069Y0040993D01*
X0117302Y0040226D01*
X0121906Y0040993D02*
X0121906Y0036389D01*
X0121906Y0038691D02*
X0123440Y0038691D01*
X0121906Y0040993D02*
X0124975Y0040993D01*
X0107113Y0036285D02*
X0102509Y0036285D01*
X0104811Y0033983D01*
X0104811Y0037053D01*
X0105025Y0036389D02*
X0105025Y0040993D01*
X0103490Y0039458D01*
X0101955Y0040993D02*
X0098886Y0040993D01*
X0098886Y0036389D01*
X0097352Y0036389D02*
X0095817Y0037924D01*
X0096584Y0037924D02*
X0094282Y0037924D01*
X0093276Y0038587D02*
X0096346Y0035518D01*
X0097113Y0035518D01*
X0096346Y0033983D02*
X0095578Y0033983D01*
X0094811Y0033216D01*
X0094811Y0031681D01*
X0094044Y0030914D01*
X0093276Y0030914D01*
X0092509Y0031681D01*
X0092509Y0033216D01*
X0093276Y0033983D01*
X0092509Y0035518D02*
X0092509Y0038587D01*
X0093276Y0038587D01*
X0092748Y0037156D02*
X0092748Y0040226D01*
X0091980Y0040993D01*
X0089678Y0040993D01*
X0089678Y0036389D01*
X0091980Y0036389D01*
X0092748Y0037156D01*
X0094282Y0036389D02*
X0094282Y0040993D01*
X0096584Y0040993D01*
X0097352Y0040226D01*
X0097352Y0038691D01*
X0096584Y0037924D01*
X0098886Y0038691D02*
X0100421Y0038691D01*
X0103490Y0036389D02*
X0106559Y0036389D01*
X0107113Y0032449D02*
X0107113Y0030914D01*
X0107113Y0031681D02*
X0102509Y0031681D01*
X0102509Y0030914D02*
X0102509Y0032449D01*
X0103276Y0029380D02*
X0102509Y0028612D01*
X0102509Y0027078D01*
X0103276Y0026310D01*
X0104044Y0026310D01*
X0104811Y0027078D01*
X0104811Y0028612D01*
X0105578Y0029380D01*
X0106346Y0029380D01*
X0107113Y0028612D01*
X0107113Y0027078D01*
X0106346Y0026310D01*
X0097113Y0027078D02*
X0097113Y0028612D01*
X0096346Y0029380D01*
X0092509Y0029380D01*
X0092509Y0026310D02*
X0096346Y0026310D01*
X0097113Y0027078D01*
X0096346Y0030914D02*
X0097113Y0031681D01*
X0097113Y0033216D01*
X0096346Y0033983D01*
X0097880Y0032449D02*
X0091742Y0032449D01*
X0102509Y0043959D02*
X0103276Y0043191D01*
X0102509Y0043959D02*
X0102509Y0045493D01*
X0103276Y0046261D01*
X0104811Y0045493D02*
X0104811Y0044726D01*
X0107113Y0047795D02*
X0104044Y0050864D01*
X0103276Y0050864D01*
X0107113Y0050864D02*
X0107113Y0047795D01*
X0150869Y0009221D02*
X0153171Y0009221D01*
X0153938Y0008454D01*
X0153938Y0007687D01*
X0153171Y0006919D01*
X0150869Y0006919D01*
X0149334Y0006919D02*
X0146265Y0006919D01*
X0150869Y0004617D02*
X0153171Y0004617D01*
X0153938Y0005385D01*
X0153938Y0006152D01*
X0153171Y0006919D01*
X0155473Y0006919D02*
X0158542Y0006919D01*
X0158542Y0007687D02*
X0158542Y0004617D01*
X0161611Y0004617D02*
X0161611Y0009221D01*
X0160077Y0009221D02*
X0163146Y0009221D01*
X0164681Y0006919D02*
X0167750Y0006919D01*
X0166215Y0008454D02*
X0166215Y0005385D01*
X0158542Y0007687D02*
X0157007Y0009221D01*
X0155473Y0007687D01*
X0155473Y0004617D01*
X0150869Y0004617D02*
X0150869Y0009221D01*
X0193730Y0014733D02*
X0198333Y0014733D01*
X0198333Y0017802D01*
X0198333Y0019337D02*
X0198333Y0022406D01*
X0198333Y0023941D02*
X0198333Y0026243D01*
X0197566Y0027010D01*
X0194497Y0027010D01*
X0193730Y0026243D01*
X0193730Y0023941D01*
X0198333Y0023941D01*
X0196032Y0020872D02*
X0196032Y0019337D01*
X0198333Y0019337D02*
X0193730Y0019337D01*
X0193730Y0022406D01*
X0196032Y0028545D02*
X0196032Y0031614D01*
X0185712Y0043681D02*
X0184778Y0043681D01*
X0184311Y0044148D01*
X0183304Y0044148D02*
X0183304Y0043681D01*
X0182837Y0043681D01*
X0182837Y0044148D01*
X0183304Y0044148D01*
X0181759Y0044148D02*
X0181292Y0043681D01*
X0180358Y0043681D01*
X0179891Y0044148D01*
X0178813Y0044615D02*
X0177878Y0043681D01*
X0176944Y0044615D01*
X0176944Y0046483D01*
X0178813Y0046483D02*
X0178813Y0044615D01*
X0179891Y0046016D02*
X0180358Y0046483D01*
X0181292Y0046483D01*
X0181759Y0046016D01*
X0181759Y0045549D01*
X0181292Y0045082D01*
X0181759Y0044615D01*
X0181759Y0044148D01*
X0181292Y0045082D02*
X0180825Y0045082D01*
X0184311Y0046016D02*
X0184778Y0046483D01*
X0185712Y0046483D01*
X0186179Y0046016D01*
X0186179Y0045549D01*
X0185712Y0045082D01*
X0186179Y0044615D01*
X0186179Y0044148D01*
X0185712Y0043681D01*
X0185712Y0045082D02*
X0185245Y0045082D01*
X0196032Y0013198D02*
X0196032Y0010129D01*
X0194497Y0011664D02*
X0197566Y0011664D01*
D17*
X0048219Y0036898D02*
X0048219Y0045362D01*
X0045856Y0045362D01*
X0039163Y0045362D02*
X0036801Y0045362D01*
X0036801Y0036898D01*
X0035502Y0098236D02*
X0028415Y0098236D01*
X0035502Y0098236D02*
X0035502Y0107291D01*
X0018967Y0098236D02*
X0016211Y0098236D01*
X0035502Y0121465D02*
X0035502Y0130520D01*
X0028415Y0130520D01*
X0018967Y0130520D02*
X0016211Y0130520D01*
D18*
X0148061Y0048433D02*
X0148061Y0033472D01*
X0148910Y0037453D02*
X0148912Y0037516D01*
X0148918Y0037578D01*
X0148928Y0037640D01*
X0148941Y0037702D01*
X0148959Y0037762D01*
X0148980Y0037821D01*
X0149005Y0037879D01*
X0149034Y0037935D01*
X0149066Y0037989D01*
X0149101Y0038041D01*
X0149139Y0038090D01*
X0149181Y0038138D01*
X0149225Y0038182D01*
X0149273Y0038224D01*
X0149322Y0038262D01*
X0149374Y0038297D01*
X0149428Y0038329D01*
X0149484Y0038358D01*
X0149542Y0038383D01*
X0149601Y0038404D01*
X0149661Y0038422D01*
X0149723Y0038435D01*
X0149785Y0038445D01*
X0149847Y0038451D01*
X0149910Y0038453D01*
X0149973Y0038451D01*
X0150035Y0038445D01*
X0150097Y0038435D01*
X0150159Y0038422D01*
X0150219Y0038404D01*
X0150278Y0038383D01*
X0150336Y0038358D01*
X0150392Y0038329D01*
X0150446Y0038297D01*
X0150498Y0038262D01*
X0150547Y0038224D01*
X0150595Y0038182D01*
X0150639Y0038138D01*
X0150681Y0038090D01*
X0150719Y0038041D01*
X0150754Y0037989D01*
X0150786Y0037935D01*
X0150815Y0037879D01*
X0150840Y0037821D01*
X0150861Y0037762D01*
X0150879Y0037702D01*
X0150892Y0037640D01*
X0150902Y0037578D01*
X0150908Y0037516D01*
X0150910Y0037453D01*
X0150908Y0037390D01*
X0150902Y0037328D01*
X0150892Y0037266D01*
X0150879Y0037204D01*
X0150861Y0037144D01*
X0150840Y0037085D01*
X0150815Y0037027D01*
X0150786Y0036971D01*
X0150754Y0036917D01*
X0150719Y0036865D01*
X0150681Y0036816D01*
X0150639Y0036768D01*
X0150595Y0036724D01*
X0150547Y0036682D01*
X0150498Y0036644D01*
X0150446Y0036609D01*
X0150392Y0036577D01*
X0150336Y0036548D01*
X0150278Y0036523D01*
X0150219Y0036502D01*
X0150159Y0036484D01*
X0150097Y0036471D01*
X0150035Y0036461D01*
X0149973Y0036455D01*
X0149910Y0036453D01*
X0149847Y0036455D01*
X0149785Y0036461D01*
X0149723Y0036471D01*
X0149661Y0036484D01*
X0149601Y0036502D01*
X0149542Y0036523D01*
X0149484Y0036548D01*
X0149428Y0036577D01*
X0149374Y0036609D01*
X0149322Y0036644D01*
X0149273Y0036682D01*
X0149225Y0036724D01*
X0149181Y0036768D01*
X0149139Y0036816D01*
X0149101Y0036865D01*
X0149066Y0036917D01*
X0149034Y0036971D01*
X0149005Y0037027D01*
X0148980Y0037085D01*
X0148959Y0037144D01*
X0148941Y0037204D01*
X0148928Y0037266D01*
X0148918Y0037328D01*
X0148912Y0037390D01*
X0148910Y0037453D01*
X0166959Y0033472D02*
X0166959Y0048433D01*
D19*
X0214400Y0142094D02*
X0236900Y0142094D01*
X0236900Y0152094D02*
X0214400Y0152094D01*
D20*
X0212900Y0152094D03*
X0212900Y0142094D03*
D21*
X0199900Y0142094D03*
X0199900Y0152094D03*
M02*
