G75*
%MOIN*%
%OFA0B0*%
%FSLAX25Y25*%
%IPPOS*%
%LPD*%
%AMOC8*
5,1,8,0,0,1.08239X$1,22.5*
%
%ADD10C,0.00000*%
%ADD11C,0.04362*%
%ADD12C,0.07087*%
%ADD13R,0.16000X0.06000*%
%ADD14R,0.06000X0.06000*%
%ADD15OC8,0.06000*%
%ADD16C,0.05600*%
%ADD17C,0.08600*%
%ADD18C,0.06000*%
%ADD19R,0.03937X0.07874*%
%ADD20R,0.07087X0.03937*%
%ADD21R,0.04724X0.04724*%
%ADD22C,0.01500*%
%ADD23C,0.00200*%
%ADD24C,0.01000*%
%ADD25C,0.02400*%
D10*
X0011250Y0006926D02*
X0011250Y0094284D01*
X0011252Y0094353D01*
X0011258Y0094422D01*
X0011267Y0094491D01*
X0011281Y0094559D01*
X0011298Y0094626D01*
X0011319Y0094692D01*
X0011344Y0094757D01*
X0011372Y0094820D01*
X0011404Y0094882D01*
X0011439Y0094942D01*
X0011478Y0094999D01*
X0011520Y0095055D01*
X0011564Y0095108D01*
X0011612Y0095158D01*
X0011662Y0095206D01*
X0011715Y0095250D01*
X0011771Y0095292D01*
X0011828Y0095331D01*
X0011888Y0095366D01*
X0011950Y0095398D01*
X0012013Y0095426D01*
X0012078Y0095451D01*
X0012144Y0095472D01*
X0012211Y0095489D01*
X0012279Y0095503D01*
X0012348Y0095512D01*
X0012417Y0095518D01*
X0012486Y0095520D01*
X0013194Y0095520D01*
X0013252Y0095522D01*
X0013310Y0095528D01*
X0013368Y0095537D01*
X0013425Y0095550D01*
X0013480Y0095567D01*
X0013535Y0095588D01*
X0013588Y0095612D01*
X0013640Y0095639D01*
X0013689Y0095670D01*
X0013736Y0095704D01*
X0013781Y0095741D01*
X0013824Y0095781D01*
X0013864Y0095824D01*
X0013901Y0095869D01*
X0013935Y0095916D01*
X0013966Y0095966D01*
X0013993Y0096017D01*
X0014017Y0096070D01*
X0014038Y0096125D01*
X0014055Y0096180D01*
X0014068Y0096237D01*
X0014077Y0096295D01*
X0014083Y0096353D01*
X0014085Y0096411D01*
X0014085Y0132185D01*
X0014087Y0132271D01*
X0014093Y0132357D01*
X0014102Y0132442D01*
X0014116Y0132527D01*
X0014133Y0132612D01*
X0014154Y0132695D01*
X0014179Y0132777D01*
X0014207Y0132859D01*
X0014239Y0132938D01*
X0014275Y0133017D01*
X0014314Y0133093D01*
X0014356Y0133168D01*
X0014402Y0133241D01*
X0014451Y0133312D01*
X0014503Y0133380D01*
X0014558Y0133446D01*
X0014616Y0133510D01*
X0014677Y0133571D01*
X0014741Y0133629D01*
X0014807Y0133684D01*
X0014875Y0133736D01*
X0014946Y0133785D01*
X0015019Y0133831D01*
X0015094Y0133873D01*
X0015170Y0133912D01*
X0015249Y0133948D01*
X0015328Y0133980D01*
X0015410Y0134008D01*
X0015492Y0134033D01*
X0015575Y0134054D01*
X0015660Y0134071D01*
X0015745Y0134085D01*
X0015830Y0134094D01*
X0015916Y0134100D01*
X0016002Y0134102D01*
X0016956Y0134102D01*
X0017066Y0134104D01*
X0017176Y0134110D01*
X0017285Y0134119D01*
X0017395Y0134133D01*
X0017503Y0134150D01*
X0017611Y0134171D01*
X0017719Y0134196D01*
X0017825Y0134224D01*
X0017930Y0134256D01*
X0018034Y0134292D01*
X0018137Y0134332D01*
X0018238Y0134375D01*
X0018338Y0134421D01*
X0018436Y0134471D01*
X0018532Y0134524D01*
X0018626Y0134581D01*
X0018719Y0134641D01*
X0018809Y0134704D01*
X0018897Y0134770D01*
X0018982Y0134839D01*
X0019065Y0134912D01*
X0019146Y0134987D01*
X0019223Y0135064D01*
X0019298Y0135145D01*
X0019371Y0135228D01*
X0019440Y0135313D01*
X0019506Y0135401D01*
X0019569Y0135491D01*
X0019629Y0135584D01*
X0019686Y0135678D01*
X0019739Y0135774D01*
X0019789Y0135872D01*
X0019835Y0135972D01*
X0019878Y0136073D01*
X0019918Y0136176D01*
X0019954Y0136280D01*
X0019986Y0136385D01*
X0020014Y0136491D01*
X0020039Y0136599D01*
X0020060Y0136707D01*
X0020077Y0136815D01*
X0020091Y0136925D01*
X0020100Y0137034D01*
X0020106Y0137144D01*
X0020108Y0137254D01*
X0020108Y0163755D01*
X0020110Y0163856D01*
X0020116Y0163957D01*
X0020126Y0164057D01*
X0020139Y0164157D01*
X0020157Y0164256D01*
X0020178Y0164355D01*
X0020203Y0164453D01*
X0020231Y0164549D01*
X0020264Y0164645D01*
X0020300Y0164739D01*
X0020339Y0164832D01*
X0020382Y0164923D01*
X0020429Y0165012D01*
X0020479Y0165100D01*
X0020532Y0165186D01*
X0020588Y0165269D01*
X0020648Y0165351D01*
X0020711Y0165429D01*
X0020776Y0165506D01*
X0020845Y0165580D01*
X0020916Y0165651D01*
X0020990Y0165720D01*
X0021067Y0165785D01*
X0021146Y0165848D01*
X0021227Y0165907D01*
X0021311Y0165964D01*
X0021397Y0166017D01*
X0021484Y0166067D01*
X0021574Y0166113D01*
X0021665Y0166156D01*
X0021758Y0166196D01*
X0021852Y0166231D01*
X0021948Y0166264D01*
X0022044Y0166292D01*
X0022142Y0166317D01*
X0022241Y0166338D01*
X0022340Y0166355D01*
X0022440Y0166369D01*
X0022540Y0166378D01*
X0022641Y0166384D01*
X0022742Y0166386D01*
X0082985Y0166386D01*
X0083095Y0166388D01*
X0083204Y0166394D01*
X0083313Y0166404D01*
X0083422Y0166417D01*
X0083530Y0166435D01*
X0083637Y0166456D01*
X0083744Y0166481D01*
X0083849Y0166510D01*
X0083954Y0166543D01*
X0084057Y0166579D01*
X0084159Y0166620D01*
X0084259Y0166663D01*
X0084358Y0166711D01*
X0084455Y0166761D01*
X0084551Y0166815D01*
X0084644Y0166873D01*
X0084735Y0166934D01*
X0084824Y0166998D01*
X0084910Y0167065D01*
X0084994Y0167135D01*
X0085076Y0167209D01*
X0085154Y0167285D01*
X0085230Y0167363D01*
X0085304Y0167445D01*
X0085374Y0167529D01*
X0085441Y0167615D01*
X0085505Y0167704D01*
X0085566Y0167795D01*
X0085624Y0167888D01*
X0085678Y0167984D01*
X0085728Y0168081D01*
X0085776Y0168180D01*
X0085819Y0168280D01*
X0085860Y0168382D01*
X0085896Y0168485D01*
X0085929Y0168590D01*
X0085958Y0168695D01*
X0085983Y0168802D01*
X0086004Y0168909D01*
X0086022Y0169017D01*
X0086035Y0169126D01*
X0086045Y0169235D01*
X0086051Y0169344D01*
X0086053Y0169454D01*
X0086053Y0191669D01*
X0086055Y0191824D01*
X0086061Y0191979D01*
X0086070Y0192133D01*
X0086084Y0192288D01*
X0086101Y0192442D01*
X0086122Y0192595D01*
X0086147Y0192748D01*
X0086176Y0192900D01*
X0086209Y0193052D01*
X0086245Y0193202D01*
X0086285Y0193352D01*
X0086329Y0193500D01*
X0086377Y0193648D01*
X0086428Y0193794D01*
X0086482Y0193939D01*
X0086541Y0194082D01*
X0086603Y0194224D01*
X0086668Y0194365D01*
X0086737Y0194503D01*
X0086810Y0194640D01*
X0086885Y0194775D01*
X0086965Y0194909D01*
X0087047Y0195040D01*
X0087133Y0195169D01*
X0087221Y0195296D01*
X0087313Y0195420D01*
X0087408Y0195543D01*
X0087507Y0195663D01*
X0087608Y0195780D01*
X0087712Y0195895D01*
X0087818Y0196007D01*
X0087928Y0196117D01*
X0088040Y0196223D01*
X0088155Y0196327D01*
X0088272Y0196428D01*
X0088392Y0196527D01*
X0088515Y0196622D01*
X0088639Y0196714D01*
X0088766Y0196802D01*
X0088895Y0196888D01*
X0089026Y0196970D01*
X0089159Y0197050D01*
X0089295Y0197125D01*
X0089432Y0197198D01*
X0089570Y0197267D01*
X0089711Y0197332D01*
X0089853Y0197394D01*
X0089996Y0197453D01*
X0090141Y0197507D01*
X0090287Y0197558D01*
X0090435Y0197606D01*
X0090583Y0197650D01*
X0090733Y0197690D01*
X0090883Y0197726D01*
X0091035Y0197759D01*
X0091187Y0197788D01*
X0091340Y0197813D01*
X0091493Y0197834D01*
X0091647Y0197851D01*
X0091802Y0197865D01*
X0091956Y0197874D01*
X0092111Y0197880D01*
X0092266Y0197882D01*
X0111769Y0197882D01*
X0111920Y0197880D01*
X0112072Y0197874D01*
X0112222Y0197864D01*
X0112373Y0197850D01*
X0112523Y0197833D01*
X0112673Y0197811D01*
X0112822Y0197785D01*
X0112971Y0197756D01*
X0113118Y0197722D01*
X0113265Y0197685D01*
X0113411Y0197644D01*
X0113555Y0197599D01*
X0113698Y0197550D01*
X0113840Y0197498D01*
X0113981Y0197442D01*
X0114120Y0197382D01*
X0114257Y0197319D01*
X0114393Y0197252D01*
X0114527Y0197182D01*
X0114659Y0197108D01*
X0114789Y0197030D01*
X0114917Y0196950D01*
X0115043Y0196865D01*
X0115166Y0196778D01*
X0115288Y0196688D01*
X0115406Y0196594D01*
X0115523Y0196497D01*
X0115637Y0196397D01*
X0115748Y0196295D01*
X0115856Y0196189D01*
X0115962Y0196081D01*
X0116064Y0195970D01*
X0116164Y0195856D01*
X0116261Y0195739D01*
X0116355Y0195621D01*
X0116445Y0195499D01*
X0116532Y0195376D01*
X0116617Y0195250D01*
X0116697Y0195122D01*
X0116775Y0194992D01*
X0116849Y0194860D01*
X0116919Y0194726D01*
X0116986Y0194590D01*
X0117049Y0194453D01*
X0117109Y0194314D01*
X0117165Y0194173D01*
X0117217Y0194031D01*
X0117266Y0193888D01*
X0117311Y0193744D01*
X0117352Y0193598D01*
X0117389Y0193451D01*
X0117423Y0193304D01*
X0117452Y0193155D01*
X0117478Y0193006D01*
X0117500Y0192856D01*
X0117517Y0192706D01*
X0117531Y0192555D01*
X0117541Y0192405D01*
X0117547Y0192253D01*
X0117549Y0192102D01*
X0117549Y0163780D01*
X0117551Y0163637D01*
X0117557Y0163495D01*
X0117566Y0163352D01*
X0117580Y0163210D01*
X0117597Y0163069D01*
X0117618Y0162928D01*
X0117643Y0162787D01*
X0117672Y0162647D01*
X0117705Y0162508D01*
X0117741Y0162370D01*
X0117781Y0162233D01*
X0117825Y0162098D01*
X0117872Y0161963D01*
X0117923Y0161830D01*
X0117978Y0161698D01*
X0118036Y0161568D01*
X0118098Y0161439D01*
X0118163Y0161312D01*
X0118231Y0161187D01*
X0118303Y0161064D01*
X0118378Y0160942D01*
X0118457Y0160823D01*
X0118539Y0160706D01*
X0118623Y0160591D01*
X0118711Y0160479D01*
X0118802Y0160369D01*
X0118896Y0160261D01*
X0118993Y0160157D01*
X0119092Y0160054D01*
X0119195Y0159955D01*
X0119299Y0159858D01*
X0119407Y0159764D01*
X0119517Y0159673D01*
X0119629Y0159585D01*
X0119744Y0159501D01*
X0119861Y0159419D01*
X0119980Y0159340D01*
X0120102Y0159265D01*
X0120225Y0159193D01*
X0120350Y0159125D01*
X0120477Y0159060D01*
X0120606Y0158998D01*
X0120736Y0158940D01*
X0120868Y0158885D01*
X0121001Y0158834D01*
X0121136Y0158787D01*
X0121271Y0158743D01*
X0121408Y0158703D01*
X0121546Y0158667D01*
X0121685Y0158634D01*
X0121825Y0158605D01*
X0121966Y0158580D01*
X0122107Y0158559D01*
X0122248Y0158542D01*
X0122390Y0158528D01*
X0122533Y0158519D01*
X0122675Y0158513D01*
X0122818Y0158511D01*
X0122818Y0158512D02*
X0198035Y0158512D01*
X0198190Y0158510D01*
X0198345Y0158504D01*
X0198500Y0158494D01*
X0198655Y0158481D01*
X0198809Y0158463D01*
X0198963Y0158441D01*
X0199116Y0158416D01*
X0199269Y0158387D01*
X0199420Y0158353D01*
X0199571Y0158316D01*
X0199721Y0158276D01*
X0199870Y0158231D01*
X0200017Y0158183D01*
X0200164Y0158130D01*
X0200309Y0158075D01*
X0200452Y0158015D01*
X0200594Y0157952D01*
X0200734Y0157886D01*
X0200873Y0157816D01*
X0201009Y0157742D01*
X0201144Y0157665D01*
X0201277Y0157584D01*
X0201408Y0157501D01*
X0201536Y0157413D01*
X0201663Y0157323D01*
X0201787Y0157230D01*
X0201908Y0157133D01*
X0202027Y0157033D01*
X0202144Y0156931D01*
X0202258Y0156825D01*
X0202369Y0156717D01*
X0202477Y0156606D01*
X0202583Y0156492D01*
X0202685Y0156375D01*
X0202785Y0156256D01*
X0202882Y0156135D01*
X0202975Y0156011D01*
X0203065Y0155884D01*
X0203153Y0155756D01*
X0203236Y0155625D01*
X0203317Y0155492D01*
X0203394Y0155357D01*
X0203468Y0155221D01*
X0203538Y0155082D01*
X0203604Y0154942D01*
X0203667Y0154800D01*
X0203727Y0154657D01*
X0203782Y0154512D01*
X0203835Y0154365D01*
X0203883Y0154218D01*
X0203928Y0154069D01*
X0203968Y0153919D01*
X0204005Y0153768D01*
X0204039Y0153617D01*
X0204068Y0153464D01*
X0204093Y0153311D01*
X0204115Y0153157D01*
X0204133Y0153003D01*
X0204146Y0152848D01*
X0204156Y0152693D01*
X0204162Y0152538D01*
X0204164Y0152383D01*
X0204163Y0152383D02*
X0204163Y0008939D01*
X0204161Y0008748D01*
X0204154Y0008557D01*
X0204142Y0008366D01*
X0204126Y0008176D01*
X0204105Y0007986D01*
X0204080Y0007797D01*
X0204050Y0007608D01*
X0204016Y0007420D01*
X0203977Y0007233D01*
X0203933Y0007047D01*
X0203885Y0006862D01*
X0203833Y0006678D01*
X0203776Y0006496D01*
X0203715Y0006315D01*
X0203649Y0006135D01*
X0203579Y0005957D01*
X0203505Y0005781D01*
X0203427Y0005607D01*
X0203344Y0005435D01*
X0203257Y0005264D01*
X0203166Y0005096D01*
X0203072Y0004930D01*
X0202973Y0004767D01*
X0202870Y0004606D01*
X0202763Y0004447D01*
X0202653Y0004291D01*
X0202539Y0004138D01*
X0202421Y0003988D01*
X0202299Y0003840D01*
X0202174Y0003696D01*
X0202046Y0003554D01*
X0201914Y0003416D01*
X0201779Y0003281D01*
X0201641Y0003149D01*
X0201499Y0003021D01*
X0201355Y0002896D01*
X0201207Y0002774D01*
X0201057Y0002656D01*
X0200904Y0002542D01*
X0200748Y0002432D01*
X0200589Y0002325D01*
X0200428Y0002222D01*
X0200265Y0002123D01*
X0200099Y0002029D01*
X0199931Y0001938D01*
X0199760Y0001851D01*
X0199588Y0001768D01*
X0199414Y0001690D01*
X0199238Y0001616D01*
X0199060Y0001546D01*
X0198880Y0001480D01*
X0198699Y0001419D01*
X0198517Y0001362D01*
X0198333Y0001310D01*
X0198148Y0001262D01*
X0197962Y0001218D01*
X0197775Y0001179D01*
X0197587Y0001145D01*
X0197398Y0001115D01*
X0197209Y0001090D01*
X0197019Y0001069D01*
X0196829Y0001053D01*
X0196638Y0001041D01*
X0196447Y0001034D01*
X0196256Y0001032D01*
X0196256Y0001031D02*
X0017145Y0001031D01*
X0016993Y0001033D01*
X0016842Y0001039D01*
X0016690Y0001049D01*
X0016539Y0001062D01*
X0016388Y0001080D01*
X0016238Y0001101D01*
X0016088Y0001127D01*
X0015939Y0001156D01*
X0015791Y0001189D01*
X0015644Y0001225D01*
X0015497Y0001266D01*
X0015352Y0001310D01*
X0015208Y0001358D01*
X0015066Y0001410D01*
X0014924Y0001465D01*
X0014784Y0001524D01*
X0014646Y0001587D01*
X0014509Y0001653D01*
X0014374Y0001723D01*
X0014241Y0001796D01*
X0014110Y0001872D01*
X0013981Y0001952D01*
X0013854Y0002035D01*
X0013729Y0002121D01*
X0013607Y0002211D01*
X0013487Y0002304D01*
X0013369Y0002399D01*
X0013253Y0002498D01*
X0013141Y0002600D01*
X0013031Y0002704D01*
X0012923Y0002812D01*
X0012819Y0002922D01*
X0012717Y0003034D01*
X0012618Y0003150D01*
X0012523Y0003268D01*
X0012430Y0003388D01*
X0012340Y0003510D01*
X0012254Y0003635D01*
X0012171Y0003762D01*
X0012091Y0003891D01*
X0012015Y0004022D01*
X0011942Y0004155D01*
X0011872Y0004290D01*
X0011806Y0004427D01*
X0011743Y0004565D01*
X0011684Y0004705D01*
X0011629Y0004847D01*
X0011577Y0004989D01*
X0011529Y0005133D01*
X0011485Y0005278D01*
X0011444Y0005425D01*
X0011408Y0005572D01*
X0011375Y0005720D01*
X0011346Y0005869D01*
X0011320Y0006019D01*
X0011299Y0006169D01*
X0011281Y0006320D01*
X0011268Y0006471D01*
X0011258Y0006623D01*
X0011252Y0006774D01*
X0011250Y0006926D01*
X0018731Y0070362D02*
X0018733Y0070459D01*
X0018739Y0070556D01*
X0018749Y0070652D01*
X0018763Y0070748D01*
X0018781Y0070844D01*
X0018802Y0070938D01*
X0018828Y0071032D01*
X0018857Y0071124D01*
X0018891Y0071215D01*
X0018927Y0071305D01*
X0018968Y0071393D01*
X0019012Y0071479D01*
X0019060Y0071564D01*
X0019111Y0071646D01*
X0019165Y0071727D01*
X0019223Y0071805D01*
X0019284Y0071880D01*
X0019347Y0071953D01*
X0019414Y0072024D01*
X0019484Y0072091D01*
X0019556Y0072156D01*
X0019631Y0072217D01*
X0019709Y0072276D01*
X0019788Y0072331D01*
X0019870Y0072383D01*
X0019954Y0072431D01*
X0020040Y0072476D01*
X0020128Y0072518D01*
X0020217Y0072556D01*
X0020308Y0072590D01*
X0020400Y0072620D01*
X0020493Y0072647D01*
X0020588Y0072669D01*
X0020683Y0072688D01*
X0020779Y0072703D01*
X0020875Y0072714D01*
X0020972Y0072721D01*
X0021069Y0072724D01*
X0021166Y0072723D01*
X0021263Y0072718D01*
X0021359Y0072709D01*
X0021455Y0072696D01*
X0021551Y0072679D01*
X0021646Y0072658D01*
X0021739Y0072634D01*
X0021832Y0072605D01*
X0021924Y0072573D01*
X0022014Y0072537D01*
X0022102Y0072498D01*
X0022189Y0072454D01*
X0022274Y0072408D01*
X0022357Y0072357D01*
X0022438Y0072304D01*
X0022516Y0072247D01*
X0022593Y0072187D01*
X0022666Y0072124D01*
X0022737Y0072058D01*
X0022805Y0071989D01*
X0022871Y0071917D01*
X0022933Y0071843D01*
X0022992Y0071766D01*
X0023048Y0071687D01*
X0023101Y0071605D01*
X0023151Y0071522D01*
X0023196Y0071436D01*
X0023239Y0071349D01*
X0023278Y0071260D01*
X0023313Y0071170D01*
X0023344Y0071078D01*
X0023371Y0070985D01*
X0023395Y0070891D01*
X0023415Y0070796D01*
X0023431Y0070700D01*
X0023443Y0070604D01*
X0023451Y0070507D01*
X0023455Y0070410D01*
X0023455Y0070314D01*
X0023451Y0070217D01*
X0023443Y0070120D01*
X0023431Y0070024D01*
X0023415Y0069928D01*
X0023395Y0069833D01*
X0023371Y0069739D01*
X0023344Y0069646D01*
X0023313Y0069554D01*
X0023278Y0069464D01*
X0023239Y0069375D01*
X0023196Y0069288D01*
X0023151Y0069202D01*
X0023101Y0069119D01*
X0023048Y0069037D01*
X0022992Y0068958D01*
X0022933Y0068881D01*
X0022871Y0068807D01*
X0022805Y0068735D01*
X0022737Y0068666D01*
X0022666Y0068600D01*
X0022593Y0068537D01*
X0022516Y0068477D01*
X0022438Y0068420D01*
X0022357Y0068367D01*
X0022274Y0068316D01*
X0022189Y0068270D01*
X0022102Y0068226D01*
X0022014Y0068187D01*
X0021924Y0068151D01*
X0021832Y0068119D01*
X0021739Y0068090D01*
X0021646Y0068066D01*
X0021551Y0068045D01*
X0021455Y0068028D01*
X0021359Y0068015D01*
X0021263Y0068006D01*
X0021166Y0068001D01*
X0021069Y0068000D01*
X0020972Y0068003D01*
X0020875Y0068010D01*
X0020779Y0068021D01*
X0020683Y0068036D01*
X0020588Y0068055D01*
X0020493Y0068077D01*
X0020400Y0068104D01*
X0020308Y0068134D01*
X0020217Y0068168D01*
X0020128Y0068206D01*
X0020040Y0068248D01*
X0019954Y0068293D01*
X0019870Y0068341D01*
X0019788Y0068393D01*
X0019709Y0068448D01*
X0019631Y0068507D01*
X0019556Y0068568D01*
X0019484Y0068633D01*
X0019414Y0068700D01*
X0019347Y0068771D01*
X0019284Y0068844D01*
X0019223Y0068919D01*
X0019165Y0068997D01*
X0019111Y0069078D01*
X0019060Y0069160D01*
X0019012Y0069245D01*
X0018968Y0069331D01*
X0018927Y0069419D01*
X0018891Y0069509D01*
X0018857Y0069600D01*
X0018828Y0069692D01*
X0018802Y0069786D01*
X0018781Y0069880D01*
X0018763Y0069976D01*
X0018749Y0070072D01*
X0018739Y0070168D01*
X0018733Y0070265D01*
X0018731Y0070362D01*
X0046290Y0070362D02*
X0046292Y0070459D01*
X0046298Y0070556D01*
X0046308Y0070652D01*
X0046322Y0070748D01*
X0046340Y0070844D01*
X0046361Y0070938D01*
X0046387Y0071032D01*
X0046416Y0071124D01*
X0046450Y0071215D01*
X0046486Y0071305D01*
X0046527Y0071393D01*
X0046571Y0071479D01*
X0046619Y0071564D01*
X0046670Y0071646D01*
X0046724Y0071727D01*
X0046782Y0071805D01*
X0046843Y0071880D01*
X0046906Y0071953D01*
X0046973Y0072024D01*
X0047043Y0072091D01*
X0047115Y0072156D01*
X0047190Y0072217D01*
X0047268Y0072276D01*
X0047347Y0072331D01*
X0047429Y0072383D01*
X0047513Y0072431D01*
X0047599Y0072476D01*
X0047687Y0072518D01*
X0047776Y0072556D01*
X0047867Y0072590D01*
X0047959Y0072620D01*
X0048052Y0072647D01*
X0048147Y0072669D01*
X0048242Y0072688D01*
X0048338Y0072703D01*
X0048434Y0072714D01*
X0048531Y0072721D01*
X0048628Y0072724D01*
X0048725Y0072723D01*
X0048822Y0072718D01*
X0048918Y0072709D01*
X0049014Y0072696D01*
X0049110Y0072679D01*
X0049205Y0072658D01*
X0049298Y0072634D01*
X0049391Y0072605D01*
X0049483Y0072573D01*
X0049573Y0072537D01*
X0049661Y0072498D01*
X0049748Y0072454D01*
X0049833Y0072408D01*
X0049916Y0072357D01*
X0049997Y0072304D01*
X0050075Y0072247D01*
X0050152Y0072187D01*
X0050225Y0072124D01*
X0050296Y0072058D01*
X0050364Y0071989D01*
X0050430Y0071917D01*
X0050492Y0071843D01*
X0050551Y0071766D01*
X0050607Y0071687D01*
X0050660Y0071605D01*
X0050710Y0071522D01*
X0050755Y0071436D01*
X0050798Y0071349D01*
X0050837Y0071260D01*
X0050872Y0071170D01*
X0050903Y0071078D01*
X0050930Y0070985D01*
X0050954Y0070891D01*
X0050974Y0070796D01*
X0050990Y0070700D01*
X0051002Y0070604D01*
X0051010Y0070507D01*
X0051014Y0070410D01*
X0051014Y0070314D01*
X0051010Y0070217D01*
X0051002Y0070120D01*
X0050990Y0070024D01*
X0050974Y0069928D01*
X0050954Y0069833D01*
X0050930Y0069739D01*
X0050903Y0069646D01*
X0050872Y0069554D01*
X0050837Y0069464D01*
X0050798Y0069375D01*
X0050755Y0069288D01*
X0050710Y0069202D01*
X0050660Y0069119D01*
X0050607Y0069037D01*
X0050551Y0068958D01*
X0050492Y0068881D01*
X0050430Y0068807D01*
X0050364Y0068735D01*
X0050296Y0068666D01*
X0050225Y0068600D01*
X0050152Y0068537D01*
X0050075Y0068477D01*
X0049997Y0068420D01*
X0049916Y0068367D01*
X0049833Y0068316D01*
X0049748Y0068270D01*
X0049661Y0068226D01*
X0049573Y0068187D01*
X0049483Y0068151D01*
X0049391Y0068119D01*
X0049298Y0068090D01*
X0049205Y0068066D01*
X0049110Y0068045D01*
X0049014Y0068028D01*
X0048918Y0068015D01*
X0048822Y0068006D01*
X0048725Y0068001D01*
X0048628Y0068000D01*
X0048531Y0068003D01*
X0048434Y0068010D01*
X0048338Y0068021D01*
X0048242Y0068036D01*
X0048147Y0068055D01*
X0048052Y0068077D01*
X0047959Y0068104D01*
X0047867Y0068134D01*
X0047776Y0068168D01*
X0047687Y0068206D01*
X0047599Y0068248D01*
X0047513Y0068293D01*
X0047429Y0068341D01*
X0047347Y0068393D01*
X0047268Y0068448D01*
X0047190Y0068507D01*
X0047115Y0068568D01*
X0047043Y0068633D01*
X0046973Y0068700D01*
X0046906Y0068771D01*
X0046843Y0068844D01*
X0046782Y0068919D01*
X0046724Y0068997D01*
X0046670Y0069078D01*
X0046619Y0069160D01*
X0046571Y0069245D01*
X0046527Y0069331D01*
X0046486Y0069419D01*
X0046450Y0069509D01*
X0046416Y0069600D01*
X0046387Y0069692D01*
X0046361Y0069786D01*
X0046340Y0069880D01*
X0046322Y0069976D01*
X0046308Y0070072D01*
X0046298Y0070168D01*
X0046292Y0070265D01*
X0046290Y0070362D01*
X0031172Y0106504D02*
X0031174Y0106566D01*
X0031180Y0106629D01*
X0031190Y0106690D01*
X0031204Y0106751D01*
X0031221Y0106811D01*
X0031242Y0106870D01*
X0031268Y0106927D01*
X0031296Y0106982D01*
X0031328Y0107036D01*
X0031364Y0107087D01*
X0031402Y0107137D01*
X0031444Y0107183D01*
X0031488Y0107227D01*
X0031536Y0107268D01*
X0031585Y0107306D01*
X0031637Y0107340D01*
X0031691Y0107371D01*
X0031747Y0107399D01*
X0031805Y0107423D01*
X0031864Y0107444D01*
X0031924Y0107460D01*
X0031985Y0107473D01*
X0032047Y0107482D01*
X0032109Y0107487D01*
X0032172Y0107488D01*
X0032234Y0107485D01*
X0032296Y0107478D01*
X0032358Y0107467D01*
X0032418Y0107452D01*
X0032478Y0107434D01*
X0032536Y0107412D01*
X0032593Y0107386D01*
X0032648Y0107356D01*
X0032701Y0107323D01*
X0032752Y0107287D01*
X0032800Y0107248D01*
X0032846Y0107205D01*
X0032889Y0107160D01*
X0032929Y0107112D01*
X0032966Y0107062D01*
X0033000Y0107009D01*
X0033031Y0106955D01*
X0033057Y0106899D01*
X0033081Y0106841D01*
X0033100Y0106781D01*
X0033116Y0106721D01*
X0033128Y0106659D01*
X0033136Y0106598D01*
X0033140Y0106535D01*
X0033140Y0106473D01*
X0033136Y0106410D01*
X0033128Y0106349D01*
X0033116Y0106287D01*
X0033100Y0106227D01*
X0033081Y0106167D01*
X0033057Y0106109D01*
X0033031Y0106053D01*
X0033000Y0105999D01*
X0032966Y0105946D01*
X0032929Y0105896D01*
X0032889Y0105848D01*
X0032846Y0105803D01*
X0032800Y0105760D01*
X0032752Y0105721D01*
X0032701Y0105685D01*
X0032648Y0105652D01*
X0032593Y0105622D01*
X0032536Y0105596D01*
X0032478Y0105574D01*
X0032418Y0105556D01*
X0032358Y0105541D01*
X0032296Y0105530D01*
X0032234Y0105523D01*
X0032172Y0105520D01*
X0032109Y0105521D01*
X0032047Y0105526D01*
X0031985Y0105535D01*
X0031924Y0105548D01*
X0031864Y0105564D01*
X0031805Y0105585D01*
X0031747Y0105609D01*
X0031691Y0105637D01*
X0031637Y0105668D01*
X0031585Y0105702D01*
X0031536Y0105740D01*
X0031488Y0105781D01*
X0031444Y0105825D01*
X0031402Y0105871D01*
X0031364Y0105921D01*
X0031328Y0105972D01*
X0031296Y0106026D01*
X0031268Y0106081D01*
X0031242Y0106138D01*
X0031221Y0106197D01*
X0031204Y0106257D01*
X0031190Y0106318D01*
X0031180Y0106379D01*
X0031174Y0106442D01*
X0031172Y0106504D01*
X0031172Y0122252D02*
X0031174Y0122314D01*
X0031180Y0122377D01*
X0031190Y0122438D01*
X0031204Y0122499D01*
X0031221Y0122559D01*
X0031242Y0122618D01*
X0031268Y0122675D01*
X0031296Y0122730D01*
X0031328Y0122784D01*
X0031364Y0122835D01*
X0031402Y0122885D01*
X0031444Y0122931D01*
X0031488Y0122975D01*
X0031536Y0123016D01*
X0031585Y0123054D01*
X0031637Y0123088D01*
X0031691Y0123119D01*
X0031747Y0123147D01*
X0031805Y0123171D01*
X0031864Y0123192D01*
X0031924Y0123208D01*
X0031985Y0123221D01*
X0032047Y0123230D01*
X0032109Y0123235D01*
X0032172Y0123236D01*
X0032234Y0123233D01*
X0032296Y0123226D01*
X0032358Y0123215D01*
X0032418Y0123200D01*
X0032478Y0123182D01*
X0032536Y0123160D01*
X0032593Y0123134D01*
X0032648Y0123104D01*
X0032701Y0123071D01*
X0032752Y0123035D01*
X0032800Y0122996D01*
X0032846Y0122953D01*
X0032889Y0122908D01*
X0032929Y0122860D01*
X0032966Y0122810D01*
X0033000Y0122757D01*
X0033031Y0122703D01*
X0033057Y0122647D01*
X0033081Y0122589D01*
X0033100Y0122529D01*
X0033116Y0122469D01*
X0033128Y0122407D01*
X0033136Y0122346D01*
X0033140Y0122283D01*
X0033140Y0122221D01*
X0033136Y0122158D01*
X0033128Y0122097D01*
X0033116Y0122035D01*
X0033100Y0121975D01*
X0033081Y0121915D01*
X0033057Y0121857D01*
X0033031Y0121801D01*
X0033000Y0121747D01*
X0032966Y0121694D01*
X0032929Y0121644D01*
X0032889Y0121596D01*
X0032846Y0121551D01*
X0032800Y0121508D01*
X0032752Y0121469D01*
X0032701Y0121433D01*
X0032648Y0121400D01*
X0032593Y0121370D01*
X0032536Y0121344D01*
X0032478Y0121322D01*
X0032418Y0121304D01*
X0032358Y0121289D01*
X0032296Y0121278D01*
X0032234Y0121271D01*
X0032172Y0121268D01*
X0032109Y0121269D01*
X0032047Y0121274D01*
X0031985Y0121283D01*
X0031924Y0121296D01*
X0031864Y0121312D01*
X0031805Y0121333D01*
X0031747Y0121357D01*
X0031691Y0121385D01*
X0031637Y0121416D01*
X0031585Y0121450D01*
X0031536Y0121488D01*
X0031488Y0121529D01*
X0031444Y0121573D01*
X0031402Y0121619D01*
X0031364Y0121669D01*
X0031328Y0121720D01*
X0031296Y0121774D01*
X0031268Y0121829D01*
X0031242Y0121886D01*
X0031221Y0121945D01*
X0031204Y0122005D01*
X0031190Y0122066D01*
X0031180Y0122127D01*
X0031174Y0122190D01*
X0031172Y0122252D01*
D11*
X0020148Y0034457D03*
X0020148Y0026583D03*
X0020148Y0018709D03*
D12*
X0020148Y0009260D03*
X0020148Y0043906D03*
D13*
X0028612Y0141307D03*
X0028612Y0161307D03*
D14*
X0033612Y0151307D03*
X0106801Y0119575D03*
D15*
X0096801Y0119575D03*
X0096801Y0129575D03*
X0106801Y0129575D03*
X0106801Y0139575D03*
X0096801Y0139575D03*
X0096801Y0149575D03*
X0106801Y0149575D03*
X0106801Y0159575D03*
X0096801Y0159575D03*
X0096801Y0169575D03*
X0106801Y0169575D03*
X0106801Y0179575D03*
X0096801Y0179575D03*
X0096801Y0189575D03*
X0106801Y0189575D03*
D16*
X0144754Y0150205D03*
X0154754Y0150205D03*
X0164754Y0150205D03*
X0174754Y0150205D03*
X0174754Y0140205D03*
X0164754Y0140205D03*
X0154754Y0140205D03*
X0144754Y0140205D03*
X0153573Y0014732D03*
X0161447Y0014732D03*
D17*
X0187510Y0012094D03*
X0187510Y0025874D03*
D18*
X0194549Y0062961D02*
X0200549Y0062961D01*
X0200549Y0072961D02*
X0194549Y0072961D01*
X0194549Y0082961D02*
X0200549Y0082961D01*
X0200549Y0092961D02*
X0194549Y0092961D01*
X0194549Y0102961D02*
X0200549Y0102961D01*
X0200549Y0112961D02*
X0194549Y0112961D01*
X0194549Y0122961D02*
X0200549Y0122961D01*
X0197400Y0142094D02*
X0191400Y0142094D01*
X0191400Y0152094D02*
X0197400Y0152094D01*
D19*
X0115108Y0058906D03*
X0109203Y0058906D03*
X0103297Y0058906D03*
X0097392Y0058906D03*
X0091486Y0058906D03*
X0085581Y0058906D03*
X0079675Y0058906D03*
X0073770Y0058906D03*
X0067864Y0058906D03*
X0061959Y0058906D03*
X0056053Y0058906D03*
X0050148Y0058906D03*
X0044242Y0058906D03*
X0044242Y0007724D03*
X0050148Y0007724D03*
X0056053Y0007724D03*
X0061959Y0007724D03*
X0067864Y0007724D03*
X0073770Y0007724D03*
X0079675Y0007724D03*
X0085581Y0007724D03*
X0091486Y0007724D03*
X0097392Y0007724D03*
X0103297Y0007724D03*
X0109203Y0007724D03*
X0115108Y0007724D03*
D20*
X0037352Y0012646D03*
X0037352Y0018551D03*
X0037352Y0024457D03*
X0037352Y0030362D03*
X0037352Y0036268D03*
X0037352Y0042173D03*
X0037352Y0048079D03*
X0037352Y0053984D03*
D21*
X0014872Y0051543D03*
X0014872Y0059811D03*
D22*
X0040050Y0107031D02*
X0071250Y0075831D01*
X0095250Y0051031D02*
X0082050Y0037831D01*
X0082050Y0020231D01*
X0150744Y0047974D02*
X0150744Y0049474D01*
X0150744Y0047974D02*
X0146244Y0047974D01*
X0146244Y0049474D01*
X0150744Y0049474D01*
X0150744Y0049473D02*
X0146244Y0049473D01*
X0150744Y0055974D02*
X0150744Y0057474D01*
X0150744Y0055974D02*
X0146244Y0055974D01*
X0146244Y0057474D01*
X0150744Y0057474D01*
X0150744Y0057473D02*
X0146244Y0057473D01*
X0040050Y0107031D02*
X0040050Y0143431D01*
D23*
X0145594Y0057224D02*
X0151394Y0057224D01*
X0151394Y0052224D01*
X0148494Y0055024D01*
X0145594Y0052224D01*
X0145594Y0057224D01*
X0145594Y0057210D02*
X0151394Y0057210D01*
X0151394Y0057012D02*
X0145594Y0057012D01*
X0145594Y0056813D02*
X0151394Y0056813D01*
X0151394Y0056615D02*
X0145594Y0056615D01*
X0145594Y0056416D02*
X0151394Y0056416D01*
X0151394Y0056218D02*
X0145594Y0056218D01*
X0145594Y0056019D02*
X0151394Y0056019D01*
X0151394Y0055821D02*
X0145594Y0055821D01*
X0145594Y0055622D02*
X0151394Y0055622D01*
X0151394Y0055424D02*
X0145594Y0055424D01*
X0145594Y0055225D02*
X0151394Y0055225D01*
X0151394Y0055027D02*
X0145594Y0055027D01*
X0145594Y0054828D02*
X0148291Y0054828D01*
X0148085Y0054630D02*
X0145594Y0054630D01*
X0145594Y0054431D02*
X0147880Y0054431D01*
X0147674Y0054233D02*
X0145594Y0054233D01*
X0145594Y0054034D02*
X0147468Y0054034D01*
X0147263Y0053836D02*
X0145594Y0053836D01*
X0145594Y0053637D02*
X0147057Y0053637D01*
X0146852Y0053438D02*
X0145594Y0053438D01*
X0145594Y0053240D02*
X0146646Y0053240D01*
X0146440Y0053041D02*
X0145594Y0053041D01*
X0145594Y0052843D02*
X0146235Y0052843D01*
X0146029Y0052644D02*
X0145594Y0052644D01*
X0145594Y0052446D02*
X0145824Y0052446D01*
X0145618Y0052247D02*
X0145594Y0052247D01*
X0146573Y0051453D02*
X0150415Y0051453D01*
X0150614Y0051255D02*
X0146375Y0051255D01*
X0146176Y0051056D02*
X0150812Y0051056D01*
X0151011Y0050858D02*
X0145978Y0050858D01*
X0145779Y0050659D02*
X0151209Y0050659D01*
X0151394Y0050474D02*
X0148494Y0053374D01*
X0145594Y0050474D01*
X0145594Y0048224D01*
X0151394Y0048224D01*
X0151394Y0050474D01*
X0151394Y0050461D02*
X0145594Y0050461D01*
X0145594Y0050262D02*
X0151394Y0050262D01*
X0151394Y0050064D02*
X0145594Y0050064D01*
X0145594Y0049865D02*
X0151394Y0049865D01*
X0151394Y0049667D02*
X0145594Y0049667D01*
X0145594Y0049468D02*
X0151394Y0049468D01*
X0151394Y0049270D02*
X0145594Y0049270D01*
X0145594Y0049071D02*
X0151394Y0049071D01*
X0151394Y0048873D02*
X0145594Y0048873D01*
X0145594Y0048674D02*
X0151394Y0048674D01*
X0151394Y0048476D02*
X0145594Y0048476D01*
X0145594Y0048277D02*
X0151394Y0048277D01*
X0150217Y0051652D02*
X0146772Y0051652D01*
X0146970Y0051850D02*
X0150018Y0051850D01*
X0149820Y0052049D02*
X0147169Y0052049D01*
X0147367Y0052247D02*
X0149621Y0052247D01*
X0149423Y0052446D02*
X0147566Y0052446D01*
X0147764Y0052644D02*
X0149224Y0052644D01*
X0149026Y0052843D02*
X0147963Y0052843D01*
X0148161Y0053041D02*
X0148827Y0053041D01*
X0148629Y0053240D02*
X0148360Y0053240D01*
X0149314Y0054233D02*
X0151394Y0054233D01*
X0151394Y0054431D02*
X0149109Y0054431D01*
X0148903Y0054630D02*
X0151394Y0054630D01*
X0151394Y0054828D02*
X0148697Y0054828D01*
X0149520Y0054034D02*
X0151394Y0054034D01*
X0151394Y0053836D02*
X0149725Y0053836D01*
X0149931Y0053637D02*
X0151394Y0053637D01*
X0151394Y0053438D02*
X0150137Y0053438D01*
X0150342Y0053240D02*
X0151394Y0053240D01*
X0151394Y0053041D02*
X0150548Y0053041D01*
X0150753Y0052843D02*
X0151394Y0052843D01*
X0151394Y0052644D02*
X0150959Y0052644D01*
X0151165Y0052446D02*
X0151394Y0052446D01*
X0151394Y0052247D02*
X0151370Y0052247D01*
D24*
X0148450Y0049031D02*
X0148494Y0048724D01*
X0148450Y0049031D02*
X0124850Y0049031D01*
X0115250Y0058631D01*
X0115108Y0058906D01*
X0115650Y0057831D01*
X0111650Y0053831D01*
X0071250Y0053831D01*
X0068050Y0057031D01*
X0068050Y0058631D01*
X0067864Y0058906D01*
X0059650Y0064231D02*
X0056450Y0061031D01*
X0056450Y0059031D01*
X0056053Y0058906D01*
X0056050Y0058631D01*
X0056050Y0057031D01*
X0051250Y0052231D01*
X0051250Y0023831D01*
X0058050Y0017431D02*
X0050450Y0009831D01*
X0050450Y0007831D01*
X0050148Y0007724D01*
X0044242Y0007724D02*
X0044050Y0007831D01*
X0044050Y0048631D01*
X0039650Y0053031D01*
X0039650Y0053831D01*
X0037352Y0053984D01*
X0037650Y0054231D01*
X0039650Y0054231D01*
X0044050Y0058631D01*
X0044242Y0058906D01*
X0044450Y0068231D02*
X0031650Y0055431D01*
X0031650Y0041431D01*
X0024850Y0048231D02*
X0024850Y0026631D01*
X0020450Y0022231D01*
X0018850Y0022231D01*
X0016850Y0020231D01*
X0016850Y0017031D01*
X0018850Y0015031D01*
X0031650Y0015031D01*
X0026450Y0025031D02*
X0020450Y0019031D01*
X0020148Y0018709D01*
X0026450Y0025031D02*
X0026450Y0053831D01*
X0047650Y0075031D01*
X0049650Y0075031D01*
X0059650Y0064231D02*
X0093650Y0064231D01*
X0097250Y0060631D01*
X0097250Y0059031D01*
X0097392Y0058906D01*
X0086450Y0068231D02*
X0099850Y0081631D01*
X0076450Y0105031D01*
X0073250Y0101031D02*
X0072450Y0100231D01*
X0073250Y0101031D02*
X0073250Y0122631D01*
X0070850Y0123831D02*
X0072850Y0125831D01*
X0077650Y0125831D01*
X0082450Y0121031D01*
X0082450Y0112231D01*
X0109650Y0085031D01*
X0127250Y0085031D01*
X0128450Y0087431D02*
X0133250Y0082631D01*
X0133250Y0059431D01*
X0128450Y0054631D01*
X0126850Y0057031D02*
X0130050Y0060231D01*
X0130050Y0060631D01*
X0076450Y0114231D01*
X0076450Y0123431D01*
X0070850Y0123831D02*
X0070850Y0115031D01*
X0066050Y0119431D02*
X0066050Y0099431D01*
X0068450Y0100631D02*
X0069250Y0099831D01*
X0068450Y0100631D02*
X0068450Y0123831D01*
X0074050Y0129431D01*
X0072850Y0131831D02*
X0080050Y0131831D01*
X0092450Y0119431D01*
X0092450Y0117831D01*
X0099250Y0111031D01*
X0141250Y0111031D01*
X0168850Y0138631D01*
X0168850Y0145831D01*
X0164850Y0149831D01*
X0164754Y0150205D01*
X0160850Y0151831D02*
X0163250Y0154231D01*
X0170450Y0154231D01*
X0174450Y0150231D01*
X0174754Y0150205D01*
X0181650Y0155831D02*
X0191250Y0146231D01*
X0199250Y0146231D01*
X0201650Y0143831D01*
X0201650Y0136231D01*
X0190050Y0124631D01*
X0190050Y0120231D01*
X0197250Y0113031D01*
X0197549Y0112961D01*
X0197549Y0102961D02*
X0197250Y0102631D01*
X0185650Y0102631D01*
X0183650Y0100631D01*
X0183650Y0067831D01*
X0194850Y0056631D01*
X0194850Y0052631D01*
X0193650Y0051431D01*
X0193250Y0051431D01*
X0193250Y0023831D01*
X0189650Y0020231D01*
X0185250Y0020231D01*
X0180850Y0024631D01*
X0155650Y0024631D01*
X0138850Y0007831D01*
X0115250Y0007831D01*
X0115108Y0007724D01*
X0112450Y0002631D02*
X0155250Y0002631D01*
X0172450Y0019831D01*
X0180850Y0022231D02*
X0184450Y0018631D01*
X0190450Y0018631D01*
X0197250Y0025431D01*
X0197250Y0062631D01*
X0197549Y0062961D01*
X0192450Y0053831D02*
X0155650Y0090631D01*
X0135650Y0090631D01*
X0135650Y0090231D01*
X0135650Y0090631D02*
X0117250Y0090631D01*
X0091250Y0116631D01*
X0089250Y0116631D01*
X0091250Y0114231D02*
X0086450Y0114231D01*
X0084050Y0113031D02*
X0109650Y0087431D01*
X0128450Y0087431D01*
X0133250Y0089031D02*
X0169250Y0053031D01*
X0189650Y0053031D01*
X0191250Y0051431D01*
X0193250Y0051431D01*
X0174450Y0050631D02*
X0165250Y0050631D01*
X0138050Y0077831D01*
X0135650Y0083031D02*
X0135650Y0058231D01*
X0132850Y0055431D01*
X0132850Y0052231D01*
X0129650Y0051431D02*
X0128050Y0051431D01*
X0123650Y0055831D01*
X0123650Y0057831D01*
X0099850Y0081631D01*
X0087650Y0073031D02*
X0080850Y0073031D01*
X0052250Y0101631D01*
X0055250Y0104631D01*
X0055250Y0107431D01*
X0052250Y0101631D02*
X0050850Y0100231D01*
X0048850Y0105031D02*
X0042850Y0111031D01*
X0050050Y0112631D02*
X0050050Y0113831D01*
X0042850Y0121031D01*
X0042850Y0155031D01*
X0052450Y0164631D01*
X0086050Y0164631D01*
X0096850Y0175431D01*
X0098850Y0175431D01*
X0102450Y0179031D01*
X0102450Y0185431D01*
X0106450Y0189431D01*
X0106801Y0189575D01*
X0105250Y0163831D02*
X0112850Y0163831D01*
X0120850Y0155831D01*
X0181650Y0155831D01*
X0182050Y0141831D02*
X0134450Y0094231D01*
X0131650Y0094231D01*
X0133250Y0089031D02*
X0116450Y0089031D01*
X0091250Y0114231D01*
X0088450Y0119831D02*
X0084050Y0115431D01*
X0084050Y0113031D01*
X0096801Y0119575D02*
X0097250Y0119431D01*
X0103250Y0113431D01*
X0121250Y0113431D01*
X0123250Y0119431D02*
X0144050Y0119431D01*
X0144050Y0119031D01*
X0144050Y0119431D02*
X0164450Y0139831D01*
X0164754Y0140205D01*
X0160850Y0140631D02*
X0160850Y0151831D01*
X0150450Y0144231D02*
X0154450Y0140231D01*
X0154754Y0140205D01*
X0155650Y0135431D02*
X0160850Y0140631D01*
X0155650Y0135431D02*
X0094850Y0135431D01*
X0092050Y0138231D01*
X0072450Y0138231D01*
X0072050Y0133831D02*
X0099650Y0133831D01*
X0100450Y0133031D01*
X0096801Y0129575D02*
X0096850Y0129431D01*
X0096850Y0119831D01*
X0096801Y0119575D01*
X0072850Y0131831D02*
X0062450Y0121431D01*
X0062450Y0117431D01*
X0060050Y0121831D02*
X0072050Y0133831D01*
X0068850Y0142631D02*
X0081650Y0155431D01*
X0098850Y0155431D01*
X0102450Y0159031D01*
X0102450Y0161031D01*
X0105250Y0163831D01*
X0101650Y0163831D02*
X0095250Y0163831D01*
X0094450Y0163031D01*
X0082450Y0163031D01*
X0053650Y0134231D01*
X0053650Y0121831D01*
X0056850Y0121031D02*
X0056850Y0135031D01*
X0081250Y0159431D01*
X0096450Y0159431D01*
X0096801Y0159575D01*
X0104050Y0153831D02*
X0135250Y0153831D01*
X0144850Y0144231D01*
X0150450Y0144231D01*
X0144754Y0140205D02*
X0144450Y0140231D01*
X0139250Y0145431D01*
X0094850Y0145431D01*
X0088850Y0151431D01*
X0084450Y0151431D01*
X0079650Y0146631D01*
X0076450Y0146631D01*
X0080050Y0143431D02*
X0087650Y0143431D01*
X0089250Y0141831D01*
X0093250Y0141831D01*
X0095250Y0143831D01*
X0120050Y0143831D01*
X0123250Y0140631D01*
X0090450Y0144231D02*
X0085650Y0149031D01*
X0068850Y0142631D02*
X0068050Y0142631D01*
X0062450Y0146631D02*
X0066850Y0151031D01*
X0062450Y0146631D02*
X0050850Y0146631D01*
X0049650Y0144231D02*
X0047650Y0146231D01*
X0047650Y0156231D01*
X0050050Y0151831D02*
X0058850Y0160631D01*
X0045250Y0149431D02*
X0045250Y0137431D01*
X0049650Y0144231D02*
X0049650Y0129031D01*
X0049650Y0116631D01*
X0063650Y0102631D01*
X0063650Y0093831D01*
X0072450Y0085031D01*
X0072850Y0070631D02*
X0085250Y0070631D01*
X0086450Y0068231D02*
X0066850Y0068231D01*
X0028450Y0106631D01*
X0028450Y0111431D01*
X0030050Y0113431D02*
X0072850Y0070631D01*
X0096050Y0043031D02*
X0113250Y0043031D01*
X0115250Y0045031D01*
X0160450Y0045031D01*
X0156850Y0056631D02*
X0148850Y0056631D01*
X0148494Y0056724D01*
X0148450Y0056231D01*
X0145650Y0053431D01*
X0156850Y0056631D02*
X0187250Y0026231D01*
X0187510Y0025874D01*
X0180850Y0022231D02*
X0164050Y0022231D01*
X0153573Y0014732D02*
X0153250Y0014631D01*
X0150850Y0012231D01*
X0146850Y0012231D01*
X0130450Y0011431D02*
X0130450Y0035831D01*
X0129250Y0042631D02*
X0120450Y0033831D01*
X0120450Y0011431D01*
X0125650Y0011431D02*
X0125650Y0025831D01*
X0128050Y0028231D01*
X0118850Y0031831D02*
X0118850Y0041031D01*
X0120450Y0042631D01*
X0116850Y0042631D02*
X0115250Y0042631D01*
X0093250Y0020631D01*
X0099250Y0023031D02*
X0102850Y0019431D01*
X0104050Y0017031D02*
X0118850Y0031831D01*
X0104050Y0017031D02*
X0085650Y0017031D01*
X0109203Y0007724D02*
X0109250Y0007431D01*
X0109250Y0005831D01*
X0112450Y0002631D01*
X0058050Y0009431D02*
X0056450Y0007831D01*
X0056053Y0007724D01*
X0058050Y0009431D02*
X0058050Y0013831D01*
X0044242Y0007724D02*
X0044050Y0007431D01*
X0040850Y0004231D01*
X0018450Y0004231D01*
X0015250Y0007431D01*
X0015250Y0027031D01*
X0014850Y0027031D01*
X0015250Y0027031D02*
X0015250Y0051431D01*
X0014872Y0051543D01*
X0015250Y0057831D02*
X0024850Y0048231D01*
X0015250Y0057831D02*
X0015250Y0059431D01*
X0014872Y0059811D01*
X0030050Y0113431D02*
X0030050Y0114231D01*
X0028850Y0136231D02*
X0028850Y0141031D01*
X0028612Y0141307D01*
X0028850Y0141431D01*
X0028850Y0161031D01*
X0028612Y0161307D01*
X0126050Y0057031D02*
X0126850Y0057031D01*
X0186050Y0085431D02*
X0186050Y0099431D01*
X0186050Y0085431D02*
X0197250Y0074231D01*
X0197250Y0073031D01*
X0197549Y0072961D01*
X0194050Y0141831D02*
X0182050Y0141831D01*
X0194050Y0141831D02*
X0194400Y0142094D01*
D25*
X0144050Y0119031D03*
X0123250Y0119431D03*
X0121250Y0113431D03*
X0100450Y0133031D03*
X0090450Y0144231D03*
X0085650Y0149031D03*
X0080050Y0143431D03*
X0076450Y0146631D03*
X0068050Y0142631D03*
X0072450Y0138231D03*
X0074050Y0129431D03*
X0076450Y0123431D03*
X0073250Y0122631D03*
X0066050Y0119431D03*
X0062450Y0117431D03*
X0060050Y0121831D03*
X0056850Y0121031D03*
X0053650Y0121831D03*
X0049650Y0129031D03*
X0045250Y0137431D03*
X0040050Y0143431D03*
X0045250Y0149431D03*
X0050050Y0151831D03*
X0047650Y0156231D03*
X0050850Y0146631D03*
X0066850Y0151031D03*
X0058850Y0160631D03*
X0028850Y0136231D03*
X0030050Y0114231D03*
X0028450Y0111431D03*
X0042850Y0111031D03*
X0050050Y0112631D03*
X0055250Y0107431D03*
X0048850Y0105031D03*
X0050850Y0100231D03*
X0066050Y0099431D03*
X0069250Y0099831D03*
X0072450Y0100231D03*
X0076450Y0105031D03*
X0070850Y0115031D03*
X0086450Y0114231D03*
X0089250Y0116631D03*
X0088450Y0119831D03*
X0123250Y0140631D03*
X0104050Y0153831D03*
X0101650Y0163831D03*
X0131650Y0094231D03*
X0135650Y0090231D03*
X0127250Y0085031D03*
X0135650Y0083031D03*
X0138050Y0077831D03*
X0130050Y0060231D03*
X0133250Y0059431D03*
X0128450Y0054631D03*
X0126050Y0057031D03*
X0129650Y0051431D03*
X0132850Y0052231D03*
X0129250Y0042631D03*
X0130450Y0035831D03*
X0128050Y0028231D03*
X0120450Y0042631D03*
X0116850Y0042631D03*
X0096050Y0043031D03*
X0095250Y0051031D03*
X0085250Y0070631D03*
X0087650Y0073031D03*
X0072450Y0085031D03*
X0071250Y0075831D03*
X0049650Y0075031D03*
X0044450Y0068231D03*
X0031650Y0041431D03*
X0014850Y0027031D03*
X0031650Y0015031D03*
X0051250Y0023831D03*
X0058050Y0017431D03*
X0058050Y0013831D03*
X0082050Y0020231D03*
X0085650Y0017031D03*
X0093250Y0020631D03*
X0099250Y0023031D03*
X0102850Y0019431D03*
X0120450Y0011431D03*
X0125650Y0011431D03*
X0130450Y0011431D03*
X0146850Y0012231D03*
X0164050Y0022231D03*
X0172450Y0019831D03*
X0160450Y0045031D03*
X0174450Y0050631D03*
X0192450Y0053831D03*
X0145650Y0053431D03*
X0186050Y0099431D03*
M02*
