%
M48
M72
T01C0.01200
T02C0.01969
T03C0.02362
T04C0.03150
T05C0.03937
T06C0.04000
T07C0.04724
%
T01
X28850Y136231
X14850Y27031
X146850Y12231
X121250Y113431
X80050Y143431
X123250Y140631
X50850Y146631
X66850Y151031
X58050Y17431
X145650Y53431
X49650Y129031
X47650Y156231
X72450Y85031
X66050Y119431
X66050Y99431
X58850Y160631
X50050Y151831
X45250Y149431
X45250Y137431
X82050Y20231
X95250Y51031
X40050Y143431
X71250Y75831
X48850Y105031
X42850Y111031
X125650Y11431
X128050Y28231
X30050Y114231
X85250Y70631
X55250Y107431
X50850Y100231
X130450Y11431
X130450Y35831
X87650Y73031
X76450Y105031
X129650Y51431
X120450Y11431
X129250Y42631
X28450Y111431
X93250Y20631
X116850Y42631
X126050Y57031
X130050Y60231
X76450Y123431
X89250Y116631
X192450Y53831
X132850Y52231
X135650Y83031
X135650Y90231
X102850Y19431
X99250Y23031
X174450Y50631
X138050Y77831
X49650Y75031
X74050Y129431
X69250Y99831
X123250Y119431
X144050Y119031
X104050Y153831
X85650Y17031
X120450Y42631
X128450Y54631
X133250Y59431
X88450Y119831
X73250Y122631
X72450Y100231
X60050Y121831
X100450Y133031
X53650Y121831
X101650Y163831
X56850Y121031
X90450Y144231
X85650Y149031
X50050Y112631
X70850Y115031
X127250Y85031
X31650Y41431
X44450Y68231
X131650Y94231
X72450Y138231
X76450Y146631
X96050Y43031
X160450Y45031
X62450Y117431
X186050Y99431
X68050Y142631
X172450Y19831
X164050Y22231
X58050Y13831
X51250Y23831
X86450Y114231
X31650Y15031
T02
X32156Y122252
X32156Y106504
T03
X20148Y26583
X20148Y34457
X20148Y18709
T04
X33612Y151307
X153573Y14732
X161447Y14732
X174754Y150205
X164754Y150205
X154754Y150205
X144754Y150205
X144754Y140205
X154754Y140205
X164754Y140205
X174754Y140205
T05
X187510Y12094
X187510Y25874
T06
X106801Y119575
X96801Y119575
X106801Y129575
X96801Y129575
X106801Y139575
X96801Y139575
X106801Y149575
X96801Y149575
X106801Y159575
X96801Y159575
X106801Y169575
X96801Y169575
X106801Y179575
X96801Y179575
X106801Y189575
X96801Y189575
X197549Y122961
X197549Y112961
X197549Y102961
X197549Y92961
X197549Y82961
X197549Y72961
X197549Y62961
X194400Y152094
X194400Y142094
T07
X20148Y9260
X20148Y43906
X21093Y70362
X48652Y70362
M30
