G75*
%MOIN*%
%OFA0B0*%
%FSLAX25Y25*%
%IPPOS*%
%LPD*%
%AMOC8*
5,1,8,0,0,1.08239X$1,22.5*
%
%ADD10C,0.00000*%
%ADD11R,0.05118X0.05906*%
%ADD12R,0.06299X0.05118*%
%ADD13R,0.05118X0.06299*%
%ADD14R,0.02600X0.08000*%
%ADD15OC8,0.06600*%
%ADD16R,0.05512X0.03937*%
%ADD17R,0.08858X0.05906*%
%ADD18R,0.08858X0.06299*%
%ADD19C,0.04362*%
%ADD20C,0.07087*%
%ADD21R,0.02756X0.05118*%
%ADD22R,0.13386X0.09449*%
%ADD23R,0.05906X0.05118*%
%ADD24C,0.07677*%
%ADD25C,0.00800*%
%ADD26C,0.02400*%
%ADD27C,0.01000*%
D10*
X0008573Y0011486D02*
X0084586Y0011486D01*
X0084754Y0011488D01*
X0084923Y0011494D01*
X0085091Y0011504D01*
X0085258Y0011519D01*
X0085426Y0011537D01*
X0085592Y0011559D01*
X0085759Y0011585D01*
X0085924Y0011616D01*
X0086089Y0011650D01*
X0086253Y0011688D01*
X0086416Y0011731D01*
X0086578Y0011777D01*
X0086738Y0011827D01*
X0086898Y0011881D01*
X0087056Y0011939D01*
X0087212Y0012000D01*
X0087368Y0012066D01*
X0087521Y0012135D01*
X0087673Y0012207D01*
X0087823Y0012284D01*
X0087971Y0012364D01*
X0088117Y0012447D01*
X0088261Y0012534D01*
X0088403Y0012625D01*
X0088543Y0012719D01*
X0088680Y0012816D01*
X0088815Y0012917D01*
X0088947Y0013021D01*
X0089077Y0013128D01*
X0089205Y0013238D01*
X0089329Y0013351D01*
X0089451Y0013467D01*
X0089570Y0013586D01*
X0089686Y0013708D01*
X0089799Y0013832D01*
X0089909Y0013960D01*
X0090016Y0014090D01*
X0090120Y0014222D01*
X0090221Y0014357D01*
X0090318Y0014494D01*
X0090412Y0014634D01*
X0090503Y0014776D01*
X0090590Y0014920D01*
X0090673Y0015066D01*
X0090753Y0015214D01*
X0090830Y0015364D01*
X0090902Y0015516D01*
X0090971Y0015669D01*
X0091037Y0015825D01*
X0091098Y0015981D01*
X0091156Y0016139D01*
X0091210Y0016299D01*
X0091260Y0016459D01*
X0091306Y0016621D01*
X0091349Y0016784D01*
X0091387Y0016948D01*
X0091421Y0017113D01*
X0091452Y0017278D01*
X0091478Y0017445D01*
X0091500Y0017611D01*
X0091518Y0017779D01*
X0091533Y0017946D01*
X0091543Y0018114D01*
X0091549Y0018283D01*
X0091551Y0018451D01*
X0091551Y0188963D01*
X0091549Y0189146D01*
X0091542Y0189328D01*
X0091531Y0189511D01*
X0091516Y0189693D01*
X0091496Y0189875D01*
X0091472Y0190056D01*
X0091443Y0190236D01*
X0091410Y0190416D01*
X0091373Y0190595D01*
X0091331Y0190773D01*
X0091285Y0190950D01*
X0091235Y0191126D01*
X0091181Y0191300D01*
X0091122Y0191473D01*
X0091060Y0191645D01*
X0090993Y0191815D01*
X0090922Y0191983D01*
X0090847Y0192150D01*
X0090768Y0192315D01*
X0090685Y0192478D01*
X0090598Y0192638D01*
X0090507Y0192797D01*
X0090413Y0192954D01*
X0090314Y0193108D01*
X0090212Y0193259D01*
X0090107Y0193408D01*
X0089997Y0193555D01*
X0089885Y0193699D01*
X0089769Y0193840D01*
X0089649Y0193978D01*
X0089526Y0194114D01*
X0089400Y0194246D01*
X0089271Y0194375D01*
X0089139Y0194501D01*
X0089003Y0194624D01*
X0088865Y0194744D01*
X0088724Y0194860D01*
X0088580Y0194972D01*
X0088433Y0195082D01*
X0088284Y0195187D01*
X0088133Y0195289D01*
X0087979Y0195388D01*
X0087822Y0195482D01*
X0087663Y0195573D01*
X0087503Y0195660D01*
X0087340Y0195743D01*
X0087175Y0195822D01*
X0087008Y0195897D01*
X0086840Y0195968D01*
X0086670Y0196035D01*
X0086498Y0196097D01*
X0086325Y0196156D01*
X0086151Y0196210D01*
X0085975Y0196260D01*
X0085798Y0196306D01*
X0085620Y0196348D01*
X0085441Y0196385D01*
X0085261Y0196418D01*
X0085081Y0196447D01*
X0084900Y0196471D01*
X0084718Y0196491D01*
X0084536Y0196506D01*
X0084353Y0196517D01*
X0084171Y0196524D01*
X0083988Y0196526D01*
X0008795Y0196526D01*
X0008607Y0196524D01*
X0008418Y0196517D01*
X0008230Y0196506D01*
X0008043Y0196490D01*
X0007855Y0196469D01*
X0007669Y0196444D01*
X0007483Y0196415D01*
X0007297Y0196381D01*
X0007113Y0196342D01*
X0006930Y0196299D01*
X0006747Y0196252D01*
X0006566Y0196201D01*
X0006386Y0196144D01*
X0006208Y0196084D01*
X0006031Y0196019D01*
X0005856Y0195951D01*
X0005682Y0195877D01*
X0005510Y0195800D01*
X0005340Y0195719D01*
X0005172Y0195633D01*
X0005007Y0195544D01*
X0004843Y0195450D01*
X0004682Y0195353D01*
X0004523Y0195251D01*
X0004367Y0195146D01*
X0004213Y0195037D01*
X0004062Y0194925D01*
X0003914Y0194809D01*
X0003768Y0194689D01*
X0003626Y0194566D01*
X0003486Y0194439D01*
X0003350Y0194309D01*
X0003217Y0194176D01*
X0003087Y0194040D01*
X0002960Y0193900D01*
X0002837Y0193758D01*
X0002717Y0193612D01*
X0002601Y0193464D01*
X0002489Y0193313D01*
X0002380Y0193159D01*
X0002275Y0193003D01*
X0002173Y0192844D01*
X0002076Y0192683D01*
X0001982Y0192519D01*
X0001893Y0192354D01*
X0001807Y0192186D01*
X0001726Y0192016D01*
X0001649Y0191844D01*
X0001575Y0191670D01*
X0001507Y0191495D01*
X0001442Y0191318D01*
X0001382Y0191140D01*
X0001325Y0190960D01*
X0001274Y0190779D01*
X0001227Y0190596D01*
X0001184Y0190413D01*
X0001145Y0190229D01*
X0001111Y0190043D01*
X0001082Y0189857D01*
X0001057Y0189671D01*
X0001036Y0189483D01*
X0001020Y0189296D01*
X0001009Y0189108D01*
X0001002Y0188919D01*
X0001000Y0188731D01*
X0001000Y0019059D01*
X0001002Y0018876D01*
X0001009Y0018693D01*
X0001020Y0018510D01*
X0001035Y0018328D01*
X0001055Y0018146D01*
X0001079Y0017965D01*
X0001108Y0017784D01*
X0001141Y0017604D01*
X0001178Y0017425D01*
X0001220Y0017247D01*
X0001266Y0017070D01*
X0001316Y0016894D01*
X0001371Y0016719D01*
X0001429Y0016545D01*
X0001492Y0016374D01*
X0001559Y0016203D01*
X0001630Y0016035D01*
X0001705Y0015868D01*
X0001784Y0015703D01*
X0001867Y0015540D01*
X0001954Y0015379D01*
X0002045Y0015220D01*
X0002140Y0015063D01*
X0002238Y0014909D01*
X0002341Y0014757D01*
X0002446Y0014608D01*
X0002556Y0014461D01*
X0002669Y0014317D01*
X0002785Y0014176D01*
X0002905Y0014037D01*
X0003028Y0013902D01*
X0003154Y0013769D01*
X0003283Y0013640D01*
X0003416Y0013514D01*
X0003551Y0013391D01*
X0003690Y0013271D01*
X0003831Y0013155D01*
X0003975Y0013042D01*
X0004122Y0012932D01*
X0004271Y0012827D01*
X0004423Y0012724D01*
X0004577Y0012626D01*
X0004734Y0012531D01*
X0004893Y0012440D01*
X0005054Y0012353D01*
X0005217Y0012270D01*
X0005382Y0012191D01*
X0005549Y0012116D01*
X0005717Y0012045D01*
X0005888Y0011978D01*
X0006059Y0011915D01*
X0006233Y0011857D01*
X0006408Y0011802D01*
X0006584Y0011752D01*
X0006761Y0011706D01*
X0006939Y0011664D01*
X0007118Y0011627D01*
X0007298Y0011594D01*
X0007479Y0011565D01*
X0007660Y0011541D01*
X0007842Y0011521D01*
X0008024Y0011506D01*
X0008207Y0011495D01*
X0008390Y0011488D01*
X0008573Y0011486D01*
X0019504Y0021722D02*
X0019506Y0021819D01*
X0019512Y0021916D01*
X0019522Y0022012D01*
X0019536Y0022108D01*
X0019554Y0022204D01*
X0019575Y0022298D01*
X0019601Y0022392D01*
X0019630Y0022484D01*
X0019664Y0022575D01*
X0019700Y0022665D01*
X0019741Y0022753D01*
X0019785Y0022839D01*
X0019833Y0022924D01*
X0019884Y0023006D01*
X0019938Y0023087D01*
X0019996Y0023165D01*
X0020057Y0023240D01*
X0020120Y0023313D01*
X0020187Y0023384D01*
X0020257Y0023451D01*
X0020329Y0023516D01*
X0020404Y0023577D01*
X0020482Y0023636D01*
X0020561Y0023691D01*
X0020643Y0023743D01*
X0020727Y0023791D01*
X0020813Y0023836D01*
X0020901Y0023878D01*
X0020990Y0023916D01*
X0021081Y0023950D01*
X0021173Y0023980D01*
X0021266Y0024007D01*
X0021361Y0024029D01*
X0021456Y0024048D01*
X0021552Y0024063D01*
X0021648Y0024074D01*
X0021745Y0024081D01*
X0021842Y0024084D01*
X0021939Y0024083D01*
X0022036Y0024078D01*
X0022132Y0024069D01*
X0022228Y0024056D01*
X0022324Y0024039D01*
X0022419Y0024018D01*
X0022512Y0023994D01*
X0022605Y0023965D01*
X0022697Y0023933D01*
X0022787Y0023897D01*
X0022875Y0023858D01*
X0022962Y0023814D01*
X0023047Y0023768D01*
X0023130Y0023717D01*
X0023211Y0023664D01*
X0023289Y0023607D01*
X0023366Y0023547D01*
X0023439Y0023484D01*
X0023510Y0023418D01*
X0023578Y0023349D01*
X0023644Y0023277D01*
X0023706Y0023203D01*
X0023765Y0023126D01*
X0023821Y0023047D01*
X0023874Y0022965D01*
X0023924Y0022882D01*
X0023969Y0022796D01*
X0024012Y0022709D01*
X0024051Y0022620D01*
X0024086Y0022530D01*
X0024117Y0022438D01*
X0024144Y0022345D01*
X0024168Y0022251D01*
X0024188Y0022156D01*
X0024204Y0022060D01*
X0024216Y0021964D01*
X0024224Y0021867D01*
X0024228Y0021770D01*
X0024228Y0021674D01*
X0024224Y0021577D01*
X0024216Y0021480D01*
X0024204Y0021384D01*
X0024188Y0021288D01*
X0024168Y0021193D01*
X0024144Y0021099D01*
X0024117Y0021006D01*
X0024086Y0020914D01*
X0024051Y0020824D01*
X0024012Y0020735D01*
X0023969Y0020648D01*
X0023924Y0020562D01*
X0023874Y0020479D01*
X0023821Y0020397D01*
X0023765Y0020318D01*
X0023706Y0020241D01*
X0023644Y0020167D01*
X0023578Y0020095D01*
X0023510Y0020026D01*
X0023439Y0019960D01*
X0023366Y0019897D01*
X0023289Y0019837D01*
X0023211Y0019780D01*
X0023130Y0019727D01*
X0023047Y0019676D01*
X0022962Y0019630D01*
X0022875Y0019586D01*
X0022787Y0019547D01*
X0022697Y0019511D01*
X0022605Y0019479D01*
X0022512Y0019450D01*
X0022419Y0019426D01*
X0022324Y0019405D01*
X0022228Y0019388D01*
X0022132Y0019375D01*
X0022036Y0019366D01*
X0021939Y0019361D01*
X0021842Y0019360D01*
X0021745Y0019363D01*
X0021648Y0019370D01*
X0021552Y0019381D01*
X0021456Y0019396D01*
X0021361Y0019415D01*
X0021266Y0019437D01*
X0021173Y0019464D01*
X0021081Y0019494D01*
X0020990Y0019528D01*
X0020901Y0019566D01*
X0020813Y0019608D01*
X0020727Y0019653D01*
X0020643Y0019701D01*
X0020561Y0019753D01*
X0020482Y0019808D01*
X0020404Y0019867D01*
X0020329Y0019928D01*
X0020257Y0019993D01*
X0020187Y0020060D01*
X0020120Y0020131D01*
X0020057Y0020204D01*
X0019996Y0020279D01*
X0019938Y0020357D01*
X0019884Y0020438D01*
X0019833Y0020520D01*
X0019785Y0020605D01*
X0019741Y0020691D01*
X0019700Y0020779D01*
X0019664Y0020869D01*
X0019630Y0020960D01*
X0019601Y0021052D01*
X0019575Y0021146D01*
X0019554Y0021240D01*
X0019536Y0021336D01*
X0019522Y0021432D01*
X0019512Y0021528D01*
X0019506Y0021625D01*
X0019504Y0021722D01*
X0019504Y0049281D02*
X0019506Y0049378D01*
X0019512Y0049475D01*
X0019522Y0049571D01*
X0019536Y0049667D01*
X0019554Y0049763D01*
X0019575Y0049857D01*
X0019601Y0049951D01*
X0019630Y0050043D01*
X0019664Y0050134D01*
X0019700Y0050224D01*
X0019741Y0050312D01*
X0019785Y0050398D01*
X0019833Y0050483D01*
X0019884Y0050565D01*
X0019938Y0050646D01*
X0019996Y0050724D01*
X0020057Y0050799D01*
X0020120Y0050872D01*
X0020187Y0050943D01*
X0020257Y0051010D01*
X0020329Y0051075D01*
X0020404Y0051136D01*
X0020482Y0051195D01*
X0020561Y0051250D01*
X0020643Y0051302D01*
X0020727Y0051350D01*
X0020813Y0051395D01*
X0020901Y0051437D01*
X0020990Y0051475D01*
X0021081Y0051509D01*
X0021173Y0051539D01*
X0021266Y0051566D01*
X0021361Y0051588D01*
X0021456Y0051607D01*
X0021552Y0051622D01*
X0021648Y0051633D01*
X0021745Y0051640D01*
X0021842Y0051643D01*
X0021939Y0051642D01*
X0022036Y0051637D01*
X0022132Y0051628D01*
X0022228Y0051615D01*
X0022324Y0051598D01*
X0022419Y0051577D01*
X0022512Y0051553D01*
X0022605Y0051524D01*
X0022697Y0051492D01*
X0022787Y0051456D01*
X0022875Y0051417D01*
X0022962Y0051373D01*
X0023047Y0051327D01*
X0023130Y0051276D01*
X0023211Y0051223D01*
X0023289Y0051166D01*
X0023366Y0051106D01*
X0023439Y0051043D01*
X0023510Y0050977D01*
X0023578Y0050908D01*
X0023644Y0050836D01*
X0023706Y0050762D01*
X0023765Y0050685D01*
X0023821Y0050606D01*
X0023874Y0050524D01*
X0023924Y0050441D01*
X0023969Y0050355D01*
X0024012Y0050268D01*
X0024051Y0050179D01*
X0024086Y0050089D01*
X0024117Y0049997D01*
X0024144Y0049904D01*
X0024168Y0049810D01*
X0024188Y0049715D01*
X0024204Y0049619D01*
X0024216Y0049523D01*
X0024224Y0049426D01*
X0024228Y0049329D01*
X0024228Y0049233D01*
X0024224Y0049136D01*
X0024216Y0049039D01*
X0024204Y0048943D01*
X0024188Y0048847D01*
X0024168Y0048752D01*
X0024144Y0048658D01*
X0024117Y0048565D01*
X0024086Y0048473D01*
X0024051Y0048383D01*
X0024012Y0048294D01*
X0023969Y0048207D01*
X0023924Y0048121D01*
X0023874Y0048038D01*
X0023821Y0047956D01*
X0023765Y0047877D01*
X0023706Y0047800D01*
X0023644Y0047726D01*
X0023578Y0047654D01*
X0023510Y0047585D01*
X0023439Y0047519D01*
X0023366Y0047456D01*
X0023289Y0047396D01*
X0023211Y0047339D01*
X0023130Y0047286D01*
X0023047Y0047235D01*
X0022962Y0047189D01*
X0022875Y0047145D01*
X0022787Y0047106D01*
X0022697Y0047070D01*
X0022605Y0047038D01*
X0022512Y0047009D01*
X0022419Y0046985D01*
X0022324Y0046964D01*
X0022228Y0046947D01*
X0022132Y0046934D01*
X0022036Y0046925D01*
X0021939Y0046920D01*
X0021842Y0046919D01*
X0021745Y0046922D01*
X0021648Y0046929D01*
X0021552Y0046940D01*
X0021456Y0046955D01*
X0021361Y0046974D01*
X0021266Y0046996D01*
X0021173Y0047023D01*
X0021081Y0047053D01*
X0020990Y0047087D01*
X0020901Y0047125D01*
X0020813Y0047167D01*
X0020727Y0047212D01*
X0020643Y0047260D01*
X0020561Y0047312D01*
X0020482Y0047367D01*
X0020404Y0047426D01*
X0020329Y0047487D01*
X0020257Y0047552D01*
X0020187Y0047619D01*
X0020120Y0047690D01*
X0020057Y0047763D01*
X0019996Y0047838D01*
X0019938Y0047916D01*
X0019884Y0047997D01*
X0019833Y0048079D01*
X0019785Y0048164D01*
X0019741Y0048250D01*
X0019700Y0048338D01*
X0019664Y0048428D01*
X0019630Y0048519D01*
X0019601Y0048611D01*
X0019575Y0048705D01*
X0019554Y0048799D01*
X0019536Y0048895D01*
X0019522Y0048991D01*
X0019512Y0049087D01*
X0019506Y0049184D01*
X0019504Y0049281D01*
D11*
X0046079Y0093770D03*
X0053559Y0093770D03*
X0054346Y0066211D03*
X0046866Y0066211D03*
X0046866Y0050463D03*
X0054346Y0050463D03*
X0070882Y0076841D03*
X0078362Y0076841D03*
X0078756Y0091801D03*
X0071276Y0091801D03*
X0071669Y0120541D03*
X0071669Y0134321D03*
X0071906Y0145541D03*
X0079386Y0145541D03*
X0079150Y0134321D03*
X0079150Y0120541D03*
X0040961Y0123297D03*
X0033480Y0123297D03*
X0017811Y0175856D03*
X0010331Y0175856D03*
D12*
X0049701Y0118360D03*
X0049701Y0110880D03*
D13*
X0046472Y0080384D03*
X0053953Y0080384D03*
X0071472Y0105699D03*
X0078953Y0105699D03*
X0018126Y0120148D03*
X0010646Y0120148D03*
X0011024Y0136352D03*
X0010457Y0150541D03*
X0017937Y0150541D03*
X0018504Y0136352D03*
D14*
X0018854Y0107051D03*
X0023854Y0107051D03*
X0013854Y0107051D03*
X0008854Y0107051D03*
X0008854Y0082851D03*
X0013854Y0082851D03*
X0018854Y0082851D03*
X0023854Y0082851D03*
X0068697Y0160804D03*
X0073697Y0160804D03*
X0078697Y0160804D03*
X0083697Y0160804D03*
X0083697Y0185004D03*
X0078697Y0185004D03*
X0073697Y0185004D03*
X0068697Y0185004D03*
D15*
X0050882Y0148100D03*
X0040882Y0148100D03*
D16*
X0019898Y0162667D03*
X0011236Y0158927D03*
X0011236Y0166407D03*
D17*
X0035154Y0018573D03*
D18*
X0035154Y0027628D03*
X0035154Y0038258D03*
X0035154Y0047313D03*
X0008579Y0045738D03*
X0008579Y0054400D03*
X0008579Y0035108D03*
X0008579Y0022510D03*
D19*
X0058874Y0020148D03*
X0066748Y0020148D03*
X0074622Y0020148D03*
D20*
X0084071Y0020148D03*
X0049425Y0020148D03*
D21*
X0062791Y0040030D03*
X0067791Y0040030D03*
X0072791Y0040030D03*
X0077791Y0040030D03*
X0077791Y0061683D03*
X0072791Y0061683D03*
X0067791Y0061683D03*
X0062791Y0061683D03*
D22*
X0070291Y0050856D03*
D23*
X0033677Y0071919D03*
X0033677Y0079400D03*
D24*
X0045488Y0033533D03*
X0045488Y0183140D03*
D25*
X0037417Y0192589D02*
X0078756Y0192589D01*
X0083677Y0187667D01*
X0083677Y0185699D01*
X0083697Y0185004D01*
X0078697Y0185004D02*
X0077772Y0185699D01*
X0077772Y0187667D01*
X0074819Y0190620D01*
X0005921Y0190620D01*
X0005921Y0165030D01*
X0007890Y0163061D01*
X0015764Y0163061D01*
X0015764Y0160108D01*
X0016748Y0159124D01*
X0017732Y0159124D01*
X0017732Y0151250D01*
X0017937Y0150541D01*
X0015764Y0141407D02*
X0010843Y0136486D01*
X0011024Y0136352D01*
X0011827Y0135502D01*
X0015764Y0131565D01*
X0017732Y0131565D01*
X0017732Y0120738D01*
X0018126Y0120148D01*
X0019701Y0112864D02*
X0019701Y0107943D01*
X0018854Y0107051D01*
X0014780Y0106959D02*
X0014780Y0101053D01*
X0074819Y0101053D01*
X0078756Y0104990D01*
X0078953Y0105699D01*
X0079740Y0105974D01*
X0079740Y0110896D01*
X0080724Y0113848D02*
X0082693Y0111880D01*
X0082693Y0083337D01*
X0070882Y0083337D01*
X0070882Y0091211D01*
X0071276Y0091801D01*
X0070882Y0092195D01*
X0055134Y0092195D01*
X0053559Y0093770D01*
X0049228Y0098100D01*
X0008874Y0098100D01*
X0008874Y0106959D01*
X0008854Y0107051D01*
X0009858Y0112864D02*
X0005921Y0112864D01*
X0005921Y0098100D01*
X0007890Y0096132D01*
X0018717Y0096132D01*
X0018717Y0083337D01*
X0018854Y0082851D01*
X0014780Y0083337D02*
X0013854Y0082851D01*
X0014780Y0083337D02*
X0014780Y0090226D01*
X0014780Y0106959D02*
X0013854Y0107051D01*
X0014780Y0107943D01*
X0009858Y0112864D01*
X0018504Y0136352D02*
X0018717Y0136486D01*
X0021669Y0139439D01*
X0059071Y0139439D01*
X0067929Y0148297D01*
X0067929Y0150266D01*
X0073835Y0150266D01*
X0077772Y0154203D01*
X0077772Y0160108D01*
X0078697Y0160804D01*
X0078756Y0161093D01*
X0078756Y0166014D01*
X0067929Y0176841D01*
X0072850Y0181762D01*
X0072850Y0184715D01*
X0073697Y0185004D01*
X0068697Y0185004D02*
X0067929Y0184715D01*
X0067929Y0179793D01*
X0065961Y0179793D01*
X0067929Y0176841D02*
X0019701Y0176841D01*
X0018717Y0175856D01*
X0017811Y0175856D01*
X0010843Y0175856D02*
X0023638Y0188652D01*
X0064976Y0188652D01*
X0067929Y0185699D01*
X0068697Y0185004D01*
X0073697Y0160804D02*
X0072850Y0160108D01*
X0072850Y0152234D01*
X0066945Y0152234D01*
X0058087Y0143376D01*
X0058087Y0141407D01*
X0015764Y0141407D01*
X0010457Y0150541D02*
X0010843Y0151250D01*
X0010843Y0158140D01*
X0011236Y0158927D01*
X0011236Y0166407D02*
X0010843Y0166998D01*
X0010843Y0175856D01*
X0010331Y0175856D01*
X0019898Y0162667D02*
X0020685Y0162077D01*
X0029543Y0153219D01*
X0045291Y0153219D01*
X0050213Y0148297D01*
X0050882Y0148100D01*
X0041354Y0123691D02*
X0040961Y0123297D01*
X0041354Y0123691D02*
X0071866Y0123691D01*
X0071866Y0120738D01*
X0071669Y0120541D01*
X0071866Y0119754D01*
X0077772Y0113848D01*
X0080724Y0113848D01*
X0079150Y0120541D02*
X0079740Y0120738D01*
X0079740Y0127628D01*
X0083677Y0131565D01*
X0083677Y0160108D01*
X0083697Y0160804D01*
X0079386Y0145541D02*
X0079740Y0145344D01*
X0079740Y0139439D01*
X0079150Y0134321D02*
X0078756Y0133533D01*
X0078756Y0129596D01*
X0075803Y0129596D01*
X0071866Y0133533D02*
X0071866Y0123691D01*
X0071866Y0133533D02*
X0071669Y0134321D01*
X0071866Y0134518D01*
X0071866Y0145344D01*
X0071906Y0145541D01*
X0050213Y0117785D02*
X0062024Y0105974D01*
X0070882Y0105974D01*
X0071472Y0105699D01*
X0078756Y0091801D02*
X0078756Y0086289D01*
X0078362Y0076841D02*
X0078756Y0076447D01*
X0081709Y0076447D01*
X0081709Y0059715D01*
X0079740Y0057746D01*
X0067929Y0057746D01*
X0067929Y0061683D01*
X0067791Y0061683D01*
X0069898Y0065620D02*
X0070882Y0065620D01*
X0070882Y0076841D01*
X0070882Y0083337D01*
X0064976Y0082352D02*
X0055134Y0072510D01*
X0046276Y0072510D01*
X0038402Y0080384D01*
X0038402Y0083337D01*
X0024622Y0083337D01*
X0023854Y0082851D01*
X0032496Y0065620D02*
X0046276Y0065620D01*
X0046866Y0066211D01*
X0050213Y0075463D02*
X0050213Y0080384D01*
X0046472Y0080384D01*
X0054150Y0085305D02*
X0046276Y0093179D01*
X0046079Y0093770D01*
X0054150Y0085305D02*
X0058087Y0085305D01*
X0056118Y0067589D02*
X0055134Y0066604D01*
X0054346Y0066211D01*
X0056118Y0067589D02*
X0066945Y0067589D01*
X0067929Y0068573D01*
X0069898Y0065620D02*
X0071866Y0063652D01*
X0071866Y0061683D01*
X0072791Y0061683D01*
X0069898Y0065620D02*
X0063008Y0065620D01*
X0063008Y0061683D01*
X0062791Y0061683D01*
X0062024Y0061683D01*
X0056118Y0055778D01*
X0033480Y0055778D01*
X0029543Y0051841D01*
X0029543Y0033140D01*
X0010843Y0033140D01*
X0008874Y0035108D01*
X0008579Y0035108D01*
X0015764Y0048888D02*
X0032496Y0065620D01*
X0038402Y0075463D02*
X0034465Y0079400D01*
X0033677Y0079400D01*
X0034465Y0052825D02*
X0035449Y0051841D01*
X0045291Y0051841D01*
X0046276Y0050856D01*
X0046866Y0050463D01*
X0042339Y0040030D02*
X0062024Y0040030D01*
X0062791Y0040030D01*
X0062024Y0040030D02*
X0065961Y0036093D01*
X0071866Y0036093D01*
X0072850Y0035108D01*
X0074819Y0032156D02*
X0047260Y0032156D01*
X0046276Y0033140D01*
X0045488Y0033533D01*
X0045291Y0033140D01*
X0029543Y0033140D01*
X0054346Y0050463D02*
X0055134Y0049872D01*
X0060055Y0044951D01*
X0066945Y0044951D01*
X0066945Y0040030D01*
X0067791Y0040030D01*
X0072791Y0040030D02*
X0072850Y0040030D01*
X0072850Y0044951D01*
X0078756Y0044951D01*
X0077791Y0040030D02*
X0077772Y0040030D01*
X0077772Y0024281D01*
X0070882Y0024281D01*
X0066748Y0020148D01*
X0077791Y0061683D02*
X0078756Y0061683D01*
X0078756Y0071526D01*
X0050213Y0117785D02*
X0049701Y0118360D01*
X0049228Y0117785D01*
X0042339Y0117785D01*
X0038402Y0113848D01*
X0037417Y0192589D02*
X0036433Y0193573D01*
D26*
X0036433Y0193573D03*
X0065961Y0179793D03*
X0079740Y0139439D03*
X0075803Y0129596D03*
X0079740Y0110896D03*
X0078756Y0086289D03*
X0078756Y0071526D03*
X0067929Y0068573D03*
X0064976Y0082352D03*
X0059071Y0080384D03*
X0058087Y0085305D03*
X0050213Y0075463D03*
X0038402Y0075463D03*
X0034465Y0052825D03*
X0042339Y0040030D03*
X0015764Y0048888D03*
X0014780Y0090226D03*
X0019701Y0112864D03*
X0038402Y0113848D03*
X0072850Y0035108D03*
X0074819Y0032156D03*
X0078756Y0044951D03*
D27*
X0059071Y0080384D02*
X0053953Y0080384D01*
X0049701Y0110880D02*
X0049228Y0110896D01*
X0033480Y0110896D01*
X0033480Y0115817D01*
X0014780Y0115817D01*
X0010843Y0119754D01*
X0010646Y0120148D01*
X0009858Y0119754D01*
X0006906Y0119754D01*
X0006906Y0140423D01*
X0009858Y0143376D01*
X0036433Y0143376D01*
X0040370Y0147313D01*
X0040882Y0148100D01*
X0041354Y0147313D01*
X0045291Y0143376D01*
X0056118Y0143376D01*
X0056118Y0148297D01*
X0067929Y0160108D01*
X0068697Y0160804D01*
X0033480Y0123297D02*
X0033480Y0115817D01*
X0033480Y0110896D02*
X0033480Y0107943D01*
X0024622Y0107943D01*
X0023854Y0107051D01*
X0008854Y0082851D02*
X0007890Y0083337D01*
X0007890Y0094163D01*
X0006906Y0094163D01*
X0003953Y0097116D01*
X0003953Y0119754D01*
X0006906Y0119754D01*
X0033677Y0071919D02*
X0033480Y0071526D01*
X0020685Y0058730D01*
X0002969Y0058730D01*
X0002969Y0023297D01*
X0007890Y0023297D01*
X0008579Y0022510D01*
M02*
