G75*
%MOIN*%
%OFA0B0*%
%FSLAX25Y25*%
%IPPOS*%
%LPD*%
%AMOC8*
5,1,8,0,0,1.08239X$1,22.5*
%
%ADD10C,0.00000*%
%ADD11C,0.00300*%
%ADD12R,0.01181X0.00591*%
%ADD13R,0.01181X0.01181*%
%ADD14C,0.00500*%
%ADD15R,0.00591X0.01181*%
%ADD16R,0.00020X0.00240*%
%ADD17R,0.00020X0.00340*%
%ADD18R,0.00020X0.00380*%
%ADD19R,0.00020X0.00420*%
%ADD20R,0.00020X0.00460*%
%ADD21R,0.00020X0.00480*%
%ADD22R,0.00020X0.00500*%
%ADD23R,0.00020X0.00520*%
%ADD24R,0.00020X0.00540*%
%ADD25R,0.00020X0.00560*%
%ADD26R,0.00020X0.00580*%
%ADD27R,0.00020X0.00600*%
%ADD28R,0.00020X0.00600*%
%ADD29R,0.00020X0.00620*%
%ADD30R,0.00020X0.00620*%
%ADD31R,0.00020X0.00640*%
%ADD32R,0.00020X0.00660*%
%ADD33R,0.00020X0.00660*%
%ADD34R,0.00020X0.00680*%
%ADD35R,0.00020X0.00700*%
%ADD36R,0.00020X0.00720*%
%ADD37R,0.00020X0.00720*%
%ADD38R,0.00020X0.00740*%
%ADD39R,0.00020X0.00740*%
%ADD40R,0.00020X0.00760*%
%ADD41R,0.00020X0.00760*%
%ADD42R,0.00020X0.00760*%
%ADD43R,0.00020X0.00780*%
%ADD44R,0.00020X0.00780*%
%ADD45R,0.00020X0.00800*%
%ADD46R,0.00020X0.00800*%
%ADD47R,0.00020X0.00820*%
%ADD48R,0.00020X0.00820*%
%ADD49R,0.00020X0.00840*%
%ADD50R,0.00020X0.00840*%
%ADD51R,0.00020X0.00860*%
%ADD52R,0.00020X0.00860*%
%ADD53R,0.00020X0.00880*%
%ADD54R,0.00020X0.00880*%
%ADD55R,0.00020X0.00900*%
%ADD56R,0.00020X0.00900*%
%ADD57R,0.00020X0.00920*%
%ADD58R,0.00020X0.00920*%
%ADD59R,0.00020X0.00940*%
%ADD60R,0.00020X0.00940*%
%ADD61R,0.00020X0.00960*%
%ADD62R,0.00020X0.00980*%
%ADD63R,0.00020X0.01280*%
%ADD64R,0.00020X0.00980*%
%ADD65R,0.00020X0.01560*%
%ADD66R,0.00020X0.00980*%
%ADD67R,0.00020X0.01800*%
%ADD68R,0.00020X0.01000*%
%ADD69R,0.00020X0.02040*%
%ADD70R,0.00020X0.02220*%
%ADD71R,0.00020X0.01000*%
%ADD72R,0.00020X0.02400*%
%ADD73R,0.00020X0.01020*%
%ADD74R,0.00020X0.02560*%
%ADD75R,0.00020X0.01020*%
%ADD76R,0.00020X0.02720*%
%ADD77R,0.00020X0.01040*%
%ADD78R,0.00020X0.02860*%
%ADD79R,0.00020X0.01040*%
%ADD80R,0.00020X0.03020*%
%ADD81R,0.00020X0.01040*%
%ADD82R,0.00020X0.03140*%
%ADD83R,0.00020X0.01060*%
%ADD84R,0.00020X0.03260*%
%ADD85R,0.00020X0.01060*%
%ADD86R,0.00020X0.03380*%
%ADD87R,0.00020X0.03480*%
%ADD88R,0.00020X0.01060*%
%ADD89R,0.00020X0.03600*%
%ADD90R,0.00020X0.01060*%
%ADD91R,0.00020X0.03680*%
%ADD92R,0.00020X0.03780*%
%ADD93R,0.00020X0.01080*%
%ADD94R,0.00020X0.03860*%
%ADD95R,0.00020X0.01080*%
%ADD96R,0.00020X0.03980*%
%ADD97R,0.00020X0.01080*%
%ADD98R,0.00020X0.04060*%
%ADD99R,0.00020X0.04160*%
%ADD100R,0.00020X0.01100*%
%ADD101R,0.00020X0.04240*%
%ADD102R,0.00020X0.01100*%
%ADD103R,0.00020X0.04320*%
%ADD104R,0.00020X0.04400*%
%ADD105R,0.00020X0.01120*%
%ADD106R,0.00020X0.04480*%
%ADD107R,0.00020X0.01120*%
%ADD108R,0.00020X0.04560*%
%ADD109R,0.00020X0.04660*%
%ADD110R,0.00020X0.04740*%
%ADD111R,0.00020X0.01140*%
%ADD112R,0.00020X0.04820*%
%ADD113R,0.00020X0.01140*%
%ADD114R,0.00020X0.04880*%
%ADD115R,0.00020X0.01140*%
%ADD116R,0.00020X0.04960*%
%ADD117R,0.00020X0.05040*%
%ADD118R,0.00020X0.01160*%
%ADD119R,0.00020X0.05120*%
%ADD120R,0.00020X0.01160*%
%ADD121R,0.00020X0.05200*%
%ADD122R,0.00020X0.05280*%
%ADD123R,0.00020X0.01160*%
%ADD124R,0.00020X0.05340*%
%ADD125R,0.00020X0.01180*%
%ADD126R,0.00020X0.05420*%
%ADD127R,0.00020X0.01180*%
%ADD128R,0.00020X0.05500*%
%ADD129R,0.00020X0.05560*%
%ADD130R,0.00020X0.01180*%
%ADD131R,0.00020X0.05620*%
%ADD132R,0.00020X0.01200*%
%ADD133R,0.00020X0.05700*%
%ADD134R,0.00020X0.01220*%
%ADD135R,0.00020X0.05780*%
%ADD136R,0.00020X0.01220*%
%ADD137R,0.00020X0.05840*%
%ADD138R,0.00020X0.05900*%
%ADD139R,0.00020X0.01220*%
%ADD140R,0.00020X0.05960*%
%ADD141R,0.00020X0.01240*%
%ADD142R,0.00020X0.06040*%
%ADD143R,0.00020X0.01240*%
%ADD144R,0.00020X0.06080*%
%ADD145R,0.00020X0.06160*%
%ADD146R,0.00020X0.06220*%
%ADD147R,0.00020X0.01240*%
%ADD148R,0.00020X0.06300*%
%ADD149R,0.00020X0.01260*%
%ADD150R,0.00020X0.06340*%
%ADD151R,0.00020X0.01260*%
%ADD152R,0.00020X0.06420*%
%ADD153R,0.00020X0.06460*%
%ADD154R,0.00020X0.01260*%
%ADD155R,0.00020X0.06540*%
%ADD156R,0.00020X0.06600*%
%ADD157R,0.00020X0.06640*%
%ADD158R,0.00020X0.06720*%
%ADD159R,0.00020X0.01280*%
%ADD160R,0.00020X0.06760*%
%ADD161R,0.00020X0.06840*%
%ADD162R,0.00020X0.01280*%
%ADD163R,0.00020X0.06880*%
%ADD164R,0.00020X0.01280*%
%ADD165R,0.00020X0.06940*%
%ADD166R,0.00020X0.07000*%
%ADD167R,0.00020X0.01300*%
%ADD168R,0.00020X0.07060*%
%ADD169R,0.00020X0.01320*%
%ADD170R,0.00020X0.07100*%
%ADD171R,0.00020X0.01320*%
%ADD172R,0.00020X0.07160*%
%ADD173R,0.00020X0.01320*%
%ADD174R,0.00020X0.07220*%
%ADD175R,0.00020X0.07280*%
%ADD176R,0.00020X0.01320*%
%ADD177R,0.00020X0.07320*%
%ADD178R,0.00020X0.07380*%
%ADD179R,0.00020X0.01340*%
%ADD180R,0.00020X0.07440*%
%ADD181R,0.00020X0.01340*%
%ADD182R,0.00020X0.07480*%
%ADD183R,0.00020X0.07540*%
%ADD184R,0.00020X0.01340*%
%ADD185R,0.00020X0.07580*%
%ADD186R,0.00020X0.07620*%
%ADD187R,0.00020X0.07700*%
%ADD188R,0.00020X0.01360*%
%ADD189R,0.00020X0.07740*%
%ADD190R,0.00020X0.01360*%
%ADD191R,0.00020X0.07780*%
%ADD192R,0.00020X0.01380*%
%ADD193R,0.00020X0.07840*%
%ADD194R,0.00020X0.01380*%
%ADD195R,0.00020X0.07880*%
%ADD196R,0.00020X0.01380*%
%ADD197R,0.00020X0.07920*%
%ADD198R,0.00020X0.08000*%
%ADD199R,0.00020X0.08040*%
%ADD200R,0.00020X0.08080*%
%ADD201R,0.00020X0.08140*%
%ADD202R,0.00020X0.08180*%
%ADD203R,0.00020X0.01400*%
%ADD204R,0.00020X0.08220*%
%ADD205R,0.00020X0.01420*%
%ADD206R,0.00020X0.08260*%
%ADD207R,0.00020X0.01420*%
%ADD208R,0.00020X0.08320*%
%ADD209R,0.00020X0.01420*%
%ADD210R,0.00020X0.08360*%
%ADD211R,0.00020X0.08400*%
%ADD212R,0.00020X0.08440*%
%ADD213R,0.00020X0.08480*%
%ADD214R,0.00020X0.08560*%
%ADD215R,0.00020X0.01440*%
%ADD216R,0.00020X0.08600*%
%ADD217R,0.00020X0.01440*%
%ADD218R,0.00020X0.08640*%
%ADD219R,0.00020X0.01440*%
%ADD220R,0.00020X0.08680*%
%ADD221R,0.00020X0.08720*%
%ADD222R,0.00020X0.08760*%
%ADD223R,0.00020X0.01460*%
%ADD224R,0.00020X0.08820*%
%ADD225R,0.00020X0.08860*%
%ADD226R,0.00020X0.01480*%
%ADD227R,0.00020X0.08900*%
%ADD228R,0.00020X0.01480*%
%ADD229R,0.00020X0.08940*%
%ADD230R,0.00020X0.01480*%
%ADD231R,0.00020X0.08980*%
%ADD232R,0.00020X0.09020*%
%ADD233R,0.00020X0.01480*%
%ADD234R,0.00020X0.09060*%
%ADD235R,0.00020X0.09100*%
%ADD236R,0.00020X0.09140*%
%ADD237R,0.00020X0.01500*%
%ADD238R,0.00020X0.09180*%
%ADD239R,0.00020X0.01500*%
%ADD240R,0.00020X0.09220*%
%ADD241R,0.00020X0.09260*%
%ADD242R,0.00020X0.09300*%
%ADD243R,0.00020X0.09340*%
%ADD244R,0.00020X0.09380*%
%ADD245R,0.00020X0.01520*%
%ADD246R,0.00020X0.09420*%
%ADD247R,0.00020X0.01520*%
%ADD248R,0.00020X0.09460*%
%ADD249R,0.00020X0.01520*%
%ADD250R,0.00020X0.09500*%
%ADD251R,0.00020X0.09540*%
%ADD252R,0.00020X0.01520*%
%ADD253R,0.00020X0.09580*%
%ADD254R,0.00020X0.09620*%
%ADD255R,0.00020X0.01540*%
%ADD256R,0.00020X0.09660*%
%ADD257R,0.00020X0.01540*%
%ADD258R,0.00020X0.09680*%
%ADD259R,0.00020X0.09720*%
%ADD260R,0.00020X0.01540*%
%ADD261R,0.00020X0.09760*%
%ADD262R,0.00020X0.09800*%
%ADD263R,0.00020X0.01560*%
%ADD264R,0.00020X0.09840*%
%ADD265R,0.00020X0.09880*%
%ADD266R,0.00020X0.09920*%
%ADD267R,0.00020X0.01560*%
%ADD268R,0.00020X0.09960*%
%ADD269R,0.00020X0.09980*%
%ADD270R,0.00020X0.01580*%
%ADD271R,0.00020X0.10020*%
%ADD272R,0.00020X0.01580*%
%ADD273R,0.00020X0.10060*%
%ADD274R,0.00020X0.01580*%
%ADD275R,0.00020X0.10100*%
%ADD276R,0.00020X0.01580*%
%ADD277R,0.00020X0.10140*%
%ADD278R,0.00020X0.10180*%
%ADD279R,0.00020X0.01600*%
%ADD280R,0.00020X0.10200*%
%ADD281R,0.00020X0.01600*%
%ADD282R,0.00020X0.10240*%
%ADD283R,0.00020X0.10260*%
%ADD284R,0.00020X0.10300*%
%ADD285R,0.00020X0.01620*%
%ADD286R,0.00020X0.10340*%
%ADD287R,0.00020X0.01620*%
%ADD288R,0.00020X0.10380*%
%ADD289R,0.00020X0.01620*%
%ADD290R,0.00020X0.10400*%
%ADD291R,0.00020X0.10440*%
%ADD292R,0.00020X0.01620*%
%ADD293R,0.00020X0.10480*%
%ADD294R,0.00020X0.01640*%
%ADD295R,0.00020X0.10520*%
%ADD296R,0.00020X0.10560*%
%ADD297R,0.00020X0.01640*%
%ADD298R,0.00020X0.10580*%
%ADD299R,0.00020X0.10600*%
%ADD300R,0.00020X0.01660*%
%ADD301R,0.00020X0.10640*%
%ADD302R,0.00020X0.01660*%
%ADD303R,0.00020X0.10680*%
%ADD304R,0.00020X0.10720*%
%ADD305R,0.00020X0.01660*%
%ADD306R,0.00020X0.10740*%
%ADD307R,0.00020X0.01680*%
%ADD308R,0.00020X0.10780*%
%ADD309R,0.00020X0.10820*%
%ADD310R,0.00020X0.10860*%
%ADD311R,0.00020X0.10860*%
%ADD312R,0.00020X0.01680*%
%ADD313R,0.00020X0.10900*%
%ADD314R,0.00020X0.10940*%
%ADD315R,0.00020X0.01680*%
%ADD316R,0.00020X0.10560*%
%ADD317R,0.00020X0.00400*%
%ADD318R,0.00020X0.01680*%
%ADD319R,0.00020X0.01700*%
%ADD320R,0.00020X0.10580*%
%ADD321R,0.00020X0.00400*%
%ADD322R,0.00020X0.01700*%
%ADD323R,0.00020X0.10600*%
%ADD324R,0.00020X0.00380*%
%ADD325R,0.00020X0.10640*%
%ADD326R,0.00020X0.00380*%
%ADD327R,0.00020X0.01720*%
%ADD328R,0.00020X0.01720*%
%ADD329R,0.00020X0.10680*%
%ADD330R,0.00020X0.10740*%
%ADD331R,0.00020X0.10800*%
%ADD332R,0.00020X0.11240*%
%ADD333R,0.00020X0.01720*%
%ADD334R,0.00020X0.11280*%
%ADD335R,0.00020X0.11320*%
%ADD336R,0.00020X0.01740*%
%ADD337R,0.00020X0.11340*%
%ADD338R,0.00020X0.01740*%
%ADD339R,0.00020X0.11380*%
%ADD340R,0.00020X0.01740*%
%ADD341R,0.00020X0.11420*%
%ADD342R,0.00020X0.11440*%
%ADD343R,0.00020X0.01760*%
%ADD344R,0.00020X0.11460*%
%ADD345R,0.00020X0.11500*%
%ADD346R,0.00020X0.01740*%
%ADD347R,0.00020X0.11540*%
%ADD348R,0.00020X0.11560*%
%ADD349R,0.00020X0.01760*%
%ADD350R,0.00020X0.11580*%
%ADD351R,0.00020X0.01760*%
%ADD352R,0.00020X0.11620*%
%ADD353R,0.00020X0.01780*%
%ADD354R,0.00020X0.11640*%
%ADD355R,0.00020X0.01780*%
%ADD356R,0.00020X0.11680*%
%ADD357R,0.00020X0.11720*%
%ADD358R,0.00020X0.01780*%
%ADD359R,0.00020X0.11740*%
%ADD360R,0.00020X0.01780*%
%ADD361R,0.00020X0.11760*%
%ADD362R,0.00020X0.11800*%
%ADD363R,0.00020X0.11840*%
%ADD364R,0.00020X0.11860*%
%ADD365R,0.00020X0.01800*%
%ADD366R,0.00020X0.11880*%
%ADD367R,0.00020X0.11920*%
%ADD368R,0.00020X0.11940*%
%ADD369R,0.00020X0.11980*%
%ADD370R,0.00020X0.12000*%
%ADD371R,0.00020X0.01820*%
%ADD372R,0.00020X0.12020*%
%ADD373R,0.00020X0.01820*%
%ADD374R,0.00020X0.12060*%
%ADD375R,0.00020X0.01820*%
%ADD376R,0.00020X0.12100*%
%ADD377R,0.00020X0.12100*%
%ADD378R,0.00020X0.12140*%
%ADD379R,0.00020X0.01840*%
%ADD380R,0.00020X0.12160*%
%ADD381R,0.00020X0.01840*%
%ADD382R,0.00020X0.12200*%
%ADD383R,0.00020X0.01840*%
%ADD384R,0.00020X0.12220*%
%ADD385R,0.00020X0.01860*%
%ADD386R,0.00020X0.12240*%
%ADD387R,0.00020X0.12280*%
%ADD388R,0.00020X0.12320*%
%ADD389R,0.00020X0.01860*%
%ADD390R,0.00020X0.12340*%
%ADD391R,0.00020X0.12360*%
%ADD392R,0.00020X0.12400*%
%ADD393R,0.00020X0.12420*%
%ADD394R,0.00020X0.12460*%
%ADD395R,0.00020X0.01860*%
%ADD396R,0.00020X0.01880*%
%ADD397R,0.00020X0.12500*%
%ADD398R,0.00020X0.01880*%
%ADD399R,0.00020X0.12540*%
%ADD400R,0.00020X0.01880*%
%ADD401R,0.00020X0.12540*%
%ADD402R,0.00020X0.01880*%
%ADD403R,0.00020X0.12580*%
%ADD404R,0.00020X0.12620*%
%ADD405R,0.00020X0.01900*%
%ADD406R,0.00020X0.12640*%
%ADD407R,0.00020X0.01900*%
%ADD408R,0.00020X0.12660*%
%ADD409R,0.00020X0.12680*%
%ADD410R,0.00020X0.12720*%
%ADD411R,0.00020X0.12760*%
%ADD412R,0.00020X0.01920*%
%ADD413R,0.00020X0.12760*%
%ADD414R,0.00020X0.12800*%
%ADD415R,0.00020X0.01920*%
%ADD416R,0.00020X0.12820*%
%ADD417R,0.00020X0.01920*%
%ADD418R,0.00020X0.12860*%
%ADD419R,0.00020X0.12880*%
%ADD420R,0.00020X0.12900*%
%ADD421R,0.00020X0.01920*%
%ADD422R,0.00020X0.12940*%
%ADD423R,0.00020X0.01940*%
%ADD424R,0.00020X0.12940*%
%ADD425R,0.00020X0.01940*%
%ADD426R,0.00020X0.12980*%
%ADD427R,0.00020X0.13000*%
%ADD428R,0.00020X0.13040*%
%ADD429R,0.00020X0.01940*%
%ADD430R,0.00020X0.13060*%
%ADD431R,0.00020X0.01960*%
%ADD432R,0.00020X0.13080*%
%ADD433R,0.00020X0.01960*%
%ADD434R,0.00020X0.13120*%
%ADD435R,0.00020X0.01960*%
%ADD436R,0.00020X0.13160*%
%ADD437R,0.00020X0.13180*%
%ADD438R,0.00020X0.13220*%
%ADD439R,0.00020X0.13240*%
%ADD440R,0.00020X0.01980*%
%ADD441R,0.00020X0.13260*%
%ADD442R,0.00020X0.01980*%
%ADD443R,0.00020X0.13300*%
%ADD444R,0.00020X0.01980*%
%ADD445R,0.00020X0.13300*%
%ADD446R,0.00020X0.13340*%
%ADD447R,0.00020X0.02000*%
%ADD448R,0.00020X0.13360*%
%ADD449R,0.00020X0.02000*%
%ADD450R,0.00020X0.13400*%
%ADD451R,0.00020X0.13420*%
%ADD452R,0.00020X0.13440*%
%ADD453R,0.00020X0.02020*%
%ADD454R,0.00020X0.13480*%
%ADD455R,0.00020X0.13480*%
%ADD456R,0.00020X0.13520*%
%ADD457R,0.00020X0.13540*%
%ADD458R,0.00020X0.02020*%
%ADD459R,0.00020X0.13580*%
%ADD460R,0.00020X0.13580*%
%ADD461R,0.00020X0.02020*%
%ADD462R,0.00020X0.13620*%
%ADD463R,0.00020X0.02040*%
%ADD464R,0.00020X0.13640*%
%ADD465R,0.00020X0.13660*%
%ADD466R,0.00020X0.02040*%
%ADD467R,0.00020X0.13680*%
%ADD468R,0.00020X0.13720*%
%ADD469R,0.00020X0.13740*%
%ADD470R,0.00020X0.13760*%
%ADD471R,0.00020X0.02060*%
%ADD472R,0.00020X0.13800*%
%ADD473R,0.00020X0.13820*%
%ADD474R,0.00020X0.13840*%
%ADD475R,0.00020X0.02080*%
%ADD476R,0.00020X0.13860*%
%ADD477R,0.00020X0.02060*%
%ADD478R,0.00020X0.13900*%
%ADD479R,0.00020X0.02080*%
%ADD480R,0.00020X0.13900*%
%ADD481R,0.00020X0.02080*%
%ADD482R,0.00020X0.13940*%
%ADD483R,0.00020X0.02080*%
%ADD484R,0.00020X0.13960*%
%ADD485R,0.00020X0.13980*%
%ADD486R,0.00020X0.02100*%
%ADD487R,0.00020X0.14000*%
%ADD488R,0.00020X0.14040*%
%ADD489R,0.00020X0.02100*%
%ADD490R,0.00020X0.14060*%
%ADD491R,0.00020X0.14080*%
%ADD492R,0.00020X0.14100*%
%ADD493R,0.00020X0.14140*%
%ADD494R,0.00020X0.02120*%
%ADD495R,0.00020X0.14140*%
%ADD496R,0.00020X0.02120*%
%ADD497R,0.00020X0.14180*%
%ADD498R,0.00020X0.02120*%
%ADD499R,0.00020X0.14200*%
%ADD500R,0.00020X0.02140*%
%ADD501R,0.00020X0.14220*%
%ADD502R,0.00020X0.14240*%
%ADD503R,0.00020X0.02140*%
%ADD504R,0.00020X0.14280*%
%ADD505R,0.00020X0.02140*%
%ADD506R,0.00020X0.14300*%
%ADD507R,0.00020X0.02140*%
%ADD508R,0.00020X0.14320*%
%ADD509R,0.00020X0.02160*%
%ADD510R,0.00020X0.14340*%
%ADD511R,0.00020X0.14380*%
%ADD512R,0.00020X0.02160*%
%ADD513R,0.00020X0.14380*%
%ADD514R,0.00020X0.02160*%
%ADD515R,0.00020X0.14420*%
%ADD516R,0.00020X0.02160*%
%ADD517R,0.00020X0.14440*%
%ADD518R,0.00020X0.02180*%
%ADD519R,0.00020X0.14460*%
%ADD520R,0.00020X0.02180*%
%ADD521R,0.00020X0.14480*%
%ADD522R,0.00020X0.14520*%
%ADD523R,0.00020X0.14540*%
%ADD524R,0.00020X0.02180*%
%ADD525R,0.00020X0.14560*%
%ADD526R,0.00020X0.02200*%
%ADD527R,0.00020X0.03940*%
%ADD528R,0.00020X0.10100*%
%ADD529R,0.00020X0.02200*%
%ADD530R,0.00020X0.03760*%
%ADD531R,0.00020X0.09900*%
%ADD532R,0.00020X0.03620*%
%ADD533R,0.00020X0.09760*%
%ADD534R,0.00020X0.03500*%
%ADD535R,0.00020X0.09660*%
%ADD536R,0.00020X0.03420*%
%ADD537R,0.00020X0.09580*%
%ADD538R,0.00020X0.03320*%
%ADD539R,0.00020X0.02240*%
%ADD540R,0.00020X0.03260*%
%ADD541R,0.00020X0.02220*%
%ADD542R,0.00020X0.03200*%
%ADD543R,0.00020X0.09380*%
%ADD544R,0.00020X0.02240*%
%ADD545R,0.00020X0.03140*%
%ADD546R,0.00020X0.09320*%
%ADD547R,0.00020X0.02220*%
%ADD548R,0.00020X0.03080*%
%ADD549R,0.00020X0.03040*%
%ADD550R,0.00020X0.09220*%
%ADD551R,0.00020X0.02260*%
%ADD552R,0.00020X0.02980*%
%ADD553R,0.00020X0.02940*%
%ADD554R,0.00020X0.09120*%
%ADD555R,0.00020X0.02260*%
%ADD556R,0.00020X0.02880*%
%ADD557R,0.00020X0.09080*%
%ADD558R,0.00020X0.02860*%
%ADD559R,0.00020X0.09040*%
%ADD560R,0.00020X0.02280*%
%ADD561R,0.00020X0.02800*%
%ADD562R,0.00020X0.09000*%
%ADD563R,0.00020X0.02760*%
%ADD564R,0.00020X0.08960*%
%ADD565R,0.00020X0.02280*%
%ADD566R,0.00020X0.02720*%
%ADD567R,0.00020X0.02300*%
%ADD568R,0.00020X0.02680*%
%ADD569R,0.00020X0.02280*%
%ADD570R,0.00020X0.02660*%
%ADD571R,0.00020X0.02620*%
%ADD572R,0.00020X0.08840*%
%ADD573R,0.00020X0.02300*%
%ADD574R,0.00020X0.02600*%
%ADD575R,0.00020X0.08800*%
%ADD576R,0.00020X0.02540*%
%ADD577R,0.00020X0.08760*%
%ADD578R,0.00020X0.02520*%
%ADD579R,0.00020X0.08740*%
%ADD580R,0.00020X0.02320*%
%ADD581R,0.00020X0.02500*%
%ADD582R,0.00020X0.02320*%
%ADD583R,0.00020X0.02460*%
%ADD584R,0.00020X0.08700*%
%ADD585R,0.00020X0.02320*%
%ADD586R,0.00020X0.02440*%
%ADD587R,0.00020X0.08660*%
%ADD588R,0.00020X0.02340*%
%ADD589R,0.00020X0.02400*%
%ADD590R,0.00020X0.08640*%
%ADD591R,0.00020X0.02340*%
%ADD592R,0.00020X0.02380*%
%ADD593R,0.00020X0.08620*%
%ADD594R,0.00020X0.08580*%
%ADD595R,0.00020X0.02340*%
%ADD596R,0.00020X0.08580*%
%ADD597R,0.00020X0.02360*%
%ADD598R,0.00020X0.08560*%
%ADD599R,0.00020X0.08520*%
%ADD600R,0.00020X0.02360*%
%ADD601R,0.00020X0.08500*%
%ADD602R,0.00020X0.02220*%
%ADD603R,0.00020X0.08500*%
%ADD604R,0.00020X0.02380*%
%ADD605R,0.00020X0.08480*%
%ADD606R,0.00020X0.02380*%
%ADD607R,0.00020X0.08440*%
%ADD608R,0.00020X0.02380*%
%ADD609R,0.00020X0.08420*%
%ADD610R,0.00020X0.08380*%
%ADD611R,0.00020X0.08380*%
%ADD612R,0.00020X0.02420*%
%ADD613R,0.00020X0.02060*%
%ADD614R,0.00020X0.08340*%
%ADD615R,0.00020X0.02420*%
%ADD616R,0.00020X0.08300*%
%ADD617R,0.00020X0.02440*%
%ADD618R,0.00020X0.08300*%
%ADD619R,0.00020X0.02460*%
%ADD620R,0.00020X0.08260*%
%ADD621R,0.00020X0.02460*%
%ADD622R,0.00020X0.08260*%
%ADD623R,0.00020X0.08220*%
%ADD624R,0.00020X0.02480*%
%ADD625R,0.00020X0.08200*%
%ADD626R,0.00020X0.08200*%
%ADD627R,0.00020X0.02480*%
%ADD628R,0.00020X0.08160*%
%ADD629R,0.00020X0.02480*%
%ADD630R,0.00020X0.08160*%
%ADD631R,0.00020X0.08160*%
%ADD632R,0.00020X0.02500*%
%ADD633R,0.00020X0.08120*%
%ADD634R,0.00020X0.02520*%
%ADD635R,0.00020X0.08120*%
%ADD636R,0.00020X0.08080*%
%ADD637R,0.00020X0.02520*%
%ADD638R,0.00020X0.02540*%
%ADD639R,0.00020X0.08060*%
%ADD640R,0.00020X0.02560*%
%ADD641R,0.00020X0.01660*%
%ADD642R,0.00020X0.08040*%
%ADD643R,0.00020X0.02560*%
%ADD644R,0.00020X0.02580*%
%ADD645R,0.00020X0.08040*%
%ADD646R,0.00020X0.08000*%
%ADD647R,0.00020X0.02580*%
%ADD648R,0.00020X0.02580*%
%ADD649R,0.00020X0.02600*%
%ADD650R,0.00020X0.07980*%
%ADD651R,0.00020X0.07960*%
%ADD652R,0.00020X0.07960*%
%ADD653R,0.00020X0.02620*%
%ADD654R,0.00020X0.07940*%
%ADD655R,0.00020X0.02640*%
%ADD656R,0.00020X0.07940*%
%ADD657R,0.00020X0.02640*%
%ADD658R,0.00020X0.07920*%
%ADD659R,0.00020X0.02660*%
%ADD660R,0.00020X0.07920*%
%ADD661R,0.00020X0.07900*%
%ADD662R,0.00020X0.02660*%
%ADD663R,0.00020X0.07880*%
%ADD664R,0.00020X0.07880*%
%ADD665R,0.00020X0.02680*%
%ADD666R,0.00020X0.01400*%
%ADD667R,0.00020X0.07860*%
%ADD668R,0.00020X0.02700*%
%ADD669R,0.00020X0.07860*%
%ADD670R,0.00020X0.02700*%
%ADD671R,0.00020X0.02720*%
%ADD672R,0.00020X0.07840*%
%ADD673R,0.00020X0.02720*%
%ADD674R,0.00020X0.02740*%
%ADD675R,0.00020X0.02740*%
%ADD676R,0.00020X0.01300*%
%ADD677R,0.00020X0.07820*%
%ADD678R,0.00020X0.07820*%
%ADD679R,0.00020X0.02760*%
%ADD680R,0.00020X0.02780*%
%ADD681R,0.00020X0.07800*%
%ADD682R,0.00020X0.02780*%
%ADD683R,0.00020X0.07800*%
%ADD684R,0.00020X0.02820*%
%ADD685R,0.00020X0.02820*%
%ADD686R,0.00020X0.07780*%
%ADD687R,0.00020X0.02840*%
%ADD688R,0.00020X0.02840*%
%ADD689R,0.00020X0.01200*%
%ADD690R,0.00020X0.07760*%
%ADD691R,0.00020X0.01180*%
%ADD692R,0.00020X0.07760*%
%ADD693R,0.00020X0.02860*%
%ADD694R,0.00020X0.07780*%
%ADD695R,0.00020X0.07760*%
%ADD696R,0.00020X0.02880*%
%ADD697R,0.00020X0.02880*%
%ADD698R,0.00020X0.01120*%
%ADD699R,0.00020X0.02900*%
%ADD700R,0.00020X0.07740*%
%ADD701R,0.00020X0.02900*%
%ADD702R,0.00020X0.07740*%
%ADD703R,0.00020X0.02940*%
%ADD704R,0.00020X0.02940*%
%ADD705R,0.00020X0.07740*%
%ADD706R,0.00020X0.02960*%
%ADD707R,0.00020X0.02960*%
%ADD708R,0.00020X0.01080*%
%ADD709R,0.00020X0.07720*%
%ADD710R,0.00020X0.02980*%
%ADD711R,0.00020X0.07720*%
%ADD712R,0.00020X0.03000*%
%ADD713R,0.00020X0.03020*%
%ADD714R,0.00020X0.01020*%
%ADD715R,0.00020X0.07720*%
%ADD716R,0.00020X0.03020*%
%ADD717R,0.00020X0.03060*%
%ADD718R,0.00020X0.03060*%
%ADD719R,0.00020X0.03080*%
%ADD720R,0.00020X0.00940*%
%ADD721R,0.00020X0.07720*%
%ADD722R,0.00020X0.03100*%
%ADD723R,0.00020X0.03120*%
%ADD724R,0.00020X0.00920*%
%ADD725R,0.00020X0.03120*%
%ADD726R,0.00020X0.03160*%
%ADD727R,0.00020X0.03160*%
%ADD728R,0.00020X0.00880*%
%ADD729R,0.00020X0.03200*%
%ADD730R,0.00020X0.00860*%
%ADD731R,0.00020X0.03240*%
%ADD732R,0.00020X0.03240*%
%ADD733R,0.00020X0.00840*%
%ADD734R,0.00020X0.03280*%
%ADD735R,0.00020X0.00820*%
%ADD736R,0.00020X0.03280*%
%ADD737R,0.00020X0.03300*%
%ADD738R,0.00020X0.00780*%
%ADD739R,0.00020X0.03300*%
%ADD740R,0.00020X0.00780*%
%ADD741R,0.00020X0.03340*%
%ADD742R,0.00020X0.03340*%
%ADD743R,0.00020X0.03380*%
%ADD744R,0.00020X0.03380*%
%ADD745R,0.00020X0.03400*%
%ADD746R,0.00020X0.03420*%
%ADD747R,0.00020X0.03440*%
%ADD748R,0.00020X0.00720*%
%ADD749R,0.00020X0.03440*%
%ADD750R,0.00020X0.07760*%
%ADD751R,0.00020X0.03460*%
%ADD752R,0.00020X0.03460*%
%ADD753R,0.00020X0.03500*%
%ADD754R,0.00020X0.00680*%
%ADD755R,0.00020X0.00680*%
%ADD756R,0.00020X0.03520*%
%ADD757R,0.00020X0.07780*%
%ADD758R,0.00020X0.03540*%
%ADD759R,0.00020X0.03560*%
%ADD760R,0.00020X0.03560*%
%ADD761R,0.00020X0.03580*%
%ADD762R,0.00020X0.03620*%
%ADD763R,0.00020X0.03640*%
%ADD764R,0.00020X0.00620*%
%ADD765R,0.00020X0.03640*%
%ADD766R,0.00020X0.03660*%
%ADD767R,0.00020X0.07820*%
%ADD768R,0.00020X0.03700*%
%ADD769R,0.00020X0.03700*%
%ADD770R,0.00020X0.00580*%
%ADD771R,0.00020X0.03720*%
%ADD772R,0.00020X0.00560*%
%ADD773R,0.00020X0.03740*%
%ADD774R,0.00020X0.03800*%
%ADD775R,0.00020X0.00540*%
%ADD776R,0.00020X0.07840*%
%ADD777R,0.00020X0.03800*%
%ADD778R,0.00020X0.03820*%
%ADD779R,0.00020X0.03840*%
%ADD780R,0.00020X0.03840*%
%ADD781R,0.00020X0.00520*%
%ADD782R,0.00020X0.07860*%
%ADD783R,0.00020X0.03880*%
%ADD784R,0.00020X0.00520*%
%ADD785R,0.00020X0.03900*%
%ADD786R,0.00020X0.00520*%
%ADD787R,0.00020X0.03900*%
%ADD788R,0.00020X0.07900*%
%ADD789R,0.00020X0.03920*%
%ADD790R,0.00020X0.03940*%
%ADD791R,0.00020X0.03960*%
%ADD792R,0.00020X0.00480*%
%ADD793R,0.00020X0.07920*%
%ADD794R,0.00020X0.03980*%
%ADD795R,0.00020X0.00480*%
%ADD796R,0.00020X0.04000*%
%ADD797R,0.00020X0.04020*%
%ADD798R,0.00020X0.04040*%
%ADD799R,0.00020X0.00460*%
%ADD800R,0.00020X0.04060*%
%ADD801R,0.00020X0.00460*%
%ADD802R,0.00020X0.00440*%
%ADD803R,0.00020X0.07960*%
%ADD804R,0.00020X0.04080*%
%ADD805R,0.00020X0.00440*%
%ADD806R,0.00020X0.04120*%
%ADD807R,0.00020X0.00440*%
%ADD808R,0.00020X0.04140*%
%ADD809R,0.00020X0.00420*%
%ADD810R,0.00020X0.07980*%
%ADD811R,0.00020X0.04180*%
%ADD812R,0.00020X0.00420*%
%ADD813R,0.00020X0.04200*%
%ADD814R,0.00020X0.04220*%
%ADD815R,0.00020X0.04240*%
%ADD816R,0.00020X0.08020*%
%ADD817R,0.00020X0.04280*%
%ADD818R,0.00020X0.04300*%
%ADD819R,0.00020X0.08020*%
%ADD820R,0.00020X0.04320*%
%ADD821R,0.00020X0.00380*%
%ADD822R,0.00020X0.04340*%
%ADD823R,0.00020X0.00360*%
%ADD824R,0.00020X0.04360*%
%ADD825R,0.00020X0.04380*%
%ADD826R,0.00020X0.00360*%
%ADD827R,0.00020X0.08060*%
%ADD828R,0.00020X0.04420*%
%ADD829R,0.00020X0.00340*%
%ADD830R,0.00020X0.08080*%
%ADD831R,0.00020X0.04440*%
%ADD832R,0.00020X0.08080*%
%ADD833R,0.00020X0.04460*%
%ADD834R,0.00020X0.08100*%
%ADD835R,0.00020X0.04500*%
%ADD836R,0.00020X0.04520*%
%ADD837R,0.00020X0.00320*%
%ADD838R,0.00020X0.08100*%
%ADD839R,0.00020X0.04560*%
%ADD840R,0.00020X0.00320*%
%ADD841R,0.00020X0.08120*%
%ADD842R,0.00020X0.04580*%
%ADD843R,0.00020X0.00300*%
%ADD844R,0.00020X0.08120*%
%ADD845R,0.00020X0.04600*%
%ADD846R,0.00020X0.08140*%
%ADD847R,0.00020X0.04620*%
%ADD848R,0.00020X0.04640*%
%ADD849R,0.00020X0.04660*%
%ADD850R,0.00020X0.00280*%
%ADD851R,0.00020X0.04680*%
%ADD852R,0.00020X0.00280*%
%ADD853R,0.00020X0.08180*%
%ADD854R,0.00020X0.04720*%
%ADD855R,0.00020X0.00280*%
%ADD856R,0.00020X0.08180*%
%ADD857R,0.00020X0.04740*%
%ADD858R,0.00020X0.00280*%
%ADD859R,0.00020X0.04760*%
%ADD860R,0.00020X0.00260*%
%ADD861R,0.00020X0.04780*%
%ADD862R,0.00020X0.00260*%
%ADD863R,0.00020X0.04820*%
%ADD864R,0.00020X0.00240*%
%ADD865R,0.00020X0.08220*%
%ADD866R,0.00020X0.04840*%
%ADD867R,0.00020X0.04860*%
%ADD868R,0.00020X0.08240*%
%ADD869R,0.00020X0.04880*%
%ADD870R,0.00020X0.04940*%
%ADD871R,0.00020X0.00220*%
%ADD872R,0.00020X0.08280*%
%ADD873R,0.00020X0.04960*%
%ADD874R,0.00020X0.00220*%
%ADD875R,0.00020X0.05000*%
%ADD876R,0.00020X0.00240*%
%ADD877R,0.00020X0.05020*%
%ADD878R,0.00020X0.00220*%
%ADD879R,0.00020X0.05040*%
%ADD880R,0.00020X0.05080*%
%ADD881R,0.00020X0.00200*%
%ADD882R,0.00020X0.08320*%
%ADD883R,0.00020X0.05100*%
%ADD884R,0.00020X0.00200*%
%ADD885R,0.00020X0.08340*%
%ADD886R,0.00020X0.05140*%
%ADD887R,0.00020X0.00180*%
%ADD888R,0.00020X0.08320*%
%ADD889R,0.00020X0.05160*%
%ADD890R,0.00020X0.00180*%
%ADD891R,0.00020X0.05220*%
%ADD892R,0.00020X0.08360*%
%ADD893R,0.00020X0.05260*%
%ADD894R,0.00020X0.00160*%
%ADD895R,0.00020X0.08380*%
%ADD896R,0.00020X0.05280*%
%ADD897R,0.00020X0.00160*%
%ADD898R,0.00020X0.05320*%
%ADD899R,0.00020X0.08420*%
%ADD900R,0.00020X0.05360*%
%ADD901R,0.00020X0.08400*%
%ADD902R,0.00020X0.05380*%
%ADD903R,0.00020X0.08420*%
%ADD904R,0.00020X0.00140*%
%ADD905R,0.00020X0.05460*%
%ADD906R,0.00020X0.00140*%
%ADD907R,0.00020X0.05480*%
%ADD908R,0.00020X0.00120*%
%ADD909R,0.00020X0.08460*%
%ADD910R,0.00020X0.05520*%
%ADD911R,0.00020X0.00140*%
%ADD912R,0.00020X0.00120*%
%ADD913R,0.00020X0.05600*%
%ADD914R,0.00020X0.00120*%
%ADD915R,0.00020X0.05620*%
%ADD916R,0.00020X0.00100*%
%ADD917R,0.00020X0.05640*%
%ADD918R,0.00020X0.00100*%
%ADD919R,0.00020X0.08520*%
%ADD920R,0.00020X0.05680*%
%ADD921R,0.00020X0.08540*%
%ADD922R,0.00020X0.05720*%
%ADD923R,0.00020X0.00080*%
%ADD924R,0.00020X0.08540*%
%ADD925R,0.00020X0.05760*%
%ADD926R,0.00020X0.05800*%
%ADD927R,0.00020X0.00080*%
%ADD928R,0.00020X0.05840*%
%ADD929R,0.00020X0.00080*%
%ADD930R,0.00020X0.05880*%
%ADD931R,0.00020X0.00060*%
%ADD932R,0.00020X0.05920*%
%ADD933R,0.00020X0.00060*%
%ADD934R,0.00020X0.08620*%
%ADD935R,0.00020X0.08640*%
%ADD936R,0.00020X0.06000*%
%ADD937R,0.00020X0.00060*%
%ADD938R,0.00020X0.06040*%
%ADD939R,0.00020X0.00060*%
%ADD940R,0.00020X0.08640*%
%ADD941R,0.00020X0.06100*%
%ADD942R,0.00020X0.00040*%
%ADD943R,0.00020X0.06140*%
%ADD944R,0.00020X0.00040*%
%ADD945R,0.00020X0.08680*%
%ADD946R,0.00020X0.06180*%
%ADD947R,0.00020X0.00020*%
%ADD948R,0.00020X0.06220*%
%ADD949R,0.00020X0.00020*%
%ADD950R,0.00020X0.08700*%
%ADD951R,0.00020X0.06260*%
%ADD952R,0.00020X0.08720*%
%ADD953R,0.00020X0.06300*%
%ADD954R,0.00020X0.00020*%
%ADD955R,0.00020X0.06360*%
%ADD956R,0.00020X0.00020*%
%ADD957R,0.00020X0.08760*%
%ADD958R,0.00020X0.06400*%
%ADD959R,0.00020X0.08780*%
%ADD960R,0.00020X0.08780*%
%ADD961R,0.00020X0.06500*%
%ADD962R,0.00020X0.06560*%
%ADD963R,0.00020X0.06600*%
%ADD964R,0.00020X0.08840*%
%ADD965R,0.00020X0.06660*%
%ADD966R,0.00020X0.08860*%
%ADD967R,0.00020X0.06720*%
%ADD968R,0.00020X0.06740*%
%ADD969R,0.00020X0.08880*%
%ADD970R,0.00020X0.06800*%
%ADD971R,0.00020X0.06860*%
%ADD972R,0.00020X0.08920*%
%ADD973R,0.00020X0.06920*%
%ADD974R,0.00020X0.08940*%
%ADD975R,0.00020X0.06980*%
%ADD976R,0.00020X0.08940*%
%ADD977R,0.00020X0.07040*%
%ADD978R,0.00020X0.08980*%
%ADD979R,0.00020X0.07140*%
%ADD980R,0.00020X0.09000*%
%ADD981R,0.00020X0.07200*%
%ADD982R,0.00020X0.07280*%
%ADD983R,0.00020X0.09020*%
%ADD984R,0.00020X0.07340*%
%ADD985R,0.00020X0.09040*%
%ADD986R,0.00020X0.07400*%
%ADD987R,0.00020X0.09060*%
%ADD988R,0.00020X0.07480*%
%ADD989R,0.00020X0.07520*%
%ADD990R,0.00020X0.09080*%
%ADD991R,0.00020X0.07600*%
%ADD992R,0.00020X0.09100*%
%ADD993R,0.00020X0.07680*%
%ADD994R,0.00020X0.09120*%
%ADD995R,0.00020X0.09120*%
%ADD996R,0.00020X0.09160*%
%ADD997R,0.00020X0.09180*%
%ADD998R,0.00020X0.08060*%
%ADD999R,0.00020X0.09200*%
%ADD1000R,0.00020X0.09220*%
%ADD1001R,0.00020X0.09240*%
%ADD1002R,0.00020X0.09280*%
%ADD1003R,0.00020X0.09320*%
%ADD1004R,0.00020X0.09340*%
%ADD1005R,0.00020X0.09360*%
%ADD1006R,0.00020X0.08980*%
%ADD1007R,0.00020X0.09400*%
%ADD1008R,0.00020X0.09420*%
%ADD1009R,0.00020X0.09440*%
%ADD1010R,0.00020X0.09440*%
%ADD1011R,0.00020X0.09560*%
%ADD1012R,0.00020X0.09480*%
%ADD1013R,0.00020X0.09680*%
%ADD1014R,0.00020X0.09820*%
%ADD1015R,0.00020X0.09520*%
%ADD1016R,0.00020X0.09960*%
%ADD1017R,0.00020X0.09560*%
%ADD1018R,0.00020X0.10260*%
%ADD1019R,0.00020X0.09580*%
%ADD1020R,0.00020X0.10440*%
%ADD1021R,0.00020X0.09600*%
%ADD1022R,0.00020X0.09640*%
%ADD1023R,0.00020X0.10780*%
%ADD1024R,0.00020X0.09660*%
%ADD1025R,0.00020X0.10980*%
%ADD1026R,0.00020X0.09680*%
%ADD1027R,0.00020X0.11220*%
%ADD1028R,0.00020X0.09720*%
%ADD1029R,0.00020X0.09740*%
%ADD1030R,0.00020X0.11700*%
%ADD1031R,0.00020X0.09780*%
%ADD1032R,0.00020X0.09840*%
%ADD1033R,0.00020X0.12460*%
%ADD1034R,0.00020X0.12500*%
%ADD1035R,0.00020X0.12520*%
%ADD1036R,0.00020X0.10020*%
%ADD1037R,0.00020X0.12520*%
%ADD1038R,0.00020X0.22580*%
%ADD1039R,0.00020X0.22580*%
%ADD1040R,0.00020X0.22560*%
%ADD1041R,0.00020X0.22560*%
%ADD1042R,0.00020X0.22540*%
%ADD1043R,0.00020X0.22540*%
%ADD1044R,0.00020X0.22520*%
%ADD1045R,0.00020X0.22520*%
%ADD1046R,0.00020X0.22500*%
%ADD1047R,0.00020X0.22500*%
%ADD1048R,0.00020X0.22480*%
%ADD1049R,0.00020X0.22480*%
%ADD1050R,0.00020X0.22460*%
%ADD1051R,0.00020X0.22460*%
%ADD1052R,0.00020X0.22440*%
%ADD1053R,0.00020X0.22420*%
%ADD1054R,0.00020X0.22420*%
%ADD1055R,0.00020X0.22400*%
%ADD1056R,0.00020X0.22400*%
%ADD1057R,0.00020X0.22380*%
%ADD1058R,0.00020X0.22360*%
%ADD1059R,0.00020X0.22360*%
%ADD1060R,0.00020X0.22340*%
%ADD1061R,0.00020X0.22340*%
%ADD1062R,0.00020X0.22320*%
%ADD1063R,0.00020X0.22300*%
%ADD1064R,0.00020X0.22300*%
%ADD1065R,0.00020X0.22280*%
%ADD1066R,0.00020X0.22280*%
%ADD1067R,0.00020X0.22260*%
%ADD1068R,0.00020X0.22260*%
%ADD1069R,0.00020X0.22240*%
%ADD1070R,0.00020X0.22240*%
%ADD1071R,0.00020X0.22220*%
%ADD1072R,0.00020X0.22200*%
%ADD1073R,0.00020X0.22200*%
%ADD1074R,0.00020X0.22180*%
%ADD1075R,0.00020X0.22180*%
%ADD1076R,0.00020X0.22160*%
%ADD1077R,0.00020X0.22140*%
%ADD1078R,0.00020X0.22160*%
%ADD1079R,0.00020X0.22120*%
%ADD1080R,0.00020X0.22120*%
%ADD1081R,0.00020X0.22100*%
%ADD1082R,0.00020X0.22080*%
%ADD1083R,0.00020X0.22080*%
%ADD1084R,0.00020X0.22060*%
%ADD1085R,0.00020X0.22040*%
%ADD1086R,0.00020X0.22020*%
%ADD1087R,0.00020X0.22000*%
%ADD1088R,0.00020X0.21980*%
%ADD1089R,0.00020X0.21980*%
%ADD1090R,0.00020X0.21960*%
%ADD1091R,0.00020X0.21940*%
%ADD1092R,0.00020X0.21920*%
%ADD1093R,0.00020X0.21900*%
%ADD1094R,0.00020X0.21900*%
%ADD1095R,0.00020X0.21880*%
%ADD1096R,0.00020X0.21860*%
%ADD1097R,0.00020X0.21860*%
%ADD1098R,0.00020X0.21840*%
%ADD1099R,0.00020X0.21840*%
%ADD1100R,0.00020X0.21820*%
%ADD1101R,0.00020X0.21800*%
%ADD1102R,0.00020X0.21780*%
%ADD1103R,0.00020X0.21760*%
%ADD1104R,0.00020X0.21740*%
%ADD1105R,0.00020X0.21720*%
%ADD1106R,0.00020X0.21720*%
%ADD1107R,0.00020X0.21700*%
%ADD1108R,0.00020X0.21680*%
%ADD1109R,0.00020X0.21660*%
%ADD1110R,0.00020X0.21640*%
%ADD1111R,0.00020X0.21620*%
%ADD1112R,0.00020X0.21600*%
%ADD1113R,0.00020X0.21580*%
%ADD1114R,0.00020X0.21560*%
%ADD1115R,0.00020X0.21540*%
%ADD1116R,0.00020X0.21520*%
%ADD1117R,0.00020X0.21500*%
%ADD1118R,0.00020X0.21480*%
%ADD1119R,0.00020X0.21480*%
%ADD1120R,0.00020X0.21460*%
%ADD1121R,0.00020X0.21440*%
%ADD1122R,0.00020X0.21420*%
%ADD1123R,0.00020X0.21400*%
%ADD1124R,0.00020X0.21380*%
%ADD1125R,0.00020X0.21360*%
%ADD1126R,0.00020X0.21340*%
%ADD1127R,0.00020X0.21320*%
%ADD1128R,0.00020X0.21320*%
%ADD1129R,0.00020X0.21300*%
%ADD1130R,0.00020X0.21280*%
%ADD1131R,0.00020X0.21260*%
%ADD1132R,0.00020X0.21240*%
%ADD1133R,0.00020X0.21220*%
%ADD1134R,0.00020X0.21200*%
%ADD1135R,0.00020X0.21180*%
%ADD1136R,0.00020X0.21160*%
%ADD1137R,0.00020X0.21140*%
%ADD1138R,0.00020X0.21120*%
%ADD1139R,0.00020X0.21100*%
%ADD1140R,0.00020X0.21080*%
%ADD1141R,0.00020X0.21060*%
%ADD1142R,0.00020X0.21040*%
%ADD1143R,0.00020X0.21020*%
%ADD1144R,0.00020X0.21000*%
%ADD1145R,0.00020X0.20980*%
%ADD1146R,0.00020X0.20960*%
%ADD1147R,0.00020X0.20920*%
%ADD1148R,0.00020X0.20900*%
%ADD1149R,0.00020X0.20880*%
%ADD1150R,0.00020X0.20880*%
%ADD1151R,0.00020X0.20840*%
%ADD1152R,0.00020X0.20820*%
%ADD1153R,0.00020X0.20800*%
%ADD1154R,0.00020X0.20780*%
%ADD1155R,0.00020X0.20740*%
%ADD1156R,0.00020X0.20740*%
%ADD1157R,0.00020X0.20720*%
%ADD1158R,0.00020X0.20680*%
%ADD1159R,0.00020X0.20660*%
%ADD1160R,0.00020X0.20640*%
%ADD1161R,0.00020X0.20600*%
%ADD1162R,0.00020X0.20600*%
%ADD1163R,0.00020X0.20560*%
%ADD1164R,0.00020X0.20540*%
%ADD1165R,0.00020X0.20500*%
%ADD1166R,0.00020X0.20480*%
%ADD1167R,0.00020X0.20480*%
%ADD1168R,0.00020X0.20440*%
%ADD1169R,0.00020X0.20420*%
%ADD1170R,0.00020X0.20380*%
%ADD1171R,0.00020X0.20360*%
%ADD1172R,0.00020X0.20340*%
%ADD1173R,0.00020X0.20320*%
%ADD1174R,0.00020X0.20280*%
%ADD1175R,0.00020X0.20240*%
%ADD1176R,0.00020X0.20220*%
%ADD1177R,0.00020X0.20200*%
%ADD1178R,0.00020X0.20180*%
%ADD1179R,0.00020X0.20140*%
%ADD1180R,0.00020X0.20100*%
%ADD1181R,0.00020X0.20080*%
%ADD1182R,0.00020X0.20060*%
%ADD1183R,0.00020X0.20020*%
%ADD1184R,0.00020X0.20000*%
%ADD1185R,0.00020X0.19960*%
%ADD1186R,0.00020X0.19920*%
%ADD1187R,0.00020X0.19900*%
%ADD1188R,0.00020X0.19880*%
%ADD1189R,0.00020X0.19840*%
%ADD1190R,0.00020X0.19800*%
%ADD1191R,0.00020X0.19780*%
%ADD1192R,0.00020X0.19740*%
%ADD1193R,0.00020X0.19700*%
%ADD1194R,0.00020X0.19680*%
%ADD1195R,0.00020X0.19660*%
%ADD1196R,0.00020X0.19620*%
%ADD1197R,0.00020X0.19580*%
%ADD1198R,0.00020X0.19540*%
%ADD1199R,0.00020X0.19520*%
%ADD1200R,0.00020X0.19480*%
%ADD1201R,0.00020X0.19440*%
%ADD1202R,0.00020X0.19400*%
%ADD1203R,0.00020X0.19380*%
%ADD1204R,0.00020X0.19340*%
%ADD1205R,0.00020X0.19280*%
%ADD1206R,0.00020X0.19240*%
%ADD1207R,0.00020X0.19220*%
%ADD1208R,0.00020X0.19180*%
%ADD1209R,0.00020X0.19140*%
%ADD1210R,0.00020X0.19080*%
%ADD1211R,0.00020X0.19060*%
%ADD1212R,0.00020X0.19020*%
%ADD1213R,0.00020X0.18960*%
%ADD1214R,0.00020X0.18920*%
%ADD1215R,0.00020X0.18900*%
%ADD1216R,0.00020X0.18840*%
%ADD1217R,0.00020X0.18800*%
%ADD1218R,0.00020X0.18760*%
%ADD1219R,0.00020X0.18720*%
%ADD1220R,0.00020X0.18660*%
%ADD1221R,0.00020X0.18620*%
%ADD1222R,0.00020X0.18580*%
%ADD1223R,0.00020X0.18520*%
%ADD1224R,0.00020X0.18480*%
%ADD1225R,0.00020X0.18440*%
%ADD1226R,0.00020X0.18380*%
%ADD1227R,0.00020X0.18320*%
%ADD1228R,0.00020X0.18300*%
%ADD1229R,0.00020X0.18240*%
%ADD1230R,0.00020X0.18180*%
%ADD1231R,0.00020X0.18140*%
%ADD1232R,0.00020X0.18080*%
%ADD1233R,0.00020X0.18020*%
%ADD1234R,0.00020X0.17960*%
%ADD1235R,0.00020X0.17920*%
%ADD1236R,0.00020X0.17840*%
%ADD1237R,0.00020X0.17780*%
%ADD1238R,0.00020X0.17740*%
%ADD1239R,0.00020X0.17660*%
%ADD1240R,0.00020X0.17600*%
%ADD1241R,0.00020X0.17560*%
%ADD1242R,0.00020X0.17480*%
%ADD1243R,0.00020X0.17400*%
%ADD1244R,0.00020X0.17360*%
%ADD1245R,0.00020X0.17280*%
%ADD1246R,0.00020X0.17200*%
%ADD1247R,0.00020X0.17140*%
%ADD1248R,0.00020X0.17060*%
%ADD1249R,0.00020X0.17000*%
%ADD1250R,0.00020X0.16920*%
%ADD1251R,0.00020X0.16840*%
%ADD1252R,0.00020X0.16780*%
%ADD1253R,0.00020X0.16700*%
%ADD1254R,0.00020X0.16600*%
%ADD1255R,0.00020X0.16540*%
%ADD1256R,0.00020X0.16440*%
%ADD1257R,0.00020X0.16340*%
%ADD1258R,0.00020X0.16280*%
%ADD1259R,0.00020X0.16180*%
%ADD1260R,0.00020X0.16100*%
%ADD1261R,0.00020X0.16000*%
%ADD1262R,0.00020X0.15880*%
%ADD1263R,0.00020X0.15800*%
%ADD1264R,0.00020X0.15700*%
%ADD1265R,0.00020X0.15580*%
%ADD1266R,0.00020X0.15480*%
%ADD1267R,0.00020X0.15360*%
%ADD1268R,0.00020X0.15300*%
%ADD1269R,0.00020X0.15160*%
%ADD1270R,0.00020X0.15020*%
%ADD1271R,0.00020X0.14900*%
%ADD1272R,0.00020X0.14780*%
%ADD1273R,0.00020X0.14660*%
%ADD1274R,0.00020X0.14520*%
%ADD1275R,0.00020X0.14420*%
%ADD1276R,0.00020X0.14320*%
%ADD1277R,0.00020X0.14220*%
%ADD1278R,0.00020X0.13980*%
%ADD1279R,0.00020X0.00080*%
%ADD1280R,0.00020X0.13780*%
%ADD1281R,0.00020X0.13700*%
%ADD1282R,0.00020X0.13600*%
%ADD1283R,0.00020X0.13560*%
%ADD1284R,0.00020X0.13500*%
%ADD1285R,0.00020X0.13460*%
%ADD1286R,0.00020X0.13400*%
%ADD1287R,0.00020X0.13360*%
%ADD1288R,0.00020X0.13220*%
%ADD1289R,0.00020X0.13180*%
%ADD1290R,0.00020X0.13140*%
%ADD1291R,0.00020X0.00220*%
%ADD1292R,0.00020X0.13100*%
%ADD1293R,0.00020X0.13080*%
%ADD1294R,0.00020X0.13040*%
%ADD1295R,0.00020X0.13000*%
%ADD1296R,0.00020X0.00240*%
%ADD1297R,0.00020X0.12960*%
%ADD1298R,0.00020X0.12900*%
%ADD1299R,0.00020X0.12880*%
%ADD1300R,0.00020X0.12840*%
%ADD1301R,0.00020X0.12820*%
%ADD1302R,0.00020X0.00300*%
%ADD1303R,0.00020X0.12800*%
%ADD1304R,0.00020X0.12780*%
%ADD1305R,0.00020X0.12740*%
%ADD1306R,0.00020X0.12720*%
%ADD1307R,0.00020X0.12700*%
%ADD1308R,0.00020X0.12680*%
%ADD1309R,0.00020X0.12640*%
%ADD1310R,0.00020X0.00360*%
%ADD1311R,0.00020X0.12600*%
%ADD1312R,0.00020X0.12600*%
%ADD1313R,0.00020X0.12560*%
%ADD1314R,0.00020X0.12560*%
%ADD1315R,0.00020X0.12520*%
%ADD1316R,0.00020X0.00420*%
%ADD1317R,0.00020X0.12480*%
%ADD1318R,0.00020X0.12440*%
%ADD1319R,0.00020X0.00460*%
%ADD1320R,0.00020X0.12440*%
%ADD1321R,0.00020X0.12400*%
%ADD1322R,0.00020X0.00480*%
%ADD1323R,0.00020X0.12380*%
%ADD1324R,0.00020X0.12380*%
%ADD1325R,0.00020X0.00500*%
%ADD1326R,0.00020X0.12340*%
%ADD1327R,0.00020X0.12320*%
%ADD1328R,0.00020X0.12300*%
%ADD1329R,0.00020X0.00540*%
%ADD1330R,0.00020X0.12300*%
%ADD1331R,0.00020X0.00540*%
%ADD1332R,0.00020X0.12260*%
%ADD1333R,0.00020X0.12260*%
%ADD1334R,0.00020X0.12260*%
%ADD1335R,0.00020X0.12240*%
%ADD1336R,0.00020X0.00580*%
%ADD1337R,0.00020X0.12240*%
%ADD1338R,0.00020X0.00580*%
%ADD1339R,0.00020X0.12220*%
%ADD1340R,0.00020X0.12200*%
%ADD1341R,0.00020X0.12220*%
%ADD1342R,0.00020X0.00620*%
%ADD1343R,0.00020X0.00640*%
%ADD1344R,0.00020X0.00660*%
%ADD1345R,0.00020X0.12180*%
%ADD1346R,0.00020X0.12180*%
%ADD1347R,0.00020X0.12180*%
%ADD1348R,0.00020X0.12160*%
%ADD1349R,0.00020X0.00700*%
%ADD1350R,0.00020X0.12180*%
%ADD1351R,0.00020X0.12160*%
%ADD1352R,0.00020X0.00720*%
%ADD1353R,0.00020X0.12160*%
%ADD1354R,0.00020X0.00740*%
%ADD1355R,0.00020X0.00820*%
%ADD1356R,0.00020X0.00880*%
%ADD1357R,0.00020X0.12220*%
%ADD1358R,0.00020X0.12240*%
%ADD1359R,0.00020X0.00960*%
%ADD1360R,0.00020X0.12280*%
%ADD1361R,0.00020X0.12280*%
%ADD1362R,0.00020X0.00980*%
%ADD1363R,0.00020X0.01020*%
%ADD1364R,0.00020X0.12360*%
%ADD1365R,0.00020X0.12360*%
%ADD1366R,0.00020X0.12380*%
%ADD1367R,0.00020X0.12420*%
%ADD1368R,0.00020X0.12420*%
%ADD1369R,0.00020X0.12440*%
%ADD1370R,0.00020X0.12480*%
%ADD1371R,0.00020X0.01120*%
%ADD1372R,0.00020X0.01160*%
%ADD1373R,0.00020X0.12540*%
%ADD1374R,0.00020X0.12620*%
%ADD1375R,0.00020X0.12660*%
%ADD1376R,0.00020X0.12680*%
%ADD1377R,0.00020X0.12700*%
%ADD1378R,0.00020X0.12780*%
%ADD1379R,0.00020X0.12840*%
%ADD1380R,0.00020X0.12880*%
%ADD1381R,0.00020X0.12920*%
%ADD1382R,0.00020X0.12920*%
%ADD1383R,0.00020X0.12960*%
%ADD1384R,0.00020X0.13020*%
%ADD1385R,0.00020X0.13060*%
%ADD1386R,0.00020X0.13080*%
%ADD1387R,0.00020X0.01420*%
%ADD1388R,0.00020X0.13120*%
%ADD1389R,0.00020X0.13120*%
%ADD1390R,0.00020X0.13140*%
%ADD1391R,0.00020X0.13200*%
%ADD1392R,0.00020X0.13240*%
%ADD1393R,0.00020X0.13240*%
%ADD1394R,0.00020X0.13280*%
%ADD1395R,0.00020X0.13340*%
%ADD1396R,0.00020X0.13360*%
%ADD1397R,0.00020X0.13420*%
%ADD1398R,0.00020X0.13440*%
%ADD1399R,0.00020X0.13500*%
%ADD1400R,0.00020X0.13540*%
%ADD1401R,0.00020X0.13560*%
%ADD1402R,0.00020X0.13600*%
%ADD1403R,0.00020X0.13660*%
%ADD1404R,0.00020X0.13680*%
%ADD1405R,0.00020X0.13720*%
%ADD1406R,0.00020X0.13760*%
%ADD1407R,0.00020X0.13800*%
%ADD1408R,0.00020X0.13880*%
%ADD1409R,0.00020X0.13920*%
%ADD1410R,0.00020X0.13980*%
%ADD1411R,0.00020X0.14020*%
%ADD1412R,0.00020X0.14180*%
%ADD1413R,0.00020X0.14240*%
%ADD1414R,0.00020X0.14280*%
%ADD1415R,0.00020X0.14320*%
%ADD1416R,0.00020X0.14420*%
%ADD1417R,0.00020X0.14480*%
%ADD1418R,0.00020X0.02020*%
%ADD1419R,0.00020X0.14580*%
%ADD1420R,0.00020X0.14620*%
%ADD1421R,0.00020X0.14720*%
%ADD1422R,0.00020X0.14780*%
%ADD1423R,0.00020X0.14840*%
%ADD1424R,0.00020X0.14900*%
%ADD1425R,0.00020X0.14980*%
%ADD1426R,0.00020X0.15040*%
%ADD1427R,0.00020X0.15120*%
%ADD1428R,0.00020X0.15180*%
%ADD1429R,0.00020X0.15260*%
%ADD1430R,0.00020X0.15340*%
%ADD1431R,0.00020X0.02540*%
%ADD1432R,0.00020X0.15420*%
%ADD1433R,0.00020X0.15520*%
%ADD1434R,0.00020X0.15620*%
%ADD1435R,0.00020X0.15740*%
%ADD1436R,0.00020X0.07500*%
%ADD1437R,0.00020X0.07340*%
%ADD1438R,0.00020X0.11200*%
%ADD1439R,0.00020X0.07200*%
%ADD1440R,0.00020X0.11060*%
%ADD1441R,0.00020X0.10940*%
%ADD1442R,0.00020X0.07020*%
%ADD1443R,0.00020X0.10820*%
%ADD1444R,0.00020X0.10700*%
%ADD1445R,0.00020X0.06860*%
%ADD1446R,0.00020X0.06780*%
%ADD1447R,0.00020X0.10480*%
%ADD1448R,0.00020X0.06720*%
%ADD1449R,0.00020X0.10380*%
%ADD1450R,0.00020X0.10280*%
%ADD1451R,0.00020X0.10180*%
%ADD1452R,0.00020X0.06560*%
%ADD1453R,0.00020X0.06500*%
%ADD1454R,0.00020X0.10000*%
%ADD1455R,0.00020X0.06440*%
%ADD1456R,0.00020X0.09900*%
%ADD1457R,0.00020X0.09820*%
%ADD1458R,0.00020X0.09740*%
%ADD1459R,0.00020X0.06260*%
%ADD1460R,0.00020X0.09500*%
%ADD1461R,0.00020X0.06200*%
%ADD1462R,0.00020X0.06160*%
%ADD1463R,0.00020X0.09320*%
%ADD1464R,0.00020X0.06120*%
%ADD1465R,0.00020X0.06080*%
%ADD1466R,0.00020X0.09160*%
%ADD1467R,0.00020X0.06040*%
%ADD1468R,0.00020X0.09080*%
%ADD1469R,0.00020X0.06000*%
%ADD1470R,0.00020X0.05960*%
%ADD1471R,0.00020X0.08900*%
%ADD1472R,0.00020X0.05940*%
%ADD1473R,0.00020X0.08820*%
%ADD1474R,0.00020X0.05860*%
%ADD1475R,0.00020X0.08520*%
%ADD1476R,0.00020X0.05760*%
%ADD1477R,0.00020X0.05740*%
%ADD1478R,0.00020X0.05680*%
%ADD1479R,0.00020X0.05660*%
%ADD1480R,0.00020X0.05600*%
%ADD1481R,0.00020X0.07980*%
%ADD1482R,0.00020X0.05580*%
%ADD1483R,0.00020X0.05540*%
%ADD1484R,0.00020X0.05520*%
%ADD1485R,0.00020X0.05500*%
%ADD1486R,0.00020X0.07660*%
%ADD1487R,0.00020X0.05460*%
%ADD1488R,0.00020X0.05440*%
%ADD1489R,0.00020X0.05420*%
%ADD1490R,0.00020X0.07420*%
%ADD1491R,0.00020X0.05380*%
%ADD1492R,0.00020X0.07260*%
%ADD1493R,0.00020X0.07180*%
%ADD1494R,0.00020X0.07100*%
%ADD1495R,0.00020X0.05300*%
%ADD1496R,0.00020X0.07000*%
%ADD1497R,0.00020X0.06940*%
%ADD1498R,0.00020X0.06840*%
%ADD1499R,0.00020X0.05240*%
%ADD1500R,0.00020X0.06680*%
%ADD1501R,0.00020X0.05180*%
%ADD1502R,0.00020X0.05180*%
%ADD1503R,0.00020X0.06420*%
%ADD1504R,0.00020X0.05140*%
%ADD1505R,0.00020X0.06320*%
%ADD1506R,0.00020X0.05120*%
%ADD1507R,0.00020X0.05060*%
%ADD1508R,0.00020X0.06060*%
%ADD1509R,0.00020X0.05040*%
%ADD1510R,0.00020X0.05020*%
%ADD1511R,0.00020X0.05000*%
%ADD1512R,0.00020X0.04980*%
%ADD1513R,0.00020X0.05580*%
%ADD1514R,0.00020X0.05480*%
%ADD1515R,0.00020X0.04920*%
%ADD1516R,0.00020X0.05280*%
%ADD1517R,0.00020X0.04920*%
%ADD1518R,0.00020X0.05180*%
%ADD1519R,0.00020X0.04900*%
%ADD1520R,0.00020X0.05080*%
%ADD1521R,0.00020X0.04980*%
%ADD1522R,0.00020X0.04860*%
%ADD1523R,0.00020X0.04740*%
%ADD1524R,0.00020X0.04820*%
%ADD1525R,0.00020X0.02540*%
%ADD1526R,0.00020X0.04800*%
%ADD1527R,0.00020X0.04800*%
%ADD1528R,0.00020X0.02780*%
%ADD1529R,0.00020X0.04260*%
%ADD1530R,0.00020X0.04120*%
%ADD1531R,0.00020X0.03100*%
%ADD1532R,0.00020X0.03220*%
%ADD1533R,0.00020X0.04700*%
%ADD1534R,0.00020X0.04700*%
%ADD1535R,0.00020X0.04680*%
%ADD1536R,0.00020X0.03220*%
%ADD1537R,0.00020X0.04660*%
%ADD1538R,0.00020X0.03680*%
%ADD1539R,0.00020X0.04640*%
%ADD1540R,0.00020X0.03780*%
%ADD1541R,0.00020X0.04640*%
%ADD1542R,0.00020X0.04620*%
%ADD1543R,0.00020X0.04600*%
%ADD1544R,0.00020X0.04020*%
%ADD1545R,0.00020X0.04580*%
%ADD1546R,0.00020X0.04100*%
%ADD1547R,0.00020X0.04560*%
%ADD1548R,0.00020X0.04180*%
%ADD1549R,0.00020X0.00680*%
%ADD1550R,0.00020X0.04320*%
%ADD1551R,0.00020X0.04540*%
%ADD1552R,0.00020X0.04380*%
%ADD1553R,0.00020X0.04460*%
%ADD1554R,0.00020X0.04540*%
%ADD1555R,0.00020X0.04480*%
%ADD1556R,0.00020X0.04620*%
%ADD1557R,0.00020X0.04500*%
%ADD1558R,0.00020X0.01260*%
%ADD1559R,0.00020X0.04440*%
%ADD1560R,0.00020X0.04420*%
%ADD1561R,0.00020X0.01980*%
%ADD1562R,0.00020X0.04380*%
%ADD1563R,0.00020X0.04360*%
%ADD1564R,0.00020X0.04380*%
%ADD1565R,0.00020X0.04360*%
%ADD1566R,0.00020X0.04340*%
%ADD1567R,0.00020X0.04340*%
%ADD1568R,0.00020X0.04300*%
%ADD1569R,0.00020X0.01640*%
%ADD1570R,0.00020X0.04280*%
%ADD1571R,0.00020X0.00560*%
%ADD1572R,0.00020X0.04260*%
%ADD1573R,0.00020X0.04220*%
%ADD1574R,0.00020X0.04220*%
%ADD1575R,0.00020X0.00440*%
%ADD1576R,0.00020X0.04200*%
%ADD1577R,0.00020X0.01460*%
%ADD1578R,0.00020X0.04180*%
%ADD1579R,0.00020X0.00360*%
%ADD1580R,0.00020X0.04160*%
%ADD1581R,0.00020X0.04140*%
%ADD1582R,0.00020X0.00320*%
%ADD1583R,0.00020X0.04140*%
%ADD1584R,0.00020X0.04140*%
%ADD1585R,0.00020X0.04120*%
%ADD1586R,0.00020X0.04120*%
%ADD1587R,0.00020X0.02920*%
%ADD1588R,0.00020X0.04100*%
%ADD1589R,0.00020X0.03140*%
%ADD1590R,0.00020X0.04080*%
%ADD1591R,0.00020X0.03580*%
%ADD1592R,0.00020X0.04060*%
%ADD1593R,0.00020X0.00140*%
%ADD1594R,0.00020X0.03880*%
%ADD1595R,0.00020X0.03980*%
%ADD1596R,0.00020X0.04440*%
%ADD1597R,0.00020X0.04040*%
%ADD1598R,0.00020X0.00040*%
%ADD1599R,0.00020X0.04520*%
%ADD1600R,0.00020X0.04040*%
%ADD1601R,0.00020X0.04880*%
%ADD1602R,0.00020X0.04020*%
%ADD1603R,0.00020X0.05060*%
%ADD1604R,0.00020X0.04020*%
%ADD1605R,0.00020X0.05400*%
%ADD1606R,0.00020X0.05460*%
%ADD1607R,0.00020X0.05540*%
%ADD1608R,0.00020X0.05580*%
%ADD1609R,0.00020X0.05640*%
%ADD1610R,0.00020X0.05740*%
%ADD1611R,0.00020X0.05780*%
%ADD1612R,0.00020X0.05920*%
%ADD1613R,0.00020X0.05960*%
%ADD1614R,0.00020X0.06020*%
%ADD1615R,0.00020X0.03280*%
%ADD1616R,0.00020X0.03120*%
%ADD1617R,0.00020X0.04040*%
%ADD1618R,0.00020X0.02920*%
%ADD1619R,0.00020X0.02800*%
%ADD1620R,0.00020X0.00740*%
%ADD1621R,0.00020X0.02680*%
%ADD1622R,0.00020X0.02440*%
%ADD1623R,0.00020X0.02420*%
%ADD1624R,0.00020X0.02260*%
%ADD1625R,0.00020X0.00960*%
%ADD1626R,0.00020X0.00940*%
%ADD1627R,0.00020X0.04080*%
%ADD1628R,0.00020X0.04060*%
%ADD1629R,0.00020X0.01940*%
%ADD1630R,0.00020X0.01720*%
%ADD1631R,0.00020X0.04220*%
%ADD1632R,0.00020X0.04280*%
%ADD1633R,0.00020X0.04280*%
%ADD1634R,0.00020X0.00320*%
%ADD1635R,0.00020X0.04340*%
%ADD1636R,0.00020X0.04400*%
%ADD1637R,0.00020X0.01460*%
%ADD1638R,0.00020X0.04420*%
%ADD1639R,0.00020X0.01440*%
%ADD1640R,0.00020X0.04460*%
%ADD1641R,0.00020X0.04480*%
%ADD1642R,0.00020X0.01380*%
%ADD1643R,0.00020X0.04520*%
%ADD1644R,0.00020X0.04580*%
%ADD1645R,0.00020X0.04640*%
%ADD1646R,0.00020X0.04680*%
%ADD1647R,0.00020X0.00180*%
%ADD1648R,0.00020X0.04720*%
%ADD1649R,0.00020X0.01240*%
%ADD1650R,0.00020X0.04760*%
%ADD1651R,0.00020X0.04780*%
%ADD1652R,0.00020X0.00120*%
%ADD1653R,0.00020X0.04840*%
%ADD1654R,0.00020X0.04820*%
%ADD1655R,0.00020X0.04900*%
%ADD1656R,0.00020X0.04920*%
%ADD1657R,0.00020X0.05020*%
%ADD1658R,0.00020X0.00180*%
%ADD1659R,0.00020X0.05100*%
%ADD1660R,0.00020X0.01040*%
%ADD1661R,0.00020X0.05120*%
%ADD1662R,0.00020X0.00160*%
%ADD1663R,0.00020X0.05140*%
%ADD1664R,0.00020X0.05160*%
%ADD1665R,0.00020X0.05200*%
%ADD1666R,0.00020X0.05240*%
%ADD1667R,0.00020X0.05260*%
%ADD1668R,0.00020X0.01760*%
%ADD1669R,0.00020X0.05320*%
%ADD1670R,0.00020X0.02180*%
%ADD1671R,0.00020X0.05340*%
%ADD1672R,0.00020X0.05360*%
%ADD1673R,0.00020X0.05380*%
%ADD1674R,0.00020X0.00920*%
%ADD1675R,0.00020X0.05400*%
%ADD1676R,0.00020X0.05420*%
%ADD1677R,0.00020X0.05460*%
%ADD1678R,0.00020X0.05480*%
%ADD1679R,0.00020X0.05620*%
%ADD1680R,0.00020X0.05660*%
%ADD1681R,0.00020X0.05680*%
%ADD1682R,0.00020X0.05680*%
%ADD1683R,0.00020X0.05720*%
%ADD1684R,0.00020X0.05740*%
%ADD1685R,0.00020X0.00040*%
%ADD1686R,0.00020X0.05820*%
%ADD1687R,0.00020X0.05820*%
%ADD1688R,0.00020X0.05860*%
%ADD1689R,0.00020X0.05880*%
%ADD1690R,0.00020X0.05920*%
%ADD1691R,0.00020X0.05940*%
%ADD1692R,0.00020X0.00160*%
%ADD1693R,0.00020X0.05980*%
%ADD1694R,0.00020X0.05980*%
%ADD1695R,0.00020X0.06060*%
%ADD1696R,0.00020X0.06080*%
%ADD1697R,0.00020X0.06120*%
%ADD1698R,0.00020X0.06240*%
%ADD1699R,0.00020X0.06280*%
%ADD1700R,0.00020X0.06340*%
%ADD1701R,0.00020X0.06400*%
%ADD1702R,0.00020X0.06460*%
%ADD1703R,0.00020X0.07600*%
%ADD1704R,0.00020X0.07560*%
%ADD1705R,0.00020X0.07540*%
%ADD1706R,0.00020X0.00640*%
%ADD1707R,0.00020X0.07480*%
%ADD1708R,0.00020X0.07440*%
%ADD1709R,0.00020X0.07400*%
%ADD1710R,0.00020X0.07360*%
%ADD1711R,0.00020X0.07300*%
%ADD1712R,0.00020X0.07240*%
%ADD1713R,0.00020X0.07180*%
%ADD1714R,0.00020X0.07140*%
%ADD1715R,0.00020X0.07120*%
%ADD1716R,0.00020X0.07080*%
%ADD1717R,0.00020X0.06940*%
%ADD1718R,0.00020X0.00560*%
%ADD1719R,0.00020X0.06920*%
%ADD1720R,0.00020X0.00260*%
%ADD1721R,0.00020X0.06880*%
%ADD1722R,0.00020X0.06840*%
%ADD1723R,0.00020X0.00260*%
%ADD1724R,0.00020X0.06720*%
%ADD1725R,0.00020X0.06700*%
%ADD1726R,0.00020X0.06580*%
%ADD1727R,0.00020X0.06520*%
%ADD1728R,0.00020X0.06440*%
%ADD1729R,0.00020X0.06320*%
%ADD1730R,0.00020X0.06220*%
%ADD1731R,0.00020X0.06200*%
%ADD1732R,0.00020X0.00340*%
%ADD1733R,0.00020X0.05840*%
%ADD1734R,0.00020X0.05720*%
%ADD1735R,0.00020X0.05560*%
%ADD1736R,0.00020X0.05440*%
%ADD1737R,0.00020X0.04260*%
%ADD1738R,0.00020X0.04080*%
%ADD1739R,0.00020X0.03780*%
%ADD1740R,0.00020X0.03580*%
%ADD1741R,0.00020X0.03460*%
%ADD1742R,0.00020X0.03360*%
%ADD1743R,0.00020X0.02980*%
D10*
X0008573Y0011486D02*
X0084586Y0011486D01*
X0084754Y0011488D01*
X0084923Y0011494D01*
X0085091Y0011504D01*
X0085258Y0011519D01*
X0085426Y0011537D01*
X0085592Y0011559D01*
X0085759Y0011585D01*
X0085924Y0011616D01*
X0086089Y0011650D01*
X0086253Y0011688D01*
X0086416Y0011731D01*
X0086578Y0011777D01*
X0086738Y0011827D01*
X0086898Y0011881D01*
X0087056Y0011939D01*
X0087212Y0012000D01*
X0087368Y0012066D01*
X0087521Y0012135D01*
X0087673Y0012207D01*
X0087823Y0012284D01*
X0087971Y0012364D01*
X0088117Y0012447D01*
X0088261Y0012534D01*
X0088403Y0012625D01*
X0088543Y0012719D01*
X0088680Y0012816D01*
X0088815Y0012917D01*
X0088947Y0013021D01*
X0089077Y0013128D01*
X0089205Y0013238D01*
X0089329Y0013351D01*
X0089451Y0013467D01*
X0089570Y0013586D01*
X0089686Y0013708D01*
X0089799Y0013832D01*
X0089909Y0013960D01*
X0090016Y0014090D01*
X0090120Y0014222D01*
X0090221Y0014357D01*
X0090318Y0014494D01*
X0090412Y0014634D01*
X0090503Y0014776D01*
X0090590Y0014920D01*
X0090673Y0015066D01*
X0090753Y0015214D01*
X0090830Y0015364D01*
X0090902Y0015516D01*
X0090971Y0015669D01*
X0091037Y0015825D01*
X0091098Y0015981D01*
X0091156Y0016139D01*
X0091210Y0016299D01*
X0091260Y0016459D01*
X0091306Y0016621D01*
X0091349Y0016784D01*
X0091387Y0016948D01*
X0091421Y0017113D01*
X0091452Y0017278D01*
X0091478Y0017445D01*
X0091500Y0017611D01*
X0091518Y0017779D01*
X0091533Y0017946D01*
X0091543Y0018114D01*
X0091549Y0018283D01*
X0091551Y0018451D01*
X0091551Y0188963D01*
X0091549Y0189146D01*
X0091542Y0189328D01*
X0091531Y0189511D01*
X0091516Y0189693D01*
X0091496Y0189875D01*
X0091472Y0190056D01*
X0091443Y0190236D01*
X0091410Y0190416D01*
X0091373Y0190595D01*
X0091331Y0190773D01*
X0091285Y0190950D01*
X0091235Y0191126D01*
X0091181Y0191300D01*
X0091122Y0191473D01*
X0091060Y0191645D01*
X0090993Y0191815D01*
X0090922Y0191983D01*
X0090847Y0192150D01*
X0090768Y0192315D01*
X0090685Y0192478D01*
X0090598Y0192638D01*
X0090507Y0192797D01*
X0090413Y0192954D01*
X0090314Y0193108D01*
X0090212Y0193259D01*
X0090107Y0193408D01*
X0089997Y0193555D01*
X0089885Y0193699D01*
X0089769Y0193840D01*
X0089649Y0193978D01*
X0089526Y0194114D01*
X0089400Y0194246D01*
X0089271Y0194375D01*
X0089139Y0194501D01*
X0089003Y0194624D01*
X0088865Y0194744D01*
X0088724Y0194860D01*
X0088580Y0194972D01*
X0088433Y0195082D01*
X0088284Y0195187D01*
X0088133Y0195289D01*
X0087979Y0195388D01*
X0087822Y0195482D01*
X0087663Y0195573D01*
X0087503Y0195660D01*
X0087340Y0195743D01*
X0087175Y0195822D01*
X0087008Y0195897D01*
X0086840Y0195968D01*
X0086670Y0196035D01*
X0086498Y0196097D01*
X0086325Y0196156D01*
X0086151Y0196210D01*
X0085975Y0196260D01*
X0085798Y0196306D01*
X0085620Y0196348D01*
X0085441Y0196385D01*
X0085261Y0196418D01*
X0085081Y0196447D01*
X0084900Y0196471D01*
X0084718Y0196491D01*
X0084536Y0196506D01*
X0084353Y0196517D01*
X0084171Y0196524D01*
X0083988Y0196526D01*
X0008795Y0196526D01*
X0008607Y0196524D01*
X0008418Y0196517D01*
X0008230Y0196506D01*
X0008043Y0196490D01*
X0007855Y0196469D01*
X0007669Y0196444D01*
X0007483Y0196415D01*
X0007297Y0196381D01*
X0007113Y0196342D01*
X0006930Y0196299D01*
X0006747Y0196252D01*
X0006566Y0196201D01*
X0006386Y0196144D01*
X0006208Y0196084D01*
X0006031Y0196019D01*
X0005856Y0195951D01*
X0005682Y0195877D01*
X0005510Y0195800D01*
X0005340Y0195719D01*
X0005172Y0195633D01*
X0005007Y0195544D01*
X0004843Y0195450D01*
X0004682Y0195353D01*
X0004523Y0195251D01*
X0004367Y0195146D01*
X0004213Y0195037D01*
X0004062Y0194925D01*
X0003914Y0194809D01*
X0003768Y0194689D01*
X0003626Y0194566D01*
X0003486Y0194439D01*
X0003350Y0194309D01*
X0003217Y0194176D01*
X0003087Y0194040D01*
X0002960Y0193900D01*
X0002837Y0193758D01*
X0002717Y0193612D01*
X0002601Y0193464D01*
X0002489Y0193313D01*
X0002380Y0193159D01*
X0002275Y0193003D01*
X0002173Y0192844D01*
X0002076Y0192683D01*
X0001982Y0192519D01*
X0001893Y0192354D01*
X0001807Y0192186D01*
X0001726Y0192016D01*
X0001649Y0191844D01*
X0001575Y0191670D01*
X0001507Y0191495D01*
X0001442Y0191318D01*
X0001382Y0191140D01*
X0001325Y0190960D01*
X0001274Y0190779D01*
X0001227Y0190596D01*
X0001184Y0190413D01*
X0001145Y0190229D01*
X0001111Y0190043D01*
X0001082Y0189857D01*
X0001057Y0189671D01*
X0001036Y0189483D01*
X0001020Y0189296D01*
X0001009Y0189108D01*
X0001002Y0188919D01*
X0001000Y0188731D01*
X0001000Y0019059D01*
X0001002Y0018876D01*
X0001009Y0018693D01*
X0001020Y0018510D01*
X0001035Y0018328D01*
X0001055Y0018146D01*
X0001079Y0017965D01*
X0001108Y0017784D01*
X0001141Y0017604D01*
X0001178Y0017425D01*
X0001220Y0017247D01*
X0001266Y0017070D01*
X0001316Y0016894D01*
X0001371Y0016719D01*
X0001429Y0016545D01*
X0001492Y0016374D01*
X0001559Y0016203D01*
X0001630Y0016035D01*
X0001705Y0015868D01*
X0001784Y0015703D01*
X0001867Y0015540D01*
X0001954Y0015379D01*
X0002045Y0015220D01*
X0002140Y0015063D01*
X0002238Y0014909D01*
X0002341Y0014757D01*
X0002446Y0014608D01*
X0002556Y0014461D01*
X0002669Y0014317D01*
X0002785Y0014176D01*
X0002905Y0014037D01*
X0003028Y0013902D01*
X0003154Y0013769D01*
X0003283Y0013640D01*
X0003416Y0013514D01*
X0003551Y0013391D01*
X0003690Y0013271D01*
X0003831Y0013155D01*
X0003975Y0013042D01*
X0004122Y0012932D01*
X0004271Y0012827D01*
X0004423Y0012724D01*
X0004577Y0012626D01*
X0004734Y0012531D01*
X0004893Y0012440D01*
X0005054Y0012353D01*
X0005217Y0012270D01*
X0005382Y0012191D01*
X0005549Y0012116D01*
X0005717Y0012045D01*
X0005888Y0011978D01*
X0006059Y0011915D01*
X0006233Y0011857D01*
X0006408Y0011802D01*
X0006584Y0011752D01*
X0006761Y0011706D01*
X0006939Y0011664D01*
X0007118Y0011627D01*
X0007298Y0011594D01*
X0007479Y0011565D01*
X0007660Y0011541D01*
X0007842Y0011521D01*
X0008024Y0011506D01*
X0008207Y0011495D01*
X0008390Y0011488D01*
X0008573Y0011486D01*
X0019504Y0021722D02*
X0019506Y0021819D01*
X0019512Y0021916D01*
X0019522Y0022012D01*
X0019536Y0022108D01*
X0019554Y0022204D01*
X0019575Y0022298D01*
X0019601Y0022392D01*
X0019630Y0022484D01*
X0019664Y0022575D01*
X0019700Y0022665D01*
X0019741Y0022753D01*
X0019785Y0022839D01*
X0019833Y0022924D01*
X0019884Y0023006D01*
X0019938Y0023087D01*
X0019996Y0023165D01*
X0020057Y0023240D01*
X0020120Y0023313D01*
X0020187Y0023384D01*
X0020257Y0023451D01*
X0020329Y0023516D01*
X0020404Y0023577D01*
X0020482Y0023636D01*
X0020561Y0023691D01*
X0020643Y0023743D01*
X0020727Y0023791D01*
X0020813Y0023836D01*
X0020901Y0023878D01*
X0020990Y0023916D01*
X0021081Y0023950D01*
X0021173Y0023980D01*
X0021266Y0024007D01*
X0021361Y0024029D01*
X0021456Y0024048D01*
X0021552Y0024063D01*
X0021648Y0024074D01*
X0021745Y0024081D01*
X0021842Y0024084D01*
X0021939Y0024083D01*
X0022036Y0024078D01*
X0022132Y0024069D01*
X0022228Y0024056D01*
X0022324Y0024039D01*
X0022419Y0024018D01*
X0022512Y0023994D01*
X0022605Y0023965D01*
X0022697Y0023933D01*
X0022787Y0023897D01*
X0022875Y0023858D01*
X0022962Y0023814D01*
X0023047Y0023768D01*
X0023130Y0023717D01*
X0023211Y0023664D01*
X0023289Y0023607D01*
X0023366Y0023547D01*
X0023439Y0023484D01*
X0023510Y0023418D01*
X0023578Y0023349D01*
X0023644Y0023277D01*
X0023706Y0023203D01*
X0023765Y0023126D01*
X0023821Y0023047D01*
X0023874Y0022965D01*
X0023924Y0022882D01*
X0023969Y0022796D01*
X0024012Y0022709D01*
X0024051Y0022620D01*
X0024086Y0022530D01*
X0024117Y0022438D01*
X0024144Y0022345D01*
X0024168Y0022251D01*
X0024188Y0022156D01*
X0024204Y0022060D01*
X0024216Y0021964D01*
X0024224Y0021867D01*
X0024228Y0021770D01*
X0024228Y0021674D01*
X0024224Y0021577D01*
X0024216Y0021480D01*
X0024204Y0021384D01*
X0024188Y0021288D01*
X0024168Y0021193D01*
X0024144Y0021099D01*
X0024117Y0021006D01*
X0024086Y0020914D01*
X0024051Y0020824D01*
X0024012Y0020735D01*
X0023969Y0020648D01*
X0023924Y0020562D01*
X0023874Y0020479D01*
X0023821Y0020397D01*
X0023765Y0020318D01*
X0023706Y0020241D01*
X0023644Y0020167D01*
X0023578Y0020095D01*
X0023510Y0020026D01*
X0023439Y0019960D01*
X0023366Y0019897D01*
X0023289Y0019837D01*
X0023211Y0019780D01*
X0023130Y0019727D01*
X0023047Y0019676D01*
X0022962Y0019630D01*
X0022875Y0019586D01*
X0022787Y0019547D01*
X0022697Y0019511D01*
X0022605Y0019479D01*
X0022512Y0019450D01*
X0022419Y0019426D01*
X0022324Y0019405D01*
X0022228Y0019388D01*
X0022132Y0019375D01*
X0022036Y0019366D01*
X0021939Y0019361D01*
X0021842Y0019360D01*
X0021745Y0019363D01*
X0021648Y0019370D01*
X0021552Y0019381D01*
X0021456Y0019396D01*
X0021361Y0019415D01*
X0021266Y0019437D01*
X0021173Y0019464D01*
X0021081Y0019494D01*
X0020990Y0019528D01*
X0020901Y0019566D01*
X0020813Y0019608D01*
X0020727Y0019653D01*
X0020643Y0019701D01*
X0020561Y0019753D01*
X0020482Y0019808D01*
X0020404Y0019867D01*
X0020329Y0019928D01*
X0020257Y0019993D01*
X0020187Y0020060D01*
X0020120Y0020131D01*
X0020057Y0020204D01*
X0019996Y0020279D01*
X0019938Y0020357D01*
X0019884Y0020438D01*
X0019833Y0020520D01*
X0019785Y0020605D01*
X0019741Y0020691D01*
X0019700Y0020779D01*
X0019664Y0020869D01*
X0019630Y0020960D01*
X0019601Y0021052D01*
X0019575Y0021146D01*
X0019554Y0021240D01*
X0019536Y0021336D01*
X0019522Y0021432D01*
X0019512Y0021528D01*
X0019506Y0021625D01*
X0019504Y0021722D01*
X0019504Y0049281D02*
X0019506Y0049378D01*
X0019512Y0049475D01*
X0019522Y0049571D01*
X0019536Y0049667D01*
X0019554Y0049763D01*
X0019575Y0049857D01*
X0019601Y0049951D01*
X0019630Y0050043D01*
X0019664Y0050134D01*
X0019700Y0050224D01*
X0019741Y0050312D01*
X0019785Y0050398D01*
X0019833Y0050483D01*
X0019884Y0050565D01*
X0019938Y0050646D01*
X0019996Y0050724D01*
X0020057Y0050799D01*
X0020120Y0050872D01*
X0020187Y0050943D01*
X0020257Y0051010D01*
X0020329Y0051075D01*
X0020404Y0051136D01*
X0020482Y0051195D01*
X0020561Y0051250D01*
X0020643Y0051302D01*
X0020727Y0051350D01*
X0020813Y0051395D01*
X0020901Y0051437D01*
X0020990Y0051475D01*
X0021081Y0051509D01*
X0021173Y0051539D01*
X0021266Y0051566D01*
X0021361Y0051588D01*
X0021456Y0051607D01*
X0021552Y0051622D01*
X0021648Y0051633D01*
X0021745Y0051640D01*
X0021842Y0051643D01*
X0021939Y0051642D01*
X0022036Y0051637D01*
X0022132Y0051628D01*
X0022228Y0051615D01*
X0022324Y0051598D01*
X0022419Y0051577D01*
X0022512Y0051553D01*
X0022605Y0051524D01*
X0022697Y0051492D01*
X0022787Y0051456D01*
X0022875Y0051417D01*
X0022962Y0051373D01*
X0023047Y0051327D01*
X0023130Y0051276D01*
X0023211Y0051223D01*
X0023289Y0051166D01*
X0023366Y0051106D01*
X0023439Y0051043D01*
X0023510Y0050977D01*
X0023578Y0050908D01*
X0023644Y0050836D01*
X0023706Y0050762D01*
X0023765Y0050685D01*
X0023821Y0050606D01*
X0023874Y0050524D01*
X0023924Y0050441D01*
X0023969Y0050355D01*
X0024012Y0050268D01*
X0024051Y0050179D01*
X0024086Y0050089D01*
X0024117Y0049997D01*
X0024144Y0049904D01*
X0024168Y0049810D01*
X0024188Y0049715D01*
X0024204Y0049619D01*
X0024216Y0049523D01*
X0024224Y0049426D01*
X0024228Y0049329D01*
X0024228Y0049233D01*
X0024224Y0049136D01*
X0024216Y0049039D01*
X0024204Y0048943D01*
X0024188Y0048847D01*
X0024168Y0048752D01*
X0024144Y0048658D01*
X0024117Y0048565D01*
X0024086Y0048473D01*
X0024051Y0048383D01*
X0024012Y0048294D01*
X0023969Y0048207D01*
X0023924Y0048121D01*
X0023874Y0048038D01*
X0023821Y0047956D01*
X0023765Y0047877D01*
X0023706Y0047800D01*
X0023644Y0047726D01*
X0023578Y0047654D01*
X0023510Y0047585D01*
X0023439Y0047519D01*
X0023366Y0047456D01*
X0023289Y0047396D01*
X0023211Y0047339D01*
X0023130Y0047286D01*
X0023047Y0047235D01*
X0022962Y0047189D01*
X0022875Y0047145D01*
X0022787Y0047106D01*
X0022697Y0047070D01*
X0022605Y0047038D01*
X0022512Y0047009D01*
X0022419Y0046985D01*
X0022324Y0046964D01*
X0022228Y0046947D01*
X0022132Y0046934D01*
X0022036Y0046925D01*
X0021939Y0046920D01*
X0021842Y0046919D01*
X0021745Y0046922D01*
X0021648Y0046929D01*
X0021552Y0046940D01*
X0021456Y0046955D01*
X0021361Y0046974D01*
X0021266Y0046996D01*
X0021173Y0047023D01*
X0021081Y0047053D01*
X0020990Y0047087D01*
X0020901Y0047125D01*
X0020813Y0047167D01*
X0020727Y0047212D01*
X0020643Y0047260D01*
X0020561Y0047312D01*
X0020482Y0047367D01*
X0020404Y0047426D01*
X0020329Y0047487D01*
X0020257Y0047552D01*
X0020187Y0047619D01*
X0020120Y0047690D01*
X0020057Y0047763D01*
X0019996Y0047838D01*
X0019938Y0047916D01*
X0019884Y0047997D01*
X0019833Y0048079D01*
X0019785Y0048164D01*
X0019741Y0048250D01*
X0019700Y0048338D01*
X0019664Y0048428D01*
X0019630Y0048519D01*
X0019601Y0048611D01*
X0019575Y0048705D01*
X0019554Y0048799D01*
X0019536Y0048895D01*
X0019522Y0048991D01*
X0019512Y0049087D01*
X0019506Y0049184D01*
X0019504Y0049281D01*
X0057753Y0097340D02*
X0057793Y0097313D01*
X0057786Y0097350D02*
X0057793Y0097356D01*
X0057793Y0097370D01*
X0057786Y0097377D01*
X0057753Y0097377D01*
X0057766Y0097393D02*
X0057766Y0097413D01*
X0057773Y0097423D02*
X0057766Y0097430D01*
X0057766Y0097443D01*
X0057773Y0097450D01*
X0057780Y0097450D01*
X0057780Y0097423D01*
X0057786Y0097423D02*
X0057773Y0097423D01*
X0057786Y0097423D02*
X0057793Y0097430D01*
X0057793Y0097443D01*
X0057793Y0097460D02*
X0057766Y0097460D01*
X0057780Y0097460D02*
X0057766Y0097474D01*
X0057766Y0097480D01*
X0057773Y0097491D02*
X0057766Y0097498D01*
X0057766Y0097518D01*
X0057780Y0097511D02*
X0057780Y0097498D01*
X0057773Y0097491D01*
X0057793Y0097491D02*
X0057793Y0097511D01*
X0057786Y0097518D01*
X0057780Y0097511D01*
X0057793Y0097528D02*
X0057753Y0097554D01*
X0057766Y0097565D02*
X0057766Y0097571D01*
X0057773Y0097578D01*
X0057766Y0097585D01*
X0057773Y0097591D01*
X0057793Y0097591D01*
X0057786Y0097601D02*
X0057780Y0097608D01*
X0057780Y0097628D01*
X0057773Y0097628D02*
X0057793Y0097628D01*
X0057793Y0097608D01*
X0057786Y0097601D01*
X0057766Y0097608D02*
X0057766Y0097621D01*
X0057773Y0097628D01*
X0057773Y0097638D02*
X0057786Y0097638D01*
X0057793Y0097645D01*
X0057793Y0097665D01*
X0057793Y0097675D02*
X0057793Y0097695D01*
X0057786Y0097702D01*
X0057773Y0097702D01*
X0057766Y0097695D01*
X0057766Y0097675D01*
X0057766Y0097665D02*
X0057766Y0097645D01*
X0057773Y0097638D01*
X0057753Y0097675D02*
X0057793Y0097675D01*
X0057786Y0097712D02*
X0057793Y0097719D01*
X0057793Y0097732D01*
X0057786Y0097739D01*
X0057773Y0097739D01*
X0057766Y0097732D01*
X0057766Y0097719D01*
X0057773Y0097712D01*
X0057786Y0097712D01*
X0057786Y0097749D02*
X0057793Y0097755D01*
X0057793Y0097769D01*
X0057786Y0097775D01*
X0057773Y0097775D01*
X0057766Y0097769D01*
X0057766Y0097755D01*
X0057773Y0097749D01*
X0057786Y0097749D01*
X0057780Y0097786D02*
X0057766Y0097806D01*
X0057753Y0097786D02*
X0057793Y0097786D01*
X0057780Y0097786D02*
X0057793Y0097806D01*
X0057793Y0097816D02*
X0057753Y0097843D01*
X0057753Y0097853D02*
X0057753Y0097873D01*
X0057760Y0097880D01*
X0057786Y0097880D01*
X0057793Y0097873D01*
X0057793Y0097853D01*
X0057753Y0097853D01*
X0057773Y0097890D02*
X0057786Y0097890D01*
X0057793Y0097897D01*
X0057793Y0097910D01*
X0057786Y0097917D01*
X0057773Y0097917D01*
X0057766Y0097910D01*
X0057766Y0097897D01*
X0057773Y0097890D01*
X0057773Y0097927D02*
X0057786Y0097927D01*
X0057793Y0097933D01*
X0057793Y0097953D01*
X0057786Y0097964D02*
X0057793Y0097970D01*
X0057793Y0097990D01*
X0057766Y0097990D01*
X0057766Y0098000D02*
X0057766Y0098007D01*
X0057773Y0098014D01*
X0057766Y0098020D01*
X0057773Y0098027D01*
X0057793Y0098027D01*
X0057786Y0098037D02*
X0057773Y0098037D01*
X0057766Y0098044D01*
X0057766Y0098057D01*
X0057773Y0098064D01*
X0057780Y0098064D01*
X0057780Y0098037D01*
X0057786Y0098037D02*
X0057793Y0098044D01*
X0057793Y0098057D01*
X0057793Y0098074D02*
X0057766Y0098074D01*
X0057766Y0098094D01*
X0057773Y0098101D01*
X0057793Y0098101D01*
X0057786Y0098117D02*
X0057793Y0098124D01*
X0057786Y0098117D02*
X0057760Y0098117D01*
X0057766Y0098111D02*
X0057766Y0098124D01*
X0057773Y0098135D02*
X0057766Y0098142D01*
X0057766Y0098162D01*
X0057780Y0098155D02*
X0057780Y0098142D01*
X0057773Y0098135D01*
X0057793Y0098135D02*
X0057793Y0098155D01*
X0057786Y0098162D01*
X0057780Y0098155D01*
X0057793Y0098172D02*
X0057753Y0098199D01*
X0057753Y0098209D02*
X0057766Y0098222D01*
X0057753Y0098236D01*
X0057793Y0098236D01*
X0057793Y0098246D02*
X0057793Y0098259D01*
X0057793Y0098253D02*
X0057766Y0098253D01*
X0057766Y0098246D01*
X0057753Y0098253D02*
X0057746Y0098253D01*
X0057746Y0098277D02*
X0057753Y0098277D01*
X0057766Y0098277D02*
X0057793Y0098277D01*
X0057793Y0098270D02*
X0057793Y0098284D01*
X0057786Y0098295D02*
X0057793Y0098302D01*
X0057793Y0098315D01*
X0057786Y0098322D01*
X0057793Y0098332D02*
X0057753Y0098332D01*
X0057760Y0098322D02*
X0057753Y0098315D01*
X0057753Y0098302D01*
X0057760Y0098295D01*
X0057786Y0098295D01*
X0057766Y0098277D02*
X0057766Y0098270D01*
X0057773Y0098332D02*
X0057766Y0098338D01*
X0057766Y0098352D01*
X0057773Y0098358D01*
X0057793Y0098358D01*
X0057793Y0098369D02*
X0057766Y0098369D01*
X0057766Y0098382D02*
X0057766Y0098389D01*
X0057766Y0098382D02*
X0057780Y0098369D01*
X0057786Y0098399D02*
X0057793Y0098406D01*
X0057793Y0098419D01*
X0057786Y0098426D01*
X0057773Y0098426D01*
X0057766Y0098419D01*
X0057766Y0098406D01*
X0057773Y0098399D01*
X0057786Y0098399D01*
X0057793Y0098436D02*
X0057766Y0098436D01*
X0057766Y0098456D01*
X0057773Y0098463D01*
X0057793Y0098463D01*
X0057786Y0098473D02*
X0057793Y0098480D01*
X0057793Y0098493D01*
X0057786Y0098500D01*
X0057773Y0098500D01*
X0057766Y0098493D01*
X0057766Y0098480D01*
X0057773Y0098473D01*
X0057786Y0098473D01*
X0057800Y0098510D02*
X0057800Y0098536D01*
X0057793Y0098547D02*
X0057793Y0098567D01*
X0057786Y0098573D01*
X0057780Y0098573D01*
X0057773Y0098567D01*
X0057773Y0098547D01*
X0057773Y0098567D02*
X0057766Y0098573D01*
X0057760Y0098573D01*
X0057753Y0098567D01*
X0057753Y0098547D01*
X0057793Y0098547D01*
X0057793Y0098583D02*
X0057780Y0098597D01*
X0057793Y0098610D01*
X0057753Y0098610D01*
X0057753Y0098583D02*
X0057793Y0098583D01*
X0057793Y0098620D02*
X0057793Y0098627D01*
X0057786Y0098627D01*
X0057786Y0098620D01*
X0057793Y0098620D01*
X0057793Y0098639D02*
X0057793Y0098659D01*
X0057786Y0098665D01*
X0057780Y0098665D01*
X0057773Y0098659D01*
X0057773Y0098639D01*
X0057773Y0098659D02*
X0057766Y0098665D01*
X0057760Y0098665D01*
X0057753Y0098659D01*
X0057753Y0098639D01*
X0057793Y0098639D01*
X0057793Y0098675D02*
X0057753Y0098675D01*
X0057766Y0098689D01*
X0057753Y0098702D01*
X0057793Y0098702D01*
X0057793Y0098712D02*
X0057753Y0098712D01*
X0057753Y0098732D01*
X0057760Y0098739D01*
X0057773Y0098739D01*
X0057780Y0098732D01*
X0057780Y0098712D01*
X0057793Y0098209D02*
X0057753Y0098209D01*
X0057773Y0098014D02*
X0057793Y0098014D01*
X0057793Y0098000D02*
X0057766Y0098000D01*
X0057766Y0097964D02*
X0057786Y0097964D01*
X0057766Y0097953D02*
X0057766Y0097933D01*
X0057773Y0097927D01*
X0057773Y0097578D02*
X0057793Y0097578D01*
X0057793Y0097565D02*
X0057766Y0097565D01*
X0057786Y0097413D02*
X0057780Y0097407D01*
X0057780Y0097393D01*
X0057773Y0097387D01*
X0057766Y0097393D01*
X0057793Y0097387D02*
X0057793Y0097407D01*
X0057786Y0097413D01*
X0057786Y0097350D02*
X0057753Y0097350D01*
D11*
X0060330Y0100433D02*
X0061564Y0101667D01*
X0060330Y0102902D01*
X0064033Y0102902D01*
X0064033Y0104116D02*
X0064033Y0105351D01*
X0064033Y0104733D02*
X0060330Y0104733D01*
X0060330Y0104116D02*
X0060330Y0105351D01*
X0060330Y0106572D02*
X0060330Y0107806D01*
X0060330Y0107189D02*
X0064033Y0107189D01*
X0064033Y0106572D02*
X0064033Y0107806D01*
X0064033Y0109027D02*
X0064033Y0110879D01*
X0063416Y0111496D01*
X0062799Y0111496D01*
X0062181Y0110879D01*
X0062181Y0109027D01*
X0062181Y0110879D02*
X0061564Y0111496D01*
X0060947Y0111496D01*
X0060330Y0110879D01*
X0060330Y0109027D01*
X0064033Y0109027D01*
X0064033Y0112710D02*
X0064033Y0115179D01*
X0064033Y0116393D02*
X0061564Y0116393D01*
X0060330Y0117628D01*
X0061564Y0118862D01*
X0064033Y0118862D01*
X0064033Y0120076D02*
X0060330Y0120076D01*
X0061564Y0121311D01*
X0060330Y0122545D01*
X0064033Y0122545D01*
X0062181Y0118862D02*
X0062181Y0116393D01*
X0062181Y0113945D02*
X0062181Y0112710D01*
X0060330Y0112710D02*
X0064033Y0112710D01*
X0060330Y0112710D02*
X0060330Y0115179D01*
X0060330Y0127443D02*
X0062799Y0127443D01*
X0064033Y0128677D01*
X0062799Y0129911D01*
X0060330Y0129911D01*
X0060947Y0131126D02*
X0060330Y0131743D01*
X0060330Y0132977D01*
X0060947Y0133595D01*
X0061564Y0133595D01*
X0062181Y0132977D01*
X0062799Y0133595D01*
X0063416Y0133595D01*
X0064033Y0132977D01*
X0064033Y0131743D01*
X0063416Y0131126D01*
X0062181Y0132360D02*
X0062181Y0132977D01*
X0063416Y0134809D02*
X0063416Y0135426D01*
X0064033Y0135426D01*
X0064033Y0134809D01*
X0063416Y0134809D01*
X0063416Y0136651D02*
X0060947Y0139119D01*
X0063416Y0139119D01*
X0064033Y0138502D01*
X0064033Y0137268D01*
X0063416Y0136651D01*
X0060947Y0136651D01*
X0060330Y0137268D01*
X0060330Y0138502D01*
X0060947Y0139119D01*
X0060330Y0100433D02*
X0064033Y0100433D01*
X0086951Y0051998D02*
X0087568Y0051998D01*
X0087568Y0049529D01*
X0086951Y0049529D02*
X0086334Y0050146D01*
X0086334Y0051380D01*
X0086951Y0051998D01*
X0088803Y0051380D02*
X0088803Y0050146D01*
X0088186Y0049529D01*
X0086951Y0049529D01*
X0086334Y0048314D02*
X0088803Y0048314D01*
X0088803Y0046463D01*
X0088186Y0045846D01*
X0086334Y0045846D01*
X0085100Y0044007D02*
X0085100Y0043390D01*
X0085100Y0044007D02*
X0088803Y0044007D01*
X0088803Y0043390D02*
X0088803Y0044625D01*
X0088186Y0042176D02*
X0087568Y0042176D01*
X0086951Y0041559D01*
X0086951Y0039707D01*
X0086951Y0041559D02*
X0086334Y0042176D01*
X0085717Y0042176D01*
X0085100Y0041559D01*
X0085100Y0039707D01*
X0088803Y0039707D01*
X0088803Y0041559D01*
X0088186Y0042176D01*
X0083999Y0024801D02*
X0083999Y0022332D01*
X0085233Y0023567D02*
X0082764Y0023567D01*
X0043304Y0012595D02*
X0040835Y0012595D01*
X0042069Y0011361D02*
X0042069Y0013829D01*
X0035401Y0020547D02*
X0031698Y0020547D01*
X0031698Y0022399D01*
X0032315Y0023016D01*
X0033550Y0023016D01*
X0034167Y0022399D01*
X0034167Y0020547D01*
X0034167Y0021782D02*
X0035401Y0023016D01*
X0035401Y0024231D02*
X0035401Y0026699D01*
X0035401Y0027914D02*
X0035401Y0029765D01*
X0034784Y0030382D01*
X0032315Y0030382D01*
X0031698Y0029765D01*
X0031698Y0027914D01*
X0035401Y0027914D01*
X0033550Y0025465D02*
X0033550Y0024231D01*
X0035401Y0024231D02*
X0031698Y0024231D01*
X0031698Y0026699D01*
X0021650Y0012595D02*
X0019181Y0012595D01*
X0020416Y0011361D02*
X0020416Y0013829D01*
X0013918Y0021449D02*
X0014535Y0022066D01*
X0014535Y0023300D01*
X0013918Y0023918D01*
X0012683Y0023918D01*
X0012683Y0022683D01*
X0011449Y0021449D02*
X0013918Y0021449D01*
X0014535Y0025132D02*
X0010832Y0025132D01*
X0010832Y0026984D01*
X0011449Y0027601D01*
X0012683Y0027601D01*
X0013301Y0026984D01*
X0013301Y0025132D01*
X0013301Y0026366D02*
X0014535Y0027601D01*
X0014535Y0028815D02*
X0014535Y0031284D01*
X0014535Y0032498D02*
X0014535Y0034967D01*
X0014535Y0036181D02*
X0010832Y0036181D01*
X0014535Y0038650D01*
X0010832Y0038650D01*
X0010832Y0034967D02*
X0010832Y0032498D01*
X0014535Y0032498D01*
X0012683Y0032498D02*
X0012683Y0033733D01*
X0012683Y0030050D02*
X0012683Y0028815D01*
X0010832Y0028815D02*
X0014535Y0028815D01*
X0011449Y0023918D02*
X0010832Y0023300D01*
X0010832Y0022066D01*
X0011449Y0021449D01*
X0010832Y0028815D02*
X0010832Y0031284D01*
D12*
X0011827Y0018573D03*
X0011827Y0013848D03*
X0033480Y0013848D03*
X0033480Y0018573D03*
D13*
X0033480Y0016211D03*
X0011827Y0016211D03*
X0087614Y0032156D03*
D14*
X0080921Y0023691D02*
X0010055Y0023691D01*
X0010055Y0192982D01*
X0080921Y0192982D01*
X0080921Y0023691D01*
D15*
X0085252Y0032156D03*
X0089976Y0032156D03*
D16*
X0057673Y0122863D03*
X0038613Y0097463D03*
X0028073Y0105163D03*
X0026713Y0109063D03*
X0026673Y0109063D03*
X0024513Y0111163D03*
D17*
X0024293Y0109253D03*
X0025033Y0107573D03*
X0025053Y0107533D03*
X0025093Y0107473D03*
X0027993Y0105233D03*
X0028733Y0105093D03*
X0028753Y0105093D03*
X0028793Y0105093D03*
X0028833Y0105093D03*
X0028393Y0110273D03*
X0028353Y0110273D03*
X0029293Y0113853D03*
X0038353Y0097533D03*
X0046353Y0097733D03*
X0046393Y0097753D03*
X0057653Y0122893D03*
D18*
X0057633Y0122933D03*
X0046533Y0097793D03*
X0031893Y0106393D03*
X0029493Y0113793D03*
X0024893Y0107833D03*
D19*
X0029573Y0113773D03*
X0029613Y0113753D03*
X0046673Y0097853D03*
X0057613Y0122973D03*
D20*
X0057593Y0123013D03*
X0046833Y0097913D03*
X0029753Y0113713D03*
X0029733Y0113713D03*
X0026993Y0108913D03*
D21*
X0029373Y0105183D03*
X0029913Y0113643D03*
X0029813Y0113683D03*
X0038013Y0097643D03*
X0046913Y0097943D03*
X0057573Y0123043D03*
D22*
X0057553Y0123073D03*
X0057533Y0123113D03*
X0046933Y0097953D03*
X0046893Y0097933D03*
X0037993Y0097653D03*
X0037953Y0097673D03*
X0032053Y0106633D03*
X0029493Y0105233D03*
X0029453Y0105213D03*
X0029393Y0105213D03*
X0029353Y0105193D03*
X0027533Y0108953D03*
X0024593Y0108553D03*
X0029893Y0113653D03*
X0029933Y0113633D03*
D23*
X0037913Y0097683D03*
X0047013Y0097983D03*
X0057513Y0123143D03*
D24*
X0057493Y0123173D03*
X0047053Y0097993D03*
X0047033Y0097993D03*
X0037893Y0097693D03*
X0030093Y0113553D03*
X0030053Y0113573D03*
X0027493Y0108953D03*
X0027053Y0108893D03*
X0025153Y0112493D03*
X0025193Y0112533D03*
X0024953Y0112293D03*
X0024933Y0112273D03*
X0024893Y0112233D03*
X0024853Y0112173D03*
X0024833Y0112153D03*
X0024693Y0111953D03*
X0024633Y0111853D03*
X0029553Y0105253D03*
X0029593Y0105273D03*
D25*
X0029613Y0105283D03*
X0029673Y0105303D03*
X0027073Y0108883D03*
X0025073Y0112423D03*
X0025273Y0112603D03*
X0025313Y0112623D03*
X0025413Y0112703D03*
X0025473Y0112743D03*
X0024713Y0111983D03*
X0024673Y0111923D03*
X0024613Y0111823D03*
X0024573Y0111743D03*
X0030173Y0113523D03*
X0037813Y0097723D03*
X0047113Y0098023D03*
X0057473Y0123203D03*
D26*
X0057453Y0123233D03*
X0047133Y0098033D03*
X0037793Y0097733D03*
X0029733Y0105333D03*
X0029653Y0105293D03*
X0025633Y0112833D03*
X0025553Y0112793D03*
D27*
X0025653Y0112843D03*
X0024453Y0111483D03*
X0024433Y0111423D03*
X0030233Y0113483D03*
X0030253Y0113483D03*
X0029753Y0105343D03*
X0037753Y0097743D03*
X0047193Y0098063D03*
X0047233Y0098083D03*
X0047253Y0098083D03*
X0057433Y0123263D03*
D28*
X0057413Y0123283D03*
X0047213Y0098063D03*
X0037713Y0097763D03*
X0032173Y0106843D03*
X0029713Y0105323D03*
X0030313Y0113443D03*
X0030273Y0113463D03*
X0025713Y0112883D03*
X0025673Y0112863D03*
X0025613Y0112823D03*
X0024473Y0111523D03*
X0024513Y0108823D03*
D29*
X0024393Y0111313D03*
X0025693Y0112873D03*
X0025753Y0112913D03*
X0030293Y0113453D03*
X0029793Y0105373D03*
X0037693Y0097773D03*
X0025993Y0123553D03*
X0057393Y0123313D03*
D30*
X0057373Y0123353D03*
X0047313Y0098113D03*
X0037673Y0097773D03*
X0029813Y0105373D03*
X0029773Y0105353D03*
X0025773Y0112913D03*
X0024413Y0111373D03*
D31*
X0025793Y0112923D03*
X0025833Y0112943D03*
X0030353Y0113423D03*
X0030393Y0113403D03*
X0032193Y0106883D03*
X0029853Y0105403D03*
X0029833Y0105383D03*
X0037593Y0097803D03*
X0037653Y0097783D03*
X0047293Y0098103D03*
X0047333Y0098123D03*
X0047353Y0098123D03*
X0057353Y0123383D03*
X0057333Y0123403D03*
D32*
X0057313Y0123433D03*
X0047413Y0098153D03*
X0047373Y0098133D03*
X0024473Y0108993D03*
D33*
X0024353Y0111173D03*
X0025853Y0112953D03*
X0025893Y0112973D03*
X0025933Y0112993D03*
X0027453Y0108933D03*
X0030453Y0113353D03*
X0030433Y0113373D03*
X0030493Y0113333D03*
X0037533Y0097833D03*
X0037553Y0097833D03*
X0047393Y0098153D03*
X0057293Y0123453D03*
D34*
X0057273Y0123483D03*
X0047473Y0098183D03*
X0037513Y0097843D03*
X0029913Y0105443D03*
X0030473Y0113343D03*
X0025913Y0112983D03*
D35*
X0026033Y0113033D03*
X0026053Y0113033D03*
X0026093Y0113053D03*
X0026153Y0113073D03*
X0024453Y0109073D03*
X0029933Y0105453D03*
X0029953Y0105453D03*
X0032253Y0107013D03*
X0030553Y0113293D03*
X0037433Y0097873D03*
X0037453Y0097873D03*
X0047493Y0098193D03*
X0047533Y0098213D03*
X0057253Y0123513D03*
X0057233Y0123533D03*
D36*
X0057213Y0123563D03*
X0057173Y0123623D03*
X0047573Y0098223D03*
X0047513Y0098203D03*
X0037373Y0097903D03*
X0030613Y0113263D03*
X0026113Y0113063D03*
D37*
X0026193Y0113083D03*
X0029993Y0105483D03*
X0030633Y0113243D03*
X0047593Y0098243D03*
X0057193Y0123583D03*
X0057153Y0123643D03*
D38*
X0057133Y0123673D03*
X0047633Y0098253D03*
X0037393Y0097893D03*
X0032293Y0107093D03*
X0030693Y0113193D03*
X0026233Y0113093D03*
D39*
X0026213Y0113093D03*
X0030013Y0105493D03*
X0047613Y0098253D03*
X0057113Y0123693D03*
D40*
X0057093Y0123723D03*
X0047693Y0098283D03*
X0037293Y0097943D03*
X0030053Y0105523D03*
X0027433Y0108883D03*
X0026353Y0113123D03*
X0026333Y0113123D03*
X0024433Y0109183D03*
D41*
X0024173Y0110243D03*
X0026313Y0113123D03*
X0030713Y0113183D03*
X0033173Y0109403D03*
X0037273Y0097943D03*
X0037313Y0097923D03*
X0047673Y0098283D03*
X0057073Y0123743D03*
D42*
X0057053Y0123763D03*
X0047653Y0098263D03*
X0030733Y0113163D03*
D43*
X0026393Y0113133D03*
X0057033Y0123793D03*
D44*
X0057013Y0123813D03*
X0037213Y0097973D03*
X0030073Y0105553D03*
X0026473Y0113153D03*
D45*
X0026493Y0113163D03*
X0026533Y0113163D03*
X0026553Y0113163D03*
X0030093Y0105563D03*
X0030793Y0113123D03*
X0037153Y0098003D03*
X0037193Y0097983D03*
X0037233Y0097963D03*
X0056993Y0123843D03*
X0056953Y0123903D03*
X0056933Y0123923D03*
D46*
X0056973Y0123863D03*
X0047773Y0098323D03*
X0032313Y0107143D03*
X0030113Y0105583D03*
X0030813Y0113103D03*
X0026513Y0113163D03*
D47*
X0026573Y0113173D03*
X0026613Y0113173D03*
X0030873Y0113053D03*
X0047813Y0098353D03*
X0056913Y0123953D03*
D48*
X0056893Y0123973D03*
X0047833Y0098353D03*
X0037133Y0098013D03*
X0030853Y0113073D03*
X0030153Y0105613D03*
X0026633Y0113173D03*
X0026593Y0113173D03*
D49*
X0026673Y0113183D03*
X0026713Y0113183D03*
X0027413Y0108843D03*
X0030173Y0105623D03*
X0030913Y0113023D03*
X0037073Y0098043D03*
X0037113Y0098023D03*
X0047873Y0098383D03*
X0056873Y0124003D03*
D50*
X0056853Y0124023D03*
X0047893Y0098383D03*
X0037093Y0098023D03*
X0032333Y0107183D03*
X0030933Y0113003D03*
X0030893Y0113043D03*
X0026693Y0113183D03*
X0026653Y0113183D03*
X0024293Y0109983D03*
D51*
X0026733Y0113193D03*
X0026753Y0113193D03*
X0026793Y0113193D03*
X0030953Y0112993D03*
X0032353Y0107233D03*
X0037033Y0098053D03*
X0037053Y0098053D03*
X0056833Y0124053D03*
X0056793Y0124093D03*
D52*
X0056813Y0124073D03*
X0047913Y0098393D03*
X0037013Y0098073D03*
X0030973Y0112973D03*
X0026773Y0113193D03*
X0024273Y0110793D03*
D53*
X0024413Y0109323D03*
X0026813Y0113203D03*
X0026873Y0113203D03*
X0030213Y0105663D03*
X0047973Y0098423D03*
X0056773Y0124123D03*
D54*
X0056753Y0124143D03*
X0036993Y0098083D03*
X0030193Y0105643D03*
D55*
X0030233Y0105673D03*
X0026933Y0113193D03*
X0026893Y0113193D03*
X0036933Y0098113D03*
X0036953Y0098093D03*
X0047993Y0098433D03*
X0048033Y0098453D03*
X0056733Y0124173D03*
X0056693Y0124233D03*
D56*
X0056673Y0124253D03*
X0056713Y0124193D03*
X0056513Y0105953D03*
X0048013Y0098453D03*
X0036913Y0098113D03*
X0026913Y0113193D03*
D57*
X0036853Y0098143D03*
X0056653Y0124283D03*
D58*
X0056633Y0124303D03*
X0048053Y0098463D03*
X0036893Y0098123D03*
X0030253Y0105703D03*
X0031093Y0112863D03*
X0031053Y0112903D03*
X0027033Y0113203D03*
X0026993Y0113203D03*
X0026953Y0113203D03*
X0024093Y0118803D03*
D59*
X0027073Y0113193D03*
X0027113Y0113193D03*
X0031113Y0112853D03*
X0036813Y0098173D03*
X0048113Y0098493D03*
X0056613Y0124333D03*
X0056573Y0124373D03*
D60*
X0056593Y0124353D03*
X0048093Y0098493D03*
X0036833Y0098153D03*
X0036793Y0098173D03*
X0030293Y0105733D03*
X0031133Y0112833D03*
X0027133Y0113193D03*
X0027093Y0113193D03*
X0027053Y0113193D03*
D61*
X0027153Y0113203D03*
X0027393Y0108803D03*
X0030333Y0105783D03*
X0032393Y0107343D03*
X0031853Y0108343D03*
X0036753Y0098203D03*
X0048153Y0098523D03*
X0048193Y0098543D03*
X0056553Y0124403D03*
X0056533Y0124423D03*
D62*
X0056513Y0124453D03*
X0048213Y0098553D03*
X0036713Y0098213D03*
X0031213Y0112753D03*
D63*
X0028393Y0112863D03*
X0030553Y0106063D03*
X0035933Y0098703D03*
X0035993Y0098663D03*
X0048793Y0098903D03*
X0056493Y0105963D03*
X0055393Y0125723D03*
X0055353Y0125763D03*
X0055293Y0125823D03*
D64*
X0056493Y0124473D03*
X0036733Y0098213D03*
X0031193Y0112773D03*
D65*
X0031813Y0108363D03*
X0054013Y0127063D03*
X0056473Y0105963D03*
D66*
X0048173Y0098533D03*
X0056473Y0124493D03*
X0027213Y0113193D03*
X0027173Y0113193D03*
D67*
X0029793Y0111803D03*
X0031793Y0108363D03*
X0049553Y0099443D03*
X0056453Y0105963D03*
X0052793Y0128083D03*
X0052753Y0128123D03*
X0052733Y0128123D03*
X0052693Y0128163D03*
D68*
X0056433Y0124543D03*
X0056453Y0124523D03*
X0048253Y0098583D03*
X0048233Y0098563D03*
X0036633Y0098263D03*
X0030353Y0105803D03*
X0031253Y0112703D03*
X0027333Y0113183D03*
X0027293Y0113183D03*
D69*
X0051353Y0129063D03*
X0056433Y0105963D03*
D70*
X0056413Y0105973D03*
X0050613Y0129453D03*
X0050573Y0129473D03*
D71*
X0056413Y0124563D03*
X0036673Y0098243D03*
X0032413Y0107403D03*
X0027313Y0113183D03*
X0027273Y0113183D03*
D72*
X0024233Y0118963D03*
X0034633Y0100083D03*
X0049833Y0129783D03*
X0049893Y0129763D03*
X0056393Y0105963D03*
D73*
X0048293Y0098593D03*
X0036593Y0098293D03*
X0056393Y0124593D03*
D74*
X0056373Y0105963D03*
D75*
X0048313Y0098613D03*
X0036613Y0098273D03*
X0031313Y0112653D03*
X0027413Y0113173D03*
X0027373Y0113173D03*
X0056373Y0124613D03*
D76*
X0056353Y0105963D03*
D77*
X0048333Y0098623D03*
X0036553Y0098303D03*
X0036533Y0098323D03*
X0030393Y0105843D03*
X0031353Y0112603D03*
X0031333Y0112623D03*
X0056353Y0124643D03*
D78*
X0048633Y0130093D03*
X0048593Y0130093D03*
X0056333Y0105973D03*
X0032753Y0103173D03*
X0024293Y0119033D03*
D79*
X0027433Y0113163D03*
X0027453Y0113163D03*
X0027493Y0113163D03*
X0056253Y0124763D03*
X0056333Y0124663D03*
D80*
X0056313Y0105973D03*
D81*
X0056313Y0124683D03*
X0036573Y0098303D03*
D82*
X0056293Y0105973D03*
D83*
X0056293Y0124713D03*
D84*
X0056273Y0105973D03*
D85*
X0056273Y0124733D03*
X0036513Y0098333D03*
X0036473Y0098353D03*
X0030413Y0105873D03*
X0027373Y0108753D03*
X0027613Y0113133D03*
X0027513Y0113153D03*
D86*
X0056253Y0105973D03*
D87*
X0056233Y0105963D03*
X0047493Y0130123D03*
X0031553Y0108403D03*
D88*
X0027553Y0113153D03*
X0027533Y0113153D03*
X0048353Y0098633D03*
X0048393Y0098653D03*
X0056233Y0124793D03*
X0056193Y0124833D03*
D89*
X0056213Y0105963D03*
D90*
X0056213Y0124813D03*
D91*
X0056193Y0105963D03*
D92*
X0056173Y0105953D03*
X0047113Y0130053D03*
D93*
X0056113Y0124923D03*
X0056173Y0124863D03*
X0048413Y0098663D03*
X0027673Y0113123D03*
D94*
X0032733Y0109393D03*
X0056153Y0105953D03*
D95*
X0056153Y0124883D03*
X0036493Y0098343D03*
X0036433Y0098383D03*
X0027593Y0113143D03*
D96*
X0024493Y0119253D03*
X0032893Y0103253D03*
X0056133Y0105953D03*
D97*
X0056133Y0124903D03*
X0036453Y0098363D03*
X0032433Y0107463D03*
X0031393Y0112563D03*
X0030433Y0105903D03*
X0027653Y0113123D03*
X0027633Y0113123D03*
D98*
X0030313Y0117493D03*
X0030373Y0117473D03*
X0031413Y0117153D03*
X0031473Y0117133D03*
X0046773Y0129953D03*
X0056113Y0105953D03*
D99*
X0056093Y0105943D03*
X0046693Y0129923D03*
X0031853Y0116983D03*
X0029853Y0117623D03*
X0029793Y0117643D03*
D100*
X0027693Y0113113D03*
X0031433Y0112513D03*
X0031453Y0112493D03*
X0033153Y0109393D03*
X0048433Y0098673D03*
X0048453Y0098693D03*
X0056093Y0124953D03*
X0056053Y0124993D03*
D101*
X0056073Y0105943D03*
X0032073Y0116903D03*
X0029513Y0117723D03*
X0029473Y0117723D03*
D102*
X0027713Y0113113D03*
X0036373Y0098413D03*
X0036413Y0098393D03*
X0056073Y0124973D03*
D103*
X0056053Y0105943D03*
D104*
X0056033Y0105943D03*
X0046453Y0129823D03*
X0032953Y0103283D03*
X0032393Y0116743D03*
X0029033Y0117863D03*
X0028953Y0117883D03*
D105*
X0027753Y0113103D03*
X0027733Y0113103D03*
X0030453Y0105923D03*
X0036353Y0098423D03*
X0036393Y0098403D03*
X0048493Y0098703D03*
X0056033Y0125023D03*
X0055993Y0125063D03*
D106*
X0056013Y0105943D03*
X0032513Y0116683D03*
X0028773Y0117943D03*
D107*
X0027813Y0113083D03*
X0055973Y0125083D03*
X0056013Y0125043D03*
D108*
X0055993Y0105943D03*
X0032653Y0116603D03*
X0032633Y0116623D03*
X0028593Y0118003D03*
D109*
X0028373Y0118073D03*
X0031273Y0108473D03*
X0055973Y0105933D03*
D110*
X0055953Y0105933D03*
X0031253Y0108493D03*
X0028193Y0118133D03*
X0028153Y0118153D03*
D111*
X0027353Y0108713D03*
X0055953Y0125113D03*
D112*
X0055933Y0105933D03*
X0031233Y0108493D03*
X0028053Y0118193D03*
X0028033Y0118193D03*
D113*
X0027793Y0113093D03*
X0027833Y0113073D03*
X0027853Y0113073D03*
X0031493Y0112453D03*
X0024193Y0110233D03*
X0048533Y0098733D03*
X0055933Y0125133D03*
X0055893Y0125173D03*
D114*
X0055913Y0105943D03*
X0033073Y0116383D03*
X0027913Y0118243D03*
D115*
X0027873Y0113073D03*
X0030473Y0105953D03*
X0036273Y0098473D03*
X0036313Y0098453D03*
X0055913Y0125153D03*
D116*
X0055893Y0105943D03*
X0031193Y0108503D03*
X0027753Y0118303D03*
D117*
X0027573Y0118383D03*
X0055873Y0105943D03*
D118*
X0055873Y0125203D03*
X0031513Y0112423D03*
D119*
X0027433Y0118443D03*
X0055853Y0105943D03*
D120*
X0048553Y0098743D03*
X0036253Y0098483D03*
X0036233Y0098503D03*
X0032453Y0107543D03*
X0031533Y0112403D03*
X0027953Y0113043D03*
X0027933Y0113043D03*
X0055833Y0125243D03*
X0055853Y0125223D03*
D121*
X0055833Y0105943D03*
X0045853Y0129463D03*
X0033433Y0116163D03*
X0027333Y0118483D03*
D122*
X0055813Y0105943D03*
D123*
X0048573Y0098763D03*
X0055813Y0125263D03*
X0027913Y0113063D03*
D124*
X0033533Y0116093D03*
X0055793Y0105953D03*
D125*
X0048633Y0098793D03*
X0036193Y0098533D03*
X0027993Y0113033D03*
X0055753Y0125333D03*
X0055793Y0125293D03*
D126*
X0055773Y0105953D03*
X0045713Y0129353D03*
X0026973Y0118673D03*
D127*
X0024313Y0109973D03*
X0031573Y0112353D03*
X0036213Y0098513D03*
X0055773Y0125313D03*
D128*
X0055753Y0105953D03*
X0024893Y0119593D03*
D129*
X0026793Y0118783D03*
X0045633Y0129283D03*
X0055733Y0105943D03*
D130*
X0048593Y0098773D03*
X0055733Y0125353D03*
X0031553Y0112373D03*
X0030493Y0105973D03*
X0028033Y0113013D03*
D131*
X0055713Y0105953D03*
D132*
X0048673Y0098823D03*
X0036173Y0098543D03*
X0030513Y0106003D03*
X0031613Y0112303D03*
X0028113Y0112983D03*
X0028073Y0113003D03*
X0028013Y0113023D03*
X0055713Y0125383D03*
D133*
X0055693Y0105953D03*
X0033833Y0115873D03*
X0026633Y0118893D03*
D134*
X0028093Y0112993D03*
X0030533Y0106033D03*
X0036093Y0098593D03*
X0048693Y0098833D03*
X0055693Y0125393D03*
X0055653Y0125433D03*
D135*
X0055673Y0105953D03*
X0033213Y0103413D03*
D136*
X0036113Y0098573D03*
X0055673Y0125413D03*
D137*
X0055653Y0105963D03*
D138*
X0055633Y0105953D03*
X0033953Y0115773D03*
X0025033Y0119673D03*
D139*
X0028133Y0112973D03*
X0028153Y0112973D03*
X0028193Y0112953D03*
X0031633Y0112273D03*
X0055633Y0125453D03*
D140*
X0055613Y0105963D03*
X0045413Y0129063D03*
D141*
X0055573Y0125523D03*
X0055613Y0125483D03*
X0048713Y0098843D03*
X0036073Y0098603D03*
X0031673Y0112223D03*
X0028273Y0112923D03*
X0028213Y0112943D03*
X0024113Y0118823D03*
D142*
X0055593Y0105963D03*
D143*
X0055593Y0125503D03*
X0055553Y0125543D03*
X0036053Y0098623D03*
X0031653Y0112243D03*
X0028233Y0112943D03*
D144*
X0025113Y0119723D03*
X0055573Y0105963D03*
D145*
X0055553Y0105963D03*
X0033293Y0103463D03*
D146*
X0026193Y0119273D03*
X0055533Y0105973D03*
D147*
X0048733Y0098863D03*
X0055533Y0125563D03*
X0027333Y0108663D03*
D148*
X0034173Y0115553D03*
X0055513Y0105973D03*
D149*
X0055513Y0125593D03*
X0055473Y0125633D03*
X0055413Y0125693D03*
X0036013Y0098653D03*
X0035973Y0098673D03*
D150*
X0055493Y0105973D03*
D151*
X0055493Y0125613D03*
X0032633Y0103113D03*
X0028293Y0112913D03*
D152*
X0055473Y0105973D03*
D153*
X0055453Y0105973D03*
X0045193Y0128793D03*
D154*
X0055433Y0125673D03*
X0055453Y0125653D03*
X0048753Y0098873D03*
X0036033Y0098633D03*
X0031693Y0112193D03*
X0028333Y0112893D03*
X0028253Y0112933D03*
D155*
X0055433Y0105973D03*
D156*
X0055413Y0105983D03*
D157*
X0055393Y0105983D03*
D158*
X0055373Y0105983D03*
D159*
X0048773Y0098883D03*
X0055373Y0125743D03*
X0028373Y0112883D03*
D160*
X0033433Y0103543D03*
X0055353Y0105983D03*
D161*
X0055333Y0105983D03*
D162*
X0055333Y0125783D03*
X0035953Y0098683D03*
X0031733Y0112143D03*
X0028353Y0112883D03*
D163*
X0055313Y0105983D03*
D164*
X0055313Y0125803D03*
X0031713Y0112163D03*
X0028313Y0112903D03*
D165*
X0034393Y0115233D03*
X0055293Y0105993D03*
D166*
X0055273Y0105983D03*
D167*
X0048813Y0098913D03*
X0035913Y0098713D03*
X0028473Y0112833D03*
X0028413Y0112853D03*
X0055273Y0125853D03*
D168*
X0055253Y0105993D03*
X0025593Y0119933D03*
D169*
X0028493Y0112823D03*
X0028533Y0112803D03*
X0035853Y0098763D03*
X0048833Y0098923D03*
X0055253Y0125863D03*
X0055193Y0125923D03*
X0055153Y0125963D03*
D170*
X0055233Y0105993D03*
X0044953Y0128453D03*
X0034433Y0115153D03*
D171*
X0028553Y0112783D03*
X0055233Y0125883D03*
D172*
X0055213Y0106003D03*
D173*
X0055213Y0125903D03*
X0028513Y0112803D03*
D174*
X0055193Y0105993D03*
D175*
X0055173Y0106003D03*
D176*
X0048873Y0098943D03*
X0035873Y0098743D03*
X0030573Y0106083D03*
X0031773Y0112083D03*
X0055173Y0125943D03*
D177*
X0055153Y0106003D03*
D178*
X0055133Y0106013D03*
D179*
X0048893Y0098953D03*
X0035833Y0098773D03*
X0031793Y0112053D03*
X0028593Y0112773D03*
X0055033Y0126093D03*
X0055053Y0126073D03*
X0055093Y0126033D03*
X0055133Y0125993D03*
D180*
X0055113Y0106003D03*
D181*
X0055113Y0126013D03*
X0027313Y0108613D03*
D182*
X0055093Y0106003D03*
D183*
X0055073Y0106013D03*
D184*
X0048913Y0098973D03*
X0035813Y0098793D03*
X0031813Y0112033D03*
X0028613Y0112753D03*
X0028573Y0112773D03*
X0055073Y0126053D03*
D185*
X0055053Y0106013D03*
X0033633Y0103673D03*
D186*
X0055033Y0106013D03*
D187*
X0055013Y0106013D03*
D188*
X0055013Y0126103D03*
X0035773Y0098823D03*
X0028673Y0112723D03*
D189*
X0047593Y0111913D03*
X0048293Y0111413D03*
X0054993Y0106013D03*
D190*
X0048953Y0099003D03*
X0048933Y0098983D03*
X0035793Y0098803D03*
X0030593Y0106123D03*
X0033133Y0109403D03*
X0031833Y0112003D03*
X0028653Y0112723D03*
X0028633Y0112743D03*
X0054993Y0126123D03*
D191*
X0047373Y0112073D03*
X0048673Y0111113D03*
X0048713Y0111073D03*
X0054973Y0106013D03*
D192*
X0048973Y0099013D03*
X0054973Y0126153D03*
X0054913Y0126213D03*
X0054873Y0126253D03*
D193*
X0048893Y0110923D03*
X0047193Y0112183D03*
X0047133Y0112223D03*
X0047093Y0112243D03*
X0054953Y0106023D03*
D194*
X0054953Y0126173D03*
X0054853Y0126273D03*
X0035733Y0098853D03*
X0032493Y0107713D03*
X0031853Y0111973D03*
X0028753Y0112673D03*
X0028693Y0112713D03*
D195*
X0049033Y0110803D03*
X0054933Y0106023D03*
D196*
X0054933Y0126193D03*
X0054893Y0126233D03*
X0054833Y0126293D03*
X0035753Y0098833D03*
D197*
X0046813Y0112423D03*
X0049113Y0110723D03*
X0054913Y0106023D03*
D198*
X0054893Y0106023D03*
X0049333Y0110523D03*
X0049293Y0110563D03*
X0046653Y0112523D03*
X0046593Y0112563D03*
X0046553Y0112583D03*
D199*
X0046513Y0112603D03*
X0049373Y0110483D03*
X0054873Y0106023D03*
D200*
X0054853Y0106023D03*
X0049453Y0110403D03*
X0049433Y0110423D03*
D201*
X0046233Y0112773D03*
X0044653Y0127873D03*
X0054833Y0106033D03*
D202*
X0054813Y0106033D03*
D203*
X0049013Y0099043D03*
X0035713Y0098863D03*
X0030613Y0106163D03*
X0031873Y0111943D03*
X0028773Y0112663D03*
X0054813Y0126303D03*
D204*
X0049653Y0110193D03*
X0046133Y0112833D03*
X0044633Y0127833D03*
X0054793Y0106033D03*
X0033793Y0103793D03*
D205*
X0054793Y0126333D03*
X0054733Y0126393D03*
X0054693Y0126433D03*
D206*
X0049713Y0110133D03*
X0054773Y0106033D03*
D207*
X0054773Y0126353D03*
X0054713Y0126413D03*
X0054673Y0126453D03*
X0031913Y0111873D03*
D208*
X0049793Y0110043D03*
X0054753Y0106043D03*
D209*
X0049033Y0099053D03*
X0035653Y0098913D03*
X0028853Y0112613D03*
X0027293Y0108553D03*
X0024333Y0109973D03*
X0054753Y0126373D03*
D210*
X0049833Y0110003D03*
X0045833Y0113003D03*
X0054733Y0106043D03*
X0033833Y0103823D03*
D211*
X0045773Y0113043D03*
X0054713Y0106043D03*
D212*
X0054693Y0106043D03*
X0049933Y0109883D03*
X0045693Y0113083D03*
X0033853Y0103843D03*
D213*
X0044573Y0127683D03*
X0054673Y0106043D03*
D214*
X0054653Y0106043D03*
X0045493Y0113203D03*
D215*
X0049053Y0099063D03*
X0035593Y0098963D03*
X0054653Y0126463D03*
D216*
X0045433Y0113243D03*
X0045453Y0113223D03*
X0054633Y0106043D03*
X0033893Y0103883D03*
D217*
X0030633Y0106203D03*
X0031933Y0111843D03*
X0028953Y0112543D03*
X0028893Y0112583D03*
X0035633Y0098923D03*
X0054633Y0126483D03*
X0054593Y0126523D03*
D218*
X0054613Y0106043D03*
D219*
X0049073Y0099083D03*
X0035613Y0098943D03*
X0024213Y0110223D03*
X0054573Y0126543D03*
X0054613Y0126503D03*
D220*
X0044533Y0127583D03*
X0054593Y0106043D03*
D221*
X0054573Y0106043D03*
X0050173Y0109583D03*
D222*
X0054553Y0106043D03*
X0033933Y0103923D03*
D223*
X0028933Y0112553D03*
X0049093Y0099093D03*
X0054553Y0126573D03*
X0054533Y0126593D03*
D224*
X0045133Y0113413D03*
X0054533Y0106053D03*
D225*
X0054513Y0106053D03*
X0050273Y0109433D03*
X0045073Y0113453D03*
D226*
X0049113Y0099103D03*
X0054513Y0126603D03*
X0054413Y0126703D03*
X0029013Y0112503D03*
D227*
X0045033Y0113473D03*
X0050293Y0109413D03*
X0054493Y0106053D03*
D228*
X0049133Y0099123D03*
X0054493Y0126623D03*
X0054453Y0126663D03*
X0054393Y0126723D03*
X0035553Y0099003D03*
D229*
X0050313Y0109373D03*
X0054473Y0106053D03*
D230*
X0054473Y0126643D03*
X0035573Y0098983D03*
X0031973Y0111783D03*
D231*
X0033993Y0103973D03*
X0054453Y0106053D03*
D232*
X0054433Y0106053D03*
X0044893Y0113553D03*
D233*
X0054433Y0126683D03*
X0029033Y0112483D03*
X0024133Y0118843D03*
D234*
X0044813Y0113593D03*
X0054413Y0106053D03*
D235*
X0054393Y0106053D03*
X0044453Y0127353D03*
D236*
X0044713Y0113653D03*
X0054373Y0106053D03*
D237*
X0049173Y0099153D03*
X0054373Y0126733D03*
X0054313Y0126793D03*
X0054273Y0126833D03*
X0035513Y0099033D03*
X0032013Y0111713D03*
X0029113Y0112433D03*
X0029073Y0112453D03*
X0027273Y0108513D03*
D238*
X0050433Y0109173D03*
X0054353Y0106073D03*
D239*
X0049153Y0099133D03*
X0054353Y0126753D03*
X0054333Y0126773D03*
X0054293Y0126813D03*
X0035533Y0099013D03*
X0030653Y0106233D03*
X0031993Y0111753D03*
X0029133Y0112413D03*
X0029093Y0112433D03*
X0029053Y0112473D03*
D240*
X0054333Y0106073D03*
D241*
X0054313Y0106073D03*
X0050473Y0109093D03*
X0044573Y0113733D03*
D242*
X0044533Y0113753D03*
X0054293Y0106073D03*
D243*
X0054273Y0106073D03*
D244*
X0054253Y0106073D03*
X0044453Y0113813D03*
D245*
X0035453Y0099083D03*
X0035493Y0099043D03*
X0032033Y0111683D03*
X0054153Y0126943D03*
X0054253Y0126843D03*
D246*
X0050533Y0108973D03*
X0054233Y0106073D03*
X0034093Y0104073D03*
D247*
X0029193Y0112363D03*
X0029153Y0112403D03*
X0049193Y0099163D03*
X0054233Y0126863D03*
X0054193Y0126903D03*
D248*
X0054213Y0106073D03*
X0044373Y0113853D03*
D249*
X0054213Y0126883D03*
X0029173Y0112383D03*
D250*
X0044333Y0113873D03*
X0050553Y0108913D03*
X0054193Y0106073D03*
D251*
X0054173Y0106073D03*
D252*
X0054173Y0126923D03*
X0035473Y0099063D03*
D253*
X0034133Y0104113D03*
X0054153Y0106073D03*
D254*
X0054133Y0106073D03*
D255*
X0054133Y0126953D03*
X0054093Y0126993D03*
X0054053Y0127033D03*
X0032053Y0111653D03*
X0029233Y0112333D03*
D256*
X0054113Y0106073D03*
D257*
X0049213Y0099173D03*
X0054113Y0126973D03*
X0029213Y0112353D03*
D258*
X0054093Y0106083D03*
D259*
X0054073Y0106083D03*
D260*
X0054073Y0127013D03*
D261*
X0054053Y0106083D03*
D262*
X0054033Y0106083D03*
D263*
X0049233Y0099203D03*
X0054033Y0127043D03*
X0053993Y0127083D03*
X0053953Y0127123D03*
X0035433Y0099103D03*
X0029293Y0112283D03*
X0029253Y0112323D03*
D264*
X0054013Y0106083D03*
D265*
X0053993Y0106083D03*
X0044053Y0114083D03*
D266*
X0053973Y0106083D03*
D267*
X0053973Y0127103D03*
X0035413Y0099123D03*
X0030673Y0106283D03*
X0032073Y0111623D03*
X0029273Y0112303D03*
D268*
X0053953Y0106083D03*
D269*
X0053933Y0106093D03*
D270*
X0053933Y0127133D03*
X0035393Y0099133D03*
X0029353Y0112233D03*
D271*
X0053913Y0106093D03*
D272*
X0053913Y0127153D03*
X0035373Y0099153D03*
X0029313Y0112273D03*
D273*
X0053893Y0106093D03*
D274*
X0049253Y0099213D03*
X0035353Y0099173D03*
X0032093Y0111573D03*
X0029333Y0112253D03*
X0053853Y0127213D03*
X0053893Y0127173D03*
D275*
X0053873Y0106093D03*
D276*
X0053873Y0127193D03*
D277*
X0053853Y0106093D03*
D278*
X0053833Y0106093D03*
D279*
X0049293Y0099243D03*
X0053833Y0127223D03*
X0053793Y0127263D03*
X0027253Y0108463D03*
D280*
X0053813Y0106103D03*
D281*
X0049273Y0099223D03*
X0053813Y0127243D03*
X0053773Y0127283D03*
X0033113Y0109403D03*
X0032113Y0111543D03*
X0029373Y0112223D03*
D282*
X0053793Y0106103D03*
D283*
X0053773Y0106093D03*
D284*
X0053753Y0106093D03*
D285*
X0053753Y0127293D03*
X0035333Y0099193D03*
X0030693Y0106333D03*
X0029393Y0112193D03*
D286*
X0053733Y0106093D03*
D287*
X0049333Y0099273D03*
X0053733Y0127313D03*
X0053693Y0127353D03*
X0032133Y0111513D03*
X0024353Y0109953D03*
D288*
X0053713Y0106093D03*
D289*
X0053713Y0127333D03*
D290*
X0053693Y0106103D03*
D291*
X0053673Y0106103D03*
D292*
X0049313Y0099253D03*
X0035313Y0099213D03*
X0029413Y0112173D03*
X0053673Y0127373D03*
D293*
X0053653Y0106103D03*
D294*
X0049353Y0099283D03*
X0035293Y0099223D03*
X0032653Y0103123D03*
X0029493Y0112103D03*
X0029453Y0112143D03*
X0053593Y0127443D03*
X0053633Y0127403D03*
X0053653Y0127383D03*
D295*
X0053633Y0106103D03*
D296*
X0053613Y0106103D03*
D297*
X0053613Y0127423D03*
X0032513Y0107883D03*
X0029473Y0112123D03*
D298*
X0053593Y0106113D03*
D299*
X0053573Y0106103D03*
D300*
X0049373Y0099293D03*
X0035273Y0099253D03*
X0032173Y0111433D03*
X0029513Y0112093D03*
X0053473Y0127533D03*
X0053573Y0127453D03*
D301*
X0053553Y0106103D03*
X0053253Y0105883D03*
D302*
X0053553Y0127473D03*
X0053533Y0127493D03*
X0053453Y0127553D03*
X0053433Y0127573D03*
X0035253Y0099273D03*
D303*
X0053533Y0106103D03*
D304*
X0053513Y0106103D03*
D305*
X0053513Y0127513D03*
D306*
X0053493Y0106113D03*
D307*
X0053493Y0127523D03*
X0053393Y0127603D03*
X0029533Y0112063D03*
X0027233Y0108403D03*
D308*
X0053473Y0106113D03*
D309*
X0053453Y0106113D03*
D310*
X0053433Y0106113D03*
D311*
X0053413Y0106113D03*
D312*
X0053413Y0127583D03*
X0030713Y0106383D03*
D313*
X0053393Y0106113D03*
D314*
X0053373Y0106113D03*
D315*
X0053373Y0127623D03*
X0029573Y0112023D03*
X0027073Y0107663D03*
D316*
X0053333Y0105903D03*
X0053353Y0105903D03*
D317*
X0053353Y0111403D03*
X0053333Y0111423D03*
X0053253Y0111483D03*
X0053233Y0111503D03*
X0053193Y0111543D03*
X0046593Y0097823D03*
X0046553Y0097803D03*
X0031933Y0106443D03*
X0029093Y0105123D03*
X0028693Y0105123D03*
X0028653Y0105123D03*
X0024833Y0107963D03*
X0024793Y0108043D03*
X0029533Y0113783D03*
X0029553Y0113783D03*
X0029593Y0113763D03*
X0026053Y0123723D03*
D318*
X0029553Y0112043D03*
X0035233Y0099283D03*
X0053353Y0127643D03*
D319*
X0053333Y0127653D03*
X0053293Y0127693D03*
X0053233Y0127733D03*
X0049433Y0099353D03*
X0035193Y0099333D03*
X0032193Y0111393D03*
X0029593Y0112013D03*
X0024153Y0118873D03*
D320*
X0053313Y0105893D03*
D321*
X0053313Y0111443D03*
X0053213Y0111523D03*
X0046613Y0097823D03*
X0038213Y0097583D03*
X0031873Y0108343D03*
X0029113Y0105123D03*
X0029073Y0105123D03*
X0028673Y0105123D03*
X0027573Y0108943D03*
X0024813Y0108003D03*
X0029473Y0113803D03*
X0024073Y0118783D03*
D322*
X0029613Y0111993D03*
X0035213Y0099313D03*
X0049413Y0099333D03*
X0053313Y0127673D03*
X0053213Y0127753D03*
D323*
X0044233Y0126523D03*
X0053293Y0105883D03*
X0034353Y0104423D03*
D324*
X0038233Y0097573D03*
X0038253Y0097573D03*
X0038293Y0097553D03*
X0029033Y0105113D03*
X0028993Y0105113D03*
X0028353Y0105153D03*
X0024853Y0107913D03*
X0029433Y0113813D03*
X0029453Y0113813D03*
X0053293Y0111453D03*
D325*
X0053273Y0105883D03*
D326*
X0053273Y0111473D03*
X0046573Y0097813D03*
X0046473Y0097773D03*
X0038273Y0097553D03*
X0031913Y0106413D03*
X0029013Y0105113D03*
X0024873Y0107873D03*
D327*
X0053273Y0127703D03*
D328*
X0053253Y0127723D03*
X0053193Y0127763D03*
X0053153Y0127803D03*
X0049453Y0099363D03*
X0029633Y0111963D03*
D329*
X0053233Y0105883D03*
D330*
X0053213Y0105893D03*
D331*
X0053193Y0105903D03*
D332*
X0053173Y0106123D03*
D333*
X0053173Y0127783D03*
X0035173Y0099343D03*
X0032213Y0111343D03*
D334*
X0053153Y0106123D03*
D335*
X0053133Y0106123D03*
D336*
X0053133Y0127813D03*
X0032233Y0111313D03*
X0029693Y0111913D03*
D337*
X0053113Y0106133D03*
D338*
X0049473Y0099373D03*
X0053113Y0127833D03*
X0053073Y0127873D03*
X0029673Y0111933D03*
D339*
X0053093Y0106133D03*
D340*
X0049493Y0099393D03*
X0053093Y0127853D03*
X0053033Y0127893D03*
X0035133Y0099393D03*
X0035153Y0099373D03*
D341*
X0053073Y0106133D03*
D342*
X0053053Y0106123D03*
X0044153Y0126083D03*
D343*
X0052993Y0127923D03*
X0053053Y0127883D03*
X0029753Y0111843D03*
D344*
X0053033Y0106133D03*
D345*
X0053013Y0106133D03*
D346*
X0053013Y0127913D03*
D347*
X0052993Y0106133D03*
D348*
X0052973Y0106143D03*
D349*
X0052973Y0127943D03*
X0029713Y0111883D03*
D350*
X0052953Y0106133D03*
D351*
X0052953Y0127963D03*
X0032253Y0111263D03*
X0029733Y0111863D03*
D352*
X0052933Y0106133D03*
D353*
X0052933Y0127973D03*
X0052893Y0128013D03*
X0052833Y0128053D03*
D354*
X0052913Y0106143D03*
D355*
X0052913Y0127993D03*
D356*
X0052893Y0106143D03*
D357*
X0052873Y0106143D03*
D358*
X0049513Y0099413D03*
X0052873Y0128013D03*
X0052813Y0128073D03*
X0035113Y0099413D03*
D359*
X0052853Y0106133D03*
D360*
X0049533Y0099433D03*
X0052853Y0128033D03*
X0035093Y0099433D03*
X0030733Y0106433D03*
X0033093Y0109393D03*
D361*
X0052833Y0106143D03*
D362*
X0052813Y0106143D03*
D363*
X0052793Y0106143D03*
D364*
X0052773Y0106153D03*
D365*
X0052773Y0128103D03*
X0052713Y0128143D03*
X0035073Y0099463D03*
X0032273Y0111223D03*
X0029773Y0111823D03*
D366*
X0052753Y0106143D03*
D367*
X0052733Y0106143D03*
D368*
X0052713Y0106153D03*
D369*
X0052693Y0106153D03*
D370*
X0052673Y0106143D03*
X0044113Y0125803D03*
D371*
X0052613Y0128213D03*
X0052673Y0128173D03*
X0049573Y0099453D03*
X0029813Y0111773D03*
X0024373Y0109953D03*
D372*
X0052653Y0106153D03*
D373*
X0052653Y0128193D03*
X0052593Y0128233D03*
X0029853Y0111733D03*
D374*
X0052633Y0106153D03*
D375*
X0052633Y0128213D03*
X0035053Y0099473D03*
X0032293Y0111173D03*
X0029833Y0111753D03*
D376*
X0052613Y0106153D03*
D377*
X0052593Y0106153D03*
D378*
X0052573Y0106153D03*
D379*
X0052573Y0128243D03*
X0052473Y0128323D03*
X0029873Y0111703D03*
D380*
X0037233Y0113363D03*
X0052553Y0106163D03*
D381*
X0052553Y0128263D03*
D382*
X0052533Y0106163D03*
X0037693Y0113703D03*
X0037633Y0113663D03*
X0037593Y0113623D03*
X0037093Y0113263D03*
X0037033Y0113223D03*
X0036953Y0113163D03*
D383*
X0035033Y0099503D03*
X0027193Y0108303D03*
X0049593Y0099483D03*
X0052533Y0128283D03*
X0052493Y0128303D03*
D384*
X0052513Y0106153D03*
X0037713Y0113713D03*
D385*
X0032313Y0111133D03*
X0035013Y0099533D03*
X0049613Y0099493D03*
X0052513Y0128293D03*
X0052413Y0128373D03*
X0052373Y0128393D03*
D386*
X0052493Y0106163D03*
D387*
X0052473Y0106163D03*
X0036713Y0113003D03*
D388*
X0036653Y0112963D03*
X0037933Y0113903D03*
X0037953Y0113923D03*
X0044093Y0125623D03*
X0052453Y0106163D03*
D389*
X0052453Y0128333D03*
X0052433Y0128353D03*
X0052393Y0128373D03*
X0034993Y0099553D03*
X0029893Y0111693D03*
D390*
X0036633Y0112953D03*
X0037993Y0113953D03*
X0052433Y0106173D03*
D391*
X0052413Y0106163D03*
D392*
X0052393Y0106163D03*
X0038093Y0114043D03*
X0038053Y0114003D03*
D393*
X0052373Y0106173D03*
D394*
X0052353Y0106173D03*
X0052333Y0106173D03*
X0038153Y0114093D03*
X0036393Y0112793D03*
D395*
X0024253Y0110213D03*
X0049633Y0099513D03*
X0052353Y0128413D03*
D396*
X0052333Y0128423D03*
X0030753Y0106503D03*
D397*
X0052313Y0106173D03*
D398*
X0052313Y0128443D03*
D399*
X0052293Y0106173D03*
X0038233Y0114173D03*
D400*
X0029933Y0111643D03*
X0052253Y0128483D03*
X0052293Y0128443D03*
D401*
X0044013Y0125493D03*
X0052273Y0106173D03*
D402*
X0052273Y0128463D03*
X0029913Y0111663D03*
D403*
X0036233Y0112673D03*
X0052253Y0106173D03*
D404*
X0052233Y0106173D03*
D405*
X0049653Y0099533D03*
X0052233Y0128493D03*
X0052193Y0128513D03*
X0052153Y0128553D03*
X0032333Y0111073D03*
X0029953Y0111613D03*
D406*
X0052213Y0106183D03*
D407*
X0052213Y0128513D03*
X0052173Y0128533D03*
X0052113Y0128573D03*
X0034973Y0099573D03*
X0029973Y0111593D03*
X0024173Y0118893D03*
D408*
X0052193Y0106173D03*
D409*
X0052173Y0106183D03*
D410*
X0052153Y0106183D03*
X0036053Y0112543D03*
D411*
X0035993Y0112503D03*
X0052133Y0106183D03*
D412*
X0049693Y0099563D03*
X0052133Y0128563D03*
X0052053Y0128623D03*
X0052033Y0128623D03*
X0034933Y0099623D03*
X0034953Y0099603D03*
X0029993Y0111563D03*
D413*
X0036013Y0112523D03*
X0052113Y0106183D03*
D414*
X0052093Y0106183D03*
D415*
X0052093Y0128583D03*
D416*
X0052073Y0106193D03*
D417*
X0052073Y0128603D03*
D418*
X0052053Y0106193D03*
X0035893Y0112433D03*
D419*
X0052033Y0106183D03*
D420*
X0052013Y0106193D03*
D421*
X0049673Y0099543D03*
X0052013Y0128643D03*
D422*
X0051993Y0106193D03*
D423*
X0051993Y0128653D03*
X0051953Y0128693D03*
X0051933Y0128693D03*
X0032353Y0111033D03*
D424*
X0035813Y0112373D03*
X0038573Y0114553D03*
X0051973Y0106193D03*
D425*
X0051973Y0128673D03*
X0032673Y0103133D03*
X0030013Y0111533D03*
X0027173Y0108253D03*
D426*
X0051953Y0106193D03*
D427*
X0051933Y0106203D03*
X0035753Y0112323D03*
D428*
X0051913Y0106203D03*
D429*
X0051913Y0128713D03*
D430*
X0051893Y0106193D03*
D431*
X0049733Y0099603D03*
X0051893Y0128723D03*
X0051853Y0128743D03*
X0051793Y0128783D03*
X0030053Y0111483D03*
D432*
X0051873Y0106203D03*
D433*
X0049713Y0099583D03*
X0051873Y0128743D03*
X0051813Y0128783D03*
X0051773Y0128803D03*
X0034913Y0099643D03*
X0033073Y0109403D03*
D434*
X0051833Y0106203D03*
X0051853Y0106203D03*
D435*
X0051833Y0128763D03*
D436*
X0051813Y0106203D03*
D437*
X0051793Y0106213D03*
D438*
X0051773Y0106213D03*
D439*
X0051753Y0106203D03*
D440*
X0049753Y0099613D03*
X0051753Y0128813D03*
X0051693Y0128853D03*
X0034893Y0099673D03*
X0024393Y0109953D03*
D441*
X0038753Y0114813D03*
X0051733Y0106213D03*
D442*
X0051733Y0128833D03*
X0030093Y0111433D03*
D443*
X0035513Y0112133D03*
X0038773Y0114833D03*
X0051713Y0106213D03*
D444*
X0051713Y0128833D03*
D445*
X0051693Y0106213D03*
D446*
X0051673Y0106213D03*
D447*
X0051673Y0128863D03*
X0051613Y0128903D03*
X0051573Y0128923D03*
X0034873Y0099703D03*
X0031773Y0108363D03*
X0030113Y0111403D03*
D448*
X0051653Y0106223D03*
D449*
X0051633Y0128883D03*
X0051653Y0128883D03*
X0051553Y0128943D03*
X0027153Y0108203D03*
D450*
X0035453Y0112083D03*
X0051633Y0106223D03*
D451*
X0051613Y0106213D03*
D452*
X0051593Y0106223D03*
D453*
X0049793Y0099653D03*
X0051593Y0128913D03*
X0051533Y0128953D03*
X0051493Y0128973D03*
X0051433Y0129013D03*
X0030133Y0111373D03*
D454*
X0051573Y0106223D03*
D455*
X0051553Y0106223D03*
D456*
X0051533Y0106223D03*
D457*
X0051513Y0106233D03*
D458*
X0051513Y0128973D03*
D459*
X0051493Y0106233D03*
D460*
X0051473Y0106233D03*
D461*
X0049773Y0099633D03*
X0051473Y0128993D03*
D462*
X0051453Y0106233D03*
D463*
X0051453Y0129003D03*
X0051393Y0129043D03*
X0032393Y0110923D03*
X0030153Y0111343D03*
D464*
X0035293Y0111943D03*
X0051433Y0106243D03*
D465*
X0051413Y0106233D03*
X0038913Y0115073D03*
D466*
X0030773Y0106603D03*
X0030173Y0111323D03*
X0051313Y0129083D03*
X0051373Y0129043D03*
X0051413Y0129023D03*
D467*
X0051393Y0106243D03*
D468*
X0051373Y0106243D03*
D469*
X0051353Y0106233D03*
D470*
X0051333Y0106243D03*
D471*
X0049833Y0099693D03*
X0051333Y0129073D03*
X0051293Y0129093D03*
X0034833Y0099753D03*
X0030193Y0111293D03*
D472*
X0051313Y0106243D03*
D473*
X0051293Y0106253D03*
D474*
X0051273Y0106243D03*
X0038973Y0115203D03*
X0035173Y0111823D03*
D475*
X0030213Y0111263D03*
X0051173Y0129163D03*
X0051273Y0129103D03*
D476*
X0051253Y0106253D03*
D477*
X0051253Y0129113D03*
D478*
X0051233Y0106253D03*
X0038993Y0115233D03*
D479*
X0049853Y0099703D03*
X0051233Y0129123D03*
D480*
X0051213Y0106253D03*
D481*
X0051213Y0129143D03*
X0034813Y0099783D03*
D482*
X0051193Y0106253D03*
D483*
X0051193Y0129143D03*
X0051133Y0129183D03*
D484*
X0051173Y0106263D03*
X0035113Y0111763D03*
D485*
X0051153Y0106253D03*
D486*
X0051153Y0129173D03*
X0051093Y0129213D03*
X0051053Y0129233D03*
X0034793Y0099813D03*
X0030233Y0111233D03*
X0027133Y0108153D03*
X0024193Y0118913D03*
D487*
X0051133Y0106263D03*
D488*
X0051113Y0106263D03*
D489*
X0049873Y0099733D03*
X0051113Y0129193D03*
X0051073Y0129213D03*
X0032413Y0110853D03*
D490*
X0035053Y0111693D03*
X0039033Y0115333D03*
X0051093Y0106273D03*
D491*
X0051073Y0106263D03*
D492*
X0051053Y0106273D03*
X0035033Y0111673D03*
D493*
X0039053Y0115373D03*
X0051033Y0106273D03*
D494*
X0051033Y0129243D03*
X0050953Y0129283D03*
D495*
X0051013Y0106273D03*
X0035013Y0111653D03*
D496*
X0034773Y0099843D03*
X0051013Y0129243D03*
D497*
X0050993Y0106273D03*
D498*
X0050993Y0129263D03*
X0033053Y0109403D03*
X0030253Y0111203D03*
D499*
X0050973Y0106283D03*
D500*
X0050973Y0129273D03*
X0030273Y0111173D03*
D501*
X0050953Y0106273D03*
D502*
X0050933Y0106283D03*
D503*
X0049893Y0099753D03*
X0050933Y0129293D03*
X0050853Y0129333D03*
D504*
X0050913Y0106283D03*
D505*
X0050913Y0129313D03*
D506*
X0050893Y0106293D03*
D507*
X0050893Y0129313D03*
D508*
X0050873Y0106283D03*
D509*
X0050873Y0129323D03*
D510*
X0050853Y0106293D03*
D511*
X0050833Y0106293D03*
D512*
X0050833Y0129343D03*
X0032433Y0110783D03*
X0030293Y0111143D03*
D513*
X0034913Y0111533D03*
X0050813Y0106293D03*
D514*
X0049913Y0099763D03*
X0050813Y0129363D03*
D515*
X0050793Y0106293D03*
D516*
X0050793Y0129363D03*
D517*
X0050773Y0106303D03*
D518*
X0050773Y0129373D03*
X0050713Y0129413D03*
X0030313Y0111113D03*
D519*
X0050753Y0106293D03*
D520*
X0049933Y0099793D03*
X0050733Y0129393D03*
X0050753Y0129393D03*
D521*
X0050733Y0106303D03*
D522*
X0050713Y0106303D03*
D523*
X0050693Y0106313D03*
D524*
X0050693Y0129413D03*
X0034753Y0099873D03*
X0031753Y0108373D03*
D525*
X0050673Y0106303D03*
D526*
X0050673Y0129423D03*
D527*
X0050653Y0100993D03*
D528*
X0050653Y0108553D03*
X0044293Y0126793D03*
X0034253Y0104273D03*
D529*
X0032693Y0103143D03*
X0034733Y0099903D03*
X0030333Y0111083D03*
X0049953Y0099803D03*
X0050633Y0129443D03*
X0050653Y0129443D03*
X0050593Y0129463D03*
D530*
X0050633Y0100883D03*
D531*
X0050633Y0108673D03*
X0044033Y0114113D03*
D532*
X0050613Y0100813D03*
D533*
X0050613Y0108743D03*
D534*
X0050593Y0100753D03*
X0047453Y0130113D03*
D535*
X0050593Y0108813D03*
D536*
X0050573Y0100693D03*
D537*
X0050573Y0108873D03*
D538*
X0050553Y0100643D03*
X0047733Y0130143D03*
D539*
X0050433Y0129543D03*
X0050553Y0129483D03*
X0049993Y0099843D03*
X0032453Y0110723D03*
X0030353Y0111043D03*
D540*
X0031593Y0108393D03*
X0047833Y0130133D03*
X0050533Y0100593D03*
D541*
X0050533Y0129493D03*
D542*
X0047913Y0130143D03*
X0050513Y0100563D03*
D543*
X0050513Y0109013D03*
D544*
X0050513Y0129503D03*
X0050473Y0129523D03*
D545*
X0050493Y0100513D03*
D546*
X0050493Y0109063D03*
D547*
X0050493Y0129513D03*
D548*
X0050473Y0100483D03*
D549*
X0050453Y0100443D03*
X0048233Y0130143D03*
X0031633Y0108383D03*
D550*
X0044633Y0113693D03*
X0050453Y0109133D03*
D551*
X0050453Y0129533D03*
X0050393Y0129553D03*
X0050353Y0129573D03*
X0034693Y0099973D03*
X0033033Y0109393D03*
D552*
X0050433Y0100413D03*
D553*
X0050413Y0100373D03*
D554*
X0050413Y0109203D03*
D555*
X0050413Y0129553D03*
X0024213Y0118933D03*
D556*
X0050393Y0100343D03*
D557*
X0050393Y0109243D03*
D558*
X0050373Y0100313D03*
D559*
X0050373Y0109283D03*
D560*
X0050013Y0099863D03*
X0050373Y0129563D03*
D561*
X0050353Y0100283D03*
D562*
X0050353Y0109303D03*
D563*
X0050333Y0100263D03*
X0048853Y0130063D03*
X0048833Y0130063D03*
D564*
X0044953Y0113523D03*
X0050333Y0109343D03*
D565*
X0050333Y0129583D03*
X0030393Y0110983D03*
X0027093Y0108043D03*
D566*
X0050313Y0100223D03*
D567*
X0050313Y0129593D03*
X0050273Y0129613D03*
X0050213Y0129633D03*
X0034673Y0100013D03*
X0030413Y0110953D03*
D568*
X0032733Y0103163D03*
X0049033Y0130023D03*
X0049053Y0130023D03*
X0049093Y0130003D03*
X0050293Y0100203D03*
D569*
X0050293Y0129603D03*
D570*
X0049113Y0129993D03*
X0050273Y0100173D03*
X0032973Y0109393D03*
D571*
X0034553Y0100253D03*
X0049233Y0129973D03*
X0050253Y0100153D03*
D572*
X0050253Y0109463D03*
D573*
X0050033Y0099893D03*
X0050253Y0129613D03*
X0050233Y0129633D03*
D574*
X0049253Y0129963D03*
X0050233Y0100123D03*
X0030593Y0110583D03*
D575*
X0045153Y0113403D03*
X0050233Y0109503D03*
D576*
X0050213Y0100093D03*
X0030573Y0110633D03*
D577*
X0044513Y0127523D03*
X0050213Y0109523D03*
D578*
X0050193Y0100063D03*
X0049493Y0129903D03*
D579*
X0045233Y0113353D03*
X0050193Y0109553D03*
D580*
X0050193Y0129643D03*
D581*
X0049573Y0129873D03*
X0049513Y0129893D03*
X0050173Y0100053D03*
X0031713Y0108373D03*
D582*
X0050173Y0129643D03*
D583*
X0049693Y0129833D03*
X0049633Y0129853D03*
X0050153Y0100033D03*
X0032493Y0110533D03*
D584*
X0045293Y0113313D03*
X0050153Y0109613D03*
D585*
X0050153Y0129663D03*
X0030433Y0110903D03*
D586*
X0049733Y0129823D03*
X0049793Y0129803D03*
X0050133Y0100003D03*
D587*
X0050133Y0109633D03*
X0045333Y0113293D03*
D588*
X0050133Y0129673D03*
X0050093Y0129693D03*
X0031733Y0108373D03*
X0030453Y0110873D03*
D589*
X0033013Y0109403D03*
X0049873Y0129763D03*
X0050113Y0099983D03*
D590*
X0050113Y0109663D03*
X0045373Y0113263D03*
D591*
X0050073Y0099933D03*
X0050113Y0129673D03*
X0050073Y0129693D03*
X0032473Y0110633D03*
D592*
X0049933Y0129753D03*
X0050093Y0099953D03*
D593*
X0050093Y0109693D03*
D594*
X0050073Y0109713D03*
X0045473Y0113213D03*
D595*
X0050053Y0099913D03*
D596*
X0050053Y0109733D03*
X0044553Y0127633D03*
D597*
X0049993Y0129723D03*
X0050033Y0129703D03*
X0050053Y0129703D03*
X0034653Y0100043D03*
D598*
X0050033Y0109763D03*
D599*
X0050013Y0109783D03*
D600*
X0050013Y0129723D03*
D601*
X0045593Y0113153D03*
X0049993Y0109813D03*
D602*
X0049973Y0099833D03*
X0034713Y0099933D03*
D603*
X0045573Y0113153D03*
X0045613Y0113133D03*
X0049973Y0109833D03*
D604*
X0049973Y0129733D03*
X0030473Y0110833D03*
D605*
X0045633Y0113123D03*
X0049953Y0109863D03*
D606*
X0049953Y0129733D03*
D607*
X0045673Y0113103D03*
X0049913Y0109903D03*
D608*
X0049913Y0129753D03*
D609*
X0049893Y0109933D03*
D610*
X0049873Y0109953D03*
D611*
X0049853Y0109973D03*
D612*
X0049853Y0129773D03*
D613*
X0049813Y0099673D03*
D614*
X0049813Y0110013D03*
D615*
X0049813Y0129793D03*
D616*
X0044613Y0127773D03*
X0049773Y0110073D03*
X0033813Y0103813D03*
D617*
X0034613Y0100123D03*
X0049773Y0129803D03*
D618*
X0045933Y0112953D03*
X0045953Y0112933D03*
X0049753Y0110093D03*
D619*
X0049753Y0129813D03*
D620*
X0045993Y0112913D03*
X0049733Y0110113D03*
D621*
X0049713Y0129833D03*
X0049673Y0129833D03*
X0032713Y0103153D03*
D622*
X0046033Y0112893D03*
X0049693Y0110153D03*
D623*
X0049673Y0110173D03*
X0046073Y0112873D03*
D624*
X0049653Y0129843D03*
D625*
X0046153Y0112823D03*
X0049633Y0110223D03*
D626*
X0049613Y0110243D03*
X0046113Y0112843D03*
D627*
X0049613Y0129863D03*
D628*
X0046253Y0112763D03*
X0049593Y0110263D03*
D629*
X0049593Y0129863D03*
X0034593Y0100163D03*
X0030533Y0110723D03*
D630*
X0046213Y0112783D03*
X0049573Y0110283D03*
D631*
X0049553Y0110303D03*
D632*
X0049553Y0129873D03*
X0030553Y0110673D03*
D633*
X0046353Y0112703D03*
X0049493Y0110363D03*
X0049533Y0110323D03*
D634*
X0049533Y0129883D03*
D635*
X0049513Y0110343D03*
X0033773Y0103783D03*
D636*
X0049473Y0110383D03*
D637*
X0049473Y0129903D03*
D638*
X0049453Y0129913D03*
X0049433Y0129913D03*
D639*
X0046473Y0112633D03*
X0049413Y0110453D03*
D640*
X0049413Y0129923D03*
D641*
X0049393Y0099313D03*
X0024233Y0110213D03*
D642*
X0033753Y0103763D03*
X0049393Y0110463D03*
D643*
X0049393Y0129923D03*
X0049353Y0129943D03*
X0049333Y0129943D03*
X0024253Y0118983D03*
D644*
X0049373Y0129933D03*
D645*
X0046453Y0112643D03*
X0046493Y0112623D03*
X0049353Y0110503D03*
D646*
X0049313Y0110543D03*
X0049273Y0110583D03*
X0046613Y0112543D03*
D647*
X0049313Y0129953D03*
D648*
X0049293Y0129953D03*
D649*
X0049273Y0129963D03*
D650*
X0046633Y0112533D03*
X0049253Y0110593D03*
D651*
X0049233Y0110623D03*
X0046693Y0112503D03*
D652*
X0046713Y0112483D03*
X0049213Y0110643D03*
D653*
X0049213Y0129973D03*
D654*
X0046733Y0112473D03*
X0046793Y0112433D03*
X0049153Y0110693D03*
X0049193Y0110653D03*
D655*
X0049193Y0129983D03*
X0049153Y0129983D03*
X0031693Y0108383D03*
D656*
X0046773Y0112453D03*
X0049173Y0110673D03*
D657*
X0049173Y0129983D03*
X0030613Y0110543D03*
D658*
X0046833Y0112403D03*
X0046853Y0112403D03*
X0049133Y0110703D03*
D659*
X0049133Y0129993D03*
D660*
X0049093Y0110743D03*
D661*
X0049073Y0110773D03*
X0033713Y0103733D03*
D662*
X0049073Y0130013D03*
D663*
X0046953Y0112343D03*
X0049053Y0110783D03*
D664*
X0049013Y0110823D03*
X0046973Y0112323D03*
X0046913Y0112363D03*
X0044713Y0128003D03*
D665*
X0049013Y0130023D03*
D666*
X0048993Y0099023D03*
X0035693Y0098883D03*
X0031893Y0111903D03*
X0028833Y0112623D03*
X0028793Y0112643D03*
X0028733Y0112683D03*
D667*
X0047033Y0112293D03*
X0047053Y0112273D03*
X0048933Y0110893D03*
X0048953Y0110873D03*
X0048993Y0110833D03*
D668*
X0048993Y0130033D03*
X0034533Y0100313D03*
D669*
X0047013Y0112293D03*
X0048973Y0110853D03*
D670*
X0048973Y0130033D03*
X0024273Y0119013D03*
D671*
X0030653Y0110443D03*
X0048933Y0130043D03*
X0048953Y0130043D03*
D672*
X0047113Y0112243D03*
X0048873Y0110943D03*
X0048913Y0110903D03*
D673*
X0048913Y0130043D03*
D674*
X0048893Y0130053D03*
D675*
X0048873Y0130053D03*
X0032513Y0110373D03*
D676*
X0031753Y0112113D03*
X0031833Y0108353D03*
X0028453Y0112833D03*
X0028433Y0112853D03*
X0035893Y0098733D03*
X0048853Y0098933D03*
D677*
X0048853Y0110953D03*
X0048833Y0110973D03*
X0048793Y0111013D03*
X0047233Y0112153D03*
X0047153Y0112213D03*
X0044733Y0128053D03*
X0033693Y0103713D03*
D678*
X0047173Y0112193D03*
X0048813Y0110993D03*
D679*
X0048813Y0130063D03*
D680*
X0048793Y0130073D03*
X0048753Y0130073D03*
D681*
X0047273Y0112123D03*
X0047313Y0112103D03*
X0048773Y0111023D03*
D682*
X0048773Y0130073D03*
X0034513Y0100373D03*
X0031673Y0108373D03*
D683*
X0047253Y0112143D03*
X0047293Y0112123D03*
X0048733Y0111063D03*
X0048753Y0111043D03*
D684*
X0048733Y0130073D03*
D685*
X0048713Y0130073D03*
D686*
X0047333Y0112093D03*
X0048653Y0111133D03*
X0048693Y0111093D03*
D687*
X0048693Y0130083D03*
X0048653Y0130083D03*
X0030693Y0110323D03*
D688*
X0048673Y0130083D03*
D689*
X0048653Y0098803D03*
X0036153Y0098543D03*
X0036133Y0098563D03*
X0031593Y0112323D03*
X0028053Y0113003D03*
D690*
X0047433Y0112023D03*
X0047493Y0111983D03*
X0047553Y0111943D03*
X0048433Y0111303D03*
X0048533Y0111223D03*
X0048553Y0111203D03*
X0048633Y0111143D03*
D691*
X0048613Y0098793D03*
X0027973Y0113033D03*
D692*
X0047513Y0111963D03*
X0048613Y0111163D03*
D693*
X0048613Y0130093D03*
D694*
X0047353Y0112073D03*
X0047393Y0112053D03*
X0047453Y0112013D03*
X0048593Y0111173D03*
D695*
X0048573Y0111183D03*
X0048513Y0111243D03*
X0047613Y0111903D03*
X0047473Y0112003D03*
D696*
X0048573Y0130103D03*
D697*
X0048553Y0130103D03*
X0048533Y0130103D03*
D698*
X0048513Y0098723D03*
X0048473Y0098703D03*
X0031473Y0112463D03*
X0027773Y0113103D03*
D699*
X0048513Y0130113D03*
D700*
X0044753Y0128093D03*
X0047633Y0111893D03*
X0047653Y0111873D03*
X0047693Y0111853D03*
X0048393Y0111333D03*
X0048453Y0111293D03*
X0048493Y0111253D03*
D701*
X0048493Y0130113D03*
X0034493Y0100453D03*
X0032933Y0109393D03*
D702*
X0034473Y0106493D03*
X0047573Y0111933D03*
X0047673Y0111853D03*
X0047713Y0111833D03*
X0047773Y0111793D03*
X0048213Y0111473D03*
X0048313Y0111393D03*
X0048373Y0111353D03*
X0048473Y0111273D03*
D703*
X0048473Y0130113D03*
D704*
X0048453Y0130113D03*
X0048433Y0130113D03*
D705*
X0048413Y0111313D03*
X0033673Y0103713D03*
D706*
X0048373Y0130123D03*
X0048413Y0130123D03*
D707*
X0048393Y0130123D03*
D708*
X0048373Y0098643D03*
X0031413Y0112543D03*
X0031373Y0112583D03*
X0027573Y0113143D03*
D709*
X0047733Y0111823D03*
X0047753Y0111803D03*
X0047893Y0111703D03*
X0047953Y0111663D03*
X0048033Y0111603D03*
X0048093Y0111563D03*
X0048133Y0111523D03*
X0048153Y0111523D03*
X0048233Y0111463D03*
X0048353Y0111363D03*
D710*
X0048333Y0130133D03*
X0048353Y0130133D03*
D711*
X0047793Y0111783D03*
X0047833Y0111743D03*
X0047853Y0111743D03*
X0047933Y0111683D03*
X0047993Y0111643D03*
X0048053Y0111583D03*
X0048193Y0111483D03*
X0048253Y0111443D03*
X0048333Y0111383D03*
X0034493Y0106683D03*
D712*
X0032913Y0109403D03*
X0048313Y0130123D03*
D713*
X0048293Y0130133D03*
X0048253Y0130133D03*
X0030733Y0110193D03*
D714*
X0031273Y0112693D03*
X0030373Y0105833D03*
X0048273Y0098593D03*
D715*
X0048273Y0111423D03*
X0048173Y0111503D03*
X0048013Y0111623D03*
X0047873Y0111723D03*
X0047813Y0111763D03*
D716*
X0048273Y0130133D03*
D717*
X0048213Y0130133D03*
X0048173Y0130133D03*
X0034473Y0100553D03*
X0032773Y0103193D03*
D718*
X0048193Y0130133D03*
D719*
X0048153Y0130143D03*
X0048133Y0130143D03*
D720*
X0048133Y0098513D03*
X0031153Y0112813D03*
D721*
X0047913Y0111683D03*
X0047973Y0111643D03*
X0048073Y0111583D03*
X0048113Y0111543D03*
D722*
X0048113Y0130133D03*
D723*
X0048093Y0130143D03*
X0048053Y0130143D03*
X0024333Y0119083D03*
D724*
X0031073Y0112883D03*
X0032373Y0107283D03*
X0036873Y0098143D03*
X0048073Y0098483D03*
D725*
X0048073Y0130143D03*
D726*
X0048033Y0130143D03*
X0047993Y0130143D03*
D727*
X0048013Y0130143D03*
X0047973Y0130143D03*
D728*
X0047953Y0098423D03*
X0031033Y0112923D03*
X0030993Y0112963D03*
X0026853Y0113203D03*
X0026833Y0113203D03*
D729*
X0047933Y0130143D03*
X0047953Y0130143D03*
D730*
X0047933Y0098413D03*
D731*
X0047893Y0130143D03*
X0047853Y0130143D03*
X0024353Y0119103D03*
D732*
X0047873Y0130143D03*
D733*
X0047853Y0098363D03*
D734*
X0047813Y0130143D03*
D735*
X0047793Y0098333D03*
X0030833Y0113093D03*
X0030133Y0105593D03*
D736*
X0047793Y0130143D03*
D737*
X0047773Y0130133D03*
D738*
X0047753Y0098313D03*
X0047733Y0098313D03*
X0037253Y0097953D03*
X0030753Y0113153D03*
X0026453Y0113153D03*
X0026433Y0113153D03*
X0024293Y0110913D03*
D739*
X0032853Y0109393D03*
X0047753Y0130133D03*
D740*
X0047713Y0098293D03*
X0030773Y0113133D03*
X0026413Y0113133D03*
X0026373Y0113133D03*
D741*
X0047713Y0130133D03*
D742*
X0047693Y0130133D03*
D743*
X0047673Y0130133D03*
X0031573Y0108393D03*
D744*
X0047633Y0130133D03*
X0047653Y0130133D03*
D745*
X0047613Y0130123D03*
X0032813Y0103203D03*
D746*
X0032833Y0109393D03*
X0047593Y0130133D03*
D747*
X0047573Y0130123D03*
D748*
X0047553Y0098223D03*
X0030653Y0113223D03*
X0030593Y0113263D03*
X0026133Y0113063D03*
D749*
X0047553Y0130123D03*
D750*
X0047533Y0111963D03*
D751*
X0047533Y0130113D03*
D752*
X0047513Y0130113D03*
D753*
X0047473Y0130113D03*
X0032813Y0109393D03*
D754*
X0037493Y0097843D03*
X0047453Y0098183D03*
D755*
X0047433Y0098163D03*
X0032233Y0106963D03*
X0029893Y0105423D03*
X0030533Y0113303D03*
X0025993Y0113023D03*
X0025953Y0113003D03*
X0024333Y0111103D03*
D756*
X0047433Y0130103D03*
D757*
X0047413Y0112033D03*
D758*
X0047413Y0130113D03*
D759*
X0047393Y0130103D03*
X0032833Y0103223D03*
D760*
X0047373Y0130103D03*
D761*
X0047353Y0130093D03*
X0047333Y0130093D03*
X0032793Y0109393D03*
D762*
X0047313Y0130093D03*
D763*
X0047293Y0130083D03*
D764*
X0047273Y0098093D03*
D765*
X0047273Y0130083D03*
D766*
X0047253Y0130073D03*
X0047233Y0130073D03*
D767*
X0047213Y0112173D03*
D768*
X0047213Y0130073D03*
X0031513Y0108413D03*
D769*
X0032853Y0103233D03*
X0024433Y0119193D03*
X0047193Y0130073D03*
D770*
X0047173Y0098053D03*
X0027473Y0108953D03*
X0024513Y0111613D03*
D771*
X0047173Y0130063D03*
D772*
X0047153Y0098043D03*
X0047093Y0098023D03*
X0030153Y0113523D03*
X0030133Y0113543D03*
X0029633Y0105283D03*
X0025033Y0112383D03*
X0025053Y0112403D03*
X0025093Y0112443D03*
X0025133Y0112483D03*
X0025253Y0112583D03*
X0025333Y0112643D03*
X0025393Y0112683D03*
X0025433Y0112703D03*
X0025453Y0112723D03*
X0025493Y0112743D03*
X0024993Y0112343D03*
X0024793Y0112103D03*
X0024753Y0112043D03*
X0024653Y0111883D03*
X0024593Y0111783D03*
X0024553Y0111703D03*
X0024553Y0108683D03*
D773*
X0047133Y0130053D03*
X0047153Y0130053D03*
D774*
X0047093Y0130043D03*
X0031493Y0108423D03*
D775*
X0025173Y0112513D03*
X0024973Y0112313D03*
X0024873Y0112213D03*
X0047073Y0098013D03*
D776*
X0047073Y0112263D03*
D777*
X0047073Y0130043D03*
D778*
X0047053Y0130033D03*
D779*
X0047033Y0130023D03*
D780*
X0047013Y0130023D03*
X0032873Y0103243D03*
D781*
X0029533Y0105243D03*
X0027033Y0108883D03*
X0030033Y0113583D03*
X0037933Y0097683D03*
X0046993Y0097983D03*
D782*
X0046993Y0112313D03*
D783*
X0046993Y0130023D03*
D784*
X0046973Y0097963D03*
X0030013Y0113603D03*
X0027513Y0108963D03*
X0024573Y0108623D03*
D785*
X0024473Y0119233D03*
X0046973Y0130013D03*
D786*
X0032093Y0106703D03*
X0029993Y0113603D03*
X0029953Y0113623D03*
X0046953Y0097963D03*
D787*
X0046953Y0130013D03*
D788*
X0046893Y0112373D03*
X0046933Y0112353D03*
D789*
X0046933Y0130003D03*
D790*
X0046913Y0129993D03*
X0032713Y0109393D03*
D791*
X0046893Y0129983D03*
D792*
X0046873Y0097923D03*
X0046813Y0097903D03*
X0029873Y0113663D03*
X0029413Y0105203D03*
D793*
X0046873Y0112383D03*
D794*
X0046873Y0129993D03*
D795*
X0032033Y0106603D03*
X0029433Y0105203D03*
X0029193Y0105163D03*
X0027053Y0106963D03*
X0029853Y0113663D03*
X0046853Y0097923D03*
D796*
X0046853Y0129983D03*
D797*
X0046833Y0129973D03*
X0031233Y0117213D03*
X0031093Y0117253D03*
X0031053Y0117273D03*
X0031033Y0117273D03*
X0030933Y0117313D03*
X0030893Y0117313D03*
X0030793Y0117353D03*
X0030733Y0117373D03*
X0030693Y0117373D03*
X0030593Y0117413D03*
D798*
X0030413Y0117463D03*
X0031073Y0117263D03*
X0031373Y0117163D03*
X0046813Y0129963D03*
D799*
X0046793Y0097893D03*
X0038053Y0097633D03*
X0029833Y0113673D03*
X0029793Y0113693D03*
X0027553Y0108953D03*
X0029133Y0105153D03*
X0029333Y0105173D03*
D800*
X0031433Y0108433D03*
X0031453Y0117133D03*
X0031393Y0117153D03*
X0031353Y0117173D03*
X0030353Y0117473D03*
X0030333Y0117493D03*
X0030293Y0117493D03*
X0046793Y0129953D03*
D801*
X0032013Y0106573D03*
X0029313Y0105173D03*
X0024673Y0108333D03*
X0029773Y0113693D03*
X0038073Y0097633D03*
X0046773Y0097893D03*
D802*
X0046753Y0097883D03*
X0038153Y0097603D03*
X0038133Y0097603D03*
X0038093Y0097623D03*
X0031993Y0106543D03*
X0029053Y0105143D03*
X0024733Y0108183D03*
X0024693Y0108283D03*
X0029653Y0113743D03*
X0029693Y0113723D03*
X0026033Y0123683D03*
D803*
X0044693Y0127963D03*
X0046753Y0112463D03*
D804*
X0046753Y0129943D03*
X0031593Y0117083D03*
X0031433Y0117143D03*
X0030153Y0117543D03*
X0030133Y0117543D03*
D805*
X0029293Y0105163D03*
X0046733Y0097863D03*
D806*
X0031693Y0117043D03*
X0029993Y0117583D03*
X0046733Y0129943D03*
D807*
X0046713Y0097863D03*
X0029273Y0105163D03*
D808*
X0029813Y0117633D03*
X0046713Y0129933D03*
D809*
X0031953Y0106473D03*
X0029233Y0105153D03*
X0024433Y0110853D03*
X0029633Y0113753D03*
X0046693Y0097853D03*
D810*
X0046673Y0112513D03*
D811*
X0046673Y0129913D03*
X0031913Y0116953D03*
X0029713Y0117653D03*
X0029673Y0117673D03*
D812*
X0026953Y0108933D03*
X0028853Y0105133D03*
X0029153Y0105133D03*
X0024753Y0108133D03*
X0038193Y0097593D03*
X0046633Y0097833D03*
X0046653Y0097833D03*
D813*
X0031993Y0116923D03*
X0031953Y0116943D03*
X0029653Y0117683D03*
X0029633Y0117683D03*
X0046633Y0129903D03*
X0046653Y0129903D03*
D814*
X0046613Y0129893D03*
D815*
X0046593Y0129883D03*
X0032093Y0116883D03*
X0032053Y0116903D03*
X0029493Y0117723D03*
X0029433Y0117743D03*
D816*
X0046573Y0112573D03*
D817*
X0046573Y0129883D03*
X0032173Y0116843D03*
D818*
X0032193Y0116833D03*
X0029333Y0117773D03*
X0029253Y0117793D03*
X0046553Y0129873D03*
D819*
X0046533Y0112593D03*
D820*
X0046533Y0129863D03*
X0032233Y0116823D03*
X0029233Y0117803D03*
D821*
X0029513Y0113793D03*
X0024913Y0107793D03*
X0046513Y0097793D03*
D822*
X0046513Y0129853D03*
X0024573Y0119333D03*
D823*
X0029333Y0113843D03*
X0029353Y0113843D03*
X0029393Y0113823D03*
X0027593Y0108943D03*
X0028133Y0105203D03*
X0028893Y0105103D03*
X0028933Y0105103D03*
X0028953Y0105103D03*
X0031833Y0106303D03*
X0031853Y0106323D03*
X0038333Y0097543D03*
X0046493Y0097783D03*
X0024993Y0107643D03*
X0024953Y0107723D03*
X0024453Y0110943D03*
D824*
X0029093Y0117843D03*
X0029153Y0117823D03*
X0046493Y0129843D03*
D825*
X0046473Y0129833D03*
D826*
X0046453Y0097763D03*
X0046433Y0097763D03*
X0028333Y0105163D03*
X0028293Y0105163D03*
X0026933Y0108963D03*
X0024933Y0107763D03*
D827*
X0046433Y0112653D03*
D828*
X0046433Y0129813D03*
X0032453Y0116713D03*
X0028993Y0117873D03*
D829*
X0029213Y0113873D03*
X0029273Y0113853D03*
X0029313Y0113853D03*
X0028413Y0110273D03*
X0028373Y0110273D03*
X0026913Y0108993D03*
X0028013Y0105233D03*
X0028713Y0105093D03*
X0028773Y0105093D03*
X0028813Y0105093D03*
X0031813Y0106273D03*
X0038373Y0097533D03*
X0046373Y0097733D03*
X0046413Y0097753D03*
D830*
X0046413Y0112663D03*
D831*
X0046413Y0129803D03*
X0032473Y0116703D03*
X0028873Y0117903D03*
D832*
X0046393Y0112683D03*
D833*
X0046393Y0129793D03*
X0032493Y0116693D03*
X0024593Y0119353D03*
D834*
X0046373Y0112693D03*
D835*
X0046373Y0129793D03*
X0032573Y0116653D03*
X0032973Y0103293D03*
D836*
X0032593Y0116643D03*
X0028653Y0117983D03*
X0046353Y0129783D03*
D837*
X0046333Y0097723D03*
X0038453Y0097503D03*
X0038433Y0097503D03*
X0038393Y0097523D03*
X0029253Y0113863D03*
X0029233Y0113863D03*
X0028453Y0110263D03*
X0028433Y0110263D03*
X0027733Y0105323D03*
X0027893Y0105263D03*
X0025133Y0107403D03*
D838*
X0046333Y0112713D03*
D839*
X0046333Y0129763D03*
D840*
X0031773Y0106223D03*
X0025073Y0107503D03*
X0024473Y0111023D03*
X0038413Y0097523D03*
X0046273Y0097703D03*
X0046313Y0097723D03*
D841*
X0046313Y0112723D03*
D842*
X0046313Y0129753D03*
D843*
X0031753Y0106193D03*
X0031733Y0106173D03*
X0028593Y0105093D03*
X0028553Y0105093D03*
X0028533Y0105093D03*
X0028493Y0105093D03*
X0027593Y0105373D03*
X0027533Y0105393D03*
X0026893Y0109013D03*
X0025193Y0107313D03*
X0025233Y0107253D03*
X0025253Y0107233D03*
X0025293Y0107173D03*
X0029093Y0113893D03*
X0029133Y0113893D03*
X0038493Y0097493D03*
X0046233Y0097693D03*
X0046253Y0097693D03*
X0046293Y0097713D03*
D844*
X0046293Y0112743D03*
D845*
X0046293Y0129743D03*
X0031293Y0108463D03*
X0024633Y0119383D03*
D846*
X0046273Y0112753D03*
D847*
X0046273Y0129733D03*
D848*
X0046253Y0129723D03*
X0032993Y0103303D03*
D849*
X0046233Y0129713D03*
D850*
X0031713Y0106143D03*
X0028313Y0110283D03*
X0026773Y0109043D03*
X0025313Y0107143D03*
X0025473Y0106943D03*
X0024313Y0109143D03*
X0038513Y0097483D03*
X0046213Y0097683D03*
D851*
X0032813Y0116523D03*
X0028313Y0118103D03*
X0046213Y0129703D03*
D852*
X0046193Y0097683D03*
X0038533Y0097483D03*
X0028293Y0110283D03*
X0026793Y0109043D03*
X0025393Y0107043D03*
X0026133Y0123843D03*
D853*
X0046193Y0112793D03*
D854*
X0046193Y0129683D03*
X0032893Y0116483D03*
D855*
X0028973Y0113923D03*
X0028473Y0110263D03*
X0026813Y0109023D03*
X0025273Y0107203D03*
X0025373Y0107063D03*
X0027313Y0105503D03*
X0027473Y0105423D03*
X0028273Y0105123D03*
X0028373Y0105103D03*
X0028413Y0105103D03*
X0026113Y0123823D03*
X0046173Y0097663D03*
D856*
X0046173Y0112813D03*
D857*
X0046173Y0129673D03*
X0032913Y0116473D03*
X0028213Y0118133D03*
D858*
X0028933Y0113923D03*
X0028953Y0113923D03*
X0028993Y0113923D03*
X0029033Y0113903D03*
X0029053Y0113903D03*
X0026853Y0109023D03*
X0026833Y0109023D03*
X0025333Y0107123D03*
X0024493Y0111103D03*
X0028393Y0105103D03*
X0028433Y0105103D03*
X0028453Y0105103D03*
X0031693Y0106123D03*
X0046153Y0097663D03*
D859*
X0032933Y0116463D03*
X0028133Y0118163D03*
X0046153Y0129663D03*
D860*
X0031653Y0106073D03*
X0028253Y0105133D03*
X0028233Y0105133D03*
X0028193Y0105133D03*
X0027033Y0105653D03*
X0026993Y0105673D03*
X0026953Y0105693D03*
X0026753Y0109053D03*
X0026733Y0109053D03*
X0025353Y0107093D03*
X0025433Y0106993D03*
X0025453Y0106973D03*
X0025533Y0106873D03*
X0025553Y0106853D03*
X0028833Y0113933D03*
X0028853Y0113933D03*
X0028893Y0113933D03*
X0026153Y0123873D03*
X0038553Y0097473D03*
X0046133Y0097653D03*
D861*
X0032953Y0116453D03*
X0028093Y0118173D03*
X0046133Y0129653D03*
D862*
X0031673Y0106093D03*
X0028213Y0105133D03*
X0028173Y0105133D03*
X0027213Y0105553D03*
X0026213Y0106193D03*
X0025513Y0106893D03*
X0028873Y0113933D03*
X0028913Y0113933D03*
X0038573Y0097473D03*
X0046073Y0097633D03*
X0046113Y0097653D03*
D863*
X0046113Y0129633D03*
D864*
X0031633Y0106043D03*
X0031593Y0106003D03*
X0028153Y0105143D03*
X0026653Y0109083D03*
X0026633Y0109083D03*
X0025593Y0106803D03*
X0025653Y0106743D03*
X0025693Y0106703D03*
X0025753Y0106643D03*
X0024333Y0109043D03*
X0024533Y0111223D03*
X0028753Y0113943D03*
X0028793Y0113943D03*
X0038653Y0097443D03*
X0046033Y0097623D03*
X0046053Y0097623D03*
X0046093Y0097643D03*
D865*
X0046093Y0112853D03*
D866*
X0046093Y0129623D03*
X0033033Y0116403D03*
X0033033Y0103323D03*
X0024693Y0119443D03*
D867*
X0046073Y0129613D03*
D868*
X0046053Y0112883D03*
D869*
X0046053Y0129603D03*
D870*
X0046033Y0129593D03*
X0033153Y0116333D03*
X0027793Y0118293D03*
D871*
X0028673Y0113953D03*
X0028713Y0113953D03*
X0025773Y0106613D03*
X0025813Y0106573D03*
X0025873Y0106513D03*
X0027873Y0105213D03*
X0031573Y0105973D03*
X0046013Y0097613D03*
D872*
X0046013Y0112903D03*
X0045973Y0112923D03*
D873*
X0046013Y0129583D03*
X0033173Y0116323D03*
X0027773Y0118303D03*
D874*
X0028633Y0113953D03*
X0028653Y0113953D03*
X0028693Y0113953D03*
X0028733Y0113953D03*
X0026533Y0109113D03*
X0025833Y0106553D03*
X0025933Y0106473D03*
X0025953Y0106453D03*
X0025993Y0106413D03*
X0027853Y0105213D03*
X0038633Y0097453D03*
X0045993Y0097613D03*
D875*
X0045993Y0129563D03*
D876*
X0031613Y0106023D03*
X0027973Y0105183D03*
X0026913Y0105723D03*
X0025713Y0106683D03*
X0025673Y0106723D03*
X0025613Y0106783D03*
X0025573Y0106823D03*
X0024273Y0109983D03*
X0028773Y0113943D03*
X0028813Y0113943D03*
X0026173Y0123903D03*
X0045973Y0097603D03*
D877*
X0045973Y0129553D03*
D878*
X0045953Y0097593D03*
X0045933Y0097593D03*
X0038693Y0097433D03*
X0027953Y0105193D03*
X0027933Y0105193D03*
X0027633Y0108933D03*
X0026593Y0109093D03*
X0025793Y0106593D03*
X0025853Y0106533D03*
D879*
X0024753Y0119483D03*
X0033253Y0116283D03*
X0045953Y0129543D03*
D880*
X0045933Y0129523D03*
X0027533Y0118403D03*
D881*
X0028513Y0113963D03*
X0028573Y0113963D03*
X0028613Y0113963D03*
X0026513Y0109123D03*
X0025913Y0106483D03*
X0026073Y0106343D03*
X0026113Y0106303D03*
X0026173Y0106263D03*
X0026273Y0106183D03*
X0027713Y0105263D03*
X0027773Y0105243D03*
X0026213Y0123943D03*
X0038713Y0097423D03*
X0045913Y0097583D03*
D882*
X0045913Y0112963D03*
D883*
X0045913Y0129513D03*
X0033313Y0116233D03*
X0027513Y0118413D03*
D884*
X0028493Y0113963D03*
X0028533Y0113963D03*
X0028553Y0113963D03*
X0028593Y0113963D03*
X0026553Y0109103D03*
X0026493Y0109123D03*
X0025893Y0106503D03*
X0026033Y0106383D03*
X0026053Y0106363D03*
X0026093Y0106323D03*
X0026133Y0106303D03*
X0026153Y0106283D03*
X0026193Y0106243D03*
X0026253Y0106203D03*
X0026353Y0106123D03*
X0027653Y0105283D03*
X0027753Y0105243D03*
X0027793Y0105243D03*
X0027833Y0105223D03*
X0031533Y0105943D03*
X0031553Y0105963D03*
X0038733Y0097423D03*
X0045853Y0097563D03*
X0045893Y0097583D03*
X0026193Y0123923D03*
X0026233Y0123963D03*
X0024553Y0111283D03*
X0024353Y0108963D03*
D885*
X0045853Y0112993D03*
X0045893Y0112973D03*
D886*
X0045893Y0129493D03*
X0027453Y0118433D03*
D887*
X0028313Y0113973D03*
X0028373Y0113973D03*
X0028413Y0113973D03*
X0028473Y0113973D03*
X0026413Y0109153D03*
X0026313Y0106153D03*
X0026373Y0106113D03*
X0026413Y0106073D03*
X0026513Y0106013D03*
X0026573Y0105973D03*
X0027573Y0105313D03*
X0027673Y0105273D03*
X0024373Y0108873D03*
X0038773Y0097413D03*
X0045813Y0097553D03*
X0045873Y0097573D03*
D888*
X0045873Y0112983D03*
D889*
X0045873Y0129483D03*
X0033373Y0116203D03*
D890*
X0028453Y0113973D03*
X0028433Y0113973D03*
X0028393Y0113973D03*
X0028353Y0113973D03*
X0028333Y0113973D03*
X0028293Y0113973D03*
X0026393Y0109153D03*
X0026233Y0106213D03*
X0026293Y0106173D03*
X0026433Y0106073D03*
X0026453Y0106053D03*
X0027693Y0105273D03*
X0038753Y0097413D03*
X0045833Y0097553D03*
D891*
X0045833Y0129453D03*
X0027293Y0118513D03*
D892*
X0045813Y0113023D03*
D893*
X0045813Y0129433D03*
X0033473Y0116133D03*
X0027213Y0118553D03*
X0024813Y0119533D03*
D894*
X0026293Y0124023D03*
X0024593Y0111383D03*
X0024393Y0108803D03*
X0026293Y0109183D03*
X0026493Y0106023D03*
X0026553Y0105983D03*
X0026653Y0105923D03*
X0026693Y0105903D03*
X0026853Y0105803D03*
X0027493Y0105343D03*
X0027553Y0105323D03*
X0031493Y0105903D03*
X0038793Y0097403D03*
X0045733Y0097523D03*
X0045753Y0097523D03*
X0045793Y0097543D03*
D895*
X0045793Y0113033D03*
X0044593Y0127733D03*
D896*
X0045793Y0129423D03*
X0033493Y0116123D03*
X0027193Y0118563D03*
D897*
X0028273Y0113983D03*
X0024613Y0111423D03*
X0026613Y0105943D03*
X0026673Y0105903D03*
X0026713Y0105883D03*
X0026773Y0105843D03*
X0026813Y0105823D03*
X0027513Y0105343D03*
X0031513Y0105923D03*
X0038813Y0097403D03*
X0045713Y0097523D03*
X0045773Y0097543D03*
X0026273Y0124003D03*
D898*
X0027113Y0118603D03*
X0045773Y0129403D03*
D899*
X0045753Y0113053D03*
D900*
X0045753Y0129383D03*
X0033553Y0116083D03*
X0031053Y0108543D03*
D901*
X0045733Y0113063D03*
D902*
X0045733Y0129373D03*
X0033593Y0116053D03*
X0033133Y0103373D03*
X0024853Y0119553D03*
D903*
X0045713Y0113073D03*
D904*
X0045693Y0097513D03*
X0027353Y0105413D03*
X0027333Y0105413D03*
X0027233Y0105613D03*
X0026833Y0105813D03*
X0024653Y0111513D03*
D905*
X0026933Y0118693D03*
X0045693Y0129333D03*
D906*
X0045673Y0097513D03*
X0027013Y0105713D03*
D907*
X0045673Y0129323D03*
D908*
X0045653Y0097503D03*
X0028053Y0113963D03*
X0028033Y0113963D03*
X0027993Y0113963D03*
X0027953Y0113963D03*
X0027933Y0113963D03*
X0026233Y0109203D03*
X0026153Y0109223D03*
X0027253Y0105603D03*
X0027333Y0105563D03*
X0027353Y0105563D03*
X0027433Y0105523D03*
X0027453Y0105523D03*
X0027493Y0105503D03*
X0027233Y0105463D03*
X0027153Y0105503D03*
X0024453Y0108603D03*
X0024733Y0111663D03*
X0026333Y0124063D03*
D909*
X0045653Y0113113D03*
D910*
X0045653Y0129303D03*
D911*
X0031453Y0105873D03*
X0027433Y0105373D03*
X0027393Y0105393D03*
X0027293Y0105433D03*
X0027253Y0105453D03*
X0027193Y0105633D03*
X0027133Y0105653D03*
X0027093Y0105673D03*
X0027053Y0105693D03*
X0026933Y0105753D03*
X0026893Y0105773D03*
X0026793Y0105833D03*
X0026333Y0109173D03*
X0026253Y0109193D03*
X0024433Y0108673D03*
X0024633Y0111473D03*
X0028093Y0113973D03*
X0028133Y0113973D03*
X0028153Y0113973D03*
X0028193Y0113973D03*
X0028233Y0113973D03*
X0028253Y0113973D03*
X0038833Y0097393D03*
X0038853Y0097393D03*
X0045633Y0097493D03*
D912*
X0045613Y0097483D03*
X0038873Y0097383D03*
X0027673Y0105443D03*
X0027373Y0105543D03*
X0027273Y0105443D03*
X0024473Y0108543D03*
D913*
X0045613Y0129263D03*
D914*
X0045593Y0097483D03*
X0038893Y0097383D03*
X0027553Y0105483D03*
X0027393Y0105543D03*
X0027293Y0105583D03*
X0027193Y0105483D03*
X0027153Y0105643D03*
X0024493Y0108483D03*
X0024693Y0111583D03*
X0026353Y0124083D03*
D915*
X0024933Y0119613D03*
X0045593Y0129253D03*
D916*
X0031413Y0105833D03*
X0027913Y0105373D03*
X0027873Y0105393D03*
X0027773Y0105413D03*
X0027713Y0105433D03*
X0027573Y0105473D03*
X0027173Y0105493D03*
X0027113Y0105533D03*
X0027073Y0105553D03*
X0026113Y0109233D03*
X0024773Y0111733D03*
X0027713Y0113933D03*
X0027813Y0113953D03*
X0027873Y0113953D03*
X0027913Y0113953D03*
X0026413Y0124133D03*
X0038913Y0097373D03*
X0045573Y0097473D03*
D917*
X0033773Y0115923D03*
X0045573Y0129223D03*
D918*
X0031433Y0105853D03*
X0028033Y0105353D03*
X0027933Y0105373D03*
X0027853Y0105393D03*
X0027833Y0105393D03*
X0027793Y0105413D03*
X0027753Y0105413D03*
X0027693Y0105433D03*
X0027653Y0105453D03*
X0027633Y0105453D03*
X0027133Y0105513D03*
X0027093Y0105533D03*
X0027053Y0105553D03*
X0026193Y0109213D03*
X0026133Y0109233D03*
X0024533Y0108373D03*
X0024553Y0108313D03*
X0024593Y0108213D03*
X0024753Y0111693D03*
X0027733Y0113933D03*
X0027833Y0113953D03*
X0027853Y0113953D03*
X0027893Y0113953D03*
X0026393Y0124113D03*
X0026433Y0124153D03*
X0038933Y0097373D03*
X0045493Y0097453D03*
X0045533Y0097473D03*
X0045553Y0097473D03*
D919*
X0045553Y0113163D03*
D920*
X0045553Y0129203D03*
X0033193Y0103403D03*
X0030933Y0108563D03*
X0024953Y0119623D03*
D921*
X0045533Y0113173D03*
D922*
X0045533Y0129183D03*
D923*
X0031373Y0105803D03*
X0028413Y0105303D03*
X0028373Y0105303D03*
X0028213Y0105323D03*
X0028173Y0105323D03*
X0027973Y0105363D03*
X0026973Y0105603D03*
X0026873Y0105663D03*
X0026013Y0109263D03*
X0024573Y0108263D03*
X0024613Y0108163D03*
X0024673Y0108023D03*
X0027673Y0113923D03*
X0038973Y0097363D03*
X0045513Y0097463D03*
D924*
X0045513Y0113193D03*
D925*
X0045513Y0129163D03*
D926*
X0045493Y0129143D03*
X0033893Y0115823D03*
X0026533Y0118963D03*
D927*
X0027773Y0113943D03*
X0026073Y0109243D03*
X0026713Y0105743D03*
X0026813Y0105683D03*
X0027013Y0105583D03*
X0028073Y0105343D03*
X0026473Y0124183D03*
X0045473Y0097443D03*
D928*
X0033913Y0115803D03*
X0030873Y0108583D03*
X0045473Y0129123D03*
D929*
X0045453Y0097443D03*
X0028093Y0105343D03*
X0028053Y0105343D03*
X0026893Y0105643D03*
X0026833Y0105683D03*
X0026653Y0105783D03*
X0024693Y0107983D03*
X0026093Y0109243D03*
X0028533Y0110283D03*
X0027793Y0113943D03*
X0027753Y0113943D03*
D930*
X0026453Y0119023D03*
X0033233Y0103423D03*
X0045453Y0129103D03*
D931*
X0045433Y0097433D03*
X0045393Y0097433D03*
X0038993Y0097353D03*
X0031333Y0105773D03*
X0031353Y0105793D03*
X0028633Y0105293D03*
X0028593Y0105293D03*
X0028553Y0105293D03*
X0028533Y0105293D03*
X0028493Y0105293D03*
X0028453Y0105293D03*
X0028433Y0105293D03*
X0026733Y0105733D03*
X0026633Y0105793D03*
X0026553Y0105853D03*
X0026533Y0105853D03*
X0026493Y0105893D03*
X0026433Y0105933D03*
X0026393Y0105953D03*
X0026353Y0105973D03*
X0026333Y0105993D03*
X0026293Y0106033D03*
X0026253Y0106053D03*
X0026233Y0106073D03*
X0026153Y0106133D03*
X0026133Y0106153D03*
X0026033Y0106233D03*
X0025953Y0106293D03*
X0025893Y0106353D03*
X0025333Y0106933D03*
X0025253Y0107033D03*
X0025093Y0107253D03*
X0024893Y0107593D03*
X0024853Y0107653D03*
X0024833Y0107693D03*
X0024793Y0107773D03*
X0024753Y0107853D03*
X0024733Y0107893D03*
X0025993Y0109273D03*
X0026053Y0109253D03*
X0024853Y0111853D03*
X0024933Y0111953D03*
X0027533Y0113893D03*
X0026553Y0124233D03*
X0026633Y0124293D03*
D932*
X0045433Y0129083D03*
D933*
X0045413Y0097433D03*
X0039013Y0097353D03*
X0028613Y0105293D03*
X0028573Y0105293D03*
X0028513Y0105293D03*
X0028473Y0105293D03*
X0026673Y0105773D03*
X0026573Y0105833D03*
X0026513Y0105873D03*
X0026473Y0105893D03*
X0026413Y0105933D03*
X0026373Y0105973D03*
X0026273Y0106033D03*
X0026073Y0106193D03*
X0025913Y0106333D03*
X0024913Y0107553D03*
X0024813Y0107733D03*
X0024713Y0107933D03*
X0025973Y0109273D03*
X0024813Y0111793D03*
X0024873Y0111873D03*
X0024913Y0111933D03*
X0027513Y0113893D03*
X0026573Y0124253D03*
D934*
X0045413Y0113253D03*
D935*
X0045393Y0113263D03*
D936*
X0045393Y0129043D03*
X0026333Y0119123D03*
D937*
X0027573Y0113913D03*
X0027613Y0113913D03*
X0024773Y0107813D03*
X0026173Y0106113D03*
X0026313Y0106013D03*
X0026613Y0105813D03*
X0026773Y0105713D03*
X0028273Y0105313D03*
X0026513Y0124213D03*
X0045373Y0097413D03*
D938*
X0045373Y0129023D03*
X0026313Y0119143D03*
D939*
X0027553Y0113913D03*
X0027593Y0113913D03*
X0024893Y0111913D03*
X0024933Y0107513D03*
X0024993Y0107413D03*
X0025193Y0107113D03*
X0025433Y0106813D03*
X0025933Y0106313D03*
X0026053Y0106213D03*
X0026453Y0105913D03*
X0045353Y0097413D03*
D940*
X0045353Y0113283D03*
D941*
X0045353Y0128993D03*
D942*
X0045333Y0097403D03*
X0039053Y0097343D03*
X0039033Y0097343D03*
X0029033Y0105343D03*
X0028953Y0105323D03*
X0028933Y0105323D03*
X0028893Y0105323D03*
X0028833Y0105303D03*
X0028793Y0105303D03*
X0028753Y0105303D03*
X0028733Y0105303D03*
X0026193Y0106103D03*
X0026093Y0106183D03*
X0025853Y0106383D03*
X0025833Y0106403D03*
X0025793Y0106443D03*
X0025753Y0106483D03*
X0025733Y0106503D03*
X0025693Y0106543D03*
X0025653Y0106583D03*
X0025633Y0106603D03*
X0025593Y0106643D03*
X0025553Y0106683D03*
X0025533Y0106703D03*
X0025493Y0106743D03*
X0025453Y0106783D03*
X0025353Y0106903D03*
X0025293Y0106983D03*
X0025133Y0107203D03*
X0025053Y0107323D03*
X0025033Y0107343D03*
X0024953Y0107483D03*
X0025893Y0109303D03*
X0025933Y0109283D03*
X0025953Y0109283D03*
X0024953Y0111983D03*
X0024993Y0112023D03*
X0027453Y0113883D03*
X0027493Y0113883D03*
X0026653Y0124303D03*
D943*
X0025133Y0119733D03*
X0026233Y0119233D03*
X0045333Y0128973D03*
D944*
X0045313Y0097403D03*
X0029013Y0105343D03*
X0028913Y0105323D03*
X0028813Y0105303D03*
X0028773Y0105303D03*
X0028713Y0105303D03*
X0026013Y0106243D03*
X0025973Y0106283D03*
X0025813Y0106423D03*
X0025713Y0106523D03*
X0025613Y0106623D03*
X0025513Y0106723D03*
X0025413Y0106843D03*
X0025373Y0106883D03*
X0025273Y0107003D03*
X0025213Y0107083D03*
X0025173Y0107143D03*
X0025113Y0107223D03*
X0025073Y0107283D03*
X0025013Y0107383D03*
X0024973Y0107443D03*
X0024873Y0107623D03*
X0025873Y0109303D03*
X0025913Y0109303D03*
X0024973Y0112003D03*
X0025013Y0112043D03*
X0027473Y0113883D03*
X0026613Y0124283D03*
X0026673Y0124323D03*
X0026713Y0124343D03*
D945*
X0033913Y0103903D03*
X0045313Y0113303D03*
D946*
X0045313Y0128953D03*
X0026213Y0119253D03*
D947*
X0026693Y0124333D03*
X0026793Y0124393D03*
X0025193Y0112233D03*
X0025153Y0112193D03*
X0025093Y0112133D03*
X0025053Y0112093D03*
X0025793Y0109333D03*
X0028993Y0105333D03*
X0029233Y0105393D03*
X0029333Y0105433D03*
X0030793Y0105493D03*
X0030993Y0105593D03*
X0039093Y0097333D03*
X0045253Y0097393D03*
X0045293Y0097393D03*
D948*
X0034133Y0115593D03*
X0045293Y0128933D03*
D949*
X0031273Y0105733D03*
X0030873Y0105533D03*
X0030673Y0105433D03*
X0029473Y0105493D03*
X0029313Y0105433D03*
X0029213Y0105393D03*
X0027313Y0113833D03*
X0039073Y0097333D03*
X0045273Y0097393D03*
D950*
X0045273Y0113333D03*
D951*
X0045273Y0128893D03*
X0033313Y0103473D03*
D952*
X0045253Y0113343D03*
D953*
X0045253Y0128873D03*
D954*
X0031293Y0105753D03*
X0030953Y0105573D03*
X0030833Y0105513D03*
X0030753Y0105473D03*
X0030633Y0105413D03*
X0029433Y0105473D03*
X0029293Y0105413D03*
X0029153Y0105373D03*
X0029093Y0105353D03*
X0025853Y0109313D03*
X0025833Y0109313D03*
X0025033Y0112073D03*
X0025133Y0112173D03*
X0027353Y0113853D03*
X0027393Y0113853D03*
X0027433Y0113873D03*
X0026733Y0124353D03*
X0026753Y0124373D03*
X0026833Y0124413D03*
X0045233Y0097373D03*
D955*
X0034193Y0115523D03*
X0025233Y0119783D03*
X0045233Y0128843D03*
D956*
X0030913Y0105553D03*
X0030713Y0105453D03*
X0029373Y0105453D03*
X0029273Y0105413D03*
X0029173Y0105373D03*
X0029073Y0105353D03*
X0025073Y0112113D03*
X0025113Y0112153D03*
X0025173Y0112213D03*
X0025213Y0112253D03*
X0027373Y0113853D03*
X0027413Y0113873D03*
X0026773Y0124373D03*
X0045213Y0097373D03*
D957*
X0045213Y0113363D03*
D958*
X0045213Y0128823D03*
X0034213Y0115503D03*
D959*
X0045193Y0113373D03*
D960*
X0045173Y0113393D03*
D961*
X0045173Y0128773D03*
X0033373Y0103513D03*
D962*
X0026033Y0119503D03*
X0045153Y0128743D03*
D963*
X0045133Y0128723D03*
X0034293Y0115403D03*
X0033393Y0103523D03*
X0025353Y0119843D03*
D964*
X0045113Y0113423D03*
D965*
X0045113Y0128693D03*
X0034313Y0115373D03*
X0026013Y0119553D03*
X0025373Y0119853D03*
D966*
X0045093Y0113433D03*
D967*
X0045093Y0128663D03*
D968*
X0045073Y0128633D03*
D969*
X0044493Y0127463D03*
X0045053Y0113463D03*
D970*
X0045053Y0128603D03*
X0025993Y0119643D03*
X0025453Y0119883D03*
D971*
X0045033Y0128573D03*
D972*
X0045013Y0113483D03*
D973*
X0045013Y0128543D03*
D974*
X0044993Y0113493D03*
D975*
X0044993Y0128513D03*
X0025553Y0119913D03*
D976*
X0044973Y0113513D03*
D977*
X0044973Y0128483D03*
D978*
X0044933Y0113533D03*
D979*
X0044933Y0128413D03*
D980*
X0044913Y0113543D03*
D981*
X0044913Y0128383D03*
D982*
X0044893Y0128343D03*
X0025733Y0119983D03*
D983*
X0044873Y0113573D03*
D984*
X0044873Y0128313D03*
D985*
X0044853Y0113583D03*
D986*
X0044853Y0128283D03*
D987*
X0044833Y0113593D03*
D988*
X0044833Y0128243D03*
D989*
X0044813Y0128203D03*
X0033613Y0103663D03*
D990*
X0044793Y0113603D03*
D991*
X0044793Y0128163D03*
D992*
X0044773Y0113613D03*
D993*
X0044773Y0128123D03*
D994*
X0044753Y0113623D03*
D995*
X0044733Y0113643D03*
D996*
X0044693Y0113663D03*
D997*
X0044673Y0113673D03*
D998*
X0044673Y0127913D03*
D999*
X0044433Y0127283D03*
X0044653Y0113683D03*
D1000*
X0044613Y0113713D03*
D1001*
X0044593Y0113723D03*
X0034053Y0104023D03*
D1002*
X0044553Y0113743D03*
D1003*
X0044513Y0113763D03*
X0044413Y0127223D03*
D1004*
X0044493Y0113773D03*
D1005*
X0044473Y0113783D03*
D1006*
X0044473Y0127413D03*
D1007*
X0044433Y0113823D03*
D1008*
X0044413Y0113833D03*
D1009*
X0044393Y0113843D03*
D1010*
X0044393Y0127163D03*
D1011*
X0044373Y0127103D03*
X0044273Y0113923D03*
D1012*
X0044353Y0113863D03*
D1013*
X0044353Y0127023D03*
D1014*
X0044333Y0126953D03*
X0044093Y0114053D03*
D1015*
X0044313Y0113883D03*
D1016*
X0044013Y0114143D03*
X0044313Y0126883D03*
D1017*
X0044293Y0113903D03*
D1018*
X0044273Y0126713D03*
D1019*
X0044253Y0113933D03*
D1020*
X0044253Y0126623D03*
D1021*
X0044233Y0113943D03*
D1022*
X0044213Y0113963D03*
D1023*
X0044213Y0126433D03*
D1024*
X0044193Y0113973D03*
X0034153Y0104133D03*
D1025*
X0044193Y0126333D03*
D1026*
X0044173Y0113983D03*
D1027*
X0044173Y0126213D03*
D1028*
X0044153Y0114003D03*
D1029*
X0044133Y0114013D03*
D1030*
X0044133Y0125953D03*
D1031*
X0044113Y0114033D03*
D1032*
X0044073Y0114063D03*
D1033*
X0044073Y0125553D03*
X0036373Y0112773D03*
D1034*
X0038193Y0114133D03*
X0044053Y0125533D03*
D1035*
X0044033Y0125503D03*
D1036*
X0043993Y0114173D03*
D1037*
X0043993Y0125483D03*
X0036333Y0112743D03*
D1038*
X0043973Y0120453D03*
D1039*
X0043953Y0120453D03*
D1040*
X0043933Y0120443D03*
X0043893Y0120443D03*
D1041*
X0043913Y0120443D03*
D1042*
X0043873Y0120433D03*
D1043*
X0043853Y0120433D03*
D1044*
X0043833Y0120423D03*
X0043793Y0120423D03*
D1045*
X0043813Y0120423D03*
D1046*
X0043773Y0120413D03*
D1047*
X0043753Y0120413D03*
D1048*
X0043733Y0120403D03*
D1049*
X0043713Y0120403D03*
D1050*
X0043693Y0120393D03*
D1051*
X0043673Y0120393D03*
D1052*
X0043653Y0120383D03*
D1053*
X0043633Y0120393D03*
D1054*
X0043613Y0120393D03*
D1055*
X0043593Y0120383D03*
D1056*
X0043573Y0120383D03*
D1057*
X0043553Y0120373D03*
X0043533Y0120373D03*
D1058*
X0043513Y0120363D03*
D1059*
X0043493Y0120363D03*
D1060*
X0043473Y0120353D03*
D1061*
X0043453Y0120353D03*
D1062*
X0043433Y0120343D03*
D1063*
X0043413Y0120333D03*
D1064*
X0043393Y0120333D03*
D1065*
X0043373Y0120323D03*
D1066*
X0043353Y0120323D03*
D1067*
X0043333Y0120313D03*
D1068*
X0043313Y0120313D03*
D1069*
X0043293Y0120303D03*
D1070*
X0043273Y0120303D03*
D1071*
X0043253Y0120293D03*
D1072*
X0043233Y0120283D03*
D1073*
X0043213Y0120283D03*
D1074*
X0043193Y0120273D03*
D1075*
X0043173Y0120273D03*
D1076*
X0043153Y0120263D03*
D1077*
X0043133Y0120253D03*
X0043093Y0120233D03*
D1078*
X0043113Y0120243D03*
D1079*
X0043073Y0120223D03*
D1080*
X0043053Y0120223D03*
D1081*
X0043033Y0120213D03*
D1082*
X0043013Y0120203D03*
D1083*
X0042993Y0120203D03*
D1084*
X0042973Y0120193D03*
D1085*
X0042953Y0120183D03*
X0042933Y0120183D03*
D1086*
X0042913Y0120173D03*
D1087*
X0042893Y0120163D03*
D1088*
X0042873Y0120153D03*
D1089*
X0042853Y0120153D03*
D1090*
X0042833Y0120143D03*
D1091*
X0042813Y0120133D03*
D1092*
X0042793Y0120123D03*
D1093*
X0042773Y0120113D03*
D1094*
X0042753Y0120113D03*
D1095*
X0042733Y0120103D03*
D1096*
X0042713Y0120093D03*
D1097*
X0042693Y0120073D03*
D1098*
X0042673Y0120063D03*
D1099*
X0042653Y0120063D03*
D1100*
X0042633Y0120053D03*
D1101*
X0042613Y0120043D03*
D1102*
X0042593Y0120033D03*
D1103*
X0042573Y0120023D03*
D1104*
X0042553Y0120013D03*
D1105*
X0042533Y0120003D03*
D1106*
X0042513Y0120003D03*
D1107*
X0042493Y0119993D03*
D1108*
X0042473Y0119983D03*
D1109*
X0042453Y0119973D03*
X0042433Y0119953D03*
D1110*
X0042413Y0119943D03*
D1111*
X0042393Y0119933D03*
D1112*
X0042373Y0119923D03*
D1113*
X0042353Y0119913D03*
D1114*
X0042333Y0119903D03*
D1115*
X0042313Y0119893D03*
D1116*
X0042293Y0119883D03*
D1117*
X0042273Y0119873D03*
D1118*
X0042253Y0119863D03*
D1119*
X0042233Y0119843D03*
D1120*
X0042213Y0119833D03*
D1121*
X0042193Y0119823D03*
D1122*
X0042173Y0119813D03*
D1123*
X0042153Y0119803D03*
D1124*
X0042133Y0119793D03*
D1125*
X0042113Y0119783D03*
D1126*
X0042093Y0119773D03*
D1127*
X0042073Y0119763D03*
D1128*
X0042053Y0119743D03*
D1129*
X0042033Y0119733D03*
D1130*
X0042013Y0119723D03*
D1131*
X0041993Y0119713D03*
D1132*
X0041973Y0119703D03*
D1133*
X0041953Y0119693D03*
D1134*
X0041933Y0119683D03*
D1135*
X0041913Y0119673D03*
D1136*
X0041893Y0119643D03*
D1137*
X0041873Y0119633D03*
D1138*
X0041853Y0119623D03*
D1139*
X0041833Y0119613D03*
D1140*
X0041813Y0119603D03*
D1141*
X0041793Y0119593D03*
D1142*
X0041773Y0119583D03*
D1143*
X0041753Y0119553D03*
D1144*
X0041733Y0119543D03*
D1145*
X0041713Y0119533D03*
D1146*
X0041693Y0119523D03*
D1147*
X0041673Y0119503D03*
D1148*
X0041653Y0119493D03*
D1149*
X0041633Y0119483D03*
D1150*
X0041613Y0119463D03*
D1151*
X0041593Y0119443D03*
D1152*
X0041573Y0119433D03*
D1153*
X0041553Y0119423D03*
D1154*
X0041533Y0119413D03*
D1155*
X0041513Y0119393D03*
D1156*
X0041493Y0119373D03*
D1157*
X0041473Y0119363D03*
D1158*
X0041453Y0119343D03*
D1159*
X0041433Y0119333D03*
D1160*
X0041413Y0119323D03*
D1161*
X0041393Y0119303D03*
D1162*
X0041373Y0119283D03*
D1163*
X0041353Y0119263D03*
D1164*
X0041333Y0119253D03*
D1165*
X0041313Y0119233D03*
D1166*
X0041293Y0119223D03*
D1167*
X0041273Y0119203D03*
D1168*
X0041253Y0119183D03*
D1169*
X0041233Y0119173D03*
D1170*
X0041213Y0119153D03*
D1171*
X0041193Y0119143D03*
D1172*
X0041173Y0119113D03*
D1173*
X0041153Y0119103D03*
D1174*
X0041133Y0119083D03*
D1175*
X0041113Y0119063D03*
D1176*
X0041093Y0119053D03*
D1177*
X0041073Y0119023D03*
D1178*
X0041053Y0119013D03*
D1179*
X0041033Y0118993D03*
D1180*
X0041013Y0118973D03*
D1181*
X0040993Y0118963D03*
D1182*
X0040973Y0118933D03*
D1183*
X0040953Y0118913D03*
D1184*
X0040933Y0118903D03*
D1185*
X0040913Y0118883D03*
D1186*
X0040893Y0118863D03*
D1187*
X0040873Y0118833D03*
D1188*
X0040853Y0118823D03*
D1189*
X0040833Y0118803D03*
D1190*
X0040813Y0118783D03*
D1191*
X0040793Y0118753D03*
D1192*
X0040773Y0118733D03*
D1193*
X0040753Y0118713D03*
D1194*
X0040733Y0118703D03*
D1195*
X0040713Y0118673D03*
D1196*
X0040693Y0118653D03*
D1197*
X0040673Y0118633D03*
D1198*
X0040653Y0118613D03*
D1199*
X0040633Y0118583D03*
D1200*
X0040613Y0118563D03*
D1201*
X0040593Y0118543D03*
D1202*
X0040573Y0118523D03*
D1203*
X0040553Y0118493D03*
D1204*
X0040533Y0118473D03*
D1205*
X0040513Y0118443D03*
D1206*
X0040493Y0118423D03*
D1207*
X0040473Y0118393D03*
D1208*
X0040453Y0118373D03*
D1209*
X0040433Y0118353D03*
D1210*
X0040413Y0118323D03*
D1211*
X0040393Y0118293D03*
D1212*
X0040373Y0118273D03*
D1213*
X0040353Y0118243D03*
D1214*
X0040333Y0118223D03*
D1215*
X0040313Y0118193D03*
D1216*
X0040293Y0118163D03*
D1217*
X0040273Y0118143D03*
D1218*
X0040253Y0118103D03*
D1219*
X0040233Y0118083D03*
D1220*
X0040213Y0118053D03*
D1221*
X0040193Y0118033D03*
D1222*
X0040173Y0117993D03*
D1223*
X0040153Y0117963D03*
D1224*
X0040133Y0117943D03*
D1225*
X0040113Y0117903D03*
D1226*
X0040093Y0117873D03*
D1227*
X0040073Y0117843D03*
D1228*
X0040053Y0117813D03*
D1229*
X0040033Y0117783D03*
D1230*
X0040013Y0117753D03*
D1231*
X0039993Y0117713D03*
D1232*
X0039973Y0117683D03*
D1233*
X0039953Y0117653D03*
D1234*
X0039933Y0117623D03*
D1235*
X0039913Y0117583D03*
D1236*
X0039893Y0117543D03*
D1237*
X0039873Y0117513D03*
D1238*
X0039853Y0117473D03*
D1239*
X0039833Y0117433D03*
D1240*
X0039813Y0117403D03*
D1241*
X0039793Y0117363D03*
D1242*
X0039773Y0117323D03*
D1243*
X0039753Y0117283D03*
D1244*
X0039733Y0117243D03*
D1245*
X0039713Y0117203D03*
D1246*
X0039693Y0117163D03*
D1247*
X0039673Y0117113D03*
D1248*
X0039653Y0117073D03*
D1249*
X0039633Y0117023D03*
D1250*
X0039613Y0116983D03*
D1251*
X0039593Y0116943D03*
D1252*
X0039573Y0116893D03*
D1253*
X0039553Y0116853D03*
D1254*
X0039533Y0116803D03*
D1255*
X0039513Y0116753D03*
D1256*
X0039493Y0116703D03*
D1257*
X0039473Y0116653D03*
D1258*
X0039453Y0116603D03*
D1259*
X0039433Y0116553D03*
D1260*
X0039413Y0116493D03*
D1261*
X0039393Y0116443D03*
D1262*
X0039373Y0116383D03*
D1263*
X0039353Y0116323D03*
D1264*
X0039333Y0116273D03*
D1265*
X0039313Y0116213D03*
D1266*
X0039293Y0116143D03*
D1267*
X0039273Y0116083D03*
D1268*
X0039253Y0116033D03*
D1269*
X0039233Y0115963D03*
D1270*
X0039213Y0115893D03*
D1271*
X0039193Y0115813D03*
D1272*
X0039173Y0115753D03*
D1273*
X0039153Y0115673D03*
X0034793Y0111373D03*
D1274*
X0034853Y0111463D03*
X0039133Y0115603D03*
D1275*
X0039113Y0115533D03*
D1276*
X0039093Y0115483D03*
D1277*
X0039073Y0115433D03*
D1278*
X0039013Y0115273D03*
D1279*
X0031393Y0105823D03*
X0028393Y0105303D03*
X0028253Y0105323D03*
X0028233Y0105323D03*
X0028193Y0105323D03*
X0028153Y0105323D03*
X0027953Y0105363D03*
X0026933Y0105623D03*
X0026853Y0105663D03*
X0026793Y0105703D03*
X0026753Y0105723D03*
X0026693Y0105763D03*
X0026593Y0105823D03*
X0024653Y0108063D03*
X0024633Y0108123D03*
X0026033Y0109263D03*
X0028233Y0110303D03*
X0027693Y0113923D03*
X0027653Y0113923D03*
X0027633Y0113923D03*
X0024833Y0111823D03*
X0024793Y0111763D03*
X0026453Y0124163D03*
X0026493Y0124203D03*
X0026533Y0124223D03*
X0038953Y0097363D03*
D1280*
X0038953Y0115153D03*
D1281*
X0038933Y0115113D03*
D1282*
X0038893Y0115043D03*
D1283*
X0038873Y0115003D03*
D1284*
X0038853Y0114973D03*
D1285*
X0038833Y0114933D03*
X0035393Y0112033D03*
D1286*
X0038813Y0114903D03*
D1287*
X0038793Y0114863D03*
D1288*
X0038733Y0114773D03*
D1289*
X0038713Y0114753D03*
X0035613Y0112213D03*
D1290*
X0038693Y0114713D03*
D1291*
X0038673Y0097433D03*
X0027913Y0105193D03*
X0026013Y0106393D03*
X0025973Y0106433D03*
X0026573Y0109093D03*
X0026613Y0109093D03*
X0028273Y0110293D03*
D1292*
X0038673Y0114693D03*
D1293*
X0038653Y0114663D03*
D1294*
X0038633Y0114643D03*
D1295*
X0038613Y0114603D03*
X0035773Y0112343D03*
D1296*
X0038593Y0097463D03*
X0028093Y0105163D03*
X0028053Y0105163D03*
X0028033Y0105163D03*
X0026693Y0109063D03*
X0025633Y0106763D03*
X0025733Y0106663D03*
X0028493Y0110263D03*
D1297*
X0038593Y0114583D03*
D1298*
X0038553Y0114533D03*
D1299*
X0038533Y0114503D03*
D1300*
X0038513Y0114483D03*
X0035913Y0112443D03*
D1301*
X0035953Y0112473D03*
X0038493Y0114453D03*
D1302*
X0038473Y0097493D03*
X0029113Y0113893D03*
X0029073Y0113893D03*
X0029013Y0113913D03*
X0027613Y0108933D03*
X0026873Y0109013D03*
X0027413Y0105453D03*
X0028473Y0105093D03*
X0028513Y0105093D03*
X0028573Y0105093D03*
X0028613Y0105093D03*
X0025213Y0107293D03*
D1303*
X0038473Y0114443D03*
D1304*
X0038453Y0114413D03*
D1305*
X0038433Y0114393D03*
X0036033Y0112533D03*
D1306*
X0038413Y0114363D03*
D1307*
X0038393Y0114353D03*
D1308*
X0038373Y0114323D03*
D1309*
X0038353Y0114303D03*
X0038333Y0114283D03*
X0036153Y0112623D03*
X0036133Y0112603D03*
D1310*
X0038313Y0097543D03*
X0028913Y0105103D03*
X0028113Y0105203D03*
X0024973Y0107683D03*
X0029373Y0113823D03*
X0029413Y0113823D03*
D1311*
X0036213Y0112663D03*
X0038313Y0114263D03*
D1312*
X0038293Y0114243D03*
X0036193Y0112643D03*
D1313*
X0036273Y0112703D03*
X0038273Y0114223D03*
D1314*
X0038253Y0114203D03*
X0036253Y0112683D03*
D1315*
X0036313Y0112723D03*
X0038213Y0114163D03*
D1316*
X0038173Y0097593D03*
X0029173Y0105133D03*
X0028973Y0105133D03*
X0028873Y0105133D03*
X0024773Y0108093D03*
X0024273Y0109393D03*
D1317*
X0038173Y0114123D03*
D1318*
X0038133Y0114083D03*
X0036453Y0112823D03*
D1319*
X0038113Y0097613D03*
D1320*
X0038113Y0114063D03*
D1321*
X0038073Y0114023D03*
X0036513Y0112863D03*
D1322*
X0038033Y0097643D03*
X0029253Y0105183D03*
X0024653Y0108383D03*
X0024633Y0108443D03*
D1323*
X0036553Y0112893D03*
X0038033Y0113993D03*
D1324*
X0038013Y0113973D03*
D1325*
X0032073Y0106673D03*
X0029473Y0105213D03*
X0027013Y0108893D03*
X0024613Y0108493D03*
X0029973Y0113613D03*
X0026013Y0123633D03*
X0037973Y0097673D03*
D1326*
X0036613Y0112933D03*
X0037973Y0113933D03*
D1327*
X0037913Y0113883D03*
D1328*
X0037893Y0113873D03*
X0036733Y0113013D03*
X0036693Y0112993D03*
D1329*
X0032113Y0106733D03*
X0029573Y0105253D03*
X0029513Y0105253D03*
X0025213Y0112553D03*
X0024913Y0112253D03*
X0024813Y0112133D03*
X0024773Y0112073D03*
X0024413Y0110733D03*
X0030073Y0113573D03*
X0030113Y0113553D03*
X0037873Y0097693D03*
D1330*
X0036673Y0112973D03*
X0037873Y0113853D03*
D1331*
X0037853Y0097713D03*
X0037833Y0097713D03*
X0025293Y0112613D03*
X0024733Y0112013D03*
D1332*
X0036793Y0113053D03*
X0037853Y0113833D03*
D1333*
X0037833Y0113813D03*
D1334*
X0037813Y0113793D03*
X0036813Y0113073D03*
D1335*
X0036833Y0113083D03*
X0036853Y0113103D03*
X0036893Y0113123D03*
X0037753Y0113743D03*
X0037793Y0113783D03*
D1336*
X0030213Y0113493D03*
X0025573Y0112793D03*
X0037773Y0097733D03*
D1337*
X0037773Y0113763D03*
D1338*
X0032153Y0106813D03*
X0029693Y0105313D03*
X0030193Y0113513D03*
X0025593Y0112813D03*
X0025533Y0112773D03*
X0024493Y0111573D03*
X0024533Y0108753D03*
X0037733Y0097753D03*
D1339*
X0036993Y0113193D03*
X0037733Y0113733D03*
D1340*
X0037673Y0113683D03*
X0037613Y0113643D03*
X0037013Y0113203D03*
X0036973Y0113183D03*
D1341*
X0036933Y0113153D03*
X0037653Y0113673D03*
D1342*
X0030333Y0113433D03*
X0025733Y0112893D03*
X0024493Y0108893D03*
X0037633Y0097793D03*
D1343*
X0037613Y0097803D03*
X0032213Y0106923D03*
X0030413Y0113383D03*
X0030373Y0113403D03*
X0025813Y0112943D03*
X0024373Y0111243D03*
D1344*
X0029873Y0105413D03*
X0037573Y0097813D03*
D1345*
X0037073Y0113253D03*
X0037113Y0113273D03*
X0037173Y0113313D03*
X0037573Y0113613D03*
D1346*
X0037553Y0113593D03*
X0037193Y0113333D03*
X0037133Y0113293D03*
X0037053Y0113233D03*
D1347*
X0037253Y0113373D03*
X0037393Y0113473D03*
X0037493Y0113553D03*
X0037533Y0113573D03*
D1348*
X0037513Y0113563D03*
X0037373Y0113463D03*
D1349*
X0029973Y0105473D03*
X0026073Y0113053D03*
X0037473Y0097853D03*
D1350*
X0037473Y0113533D03*
D1351*
X0037453Y0113523D03*
X0037433Y0113503D03*
X0037353Y0113443D03*
X0037333Y0113423D03*
X0037293Y0113403D03*
X0037153Y0113303D03*
D1352*
X0032273Y0107043D03*
X0030573Y0113283D03*
X0026173Y0113083D03*
X0037413Y0097883D03*
D1353*
X0037213Y0113343D03*
X0037273Y0113383D03*
X0037313Y0113423D03*
X0037413Y0113483D03*
D1354*
X0030033Y0105513D03*
X0026293Y0113113D03*
X0026253Y0113113D03*
X0037333Y0097913D03*
X0037353Y0097913D03*
D1355*
X0037173Y0097993D03*
D1356*
X0036973Y0098083D03*
X0031013Y0112943D03*
D1357*
X0036913Y0113133D03*
D1358*
X0036873Y0113103D03*
D1359*
X0031173Y0112783D03*
X0036773Y0098183D03*
D1360*
X0036773Y0113043D03*
D1361*
X0036753Y0113023D03*
D1362*
X0031233Y0112733D03*
X0027253Y0113193D03*
X0027233Y0113193D03*
X0027193Y0113193D03*
X0036693Y0098233D03*
D1363*
X0036653Y0098253D03*
X0031293Y0112673D03*
X0027393Y0113173D03*
X0027353Y0113173D03*
D1364*
X0036593Y0112923D03*
D1365*
X0036573Y0112903D03*
D1366*
X0036533Y0112873D03*
D1367*
X0036493Y0112853D03*
X0036433Y0112813D03*
D1368*
X0036473Y0112833D03*
D1369*
X0036413Y0112803D03*
D1370*
X0036353Y0112763D03*
D1371*
X0036333Y0098443D03*
D1372*
X0036293Y0098463D03*
X0027893Y0113063D03*
D1373*
X0036293Y0112713D03*
D1374*
X0036173Y0112633D03*
D1375*
X0036113Y0112593D03*
D1376*
X0036093Y0112583D03*
D1377*
X0036073Y0112553D03*
D1378*
X0035973Y0112493D03*
D1379*
X0035933Y0112463D03*
D1380*
X0035873Y0112423D03*
D1381*
X0035853Y0112403D03*
D1382*
X0035833Y0112383D03*
D1383*
X0035793Y0112363D03*
D1384*
X0035733Y0112313D03*
D1385*
X0035713Y0112293D03*
D1386*
X0035693Y0112283D03*
D1387*
X0028873Y0112593D03*
X0028813Y0112633D03*
X0035673Y0098893D03*
D1388*
X0035673Y0112263D03*
D1389*
X0035653Y0112243D03*
D1390*
X0035633Y0112233D03*
D1391*
X0035593Y0112203D03*
D1392*
X0035573Y0112183D03*
D1393*
X0035553Y0112163D03*
D1394*
X0035533Y0112143D03*
D1395*
X0035493Y0112113D03*
D1396*
X0035473Y0112103D03*
D1397*
X0035433Y0112073D03*
D1398*
X0035413Y0112043D03*
D1399*
X0035373Y0112013D03*
D1400*
X0035353Y0111993D03*
D1401*
X0035333Y0111983D03*
D1402*
X0035313Y0111963D03*
D1403*
X0035273Y0111913D03*
D1404*
X0035253Y0111903D03*
D1405*
X0035233Y0111883D03*
D1406*
X0035213Y0111863D03*
D1407*
X0035193Y0111843D03*
D1408*
X0035153Y0111803D03*
D1409*
X0035133Y0111783D03*
D1410*
X0035093Y0111733D03*
D1411*
X0035073Y0111713D03*
D1412*
X0034993Y0111633D03*
D1413*
X0034973Y0111603D03*
D1414*
X0034953Y0111583D03*
D1415*
X0034933Y0111563D03*
D1416*
X0034893Y0111513D03*
D1417*
X0034873Y0111483D03*
D1418*
X0034853Y0099733D03*
D1419*
X0034833Y0111433D03*
D1420*
X0034813Y0111393D03*
D1421*
X0034773Y0111343D03*
D1422*
X0034753Y0111313D03*
D1423*
X0034733Y0111283D03*
D1424*
X0034713Y0111253D03*
D1425*
X0034693Y0111213D03*
D1426*
X0034673Y0111183D03*
D1427*
X0034653Y0111143D03*
D1428*
X0034633Y0111113D03*
D1429*
X0034613Y0111073D03*
D1430*
X0034593Y0111033D03*
D1431*
X0034573Y0100213D03*
D1432*
X0034573Y0110993D03*
D1433*
X0034553Y0110943D03*
D1434*
X0034533Y0110893D03*
D1435*
X0034513Y0110833D03*
D1436*
X0034493Y0114953D03*
X0025893Y0120033D03*
D1437*
X0025773Y0119993D03*
X0033573Y0103633D03*
X0034473Y0115033D03*
D1438*
X0034453Y0104643D03*
D1439*
X0034453Y0115103D03*
X0025693Y0119963D03*
D1440*
X0034433Y0104593D03*
D1441*
X0034413Y0104533D03*
D1442*
X0034413Y0115193D03*
X0025573Y0119933D03*
D1443*
X0034393Y0104493D03*
D1444*
X0034373Y0104453D03*
D1445*
X0034373Y0115273D03*
D1446*
X0034353Y0115313D03*
X0025433Y0119873D03*
D1447*
X0034333Y0104383D03*
D1448*
X0034333Y0115343D03*
D1449*
X0034313Y0104353D03*
D1450*
X0034293Y0104323D03*
D1451*
X0034273Y0104293D03*
D1452*
X0034273Y0115423D03*
D1453*
X0034253Y0115453D03*
X0026053Y0119473D03*
X0025293Y0119813D03*
D1454*
X0034233Y0104243D03*
D1455*
X0034233Y0115483D03*
D1456*
X0034213Y0104213D03*
D1457*
X0034193Y0104193D03*
D1458*
X0034173Y0104153D03*
D1459*
X0034153Y0115573D03*
D1460*
X0034113Y0104093D03*
D1461*
X0034113Y0115623D03*
D1462*
X0034093Y0115643D03*
D1463*
X0034073Y0104043D03*
D1464*
X0034073Y0115663D03*
D1465*
X0034053Y0115683D03*
D1466*
X0034033Y0104003D03*
D1467*
X0034033Y0115703D03*
X0025093Y0119703D03*
D1468*
X0034013Y0103983D03*
D1469*
X0034013Y0115723D03*
X0025073Y0119703D03*
D1470*
X0033253Y0103443D03*
X0033993Y0115743D03*
D1471*
X0033973Y0103953D03*
D1472*
X0033973Y0115753D03*
D1473*
X0033953Y0103933D03*
D1474*
X0030853Y0108593D03*
X0033933Y0115793D03*
D1475*
X0033873Y0103863D03*
D1476*
X0033873Y0115843D03*
D1477*
X0033853Y0115853D03*
D1478*
X0033813Y0115883D03*
D1479*
X0033793Y0115913D03*
D1480*
X0033753Y0115943D03*
X0026753Y0118803D03*
X0026733Y0118823D03*
D1481*
X0033733Y0103753D03*
D1482*
X0033733Y0115953D03*
D1483*
X0033713Y0115973D03*
X0026813Y0118773D03*
D1484*
X0026853Y0118743D03*
X0033693Y0115983D03*
D1485*
X0033673Y0115993D03*
X0026873Y0118733D03*
D1486*
X0033653Y0103693D03*
D1487*
X0033653Y0116013D03*
D1488*
X0033633Y0116023D03*
X0026953Y0118683D03*
D1489*
X0033613Y0116033D03*
D1490*
X0033593Y0103653D03*
X0025833Y0120013D03*
D1491*
X0033573Y0116073D03*
D1492*
X0033553Y0103613D03*
D1493*
X0033533Y0103613D03*
D1494*
X0033513Y0103593D03*
D1495*
X0031073Y0108533D03*
X0033513Y0116113D03*
X0027173Y0118573D03*
D1496*
X0033493Y0103583D03*
D1497*
X0033473Y0103573D03*
D1498*
X0033453Y0103563D03*
D1499*
X0031093Y0108523D03*
X0033453Y0116143D03*
X0027253Y0118523D03*
D1500*
X0033413Y0103543D03*
D1501*
X0031113Y0108513D03*
X0033413Y0116173D03*
X0027373Y0118473D03*
D1502*
X0033393Y0116193D03*
D1503*
X0033353Y0103493D03*
X0025253Y0119793D03*
D1504*
X0031133Y0108513D03*
X0033353Y0116213D03*
D1505*
X0033333Y0103483D03*
X0026133Y0119343D03*
D1506*
X0033333Y0116223D03*
D1507*
X0033293Y0116253D03*
X0027593Y0118373D03*
X0027553Y0118393D03*
D1508*
X0033273Y0103453D03*
D1509*
X0033273Y0116263D03*
X0027613Y0118363D03*
D1510*
X0033233Y0116293D03*
D1511*
X0033213Y0116303D03*
X0031173Y0108503D03*
X0027713Y0118323D03*
X0027673Y0118343D03*
D1512*
X0027733Y0118313D03*
X0024733Y0119473D03*
X0033193Y0116313D03*
D1513*
X0033173Y0103393D03*
X0026773Y0118793D03*
D1514*
X0033153Y0103383D03*
D1515*
X0033133Y0116343D03*
X0027833Y0118283D03*
D1516*
X0033113Y0103363D03*
D1517*
X0033113Y0116363D03*
D1518*
X0027353Y0118473D03*
X0024793Y0119513D03*
X0033093Y0103353D03*
D1519*
X0033093Y0116373D03*
X0027893Y0118253D03*
X0027853Y0118273D03*
D1520*
X0033073Y0103343D03*
D1521*
X0033053Y0103333D03*
X0027693Y0118333D03*
D1522*
X0027933Y0118233D03*
X0027953Y0118233D03*
X0033053Y0116393D03*
D1523*
X0033013Y0103313D03*
D1524*
X0033013Y0116413D03*
D1525*
X0032993Y0109393D03*
D1526*
X0032993Y0116423D03*
D1527*
X0032973Y0116443D03*
X0028073Y0118183D03*
D1528*
X0032953Y0109393D03*
D1529*
X0032633Y0109393D03*
X0032133Y0116873D03*
X0029453Y0117733D03*
X0029393Y0117753D03*
X0032933Y0103273D03*
D1530*
X0032913Y0103263D03*
X0029913Y0117603D03*
D1531*
X0032893Y0109393D03*
D1532*
X0032873Y0109393D03*
D1533*
X0032873Y0116493D03*
X0028273Y0118113D03*
D1534*
X0028253Y0118113D03*
X0032853Y0116513D03*
D1535*
X0032833Y0116523D03*
X0028293Y0118103D03*
X0024653Y0119403D03*
D1536*
X0032793Y0103193D03*
D1537*
X0032793Y0116533D03*
D1538*
X0032773Y0109403D03*
D1539*
X0032773Y0116543D03*
D1540*
X0032753Y0109393D03*
D1541*
X0032753Y0116563D03*
X0028393Y0118063D03*
D1542*
X0028433Y0118053D03*
X0028453Y0118053D03*
X0032733Y0116573D03*
D1543*
X0032713Y0116583D03*
X0028513Y0118023D03*
X0028473Y0118043D03*
D1544*
X0030633Y0117393D03*
X0030653Y0117393D03*
X0030833Y0117333D03*
X0030853Y0117333D03*
X0030953Y0117293D03*
X0030993Y0117293D03*
X0031153Y0117233D03*
X0032693Y0109393D03*
D1545*
X0032693Y0116593D03*
D1546*
X0031673Y0117053D03*
X0031613Y0117073D03*
X0031573Y0117093D03*
X0030113Y0117553D03*
X0030073Y0117553D03*
X0030013Y0117573D03*
X0032673Y0109393D03*
D1547*
X0032673Y0116603D03*
X0028573Y0118003D03*
D1548*
X0024533Y0119293D03*
X0032653Y0109393D03*
D1549*
X0030513Y0113323D03*
X0026013Y0113023D03*
X0025973Y0113003D03*
X0032613Y0103103D03*
D1550*
X0032613Y0109403D03*
X0032273Y0116803D03*
X0029213Y0117803D03*
D1551*
X0028673Y0117973D03*
X0028613Y0117993D03*
X0032613Y0116633D03*
D1552*
X0032593Y0109393D03*
D1553*
X0032573Y0109393D03*
X0028813Y0117933D03*
D1554*
X0028633Y0117993D03*
X0032553Y0109393D03*
D1555*
X0032553Y0116663D03*
X0028833Y0117923D03*
D1556*
X0028493Y0118033D03*
X0032533Y0109393D03*
D1557*
X0032533Y0116673D03*
X0028753Y0117953D03*
X0028733Y0117953D03*
D1558*
X0032473Y0107613D03*
D1559*
X0032433Y0116723D03*
X0028893Y0117903D03*
D1560*
X0028913Y0117893D03*
X0032413Y0116733D03*
D1561*
X0030073Y0111453D03*
X0032373Y0110973D03*
D1562*
X0032373Y0116753D03*
X0029073Y0117853D03*
D1563*
X0032353Y0116763D03*
D1564*
X0032333Y0116773D03*
X0029053Y0117853D03*
X0031353Y0108453D03*
D1565*
X0032313Y0116783D03*
X0029113Y0117843D03*
D1566*
X0029133Y0117833D03*
X0032293Y0116793D03*
D1567*
X0032253Y0116813D03*
X0029193Y0117813D03*
D1568*
X0029273Y0117793D03*
X0029313Y0117773D03*
X0032213Y0116833D03*
X0031373Y0108453D03*
D1569*
X0032153Y0111463D03*
X0029433Y0112163D03*
D1570*
X0032153Y0116863D03*
X0029353Y0117763D03*
D1571*
X0025353Y0112663D03*
X0025233Y0112563D03*
X0024533Y0111663D03*
X0032133Y0106763D03*
D1572*
X0032113Y0116873D03*
X0029413Y0117753D03*
D1573*
X0029533Y0117713D03*
X0029553Y0117713D03*
X0032033Y0116913D03*
X0031393Y0108453D03*
D1574*
X0032013Y0116913D03*
D1575*
X0029713Y0113723D03*
X0029673Y0113743D03*
X0026973Y0108923D03*
X0029213Y0105143D03*
X0031973Y0106503D03*
X0024713Y0108223D03*
D1576*
X0029573Y0117703D03*
X0029613Y0117683D03*
X0031973Y0116943D03*
D1577*
X0031953Y0111813D03*
X0028993Y0112513D03*
D1578*
X0029733Y0117653D03*
X0029753Y0117653D03*
X0029693Y0117673D03*
X0031893Y0116973D03*
X0031933Y0116953D03*
D1579*
X0031873Y0106363D03*
X0028313Y0105163D03*
X0026073Y0123763D03*
D1580*
X0029773Y0117643D03*
X0031813Y0117003D03*
X0031873Y0116983D03*
X0031413Y0108443D03*
D1581*
X0031833Y0116993D03*
X0031733Y0117033D03*
X0029953Y0117593D03*
X0029833Y0117633D03*
D1582*
X0029193Y0113883D03*
X0029153Y0113883D03*
X0028333Y0110283D03*
X0025153Y0107383D03*
X0028633Y0105083D03*
X0031793Y0106243D03*
X0026093Y0123783D03*
D1583*
X0029893Y0117613D03*
X0031793Y0117013D03*
D1584*
X0031773Y0117013D03*
X0029873Y0117613D03*
D1585*
X0029933Y0117603D03*
X0031653Y0117063D03*
X0031753Y0117023D03*
D1586*
X0031713Y0117043D03*
X0029973Y0117583D03*
D1587*
X0031653Y0108383D03*
D1588*
X0031633Y0117073D03*
X0030093Y0117553D03*
X0030053Y0117573D03*
X0030033Y0117573D03*
D1589*
X0031613Y0108393D03*
D1590*
X0031553Y0117103D03*
X0031533Y0117103D03*
X0031493Y0117123D03*
X0030193Y0117523D03*
D1591*
X0031533Y0108413D03*
D1592*
X0031513Y0117113D03*
D1593*
X0028213Y0113973D03*
X0028173Y0113973D03*
X0028113Y0113973D03*
X0028073Y0113973D03*
X0028513Y0110293D03*
X0026313Y0109173D03*
X0026273Y0109193D03*
X0026873Y0105793D03*
X0026973Y0105733D03*
X0027073Y0105693D03*
X0027113Y0105673D03*
X0027173Y0105633D03*
X0027273Y0105593D03*
X0027373Y0105393D03*
X0024413Y0108733D03*
X0024673Y0111553D03*
X0026313Y0124053D03*
X0031473Y0105893D03*
D1594*
X0031473Y0108423D03*
D1595*
X0031453Y0108433D03*
D1596*
X0031333Y0108463D03*
D1597*
X0031333Y0117183D03*
X0031293Y0117183D03*
X0031253Y0117203D03*
X0031193Y0117223D03*
X0031133Y0117243D03*
X0030553Y0117423D03*
X0030533Y0117423D03*
X0030493Y0117443D03*
X0030453Y0117443D03*
D1598*
X0025313Y0106963D03*
X0025473Y0106763D03*
X0025573Y0106663D03*
X0025673Y0106563D03*
X0025773Y0106463D03*
X0025873Y0106363D03*
X0026113Y0106163D03*
X0029113Y0105363D03*
X0031313Y0105763D03*
D1599*
X0031313Y0108463D03*
X0028713Y0117963D03*
X0024613Y0119363D03*
D1600*
X0030473Y0117443D03*
X0030613Y0117403D03*
X0031213Y0117223D03*
X0031273Y0117203D03*
X0031313Y0117183D03*
D1601*
X0031213Y0108503D03*
D1602*
X0031173Y0117233D03*
X0030973Y0117293D03*
X0030873Y0117333D03*
X0030673Y0117393D03*
X0030513Y0117433D03*
D1603*
X0031153Y0108513D03*
D1604*
X0031113Y0117253D03*
X0031013Y0117273D03*
X0030913Y0117313D03*
X0030813Y0117353D03*
X0030773Y0117353D03*
X0030713Y0117373D03*
X0030573Y0117413D03*
D1605*
X0027033Y0118643D03*
X0031033Y0108543D03*
D1606*
X0031013Y0108553D03*
D1607*
X0030993Y0108553D03*
X0026833Y0118753D03*
D1608*
X0030973Y0108553D03*
D1609*
X0030953Y0108563D03*
D1610*
X0030913Y0108573D03*
X0026573Y0118933D03*
D1611*
X0026553Y0118953D03*
X0024993Y0119653D03*
X0030893Y0108573D03*
D1612*
X0030833Y0108603D03*
D1613*
X0030813Y0108603D03*
D1614*
X0030793Y0108613D03*
D1615*
X0030773Y0110003D03*
D1616*
X0030753Y0110103D03*
D1617*
X0030753Y0117363D03*
X0030433Y0117463D03*
X0030393Y0117463D03*
D1618*
X0030713Y0110263D03*
D1619*
X0030673Y0110383D03*
D1620*
X0030673Y0113213D03*
X0026273Y0113113D03*
X0024313Y0111013D03*
D1621*
X0030633Y0110483D03*
D1622*
X0030513Y0110763D03*
D1623*
X0030493Y0110793D03*
D1624*
X0030373Y0111013D03*
D1625*
X0030313Y0105763D03*
D1626*
X0030273Y0105713D03*
D1627*
X0030273Y0117503D03*
X0030213Y0117523D03*
X0030173Y0117523D03*
D1628*
X0030233Y0117513D03*
X0030253Y0117513D03*
D1629*
X0030033Y0111513D03*
D1630*
X0029653Y0111943D03*
D1631*
X0029593Y0117693D03*
D1632*
X0029373Y0117763D03*
D1633*
X0029293Y0117783D03*
D1634*
X0029173Y0113883D03*
X0025113Y0107443D03*
X0025173Y0107343D03*
X0027813Y0105283D03*
D1635*
X0029173Y0117813D03*
D1636*
X0029013Y0117863D03*
X0028973Y0117883D03*
D1637*
X0028973Y0112533D03*
D1638*
X0028933Y0117893D03*
D1639*
X0028913Y0112563D03*
D1640*
X0028853Y0117913D03*
D1641*
X0028793Y0117943D03*
D1642*
X0028713Y0112693D03*
D1643*
X0028693Y0117963D03*
D1644*
X0028553Y0118013D03*
X0028533Y0118013D03*
D1645*
X0028413Y0118063D03*
D1646*
X0028353Y0118083D03*
X0028333Y0118083D03*
D1647*
X0026253Y0123993D03*
X0028253Y0110293D03*
X0026453Y0109133D03*
X0026433Y0109133D03*
X0026333Y0106133D03*
X0026393Y0106093D03*
X0026533Y0105993D03*
X0026633Y0105933D03*
X0027633Y0105293D03*
D1648*
X0028233Y0118123D03*
D1649*
X0028173Y0112963D03*
D1650*
X0028173Y0118143D03*
X0024673Y0119423D03*
D1651*
X0028113Y0118173D03*
D1652*
X0028013Y0113963D03*
X0027973Y0113963D03*
X0026173Y0109223D03*
X0026213Y0109203D03*
X0027513Y0105503D03*
X0027613Y0105463D03*
X0024513Y0108423D03*
X0024713Y0111623D03*
X0026373Y0124103D03*
D1653*
X0027973Y0118223D03*
X0028013Y0118203D03*
D1654*
X0027993Y0118213D03*
D1655*
X0027873Y0118253D03*
X0024713Y0119453D03*
D1656*
X0027813Y0118283D03*
D1657*
X0027653Y0118353D03*
X0027633Y0118353D03*
D1658*
X0024573Y0111333D03*
X0026473Y0109133D03*
X0026473Y0106033D03*
X0027613Y0105293D03*
D1659*
X0027493Y0118413D03*
D1660*
X0027473Y0113163D03*
D1661*
X0027473Y0118423D03*
X0024773Y0119503D03*
D1662*
X0026353Y0109163D03*
X0026593Y0105963D03*
X0026733Y0105863D03*
X0026753Y0105863D03*
X0027453Y0105363D03*
D1663*
X0027413Y0118453D03*
D1664*
X0027393Y0118463D03*
D1665*
X0027313Y0118503D03*
D1666*
X0027273Y0118523D03*
D1667*
X0027233Y0118533D03*
D1668*
X0027213Y0108363D03*
D1669*
X0027153Y0118583D03*
X0027133Y0118583D03*
X0024833Y0119543D03*
D1670*
X0027113Y0108093D03*
D1671*
X0027093Y0118613D03*
D1672*
X0027073Y0118623D03*
D1673*
X0027053Y0118633D03*
D1674*
X0027013Y0113203D03*
X0026973Y0113203D03*
D1675*
X0027013Y0118663D03*
D1676*
X0026993Y0118673D03*
D1677*
X0026913Y0118713D03*
D1678*
X0026893Y0118723D03*
D1679*
X0026713Y0118833D03*
D1680*
X0026693Y0118853D03*
D1681*
X0026673Y0118863D03*
D1682*
X0026653Y0118883D03*
D1683*
X0026613Y0118903D03*
D1684*
X0026593Y0118913D03*
D1685*
X0026593Y0124263D03*
X0025153Y0107163D03*
X0025233Y0107063D03*
X0025393Y0106863D03*
X0025993Y0106263D03*
D1686*
X0026513Y0118973D03*
D1687*
X0026493Y0118993D03*
D1688*
X0026473Y0119013D03*
D1689*
X0026433Y0119043D03*
D1690*
X0026413Y0119063D03*
D1691*
X0026393Y0119073D03*
X0025053Y0119693D03*
D1692*
X0026373Y0109163D03*
D1693*
X0026373Y0119093D03*
D1694*
X0026353Y0119113D03*
D1695*
X0026293Y0119173D03*
D1696*
X0026273Y0119183D03*
D1697*
X0026253Y0119203D03*
D1698*
X0026173Y0119303D03*
D1699*
X0026153Y0119323D03*
X0025193Y0119763D03*
D1700*
X0026113Y0119373D03*
D1701*
X0026093Y0119403D03*
D1702*
X0026073Y0119433D03*
D1703*
X0025973Y0120043D03*
D1704*
X0025953Y0120043D03*
X0025933Y0120043D03*
D1705*
X0025913Y0120033D03*
D1706*
X0025873Y0112963D03*
D1707*
X0025873Y0120023D03*
D1708*
X0025853Y0120023D03*
D1709*
X0025813Y0120003D03*
D1710*
X0025793Y0120003D03*
D1711*
X0025753Y0119993D03*
D1712*
X0025713Y0119983D03*
D1713*
X0025673Y0119953D03*
D1714*
X0025653Y0119953D03*
D1715*
X0025633Y0119943D03*
D1716*
X0025613Y0119943D03*
D1717*
X0025533Y0119913D03*
D1718*
X0025513Y0112763D03*
X0025373Y0112663D03*
X0025113Y0112463D03*
X0025013Y0112363D03*
D1719*
X0025513Y0119903D03*
D1720*
X0025493Y0106913D03*
D1721*
X0025493Y0119903D03*
D1722*
X0025473Y0119883D03*
D1723*
X0025413Y0107013D03*
D1724*
X0025413Y0119863D03*
D1725*
X0025393Y0119853D03*
D1726*
X0025333Y0119833D03*
D1727*
X0025313Y0119823D03*
D1728*
X0025273Y0119803D03*
D1729*
X0025213Y0119783D03*
D1730*
X0025173Y0119753D03*
D1731*
X0025153Y0119743D03*
D1732*
X0025013Y0107613D03*
D1733*
X0025013Y0119663D03*
D1734*
X0024973Y0119643D03*
D1735*
X0024913Y0119603D03*
D1736*
X0024873Y0119583D03*
D1737*
X0024553Y0119313D03*
D1738*
X0024513Y0119283D03*
D1739*
X0024453Y0119213D03*
D1740*
X0024413Y0119173D03*
D1741*
X0024393Y0119153D03*
D1742*
X0024373Y0119123D03*
D1743*
X0024313Y0119053D03*
M02*
