%
M48
M72
T01C0.01200
T02C0.02362
T03C0.03200
T04C0.04724
T05C0.05118
%
T01
X74819Y32156
X65961Y179793
X19701Y112864
X36433Y193573
X79740Y139439
X79740Y110896
X14780Y90226
X38402Y113848
X75803Y129596
X64976Y82352
X59071Y80384
X15764Y48888
X34465Y52825
X78756Y44951
X67929Y68573
X78756Y71526
X78756Y86289
X42339Y40030
X38402Y75463
X72850Y35108
X58087Y85305
X50213Y75463
T02
X66748Y20148
X74622Y20148
X58874Y20148
T03
X40882Y148100
X50882Y148100
T04
X21866Y21722
X21866Y49281
X49425Y20148
X84071Y20148
T05
X45488Y33533
X45488Y183140
M30
